<?xml version="1.0" encoding="utf-8"?>
<!-- Generator: Adobe Illustrator 24.1.0, SVG Export Plug-In . SVG Version: 6.00 Build 0)  -->
<svg version="1.1" id="Layer_1" xmlns="http://www.w3.org/2000/svg" xmlns:xlink="http://www.w3.org/1999/xlink" x="0px" y="0px"
	 viewBox="0 0 120 150" style="enable-background:new 0 0 120 150;" xml:space="preserve">
<style type="text/css">
	.st0{fill:#A9E3ED;}
	.st1{fill:none;stroke:#FFCFEB;stroke-width:3;stroke-miterlimit:10;}
</style>
<rect x="-673.5" y="-13.7" class="st0" width="120" height="150"/>
<circle class="st1" cx="95" cy="121.7" r="48.4"/>
<circle class="st1" cx="-315.7" cy="226.9" r="65"/>
<circle class="st1" cx="-147.1" cy="-68.7" r="44.2"/>
<circle class="st1" cx="-242.3" cy="-81.1" r="44.2"/>
<g>
	<path d="M59.6,112.8l-12-48.9l2.8-0.7c0.4-0.1,0.8-0.4,0.9-0.9c0.1-0.4,0-0.9-0.3-1.2l-18.3-17c-0.3-0.3-0.7-0.4-1.1-0.3
		c-0.4,0.1-0.7,0.4-0.8,0.8L23.3,68c-0.1,0.4,0,0.9,0.3,1.2c0.2,0.2,0.5,0.4,0.9,0.4c0.1,0,0.2,0,0.3,0l2.8-0.7l12,48.9
		c0.1,0.3,0.3,0.6,0.5,0.7c0.2,0.1,0.4,0.2,0.6,0.2c0.1,0,0.2,0,0.3,0l8.1-2l2.4,9.7c0.1,0.5,0.6,0.9,1.1,0.9c0.1,0,0.2,0,0.3,0
		c0.6-0.2,1-0.8,0.9-1.4l-2.4-9.7l7.6-1.9C59.4,113.9,59.7,113.3,59.6,112.8z M35.8,93.5l12.8-15.7l2.2,8.9L38,102.4L35.8,93.5z
		 M33,81.7l12.8-15.7l2.2,8.9L35.2,90.6L33,81.7z M32.4,47.1l15.3,14.4l-21.6,5.3L32.4,47.1z M43.6,64.9l-11.3,14l-2.6-10.6
		L43.6,64.9z M38.8,105.4l12.8-15.7l2.2,8.9L41,114.3L38.8,105.4z M42.9,115.6l11.5-14.3l2.7,10.8L42.9,115.6z"/>
	<path d="M68.6,119.5c0.1,0,0.1,0,0.2,0c0.6,0,1.1-0.4,1.2-1l1.3-9.9l7.8,1c0.1,0,0.1,0,0.2,0c0.6,0,1.1-0.4,1.2-1l6.5-49.9l2.9,0.4
		c0.1,0,0.1,0,0.2,0c0.4,0,0.7-0.2,1-0.5c0.3-0.4,0.3-0.8,0.1-1.2L80.2,35c-0.2-0.4-0.5-0.6-0.9-0.7c-0.4-0.1-0.8,0.1-1.1,0.4
		L62.6,53.8c-0.3,0.3-0.3,0.8-0.2,1.2c0.2,0.4,0.5,0.7,0.9,0.7l2.9,0.4l-6.5,49.9c0,0.3,0,0.6,0.2,0.9c0.2,0.2,0.5,0.4,0.8,0.5
		l8.3,1.1l-1.3,9.9C67.5,118.9,67.9,119.4,68.6,119.5z M78,107.1l-14.5-1.9l15.9-9.1L78,107.1z M66.6,70.1L84.2,60L83,69.1
		L65.4,79.2L66.6,70.1z M65,82.2L82.6,72l-1.2,9.1L63.9,91.3L65,82.2z M63.5,94.2L81.1,84l-1.2,9.1l-17.6,10.1L63.5,94.2z
		 M78.6,37.6l9.1,18.9l-22-2.9L78.6,37.6z M82.6,58.2L67,67.1l1.4-10.8L82.6,58.2z"/>
	<path d="M61.4,34.8c-10.1,4.1-11.6,14.2-11.6,14.7c-0.1,0.6,0.4,1.2,1,1.3c0.1,0,0.1,0,0.2,0c0.6,0,1.1-0.4,1.2-1
		c0-0.1,1.3-9.1,10.2-12.8c0.6-0.2,0.9-0.9,0.6-1.5C62.7,34.8,62,34.5,61.4,34.8z"/>
	<path d="M102.1,45c-6.6-1.2-10.8,6.3-11,6.6c-0.3,0.6-0.1,1.3,0.5,1.6c0.2,0.1,0.4,0.1,0.6,0.1c0.4,0,0.8-0.2,1-0.6
		c0-0.1,3.5-6.3,8.6-5.4c0.6,0.1,1.3-0.3,1.4-0.9S102.7,45.1,102.1,45z"/>
	<path d="M20.2,55.2c0.2,0.4,0.6,0.5,1,0.5c0.2,0,0.4-0.1,0.6-0.2c0.6-0.4,0.7-1.1,0.4-1.6c-0.2-0.3-4.8-7.5-11.4-5.9
		c-0.6,0.2-1,0.8-0.9,1.4c0.2,0.6,0.8,1,1.4,0.9C16.3,49.1,20.2,55.2,20.2,55.2z"/>
	<path d="M15.3,42.7l3.1,1l1,3.1c0.1,0.4,0.5,0.7,0.9,0.8c0.1,0,0.1,0,0.2,0c0.4,0,0.7-0.2,1-0.5l1.9-2.8h3.3l0,0
		c0.4,0,0.9-0.3,1.1-0.6c0.2-0.4,0.2-0.9-0.1-1.2l-2-2.7l1.1-3.1c0.1-0.4,0-0.9-0.3-1.2c-0.3-0.3-0.8-0.4-1.2-0.3l-3.1,1.1l-2.7-2
		c-0.4-0.3-0.8-0.3-1.2-0.1c-0.5,0.2-0.7,0.6-0.7,1.1l0.1,3.3l-2.7,1.9c-0.4,0.3-0.6,0.7-0.5,1.2C14.6,42.3,14.9,42.6,15.3,42.7z
		 M19.5,40.3c0.3-0.2,0.5-0.6,0.5-1v-1.6l1.3,1c0.3,0.2,0.7,0.3,1.1,0.2l1.5-0.5l-0.5,1.5c-0.1,0.4-0.1,0.8,0.2,1.1l1,1.3H23
		c-0.4,0-0.8,0.2-1,0.5L21.1,44l-0.6-1.6c-0.1-0.4-0.4-0.7-0.8-0.8l-1.5-0.5L19.5,40.3z"/>
	<path d="M99.8,67.4l1.1-3.1c0.1-0.4,0-0.9-0.3-1.2c-0.3-0.3-0.8-0.4-1.2-0.3l-3.1,1.1l-2.7-2c-0.4-0.3-0.8-0.3-1.2-0.1
		c-0.4,0.2-0.7,0.6-0.6,1.1l0.1,3.3l-2.7,1.9c-0.4,0.3-0.6,0.7-0.5,1.2c0.1,0.4,0.4,0.8,0.8,0.9l3.1,1l1,3.1
		c0.1,0.4,0.5,0.7,0.9,0.8c0.1,0,0.1,0,0.2,0c0.4,0,0.7-0.2,1-0.5l1.9-2.8h3.3c0.4,0,0.9-0.2,1.1-0.6c0.2-0.4,0.2-0.9-0.1-1.2
		L99.8,67.4z M96.9,69.6c-0.4-0.1-0.8,0.2-1,0.5L95,71.4l-0.5-1.5c-0.1-0.4-0.4-0.7-0.8-0.8l-1.5-0.5l1.3-0.9c0.3-0.2,0.5-0.6,0.5-1
		v-1.6l1.3,1c0.3,0.2,0.7,0.3,1.1,0.2l1.5-0.5l-0.5,1.5c-0.1,0.4-0.1,0.8,0.2,1.1l1,1.3L96.9,69.6z"/>
	<path d="M25.8,88.4c0.2-0.4,0.2-0.9-0.1-1.2l-2-2.7l1.1-3.1c0.1-0.4,0-0.9-0.3-1.2c-0.3-0.3-0.8-0.4-1.2-0.3L20.2,81l-2.7-2
		c-0.4-0.3-0.8-0.3-1.2-0.1c-0.4,0.2-0.6,0.6-0.6,1.1l0.1,3.3l-2.7,1.9c-0.4,0.3-0.6,0.7-0.5,1.2c0.1,0.4,0.4,0.8,0.8,0.9l3.1,1
		l1,3.1c0.1,0.4,0.5,0.7,0.9,0.8c0.1,0,0.1,0,0.2,0c0.4,0,0.7-0.2,1-0.5l1.9-2.8h3.3C25.3,89,25.6,88.8,25.8,88.4z M20.9,86.6
		L20.9,86.6c-0.4,0-0.8,0.2-1,0.5L19,88.4l-0.5-1.5c-0.1-0.4-0.4-0.7-0.8-0.8l-1.5-0.4l1.3-0.9c0.3-0.2,0.5-0.6,0.5-1v-1.6l1.3,1
		c0.3,0.2,0.7,0.3,1.1,0.2l1.5-0.5l-0.5,1.5c-0.1,0.4-0.1,0.8,0.2,1.1l1,1.3L20.9,86.6z"/>
</g>
<rect x="-622.2" y="-212.7" class="st0" width="120" height="150"/>
<circle class="st0" cx="-55.7" cy="47.7" r="34.5"/>
<circle class="st0" cx="102.1" cy="-68.7" r="34.5"/>
<circle class="st0" cx="282.7" cy="-173.6" r="34.5"/>
<circle class="st0" cx="189.7" cy="205.9" r="34.5"/>
<circle class="st0" cx="17.6" cy="267.6" r="34.5"/>
<g>
	<path d="M-102.8-77.4c5.1,1,10.4,0.2,14.8-2.9c9.1-6.4,10.6-20.1,3.3-30.4c-2.3-3.3-5.4-6-9-7.9c-0.6-0.3-1.4-0.1-1.7,0.5
		c-0.3,0.6-0.1,1.4,0.5,1.7c0,0,0,0,0.1,0c3.2,1.7,6,4.2,8.1,7.2c6.5,9.3,5.3,21.4-2.7,27s-19.8,2.7-26.3-6.6
		c-0.4-0.5-1.2-0.6-1.7-0.2c-0.5,0.4-0.6,1.1-0.3,1.6C-114-82-108.5-78.6-102.8-77.4z"/>
	<path d="M-112.8-117.6c0.3,0.6,1.1,0.9,1.7,0.6c0,0,0,0,0,0c2-1,4.1-1.6,6.4-1.7c0.7,0,1.2-0.6,1.2-1.3c0-0.7-0.6-1.2-1.3-1.2l0,0
		c-2.6,0.1-5.1,0.8-7.3,1.9C-112.8-118.9-113.1-118.2-112.8-117.6z"/>
	<path d="M-93.1-128.8c1.7-1.3,2.8-3.2,3.3-5.2c1.1-4.5-1.1-8.9-4.8-9.9c-1.9-0.5-3.8,0-5.5,1.3c-1.7,1.3-2.8,3.2-3.3,5.2
		c-1.1,4.5,1.1,8.9,4.8,9.8l0.2,0C-96.6-127.1-94.7-127.5-93.1-128.8z M-92.2-134.6c-0.3,1.5-1.2,2.9-2.4,3.8
		c-1.1,0.8-2.3,1.1-3.4,0.8c-2.4-0.6-3.8-3.7-3-6.8c0.3-1.5,1.2-2.9,2.4-3.8c1-0.8,2.2-1.1,3.3-0.9l0.1,0
		C-92.7-140.8-91.4-137.8-92.2-134.6z"/>
	<path d="M-73.3-120.3L-73.3-120.3c3.3-3.3,3.8-8.2,1.1-10.9c-1.4-1.4-3.3-2-5.4-1.8c-2.1,0.2-4.1,1.2-5.6,2.7
		c-3.3,3.3-3.8,8.2-1.1,10.9c0.9,0.9,2,1.5,3.2,1.7c0.7,0.1,1.5,0.2,2.2,0.1C-76.8-117.8-74.8-118.8-73.3-120.3z M-79.1-120.1
		c-1.4,0.1-2.5-0.3-3.4-1.1c-1.8-1.8-1.3-5.1,1-7.4c1.1-1.1,2.5-1.8,4.1-2c0.5,0,1,0,1.4,0.1c0.7,0.1,1.4,0.5,1.9,1
		c1.8,1.8,1.3,5.1-1,7.4C-76.1-121-77.6-120.3-79.1-120.1z"/>
	<path d="M-67.9-114c-4.5,1-7.5,5-6.6,8.8c0.6,2.6,2.9,4.5,5.7,5c1.4,0.3,2.8,0.2,4.1-0.1c4.5-1,7.5-5,6.6-8.8
		C-59-112.8-63.4-115-67.9-114z M-65.3-102.7c-3.2,0.7-6.2-0.7-6.8-3.1c-0.6-2.4,1.6-5,4.8-5.8s6.2,0.7,6.8,3.1
		S-62.1-103.4-65.3-102.7z"/>
	<path d="M-100-120.5c-0.6,0.4-0.7,1.1-0.3,1.7c0,0.1,0.1,0.1,0.2,0.2c0.1,0.1,0.1,0.1,0.2,0.2c0.1,0,0.1,0.1,0.2,0.1
		c0.1,0,0.2,0.1,0.2,0.1c0.7,0.1,1.3-0.3,1.5-1c0.1-0.7-0.3-1.3-1-1.5C-99.4-120.7-99.7-120.7-100-120.5L-100-120.5z"/>
	<path d="M-144.5-85.5c-2.5-0.5-5,1.1-5.5,3.6c-0.5,2.5,1.1,5,3.6,5.5L-125-72c2.5,0.5,5-1.1,5.5-3.6s-1.1-5-3.6-5.5l-4.8-1l1.6-7.8
		l0.6,0.1c2,0.4,3.9-0.9,4.3-2.9l8.8-43.1c0.4-1.8-0.6-3.6-2.4-4.2l1.7-8.2c0.3-1.5-0.5-3-1.9-3.7l0.6-3c0.1-0.7-0.4-1.3-1-1.4
		c-0.6-0.1-1.2,0.3-1.4,0.9l-0.6,3l-4.2-0.8l0.6-3c0.1-0.3,0.4-0.5,0.7-0.5c0,0,0,0,0,0c1.5,0.3,2.9-0.7,3.3-2.2l2.7-13.3
		c0.1-0.7-0.4-1.3-1-1.4c-0.6-0.1-1.2,0.3-1.4,0.9l-2.7,13.3c0,0.1-0.2,0.2-0.3,0.2c-1.7-0.3-3.3,0.7-3.7,2.4l-0.6,3
		c-1.6,0-2.9,1.1-3.2,2.6l-1.7,8.2c-1.8-0.1-3.4,1.1-3.8,2.9l-8.8,43.1c-0.4,2,0.9,3.9,2.9,4.3c0,0,0,0,0,0l0.6,0.1l-1.6,7.8
		L-144.5-85.5z M-124.1-151.1l7.7,1.6c0.4,0.1,0.7,0.5,0.6,0.9l-1.7,8.2l-9.3-1.9l1.7-8.2C-124.9-151-124.5-151.2-124.1-151.1
		C-124.1-151.1-124.1-151.1-124.1-151.1z M-139.2-96.3l8.8-43.1c0.1-0.6,0.7-1,1.4-0.9c0,0,0,0,0,0l13.1,2.7c0.6,0.1,1,0.8,0.9,1.4
		l-1.2,5.8l-3.2-0.7c-0.7-0.2-1.3,0.2-1.5,0.9c-0.2,0.7,0.2,1.3,0.9,1.5c0,0,0.1,0,0.1,0l3.2,0.6l-1.5,7.2l-3.2-0.6
		c-0.7-0.2-1.3,0.2-1.5,0.9c-0.2,0.7,0.2,1.3,0.9,1.5c0,0,0.1,0,0.1,0l3.2,0.6l-1.5,7.2l-3.2-0.6c-0.7-0.1-1.3,0.3-1.5,1
		s0.3,1.3,1,1.5l3.2,0.6l-1.5,7.2l-3.2-0.6c-0.7-0.2-1.3,0.2-1.5,0.9c-0.2,0.7,0.2,1.3,0.9,1.5c0,0,0.1,0,0.1,0l3.2,0.6l-1.2,5.8
		c-0.1,0.6-0.8,1-1.4,0.9l-13.1-2.7C-138.9-95.1-139.4-95.7-139.2-96.3C-139.2-96.3-139.2-96.3-139.2-96.3z M-135.7-91.9l7,1.4
		l-1.8,9c-0.1,0.7,0.3,1.3,1,1.5c0,0,0,0,0,0l6,1.2c1.2,0.2,1.9,1.4,1.7,2.6c-0.2,1.2-1.4,1.9-2.6,1.7l0,0l-21.3-4.3
		c-1.2-0.2-1.9-1.4-1.7-2.6s1.4-1.9,2.6-1.7l10.3,2.1c0.7,0.2,1.3-0.2,1.5-0.9c0.2-0.7-0.2-1.3-0.9-1.5c0,0-0.1,0-0.1,0l-3.2-0.6
		L-135.7-91.9z"/>
</g>
<g>
	<path d="M-309,243.2c-4.2,1.1-7.1,5.1-6.7,9.4l3.2,36.9l0,0l0,0l1.7,18.8c0.2,2.5,2.3,4.5,4.9,4.5h26.5c2.6,0,4.7-1.9,4.9-4.5
		l3.6-40.4l0,0l0,0l1.3-15.3c0.4-4.4-2.5-8.4-6.7-9.4c-6.2-1.6-9-5.7-10.2-8.4c1.3-0.8,2.1-2.2,2.1-3.8l0.6-8.6c0,0,0-0.1,0-0.1
		c0-2.5-2-4.5-4.5-4.5h-8.7c-2.5,0-4.5,2-4.5,4.5c0,0,0,0.1,0,0.1l0.6,8.6c0,1.5,0.8,2.9,2.1,3.8C-300,237.5-302.8,241.6-309,243.2z
		 M-276.8,308.1c-0.1,1.4-1.2,2.4-2.6,2.4h-26.5c-1.4,0-2.5-1-2.6-2.4l-1.1-13.1c1.5,1.2,3.3,1.9,5.2,1.9h23.5
		c1.9,0,3.8-0.7,5.2-1.9L-276.8,308.1z M-296.6,235.5c0.1,0,0.2,0,0.2,0h1.9c0.6,0,1.1-0.6,1.1-1.2c0-0.6-0.5-1.1-1.1-1.1h-1.9
		c-1.2,0-2.2-1-2.2-2.2c0,0,0-0.1,0-0.1l-0.6-8.6c0-1.2,1-2.2,2.2-2.2h8.7c1.2,0,2.2,1,2.2,2.2l-0.6,8.6c0,0,0,0.1,0,0.1
		c0,1.2-1,2.2-2.2,2.2c0,0,0,0,0,0h-0.8c-0.6,0-1.2,0.5-1.2,1.1s0.5,1.2,1.1,1.2c0,0,0.1,0,0.1,0h0.8c0.1,0,0.2,0,0.2,0
		c1.3,3.2,4.5,8.1,11.8,10c3.1,0.8,5.3,3.8,5,7l-0.6,6.7c-1.6-3.3-4.1-6-7.4-7.6c-6-3.1-12.1-3-12.8-3c-2.8,0-5.6,0.3-8.2,1.1
		c-0.6,0.2-0.9,0.8-0.8,1.5c0.2,0.6,0.8,0.9,1.4,0.8c2.4-0.7,5-1.1,7.5-1h0.1c0.1,0,6-0.3,11.7,2.7c5.2,2.7,8.2,8.3,7.7,14.1
		l-1.9,21.6l0,0c-0.2,3-2.7,5.3-5.7,5.2h-23.6c-3,0-5.5-2.3-5.7-5.2l-1.9-21.6l0,0c-0.4-4.3,1.2-8.6,4.3-11.7c0.5-0.4,0.5-1.2,0-1.6
		c-0.4-0.5-1.2-0.5-1.6,0l0,0c-1.4,1.4-2.6,3-3.4,4.8l-0.6-6.7c-0.3-3.2,1.8-6.2,5-7C-301.1,243.5-298,238.7-296.6,235.5z"/>
	<path d="M-305,253.8c0.2,0,0.4,0,0.5-0.1l0.1-0.1c0.6-0.3,0.8-1,0.4-1.6c-0.3-0.5-1-0.7-1.5-0.5l-0.1,0.1c-0.6,0.3-0.8,1-0.5,1.6
		C-305.8,253.5-305.5,253.8-305,253.8L-305,253.8z"/>
	<path d="M-299.5,274.8c-0.5-0.3-1.3-0.2-1.6,0.4c0,0,0,0,0,0c-0.8,1.2-1.2,2.7-1.2,4.1c0,4.7,4.3,8.5,9.6,8.5
		c5.3,0,9.6-3.8,9.6-8.5c0-4.7-4.3-8.5-9.6-8.5c-1.7,0-3.3,0.4-4.9,1.2c-0.6,0.3-0.8,1-0.6,1.5c0.3,0.6,1,0.8,1.5,0.6c0,0,0,0,0.1,0
		c1.2-0.6,2.5-0.9,3.8-0.9c4,0,7.3,2.8,7.3,6.2c0,3.4-3.3,6.2-7.3,6.2c-4,0-7.3-2.8-7.3-6.2c0-1,0.3-2,0.8-2.9
		C-298.8,275.9-298.9,275.2-299.5,274.8z"/>
	<path d="M-292.6,267.2c2.4,0,4.4-2,4.4-4.4c0-2.4-2-4.4-4.4-4.4c-2.4,0-4.4,2-4.4,4.4C-297,265.2-295.1,267.2-292.6,267.2z
		 M-292.6,260.8c1.1,0,2.1,0.9,2.1,2.1s-0.9,2.1-2.1,2.1s-2.1-0.9-2.1-2.1C-294.7,261.7-293.8,260.8-292.6,260.8z"/>
	<path d="M-303.7,271.2c2.4,0,4.4-2,4.4-4.4c0-2.4-2-4.4-4.4-4.4s-4.4,2-4.4,4.4C-308,269.2-306.1,271.2-303.7,271.2z M-303.7,264.7
		c1.1,0,2.1,0.9,2.1,2.1s-0.9,2.1-2.1,2.1s-2.1-0.9-2.1-2.1l0,0C-305.7,265.6-304.8,264.7-303.7,264.7L-303.7,264.7z"/>
	<path d="M-281.3,271.2c2.4,0,4.4-2,4.4-4.4c0-2.4-2-4.4-4.4-4.4s-4.4,2-4.4,4.4C-285.7,269.2-283.7,271.2-281.3,271.2z
		 M-281.3,264.7c1.1,0,2.1,0.9,2.1,2.1s-0.9,2.1-2.1,2.1s-2.1-0.9-2.1-2.1l0,0C-283.4,265.6-282.4,264.7-281.3,264.7L-281.3,264.7z"
		/>
	<path d="M-269.2,230.4c-0.6,0-1.2,0.5-1.2,1.2c0,0,0,0,0,0v4c-2.2,0.4-4,2.4-4.2,4.9c0,0.6,0.4,1.2,1.1,1.2c0.6,0,1.2-0.4,1.2-1.1
		c0.1-1.6,1.3-2.8,2.7-2.8h6.3c1.4,0,2.6,1.2,2.7,2.8l0.7,9.3h-6.2c-0.6,0-1.2,0.5-1.2,1.2s0.5,1.2,1.2,1.2h6.3c4.6,0,8.5,3.5,9,8.1
		c0.1,0.6,0.1,1.3,0.2,2h-8.7c-4.6,0-8.4,3.8-8.4,8.4v19.3c0,4.6,3.8,8.4,8.4,8.4h5.4c0.6,0,1.2-0.5,1.2-1.1c0-0.6-0.5-1.2-1.1-1.2
		c0,0-0.1,0-0.1,0h-5.4c-3.4,0-6.1-2.7-6.1-6.1v-19.3c0-3.4,2.7-6.1,6.1-6.1h8.9c0.8,8.8,1.6,21.8,1.3,38.5c-0.1,4-3.3,7.2-7.3,7.2
		h-14.5c-0.6,0-1.1,0.6-1.1,1.2c0,0.6,0.5,1.1,1.1,1.1h14.5c5.3,0,9.6-4.3,9.7-9.5c0.3-19.8-0.8-34.3-1.8-43.1c-0.5-5-4.3-9-9.2-9.9
		l-0.7-9.7c-0.2-2.5-1.9-4.5-4.2-4.9v-6.9h5.4c0.6,0,1.2-0.5,1.2-1.1c0-0.6-0.5-1.2-1.1-1.2c0,0-0.1,0-0.1,0h-13.3
		c-0.9,0-1.7-0.7-1.7-1.7s0.7-1.7,1.7-1.7h13.5c1.7,0,3,1.3,3,3v1.5c0,0.6,0.5,1.2,1.1,1.2c0.6,0,1.2-0.5,1.2-1.1c0,0,0-0.1,0-0.1
		v-1.5c0-2.9-2.4-5.3-5.3-5.3h-13.5c-2.2,0-4,1.9-3.9,4.1c0,2.1,1.8,3.9,3.9,3.9h5.7v6.8h-3.3v-4C-268,231-268.5,230.5-269.2,230.4z
		"/>
</g>
<path d="M103.6-135.7c-1-1.6-2.1-3.1-3.3-4.5c-0.1-0.1-0.1-0.2-0.2-0.2l0,0C88.2-153.7,68-154.8,54.8-143c-0.9,0.8-1.7,1.6-2.5,2.5
	l0,0c-0.1,0.1-0.1,0.1-0.2,0.2c-1.2,1.4-2.3,2.9-3.3,4.5c-0.1,0.1-0.1,0.2-0.2,0.3c-3,5-4.5,10.6-4.5,16.4c0,0.4,0,0.8,0,1.2
	c0,0.6,0.6,1.1,1.2,1.1c0.6,0,1.1-0.6,1.1-1.2c0-0.4,0-0.7,0-1.1c0-4.8,1.2-9.6,3.4-13.9c2.9,4.1,4.4,8.9,4.4,13.9c0,0.3,0,0.7,0,1
	c0,0.6,0.5,1.2,1.1,1.2c0,0,0,0,0,0h0c0.6,0,1.1-0.5,1.2-1.1c0-0.4,0-0.7,0-1.1c0-5.8-1.9-11.4-5.4-16c0.6-0.9,1.3-1.9,2-2.7
	c4.3,5.3,6.7,11.9,6.7,18.8c0,0.4,0,0.8,0,1.2c0,0.6,0.5,1.2,1.1,1.2h0c0.6,0,1.1-0.5,1.2-1.1c0-0.4,0-0.9,0-1.3
	c0-7.5-2.6-14.8-7.4-20.5c11.3-11.9,30.2-12.4,42.1-1.1c0.4,0.4,0.8,0.7,1.1,1.1c-3.9,4.7-6.4,10.5-7.2,16.5c-0.1,0.6,0.4,1.2,1,1.3
	c0,0,0,0,0,0c0,0,0.1,0,0.1,0c0.6,0,1.1-0.4,1.1-1c0.7-5.5,2.9-10.8,6.4-15.1c0.7,0.9,1.4,1.8,2,2.7c-7.2,9.5-7.2,22.6,0,32.1
	c-0.6,0.9-1.3,1.9-2,2.7c-1.4-1.7-2.6-3.6-3.6-5.6c-0.3-0.6-1-0.8-1.5-0.5s-0.8,1-0.5,1.5l0,0c1.1,2.3,2.5,4.4,4.1,6.3
	c-0.5,0.5-1,1-1.5,1.5c-0.5,0.4-0.5,1.2,0,1.6c0.4,0.4,1.1,0.5,1.6,0.1c2.3-2.1,4.2-4.5,5.8-7.1c0.1-0.1,0.1-0.1,0.1-0.2
	c6-10.1,6-22.8,0-32.9C103.7-135.6,103.7-135.7,103.6-135.7z M102.6-105.2c-5.8-8.3-5.8-19.4,0-27.7
	C107.1-124.2,107.1-113.9,102.6-105.2z"/>
<path d="M18.1-120.5L18.1-120.5c-0.6,0.4-0.7,1.2-0.3,1.7s1.1,0.6,1.6,0.2l0,0c0.5-0.4,0.6-1.1,0.3-1.6
	C19.4-120.8,18.7-120.9,18.1-120.5C18.2-120.5,18.2-120.5,18.1-120.5L18.1-120.5z"/>
<path d="M17.1-105.1c0.2,0.2,0.3,0.3,0.5,0.4c-0.2,0.1-0.3,0.3-0.5,0.4c-4.5,4.1-3.7,9.7-1.1,13.2c1.7,2.3,4.6,4.1,7.9,4.1
	c1.8,0,3.5-0.5,5-1.5c2.5-1.5,4.4-4,5.7-7.4H54c5.2,4.9,11.9,8,19,8.7c0,0,0.1,0,0.1,0c0.6,0,1.2-0.5,1.2-1.1c0-0.6-0.5-1.1-1.1-1.2
	C67.4-90,62-92.2,57.5-95.8h15.6c1.3,3.5,3.2,6,5.7,7.4c5.2,3.1,10.3,0.8,12.9-2.7c2.6-3.5,3.3-9.1-1.1-13.2
	c-0.2-0.2-0.3-0.3-0.5-0.4c0.2-0.1,0.3-0.3,0.5-0.4c4.5-4.1,3.7-9.7,1.1-13.2c-2.6-3.5-7.7-5.8-12.9-2.7c-2.5,1.5-4.4,4-5.7,7.4
	H34.5c-1.3-3.5-3.2-6-5.7-7.4c-1.9-1.1-4-1.6-6-1.4c-0.6,0.1-1.1,0.6-1,1.3c0.1,0.6,0.6,1.1,1.3,1l0,0c1.5-0.2,3.1,0.2,4.6,1.1
	c2.2,1.3,3.8,3.6,4.9,7c0.2,0.5,0.6,0.8,1.1,0.8h40.2c0.5,0,0.9-0.3,1.1-0.8c1.1-3.3,2.8-5.7,4.9-7c4-2.4,7.8-0.7,9.8,2.1
	c2.1,2.8,2.6,7-0.8,10.1c-0.5,0.4-0.9,0.8-1.5,1.1c-0.6,0.3-0.7,1-0.4,1.6c0.1,0.2,0.2,0.3,0.4,0.4c0.5,0.3,1,0.7,1.5,1.1
	c3.5,3.2,2.9,7.4,0.8,10.1c-2,2.7-5.9,4.4-9.8,2.1c-2.2-1.3-3.8-3.6-4.9-7c-0.2-0.5-0.6-0.8-1.1-0.8H33.7c-0.5,0-0.9,0.3-1.1,0.8
	c-1.1,3.3-2.8,5.7-4.9,7c-4,2.4-7.8,0.7-9.8-2.1c-2.1-2.8-2.6-7,0.8-10.1c0.4-0.4,0.9-0.8,1.4-1.1c0.6-0.3,0.7-1,0.4-1.6
	c-0.1-0.2-0.2-0.3-0.4-0.4c-0.5-0.3-1-0.7-1.5-1.1c-2.6-2.4-3.2-5.6-1.7-8.8c0.3-0.6,0.1-1.3-0.5-1.6c-0.6-0.3-1.3-0.1-1.6,0.5
	c0,0,0,0,0,0.1C13-112.5,13.8-108.1,17.1-105.1z"/>
<g>
	<path d="M45.6,288c0.6,0,1.1-0.5,1.1-1.1v-3.1c0-0.6-0.5-1.1-1.1-1.1s-1.1,0.5-1.1,1.1v3.1C44.5,287.5,45,288,45.6,288
		C45.6,288,45.6,288,45.6,288z"/>
	<path d="M37.7,251.2c-0.6,0-1.1,0.5-1.1,1.1c0,0.6,0.5,1,1.1,1.1h0.1c0.6,0,1.1-0.4,1.1-1.1c0-0.6-0.4-1.1-1.1-1.1
		C37.9,251.2,37.9,251.2,37.7,251.2L37.7,251.2z"/>
	<path d="M16.7,259.8h4.8v44.3c0,0.6,0.5,1.1,1.1,1.1h75.8c0.6,0,1.1-0.5,1.1-1.1v-44.3h4.8c0.6,0,1.1-0.5,1.1-1.1c0,0,0,0,0,0v-1.5
		c0-3.3-2.7-6-6-6H44c-0.6,0-1.1,0.5-1.1,1.1c0,0.6,0.5,1,1.1,1.1h55.3c2.1,0,3.8,1.7,3.8,3.8v0.4H17.8v-0.4c0-2.1,1.7-3.8,3.8-3.8
		h10c0.6,0,1.1-0.4,1.1-1.1c0-0.6-0.4-1.1-1.1-1.1c0,0-0.1,0-0.1,0h-10c-3.3,0-6,2.7-6,6v1.5C15.6,259.3,16.1,259.8,16.7,259.8
		C16.7,259.8,16.7,259.8,16.7,259.8z M49.2,303H31.4v-35.5h17.8L49.2,303z M97.2,303H51.4v-36.6c0-0.6-0.5-1.1-1.1-1.1c0,0,0,0,0,0
		h-20c-0.6,0-1.1,0.5-1.1,1.1V303h-5.5v-43.2h73.6L97.2,303z"/>
	<path d="M59.3,290.7h31.4c0.6,0,1.1-0.5,1.1-1.1c0,0,0,0,0,0v-23.2c0-0.6-0.5-1.1-1.1-1.1l0,0H59.3c-0.6,0-1.1,0.5-1.1,1.1l0,0
		v23.2C58.2,290.3,58.7,290.7,59.3,290.7C59.3,290.7,59.3,290.7,59.3,290.7z M60.4,267.6h29.2v21H60.4L60.4,267.6z"/>
	<path d="M87.4,229.4c0,0.6,0.5,1.1,1.1,1.1l0,0H92c2.9,0,5.2,2.3,5.2,5.2v12c0,0.6,0.4,1.1,1.1,1.1c0.6,0,1.1-0.4,1.1-1.1
		c0,0,0-0.1,0-0.1v-12c0-4.1-3.3-7.4-7.4-7.4h-3.6C87.9,228.3,87.4,228.8,87.4,229.4C87.4,229.4,87.4,229.4,87.4,229.4z"/>
	<path d="M22.6,248.8c0.6,0,1.1-0.5,1.1-1.1l0,0v-12c0-2.9,2.3-5.2,5.2-5.2h3.6c0.6,0,1.1-0.5,1.1-1.1c0-0.6-0.5-1-1.1-1.1h-3.6
		c-4.1,0-7.4,3.3-7.4,7.4v12C21.5,248.3,21.9,248.8,22.6,248.8C22.5,248.8,22.5,248.8,22.6,248.8z"/>
	<path d="M47.4,245.9c1.8-1.1,3.2-2.9,4.1-5.3h17.7c0.9,2.5,2.3,4.3,4.1,5.3c3.9,2.3,7.7,0.6,9.7-2c1.9-2.6,2.5-6.8-0.9-9.9
		c0,0-0.1-0.1-0.1-0.1l0.1-0.1c3.4-3.1,2.8-7.3,0.9-9.9c-1.9-2.6-5.8-4.3-9.7-2c-1.8,1.1-3.2,2.9-4.1,5.3H51.6
		c-0.9-2.5-2.3-4.3-4.1-5.3c-3.9-2.3-7.7-0.6-9.7,2c-1.9,2.6-2.5,6.8,0.9,9.9c0,0,0.1,0.1,0.1,0.1c0,0-0.1,0.1-0.1,0.1
		c-3.4,3.1-2.8,7.3-0.9,9.9c1.3,1.7,3.5,3.1,5.9,3.1C45,247,46.3,246.6,47.4,245.9z M39.5,242.6c-1.4-1.9-1.8-4.8,0.6-7
		c0.3-0.3,0.7-0.6,1-0.8c0.5-0.3,0.7-1,0.4-1.5c-0.1-0.2-0.2-0.3-0.4-0.4c-0.4-0.2-0.7-0.5-1-0.8c-2.4-2.2-2-5.1-0.6-7
		s4.1-3.1,6.8-1.4c1.5,0.9,2.7,2.6,3.5,4.9c0.1,0.4,0.6,0.7,1,0.7h19.3c0.5,0,0.9-0.3,1-0.7c0.8-2.3,1.9-4,3.5-4.9
		c2.7-1.6,5.4-0.5,6.8,1.4s1.8,4.8-0.6,7c-0.3,0.3-0.7,0.6-1,0.8c-0.5,0.3-0.7,1-0.4,1.5c0.1,0.2,0.2,0.3,0.4,0.4
		c0.4,0.2,0.7,0.5,1,0.8c2.4,2.2,2,5.1,0.6,7s-4.1,3.1-6.8,1.4c-1.5-0.9-2.7-2.6-3.5-4.9c-0.1-0.4-0.6-0.7-1-0.7H50.8
		c-0.5,0-0.9,0.3-1,0.7c-0.8,2.3-1.9,4-3.5,4.9C43.6,245.7,40.9,244.5,39.5,242.6z"/>
</g>
<g>
	<path d="M-245.4-131.7c-0.7-1-3.9-6-1.3-9.4c1.4-1.9,1.5-4.5,0.2-6.5l-0.2-0.3c-1.7-2.6-5.2-3.3-7.8-1.6c-0.2,0.1-0.3,0.2-0.5,0.4
		c-2.9,2.4-4.3,5.7-4.2,9.5c0.1,2,0.6,4,1.6,5.8c0.6,1.3,1.4,2.5,2.3,3.7c3.2,4,2.7,10-1.2,13.4c-0.6,0.5-1.3,1.1-2,1.5
		c-2.1-1.4-4.4-2.4-6.9-2.8c-0.6-0.1-1.2,0.3-1.3,0.8c-0.1,0.6,0.3,1.2,0.8,1.3c4.2,0.8,8,3.3,11.2,7.2c2.7,3.2,4,7.1,3.7,10.8
		c-0.2,2.8-0.5,4.7-2.7,7.3c-0.4,0.5-0.3,1.1,0.1,1.5c0.1,0.1,0.3,0.2,0.4,0.2c0,0,2.1,0.6,2.8,2.8c0.2,0.7,0.1,1.5-0.3,2.1
		c-0.3,0.5-0.9,0.7-1.5,0.7h-1.9c-0.6,0-1.1,0.5-1.1,1.1s0.5,1.1,1.1,1.1h1.9c1.3,0,2.5-0.6,3.2-1.6c0.8-1.2,1.1-2.6,0.7-4
		c-0.5-1.5-1.5-2.8-2.9-3.6c1.9-2.6,2.2-4.8,2.4-7.5c0.3-4.3-1.2-8.7-4.2-12.3c-1.1-1.4-2.3-2.6-3.7-3.7c0.5-0.4,1.1-0.8,1.6-1.2
		c4.8-4.1,5.5-11.5,1.5-16.4c-0.8-1-1.5-2.1-2.1-3.3c-0.8-1.5-1.2-3.2-1.3-4.9c-0.1-3.2,1-5.8,3.4-7.8c0.7-0.6,1.7-0.9,2.7-0.8
		c1,0.1,1.8,0.7,2.4,1.5l0.2,0.3c0.8,1.2,0.7,2.9-0.2,4c-3.4,4.5,0.1,10.3,1.3,12c0.2,0.3,0.5,0.7,0.7,1c4.1,7,0.5,13.2-3.4,17.1
		c-0.4,0.5-0.3,1.1,0.1,1.5c0.4,0.3,1,0.3,1.4,0c4.3-4.5,8.5-11.5,3.7-19.7C-244.9-131-245.1-131.4-245.4-131.7z"/>
	<path d="M-287-77.6c0.2,0.2,0.5,0.5,0.7,0.7c0.8,0.7,1.8,1,2.9,1h15.3c5.6,0,10.2-4.3,10.4-9.7c0.2-3.9-3.1-5.9-4.8-6.4
		c-0.6-0.2-1.2,0.2-1.3,0.8c-0.2,0.6,0.1,1.1,0.7,1.3c0.1,0,3.4,1.1,3.3,4.3c-0.2,4.2-3.9,7.7-8.3,7.7h-15.3c-0.6,0-1.1-0.2-1.5-0.5
		c-1.1-0.9-1.2-1.7-1.2-1.8c0,0,0,0,0,0c0-4.8-2.6-7.2-4.7-8.4c-1.7-0.9-3.5-1.4-5.4-1.4h-9.6c-0.6,0-1.1,0.4-1.1,1
		c0,0.6,0.4,1.1,1,1.1c0,0,0.1,0,0.1,0h9.6c1.5,0,3,0.4,4.3,1.1c2.4,1.4,3.6,3.6,3.6,6.6v0l0,0v0c0,0.1,0,0.1,0,0.2
		c0,0.4-0.1,0.8-0.4,1.1c-0.5,0.7-1.2,1-2,1h-19.1c-4.4,0-8-3.5-8-7.9v-0.6c0-1.9,0.7-3.6,1.9-5.1c3.9-4.7,6.8-10.6,8.5-14.6
		c0.2-0.6,0-1.2-0.6-1.4s-1.2,0-1.4,0.6l0,0c-1.6,3.9-4.4,9.5-8.1,14c-1.5,1.8-2.3,4.1-2.4,6.4v0.6c0,5.5,4.5,10,10.1,10h19.1
		C-289.2-75.9-287.9-76.5-287-77.6z"/>
	<path d="M-307.9-114c0,0-2.1-2.5-2.8-5.4c-0.1-0.6-0.7-1-1.3-0.8s-1,0.7-0.8,1.3c0,0,0,0.1,0,0.1c0.9,3.3,3.1,6.1,3.2,6.2
		c2.7,3.3,6.6,5.3,11.7,5.9c0.9,1.2,2.7,2.6,5.2,2.6c0.5,0,1-0.1,1.4-0.2c0.6-0.1,1-0.7,0.8-1.3c-0.1-0.6-0.7-1-1.3-0.8
		c-3,0.7-4.5-1.8-4.6-1.9c-0.2-0.3-0.5-0.5-0.8-0.5C-301.9-109.3-305.5-111.1-307.9-114z"/>
	<path d="M-281.8-107.4c0.2,0.6,0.8,0.8,1.4,0.6c0,0,0,0,0,0c3.2-1.2,5.9-3.1,7.9-5.6c1.7-1.9,2.9-4.1,3.6-6.5
		c0.2-0.6-0.2-1.2-0.8-1.3c-0.6-0.2-1.2,0.2-1.3,0.8c-0.6,2.1-1.6,4-3,5.6l-0.1,0.1c-1.8,2.2-4.2,3.9-7.1,5
		C-281.8-108.5-282-107.9-281.8-107.4z"/>
	<path d="M-287.5-108.3c-0.3-0.5-0.9-0.8-1.5-0.5c-0.5,0.3-0.8,0.9-0.5,1.5c0.1,0.1,1.5,3,5,3c0.6,0,1.1-0.5,1-1.1c0-0.6-0.5-1-1-1
		C-285.7-106.5-286.9-107.2-287.5-108.3z"/>
	<path d="M-290.4-121.2c0.6-0.2,1.2-0.6,1.6-1.1l1.3-1.6c0.7-0.8,0.8-2,0.3-3c-0.4-0.9-1.3-1.4-2.2-1.5h-4.2c-1,0-1.8,0.6-2.2,1.5
		c-0.5,1-0.3,2.1,0.3,3l1.3,1.6c0.4,0.5,1,0.9,1.6,1.1 M-289.1-125.3l-1.3,1.6c-0.2,0.3-0.6,0.5-1,0.5l0,0c-0.4,0-0.7-0.2-1-0.5
		l-1.3-1.6c-0.1-0.2-0.2-0.5-0.1-0.7c0-0.1,0.2-0.2,0.3-0.2h4.2c0.1,0,0.2,0.1,0.3,0.2C-289-125.8-289-125.5-289.1-125.3z"/>
	<path d="M-301.6-127.7c0.1,0,0.1,0,0.2,0.1c0.1,0,0.1,0,0.2,0c0.6,0,1.1-0.5,1.1-1.1c0-0.3-0.1-0.6-0.3-0.8c0-0.1-0.1-0.1-0.2-0.1
		c-0.1,0-0.1-0.1-0.2-0.1c-0.1,0-0.1,0-0.2-0.1c-0.1,0-0.3,0-0.4,0c-0.1,0-0.1,0-0.2,0.1c-0.1,0-0.1,0.1-0.2,0.1
		c-0.1,0-0.1,0.1-0.2,0.1c-0.1,0-0.1,0.1-0.1,0.2c0,0.1-0.1,0.1-0.1,0.2c-0.1,0.1-0.1,0.3-0.1,0.4c0,0.3,0.1,0.6,0.3,0.8
		c0.1,0,0.1,0.1,0.2,0.1C-301.8-127.8-301.7-127.7-301.6-127.7z"/>
	<path d="M-283.8-128.1c0,0.1,0.1,0.1,0.1,0.2c0.1,0,0.1,0.1,0.2,0.1c0.1,0,0.1,0.1,0.2,0.1c0.1,0,0.1,0,0.2,0.1c0.1,0,0.1,0,0.2,0
		c0.6,0,1.1-0.5,1.1-1.1c0-0.6-0.5-1.1-1.1-1.1c-0.1,0-0.2,0-0.2,0c-0.1,0-0.1,0-0.2,0.1c-0.1,0-0.1,0.1-0.2,0.1
		c-0.1,0-0.1,0.1-0.2,0.1c-0.2,0.2-0.3,0.5-0.3,0.8c0,0.1,0,0.1,0,0.2c0,0.1,0,0.1,0.1,0.2C-283.9-128.2-283.8-128.2-283.8-128.1z"
		/>
	<path d="M-318.9-128.6c0.1,0,7.7-1,12.5,2.7c0.5,0.4,1.2,0.3,1.5-0.2s0.3-1.2-0.2-1.5c-1.6-1.2-3.5-2.1-5.4-2.6
		c1.8-10,8.4-14.2,13.6-15.9c5.2-1.8,10.9-1.4,15.8,0.9c1.3,0.6,2.5,1.3,3.6,2.2c0.1,0.2,0.3,0.3,0.5,0.4c4.7,3.8,6.3,9,6.9,12.4
		c-1.9,0.5-3.8,1.3-5.5,2.6c-0.5,0.4-0.6,1.1-0.2,1.5c0.2,0.3,0.5,0.4,0.9,0.4c0.2,0,0.5-0.1,0.7-0.2c4.8-3.7,12.4-2.7,12.5-2.7
		c0.6,0.1,1.1-0.3,1.2-0.9c0.1-0.6-0.3-1.1-0.9-1.2l0,0c-2.2-0.3-4.3-0.2-6.5,0.1c-0.6-3.3-2.3-9.3-7.7-13.7c-1.3-5.5,4-8,4.2-8.2
		c0.5-0.3,0.8-0.9,0.5-1.4c-0.3-0.5-0.9-0.8-1.4-0.5c-2.2,1-5.7,3.9-5.7,8.5c-0.7-0.4-1.4-0.8-2.2-1.2c-0.6-0.3-1.3-0.6-2-0.8
		c2.2-3.5,6.4-8.7,12-10.2c0.8-0.2,1.6,0.2,1.9,1c0.9,2.6,2,8-0.4,14.7c0,0,0,0,0,0c0,0,0,0.1-0.1,0.2c-0.2,0.6,0.1,1.2,0.6,1.4
		c0.1,0,0.2,0.1,0.4,0.1c0.5,0,0.9-0.3,1-0.7c0.1-0.2,0.1-0.3,0.1-0.3c2.6-7.3,1.4-13.2,0.4-16.1c-0.6-1.9-2.6-2.9-4.5-2.4
		c-6.6,1.8-11.2,7.9-13.5,11.6c-3.1-0.8-6.3-0.9-9.5-0.4c-2.3-4-7.1-10.6-14-12.5c-1.9-0.5-3.9,0.5-4.5,2.4c-1,2.9-2.2,8.8,0.4,16.1
		c0,0,0,0.1,0.1,0.3c0.2,0.4,0.6,0.7,1,0.7c0.6,0,1.1-0.5,1.1-1.1c0-0.1,0-0.3-0.1-0.4c-0.1-0.1-0.1-0.2-0.1-0.2c0,0,0,0,0,0
		c-2.4-6.7-1.3-12.1-0.4-14.7c0.3-0.8,1.1-1.2,1.9-1c6,1.6,10.4,7.6,12.4,10.9c-0.5,0.1-1.1,0.3-1.6,0.5c-1,0.3-2,0.7-3,1.2
		c0.2-4.8-3.4-7.8-5.7-8.8c-0.6-0.2-1.2,0-1.4,0.6c-0.2,0.5,0,1.1,0.5,1.4c0.2,0.1,5.5,2.6,4.2,8.1c-4.3,2.7-8.3,7.3-9.7,15
		c-2.2-0.3-4.4-0.4-6.6-0.1c-0.6,0.1-1,0.6-0.9,1.2C-320-128.9-319.5-128.5-318.9-128.6L-318.9-128.6z"/>
	<path d="M-305.5-123.5c-7.3-2.1-11.8-0.4-13.8,0.9c-0.5,0.3-0.7,1-0.4,1.5c0.3,0.5,1,0.7,1.5,0.4c1.7-1,5.5-2.5,12-0.6
		c0.6,0.2,1.2-0.2,1.3-0.7C-304.6-122.7-304.9-123.3-305.5-123.5L-305.5-123.5L-305.5-123.5z"/>
	<path d="M-261.9-120.6c0.6,0,1.1-0.5,1.1-1.1c0-0.4-0.2-0.7-0.5-0.9c-2-1.2-6.5-3-13.8-0.9c-0.6,0.2-0.9,0.8-0.7,1.3
		c0.2,0.6,0.8,0.9,1.3,0.7c6.5-1.9,10.3-0.4,12,0.6C-262.3-120.7-262.2-120.6-261.9-120.6z"/>
	<path d="M-280.2-90.2c-0.3,0-3.4,0-5.2,2.9c-0.3,0.5-0.2,1.2,0.3,1.5c0.2,0.1,0.4,0.2,0.6,0.2c0.4,0,0.7-0.2,0.9-0.5
		c1.2-1.8,3.2-1.9,3.3-1.9h7.6c0.6,0,1.1-0.5,1-1.1c0-0.6-0.5-1-1-1H-280.2z"/>
	<path d="M-297-101.6c-0.6,0-1.1,0.4-1.1,1c0,0.1-0.2,6.4,7.5,7.8c0.1,0,0.1,0,0.2,0c0.6,0,1.1-0.5,1.1-1.1c0-0.5-0.4-1-0.9-1.1
		c-5.8-1-5.8-5.4-5.7-5.6C-296-101.1-296.4-101.6-297-101.6z"/>
	<path d="M-288-98.3c-0.1-0.6-0.7-0.9-1.3-0.8c-0.6,0.1-0.9,0.7-0.8,1.3c0,0.1,0.8,3.4,6,4.6c0.1,0,0.2,0,0.2,0
		c0.6,0,1.1-0.5,1.1-1.1c0-0.5-0.3-0.9-0.8-1C-287.4-96.2-288-98.2-288-98.3z"/>
	<path d="M-282.7-98.3c-0.5,0.4-0.5,1.1-0.2,1.5c0.1,0.1,1.4,1.7,4,1.7c0.4,0,0.8,0,1.2-0.1c0.6-0.1,1-0.7,0.9-1.3
		c-0.1-0.6-0.7-1-1.3-0.9c-2.2,0.4-3.1-0.7-3.2-0.8C-281.6-98.6-282.3-98.7-282.7-98.3z"/>
	<path d="M-266.8-97.6c-0.6,0.1-0.9,0.7-0.8,1.3c0.1,0.6,0.7,0.9,1.3,0.8c0.1,0,2.5-0.6,4.6,2.4c0.3,0.5,1,0.6,1.5,0.3
		s0.6-1,0.3-1.5c0,0,0,0,0-0.1C-262.8-98.6-266.6-97.6-266.8-97.6z"/>
	<path d="M-267.3-103.5c-0.6,0-1.1,0.4-1.2,1c0,0.6,0.4,1.1,1,1.2c0,0,0.1,0,0.1,0c1.3,0.2,2.5,0.9,3.1,2.1c0.3,0.5,1,0.6,1.5,0.3
		c0.5-0.3,0.6-1,0.3-1.4C-263.5-102.1-265.3-103.3-267.3-103.5z"/>
</g>
<g>
	<path d="M204.2,276c0.6,0,1-0.5,1-1c0-0.2-0.1-0.4-0.1-0.5c-2.3-3.9-5.3-10.7-6.2-20.7c0-0.1,0-0.2,0.1-0.3
		c0.1-0.1,0.2-0.1,0.3-0.1c0.1,0,0.1,0.1,0.2,0.2l5.2,9.6l2.9,5.6c0.3,0.5,0.9,0.7,1.4,0.4s0.7-0.9,0.4-1.4l-2.2-4.2
		c0.8,0.2,1.9,1,3.1,3c0.7,1.2,1.5,2.3,2.5,3.2c0.4,0.4,1.1,0.4,1.5,0c0.4-0.4,0.4-1,0-1.4c-0.8-0.8-1.6-1.8-2.2-2.8
		c-2.3-3.8-4.7-4.2-6-4.1l-4.8-8.9c-0.6-1.2-2.1-1.6-3.3-1c-0.9,0.5-1.3,1.4-1.3,2.4c1,10.4,4.1,17.5,6.5,21.6
		C203.5,275.8,203.8,276,204.2,276z"/>
	<path d="M262.9,258c-0.3-0.5-1-0.6-1.4-0.3c-0.5,0.3-0.6,1-0.3,1.4l0,0c1.4,2.1,2.3,4.5,2.6,7.1c0.5,4.1,2,16.7-3.6,22.8
		c-2.2,2.4-5.3,3.5-9.3,3.4h0c-0.6,0-1,0.5-1,1.1c0,0.5,0.4,1,1,1c0.2,0,0.4,0,0.6,0c4.3,0,7.8-1.4,10.3-4.1
		c6.2-6.8,4.7-20.1,4.1-24.5C265.5,263.1,264.5,260.4,262.9,258z"/>
	<path d="M236.5,275.6c3.1-12.5,1.1-19.2-1-22.7c-0.3-0.5-1-0.6-1.5-0.3c-0.5,0.3-0.6,0.9-0.3,1.4c1.9,3.1,3.6,9.3,0.7,21.1
		c0,0,0,0.1,0,0.1c0,0.1-1.5,13.3-10.5,16.1c-5.3,1-8.2,0.1-9.8-0.8c2.8-0.7,5.4-2,7.6-3.8c0.4-0.4,0.5-1,0.2-1.5
		c-0.4-0.4-1-0.5-1.5-0.2l0,0c-4.3,3.5-8.6,3.7-8.6,3.7h0h0c-2.8,0.3-4.5-1.5-5.3-2.8c2.3-0.3,4.6-0.9,6.7-1.9
		c4.1-1.8,9.8-5.6,13.2-13.6c0.2-0.5,0-1.1-0.6-1.4c-0.5-0.2-1.1,0-1.3,0.5c-2.5,5.9-6.5,10.1-12,12.5c-3.9,1.7-7.2,1.9-7.5,1.9
		c-3.4-0.2-4.8-1.7-5.3-2.9c3.4,0.4,7-0.3,10.5-2.1c5-2.6,9-7,11.2-12.3c1.1-2.8,2.3-5.2,3.4-7.3c0.3-0.5,0.1-1.1-0.4-1.4
		s-1.1-0.1-1.4,0.4l0,0c-1.1,2.1-2.3,4.7-3.5,7.5c-2,4.9-5.7,8.9-10.3,11.3c-3.7,1.9-7.3,2.5-10.7,1.7c-0.6-0.1-1.1,0.2-1.3,0.8
		c0,0.1,0,0.2,0,0.3c0,0.1,0.3,5.5,7,6.2c1,2,3.4,4.9,7.3,4.8c0.9,1,3.3,2.9,8.2,2.9c1.6,0,3.2-0.2,4.8-0.5c0,0,0,0,0,0l0.1,0
		C234.5,290.3,236.3,276.9,236.5,275.6z"/>
	<path d="M225.4,256c0.5,0.3,1.1,0.2,1.4-0.3c0,0,0,0,0,0l0,0c0.4-0.5,0.3-1.1-0.2-1.5c-0.5-0.4-1.1-0.3-1.5,0.2
		c0,0-0.1,0.1-0.1,0.1l0,0C224.8,255.1,225,255.7,225.4,256z"/>
	<path d="M230.9,241.4l-0.6,8.1c-0.7,0.3-1.4,0.8-1.9,1.3c-0.4,0.4-0.5,1-0.1,1.5c0.2,0.2,0.5,0.3,0.8,0.3c0.3,0,0.5-0.1,0.7-0.3
		c0.9-0.8,1.4-1,1.5-1c0.3,0,0.5,0,0.7-0.2c0.2-0.2,0.3-0.5,0.3-0.8l0.7-8.8c1.1-6.2,3.4-10.7,7-13.4c0.5-0.3,0.6-1,0.2-1.5
		s-1-0.6-1.5-0.2c-0.4,0.3-0.8,0.7-1.2,1c-0.3-0.3-0.6-0.6-1-1c-0.4-0.4-1.1-0.3-1.5,0.1s-0.3,1.1,0.1,1.5l0,0
		c0.3,0.3,0.7,0.6,0.9,0.9c-2.5,3-4.2,7-5.1,12.2C230.9,241.3,230.9,241.4,230.9,241.4z"/>
	<path d="M225.9,280.6c-0.5-0.3-1.1-0.2-1.5,0.3l-0.1,0.2c-0.3,0.5-0.2,1.1,0.2,1.5s1.1,0.2,1.5-0.2l0,0c0.1-0.1,0.1-0.2,0.2-0.2
		C226.5,281.6,226.4,281,225.9,280.6C225.9,280.6,225.9,280.6,225.9,280.6z"/>
	<path d="M246.2,299.6h-3.4v-4c1-0.4,1.9-0.8,2.9-1.3c7.4-3.9,12.7-10.9,14.5-19.3c1.2-5.6,0.9-11.1-0.8-16.3v-17.1
		c0-1.2,0-2.4,0.1-3.8c0.1-1.8,0-4.5-0.9-6.9c-1.6-4.3-5.7-7.2-10.6-7.4c-1.9-1.4-5.6-4.2-12.5-3.8c-0.6,0-2.5,0.1-4.8,1.9
		c-0.4,0.4-0.5,1-0.1,1.5c0.3,0.4,0.9,0.5,1.4,0.2c1.6-1.2,2.8-1.4,3.6-1.5c6.3-0.4,9.5,2.1,11.3,3.4l0.1,0.1l0,0c0,0,0,0,0.1,0
		c0,0,0.1,0,0.1,0.1l0.1,0c0,0,0.1,0,0.1,0l0.1,0c0,0,0.1,0,0.1,0h0c4.1,0.1,7.7,2.5,9,6.1c0.8,2.2,0.8,4.7,0.7,6.1
		c-0.1,1.4-0.1,2.7-0.1,3.9V259c0,0.1,0,0.2,0.1,0.3c1.7,4.9,1.9,10.1,0.8,15.3c-1.7,7.8-6.6,14.3-13.4,17.9
		c-6.5,3.4-12.1,2.6-15.6,1.3c-0.6-0.2-1.1,0.2-1.3,0.7c-0.1,0.5,0.1,1,0.6,1.2c0.8,0.3,1.5,0.5,2.3,0.7v3.1H230
		c-0.6,0-1.1,0.4-1.1,1s0.4,1.1,1,1.1c0,0,0.1,0,0.1,0h6.1c0.6,0,1-0.5,1-1.1c0-0.5-0.5-1-1-1h-3.4v-2.8c0.8,0.1,1.7,0.2,2.6,0.2
		c1.8,0,3.6-0.2,5.4-0.7v3.3h-0.7c-0.6,0-1,0.5-1,1.1c0,0.5,0.5,1,1,1h6.1c0.6,0,1-0.5,1-1.1C247.2,300.1,246.7,299.6,246.2,299.6
		L246.2,299.6z"/>
	<path d="M233.8,226.2c0.2-0.3,0.6-0.4,0.9-0.5c0.6-0.1,0.9-0.7,0.8-1.2c-0.1-0.5-0.6-0.9-1.2-0.8c-0.8,0.2-1.5,0.6-2.1,1.2
		c-0.4,0.4-0.3,1.1,0.1,1.5C232.8,226.6,233.4,226.6,233.8,226.2L233.8,226.2z"/>
	<path d="M242.1,279.9c0.4,0.4,1.1,0.4,1.5-0.1c0,0,0,0,0,0c1.3-1.4,2-3.1,2-5c0-0.6-0.5-1-1.1-1c-0.6,0-1,0.5-1,1.1l0,0
		c0,1.3-0.5,2.5-1.4,3.5C241.6,278.8,241.7,279.5,242.1,279.9C242.1,279.9,242.1,279.9,242.1,279.9z"/>
	<path d="M247.6,280.1c0.3,0,0.6-0.1,0.8-0.3c1.3-1.4,2-3.1,2-5c0-0.6-0.6-1-1.1-1c-0.5,0-1,0.5-1,1.1c0,1.3-0.5,2.5-1.4,3.5
		c-0.4,0.4-0.4,1.1,0.1,1.5C247.1,280,247.3,280.1,247.6,280.1L247.6,280.1z"/>
	<path d="M251.4,279.9c0.4,0.4,1.1,0.4,1.5-0.1c1.3-1.4,2-3.1,2-5c0-0.6-0.5-1-1.1-1c-0.6,0-1,0.5-1,1.1l0,0c0,1.3-0.5,2.5-1.4,3.5
		C250.9,278.8,251,279.5,251.4,279.9C251.4,279.9,251.4,279.9,251.4,279.9z"/>
	<path d="M254.8,247.2c-0.1-0.6-0.6-1-1.2-0.9c-0.6,0.1-0.9,0.6-0.9,1.2c0,0.2,0.7,5-4.1,8.3c-0.5,0.3-0.6,1-0.2,1.5
		c0.3,0.4,0.9,0.5,1.4,0.3C255.8,253.5,254.9,247.5,254.8,247.2z"/>
	<path d="M249.8,251.1c0.1-0.6-0.3-1.1-0.9-1.2c-0.5-0.1-1,0.3-1.2,0.8c-0.1,0.3-0.6,2.9-3.7,2.7c-0.6-0.1-1.1,0.3-1.2,0.9
		s0.3,1.1,0.9,1.2c0,0,0.1,0,0.1,0c0.2,0,0.4,0,0.7,0C248.1,255.5,249.5,252.6,249.8,251.1z"/>
	<path d="M241,250.2c-0.6-0.1-1.1,0.3-1.2,0.8c-0.1,0.5,0.2,1.1,0.8,1.2c0.4,0.1,0.8,0.1,1.2,0.1c1.3,0,2.5-0.5,3.5-1.4
		c0.4-0.4,0.4-1.1,0-1.5c-0.4-0.4-1.1-0.4-1.5,0c0,0,0,0,0,0.1C243,250.2,242,250.5,241,250.2z"/>
	<path d="M245.5,232.3c0-0.1-0.1-0.1-0.1-0.2c0-0.1-0.1-0.1-0.1-0.2c0,0-0.1-0.1-0.2-0.1c-0.1,0-0.1-0.1-0.2-0.1
		c-0.1,0-0.1,0-0.2-0.1c-0.3-0.1-0.7,0-0.9,0.3c0,0-0.1,0.1-0.1,0.2c0,0.1-0.1,0.1-0.1,0.2c0,0.1,0,0.1-0.1,0.2c0,0.1,0,0.3,0,0.4
		c0,0.1,0,0.1,0.1,0.2c0,0.1,0.1,0.1,0.1,0.2c0,0.1,0.1,0.1,0.1,0.2c0.2,0.2,0.5,0.3,0.7,0.3c0.1,0,0.1,0,0.2,0c0.1,0,0.1,0,0.2-0.1
		c0.1,0,0.1-0.1,0.2-0.1c0.1-0.1,0.2-0.2,0.3-0.3c0-0.1,0.1-0.1,0.1-0.2c0-0.1,0-0.1,0.1-0.2c0-0.1,0-0.3,0-0.4
		C245.5,232.5,245.5,232.4,245.5,232.3z"/>
	<path d="M251.7,233.7c0.1,0,0.1,0,0.2,0.1c0.1,0,0.1,0,0.2,0c0.6,0,1-0.5,1-1c0,0,0,0,0,0c0-0.1,0-0.1,0-0.2c0-0.1,0-0.1-0.1-0.2
		c0-0.1-0.1-0.1-0.1-0.2c0-0.1-0.1-0.1-0.1-0.2c-0.2-0.2-0.6-0.4-0.9-0.3c-0.1,0-0.1,0-0.2,0.1c-0.1,0-0.1,0.1-0.2,0.1
		c-0.1,0-0.1,0.1-0.2,0.1c0,0-0.1,0.1-0.1,0.2c-0.1,0.1-0.1,0.2-0.2,0.4c0,0.1,0,0.1,0,0.2c0,0.3,0.1,0.5,0.3,0.7
		c0,0,0.1,0.1,0.2,0.1C251.6,233.6,251.7,233.7,251.7,233.7z"/>
	<path d="M245.8,237.4L245.8,237.4c-0.9,0.9-1.2,2.1-0.8,3.2c0.4,1.1,1.5,1.9,2.7,1.8h5.6c0.6,0,1-0.5,1-1c0-0.1,0-0.2,0-0.3
		c0-0.1-0.9-3.1-3.6-4.4C249.2,235.9,247.2,236.2,245.8,237.4z M251.8,240.4h-4c-0.3,0-0.7-0.2-0.8-0.5c-0.1-0.3-0.1-0.6,0.2-0.9
		l0,0c0.4-0.4,1-0.6,1.6-0.6c0.4,0,0.8,0.1,1.1,0.3C250.7,239,251.3,239.6,251.8,240.4z"/>
</g>
<path d="M-76.5,93.4l0,0.3c-0.9,7.9-6.2,14.5-13.6,17.3c-0.6,0.3-1.4,0.5-2.1,0.6c-0.8,0.2-1.5,0.7-2,1.5c-0.4,0.8-0.6,1.6-0.4,2.3
	c0,0.1,0.1,0.2,0.1,0.3l0,0.1c0.2,0.5,0.3,1.1,0.4,1.6c0,0.8-0.3,1.7-0.9,2.3c-0.6,0.6-1.4,1-2.3,1h-29c-0.3,0-0.4-0.2-0.4-0.4
	l0-0.1c0.7-3.2,3.5-5.4,6.9-5.4h6.1c1.8,0,3.3-1.5,3.3-3.3c0-0.9-0.4-1.8-1.2-2.4c-3-2.6-4.8-6.1-5.1-10.1c-0.3-4,1-7.8,3.6-10.8
	c1-1.2,2.2-2.2,3.4-2.9c0.5-0.3,0.7-0.9,0.4-1.5c-0.3-0.5-0.9-0.7-1.6-0.4c-5.1,3.1-8.2,8.5-8.2,14.4c-1.8,1.1-4,1.4-6.1,0.8
	c-1.8-1-3.8-1.7-6-2.1c-0.9-0.2-1.7,0-2.5,0.5c-0.7,0.5-1.2,1.2-1.4,2.2v0.8c0,0.9-0.7,1.7-1.6,1.7c-0.3,0-0.6-0.1-0.9-0.2
	c-1.3-0.7-2.3-1.9-2.7-3.4c-0.4-1.4-0.2-3,0.5-4.3c0.5-0.9,1.3-1.7,2.3-2.3c1.4-0.5,2.8-0.6,4.3-0.5c4,0.4,7.7-2.4,8.3-6.4
	c0.4-2.4,1.6-4.6,3.6-6.2c0.4-0.4,0.5-1,0.3-1.5l-0.1-0.1c-0.4-0.4-1-0.5-1.5-0.2c-1.9,1.6-3.3,3.6-4,5.7c-1.7-1.6-4.3-1.9-6.4-0.8
	c-2.8,1.9-6.1,2.8-9.4,2.8c-2.3-0.4-4.1-2-4.6-4.2l0-0.4c0.3-3.1,1.4-6.2,3.2-8.9c1.9-3.4,5-6,8.8-7.4c0,0.9,0,1.7,0,2.6
	c0,0.3,0.2,0.6,0.4,0.8c0.2,0.2,0.5,0.2,0.7,0.2c0.6,0,1-0.5,1-1.2c-0.5-5.2,1.6-10.5,5.8-14.1c3.1,4.4,3.2,10.2,0.1,14.7
	c-0.4,0.4-0.4,1.1,0.1,1.6c0.4,0.4,1.1,0.4,1.6-0.1l0.2-0.2c0.4-0.6,0.8-1.2,1.1-1.9c3,2.3,6.7,3.5,10.7,3.5c1.4,0,2.8-0.3,3.9-0.9
	c11.3-5.2,24.7-0.2,29.9,11.1c0.6,1.3,1.1,2.7,1.5,4.3c0.4,1,0.7,2,0.9,3l0,0.1l2,0l0.2-0.4c-0.2-0.9-0.3-1.7-0.6-2.5
	c-0.1-0.2-0.1-0.4-0.2-0.6c-0.1-0.2-0.1-0.3-0.2-0.5c-3.1-12.8-15.7-20.9-28.6-18.5c-3.4-4.9-5.3-10.4-5.8-16.4
	c-0.5-3.8,0.5-7.6,2.8-10.7c2.3-3,5.7-5,9.6-5.6c0.3,0.1,0.7,0,1.1,0c0,0,0.1,0,0.1,0c-3.3,6.1-1.7,13.6,3.9,17.6
	c5.2,3.9,11,7.1,17.1,9.6c10.3,4.4,17.1,14.5,17.5,25.7c0.8,9.2-2.9,18-9.9,23.7c-6.2,4.9-14.3,6.6-21.8,4.5
	c8.2-3,14.1-10.4,15.2-19.1 M-55.5,84.5c-0.5-12-7.9-22.8-18.8-27.5c-5.9-2.4-11.5-5.6-16.7-9.4c-4.8-3.6-6.1-10.1-3.1-15.2
	c0.3-0.5,0.4-1,0.2-1.5c-0.1-0.5-0.5-0.9-0.9-1.1l-0.2,0c-0.2,0-0.4,0-0.6-0.1c-0.2,0-0.3,0-0.4,0c-4.5,0-8.6,1.8-11.7,5
	c-3.1,3.2-4.8,7.4-4.7,11.8c0,0.7,0.1,1.4,0.2,1.9c0.5,5.9,2.5,11.7,5.8,16.7c-1.2,0.4-2.4,0.8-3.4,1.3c-0.9,0.4-1.8,0.6-3,0.7
	c-3.5,0.1-6.9-1.1-9.8-3.3c1.5-4.6,0.6-9.7-2.3-13.5c-0.7-0.9-1.8-1-2.7-0.4h-0.1l-0.1,0.1c-1.2,0.9-2.2,2-3.1,3.2
	c-1.4-2.1-3.4-3.8-5.7-4.8c-0.9-0.5-2-0.1-2.6,0.8c-2.6,4.5-3,10.1-1.2,15c-2.1,1.5-3.9,3.6-5.2,5.8c-1.9,2.9-3.1,6.1-3.5,9.8
	c0,0.3,0,0.6,0.1,0.9c0.7,3.2,3.3,5.6,6.7,6.1c3.9,0,7.5-1.1,10.7-3.1c1.6-0.8,3.5-0.3,4.5,1.2l0.2,0.4c-0.8,2.3-3.1,3.7-5.6,3.4
	c-1.8-0.2-3.6,0-5.4,0.6c-1.9,0.9-3.3,2.6-4,4.6c-0.7,2-0.5,4.1,0.4,5.9c0.7,1.4,1.8,2.6,3.3,3.5c0.9,0.5,2,0.6,3,0.3
	c1-0.3,1.8-1,2.3-1.9c0.3-0.6,0.5-1.4,0.5-2c0-0.5,0.5-1,1-1l0.2,0c2,0.4,3.8,1,5.5,2c2.4,0.7,4.9,0.6,7.1-0.4
	c0.6,4.2,2.6,8,5.7,10.6c0.4,0.3,0.5,1,0.2,1.4c-0.2,0.2-0.5,0.4-0.8,0.4h-6.1c-4.3,0-8,2.9-9,7.1c-0.2,0.7,0,1.4,0.3,2
	c0.4,0.6,1,1,1.7,1.2c0.1,0,0.1,0,0.2,0c0.1,0,0.2,0,0.3,0h28.9c3,0,5.4-2.4,5.4-5.5c0-0.7-0.2-1.5-0.5-2.3c-0.1-0.2-0.1-0.5,0-0.7
	c8.9,3.3,18.8,1.7,26.1-4.2C-58.6,103.9-54.5,94.2-55.5,84.5z M-134.5,61.3c-1.6,0.5-2.9,1-4,1.6c-1.4-4.1-0.9-8.7,1.2-12.4
	c2.1,1,3.9,2.7,5,4.8C-133.3,57.1-134.1,59.1-134.5,61.3z"/>
<g transform="translate(0,-952.36218)">
	<path d="M224.8,806.4c-0.2,0-0.5,0.2-0.6,0.3c-1.2,1.2-2.8,2.9-3.7,5c-0.8,1.9-1,4.1-0.2,6.3c-3.1,2.2-6.6,2.9-10.4,2.3
		c-4-0.6-8.2-2.8-12.1-6c-0.6-0.5-1.8-0.1-1.9,0.7c-3.3,13.4-7.3,27.1-8.2,39.9c0,0.3,0.1,0.6,0.3,0.8c3.7,3.5,7.7,4.8,13.7,4.8
		c18.7,0.4,37.4,0.7,56.1,1.1c7.6-0.1,13.9-1.4,19.8-3.1c3.4-1,6.7-2.1,9.5-3.9c0.6-0.4,1.2-0.9,1.2-1.8c0-2.3-0.3-4.9-1.1-7.2
		c-0.8-2.2-2.1-4.3-4.4-5c-2.1-0.6-6.1-1.1-10.5-1.7c-4.4-0.5-9-1.1-11.8-1.6c-2.2-0.7-4.4-1.7-6.1-2.7l0.9-1.1
		c0.6-0.7-0.1-1.9-1-1.8c-0.3,0-0.7,0.2-0.9,0.4l-1,1.2c-1.3-0.9-2.6-1.9-3.9-3l2-2.4c0.6-0.7,0-1.9-1-1.8c-0.3,0-0.7,0.2-0.9,0.4
		l-1.9,2.3c-0.9-0.9-1.9-1.8-2.8-2.7l1.9-2.7c0.5-0.7-0.2-1.9-1.1-1.7c-0.3,0-0.7,0.2-0.8,0.5l-1.6,2.2c-0.9-1-1.9-2-2.7-2.9
		l1.6-2.6c0.4-0.7-0.3-1.7-1.1-1.7c-0.4,0-0.7,0.3-0.9,0.6l-1.1,1.8c-0.9-1-1.8-2-2.6-3l1.1-2.2c0.4-0.7-0.3-1.7-1.1-1.6
		c-0.4,0-0.8,0.3-1,0.6l-0.7,1.2c-2.6-3-5.3-5.9-8-8.2C225.5,806.4,225.1,806.5,224.8,806.4L224.8,806.4z M225.1,809.2
		c1,0.9,2.1,2,3.1,3c-6.8,11.2-15.6,15.2-20.7,15.2c-3.1,0-8.3-1-11.5-3.7c0.7-2.6,1.3-4.8,1.7-6.7c3.8,2.8,7.8,4.8,11.8,5.5
		c4.5,0.7,9-0.2,12.8-3.1c0.4-0.3,0.6-0.9,0.3-1.3c-1-1.9-0.8-3.7,0-5.4C223.2,811.3,224.2,810.2,225.1,809.2z M229.8,814
		c0.9,1,1.9,2,2.8,3.1c-1.1,1.9-2.4,4.1-3.5,6.3c-0.7,1.3-1.2,2.5-1.6,3.6c-0.3,1.1-0.6,2.2,0,3.2c1.5,1.6,3.4,2.6,5,3.3
		c2.3,1,5.3,2,8.4,2.9c10.4,2.8,21.2,3.6,31,4.9c1.8,0.2,3.4,0.4,4.9,0.7c-4,0.7-8.4,1.1-12.4,1.9c-2.9,0.6-5.4,1.3-7.5,2.7
		c-1.8,1.2-3.1,2.9-3.7,5.1c-3.5-0.9-7.5-2-10.7-2.1c-4,0-7.5,1.3-11,2.4c-4.7-4.5-11.1-9.4-16.9-13.3c-2.9-2-5.6-3.6-7.8-4.8
		c-1.1-0.6-2.1-1.1-3-1.5c-0.9-0.3-1.6-0.6-2.3-0.6c-2.3,0-4.2,1.3-6.1,2.9c-1,0.9-2.1,1.9-3.1,2.9c0.8-4,1.9-7.9,2.9-11.5
		c3.8,2.6,8.8,3.5,12.1,3.5C213.7,829.6,222.8,825.3,229.8,814L229.8,814z M234.3,819c0.8,1,1.7,1.9,2.6,2.9l-2.3,3.9
		c-0.3,0.5-0.1,1.2,0.5,1.5c0.5,0.3,1.3,0.1,1.6-0.4l1.9-3.1c0.9,1,1.7,1.9,2.5,2.8l-1.8,2.5c-0.3,0.5-0.2,1.2,0.3,1.5
		c0.5,0.3,1.3,0.2,1.6-0.3l1.4-2c0.9,0.9,1.7,1.7,2.6,2.5l-1.3,1.5c-0.4,0.5-0.3,1.2,0.2,1.6c0.5,0.4,1.3,0.3,1.6-0.2l1.2-1.4
		c1.3,1.1,2.6,2.1,3.9,3l-0.8,1c-2.9-0.5-5.8-1.3-8.6-2c-3.1-0.9-5.9-1.9-8.1-2.8c-2.1-0.9-3.6-2-3.9-2.3c0-0.1-0.1-0.6,0.1-1.5
		c0.3-0.9,0.8-2,1.5-3.2C232.2,822.4,233.2,821,234.3,819z M201.6,834.1c0.1,0,0.7,0.1,1.4,0.4c0.7,0.3,1.7,0.7,2.7,1.3
		c2.1,1.1,4.7,2.8,7.6,4.7c4,2.7,8.2,5.9,12.1,9.1c-5.4-2.4-11.4-4.5-17.1-5.7c-5.8-1-11.9-1.8-17.1,0.4c0.2-1,0.3-2,0.5-3
		c1.8-1.6,3.9-3.5,5.4-4.9C198.9,834.9,200.4,834.1,201.6,834.1z M282.3,842.9c1.1,0.5,2,1.7,2.6,3.5c-5.7,1-12.1,2.3-17.5,4
		c-4.4,1.4-7.2,2.5-8.4,2.5c-0.8,0-2-0.3-3.4-0.6c0.4-1.8,1.3-3,2.7-3.9c1.6-1.1,4-1.8,6.7-2.4C271,844.5,277.2,844.4,282.3,842.9
		L282.3,842.9z M207.8,846.1c6.4,1.3,13.4,3.9,19.4,6.8c-8.7,0-24-3-36.7-3.3c0.1-0.9,0.2-1.7,0.3-2.6
		C196.4,844.3,202.3,844.9,207.8,846.1z M285.5,848.6c0.2,1.3,0.4,2.7,0.4,4c-2.6,2-6.3,3.1-9,3.8c-5.6,1.6-12.8,3-19.1,3
		c-18.7-0.4-37.4-0.7-56.1-1.1c-4.7-0.3-9-1.5-11.7-3.8c0.1-0.9,0.2-1.9,0.3-2.8c12.4,0.2,27.8,3.3,37.1,3.3c2.6,0,4.8-0.9,7.1-1.7
		c2.3-0.8,4.8-1.6,8.1-1.6c2.7,0,5.8,0.8,8.7,1.6c2.9,0.8,5.5,1.7,7.6,1.7c2.3,0,4.8-1.2,9.1-2.6
		C274.5,850.7,280.3,849.4,285.5,848.6z"/>
</g>
<circle cx="-75.5" cy="90.3" r="1.2"/>
<circle cx="53.2" cy="129.3" r="1.2"/>
<circle cx="-137" cy="73.3" r="1.2"/>
<circle cx="-75.5" cy="93.8" r="1.1"/>
<circle cx="-75.8" cy="86.7" r="1.1"/>
</svg>
