<?xml version="1.0" encoding="utf-8"?>
<!-- Generator: Adobe Illustrator 24.1.0, SVG Export Plug-In . SVG Version: 6.00 Build 0)  -->
<svg version="1.1" id="Layer_1" xmlns="http://www.w3.org/2000/svg" xmlns:xlink="http://www.w3.org/1999/xlink" x="0px" y="0px"
	 viewBox="0 0 120 150" style="enable-background:new 0 0 120 150;" xml:space="preserve">
<style type="text/css">
	.st0{clip-path:url(#SVGID_1_);}
	.st1{clip-path:url(#SVGID_2_);}
	.st2{fill:#FFCFEB;}
	.st3{clip-path:url(#SVGID_1_);fill:none;stroke:#FFCFEB;stroke-width:3;stroke-miterlimit:10;}
</style>
<g>
	<defs>
		<rect id="SVGID_5_" y="0" width="120" height="150"/>
	</defs>
	<clipPath id="SVGID_1_">
		<use xlink:href="#SVGID_5_"  style="overflow:visible;"/>
	</clipPath>
	<g class="st0">
		<defs>
			<rect id="SVGID_7_" x="44.5" y="88.7" width="82.5" height="89.2"/>
		</defs>
		<clipPath id="SVGID_2_">
			<use xlink:href="#SVGID_7_"  style="overflow:visible;"/>
		</clipPath>
		<g class="st1">
			<path class="st2" d="M47.8,101h6.6c0.6,0,1.1-0.5,1.1-1.1l0,0c0-0.6-0.5-1.1-1.1-1.1h-6.6c-0.6,0-1.1,0.5-1.1,1.1l0,0
				C46.7,100.5,47.2,101,47.8,101z"/>
			<path class="st2" d="M47.8,81.7h6.6c0.6,0,1.1-0.5,1.1-1.1v0c0-0.6-0.5-1.1-1.1-1.1h-6.6c-0.6,0-1.1,0.5-1.1,1.1v0
				C46.7,81.2,47.2,81.7,47.8,81.7z"/>
			<path class="st2" d="M47.8,120.2h6.6c0.6,0,1.1-0.5,1.1-1.1l0,0c0-0.6-0.5-1.1-1.1-1.1h-6.6c-0.6,0-1.1,0.5-1.1,1.1l0,0
				C46.7,119.7,47.2,120.2,47.8,120.2z"/>
			<path class="st2" d="M47.8,139.4h6.6c0.6,0,1.1-0.5,1.1-1.1l0,0c0-0.6-0.5-1.1-1.1-1.1h-6.6c-0.6,0-1.1,0.5-1.1,1.1l0,0
				C46.7,138.9,47.2,139.4,47.8,139.4z"/>
			<path class="st2" d="M47.8,158.6h6.6c0.6,0,1.1-0.5,1.1-1.1l0,0c0-0.6-0.5-1.1-1.1-1.1h-6.6c-0.6,0-1.1,0.5-1.1,1.1l0,0
				C46.7,158.1,47.2,158.6,47.8,158.6z"/>
			<path class="st2" d="M47.8,177.9h6.6c0.6,0,1.1-0.5,1.1-1.1l0,0c0-0.6-0.5-1.1-1.1-1.1h-6.6c-0.6,0-1.1,0.5-1.1,1.1l0,0
				C46.7,177.4,47.2,177.9,47.8,177.9z"/>
			<path class="st2" d="M47.8,197.1h6.6c0.6,0,1.1-0.5,1.1-1.1l0,0c0-0.6-0.5-1.1-1.1-1.1h-6.6c-0.6,0-1.1,0.5-1.1,1.1l0,0
				C46.7,196.6,47.2,197.1,47.8,197.1z"/>
			<path class="st2" d="M47.8,216.3h6.6c0.6,0,1.1-0.5,1.1-1.1l0,0c0-0.6-0.5-1.1-1.1-1.1h-6.6c-0.6,0-1.1,0.5-1.1,1.1l0,0
				C46.7,215.8,47.2,216.3,47.8,216.3z"/>
			<path class="st2" d="M47.8,235.5h6.6c0.6,0,1.1-0.5,1.1-1.1v0c0-0.6-0.5-1.1-1.1-1.1h-6.6c-0.6,0-1.1,0.5-1.1,1.1v0
				C46.7,235,47.2,235.5,47.8,235.5z"/>
			<path class="st2" d="M69.2,110.9h6.6c0.6,0,1.1-0.5,1.1-1.1l0,0c0-0.6-0.5-1.1-1.1-1.1h-6.6c-0.6,0-1.1,0.5-1.1,1.1l0,0
				C68,110.4,68.5,110.9,69.2,110.9z"/>
			<path class="st2" d="M69.2,91.6h6.6c0.6,0,1.1-0.5,1.1-1.1l0,0c0-0.6-0.5-1.1-1.1-1.1h-6.6c-0.6,0-1.1,0.5-1.1,1.1l0,0
				C68,91.1,68.5,91.6,69.2,91.6z"/>
			<path class="st2" d="M69.2,130.1h6.6c0.6,0,1.1-0.5,1.1-1.1l0,0c0-0.6-0.5-1.1-1.1-1.1h-6.6c-0.6,0-1.1,0.5-1.1,1.1l0,0
				C68,129.6,68.5,130.1,69.2,130.1z"/>
			<path class="st2" d="M69.2,149.3h6.6c0.6,0,1.1-0.5,1.1-1.1l0,0c0-0.6-0.5-1.1-1.1-1.1h-6.6c-0.6,0-1.1,0.5-1.1,1.1l0,0
				C68,148.8,68.5,149.3,69.2,149.3z"/>
			<path class="st2" d="M69.2,168.5h6.6c0.6,0,1.1-0.5,1.1-1.1v0c0-0.6-0.5-1.1-1.1-1.1h-6.6c-0.6,0-1.1,0.5-1.1,1.1v0
				C68,168,68.5,168.5,69.2,168.5z"/>
			<path class="st2" d="M69.2,187.8h6.6c0.6,0,1.1-0.5,1.1-1.1l0,0c0-0.6-0.5-1.1-1.1-1.1h-6.6c-0.6,0-1.1,0.5-1.1,1.1l0,0
				C68,187.2,68.5,187.8,69.2,187.8z"/>
			<path class="st2" d="M69.2,207h6.6c0.6,0,1.1-0.5,1.1-1.1l0,0c0-0.6-0.5-1.1-1.1-1.1h-6.6c-0.6,0-1.1,0.5-1.1,1.1l0,0
				C68,206.5,68.5,207,69.2,207z"/>
			<path class="st2" d="M69.2,226.2h6.6c0.6,0,1.1-0.5,1.1-1.1l0,0c0-0.6-0.5-1.1-1.1-1.1h-6.6c-0.6,0-1.1,0.5-1.1,1.1l0,0
				C68,225.7,68.5,226.2,69.2,226.2z"/>
			<path class="st2" d="M69.2,245.4h6.6c0.6,0,1.1-0.5,1.1-1.1l0,0c0-0.6-0.5-1.1-1.1-1.1h-6.6c-0.6,0-1.1,0.5-1.1,1.1l0,0
				C68,244.9,68.5,245.4,69.2,245.4z"/>
			<path class="st2" d="M90.5,101h6.6c0.6,0,1.1-0.5,1.1-1.1l0,0c0-0.6-0.5-1.1-1.1-1.1h-6.6c-0.6,0-1.1,0.5-1.1,1.1l0,0
				C89.4,100.5,89.9,101,90.5,101z"/>
			<path class="st2" d="M90.5,81.7h6.6c0.6,0,1.1-0.5,1.1-1.1v0c0-0.6-0.5-1.1-1.1-1.1h-6.6c-0.6,0-1.1,0.5-1.1,1.1v0
				C89.4,81.2,89.9,81.7,90.5,81.7z"/>
			<path class="st2" d="M90.5,120.2h6.6c0.6,0,1.1-0.5,1.1-1.1l0,0c0-0.6-0.5-1.1-1.1-1.1h-6.6c-0.6,0-1.1,0.5-1.1,1.1l0,0
				C89.4,119.7,89.9,120.2,90.5,120.2z"/>
			<path class="st2" d="M90.5,139.4h6.6c0.6,0,1.1-0.5,1.1-1.1l0,0c0-0.6-0.5-1.1-1.1-1.1h-6.6c-0.6,0-1.1,0.5-1.1,1.1l0,0
				C89.4,138.9,89.9,139.4,90.5,139.4z"/>
			<path class="st2" d="M90.5,158.6h6.6c0.6,0,1.1-0.5,1.1-1.1l0,0c0-0.6-0.5-1.1-1.1-1.1h-6.6c-0.6,0-1.1,0.5-1.1,1.1l0,0
				C89.4,158.1,89.9,158.6,90.5,158.6z"/>
			<path class="st2" d="M90.5,177.9h6.6c0.6,0,1.1-0.5,1.1-1.1l0,0c0-0.6-0.5-1.1-1.1-1.1h-6.6c-0.6,0-1.1,0.5-1.1,1.1l0,0
				C89.4,177.4,89.9,177.9,90.5,177.9z"/>
			<path class="st2" d="M90.5,197.1h6.6c0.6,0,1.1-0.5,1.1-1.1l0,0c0-0.6-0.5-1.1-1.1-1.1h-6.6c-0.6,0-1.1,0.5-1.1,1.1l0,0
				C89.4,196.6,89.9,197.1,90.5,197.1z"/>
			<path class="st2" d="M90.5,216.3h6.6c0.6,0,1.1-0.5,1.1-1.1l0,0c0-0.6-0.5-1.1-1.1-1.1h-6.6c-0.6,0-1.1,0.5-1.1,1.1l0,0
				C89.4,215.8,89.9,216.3,90.5,216.3z"/>
			<path class="st2" d="M90.5,235.5h6.6c0.6,0,1.1-0.5,1.1-1.1v0c0-0.6-0.5-1.1-1.1-1.1h-6.6c-0.6,0-1.1,0.5-1.1,1.1v0
				C89.4,235,89.9,235.5,90.5,235.5z"/>
			<path class="st2" d="M111.8,110.9h6.6c0.6,0,1.1-0.5,1.1-1.1l0,0c0-0.6-0.5-1.1-1.1-1.1h-6.6c-0.6,0-1.1,0.5-1.1,1.1l0,0
				C110.7,110.4,111.2,110.9,111.8,110.9z"/>
			<path class="st2" d="M111.8,91.6h6.6c0.6,0,1.1-0.5,1.1-1.1l0,0c0-0.6-0.5-1.1-1.1-1.1h-6.6c-0.6,0-1.1,0.5-1.1,1.1l0,0
				C110.7,91.1,111.2,91.6,111.8,91.6z"/>
			<path class="st2" d="M111.8,130.1h6.6c0.6,0,1.1-0.5,1.1-1.1l0,0c0-0.6-0.5-1.1-1.1-1.1h-6.6c-0.6,0-1.1,0.5-1.1,1.1l0,0
				C110.7,129.6,111.2,130.1,111.8,130.1z"/>
			<path class="st2" d="M111.8,149.3h6.6c0.6,0,1.1-0.5,1.1-1.1l0,0c0-0.6-0.5-1.1-1.1-1.1h-6.6c-0.6,0-1.1,0.5-1.1,1.1l0,0
				C110.7,148.8,111.2,149.3,111.8,149.3z"/>
			<path class="st2" d="M111.8,168.5h6.6c0.6,0,1.1-0.5,1.1-1.1v0c0-0.6-0.5-1.1-1.1-1.1h-6.6c-0.6,0-1.1,0.5-1.1,1.1v0
				C110.7,168,111.2,168.5,111.8,168.5z"/>
			<path class="st2" d="M111.8,187.8h6.6c0.6,0,1.1-0.5,1.1-1.1l0,0c0-0.6-0.5-1.1-1.1-1.1h-6.6c-0.6,0-1.1,0.5-1.1,1.1l0,0
				C110.7,187.2,111.2,187.8,111.8,187.8z"/>
			<path class="st2" d="M111.8,207h6.6c0.6,0,1.1-0.5,1.1-1.1l0,0c0-0.6-0.5-1.1-1.1-1.1h-6.6c-0.6,0-1.1,0.5-1.1,1.1l0,0
				C110.7,206.5,111.2,207,111.8,207z"/>
			<path class="st2" d="M111.8,226.2h6.6c0.6,0,1.1-0.5,1.1-1.1l0,0c0-0.6-0.5-1.1-1.1-1.1h-6.6c-0.6,0-1.1,0.5-1.1,1.1l0,0
				C110.7,225.7,111.2,226.2,111.8,226.2z"/>
			<path class="st2" d="M111.8,245.4h6.6c0.6,0,1.1-0.5,1.1-1.1l0,0c0-0.6-0.5-1.1-1.1-1.1h-6.6c-0.6,0-1.1,0.5-1.1,1.1l0,0
				C110.7,244.9,111.2,245.4,111.8,245.4z"/>
			<path class="st2" d="M133.1,101h6.6c0.6,0,1.1-0.5,1.1-1.1l0,0c0-0.6-0.5-1.1-1.1-1.1h-6.6c-0.6,0-1.1,0.5-1.1,1.1l0,0
				C132,100.5,132.5,101,133.1,101z"/>
			<path class="st2" d="M133.1,81.7h6.6c0.6,0,1.1-0.5,1.1-1.1v0c0-0.6-0.5-1.1-1.1-1.1h-6.6c-0.6,0-1.1,0.5-1.1,1.1v0
				C132,81.2,132.5,81.7,133.1,81.7z"/>
			<path class="st2" d="M133.1,120.2h6.6c0.6,0,1.1-0.5,1.1-1.1l0,0c0-0.6-0.5-1.1-1.1-1.1h-6.6c-0.6,0-1.1,0.5-1.1,1.1l0,0
				C132,119.7,132.5,120.2,133.1,120.2z"/>
			<path class="st2" d="M133.1,139.4h6.6c0.6,0,1.1-0.5,1.1-1.1l0,0c0-0.6-0.5-1.1-1.1-1.1h-6.6c-0.6,0-1.1,0.5-1.1,1.1l0,0
				C132,138.9,132.5,139.4,133.1,139.4z"/>
			<path class="st2" d="M133.1,158.6h6.6c0.6,0,1.1-0.5,1.1-1.1l0,0c0-0.6-0.5-1.1-1.1-1.1h-6.6c-0.6,0-1.1,0.5-1.1,1.1l0,0
				C132,158.1,132.5,158.6,133.1,158.6z"/>
			<path class="st2" d="M133.1,177.9h6.6c0.6,0,1.1-0.5,1.1-1.1l0,0c0-0.6-0.5-1.1-1.1-1.1h-6.6c-0.6,0-1.1,0.5-1.1,1.1l0,0
				C132,177.4,132.5,177.9,133.1,177.9z"/>
			<path class="st2" d="M133.1,197.1h6.6c0.6,0,1.1-0.5,1.1-1.1l0,0c0-0.6-0.5-1.1-1.1-1.1h-6.6c-0.6,0-1.1,0.5-1.1,1.1l0,0
				C132,196.6,132.5,197.1,133.1,197.1z"/>
			<path class="st2" d="M133.1,216.3h6.6c0.6,0,1.1-0.5,1.1-1.1l0,0c0-0.6-0.5-1.1-1.1-1.1h-6.6c-0.6,0-1.1,0.5-1.1,1.1l0,0
				C132,215.8,132.5,216.3,133.1,216.3z"/>
			<path class="st2" d="M133.1,235.5h6.6c0.6,0,1.1-0.5,1.1-1.1v0c0-0.6-0.5-1.1-1.1-1.1h-6.6c-0.6,0-1.1,0.5-1.1,1.1v0
				C132,235,132.5,235.5,133.1,235.5z"/>
			<path class="st2" d="M154.5,110.9h6.6c0.6,0,1.1-0.5,1.1-1.1l0,0c0-0.6-0.5-1.1-1.1-1.1h-6.6c-0.6,0-1.1,0.5-1.1,1.1l0,0
				C153.3,110.4,153.9,110.9,154.5,110.9z"/>
			<path class="st2" d="M154.5,91.6h6.6c0.6,0,1.1-0.5,1.1-1.1l0,0c0-0.6-0.5-1.1-1.1-1.1h-6.6c-0.6,0-1.1,0.5-1.1,1.1l0,0
				C153.3,91.1,153.9,91.6,154.5,91.6z"/>
			<path class="st2" d="M154.5,130.1h6.6c0.6,0,1.1-0.5,1.1-1.1l0,0c0-0.6-0.5-1.1-1.1-1.1h-6.6c-0.6,0-1.1,0.5-1.1,1.1l0,0
				C153.3,129.6,153.9,130.1,154.5,130.1z"/>
			<path class="st2" d="M154.5,149.3h6.6c0.6,0,1.1-0.5,1.1-1.1l0,0c0-0.6-0.5-1.1-1.1-1.1h-6.6c-0.6,0-1.1,0.5-1.1,1.1l0,0
				C153.3,148.8,153.9,149.3,154.5,149.3z"/>
			<path class="st2" d="M154.5,168.5h6.6c0.6,0,1.1-0.5,1.1-1.1v0c0-0.6-0.5-1.1-1.1-1.1h-6.6c-0.6,0-1.1,0.5-1.1,1.1v0
				C153.3,168,153.9,168.5,154.5,168.5z"/>
			<path class="st2" d="M154.5,187.8h6.6c0.6,0,1.1-0.5,1.1-1.1l0,0c0-0.6-0.5-1.1-1.1-1.1h-6.6c-0.6,0-1.1,0.5-1.1,1.1l0,0
				C153.3,187.2,153.9,187.8,154.5,187.8z"/>
			<path class="st2" d="M154.5,207h6.6c0.6,0,1.1-0.5,1.1-1.1l0,0c0-0.6-0.5-1.1-1.1-1.1h-6.6c-0.6,0-1.1,0.5-1.1,1.1l0,0
				C153.3,206.5,153.9,207,154.5,207z"/>
			<path class="st2" d="M154.5,226.2h6.6c0.6,0,1.1-0.5,1.1-1.1l0,0c0-0.6-0.5-1.1-1.1-1.1h-6.6c-0.6,0-1.1,0.5-1.1,1.1l0,0
				C153.3,225.7,153.9,226.2,154.5,226.2z"/>
			<path class="st2" d="M154.5,245.4h6.6c0.6,0,1.1-0.5,1.1-1.1l0,0c0-0.6-0.5-1.1-1.1-1.1h-6.6c-0.6,0-1.1,0.5-1.1,1.1l0,0
				C153.3,244.9,153.9,245.4,154.5,245.4z"/>
		</g>
	</g>
	<circle class="st3" cx="-37.7" cy="50.5" r="60.3"/>
	<g class="st0">
		<path d="M33.3,53.9c-4.1,1-6.8,4.9-6.4,9L30,98.2l0,0l0,0l1.6,17.9c0.2,2.4,2.2,4.3,4.7,4.3h25.4c2.4,0,4.5-1.9,4.7-4.3l3.4-38.6
			l0,0l0,0L71,62.9c0.4-4.2-2.4-8-6.4-9c-5.9-1.6-8.6-5.4-9.7-8.1c1.2-0.8,2-2.1,2-3.6l0.6-8.3c0,0,0,0,0-0.1c0-2.4-1.9-4.3-4.3-4.3
			h-8.3c-2.4,0-4.3,1.9-4.3,4.3c0,0,0,0,0,0.1l0.6,8.3c0,1.5,0.8,2.8,2,3.6C41.9,48.5,39.2,52.4,33.3,53.9z M64.1,115.9
			c-0.1,1.3-1.2,2.3-2.5,2.3H36.3c-1.3,0-2.4-1-2.5-2.3l-1.1-12.5c1.4,1.2,3.2,1.8,5,1.8h22.5c1.8,0,3.6-0.6,5-1.8L64.1,115.9z
			 M45.2,46.5c0.1,0,0.1,0,0.2,0h1.8c0.6,0,1.1-0.5,1.1-1.2c0-0.6-0.5-1-1.1-1.1h-1.8c-1.2,0-2.1-0.9-2.1-2.1c0,0,0,0,0-0.1
			l-0.6-8.3c0-1.1,1-2.1,2.1-2.1h8.3c1.1,0,2.1,0.9,2.1,2.1l-0.6,8.3c0,0,0,0,0,0.1c0,1.2-0.9,2.1-2.1,2.1c0,0,0,0,0,0h-0.8
			c-0.6,0-1.1,0.5-1.2,1.1c0,0.6,0.5,1.1,1.1,1.2c0,0,0.1,0,0.1,0h0.8c0.1,0,0.1,0,0.2,0c1.3,3,4.3,7.7,11.3,9.5
			c3,0.8,5,3.6,4.8,6.7l-0.6,6.4c-1.5-3.1-4-5.7-7-7.3C55.4,58.9,49.7,59,49,59c-2.7,0-5.3,0.3-7.9,1.1c-0.6,0.2-0.9,0.8-0.7,1.4
			c0.2,0.6,0.8,0.9,1.3,0.7c2.3-0.7,4.8-1,7.2-1H49c0.1,0,5.7-0.3,11.2,2.6c5,2.6,7.9,7.9,7.3,13.5L65.7,98l0,0
			c-0.2,2.8-2.6,5-5.5,5H37.7c-2.9,0-5.2-2.2-5.5-5l-1.8-20.6l0,0c-0.4-4.2,1.1-8.3,4.1-11.2c0.4-0.4,0.4-1.1,0-1.6
			c-0.4-0.4-1.1-0.4-1.6,0l0,0c-1.4,1.3-2.5,2.9-3.3,4.6l-0.6-6.4c-0.3-3.1,1.8-5.9,4.8-6.7C40.8,54.2,43.9,49.6,45.2,46.5z"/>
		<path d="M37.1,64c0.2,0,0.4,0,0.5-0.1l0.1-0.1c0.5-0.3,0.7-1,0.4-1.5c-0.3-0.5-0.9-0.7-1.5-0.5l-0.1,0.1c-0.5,0.3-0.7,1-0.5,1.5
			C36.3,63.8,36.7,64,37.1,64L37.1,64z"/>
		<path d="M42.4,84.2c-0.5-0.3-1.2-0.2-1.5,0.3c0,0,0,0,0,0c-0.7,1.2-1.1,2.5-1.2,3.9c0,4.5,4.1,8.1,9.2,8.1s9.2-3.7,9.2-8.1
			c0-4.5-4.1-8.1-9.2-8.1c-1.6,0-3.2,0.4-4.6,1.1c-0.6,0.3-0.8,0.9-0.5,1.5s0.9,0.8,1.5,0.5c0,0,0,0,0.1,0c1.1-0.6,2.4-0.9,3.6-0.9
			c3.9,0,7,2.7,7,5.9c0,3.3-3.1,5.9-7,5.9s-7-2.7-7-5.9c0-1,0.3-1.9,0.8-2.8C43.1,85.2,43,84.5,42.4,84.2z"/>
		<path d="M49,76.9c2.3,0,4.2-1.9,4.2-4.2c0-2.3-1.9-4.2-4.2-4.2c-2.3,0-4.2,1.9-4.2,4.2C44.8,75,46.7,76.9,49,76.9z M49,70.7
			c1.1,0,2,0.9,2,2s-0.9,2-2,2s-2-0.9-2-2C47,71.6,47.9,70.7,49,70.7z"/>
		<path d="M38.4,80.6c2.3,0,4.2-1.9,4.2-4.2c0-2.3-1.9-4.2-4.2-4.2s-4.2,1.9-4.2,4.2C34.3,78.8,36.1,80.6,38.4,80.6z M38.4,74.5
			c1.1,0,2,0.9,2,2c0,1.1-0.9,2-2,2s-2-0.9-2-2l0,0C36.5,75.4,37.4,74.5,38.4,74.5L38.4,74.5z"/>
		<path d="M59.8,80.6c2.3,0,4.2-1.9,4.2-4.2c0-2.3-1.9-4.2-4.2-4.2s-4.2,1.9-4.2,4.2C55.6,78.8,57.5,80.6,59.8,80.6z M59.8,74.5
			c1.1,0,2,0.9,2,2c0,1.1-0.9,2-2,2c-1.1,0-2-0.9-2-2l0,0C57.8,75.4,58.7,74.5,59.8,74.5L59.8,74.5z"/>
		<path d="M71.4,41.7c-0.6,0-1.1,0.5-1.1,1.1c0,0,0,0,0,0v3.9c-2.1,0.4-3.8,2.3-4,4.6c0,0.6,0.4,1.1,1,1.2c0.6,0,1.1-0.4,1.2-1
			c0.1-1.5,1.2-2.7,2.6-2.7h6c1.3,0,2.5,1.2,2.6,2.7l0.6,8.9h-5.9c-0.6,0-1.1,0.5-1.1,1.1c0,0.6,0.5,1.1,1.1,1.1h6.1
			c4.4,0,8.1,3.3,8.6,7.7c0.1,0.6,0.1,1.2,0.2,1.9H81c-4.4,0-8,3.6-8,8v18.4c0,4.4,3.6,8,8,8h5.1c0.6,0,1.1-0.5,1.2-1.1
			c0-0.6-0.5-1.1-1.1-1.2c0,0-0.1,0-0.1,0H81c-3.2,0-5.8-2.6-5.8-5.8V80.3c0-3.2,2.6-5.8,5.8-5.8h8.5c0.8,8.4,1.5,20.8,1.3,36.8
			c-0.1,3.8-3.2,6.9-7,6.9H69.9c-0.6,0-1.1,0.5-1.1,1.2c0,0.6,0.5,1,1.1,1.1h13.9c5,0,9.1-4.1,9.2-9.1c0.3-18.9-0.8-32.8-1.7-41.2
			c-0.5-4.7-4.1-8.6-8.8-9.5l-0.7-9.3c-0.2-2.4-1.9-4.3-4-4.6v-6.6h5.1c0.6,0,1.1-0.5,1.2-1.1c0-0.6-0.5-1.1-1.1-1.2
			c0,0-0.1,0-0.1,0H70.3c-0.9,0-1.6-0.7-1.6-1.6s0.7-1.6,1.6-1.6h12.9c1.6,0,2.9,1.3,2.9,2.9V39c0,0.6,0.5,1.1,1.1,1.2
			s1.1-0.5,1.2-1.1c0,0,0-0.1,0-0.1v-1.4c0-2.8-2.3-5.1-5.1-5.1H70.3c-2.1,0-3.8,1.8-3.7,3.9c0,2,1.7,3.7,3.7,3.7h5.4v6.5h-3.2v-3.8
			C72.5,42.2,72,41.7,71.4,41.7z"/>
	</g>
</g>
</svg>
