<?xml version="1.0" encoding="utf-8"?>
<!-- Generator: Adobe Illustrator 24.1.0, SVG Export Plug-In . SVG Version: 6.00 Build 0)  -->
<svg version="1.1" id="Layer_1" xmlns="http://www.w3.org/2000/svg" xmlns:xlink="http://www.w3.org/1999/xlink" x="0px" y="0px"
	 viewBox="0 0 120 150" style="enable-background:new 0 0 120 150;" xml:space="preserve">
<style type="text/css">
	.st0{fill:none;stroke:#FFCFEB;stroke-width:3;stroke-miterlimit:10;}
</style>
<circle class="st0" cx="26.6" cy="38.8" r="65"/>
<g>
	<path d="M33.3,55.1c-4.2,1.1-7.1,5.1-6.7,9.4l3.2,36.9l0,0l0,0l1.7,18.8c0.2,2.5,2.3,4.5,4.9,4.5h26.5c2.6,0,4.7-1.9,4.9-4.5
		l3.6-40.4l0,0l0,0l1.3-15.3c0.4-4.4-2.5-8.4-6.7-9.4c-6.2-1.6-9-5.7-10.2-8.4c1.3-0.8,2.1-2.2,2.1-3.8l0.6-8.6c0,0,0-0.1,0-0.1
		c0-2.5-2-4.5-4.5-4.5h-8.7c-2.5,0-4.5,2-4.5,4.5c0,0,0,0.1,0,0.1l0.6,8.6c0,1.5,0.8,2.9,2.1,3.8C42.3,49.4,39.5,53.4,33.3,55.1z
		 M65.5,119.9c-0.1,1.4-1.2,2.4-2.6,2.4H36.4c-1.4,0-2.5-1-2.6-2.4l-1.1-13.1c1.5,1.2,3.3,1.9,5.2,1.9h23.5c1.9,0,3.8-0.7,5.2-1.9
		L65.5,119.9z M45.7,47.3c0.1,0,0.2,0,0.2,0h1.9c0.6,0,1.1-0.6,1.1-1.2c0-0.6-0.5-1.1-1.1-1.1h-1.9c-1.2,0-2.2-1-2.2-2.2
		c0,0,0-0.1,0-0.1l-0.6-8.6c0-1.2,1-2.2,2.2-2.2H54c1.2,0,2.2,1,2.2,2.2l-0.6,8.6c0,0,0,0.1,0,0.1c0,1.2-1,2.2-2.2,2.2c0,0,0,0,0,0
		h-0.8c-0.6,0-1.2,0.5-1.2,1.1c0,0.6,0.5,1.2,1.1,1.2c0,0,0.1,0,0.1,0h0.8c0.1,0,0.2,0,0.2,0c1.3,3.2,4.5,8.1,11.8,10
		c3.1,0.8,5.3,3.8,5,7L69.8,71c-1.6-3.3-4.1-6-7.4-7.6c-6-3.1-12.1-3-12.8-3c-2.8,0-5.6,0.3-8.2,1.1c-0.6,0.2-0.9,0.8-0.8,1.5
		c0.2,0.6,0.8,0.9,1.4,0.8c2.4-0.7,5-1.1,7.5-1h0.1c0.1,0,6-0.3,11.7,2.7c5.2,2.7,8.2,8.3,7.7,14.1l-1.9,21.6l0,0
		c-0.2,3-2.7,5.3-5.7,5.2H37.9c-3,0-5.5-2.3-5.7-5.2l-1.9-21.6l0,0c-0.4-4.3,1.2-8.6,4.3-11.7c0.5-0.4,0.5-1.2,0-1.6
		c-0.4-0.5-1.2-0.5-1.6,0l0,0c-1.4,1.4-2.6,3-3.4,4.8l-0.6-6.7c-0.3-3.2,1.8-6.2,5-7C41.2,55.4,44.3,50.5,45.7,47.3z"/>
	<path d="M37.3,65.6c0.2,0,0.4,0,0.5-0.1l0.1-0.1c0.6-0.3,0.8-1,0.4-1.6c-0.3-0.5-1-0.7-1.5-0.5l-0.1,0.1c-0.6,0.3-0.8,1-0.5,1.6
		C36.5,65.4,36.9,65.6,37.3,65.6L37.3,65.6z"/>
	<path d="M42.8,86.7c-0.5-0.3-1.3-0.2-1.6,0.4c0,0,0,0,0,0c-0.8,1.2-1.2,2.7-1.2,4.1c0,4.7,4.3,8.5,9.6,8.5s9.6-3.8,9.6-8.5
		c0-4.7-4.3-8.5-9.6-8.5c-1.7,0-3.3,0.4-4.9,1.2c-0.6,0.3-0.8,1-0.6,1.5s1,0.8,1.5,0.6c0,0,0,0,0.1,0c1.2-0.6,2.5-0.9,3.8-0.9
		c4,0,7.3,2.8,7.3,6.2s-3.3,6.2-7.3,6.2s-7.3-2.8-7.3-6.2c0-1,0.3-2,0.8-2.9C43.5,87.8,43.4,87.1,42.8,86.7z"/>
	<path d="M49.7,79.1c2.4,0,4.4-2,4.4-4.4s-2-4.4-4.4-4.4s-4.4,2-4.4,4.4C45.3,77.1,47.3,79.1,49.7,79.1z M49.7,72.6
		c1.1,0,2.1,0.9,2.1,2.1c0,1.1-0.9,2.1-2.1,2.1c-1.1,0-2.1-0.9-2.1-2.1C47.6,73.6,48.5,72.6,49.7,72.6z"/>
	<path d="M38.7,83c2.4,0,4.4-2,4.4-4.4c0-2.4-2-4.4-4.4-4.4c-2.4,0-4.4,2-4.4,4.4C34.3,81.1,36.2,83,38.7,83z M38.7,76.6
		c1.1,0,2.1,0.9,2.1,2.1c0,1.1-0.9,2.1-2.1,2.1c-1.1,0-2.1-0.9-2.1-2.1l0,0C36.6,77.5,37.5,76.6,38.7,76.6L38.7,76.6z"/>
	<path d="M61,83c2.4,0,4.4-2,4.4-4.4c0-2.4-2-4.4-4.4-4.4c-2.4,0-4.4,2-4.4,4.4C56.6,81.1,58.6,83,61,83z M61,76.6
		c1.1,0,2.1,0.9,2.1,2.1c0,1.1-0.9,2.1-2.1,2.1c-1.1,0-2.1-0.9-2.1-2.1l0,0C59,77.5,59.9,76.6,61,76.6L61,76.6z"/>
	<path d="M73.1,42.3c-0.6,0-1.2,0.5-1.2,1.2c0,0,0,0,0,0v4c-2.2,0.4-4,2.4-4.2,4.9c0,0.6,0.4,1.2,1.1,1.2c0.6,0,1.2-0.4,1.2-1.1
		c0.1-1.6,1.3-2.8,2.7-2.8h6.3c1.4,0,2.6,1.2,2.7,2.8l0.7,9.3h-6.2c-0.6,0-1.2,0.5-1.2,1.2s0.5,1.2,1.2,1.2h6.3c4.6,0,8.5,3.5,9,8.1
		c0.1,0.6,0.1,1.3,0.2,2h-8.7c-4.6,0-8.4,3.8-8.4,8.4V102c0,4.6,3.8,8.4,8.4,8.4h5.4c0.6,0,1.2-0.5,1.2-1.1c0-0.6-0.5-1.2-1.1-1.2
		c0,0-0.1,0-0.1,0h-5.4c-3.4,0-6.1-2.7-6.1-6.1V82.7c0-3.4,2.7-6.1,6.1-6.1h8.9c0.8,8.8,1.6,21.8,1.3,38.5c-0.1,4-3.3,7.2-7.3,7.2
		H71.6c-0.6,0-1.1,0.6-1.1,1.2c0,0.6,0.5,1.1,1.1,1.1h14.5c5.3,0,9.6-4.3,9.7-9.5C96.1,95.3,95,80.8,94,72c-0.5-5-4.3-9-9.2-9.9
		l-0.7-9.7c-0.2-2.5-1.9-4.5-4.2-4.9v-6.9h5.4c0.6,0,1.2-0.5,1.2-1.1c0-0.6-0.5-1.2-1.1-1.2c0,0-0.1,0-0.1,0H72
		c-0.9,0-1.7-0.7-1.7-1.7c0-0.9,0.7-1.7,1.7-1.7h13.5c1.7,0,3,1.3,3,3v1.5c0,0.6,0.5,1.2,1.1,1.2c0.6,0,1.2-0.5,1.2-1.1
		c0,0,0-0.1,0-0.1V38c0-2.9-2.4-5.3-5.3-5.3H72c-2.2,0-4,1.9-3.9,4.1c0,2.1,1.8,3.9,3.9,3.9h5.7v6.8h-3.3v-4
		C74.3,42.8,73.8,42.3,73.1,42.3z"/>
</g>
</svg>
