<?xml version="1.0" encoding="utf-8"?>
<!-- Generator: Adobe Illustrator 24.1.0, SVG Export Plug-In . SVG Version: 6.00 Build 0)  -->
<svg version="1.1" id="Layer_1" xmlns="http://www.w3.org/2000/svg" xmlns:xlink="http://www.w3.org/1999/xlink" x="0px" y="0px"
	 viewBox="0 0 120 150" style="enable-background:new 0 0 120 150;" xml:space="preserve">
<style type="text/css">
	.st0{clip-path:url(#SVGID_2_);}
	.st1{clip-path:url(#SVGID_4_);}
	.st2{fill:#FFCFEB;}
	.st3{clip-path:url(#SVGID_6_);fill:none;stroke:#FFCFEB;stroke-width:3;stroke-miterlimit:10;}
	.st4{clip-path:url(#SVGID_8_);}
</style>
<g>
	<g>
		<defs>
			<rect id="SVGID_1_" y="0" width="120" height="150"/>
		</defs>
		<clipPath id="SVGID_2_">
			<use xlink:href="#SVGID_1_"  style="overflow:visible;"/>
		</clipPath>
		<g class="st0">
			<g>
				<defs>
					<rect id="SVGID_3_" x="44.5" y="88.7" width="82.5" height="89.2"/>
				</defs>
				<clipPath id="SVGID_4_">
					<use xlink:href="#SVGID_3_"  style="overflow:visible;"/>
				</clipPath>
				<g class="st1">
					<path class="st2" d="M47.8,101h6.6c0.6,0,1.1-0.5,1.1-1.1l0,0c0-0.6-0.5-1.1-1.1-1.1h-6.6c-0.6,0-1.1,0.5-1.1,1.1l0,0
						C46.7,100.5,47.2,101,47.8,101z"/>
					<path class="st2" d="M47.8,81.7h6.6c0.6,0,1.1-0.5,1.1-1.1l0,0c0-0.6-0.5-1.1-1.1-1.1h-6.6c-0.6,0-1.1,0.5-1.1,1.1l0,0
						C46.7,81.2,47.2,81.7,47.8,81.7z"/>
					<path class="st2" d="M47.8,120.2h6.6c0.6,0,1.1-0.5,1.1-1.1l0,0c0-0.6-0.5-1.1-1.1-1.1h-6.6c-0.6,0-1.1,0.5-1.1,1.1l0,0
						C46.7,119.7,47.2,120.2,47.8,120.2z"/>
					<path class="st2" d="M47.8,139.4h6.6c0.6,0,1.1-0.5,1.1-1.1l0,0c0-0.6-0.5-1.1-1.1-1.1h-6.6c-0.6,0-1.1,0.5-1.1,1.1l0,0
						C46.7,138.9,47.2,139.4,47.8,139.4z"/>
					<path class="st2" d="M47.8,158.6h6.6c0.6,0,1.1-0.5,1.1-1.1l0,0c0-0.6-0.5-1.1-1.1-1.1h-6.6c-0.6,0-1.1,0.5-1.1,1.1l0,0
						C46.7,158.1,47.2,158.6,47.8,158.6z"/>
					<path class="st2" d="M47.8,177.9h6.6c0.6,0,1.1-0.5,1.1-1.1l0,0c0-0.6-0.5-1.1-1.1-1.1h-6.6c-0.6,0-1.1,0.5-1.1,1.1l0,0
						C46.7,177.4,47.2,177.9,47.8,177.9z"/>
					<path class="st2" d="M47.8,197.1h6.6c0.6,0,1.1-0.5,1.1-1.1l0,0c0-0.6-0.5-1.1-1.1-1.1h-6.6c-0.6,0-1.1,0.5-1.1,1.1l0,0
						C46.7,196.6,47.2,197.1,47.8,197.1z"/>
					<path class="st2" d="M47.8,216.3h6.6c0.6,0,1.1-0.5,1.1-1.1l0,0c0-0.6-0.5-1.1-1.1-1.1h-6.6c-0.6,0-1.1,0.5-1.1,1.1l0,0
						C46.7,215.8,47.2,216.3,47.8,216.3z"/>
					<path class="st2" d="M47.8,235.5h6.6c0.6,0,1.1-0.5,1.1-1.1l0,0c0-0.6-0.5-1.1-1.1-1.1h-6.6c-0.6,0-1.1,0.5-1.1,1.1l0,0
						C46.7,235,47.2,235.5,47.8,235.5z"/>
					<path class="st2" d="M69.2,110.9h6.6c0.6,0,1.1-0.5,1.1-1.1l0,0c0-0.6-0.5-1.1-1.1-1.1h-6.6c-0.6,0-1.1,0.5-1.1,1.1l0,0
						C68,110.4,68.5,110.9,69.2,110.9z"/>
					<path class="st2" d="M69.2,91.6h6.6c0.6,0,1.1-0.5,1.1-1.1l0,0c0-0.6-0.5-1.1-1.1-1.1h-6.6c-0.6,0-1.1,0.5-1.1,1.1l0,0
						C68,91.1,68.5,91.6,69.2,91.6z"/>
					<path class="st2" d="M69.2,130.1h6.6c0.6,0,1.1-0.5,1.1-1.1l0,0c0-0.6-0.5-1.1-1.1-1.1h-6.6c-0.6,0-1.1,0.5-1.1,1.1l0,0
						C68,129.6,68.5,130.1,69.2,130.1z"/>
					<path class="st2" d="M69.2,149.3h6.6c0.6,0,1.1-0.5,1.1-1.1l0,0c0-0.6-0.5-1.1-1.1-1.1h-6.6c-0.6,0-1.1,0.5-1.1,1.1l0,0
						C68,148.8,68.5,149.3,69.2,149.3z"/>
					<path class="st2" d="M69.2,168.5h6.6c0.6,0,1.1-0.5,1.1-1.1l0,0c0-0.6-0.5-1.1-1.1-1.1h-6.6c-0.6,0-1.1,0.5-1.1,1.1l0,0
						C68,168,68.5,168.5,69.2,168.5z"/>
					<path class="st2" d="M69.2,187.8h6.6c0.6,0,1.1-0.5,1.1-1.1l0,0c0-0.6-0.5-1.1-1.1-1.1h-6.6c-0.6,0-1.1,0.5-1.1,1.1l0,0
						C68,187.2,68.5,187.8,69.2,187.8z"/>
					<path class="st2" d="M69.2,207h6.6c0.6,0,1.1-0.5,1.1-1.1l0,0c0-0.6-0.5-1.1-1.1-1.1h-6.6c-0.6,0-1.1,0.5-1.1,1.1l0,0
						C68,206.5,68.5,207,69.2,207z"/>
					<path class="st2" d="M69.2,226.2h6.6c0.6,0,1.1-0.5,1.1-1.1l0,0c0-0.6-0.5-1.1-1.1-1.1h-6.6c-0.6,0-1.1,0.5-1.1,1.1l0,0
						C68,225.7,68.5,226.2,69.2,226.2z"/>
					<path class="st2" d="M69.2,245.4h6.6c0.6,0,1.1-0.5,1.1-1.1l0,0c0-0.6-0.5-1.1-1.1-1.1h-6.6c-0.6,0-1.1,0.5-1.1,1.1l0,0
						C68,244.9,68.5,245.4,69.2,245.4z"/>
					<path class="st2" d="M90.5,101h6.6c0.6,0,1.1-0.5,1.1-1.1l0,0c0-0.6-0.5-1.1-1.1-1.1h-6.6c-0.6,0-1.1,0.5-1.1,1.1l0,0
						C89.4,100.5,89.9,101,90.5,101z"/>
					<path class="st2" d="M90.5,81.7h6.6c0.6,0,1.1-0.5,1.1-1.1l0,0c0-0.6-0.5-1.1-1.1-1.1h-6.6c-0.6,0-1.1,0.5-1.1,1.1l0,0
						C89.4,81.2,89.9,81.7,90.5,81.7z"/>
					<path class="st2" d="M90.5,120.2h6.6c0.6,0,1.1-0.5,1.1-1.1l0,0c0-0.6-0.5-1.1-1.1-1.1h-6.6c-0.6,0-1.1,0.5-1.1,1.1l0,0
						C89.4,119.7,89.9,120.2,90.5,120.2z"/>
					<path class="st2" d="M90.5,139.4h6.6c0.6,0,1.1-0.5,1.1-1.1l0,0c0-0.6-0.5-1.1-1.1-1.1h-6.6c-0.6,0-1.1,0.5-1.1,1.1l0,0
						C89.4,138.9,89.9,139.4,90.5,139.4z"/>
					<path class="st2" d="M90.5,158.6h6.6c0.6,0,1.1-0.5,1.1-1.1l0,0c0-0.6-0.5-1.1-1.1-1.1h-6.6c-0.6,0-1.1,0.5-1.1,1.1l0,0
						C89.4,158.1,89.9,158.6,90.5,158.6z"/>
					<path class="st2" d="M90.5,177.9h6.6c0.6,0,1.1-0.5,1.1-1.1l0,0c0-0.6-0.5-1.1-1.1-1.1h-6.6c-0.6,0-1.1,0.5-1.1,1.1l0,0
						C89.4,177.4,89.9,177.9,90.5,177.9z"/>
					<path class="st2" d="M90.5,197.1h6.6c0.6,0,1.1-0.5,1.1-1.1l0,0c0-0.6-0.5-1.1-1.1-1.1h-6.6c-0.6,0-1.1,0.5-1.1,1.1l0,0
						C89.4,196.6,89.9,197.1,90.5,197.1z"/>
					<path class="st2" d="M90.5,216.3h6.6c0.6,0,1.1-0.5,1.1-1.1l0,0c0-0.6-0.5-1.1-1.1-1.1h-6.6c-0.6,0-1.1,0.5-1.1,1.1l0,0
						C89.4,215.8,89.9,216.3,90.5,216.3z"/>
					<path class="st2" d="M90.5,235.5h6.6c0.6,0,1.1-0.5,1.1-1.1l0,0c0-0.6-0.5-1.1-1.1-1.1h-6.6c-0.6,0-1.1,0.5-1.1,1.1l0,0
						C89.4,235,89.9,235.5,90.5,235.5z"/>
					<path class="st2" d="M111.8,110.9h6.6c0.6,0,1.1-0.5,1.1-1.1l0,0c0-0.6-0.5-1.1-1.1-1.1h-6.6c-0.6,0-1.1,0.5-1.1,1.1l0,0
						C110.7,110.4,111.2,110.9,111.8,110.9z"/>
					<path class="st2" d="M111.8,91.6h6.6c0.6,0,1.1-0.5,1.1-1.1l0,0c0-0.6-0.5-1.1-1.1-1.1h-6.6c-0.6,0-1.1,0.5-1.1,1.1l0,0
						C110.7,91.1,111.2,91.6,111.8,91.6z"/>
					<path class="st2" d="M111.8,130.1h6.6c0.6,0,1.1-0.5,1.1-1.1l0,0c0-0.6-0.5-1.1-1.1-1.1h-6.6c-0.6,0-1.1,0.5-1.1,1.1l0,0
						C110.7,129.6,111.2,130.1,111.8,130.1z"/>
					<path class="st2" d="M111.8,149.3h6.6c0.6,0,1.1-0.5,1.1-1.1l0,0c0-0.6-0.5-1.1-1.1-1.1h-6.6c-0.6,0-1.1,0.5-1.1,1.1l0,0
						C110.7,148.8,111.2,149.3,111.8,149.3z"/>
					<path class="st2" d="M111.8,168.5h6.6c0.6,0,1.1-0.5,1.1-1.1l0,0c0-0.6-0.5-1.1-1.1-1.1h-6.6c-0.6,0-1.1,0.5-1.1,1.1l0,0
						C110.7,168,111.2,168.5,111.8,168.5z"/>
					<path class="st2" d="M111.8,187.8h6.6c0.6,0,1.1-0.5,1.1-1.1l0,0c0-0.6-0.5-1.1-1.1-1.1h-6.6c-0.6,0-1.1,0.5-1.1,1.1l0,0
						C110.7,187.2,111.2,187.8,111.8,187.8z"/>
					<path class="st2" d="M111.8,207h6.6c0.6,0,1.1-0.5,1.1-1.1l0,0c0-0.6-0.5-1.1-1.1-1.1h-6.6c-0.6,0-1.1,0.5-1.1,1.1l0,0
						C110.7,206.5,111.2,207,111.8,207z"/>
					<path class="st2" d="M111.8,226.2h6.6c0.6,0,1.1-0.5,1.1-1.1l0,0c0-0.6-0.5-1.1-1.1-1.1h-6.6c-0.6,0-1.1,0.5-1.1,1.1l0,0
						C110.7,225.7,111.2,226.2,111.8,226.2z"/>
					<path class="st2" d="M111.8,245.4h6.6c0.6,0,1.1-0.5,1.1-1.1l0,0c0-0.6-0.5-1.1-1.1-1.1h-6.6c-0.6,0-1.1,0.5-1.1,1.1l0,0
						C110.7,244.9,111.2,245.4,111.8,245.4z"/>
					<path class="st2" d="M133.1,101h6.6c0.6,0,1.1-0.5,1.1-1.1l0,0c0-0.6-0.5-1.1-1.1-1.1h-6.6c-0.6,0-1.1,0.5-1.1,1.1l0,0
						C132,100.5,132.5,101,133.1,101z"/>
					<path class="st2" d="M133.1,81.7h6.6c0.6,0,1.1-0.5,1.1-1.1l0,0c0-0.6-0.5-1.1-1.1-1.1h-6.6c-0.6,0-1.1,0.5-1.1,1.1l0,0
						C132,81.2,132.5,81.7,133.1,81.7z"/>
					<path class="st2" d="M133.1,120.2h6.6c0.6,0,1.1-0.5,1.1-1.1l0,0c0-0.6-0.5-1.1-1.1-1.1h-6.6c-0.6,0-1.1,0.5-1.1,1.1l0,0
						C132,119.7,132.5,120.2,133.1,120.2z"/>
					<path class="st2" d="M133.1,139.4h6.6c0.6,0,1.1-0.5,1.1-1.1l0,0c0-0.6-0.5-1.1-1.1-1.1h-6.6c-0.6,0-1.1,0.5-1.1,1.1l0,0
						C132,138.9,132.5,139.4,133.1,139.4z"/>
					<path class="st2" d="M133.1,158.6h6.6c0.6,0,1.1-0.5,1.1-1.1l0,0c0-0.6-0.5-1.1-1.1-1.1h-6.6c-0.6,0-1.1,0.5-1.1,1.1l0,0
						C132,158.1,132.5,158.6,133.1,158.6z"/>
					<path class="st2" d="M133.1,177.9h6.6c0.6,0,1.1-0.5,1.1-1.1l0,0c0-0.6-0.5-1.1-1.1-1.1h-6.6c-0.6,0-1.1,0.5-1.1,1.1l0,0
						C132,177.4,132.5,177.9,133.1,177.9z"/>
					<path class="st2" d="M133.1,197.1h6.6c0.6,0,1.1-0.5,1.1-1.1l0,0c0-0.6-0.5-1.1-1.1-1.1h-6.6c-0.6,0-1.1,0.5-1.1,1.1l0,0
						C132,196.6,132.5,197.1,133.1,197.1z"/>
					<path class="st2" d="M133.1,216.3h6.6c0.6,0,1.1-0.5,1.1-1.1l0,0c0-0.6-0.5-1.1-1.1-1.1h-6.6c-0.6,0-1.1,0.5-1.1,1.1l0,0
						C132,215.8,132.5,216.3,133.1,216.3z"/>
					<path class="st2" d="M133.1,235.5h6.6c0.6,0,1.1-0.5,1.1-1.1l0,0c0-0.6-0.5-1.1-1.1-1.1h-6.6c-0.6,0-1.1,0.5-1.1,1.1l0,0
						C132,235,132.5,235.5,133.1,235.5z"/>
					<path class="st2" d="M154.5,110.9h6.6c0.6,0,1.1-0.5,1.1-1.1l0,0c0-0.6-0.5-1.1-1.1-1.1h-6.6c-0.6,0-1.1,0.5-1.1,1.1l0,0
						C153.3,110.4,153.9,110.9,154.5,110.9z"/>
					<path class="st2" d="M154.5,91.6h6.6c0.6,0,1.1-0.5,1.1-1.1l0,0c0-0.6-0.5-1.1-1.1-1.1h-6.6c-0.6,0-1.1,0.5-1.1,1.1l0,0
						C153.3,91.1,153.9,91.6,154.5,91.6z"/>
					<path class="st2" d="M154.5,130.1h6.6c0.6,0,1.1-0.5,1.1-1.1l0,0c0-0.6-0.5-1.1-1.1-1.1h-6.6c-0.6,0-1.1,0.5-1.1,1.1l0,0
						C153.3,129.6,153.9,130.1,154.5,130.1z"/>
					<path class="st2" d="M154.5,149.3h6.6c0.6,0,1.1-0.5,1.1-1.1l0,0c0-0.6-0.5-1.1-1.1-1.1h-6.6c-0.6,0-1.1,0.5-1.1,1.1l0,0
						C153.3,148.8,153.9,149.3,154.5,149.3z"/>
					<path class="st2" d="M154.5,168.5h6.6c0.6,0,1.1-0.5,1.1-1.1l0,0c0-0.6-0.5-1.1-1.1-1.1h-6.6c-0.6,0-1.1,0.5-1.1,1.1l0,0
						C153.3,168,153.9,168.5,154.5,168.5z"/>
					<path class="st2" d="M154.5,187.8h6.6c0.6,0,1.1-0.5,1.1-1.1l0,0c0-0.6-0.5-1.1-1.1-1.1h-6.6c-0.6,0-1.1,0.5-1.1,1.1l0,0
						C153.3,187.2,153.9,187.8,154.5,187.8z"/>
					<path class="st2" d="M154.5,207h6.6c0.6,0,1.1-0.5,1.1-1.1l0,0c0-0.6-0.5-1.1-1.1-1.1h-6.6c-0.6,0-1.1,0.5-1.1,1.1l0,0
						C153.3,206.5,153.9,207,154.5,207z"/>
					<path class="st2" d="M154.5,226.2h6.6c0.6,0,1.1-0.5,1.1-1.1l0,0c0-0.6-0.5-1.1-1.1-1.1h-6.6c-0.6,0-1.1,0.5-1.1,1.1l0,0
						C153.3,225.7,153.9,226.2,154.5,226.2z"/>
					<path class="st2" d="M154.5,245.4h6.6c0.6,0,1.1-0.5,1.1-1.1l0,0c0-0.6-0.5-1.1-1.1-1.1h-6.6c-0.6,0-1.1,0.5-1.1,1.1l0,0
						C153.3,244.9,153.9,245.4,154.5,245.4z"/>
				</g>
			</g>
		</g>
	</g>
	<g>
		<defs>
			<rect id="SVGID_5_" y="0" width="120" height="150"/>
		</defs>
		<clipPath id="SVGID_6_">
			<use xlink:href="#SVGID_5_"  style="overflow:visible;"/>
		</clipPath>
		<circle class="st3" cx="-37.7" cy="50.5" r="60.3"/>
	</g>
	<g>
		<defs>
			<rect id="SVGID_7_" y="0" width="120" height="150"/>
		</defs>
		<clipPath id="SVGID_8_">
			<use xlink:href="#SVGID_7_"  style="overflow:visible;"/>
		</clipPath>
		<g class="st4">
			<path d="M35,55.2c-3.8,0.9-6.4,4.6-6,8.4l2.9,33.1l0,0l0,0l1.5,16.8c0.2,2.2,2.1,4,4.4,4h23.8c2.2,0,4.2-1.8,4.4-4l3.2-36.2l0,0
				l0,0l1.1-13.7c0.4-3.9-2.2-7.5-6-8.4c-5.5-1.5-8.1-5.1-9.1-7.6c1.1-0.7,1.9-2,1.9-3.4l0.6-7.8c0,0,0,0,0-0.1c0-2.2-1.8-4-4-4
				h-7.8c-2.2,0-4,1.8-4,4c0,0,0,0,0,0.1l0.6,7.8c0,1.4,0.7,2.6,1.9,3.4C43,50.2,40.5,53.8,35,55.2z M63.8,113.3
				c-0.1,1.2-1.1,2.2-2.3,2.2H37.8c-1.2,0-2.2-0.9-2.3-2.2l-1-11.7c1.3,1.1,3,1.7,4.7,1.7h21.1c1.7,0,3.4-0.6,4.7-1.7L63.8,113.3z
				 M46.1,48.3c0.1,0,0.1,0,0.2,0H48c0.6,0,1-0.5,1-1.1c0-0.6-0.5-0.9-1-1h-1.7c-1.1,0-2-0.8-2-2c0,0,0,0,0-0.1l-0.6-7.8
				c0-1,0.9-2,2-2h7.8c1,0,2,0.8,2,2l-0.6,7.8c0,0,0,0,0,0.1c0,1.1-0.8,2-2,2l0,0h-0.7c-0.6,0-1,0.5-1.1,1c0,0.6,0.5,1,1,1.1h0.1H53
				c0.1,0,0.1,0,0.2,0c1.2,2.8,4,7.2,10.6,8.9c2.8,0.7,4.7,3.4,4.5,6.3l-0.6,6c-1.4-2.9-3.7-5.3-6.6-6.8C55.7,59.9,50.3,60,49.7,60
				c-2.5,0-5,0.3-7.4,1c-0.6,0.2-0.8,0.7-0.7,1.3c0.2,0.6,0.7,0.8,1.2,0.7c2.2-0.7,4.5-0.9,6.7-0.9h0.1c0.1,0,5.3-0.3,10.5,2.4
				c4.7,2.4,7.4,7.4,6.8,12.7l-1.7,19.4l0,0c-0.2,2.6-2.4,4.7-5.2,4.7H39.1c-2.7,0-4.9-2.1-5.2-4.7l-1.7-19.3l0,0
				c-0.4-3.9,1-7.8,3.8-10.5c0.4-0.4,0.4-1,0-1.5c-0.4-0.4-1-0.4-1.5,0l0,0c-1.3,1.2-2.3,2.7-3.1,4.3l-0.6-6
				c-0.3-2.9,1.7-5.5,4.5-6.3C42,55.5,44.9,51.2,46.1,48.3z"/>
			<path d="M38.5,64.7c0.2,0,0.4,0,0.5-0.1l0.1-0.1c0.5-0.3,0.7-0.9,0.4-1.4c-0.3-0.5-0.8-0.7-1.4-0.5L38,62.7
				c-0.5,0.3-0.7,0.9-0.5,1.4C37.8,64.5,38.2,64.7,38.5,64.7L38.5,64.7z"/>
			<path d="M43.5,83.6c-0.5-0.3-1.1-0.2-1.4,0.3l0,0c-0.7,1.1-1,2.3-1.1,3.7c0,4.2,3.8,7.6,8.6,7.6s8.6-3.5,8.6-7.6
				c0-4.2-3.8-7.6-8.6-7.6c-1.5,0-3,0.4-4.3,1c-0.6,0.3-0.7,0.8-0.5,1.4c0.3,0.6,0.8,0.7,1.4,0.5c0,0,0,0,0.1,0
				c1-0.6,2.2-0.8,3.4-0.8c3.7,0,6.6,2.5,6.6,5.5c0,3.1-2.9,5.5-6.6,5.5c-3.7,0-6.6-2.5-6.6-5.5c0-0.9,0.3-1.8,0.7-2.6
				C44.2,84.6,44.1,83.9,43.5,83.6z"/>
			<path d="M49.7,76.8c2.2,0,3.9-1.8,3.9-3.9c0-2.2-1.8-3.9-3.9-3.9c-2.2,0-3.9,1.8-3.9,3.9S47.5,76.8,49.7,76.8z M49.7,71
				c1,0,1.9,0.8,1.9,1.9c0,1-0.8,1.9-1.9,1.9s-1.9-0.8-1.9-1.9C47.8,71.8,48.7,71,49.7,71z"/>
			<path d="M39.7,80.2c2.2,0,3.9-1.8,3.9-3.9c0-2.2-1.8-3.9-3.9-3.9c-2.2,0-3.9,1.8-3.9,3.9C35.9,78.6,37.6,80.2,39.7,80.2z
				 M39.7,74.5c1,0,1.9,0.8,1.9,1.9c0,1-0.8,1.9-1.9,1.9s-1.9-0.8-1.9-1.9l0,0C38,75.4,38.8,74.5,39.7,74.5L39.7,74.5z"/>
			<path d="M59.8,80.2c2.2,0,3.9-1.8,3.9-3.9c0-2.2-1.8-3.9-3.9-3.9c-2.2,0-3.9,1.8-3.9,3.9C55.9,78.6,57.7,80.2,59.8,80.2z
				 M59.8,74.5c1,0,1.9,0.8,1.9,1.9c0,1-0.8,1.9-1.9,1.9s-1.9-0.8-1.9-1.9l0,0C57.9,75.4,58.8,74.5,59.8,74.5L59.8,74.5z"/>
			<path d="M70.7,43.8c-0.6,0-1,0.5-1,1l0,0v3.7c-2,0.4-3.6,2.2-3.7,4.3c0,0.6,0.4,1,0.9,1.1c0.6,0,1-0.4,1.1-0.9
				c0.1-1.4,1.1-2.5,2.4-2.5H76c1.2,0,2.3,1.1,2.4,2.5l0.6,8.3h-5.5c-0.6,0-1,0.5-1,1s0.5,1,1,1h5.7c4.1,0,7.6,3.1,8.1,7.2
				c0.1,0.6,0.1,1.1,0.2,1.8h-7.8c-4.1,0-7.5,3.4-7.5,7.5v17.2c0,4.1,3.4,7.5,7.5,7.5h4.8c0.6,0,1-0.5,1.1-1c0-0.6-0.5-1-1-1.1h-0.1
				h-4.8c-3,0-5.4-2.4-5.4-5.4V80c0-3,2.4-5.4,5.4-5.4h8c0.7,7.9,1.4,19.5,1.2,34.5c-0.1,3.6-3,6.5-6.6,6.5h-13c-0.6,0-1,0.5-1,1.1
				c0,0.6,0.5,0.9,1,1h13c4.7,0,8.5-3.8,8.6-8.5c0.3-17.7-0.7-30.7-1.6-38.6c-0.5-4.4-3.8-8.1-8.2-8.9l-0.7-8.7
				c-0.2-2.2-1.8-4-3.7-4.3v-6.2h4.8c0.6,0,1-0.5,1.1-1c0-0.6-0.5-1-1-1.1h-0.1H69.7c-0.8,0-1.5-0.7-1.5-1.5s0.7-1.5,1.5-1.5h12.1
				c1.5,0,2.7,1.2,2.7,2.7v1.3c0,0.6,0.5,1,1,1.1c0.6,0.1,1-0.5,1.1-1v-0.1v-1.3c0-2.6-2.2-4.8-4.8-4.8H69.7c-2,0-3.6,1.7-3.5,3.7
				c0,1.9,1.6,3.5,3.5,3.5h5.1v6.1h-3v-3.6C71.7,44.3,71.2,43.8,70.7,43.8z"/>
		</g>
	</g>
</g>
</svg>
