<?xml version="1.0" encoding="utf-8"?>
<!-- Generator: Adobe Illustrator 24.1.0, SVG Export Plug-In . SVG Version: 6.00 Build 0)  -->
<svg version="1.1" id="_x2014_ÎÓÈ_x5F_1" xmlns="http://www.w3.org/2000/svg" xmlns:xlink="http://www.w3.org/1999/xlink"
	 x="0px" y="0px" viewBox="0 0 4125 2500" style="enable-background:new 0 0 4125 2500;" xml:space="preserve">
<style type="text/css">
	.st0{fill:#DABBF2;}
	.st1{fill:#F9D4E0;}
	.st2{fill:#B3CBE7;}
	.st3{fill:#ACE0ED;}
	.st4{fill:#FDFD38;}
	.st5{fill:none;}
</style>
<path class="st0" d="M345.9,593.4c-1.3-2.6-3.8-4.4-5.1-7.1c-3.3-6.8-5.5-13.8-6.3-21.4c-1.1-10-0.8-20.1-2.2-30
	c-1-7.4-2.5-14.7-3.8-22c-0.7-4.1-1.5-8.2-2.5-12.3c-0.8-3.3-2-6.6-4.1-9.4c-0.8-1.2-0.8-2.9-1.5-4.3c-2.8-5.5-6.8-10.1-10.2-15.2
	c-3.9-5.6-6.8-11.8-10-17.8c-2-3.7-4.7-6.9-7.5-10c-5.9-6.5-12.1-12.9-18.7-18.7c-6.5-5.8-13.5-11.1-20.1-16.7
	c-4.7-4-10-7.2-15.1-10.7c-0.8-0.6-1.7-1.1-2.8-1c-0.3-0.8-1.1-1-1.7-1.4c-4.4-3.3-9.4-5.2-14.1-7.9c-4.8-2.8-9.7-5-14.8-6.9
	c-5.8-2.2-11.7-4.4-17.5-6.9c0,0.2,0,0.4,0,0.6c0-0.2,0-0.4,0-0.6c-0.7-0.6-1.5-0.8-2.4-0.9c-1-0.2-1.7-1.1-2.7-1
	c-0.4-0.4-0.9-0.4-1.3-0.5c-1.8-1.4-4-2.1-6.2-2.7c-0.2,0-0.3,0-0.5,0c-1.8-1-3.8-1.8-5.5-3c-10-6.3-19.9-12.8-30.9-17.3
	c-5.6-2.3-11.1-5-17.1-6.4c-0.6-0.8-1.5-0.8-2.3-0.9c-0.3-0.1-0.6-0.2-0.9-0.3c-1.3-0.5-2.6-1.1-3.9-1.4c-9-1.9-17.9-3.9-27-5.7
	c-10-1.9-20-3.8-30.1-5.2c-4-0.6-8.1-1.2-12.1-1.8c-4.8-0.4-9.6-1.3-14.4-1.5c0,0.3,0.1,0.6,0.2,0.8c-0.1-0.2-0.2-0.5-0.2-0.8
	c-2.7-0.9-5.6-1-8.4-1.3c-3.3,0-6.5-0.9-9.8-0.7c-0.5-0.1-0.9-0.2-1.4-0.3c-1,0-2,0-3,0c1,0,2,0,3,0c0-0.2,0-0.3,0-0.5
	c-2.3,0-4.7,0-7,0c-1.4,0-2.8,0-4.2,0c-1.7,0-3.4,0-5.1,0c0,0.2,0,0.3,0.1,0.5c-0.3,0.1-0.7,0.3-1,0.4c-1.3,0.2-3-0.5-3.7,1.4
	c-0.3,0-0.6,0-0.9,0c-0.3,0-0.6,0-0.9,0c-3.3,0.8-6.5,1.6-9.8,2.3c-2.7,0.3-5.3,0.7-8,1c-3.9,0.4-7.8,0.9-11.7,1.3
	c-0.6,0.1-1.2,0.3-1.8,0.4c0.1,0.5,0.2,1.1,0.3,1.6c-0.1-0.5-0.2-1.1-0.3-1.6c-1.8-0.1-3.5,0.1-5.2,0.8c-4.8,0.6-9.5,1.7-13.9,3.8
	c-0.5,0-1,0-1.4,0.4c-4.7,1-9.1,2.8-13.5,4.6c-1.8,0.7-3.4,1.6-5.2,2.4c-0.3,0.1-0.6,0.3-0.9,0.4c-2.6,0.7-5,1.8-7.4,2.9
	c-1.3,0.3-2.3,1-3.3,1.8c-3.2,0.1-6.1,1.3-8.9,2.8l-0.2,0l-0.2,0c0,0.2-0.1,0.5-0.1,0.7c0-0.2,0.1-0.5,0.1-0.7
	c-1.8,0.3-3.7,0.7-5.5,1c-1.7,0.5-3.5,0.3-5.2,0.4c-1.6,0.1-3.1,0.3-4.7,0.4c-0.3,0-0.6,0-0.9,0c-0.1,0.5-0.3,1-0.5,1.5
	c0.2-0.5,0.4-1,0.5-1.5c-3.4,0.2-6.6,1.1-9.8,2.4c-0.5,0.3-1,0.5-1.4,0.8c-4.3,0.7-7.7,3.1-10.7,6.1c-1.7,1.1-3.4,2.1-4.6,3.7
	c1.3,0.2,1.8,0.8,2.2,1.5c-0.3-0.8-0.9-1.4-2.2-1.5c-2.4,1-4.9,1.7-7,3.3c-2,0.3-3.7,1.3-5.2,2.7c0.6,0.4,1.1,0.8,1.7,1
	c-0.6-0.2-1.1-0.6-1.7-1c-4,2-6.3,5.8-9.2,9c-1.5,2.1-4.4,3.1-5.2,5.9c-2.3,1.5-4.2,3.3-5.6,5.7c-1,0-1.4,0.7-1.9,1.4
	c-3.1,2.5-6.2,5-9.3,7.4c0.3,0.2,0.5,0.3,0.6,0.5c-0.1-0.2-0.3-0.4-0.6-0.5c-2.1,1.6-4.3,3.1-6,5.2c-3.6,2.3-7,4.7-9.3,8.3
	c-1.2,0.4-2,1.1-2.4,2.4c-3.4,3.1-6.8,6.2-9.3,10.2c-1.2,0.6-1.9,1.6-2.3,2.8c0.2,0,0.5,0,0.7,0.1c-0.2,0-0.5,0-0.7-0.1
	c-2.2,2-4.2,4.3-5.5,7c-1.9,1-2.8,2.9-3.8,4.6c-1.6,2.2-3.3,4.3-4.7,6.5c-0.8,1.3-2,2.4-1.8,4.2c-2.5,2.3-4,5.2-5.2,8.3
	c0.1,0.3,0.4,0.5,0.6,0.8c-0.2-0.3-0.5-0.5-0.6-0.8c-0.6,0.4-0.9,1.1-1.2,1.7c-3.3,6.5-6.5,13.1-9.4,19.8c-0.9,2.1-1.1,4.5-2.8,6.3
	c-2.4,2.5-4.9,4.9-6.8,7.8c-1.6,2.3-3.7,4.4-4.3,7.3c-1.1,2-0.4,4.1-0.5,6.1c0.1,2.5-0.3,4.9-1,7.3c-0.5,1.8-1.1,3.7-1.4,5.6
	c-0.8,5.5-1.3,11.1-3.2,16.3c-1.7,4.8-2.8,9.6-3.7,14.5c-1.4,7.4-1.8,14.9-4.1,22.2c-1.9,6.1-3.8,12.2-5.1,18.4
	c-1.2,6-2.8,12.1-2.5,18.3c0.4,9-1.5,17.8-1.8,26.8c-0.1,0.9-0.3,1.9-0.4,2.8c0.5,1.2-0.7,2.1-0.5,3.3c-1.2,3.1-1.3,6.5-1.3,9.7
	c-0.2,7-1.5,13.8-2.3,20.7c-0.1,1.2,0.3,2.5-0.6,3.6c0,2,0,4,0,6.1c0,0.6,0,1.2,0,1.9c0,6.5,0,13,0,19.6c0,0.9,0,1.9,0,2.8
	c0,0.9,0,1.9,0,2.8c0,1.4,0,2.8,0,4.2c0,1.7,0,3.4,0,5.1c0,12.6,0,25.1,0,37.7c1,4.9,3.3,9.4,5.2,13.9c0.2,0,0.3-0.1,0.4-0.1
	c-0.1,0.1-0.3,0.1-0.4,0.1c0.3,0.9,0.5,1.8,0.9,2.6c1.3,2.7,2.2,5.7,4.7,7.7c-0.4,4.2,2.3,7.3,4.1,10.7c0.1,0.8,0.5,1.3,1.4,1.4
	c0.4-0.3,0.4-0.8,0.6-1.2c-0.2,0.4-0.1,0.9-0.6,1.2c0.1,0.6-0.1,1.4,0.5,1.9c0.5,2.9,2.3,5,4.3,7c0.3,0.9,0.6,1.7,0.8,2.6
	c1.6,7,4.5,13.5,7,20.2c0,0.2,0,0.3,0,0.5c-0.1,5.9,0.4,11.9,3.5,17.1c3.1,5.2,6.8,10.1,10.5,15c7.1,9.4,15.5,17.8,23.4,26.6
	c5.5,6.1,12,11.2,18.6,16c2,1.5,3.8,3.5,6.4,4.1c3,3.1,6.9,4.9,10.3,7.4c1.7,1.2,3.3,2.8,5.5,3.3c0.5,1.3,1.7,1.4,2.8,1.9
	c-0.4-0.9-0.9-1.9-1-2.9c0.2,1,0.6,2,1,2.9c1,1.3,2.3,2,3.7,2.7c7.2,5.8,14.6,11.2,22.4,16.1c2.4,1.5,4.5,3.8,7.7,4
	c2.7,3.8,7.3,4.8,10.9,7.1c1.8,1.2,3.9,2.2,6.1,2.7c1.2,0.9,2.6,1.7,4.1,2c2.1,1.2,4.3,1.9,6.6,2.7c2.2,1,4.5,1.7,7,2
	c2.6,0.6,5.1,1.7,7.9,1.4c1.7,0.8,3.5,1.2,5.3,1.3c8.7,0.4,17.5,0.1,26.2-0.4c6.3-0.4,12.6,0.4,18.8,1.2c4.3,0.6,8.7,1.1,13,1.7
	c6.4,1,12.7,1.3,19.1,1.4c1.5,0.2,3,0,4.4,0c-1.5,0-3,0.2-4.4,0c0,0.2,0,0.3-0.1,0.5c2.6,0,5.3,0,7.9,0c5.1,0,10.2,0,15.4,0
	c1.7,0,3.4,0,5.1,0c2-0.7,4-0.7,6.1-1c6.4-0.7,12.9-1.3,19.3-2c4.3-0.4,8.6-0.8,12.9-1.3c9.7-1,19.3-2.4,28.5-5.9
	c0.3-0.1,0.5-0.3,0.7-0.5c0.7,0,1.4,0.1,1.9-0.5c1.8-0.1,3.4-0.9,5.1-1.4c2.9-0.5,5.6-1.7,8.2-2.9c3.3-1.5,7-2.3,10-4.5
	c1.5-0.7,3.2-0.9,4.2-2.3c1,0.1,1.8-0.3,2.7-0.7c2.7-1.4,5.4-2.8,7.9-4.4c4-2.6,8.5-4.4,12.3-7.4c0.3-0.2,0.6-0.4,0.9-0.6
	c1.2-0.1,1.9-1.3,2.8-1.8c-0.2-0.2-0.3-0.4-0.4-0.6c0.1,0.2,0.2,0.4,0.4,0.6c0.9-0.1,0.8-1.1,1.4-1.5c2,0.3,3-1,4.2-2.2
	c0.8-0.5,1.6-0.9,2.3-1.5c3-2.5,6.5-4.3,8.5-7.8c3-1.2,4.7-3.9,6.9-6.1c0-0.3,0-0.6,0-0.9c1.1,0.1,1.5-0.4,1.4-1.4
	c0.6,0.1,0.9-0.4,1.1-0.9c0.1,0,0.2,0,0.3-0.1c1.2-0.7,2-1.8,2.8-2.8c4.5-4,8.4-8.7,12.6-13c1.3-0.3,1.6-1.6,2.3-2.4
	c3.2-2.5,6.2-5.4,9.7-7.5c2.2-0.6,4.3-1.3,6.5-1.9c0-0.1-0.1-0.2-0.1-0.3c0,0.1,0.1,0.2,0.1,0.3c3.7-0.9,7.5-1.2,11.2-2.3
	c2.2,0.1,4-0.9,6-1.5c0.4-0.6,0.1-1.9,0.9-2.2c0.1,0,0.3-0.1,0.5,0c-0.2,0-0.4,0-0.5,0c-0.8,0.3-0.4,1.6-0.9,2.2
	c1.2-0.2,2.4-0.4,3.3-1.3c6.2-2.7,11.5-6.5,15.8-11.8c4-4.8,9-8.7,13.5-12.9c3.4-3.1,6.9-6.1,10-9.6c4.7-5.4,9.7-10.5,14.2-16.2
	c5-6.3,10.2-12.4,14.7-19.1c3.2-4.7,6.1-9.5,8.9-14.3c3.8-6.5,7.2-13.3,10.7-19.9c3.1-5.9,6.2-11.8,9.3-17.7
	c4.3-8.2,7.8-16.8,11.8-25.2c1.8-3.9,3.5-7.8,5.2-11.7c3.6-8.8,8-17.2,11.2-26.2c3-8.4,5.3-16.9,7.5-25.5c1.8-7.2,3-14.6,4.7-21.9
	c2.1-8.9,3-18,3.2-27.1C349,606.1,349,599.5,345.9,593.4z"/>
<path class="st1" d="M2159.3-318.5c-1.8,1.6-2.7,3.9-4.5,5.5c-4.7,4.1-9.7,7.3-15.5,9.5c-7.7,2.9-15.7,4.9-23.2,8.1
	c-5.6,2.4-11.1,5-16.6,7.6c-3.1,1.4-6.2,2.9-9.1,4.5c-2.5,1.4-4.8,3-6.6,5.2c-0.7,0.9-2.1,1.3-3,2.1c-3.7,3.4-6.6,7.5-9.8,11.3
	c-3.6,4.2-7.9,7.8-11.9,11.6c-2.5,2.4-4.5,5.2-6.3,8c-3.9,6.1-7.6,12.3-10.8,18.7c-3.2,6.4-5.9,13-8.9,19.4
	c-2.2,4.6-3.6,9.4-5.2,14.2c-0.3,0.8-0.5,1.6-0.2,2.4c-0.5,0.4-0.5,1.1-0.7,1.7c-1.6,4.1-2.1,8.5-3.3,12.8
	c-1.2,4.3-1.8,8.7-2.3,13.1c-0.5,5.1-1,10.2-1.7,15.2c0.1-0.1,0.3-0.1,0.5-0.2c-0.2,0.1-0.3,0.1-0.5,0.2c-0.3,0.7-0.3,1.3-0.2,2
	c0.1,0.8-0.5,1.5-0.2,2.4c-0.2,0.4-0.2,0.8-0.1,1.2c-0.7,1.7-0.9,3.6-0.8,5.4c0,0.1,0.1,0.3,0.1,0.4c-0.4,1.7-0.7,3.3-1.2,5
	c-2.9,9.2-5.9,18.4-7.1,28c-0.6,4.9-1.6,9.8-1.4,14.8c-0.5,0.6-0.3,1.3-0.2,2c0,0.3,0,0.5-0.1,0.8c-0.1,1.1-0.3,2.3-0.2,3.4
	c0.4,7.5,0.7,15,1.2,22.4c0.6,8.3,1.2,16.6,2.3,24.8c0.4,3.3,0.8,6.6,1.2,9.9c0.7,3.9,1,7.8,1.9,11.7c0.2-0.1,0.4-0.2,0.6-0.3
	c-0.2,0.2-0.4,0.3-0.6,0.3c-0.1,2.3,0.4,4.6,0.7,6.9c0.7,2.6,0.7,5.3,1.5,7.9c0,0.4,0,0.8,0,1.1c0.2,0.8,0.4,1.6,0.6,2.4
	c-0.2-0.8-0.4-1.6-0.6-2.4c-0.1,0-0.3,0-0.4,0.1c0.5,1.8,1,3.7,1.5,5.5c0.3,1.1,0.6,2.2,0.9,3.3c0.4,1.3,0.7,2.7,1.1,4
	c0.1-0.1,0.3-0.1,0.4-0.2c0.2,0.2,0.4,0.5,0.5,0.7c0.4,1,0.3,2.5,1.9,2.6c0.1,0.2,0.1,0.5,0.2,0.7c0.1,0.2,0.1,0.5,0.2,0.7
	c1.3,2.4,2.6,4.8,3.9,7.2c0.8,2,1.7,4,2.5,6.1c1.2,3,2.3,6,3.5,8.9c0.2,0.5,0.5,0.9,0.7,1.3c0.4-0.2,0.8-0.3,1.2-0.5
	c-0.4,0.2-0.8,0.3-1.2,0.5c0.3,1.4,0.8,2.8,1.8,3.9c1.5,3.7,3.4,7.1,5.9,10.2c0.1,0.4,0.2,0.8,0.6,1c1.8,3.5,4.1,6.6,6.5,9.6
	c0.9,1.2,2,2.4,3,3.6c0.2,0.2,0.4,0.4,0.5,0.6c1.1,1.9,2.5,3.6,3.9,5.2c0.5,1,1.3,1.6,2.1,2.2c0.7,2.5,2.3,4.5,4.1,6.4l0,0.2
	l0.1,0.2c0.2,0,0.4,0,0.6,0c-0.2,0-0.4,0-0.6,0c0.7,1.4,1.3,2.8,2,4.1c0.7,1.2,1,2.7,1.4,4c0.4,1.2,0.9,2.4,1.3,3.6
	c0.1,0.2,0.1,0.5,0.2,0.7c0.4,0,0.9,0.1,1.3,0.1c-0.4,0-0.9-0.1-1.3-0.1c0.9,2.6,2.3,5,4,7.2c0.3,0.3,0.6,0.6,0.9,1
	c1.5,3.3,4.1,5.4,7.1,7.2c1.2,1.1,2.4,2.2,3.9,2.9c-0.1-1,0.2-1.6,0.8-2c-0.5,0.4-0.9,1-0.8,2c1.3,1.7,2.4,3.5,4.1,4.8
	c0.7,1.5,1.8,2.6,3.2,3.5c0.2-0.5,0.4-1,0.4-1.6c0,0.5-0.3,1-0.4,1.6c2.4,2.8,5.9,3.8,9,5.4c2,0.8,3.4,2.8,5.8,2.8
	c1.7,1.5,3.5,2.6,5.6,3.2c0.2,0.8,0.9,1,1.5,1.2c2.6,1.9,5.2,3.8,7.8,5.8c0.1-0.3,0.2-0.4,0.3-0.6c-0.1,0.1-0.2,0.3-0.3,0.6
	c1.7,1.4,3.4,2.7,5.3,3.7c2.5,2.3,5.2,4.5,8.5,5.6c0.6,0.8,1.3,1.3,2.4,1.4c3.2,2,6.4,4.1,10,5.2c0.7,0.8,1.7,1.2,2.7,1.2
	c0-0.2-0.1-0.4-0.1-0.6c0,0.2,0.1,0.4,0.1,0.6c2.1,1.3,4.3,2.4,6.7,2.9c1.2,1.3,2.9,1.6,4.5,2c2,0.8,4.1,1.7,6.2,2.3
	c1.2,0.4,2.3,1.1,3.7,0.6c2.3,1.5,4.9,2,7.6,2.3c0.2-0.2,0.3-0.4,0.5-0.6c-0.2,0.2-0.3,0.5-0.5,0.6c0.5,0.4,1,0.5,1.6,0.6
	c5.9,1.2,11.7,2.3,17.6,3.2c1.8,0.3,3.8-0.1,5.6,0.9c2.5,1.3,4.9,2.8,7.6,3.8c2.2,0.8,4.2,2,6.7,1.9c1.8,0.4,3.3-0.6,4.9-0.9
	c1.9-0.6,3.9-0.8,6-0.8c1.6,0,3.1,0.1,4.7-0.1c4.5-0.5,9-1.3,13.5-0.9c4.1,0.3,8.2,0.2,12.2-0.2c6.1-0.5,12.1-1.7,18.4-1.4
	c5.2,0.3,10.4,0.4,15.6,0.1c5-0.3,10.1-0.4,14.9-1.9c7-2.2,14.4-2.6,21.5-4.2c0.8-0.1,1.5-0.2,2.3-0.2c0.8-0.7,1.8,0.1,2.7-0.3
	c2.7,0.3,5.4-0.4,8-1c5.5-1.3,11.2-1.7,16.8-2.6c1-0.1,1.9-0.8,2.9-0.3c1.6-0.4,3.2-0.9,4.8-1.3c0.5-0.1,1-0.3,1.5-0.4
	c5.1-1.4,10.3-2.8,15.4-4.1c0.7-0.2,1.5-0.4,2.2-0.6s1.5-0.4,2.2-0.6c1.1-0.3,2.2-0.6,3.3-0.9c1.3-0.4,2.7-0.7,4-1.1
	c9.9-2.7,19.8-5.3,29.7-8c3.7-1.8,6.7-4.6,9.9-7c-0.1-0.1-0.1-0.2-0.2-0.3c0.1,0.1,0.1,0.2,0.2,0.3c0.6-0.4,1.3-0.8,1.9-1.3
	c1.9-1.6,4-2.9,5.1-5.3c3.4-0.6,5.3-3.4,7.6-5.5c0.6-0.2,0.9-0.7,0.8-1.4c-0.3-0.3-0.7-0.1-1.1-0.2c0.4,0,0.8-0.1,1.1,0.2
	c0.5-0.2,1.1-0.2,1.4-0.8c2.2-1,3.4-2.9,4.6-4.8c0.6-0.4,1.2-0.9,1.9-1.2c5.2-2.7,9.7-6.4,14.4-9.8c0.1,0,0.3-0.1,0.4-0.1
	c4.7-1.2,9.3-2.8,12.7-6.4c3.5-3.6,6.5-7.5,9.6-11.4c5.9-7.6,10.7-16,16-24c3.7-5.6,6.3-11.8,8.7-18c0.7-1.9,1.9-3.7,1.9-5.9
	c1.8-3,2.5-6.4,3.6-9.7c0.6-1.6,1.5-3.2,1.4-5.1c0.9-0.7,0.8-1.7,0.9-2.6c-0.7,0.5-1.3,1.1-2.1,1.4c0.8-0.3,1.4-0.9,2.1-1.4
	c0.8-1,1.1-2.2,1.3-3.5c3-6.9,5.7-13.9,7.9-21c0.7-2.2,2-4.4,1.5-6.9c2.4-2.9,2.2-6.7,3.3-10.1c0.5-1.7,0.9-3.5,0.9-5.4
	c0.5-1.2,0.8-2.4,0.7-3.7c0.5-1.9,0.6-3.8,0.7-5.8c0.3-2,0.4-3.9,0.1-5.9c0-2.2,0.3-4.4-0.6-6.5c0.2-1.5,0.2-3-0.1-4.5
	c-1.6-7-3.6-13.8-5.9-20.6c-1.6-4.9-2.4-10-3.1-15.1c-0.5-3.5-1-7.1-1.4-10.6c-0.6-5.2-1.7-10.3-3-15.3c-0.2-1.2-0.6-2.3-1-3.5
	c0.3,1.2,0.8,2.3,1,3.5c0.1,0,0.3,0,0.4-0.1c-0.6-2.1-1.1-4.2-1.7-6.2c-1.1-4-2.2-8.1-3.2-12.1c-0.4-1.3-0.7-2.7-1.1-4
	c-1-1.4-1.4-3-2-4.6c-1.9-4.9-3.8-9.9-5.7-14.8c-1.3-3.3-2.5-6.6-3.7-9.9c-2.8-7.4-6-14.7-10.7-21.2c-0.1-0.2-0.4-0.3-0.6-0.5
	c-0.2-0.5-0.2-1.1-0.8-1.4c-0.5-1.4-1.4-2.5-2.2-3.7c-1-2.2-2.5-4-4-5.9c-1.9-2.3-3.3-5-5.7-6.9c-0.8-1-1.4-2.3-2.7-2.8
	c-0.2-0.8-0.6-1.4-1.1-1.9c-1.7-1.8-3.3-3.6-5.1-5.3c-2.9-2.6-5.3-5.8-8.4-8.1c-0.2-0.2-0.4-0.4-0.6-0.6c-0.4-0.9-1.4-1.2-2-1.9
	c-0.1,0.2-0.2,0.3-0.4,0.5c0.1-0.1,0.3-0.3,0.4-0.5c-0.3-0.7-1.1-0.4-1.5-0.7c-0.2-1.6-1.5-2.2-2.6-2.9c-0.6-0.5-1.1-1.1-1.7-1.5
	c-2.6-1.8-4.7-4.2-7.9-5c-1.6-2.1-4.1-2.9-6.3-4.2c-0.2,0.1-0.5,0.1-0.7,0.2c-0.1-0.9-0.6-1.1-1.4-0.8c-0.1-0.5-0.5-0.6-0.9-0.7
	c0-0.1,0-0.2-0.1-0.2c-0.8-0.8-1.8-1.2-2.8-1.7c-4.1-2.7-8.6-4.7-12.9-7.2c-0.5-0.9-1.6-0.9-2.4-1.3c-2.7-2-5.5-3.8-7.9-6.1
	c-1-1.6-1.9-3.2-2.9-4.7c-0.1,0-0.1,0.1-0.2,0.1c0.1,0,0.1-0.1,0.2-0.1c-1.5-2.7-2.5-5.7-4.2-8.3c-0.4-1.7-1.6-3-2.4-4.4
	c-0.6-0.2-1.6,0.3-1.9-0.2c-0.1-0.1-0.1-0.2-0.1-0.4c0,0.2,0.1,0.3,0.1,0.4c0.4,0.5,1.4,0,1.9,0.2c-0.4-0.9-0.8-1.8-1.7-2.3
	c-3.4-4.3-7.6-7.7-12.6-10c-4.7-2.1-8.7-5.2-13-7.9c-3.2-2-6.3-4.2-9.7-5.8c-5.3-2.6-10.4-5.4-15.7-7.7c-6-2.6-11.9-5.4-18.2-7.5
	c-4.4-1.5-8.8-2.8-13.2-4c-5.9-1.6-12-2.9-18-4.2c-5.3-1.2-10.6-2.4-15.9-3.6c-7.4-1.6-14.9-2.6-22.3-3.9c-3.4-0.6-6.9-1.1-10.3-1.6
	c-7.7-1-15.3-2.7-23-3.3c-7.2-0.6-14.5-0.6-21.7-0.5c-6.1,0.1-12.2,0.7-18.3,0.9c-7.5,0.2-14.8,1.4-22,3.2
	C2168.6-323.6,2163.4-322.2,2159.3-318.5z"/>
<path class="st2" d="M782-11.3c-1.4,5.1,1.6,10,0.7,15.1c-0.3,1.6,1.1,2.7,2.5,3.5c0.3-0.7,2.7,15,5.5,22.2
	c0.6,5.1,5.1,14.5,4.6,14.3c1.7,3.8,4.7,13.9,5.3,15c0.4,1.2,0.7,2.4,1.1,3.5c4.5,11,7.3,22.5,12.3,33.3c3.7,7.8,6.3,16.1,10.8,23.6
	c1.7,4.8,8.2,14,7,13.5c1.3,2.2,2.6,4.5,3.8,6.7c1,1.9,1.9,3.8,2.9,5.7c2.6,4.4,5.1,8.7,7.7,13.1c1.4,2.7,3.5,4.9,5.5,7.2
	c0.3-0.2,0.5-0.3,0.8-0.4c-0.3,0.1-0.5,0.2-0.8,0.4c1.4,3.2,3.8,5.8,5.8,8.6c3.8,5.8,8.1,11.3,13.3,15.9c1,1.3,2,2.6,3,3.9
	c0.2,0.2,0.4,0.4,0.7,0.6c0.3-0.1,0.6-0.1,0.9-0.1c-0.3,0-0.6,0-0.9,0.1c0.9,2.3,3,3.6,4.4,5.4c2.1,1.9,4.2,3.9,6.4,5.8
	c0.1-0.1,0.2-0.2,0.2-0.2c-0.1,0.1-0.2,0.2-0.2,0.2c1,1.8,2,3.7,4.4,4c0.3,0.1,0.7,0.3,1,0.4c1.5-0.2,2.2,0.2,2.4,0.9
	c-0.2-0.7-0.8-1.1-2.4-0.9c-0.6,1.9,0.8,2.4,2,3c2.4,3.5,5.9,6,8.8,9c1,0.7,2,1.4,2.9,2.1c1.5,2.6,4,4,6.4,5.6
	c0.2-0.3,0.4-0.5,0.6-0.7c-0.2,0.1-0.4,0.3-0.6,0.7c2.1,2.4,4.2,4.7,7.2,6c1.2,2.9,4.9,3.1,6.4,5.8c0.2-0.2,0.4-0.3,0.7-0.5
	c-0.2,0.2-0.4,0.3-0.7,0.5c3.6,2.4,6.7,5.5,10.7,7.3c3.6,3.5,12.9,10.6,14,10.9c0.5,0.3,1.1,0.6,1.6,1c0.1-0.2,0.2-0.4,0.4-0.7
	c-0.1,0.2-0.3,0.4-0.4,0.7c2.1,1.2,4.3,2.4,6.4,3.7c2.1,2.4,4.8,3.9,7.7,5.3c4.7,3.1,9,6.9,14.2,9.3c1.1,0.5,2.3,1,2.5,2.4
	c1.6,0.9,3.2,1.8,4.8,2.7s3.2,1.8,4.8,2.7c9.6,5.5,19.3,11,28.9,16.5c5.4,3,10.7,6.1,16.1,9.1c0.1-0.2,0.3-0.4,0.5-0.5
	c4.7-0.5,6.3,4.9,10.4,5.6c2.2,1.2,4.4,2.5,6.5,3.7c1.6,0.9,3.2,1.8,4.7,2.8c0.5,0.3,1.1,0.6,1.6,0.9c6.6,2.9,12.6,7.2,19.2,9.8
	c14.1,5.7,27.4,13.3,41.7,18.7c10.9,4.1,21.9,8,33,11.5c10.7,3.3,21.6,5.8,32.7,7.9c12.4,2.3,24.6,4,37.2,2.8
	c2.9,0.5,5.8,0.6,8.6-0.3c14.8,0.4,28.6-4.4,42.7-7.6c0.4-0.1,0.8-0.3,1.1-0.4c19.8-2.8,39.6-5.4,59.3-8.5c11.9-1.9,23.8-4.1,35.2-8
	c2.4-0.5,5-0.3,6.8-2.4c2.1-0.6,4.3-1.2,6.4-1.8c5-2,9.6-4.9,13.9-8.2c0.5-0.4,1.1-0.8,1.6-1.1c2.5-1.8,5-3.6,7.4-5.4
	c5.8-5.5,11.9-10.8,17.5-16.6c5-5.2,10.7-9.9,14.8-16c0.4-0.5,0.8-1,1.2-1.5c7.8-9.3,15.8-18.5,21.7-29.2c0.7-0.8,1-1.9,2.3-1.9
	c0.8-1.3,1.5-2.7,2.3-4c0.3-0.5,0.6-1.1,0.9-1.6c0.5-0.8,0.9-1.6,1.4-2.4c-0.6-0.7-0.2-1.4,0-2.2c2.1-3,3.2-6.4,2.8-10.1
	c1.3-4.6,2.6-9.2,1.6-14c-0.1-1.7-0.4-3.4-1.6-4.9c0-1.2-0.9-1.8-1.8-2.3c-1.7-2.9-3.8-5.4-6.8-6.9c-5.7-5.1-11.5-10.3-14.3-17.8
	c-1.8,0-1.8-6.8-2.8-10.2c-1.8-6.2-1.2-13.1-5.2-18.8c-0.2-4.8-3-8.8-4.2-13.3c-5.6-11.3-22.6-27.5-20.2-31.5
	c-0.5-1.3-0.9-2.6-2.1-3.4c-11-7.7-21.7-15.8-34.6-20.3c-0.5-0.3-1.1-0.7-1.6-1c-3-2.1-6.3-3.5-9.1-6.1c-6.4-6-10.6-13.7-16.4-20.1
	c-7.7-10.8-16.1-20.9-27.8-27.7c-0.6-2.2-2.9-2.5-4.5-3.5c-1.7-1.4-3.5-2.7-5.2-4.1c-8.6-6-17.2-12.1-25.8-18.1
	c-4.3-4.1-8.6-8.3-13.5-11.8c-2.3,1.6-2.1,2.3-1.2,2.9c-0.9-0.6-1.1-1.3,1.2-2.9c-3.1-4.1-7.3-7-11.6-9.7c-0.5-0.3-1-0.7-1.4-1
	c-0.3,0.2-0.6,0.3-0.9,0.4c0.3-0.1,0.6-0.3,0.9-0.4c-0.9-2-2.8-2.5-4.6-3.3c-0.2-0.2-0.4-0.4-0.6-0.6c-0.7,0.2-1.3,0.4-1.9,0.5
	c0.6-0.1,1.2-0.4,1.9-0.5c-6.6-6-13.6-11.5-19.4-18.4c-3.5-4.2-7.6-7.9-11.5-11.8c-0.5-0.4-0.9-0.7-1.4-1.1
	c-1.2-2.1-2.7-3.8-4.9-4.7c-3.3-3.8-7.9-6.2-11.6-9.7c-1-0.6-2.1-1.2-3.1-1.8c-1.9-2.2-4.2-3.7-6.7-5.1c-5.3-4.4-10.6-8.8-15.9-13.2
	c0,0.4,0,0.7,0,1c0,0.3-0.1,0.6-0.2,0.9c0.1-0.3,0.1-0.6,0.2-0.9c0-0.3,0-0.7,0-1c-2.1-1.4-3.5-3.7-6-4.5
	c-7.5-7.5-16.7-12.7-25.4-18.6c-9.3-6.3-19.4-11.7-29.9-15.8c-18.7-7.3-37.7-13.8-58-15.2c-8.5-1.7-17-1.3-25.5-0.7
	c-1,0.1-1.9,0.9-2.8,1.4c0.2,0.5,0.5,1,0.7,1.3c-0.2-0.4-0.5-0.8-0.7-1.3c-3.5-1.7-6.6,0.6-10,0.8c-1.8,0.7-3.6,1.5-5.4,2.2
	c0.1,0.5,0.3,1,0.6,1.3c-0.3-0.3-0.5-0.8-0.6-1.3c-6.6,2.3-13.2,4.6-19.9,6.9c-2.3,0.9-4.5,1.8-6.8,2.6c-2.7,0.1-5.1,1-7.5,2
	c-7.7,1.9-15.3,3.8-22.4,7.6c-5.9,0.8-11.2,3.5-16.9,5c-5.8-0.2-10.3,3.6-15.5,5.1c-1.8,0.7-3.7,1.4-5.5,2.1
	c-5.1,2.1-10.2,4.2-15.3,6.3c1.3,0.8,2.7,1.4,3.6,2.4c-0.9-1-2.3-1.6-3.6-2.4c-0.5,0.4-1.1,0.8-1.6,1.2c-1.3,0.3-2.6,0.6-3.9,0.9
	c-0.6,0.4-1.2,0.8-1.7,1.2c-5.3,1.2-9.7,4.2-14.4,6.7c0,0.2,0.1,0.4,0.1,0.6c0-0.2,0-0.4-0.1-0.6c-1.6,0.8-3.5,1.1-4.7,2.6
	c-2.8,0.3-5.1,1.6-7.3,3.3c0.3,0.5,0.6,1,0.7,1.5c-0.1-0.5-0.4-1-0.7-1.5c-2.2,0.3-3.9,1.5-5.7,2.7c-3.7,2.4-7.7,4.3-11.4,6.7
	c-3.1,1.9-7.8,2.7-11.7,4.2c-2.5,0-5-0.6-7.5,0c-2.5,0.2-4-1.9-6-2.9c-6.4-3.1-12.4-2.1-18.5,0.6c-4.7-0.1-7.2,3.6-10.1,6.2
	c-6.1,5.4-11.2,11.7-15.5,18.6C785.8-24.7,782.3-18.7,782-11.3z"/>
<path class="st1" d="M4706.2,1210.7c-6.3-8.8-14.2-16-23.4-21.6c-1-0.7-2.1-1.4-3.1-2.1c-10.6-5.6-20.7-12.3-32.6-15.3
	c-3-0.8-5.7-2.6-8.5-4c-2-1-3.7-2.7-5.7-3.5c-16.8-6.4-32.9-14.9-50.8-18.2c-12.6-2.3-25.4-3.9-38.2-4.6c-7-0.4-14-2.2-21.1-0.4
	c-1.3-0.2-2.7-0.3-4-0.5c-1.7-0.1-3.3-0.1-5-0.2c-2.3,0.1-4.7,0.3-7,0.4c-15.8-0.6-31.4-0.6-47.1,3.8c-12.3,3.4-24.4,7-35.4,13.1
	c-8,4.4-17.1,6.2-24.5,11.9c-7.2,5.5-16.2,8.4-24.2,12.7c-7.4,4.1-14,9.5-20.4,15.1c-6.7,5.8-14.6,10.5-21.7,16.1
	c-9.1,7.1-16.9,15.7-23.7,24.9c-8,10.9-10,24.3-7.8,36.9c2.6,15.3,0.1,30.3,0.8,45.5c0.7,14.7-0.7,29.5,0.2,44.1
	c0.7,10.6-1.8,21-0.2,31.5c0.8,5.5-0.3,11.3,2,16.7c0.4-0.5,0.8-1.4,1.1-1.6c-0.3,0.2-0.7,1.1-1.1,1.6c0.1,0.4,0.2,0.8,0.2,1.1
	c0.1,7.1,3.6,13.2,6.4,19.4c-0.2,0.5-0.4,1-0.5,1.5c1.4,3.1,2.8,6.1,4.2,9.2c0.9,2,1.9,4.1,2.8,6.1c0.3,0.7,0.6,1.4,0.9,2
	c2.6,5.8,5.3,11.6,7.9,17.4c0.6,0.6,1.6,1.1,1.9,1.9c4.3,9.5,8.6,19,14.1,27.9c5.4,10.4,9.8,21.3,17.6,30.4c-0.4,2.2,0.4,4,1.4,5.9
	c4,7.9,8.5,15.6,13.9,22.6c5,6.4,9.5,13.2,16.5,17.7c0.6,0.7,1.3,1.3,2.3,1.3c0.3,0.7,0.6,1.3,0.8,2c1.3,1.4,2.6,2.8,4.8,2.7
	c0.5,0.8,0.9,1.6,1.9,1.7c3.4,3.2,6.6,6.8,11.7,7.2c0.7,1.1,1.3,2.1,2.6,2.8c8.6,4.7,17.2,9.4,26.6,12.2c2,0.7,3.9,1.5,5.9,2.2
	c-0.1-1-1.2-2.4-1.1-3.3c-0.1,0.9,1,2.3,1.1,3.3c1,0.3,2,0.7,3,1c1.4,0.6,2.7,1.2,4.1,1.8c0.2-0.1,0.3-0.2,0.5-0.2
	c-0.2,0.1-0.3,0.1-0.5,0.2c1.1,0.3,2.2,0.6,3.3,1c11.3,5.6,23.9,7,35.8,10.8c0.4-0.1,0.7-0.3,1-0.4c1.3,1,2.8,1.7,4.5,1.8
	c0.8,0,1.7-0.1,2.5-0.1c9.8,3.5,20.1,5.1,30.3,7c13.1,2.5,26.2,4.6,39.4,6.4c6.4,0.9,12.8,2.4,19.3,0.3c-0.5-0.8-1.1-1.5-1.7-2.1
	c0.7,0.6,1.3,1.3,1.7,2.1c1.7,0,3.3,1.1,5,0.3c9.1,0.7,18.1,1,27.2,0c0.5,0.1,1,0.3,1.5,0.4c4.6,0.7,9.2,0.1,13.3-2.1
	c1.2-0.7,1.9-1,3.2-0.7c3.9,1,7.6,0,11.3-1.2c2.6-0.8,5.1-1.5,7.7-2.3c2.6-0.7,4.6-3,7.6-2.2c4.4-2,8.9-4,13.3-6
	c0.3-1.5,1.6-2,2.8-2.5c8.2-3.1,14.1-9.2,20-15.3c0.9-0.8,1.7-1.6,2.6-2.4c5.8-6.2,10.4-13.3,13.8-21.1c1.5-0.9,2.7-2.1,3.2-3.8
	c0-0.6-0.1-1.2-0.3-1.8c0.1,0.6,0.2,1.2,0.3,1.8c18.1-25.9,30.4-54.5,39.3-84.6c-0.9-0.1-1.6-0.3-2.2-0.7c0.5,0.4,1.3,0.6,2.2,0.7
	c1.8-2.1,1.7-4.5,1.6-7c2.9-7.9,6.5-15.7,8.5-23.8c4.5-19.1,5.8-38.7,4.6-58.2c-1.4-23.6-5.5-46.7-14.7-68.8
	c-5.9-14.2-10.6-29-17.3-43c-2.6-5.4-5.9-10.6-6.4-16.8c-5.4-11.9-10.8-23.9-16.3-35.8c-2.2-4.8-4.3-9.5-6.5-14.3
	c-0.5-1-0.9-2-1.4-3.1c-0.2-0.3-0.3-0.7-0.5-1C4711.1,1219.6,4710.2,1214,4706.2,1210.7z"/>
<path class="st1" d="M3744.6,1798.5c-10.7-1.8-21.3-1.4-31.9,1.2c-1.2,0.2-2.5,0.5-3.7,0.7c-11.5,3.5-23.3,5.9-33.9,12.2
	c-2.6,1.6-5.8,2.2-8.8,3.1c-2.1,0.6-4.5,0.7-6.5,1.6c-16.5,7.3-33.9,12.6-48.8,23c-10.5,7.3-20.7,15.1-30.4,23.7
	c-5.3,4.7-11.5,8.4-15.2,14.6c-1.1,0.8-2.1,1.7-3.2,2.5c-1.2,1.1-2.4,2.2-3.7,3.3c-1.6,1.8-3.1,3.5-4.7,5.3
	c-11.7,10.7-22.7,21.7-30.7,35.9c-6.3,11.1-12.3,22.2-15.9,34.3c-2.6,8.7-7.7,16.4-9,25.7c-1.2,9-5.6,17.4-8.2,26.1
	c-2.4,8.1-3.2,16.6-3.8,25.2c-0.6,8.9-2.9,17.8-4,26.7c-1.4,11.5-0.9,23,0.8,34.3c2,13.4,10.1,24.2,20.5,31.6
	c12.7,9,21.5,21.4,32.7,31.6c10.8,9.9,20.3,21.4,31.3,31.1c7.9,7,13.6,16.2,22.1,22.5c4.5,3.3,7.8,8.2,13.1,10.4
	c-0.1-0.6-0.4-1.6-0.4-1.9c-0.1,0.3,0.3,1.3,0.4,1.9c0.3,0.2,0.6,0.4,1,0.6c5.1,5,11.8,6.8,18.2,9.2c0.2,0.5,0.4,0.9,0.6,1.4
	c3.2,1.2,6.3,2.4,9.5,3.6c2.1,0.8,4.2,1.6,6.3,2.4c0.7,0.3,1.4,0.5,2.1,0.8c6,2.2,11.9,4.5,17.9,6.7c0.9,0,1.9-0.3,2.7,0
	c9.7,3.7,19.5,7.4,29.6,9.8c11.2,3.5,22,8.2,33.9,9.1c1.2,1.8,3.1,2.6,5.1,3.2c8.4,2.8,17,5,25.8,6.2c8,1,16,2.6,24.2,0.9
	c0.9,0.1,1.8,0,2.5-0.7c0.7,0.3,1.3,0.5,2,0.8c1.9,0.1,3.8,0.2,5.3-1.4c0.9,0.2,1.8,0.5,2.6-0.1c4.7-0.2,9.5,0.1,13.4-3.1
	c1.3,0.3,2.4,0.6,3.8,0.2c9.4-2.7,18.8-5.5,27.5-10.1c1.9-0.9,3.8-1.7,5.8-2.6c-0.8-0.6-2.5-0.9-3.1-1.6c0.6,0.7,2.3,0.9,3.1,1.6
	c0.9-0.5,1.9-0.9,2.9-1.4c1.4-0.5,2.8-1.1,4.2-1.6c0.1-0.2,0.1-0.4,0.2-0.5c-0.1,0.2-0.1,0.3-0.2,0.5c1-0.5,2-1.1,3-1.6
	c12-4,21.9-11.9,33-17.6c0.2-0.3,0.3-0.7,0.5-1c1.6-0.3,3.2-0.8,4.5-1.9c0.6-0.6,1.1-1.2,1.7-1.8c9.4-4.4,17.8-10.5,26.4-16.3
	c11-7.5,21.8-15.2,32.4-23.2c5.1-3.9,10.8-7.3,13.9-13.4c-0.9-0.3-1.8-0.3-2.7-0.3c0.9-0.1,1.8,0,2.7,0.3c1.2-1.2,3.1-1.5,3.8-3.3
	c6.9-5.9,13.6-12.1,19.3-19.2c0.4-0.3,0.9-0.5,1.3-0.8c3.8-2.8,6.6-6.4,8-10.8c0.4-1.3,0.7-2.1,1.8-2.7c3.5-2,5.4-5.3,7.1-8.8
	c1.3-2.3,2.6-4.7,3.9-7c1.3-2.3,1.2-5.4,3.9-6.9c1.7-4.6,3.4-9.1,5.2-13.7c-0.8-1.3-0.3-2.6,0.2-3.7c3.6-8,3.5-16.5,3.4-24.9
	c0.1-1.2,0.1-2.4,0.2-3.5c-0.2-8.5-2.1-16.7-5.1-24.7c0.4-1.7,0.4-3.4-0.4-5c-0.5-0.4-0.9-0.8-1.5-1.1c0.5,0.3,1,0.7,1.5,1.1
	c-5.4-31.1-16.9-60.1-31.9-87.7c-0.7,0.6-1.4,1-2,1.1c0.7-0.1,1.3-0.5,2-1.1c-0.2-2.7-2-4.4-3.8-6.1c-3.6-7.6-6.4-15.7-10.8-22.9
	c-10.3-16.7-23.2-31.5-37.8-44.5c-17.6-15.7-36.8-29.2-58.9-38.4c-14.2-5.9-28-13.1-42.6-18.2c-5.7-2-11.6-3.3-16.4-7.4
	c-12.3-4.6-24.5-9.3-36.8-13.9c-4.9-1.9-9.8-3.7-14.7-5.6c-1.1-0.4-2.1-0.8-3.2-1.2c-0.4-0.1-0.7-0.3-1.1-0.4
	C3754.3,1801.3,3749.7,1798,3744.6,1798.5z"/>
<path class="st1" d="M3149.2,142.1c-9.8,0.7-19,3.4-27.7,7.9c-1,0.5-2.1,0.9-3.1,1.4c-9.3,5.5-19.2,10.2-27.1,18
	c-2,1.9-4.6,3.2-7.1,4.6c-1.7,1-3.8,1.6-5.4,2.8c-12.8,9.9-27,18.4-37.8,30.7c-7.7,8.7-14.9,17.7-21.5,27.3
	c-3.6,5.2-8.3,9.8-10.2,16.1c-0.7,1-1.5,1.9-2.2,2.9c-0.8,1.2-1.7,2.5-2.5,3.7c-1,1.9-2,3.7-3,5.6c-7.9,11.9-15.2,23.9-19.2,38.1
	c-3.1,11.1-6,22.1-6.5,33.5c-0.4,8.2-3.2,16-2.3,24.5c0.9,8.2-1.2,16.4-1.5,24.6c-0.3,7.6,0.8,15.2,2.1,22.9
	c1.4,7.9,1.3,16.2,2.2,24.3c1.2,10.4,4.2,20.4,8.1,29.9c4.6,11.3,14,19.1,24.7,23.3c13,5.2,23.4,14.1,35.4,20.7
	c11.6,6.4,22.4,14.4,34.1,20.5c8.5,4.4,15.4,11.2,24.2,14.9c4.7,2,8.6,5.5,13.8,6.3c-0.2-0.5-0.7-1.3-0.7-1.6c0,0.3,0.5,1.1,0.7,1.6
	c0.3,0.1,0.7,0.2,1,0.3c5.5,3.3,11.8,3.4,17.9,4.2c0.3,0.4,0.6,0.7,0.9,1.1c3,0.4,6,0.7,9.1,1.1c2,0.2,4,0.5,6,0.7
	c0.7,0.1,1.3,0.2,2,0.2c5.7,0.7,11.4,1.4,17.1,2.1c0.8-0.2,1.6-0.7,2.3-0.6c9.3,1.2,18.7,2.3,28.1,2.2c10.5,0.7,21,2.4,31.6,0.7
	c1.5,1.3,3.3,1.6,5.1,1.7c8,0.6,16,0.7,23.9-0.2c7.2-0.8,14.6-1.2,21.4-4.4c0.9-0.1,1.6-0.4,2.1-1.2c0.6,0.1,1.3,0.2,1.9,0.3
	c1.7-0.4,3.4-0.7,4.3-2.4c0.8,0,1.7,0.1,2.3-0.7c4.1-1.2,8.3-1.9,11.1-5.6c1.2,0,2.2,0,3.4-0.7c7.7-4.4,15.3-8.8,21.9-14.8
	c1.5-1.2,3-2.3,4.5-3.5c-0.8-0.4-2.4-0.2-3.1-0.7c0.7,0.5,2.3,0.3,3.1,0.7c0.7-0.6,1.5-1.2,2.2-1.8c1.1-0.8,2.2-1.5,3.3-2.3
	c0-0.2,0-0.3,0.1-0.5c0,0.2-0.1,0.3-0.1,0.5c0.8-0.7,1.5-1.4,2.3-2.1c9.6-6.1,16.6-15.2,25.1-22.5c0.1-0.3,0.1-0.7,0.2-1
	c1.4-0.6,2.6-1.4,3.5-2.6c0.4-0.7,0.7-1.3,1.1-2c7.3-5.9,13.4-13.1,19.6-20c8-8.9,15.9-18,23.4-27.3c3.7-4.5,7.9-8.8,9.3-14.7
	c-0.9,0-1.7,0.1-2.5,0.3c0.8-0.3,1.6-0.4,2.5-0.3c0.8-1.3,2.4-2,2.6-3.7c4.8-6.7,9.3-13.5,12.8-21c0.3-0.3,0.7-0.6,1-0.9
	c2.7-3.2,4.4-7.1,4.6-11.2c0.1-1.3,0.1-2,1-2.8c2.6-2.5,3.6-5.8,4.3-9.3c0.6-2.3,1.2-4.7,1.9-7c0.7-2.3-0.2-5,1.9-6.9
	c0.5-4.4,1.1-8.7,1.6-13.1c-1-1-0.8-2.2-0.6-3.3c1.4-7.8-0.5-15.2-2.4-22.6c-0.2-1-0.4-2.1-0.6-3.1c-2.1-7.4-5.4-14.2-9.8-20.6
	c0-1.6-0.4-3-1.4-4.3c-0.5-0.3-1-0.5-1.5-0.7c0.5,0.2,1,0.4,1.5,0.7c-11.4-26.1-27.7-49-46.8-70c-0.5,0.7-1,1.1-1.5,1.4
	c0.5-0.2,1.1-0.7,1.5-1.4c-0.8-2.3-2.7-3.4-4.6-4.5c-4.8-5.9-9-12.4-14.4-17.7c-12.6-12.5-27.1-22.6-42.7-30.9
	c-18.8-10-38.5-17.7-59.9-20.9c-13.8-2.1-27.3-5.4-41.2-6.8c-5.4-0.5-10.9-0.4-15.9-2.9c-11.7-1.4-23.5-2.8-35.2-4.2
	c-4.7-0.6-9.4-1.1-14.1-1.7c-1-0.1-2-0.2-3-0.4c-0.3,0-0.7-0.1-1-0.1C3158.3,142.5,3153.5,140.5,3149.2,142.1z"/>
<path class="st3" d="M3179.3,56.8c-1.1-2.3-3.3-3.8-4.4-6.2c-2.9-5.9-4.8-11.9-5.5-18.5c-0.9-8.6-0.7-17.3-1.9-25.9
	c-0.9-6.4-2.1-12.7-3.3-19c-0.6-3.5-1.3-7.1-2.1-10.6c-0.7-2.9-1.7-5.7-3.5-8.2c-0.7-1-0.7-2.5-1.3-3.7c-2.4-4.7-5.9-8.8-8.8-13.1
	c-3.3-4.9-5.9-10.2-8.6-15.4c-1.7-3.2-4.1-6-6.5-8.6c-5.1-5.6-10.5-11.1-16.1-16.2c-5.6-5-11.6-9.6-17.4-14.5
	c-4.1-3.5-8.7-6.2-13.1-9.2c-0.7-0.5-1.5-1-2.4-0.9c-0.3-0.7-1-0.8-1.5-1.2c-3.8-2.8-8.2-4.5-12.2-6.8c-4.1-2.4-8.4-4.3-12.8-6
	c-5-1.9-10.1-3.8-15.1-6c0,0.2,0,0.3,0,0.5c0-0.2,0-0.4,0-0.5c-0.6-0.5-1.3-0.7-2-0.8c-0.8-0.2-1.4-0.9-2.3-0.9
	c-0.3-0.3-0.7-0.4-1.2-0.4c-1.6-1.2-3.4-1.9-5.3-2.3c-0.1,0-0.3,0-0.4,0c-1.6-0.8-3.2-1.6-4.8-2.5c-8.6-5.5-17.1-11.1-26.6-15
	c-4.9-2-9.6-4.3-14.8-5.5c-0.5-0.7-1.3-0.7-2-0.8c-0.3-0.1-0.5-0.2-0.8-0.3c-1.1-0.4-2.2-0.9-3.4-1.2c-7.7-1.7-15.5-3.4-23.3-4.9
	c-8.6-1.7-17.3-3.3-26-4.5c-3.5-0.5-7-1-10.5-1.5c-4.2-0.4-8.3-1.2-12.4-1.3c0,0.3,0.1,0.5,0.2,0.7c-0.1-0.2-0.2-0.4-0.2-0.7
	c-2.4-0.7-4.8-0.8-7.3-1.1c-2.8,0-5.6-0.8-8.5-0.6c-0.4-0.1-0.8-0.2-1.2-0.3c-0.9,0-1.7,0-2.6,0c0.9,0,1.7,0,2.6,0
	c0-0.1,0-0.3,0-0.4c-2,0-4,0-6,0c-1.2,0-2.4,0-3.6,0c-1.5,0-2.9,0-4.4,0c0,0.1,0,0.3,0.1,0.4c-0.3,0.1-0.6,0.2-0.9,0.4
	c-1.2,0.2-2.6-0.4-3.2,1.2c-0.3,0-0.5,0-0.8,0c-0.3,0-0.5,0-0.8,0c-2.8,0.7-5.6,1.3-8.4,2c-2.3,0.3-4.6,0.6-6.9,0.9
	c-3.4,0.4-6.7,0.7-10.1,1.1c-0.5,0.1-1,0.3-1.5,0.4c0.1,0.5,0.1,0.9,0.2,1.4c-0.1-0.4-0.1-0.9-0.2-1.4c-1.5-0.1-3.1,0.1-4.5,0.7
	c-4.2,0.5-8.2,1.5-12,3.3c-0.4,0-0.9,0-1.2,0.4c-4,0.9-7.8,2.4-11.6,4c-1.5,0.6-3,1.4-4.5,2.1c-0.3,0.1-0.5,0.2-0.8,0.4
	c-2.2,0.6-4.3,1.5-6.4,2.5c-1.1,0.2-2,0.9-2.8,1.6c-2.8,0.1-5.2,1.2-7.6,2.4l-0.2,0l-0.2,0c0,0.2-0.1,0.4-0.1,0.6
	c0-0.2,0.1-0.4,0.1-0.6c-1.6,0.3-3.2,0.6-4.8,0.9c-1.5,0.4-3,0.3-4.5,0.4c-1.3,0.1-2.7,0.2-4,0.3c-0.3,0-0.5,0-0.8,0
	c-0.1,0.4-0.3,0.9-0.4,1.3c0.2-0.4,0.4-0.9,0.4-1.3c-2.9,0.1-5.7,1-8.4,2.1c-0.4,0.2-0.8,0.5-1.2,0.7c-3.7,0.6-6.6,2.7-9.3,5.2
	c-1.5,0.9-2.9,1.8-4,3.2c1.1,0.2,1.6,0.7,1.9,1.3c-0.3-0.7-0.8-1.2-1.9-1.3c-2.1,0.8-4.2,1.5-6,2.8c-1.8,0.3-3.2,1.1-4.5,2.3
	c0.5,0.3,0.9,0.7,1.5,0.9c-0.6-0.1-1-0.5-1.5-0.9c-3.5,1.7-5.5,5-8,7.7c-1.3,1.8-3.8,2.7-4.5,5.1c-2,1.3-3.6,2.8-4.8,4.9
	c-0.9,0-1.2,0.6-1.6,1.2c-2.7,2.1-5.4,4.3-8,6.4c0.2,0.1,0.4,0.3,0.5,0.5c-0.1-0.2-0.3-0.3-0.5-0.5c-1.9,1.3-3.7,2.7-5.2,4.4
	c-3.1,2-6,4-8.1,7.2c-1,0.3-1.7,1-2,2c-2.9,2.7-5.9,5.4-8,8.8c-1,0.5-1.6,1.4-2,2.4c0.2,0,0.4,0,0.6,0.1c-0.2,0-0.4,0-0.6-0.1
	c-1.9,1.7-3.6,3.7-4.8,6.1c-1.7,0.8-2.4,2.5-3.3,4c-1.4,1.9-2.8,3.7-4.1,5.7c-0.7,1.1-1.7,2.1-1.6,3.6c-2.1,2-3.4,4.5-4.4,7.2
	c0.1,0.3,0.4,0.4,0.5,0.7c-0.2-0.2-0.4-0.4-0.5-0.7c-0.5,0.4-0.8,0.9-1,1.5c-2.9,5.6-5.6,11.3-8.1,17.1c-0.8,1.8-0.9,3.9-2.4,5.4
	c-2,2.2-4.2,4.2-5.9,6.7c-1.4,2-3.2,3.8-3.7,6.3c-0.9,1.7-0.3,3.5-0.4,5.3c0.1,2.2-0.3,4.2-0.8,6.3c-0.4,1.6-1,3.2-1.2,4.8
	c-0.7,4.7-1.2,9.5-2.7,14.1c-1.4,4.1-2.4,8.3-3.2,12.5c-1.2,6.4-1.6,12.9-3.6,19.1c-1.7,5.2-3.3,10.5-4.4,15.9
	c-1.1,5.2-2.4,10.4-2.2,15.8c0.4,7.8-1.3,15.4-1.6,23.1c-0.1,0.8-0.3,1.6-0.4,2.4c0.5,1-0.6,1.8-0.4,2.8c-1.1,2.7-1.1,5.6-1.1,8.4
	c-0.1,6-1.3,11.9-2,17.8c-0.1,1,0.3,2.2-0.5,3.1c0,1.7,0,3.5,0,5.2c0,0.5,0,1.1,0,1.6c0,5.6,0,11.3,0,16.9c0,0.8,0,1.6,0,2.4
	s0,1.6,0,2.4c0,1.2,0,2.4,0,3.6c0,1.5,0,2.9,0,4.4c0,10.9,0,21.7,0,32.6c0.9,4.2,2.8,8.1,4.5,12c0.1,0,0.3-0.1,0.4-0.1
	c-0.1,0.1-0.2,0.1-0.4,0.1c0.3,0.8,0.4,1.5,0.8,2.2c1.1,2.3,1.9,4.9,4,6.6c-0.3,3.7,2,6.3,3.5,9.3c0.1,0.7,0.5,1.1,1.2,1.2
	c0.4-0.3,0.3-0.7,0.5-1.1c-0.1,0.4-0.1,0.8-0.5,1.1c0.1,0.5-0.1,1.2,0.4,1.6c0.4,2.5,2,4.3,3.7,6c0.2,0.8,0.6,1.5,0.7,2.3
	c1.4,6,3.9,11.7,6.1,17.4c0,0.1,0,0.3,0,0.4c-0.1,5.1,0.3,10.2,3,14.7c2.7,4.5,5.9,8.7,9.1,12.9c6.1,8.2,13.4,15.3,20.2,22.9
	c4.7,5.3,10.3,9.6,16,13.8c1.7,1.3,3.3,3,5.5,3.6c2.6,2.6,5.9,4.3,8.9,6.4c1.5,1.1,2.9,2.4,4.8,2.9c0.4,1.1,1.5,1.3,2.4,1.6
	c-0.3-0.8-0.7-1.6-0.9-2.5c0.1,0.9,0.5,1.7,0.9,2.5c0.8,1.1,2,1.7,3.2,2.3c6.2,5,12.6,9.6,19.3,13.9c2.1,1.3,3.9,3.3,6.6,3.4
	c2.3,3.3,6.3,4.1,9.4,6.1c1.6,1,3.3,1.9,5.2,2.4c1.1,0.8,2.2,1.4,3.6,1.7c1.8,1,3.7,1.7,5.7,2.3c1.9,0.8,3.9,1.4,6,1.7
	c2.2,0.6,4.4,1.5,6.8,1.2c1.5,0.7,3,1,4.6,1.1c7.5,0.3,15.1,0.1,22.6-0.4c5.5-0.3,10.8,0.3,16.2,1c3.7,0.5,7.5,0.9,11.2,1.5
	c5.5,0.8,11,1.1,16.5,1.2c1.3,0.1,2.5,0,3.8,0c-1.3,0-2.6,0.2-3.8,0c0,0.1,0,0.3-0.1,0.4c2.3,0,4.6,0,6.8,0c4.4,0,8.8,0,13.3,0
	c1.5,0,2.9,0,4.4,0c1.7-0.6,3.5-0.6,5.2-0.8c5.6-0.6,11.1-1.2,16.7-1.7c3.7-0.4,7.4-0.7,11.1-1.1c8.4-0.9,16.7-2.1,24.6-5.1
	c0.2-0.1,0.4-0.3,0.6-0.5c0.6,0,1.2,0.1,1.6-0.4c1.6-0.1,3-0.8,4.4-1.2c2.5-0.4,4.8-1.5,7.1-2.5c2.9-1.3,6-2,8.6-3.9
	c1.3-0.6,2.7-0.8,3.6-2c0.8,0,1.6-0.3,2.3-0.6c2.3-1.2,4.6-2.4,6.8-3.8c3.5-2.2,7.3-3.8,10.6-6.4c0.3-0.2,0.5-0.3,0.8-0.5
	c1.1-0.1,1.6-1.1,2.5-1.5c-0.2-0.2-0.3-0.3-0.4-0.5c0.1,0.2,0.2,0.3,0.4,0.5c0.8-0.1,0.7-1,1.2-1.3c1.7,0.3,2.6-0.9,3.6-1.9
	c0.7-0.4,1.4-0.8,2-1.3c2.6-2.1,5.6-3.7,7.3-6.7c2.6-1,4.1-3.4,6-5.2c0-0.3,0-0.5,0-0.8c0.9,0.1,1.3-0.3,1.2-1.2
	c0.6,0,0.8-0.3,0.9-0.7c0.1,0,0.2,0,0.2,0c1-0.6,1.7-1.5,2.5-2.4c3.9-3.5,7.2-7.5,10.9-11.2c1.1-0.3,1.4-1.4,2-2.1
	c2.8-2.2,5.4-4.6,8.4-6.4c1.9-0.6,3.7-1.1,5.6-1.7c0-0.1,0-0.2-0.1-0.2c0,0.1,0,0.2,0.1,0.2c3.2-0.7,6.5-1,9.7-2
	c1.9,0.1,3.5-0.8,5.2-1.3c0.4-0.5,0.1-1.7,0.8-1.9c0.1,0,0.2-0.1,0.4,0c-0.2,0-0.3,0-0.4,0c-0.7,0.2-0.4,1.4-0.8,1.9
	c1-0.2,2-0.4,2.8-1.1c5.3-2.3,9.9-5.6,13.6-10.2c3.4-4.2,7.7-7.5,11.7-11.1c2.9-2.7,6-5.3,8.6-8.3c4-4.7,8.4-9.1,12.2-13.9
	c4.3-5.4,8.8-10.7,12.7-16.5c2.7-4,5.3-8.2,7.7-12.4c3.3-5.6,6.2-11.5,9.3-17.2c2.7-5.1,5.4-10.2,8-15.3c3.7-7.1,6.7-14.5,10.2-21.7
	c1.6-3.3,3-6.7,4.4-10.1c3.1-7.6,6.9-14.8,9.7-22.6c2.6-7.2,4.6-14.6,6.5-22c1.6-6.3,2.6-12.6,4.1-18.9c1.8-7.7,2.6-15.5,2.7-23.4
	C3182,67.8,3181.9,62,3179.3,56.8z"/>
<path class="st3" d="M41,1770.3c-1.6-0.6-3.3-0.5-4.9-1.1c-4-1.6-7.6-3.8-10.8-6.8c-4.2-3.9-8-8.3-12.4-12c-3.2-2.8-6.6-5.3-10-8
	c-1.9-1.5-3.7-3-5.7-4.3c-1.6-1.1-3.3-2.1-5.3-2.5c-0.8-0.2-1.4-0.9-2.3-1.2c-3.3-1.3-6.8-1.8-10.1-2.6c-3.8-1-7.4-2.5-11-3.8
	c-2.3-0.8-4.6-1.2-7-1.4c-5-0.5-10.1-0.9-15.1-0.9c-5,0-10,0.4-15,0.5c-3.6,0.1-7,0.7-10.5,1.2c-0.6,0.1-1.1,0.2-1.6,0.6
	c-0.4-0.2-0.8,0-1.3,0.1c-3.1,0.3-6,1.4-9,2c-3.1,0.6-6,1.6-9,2.7c-3.3,1.3-6.7,2.6-10.1,3.7c0.1,0.1,0.2,0.2,0.3,0.2
	c-0.1-0.1-0.2-0.2-0.3-0.2c-0.5,0-0.9,0.2-1.4,0.5c-0.5,0.3-1.1,0.2-1.6,0.6c-0.3,0-0.5,0.1-0.8,0.3c-1.3,0.1-2.5,0.6-3.7,1.2
	c-0.1,0.1-0.1,0.1-0.2,0.2c-1.2,0.3-2.3,0.6-3.5,0.8c-6.7,1.1-13.4,2.1-19.8,4.3c-3.3,1.2-6.7,2.1-9.7,3.8c-0.6-0.1-0.9,0.2-1.3,0.5
	c-0.2,0.1-0.4,0.1-0.5,0.2c-0.7,0.3-1.5,0.5-2.2,0.9c-4.6,2.6-9.2,5.1-13.7,7.8c-5,3-10,6-14.8,9.2c-1.9,1.3-3.9,2.6-5.8,3.9
	c-2.2,1.7-4.6,3.1-6.7,4.8c0.1,0.1,0.3,0.2,0.4,0.3c-0.1-0.1-0.3-0.1-0.4-0.3c-1.5,0.7-2.8,1.7-4.1,2.6c-1.4,1.2-3.1,2.1-4.4,3.4
	c-0.2,0.1-0.5,0.3-0.7,0.4c-0.4,0.4-0.9,0.8-1.3,1.1c0.4-0.4,0.9-0.8,1.3-1.1c-0.1-0.1-0.1-0.2-0.2-0.2c-1,0.9-2,1.8-3,2.7
	c-0.6,0.5-1.2,1.1-1.8,1.6c-0.7,0.6-1.5,1.3-2.2,1.9c0.1,0.1,0.1,0.1,0.2,0.2c-0.1,0.2-0.2,0.4-0.3,0.6c-0.5,0.6-1.5,0.9-1.1,2
	c-0.1,0.1-0.3,0.2-0.4,0.4c-0.1,0.1-0.3,0.2-0.4,0.4c-1.1,1.6-2.2,3.1-3.3,4.7c-1,1.2-2,2.3-3,3.5c-1.5,1.7-3,3.3-4.5,5
	c-0.2,0.3-0.4,0.6-0.6,0.9c0.2,0.2,0.5,0.4,0.7,0.6c-0.2-0.2-0.5-0.4-0.7-0.6c-0.8,0.7-1.5,1.4-1.9,2.3c-1.9,2.1-3.4,4.3-4.5,6.9
	c-0.2,0.2-0.4,0.4-0.4,0.7c-1.6,2.2-2.8,4.6-4,7.1c-0.5,1-0.9,2-1.3,3c-0.1,0.2-0.2,0.4-0.2,0.5c-0.8,1.3-1.5,2.7-2.1,4.1
	c-0.4,0.6-0.6,1.3-0.7,2c-1.4,1.2-2.1,2.9-2.7,4.5l-0.1,0.1l-0.1,0.1c0.1,0.1,0.1,0.2,0.2,0.3c-0.1-0.1-0.1-0.2-0.2-0.3
	c-0.7,0.9-1.3,1.7-2,2.6c-0.6,0.8-1.4,1.4-2.1,2.1c-0.6,0.6-1.2,1.3-1.8,1.9c-0.1,0.1-0.3,0.2-0.4,0.4c0.1,0.2,0.2,0.6,0.3,0.8
	c-0.1-0.3-0.2-0.6-0.3-0.8c-1.4,1.4-2.4,3-3.2,4.7c-0.1,0.3-0.2,0.6-0.3,0.9c-1.6,1.9-2.1,4.3-2.3,6.7c-0.3,1.1-0.6,2.2-0.6,3.4
	c0.6-0.4,1.1-0.4,1.5-0.2c-0.4-0.2-0.9-0.2-1.5,0.2c-0.6,1.3-1.4,2.6-1.7,4.1c-0.8,0.9-1.1,2-1.2,3.1c0.4-0.1,0.8,0,1.1-0.2
	c-0.3,0.2-0.7,0.2-1.1,0.2c-1,2.4-0.5,4.9-0.5,7.3c0.2,1.5-0.7,3,0,4.5c-0.4,1.5-0.5,3-0.2,4.5c-0.4,0.4-0.3,0.8-0.3,1.3
	c-0.4,2.2-0.8,4.5-1.2,6.7c0.2,0,0.3,0,0.5,0c-0.1,0-0.3,0-0.5,0c-0.3,1.5-0.7,3-0.6,4.5c-0.7,2.3-1.2,4.7-0.8,7.1
	c-0.3,0.6-0.4,1.2-0.1,1.9c-0.3,2.6-0.6,5.3-0.1,7.9c-0.3,0.7-0.2,1.4,0.1,2.1c0.1-0.1,0.2-0.2,0.3-0.2c-0.1,0.1-0.2,0.2-0.3,0.2
	c-0.2,1.7-0.2,3.4,0.3,5.1c-0.5,1.2-0.1,2.3,0.1,3.4c0.1,1.5,0.2,3.1,0.5,4.6c0.1,0.8,0.1,1.8,0.8,2.5c-0.2,1.9,0.3,3.7,0.9,5.5
	c0.2,0.1,0.4,0.1,0.5,0.1c-0.2-0.1-0.4,0-0.5-0.1c-0.1,0.4,0,0.8,0.1,1.2c1.1,4,2.2,8.1,3.5,12.1c0.4,1.2,1.2,2.3,1.2,3.8
	c-0.1,2-0.2,4,0,5.9c0.2,1.6,0.1,3.3,0.9,4.8c0.3,1.2,1.4,1.9,2.1,2.8c1,1,1.7,2.2,2.4,3.5c0.5,1,0.9,2,1.5,2.9
	c1.7,2.6,3.6,5.2,4.8,8.2c1.1,2.7,2.5,5.2,3.9,7.6c2.2,3.7,4.9,7.1,6.7,11c1.5,3.3,3,6.6,4.8,9.8c1.8,3,3.4,6.2,5.9,8.8
	c3.6,3.7,6.1,8.2,9.4,12.1c0.3,0.5,0.6,0.9,0.9,1.4c0.7,0.3,0.5,1.2,1,1.6c0.7,1.8,1.9,3.2,3.1,4.7c2.6,3,4.6,6.5,6.9,9.7
	c0.4,0.6,1.1,1,1.1,1.8c0.8,0.9,1.5,1.7,2.3,2.6c0.2,0.3,0.5,0.5,0.7,0.8c2.5,2.8,4.9,5.6,7.4,8.4c0.4,0.4,0.7,0.8,1.1,1.2
	c0.4,0.4,0.7,0.8,1.1,1.2c0.5,0.6,1.1,1.2,1.6,1.8c0.6,0.7,1.3,1.5,1.9,2.2c4.8,5.4,9.5,10.7,14.3,16.1c2.3,1.7,4.9,2.8,7.5,4
	c0.1-0.1,0.1-0.2,0.1-0.2c0,0.1-0.1,0.1-0.1,0.2c0.5,0.3,0.9,0.6,1.4,0.8c1.6,0.7,3.1,1.6,4.9,1.5c1.5,1.9,3.8,2.2,5.8,3
	c0.4,0.3,0.7,0.4,1.1,0.1c0.1-0.3-0.1-0.5-0.2-0.7c0.1,0.2,0.3,0.4,0.2,0.7c0.3,0.2,0.5,0.6,0.9,0.6c1.3,1.1,2.9,1.2,4.5,1.4
	c0.5,0.3,0.9,0.5,1.4,0.8c3.3,2.4,7,4.1,10.7,6c0.1,0.1,0.1,0.1,0.2,0.2c2.2,2.6,4.7,4.9,8,6c3.3,1,6.7,1.7,10.2,2.4
	c6.6,1.3,13.4,1.7,20.1,2.5c4.7,0.5,9.4,0.2,14-0.2c1.4-0.1,2.9,0.1,4.3-0.7c2.4,0.2,4.8-0.5,7.2-0.8c1.2-0.1,2.5-0.1,3.6-0.7
	c0.7,0.4,1.3,0,1.9-0.2c-0.5-0.2-1.1-0.5-1.5-0.8c0.5,0.4,1,0.6,1.5,0.8c0.9,0.2,1.8,0,2.6-0.3c5.2-0.3,10.5-0.8,15.7-1.6
	c1.6-0.3,3.4-0.1,4.8-1.2c2.6,0.6,4.9-0.7,7.4-1.1c1.2-0.2,2.5-0.5,3.6-1.1c0.9-0.1,1.7-0.3,2.5-0.7c1.3-0.3,2.6-0.8,3.8-1.4
	c1.3-0.4,2.6-1,3.7-1.8c1.4-0.7,2.8-1.2,3.9-2.4c1-0.3,2-0.8,2.8-1.5c3.9-3.2,7.5-6.6,11-10.1c2.6-2.6,5.5-4.6,8.5-6.6
	c2.1-1.4,4.1-2.9,6.2-4.2c3.1-2,5.9-4.3,8.7-6.7c0.7-0.5,1.2-1.1,1.9-1.7c-0.6,0.6-1.2,1.2-1.9,1.7c0.1,0.1,0.1,0.2,0.2,0.2
	c1.1-1,2.3-2,3.4-3c2.2-1.9,4.4-3.9,6.6-5.8c0.7-0.6,1.5-1.3,2.2-1.9c0.6-1.1,1.5-1.8,2.2-2.7c2.5-2.7,5-5.5,7.5-8.2
	c1.7-1.8,3.4-3.6,5-5.4c3.8-4.1,7.3-8.3,9.9-13.3c0.1-0.2,0.1-0.3,0.1-0.5c0.3-0.3,0.6-0.5,0.6-0.9c0.7-0.7,1.1-1.7,1.7-2.5
	c1-1.3,1.7-2.8,2.4-4.3c0.9-1.9,2.1-3.6,2.5-5.7c0.4-0.8,1-1.6,0.9-2.6c0.4-0.3,0.7-0.8,0.9-1.3c0.6-1.6,1.2-3.2,1.7-4.9
	c0.8-2.6,2-5.1,2.4-7.8c0.1-0.2,0.1-0.4,0.2-0.6c0.5-0.5,0.3-1.2,0.5-1.8c-0.1,0-0.3,0-0.4-0.1c0.1,0,0.3,0.1,0.4,0.1
	c0.3-0.4-0.1-0.8,0-1.2c1-0.6,0.9-1.6,1-2.5c0.1-0.5,0.3-1,0.4-1.5c0.3-2.2,1.2-4.3,0.7-6.5c0.8-1.7,0.5-3.5,0.6-5.2
	c-0.1-0.1-0.2-0.3-0.3-0.4c0.5-0.3,0.5-0.7,0.1-1.1c0.3-0.2,0.2-0.5,0.1-0.8c0,0,0.1-0.1,0.1-0.1c0.3-0.7,0.2-1.5,0.2-2.3
	c0.4-3.4,0.3-6.9,0.5-10.3c0.4-0.6,0.1-1.3,0.1-1.9c0.4-2.3,0.6-4.6,1.3-6.9c0.7-1.1,1.4-2.2,2.1-3.3c0,0-0.1-0.1-0.1-0.1
	c0,0,0.1,0.1,0.1,0.1c1.3-1.8,2.8-3.4,3.9-5.2c1-0.8,1.4-1.9,2-2.9c0-0.4-0.7-0.9-0.5-1.3c0-0.1,0.1-0.1,0.2-0.2
	c-0.1,0.1-0.2,0.1-0.2,0.2c-0.2,0.4,0.4,0.9,0.5,1.3c0.4-0.5,0.9-1.1,0.9-1.8c1.6-3.5,2.4-7.1,2.3-11c-0.1-3.6,0.5-7.1,0.9-10.7
	c0.3-2.6,0.6-5.2,0.6-7.9c-0.1-4.1,0.1-8.2-0.1-12.3c-0.2-4.6-0.4-9.2-1-13.7c-0.4-3.2-1-6.4-1.6-9.5c-0.8-4.2-2-8.4-3-12.6
	c-0.9-3.7-1.8-7.4-2.7-11.1c-1.3-5.1-3.1-10.1-4.5-15.2c-0.7-2.3-1.4-4.6-2.2-6.9c-1.8-5.1-3.1-10.4-5.1-15.4
	c-1.9-4.7-4.1-9.2-6.5-13.7c-2-3.8-4.3-7.4-6.3-11.2c-2.5-4.6-5.5-8.8-8.9-12.8C47.2,1774.6,44.6,1771.8,41,1770.3z"/>
<path class="st3" d="M1169.5,3283.4c0.9,1.6,2.5,2.7,3.5,4.4c2.3,4.2,3.9,8.6,4.7,13.4c1,6.3,1.1,12.7,2.3,19
	c0.9,4.7,2,9.3,3.1,13.9c0.6,2.6,1.2,5.2,1.9,7.7c0.6,2.1,1.5,4.1,2.9,5.9c0.6,0.7,0.6,1.8,1.1,2.7c1.9,3.4,4.6,6.2,7,9.3
	c2.6,3.5,4.7,7.3,6.9,11c1.4,2.3,3.2,4.3,5.1,6.1c4,4,8.1,7.8,12.5,11.3c4.3,3.5,8.9,6.6,13.3,10c3.1,2.4,6.6,4.3,9.9,6.3
	c0.5,0.3,1.1,0.7,1.8,0.5c0.2,0.5,0.7,0.6,1.1,0.8c2.9,1.9,6.2,3,9.2,4.6c3.1,1.6,6.3,2.8,9.6,3.9c3.8,1.2,7.6,2.4,11.3,3.8
	c0-0.1,0-0.3,0-0.4c0,0.1,0,0.3,0,0.4c0.4,0.4,1,0.4,1.5,0.5c0.6,0.1,1.1,0.6,1.8,0.6c0.2,0.2,0.6,0.2,0.9,0.3
	c1.2,0.8,2.6,1.2,4,1.5c0.1,0,0.2,0,0.3,0c1.2,0.6,2.4,1.1,3.6,1.7c6.5,3.7,13,7.5,20.1,10.1c3.7,1.3,7.2,2.8,11.1,3.5
	c0.4,0.5,1,0.5,1.5,0.5c0.2,0.1,0.4,0.1,0.6,0.2c0.8,0.3,1.7,0.6,2.5,0.7c5.8,1,11.5,1.9,17.3,2.8c6.4,0.9,12.8,1.8,19.3,2.3
	c2.6,0.2,5.2,0.5,7.8,0.7c3.1,0.1,6.1,0.6,9.2,0.5c0-0.2-0.1-0.3-0.2-0.5c0.1,0.2,0.2,0.3,0.2,0.5c1.8,0.5,3.6,0.4,5.4,0.6
	c2.1-0.1,4.2,0.4,6.2,0.1c0.3,0.1,0.6,0.1,0.9,0.2c0.6,0,1.3-0.1,1.9-0.1c-0.6,0-1.3,0.1-1.9,0.1c0,0.1,0,0.2,0,0.3
	c1.5-0.1,3-0.1,4.4-0.2c0.9,0,1.8-0.1,2.7-0.1c1.1-0.1,2.2-0.1,3.3-0.2c0-0.1,0-0.2-0.1-0.3c0.2-0.1,0.4-0.2,0.6-0.3
	c0.8-0.2,1.9,0.2,2.3-1c0.2,0,0.4,0,0.6,0c0.2,0,0.4,0,0.6,0c2-0.6,4.1-1.2,6.1-1.8c1.7-0.3,3.3-0.6,5-0.9c2.5-0.4,4.9-0.8,7.4-1.2
	c0.4-0.1,0.7-0.2,1.1-0.3c-0.1-0.3-0.1-0.7-0.2-1c0.1,0.3,0.1,0.7,0.2,1c1.1,0,2.2-0.2,3.3-0.7c3.1-0.5,6-1.4,8.7-2.8
	c0.3,0,0.6,0,0.9-0.3c2.9-0.8,5.7-2.1,8.4-3.3c1.1-0.5,2.1-1.1,3.2-1.7c0.2-0.1,0.4-0.2,0.6-0.3c1.6-0.5,3.1-1.3,4.6-2.1
	c0.8-0.2,1.4-0.7,2-1.3c2-0.1,3.8-1,5.5-2l0.1,0l0.1,0c0-0.1,0-0.3,0.1-0.4c0,0.1,0,0.3-0.1,0.4c1.2-0.3,2.3-0.6,3.5-0.8
	c1.1-0.3,2.2-0.3,3.3-0.4c1-0.1,2-0.3,2.9-0.4c0.2,0,0.4,0,0.6,0c0-0.3,0.2-0.6,0.3-1c-0.1,0.3-0.2,0.6-0.3,1
	c2.2-0.2,4.2-0.9,6.1-1.8c0.3-0.2,0.6-0.4,0.9-0.5c2.7-0.6,4.8-2.2,6.6-4.2c1-0.7,2.1-1.5,2.8-2.5c-0.8-0.1-1.2-0.4-1.4-0.9
	c0.2,0.5,0.6,0.8,1.4,0.9c1.5-0.7,3-1.2,4.3-2.3c1.3-0.3,2.3-1,3.2-1.9c-0.4-0.2-0.7-0.5-1.1-0.6c0.4,0.1,0.7,0.4,1.1,0.6
	c2.5-1.4,3.9-3.9,5.6-6c0.9-1.4,2.7-2.1,3.1-3.9c1.4-1,2.6-2.2,3.4-3.8c0.6,0,0.9-0.5,1.1-1c1.9-1.7,3.8-3.3,5.7-5
	c-0.2-0.1-0.3-0.2-0.4-0.3c0.1,0.1,0.2,0.2,0.4,0.3c1.3-1.1,2.6-2.1,3.7-3.5c2.2-1.6,4.3-3.2,5.7-5.6c0.7-0.3,1.2-0.8,1.4-1.6
	c2.1-2.1,4.1-4.2,5.6-6.8c0.7-0.4,1.2-1.1,1.4-1.9c-0.2,0-0.3,0-0.5,0c0.1,0,0.3,0,0.5,0c1.4-1.4,2.5-2.8,3.3-4.6
	c1.2-0.7,1.7-1.9,2.3-3.1c0.9-1.4,1.9-2.8,2.8-4.3c0.5-0.8,1.2-1.6,1-2.7c1.5-1.5,2.4-3.4,3-5.4c-0.1-0.2-0.3-0.3-0.4-0.5
	c0.1,0.2,0.3,0.3,0.4,0.5c0.4-0.3,0.5-0.7,0.7-1.1c1.9-4.3,3.7-8.5,5.4-12.9c0.5-1.4,0.5-2.9,1.6-4.1c1.4-1.7,2.9-3.3,4.1-5.1
	c0.9-1.5,2.2-2.9,2.5-4.8c0.6-1.3,0.1-2.6,0.1-3.9c-0.2-1.6,0.1-3.1,0.4-4.7c0.3-1.2,0.6-2.4,0.7-3.6c0.3-3.5,0.5-7.1,1.5-10.5
	c0.9-3.1,1.5-6.2,1.9-9.3c0.6-4.7,0.7-9.5,1.9-14.2c1-3.9,2-7.8,2.7-11.9c0.6-3.9,1.4-7.7,1-11.7c-0.5-5.7,0.4-11.4,0.3-17.1
	c0.1-0.6,0.1-1.2,0.2-1.8c-0.4-0.7,0.4-1.4,0.2-2.1c0.7-2,0.6-4.2,0.5-6.2c-0.1-4.4,0.5-8.8,0.8-13.2c0-0.8-0.3-1.6,0.3-2.3
	c-0.1-1.3-0.1-2.6-0.2-3.8c0-0.4,0-0.8-0.1-1.2c-0.2-4.1-0.4-8.3-0.6-12.4c0-0.6-0.1-1.2-0.1-1.8c0-0.6-0.1-1.2-0.1-1.8
	c0-0.9-0.1-1.8-0.1-2.7c-0.1-1.1-0.1-2.2-0.2-3.3c-0.4-8-0.8-16-1.2-24c-0.8-3.1-2.4-5.8-3.7-8.7c-0.1,0-0.2,0.1-0.3,0.1
	c0.1,0,0.2-0.1,0.3-0.1c-0.2-0.5-0.4-1.1-0.7-1.6c-0.9-1.7-1.6-3.6-3.2-4.7c0.1-2.7-1.7-4.6-2.9-6.7c-0.1-0.5-0.4-0.8-0.9-0.8
	c-0.3,0.2-0.2,0.5-0.3,0.8c0.1-0.3,0.1-0.6,0.3-0.8c-0.1-0.4,0-0.9-0.4-1.2c-0.4-1.8-1.6-3.1-2.9-4.3c-0.2-0.5-0.5-1.1-0.6-1.6
	c-1.2-4.4-3.3-8.5-5.1-12.6c0-0.1,0-0.2,0-0.3c-0.1-3.8-0.6-7.5-2.8-10.7c-2.2-3.2-4.7-6.2-7.1-9.2c-4.8-5.8-10.4-10.8-15.7-16.1
	c-3.7-3.7-8-6.7-12.3-9.6c-1.3-0.9-2.5-2.1-4.2-2.4c-2-1.9-4.5-2.9-6.8-4.4c-1.1-0.7-2.2-1.7-3.6-1.9c-0.4-0.8-1.1-0.9-1.8-1.1
	c0.3,0.6,0.6,1.2,0.7,1.8c-0.1-0.7-0.5-1.2-0.7-1.8c-0.7-0.8-1.5-1.2-2.4-1.6c-4.7-3.4-9.6-6.6-14.7-9.5c-1.6-0.9-3-2.3-5-2.3
	c-1.8-2.3-4.8-2.8-7.2-4.2c-1.2-0.7-2.5-1.3-3.9-1.5c-0.8-0.6-1.7-1-2.7-1.1c-1.4-0.7-2.8-1.1-4.3-1.5c-1.4-0.6-2.9-0.9-4.5-1
	c-1.7-0.3-3.3-0.9-5.1-0.6c-1.1-0.4-2.3-0.7-3.4-0.7c-5.6,0-11.1,0.5-16.6,1.1c-4,0.4-8,0.2-12-0.2c-2.8-0.2-5.6-0.4-8.3-0.7
	c-4.1-0.4-8.1-0.4-12.2-0.3c-0.9-0.1-1.9,0.1-2.8,0.2c0.9-0.1,1.9-0.2,2.8-0.2c0-0.1,0-0.2,0-0.3c-1.7,0.1-3.4,0.2-5,0.2
	c-3.3,0.2-6.5,0.3-9.8,0.5c-1.1,0.1-2.2,0.1-3.3,0.2c-1.2,0.5-2.5,0.6-3.8,0.8c-4.1,0.6-8.1,1.2-12.2,1.9c-2.7,0.4-5.4,0.8-8.1,1.2
	c-6.1,0.9-12.2,2.1-17.9,4.6c-0.2,0.1-0.3,0.2-0.5,0.4c-0.4,0-0.9,0-1.2,0.4c-1.1,0.1-2.1,0.7-3.2,1.1c-1.8,0.4-3.5,1.3-5.1,2.1
	c-2.1,1-4.4,1.7-6.2,3.2c-0.9,0.5-2,0.7-2.6,1.6c-0.6,0-1.2,0.3-1.7,0.6c-1.6,1-3.3,1.9-4.9,3c-2.5,1.7-5.3,3.1-7.6,5.1
	c-0.2,0.1-0.4,0.3-0.6,0.4c-0.8,0.1-1.1,0.9-1.8,1.2c0.1,0.1,0.2,0.2,0.3,0.4c-0.1-0.1-0.2-0.2-0.3-0.4c-0.6,0.1-0.5,0.7-0.8,1
	c-1.3-0.1-1.9,0.8-2.6,1.5c-0.5,0.3-1,0.6-1.4,1c-1.8,1.6-4,2.9-5.1,5.2c-1.9,0.9-2.9,2.6-4.2,4.1c0,0.2,0,0.4,0,0.6
	c-0.7-0.1-0.9,0.3-0.8,0.9c-0.4,0-0.5,0.3-0.6,0.6c-0.1,0-0.1,0-0.2,0c-0.7,0.5-1.2,1.2-1.7,1.9c-2.7,2.7-5,5.8-7.6,8.6
	c-0.8,0.2-1,1-1.4,1.6c-2,1.7-3.8,3.6-6,5c-1.4,0.5-2.7,0.9-4.1,1.4c0,0.1,0,0.1,0.1,0.2c0-0.1,0-0.1-0.1-0.2c-2.3,0.7-4.8,1-7,1.8
	c-1.4,0-2.5,0.7-3.8,1.1c-0.3,0.4,0,1.2-0.5,1.4c-0.1,0-0.2,0-0.3,0c0.1,0,0.2,0,0.3,0c0.5-0.2,0.2-1.1,0.5-1.4
	c-0.7,0.2-1.5,0.3-2,0.9c-3.9,1.9-7.1,4.5-9.7,8c-2.4,3.2-5.4,5.8-8.2,8.6c-2.1,2.1-4.2,4.1-6,6.4c-2.8,3.6-5.8,7-8.5,10.7
	c-3,4.1-6.1,8.2-8.7,12.6c-1.9,3.1-3.6,6.2-5.2,9.4c-2.2,4.3-4.2,8.7-6.2,13c-1.8,3.8-3.6,7.7-5.4,11.5c-2.5,5.4-4.4,10.9-6.7,16.4
	c-1,2.5-2,5-2.9,7.6c-2,5.7-4.6,11.2-6.3,17c-1.6,5.4-2.9,10.9-4,16.4c-0.9,4.7-1.5,9.4-2.3,14.1c-1,5.7-1.4,11.5-1.2,17.3
	C1167.1,3275.4,1167.3,3279.6,1169.5,3283.4z"/>
<path class="st0" d="M3689.8-53.7c-3,3.7-6,7.5-9,11.2c-0.5,1.5-0.9,2.9-1,4.2c0-1.3,0.4-2.7,1-4.2c-5,8.8-12.7,15.8-17.4,24.4
	c-3.7,6.8-11,11.5-11.3,20.1c-0.8,1.2-1.6,2.3-2.4,3.5c-4.4,8.5-5.3,18-7.2,27.1c-3.2,15.6-4.1,31.4-1.2,47.1
	c1.3,7,4.5,13.8,11.1,16.7c5.6,2.5,8.9,6.8,12.1,11c7.7,10.1,15.5,20.1,25,28.5c2.8,2.5,5.9,5.3,10.7,5.1
	c10.7-0.4,21.1-2.1,31.7-4.1c17.5-3.2,34.7-7.1,51.8-11.7c4.4,0.4,8.1-1.5,11.8-3.5c0.8,0.4,1.4,0.5,1.8-0.4
	c2.6-0.9,5.4-1.5,7.8-2.7c16.6-8.3,31-19.5,44.2-32.4c7.8-7.6,16-14.8,23.4-22.8c8.5-9.1,13-20.7,17.6-32
	c10.3-26,18.7-52.7,25.2-79.9c2.3-9.8,4.8-20.1,2.3-30.7c-3.2-14.1-10.9-25.7-19.2-36.9c-5.2-7-11.2-14-20.2-16.6
	c-14.2-4.1-28.6-7.2-43.5-7.4c-15.1-0.2-30.5-3.5-45,3.6c-6.1,3-12.1,6.5-18.1,9.7c-6.4,5.9-15.7,7-22,13.3
	c-0.6,0.2-1.4,0.1-1.9,0.5c-15.7,11.7-30.9,23.7-42.9,39.5C3700-66.8,3692.5-62.1,3689.8-53.7z"/>
<path class="st0" d="M2422.8,2498.3c-3,3.7-6,7.5-9,11.2c-0.5,1.5-0.9,2.9-1,4.2c0-1.3,0.4-2.7,1-4.2c-5,8.8-12.7,15.8-17.4,24.4
	c-3.7,6.8-11,11.5-11.3,20.1c-0.8,1.2-1.6,2.3-2.4,3.5c-4.4,8.5-5.3,18-7.2,27.1c-3.2,15.6-4.1,31.4-1.2,47.1
	c1.3,7,4.5,13.8,11.1,16.7c5.6,2.5,8.9,6.8,12.1,11c7.7,10.1,15.5,20.1,25,28.5c2.8,2.5,5.9,5.3,10.7,5.1
	c10.7-0.4,21.1-2.1,31.7-4.1c17.5-3.2,34.7-7.1,51.8-11.7c4.4,0.4,8.1-1.5,11.8-3.5c0.8,0.4,1.4,0.5,1.8-0.4
	c2.6-0.9,5.4-1.5,7.8-2.7c16.6-8.3,31-19.5,44.2-32.4c7.8-7.6,16-14.8,23.4-22.8c8.5-9.1,13-20.7,17.6-32
	c10.3-26,18.7-52.7,25.2-79.9c2.3-9.8,4.8-20.1,2.3-30.7c-3.2-14.1-10.9-25.7-19.2-36.9c-5.2-7-11.2-14-20.2-16.6
	c-14.2-4.1-28.6-7.2-43.5-7.4c-15.1-0.2-30.5-3.5-45,3.6c-6.1,3-12.1,6.5-18.1,9.7c-6.4,5.9-15.7,7-22,13.3
	c-0.6,0.2-1.4,0.1-1.9,0.5c-15.7,11.7-30.9,23.7-42.9,39.5C2433,2485.2,2425.5,2489.9,2422.8,2498.3z"/>
<path class="st3" d="M502.8,2058.9c-1.1,1.3-1.5,3-2.6,4.3c-2.8,3.3-6,6.1-9.8,8.2c-5,2.8-10.3,5-15.2,8c-3.6,2.2-7.1,4.7-10.7,7
	c-2,1.3-4,2.6-5.9,4.1c-1.6,1.2-3,2.5-4,4.3c-0.4,0.7-1.3,1.1-1.9,1.8c-2.2,2.7-3.8,5.9-5.6,8.8c-2.1,3.3-4.6,6.3-7,9.3
	c-1.5,1.9-2.6,4-3.5,6.2c-2.1,4.6-4,9.3-5.5,14.1c-1.5,4.7-2.7,9.6-4.2,14.4c-1,3.4-1.5,6.9-2.1,10.4c-0.1,0.6-0.2,1.1,0.1,1.7
	c-0.3,0.3-0.3,0.8-0.3,1.2c-0.7,3-0.6,6.1-0.9,9.2c-0.4,3.1-0.4,6.2-0.2,9.3c0.2,3.6,0.4,7.1,0.4,10.7c0.1-0.1,0.2-0.1,0.3-0.2
	c-0.1,0.1-0.2,0.1-0.3,0.2c-0.2,0.5-0.1,1,0.1,1.4c0.1,0.5-0.2,1.1,0.1,1.7c-0.1,0.3,0,0.5,0.1,0.8c-0.3,1.3-0.2,2.6,0,3.8
	c0,0.1,0.1,0.2,0.1,0.3c-0.1,1.2-0.1,2.4-0.3,3.6c-1,6.7-2.2,13.3-2,20.1c0.1,3.5-0.1,7,0.6,10.4c-0.3,0.5-0.1,1,0.1,1.4
	c0,0.2,0,0.4,0,0.6c0.1,0.8,0,1.6,0.2,2.4c1,5.1,2,10.3,3.2,15.4c1.3,5.7,2.6,11.3,4.2,16.9c0.6,2.2,1.2,4.5,1.9,6.8
	c0.9,2.6,1.5,5.3,2.5,7.9c0.2-0.1,0.3-0.2,0.4-0.3c-0.1,0.1-0.2,0.2-0.4,0.3c0.2,1.6,0.8,3.2,1.2,4.7c0.7,1.7,1,3.6,1.9,5.3
	c0,0.3,0.1,0.5,0.1,0.8c0.2,0.5,0.5,1.1,0.7,1.6c-0.2-0.5-0.5-1-0.7-1.6c-0.1,0-0.2,0.1-0.3,0.1c0.5,1.2,1.1,2.4,1.6,3.7
	c0.3,0.7,0.6,1.5,1,2.2c0.4,0.9,0.8,1.8,1.2,2.7c0.1,0,0.2-0.1,0.2-0.1c0.1,0.1,0.3,0.3,0.4,0.4c0.4,0.7,0.5,1.7,1.6,1.6
	c0.1,0.2,0.1,0.3,0.2,0.5c0.1,0.2,0.1,0.3,0.2,0.5c1.2,1.5,2.3,3.1,3.5,4.6c0.8,1.3,1.6,2.6,2.4,3.9c1.1,1.9,2.2,3.9,3.4,5.8
	c0.2,0.3,0.4,0.6,0.6,0.8c0.3-0.2,0.5-0.3,0.8-0.5c-0.2,0.2-0.5,0.3-0.8,0.5c0.4,1,0.9,1.8,1.6,2.5c1.4,2.4,3.1,4.6,5.2,6.4
	c0.1,0.3,0.2,0.5,0.5,0.6c1.6,2.2,3.5,4.1,5.5,6c0.8,0.8,1.6,1.4,2.4,2.2c0.1,0.1,0.3,0.3,0.4,0.4c1,1.2,2.1,2.2,3.2,3.2
	c0.4,0.6,1.1,1,1.7,1.3c0.8,1.7,2.1,2.9,3.5,4l0.1,0.1l0.1,0.1c0.1,0,0.3-0.1,0.4-0.1c-0.1,0-0.3,0.1-0.4,0.1
	c0.6,0.9,1.2,1.8,1.8,2.7c0.6,0.8,1,1.7,1.4,2.6c0.4,0.8,0.8,1.6,1.3,2.3c0.1,0.2,0.1,0.3,0.2,0.5c0.3-0.1,0.6,0,0.9-0.1
	c-0.3,0-0.6,0-0.9,0.1c0.9,1.7,2.1,3.2,3.5,4.6c0.2,0.2,0.5,0.4,0.7,0.6c1.4,2.1,3.4,3.3,5.6,4.2c0.9,0.6,1.9,1.3,3,1.6
	c-0.2-0.7,0-1.1,0.3-1.5c-0.3,0.4-0.5,0.8-0.3,1.5c1.1,1,2,2.2,3.3,2.9c0.6,1,1.5,1.6,2.6,2.1c0.1-0.4,0.2-0.7,0.1-1.1
	c0.1,0.4-0.1,0.7-0.1,1.1c2,1.7,4.5,2,6.8,2.8c1.5,0.3,2.6,1.6,4.3,1.3c1.3,0.8,2.7,1.4,4.2,1.6c0.2,0.5,0.7,0.6,1.2,0.7
	c2,1.1,4,2.1,6,3.2c0-0.2,0.1-0.3,0.1-0.4c-0.1,0.1-0.1,0.3-0.1,0.4c1.3,0.8,2.6,1.5,4.1,2c2,1.3,4.1,2.6,6.5,3
	c0.5,0.5,1,0.8,1.8,0.7c2.4,1.1,4.8,2.2,7.5,2.5c0.6,0.5,1.3,0.6,2,0.6c0-0.1-0.1-0.3-0.1-0.4c0,0.1,0.1,0.3,0.1,0.4
	c1.6,0.7,3.2,1.2,4.9,1.3c1,0.8,2.1,0.8,3.3,0.9c1.5,0.3,3,0.7,4.5,1c0.8,0.1,1.7,0.5,2.6,0c1.8,0.8,3.6,0.9,5.5,0.8
	c0.1-0.1,0.2-0.3,0.3-0.5c-0.1,0.2-0.1,0.3-0.3,0.5c0.4,0.2,0.8,0.2,1.2,0.2c4.2,0.2,8.4,0.4,12.6,0.4c1.3,0,2.6-0.5,3.9,0
	c1.9,0.7,3.7,1.4,5.6,1.8c1.6,0.3,3.1,0.9,4.8,0.6c1.3,0.1,2.2-0.7,3.3-1.1c1.3-0.6,2.6-1,4.1-1.2c1.1-0.2,2.2-0.2,3.3-0.5
	c3.1-0.8,6.1-1.8,9.3-2.1c2.9-0.2,5.7-0.7,8.5-1.4c4.2-1,8.2-2.5,12.6-2.9c3.6-0.4,7.2-0.8,10.8-1.6c3.4-0.7,6.9-1.3,10.1-2.9
	c4.6-2.3,9.7-3.3,14.4-5.2c0.5-0.1,1.1-0.3,1.6-0.4c0.5-0.6,1.3-0.1,1.8-0.5c1.9-0.1,3.7-0.8,5.4-1.5c3.7-1.5,7.6-2.4,11.3-3.5
	c0.7-0.2,1.2-0.7,2-0.5c1.1-0.5,2.1-0.9,3.2-1.4c0.3-0.1,0.7-0.3,1-0.4c3.4-1.5,6.8-3,10.2-4.5c0.5-0.2,1-0.4,1.5-0.6s1-0.4,1.5-0.6
	c0.7-0.3,1.5-0.6,2.2-1c0.9-0.4,1.8-0.8,2.7-1.2c6.6-2.9,13.2-5.8,19.7-8.6c2.3-1.7,4.2-3.9,6.1-5.9c-0.1-0.1-0.1-0.2-0.2-0.2
	c0.1,0,0.1,0.1,0.2,0.2c0.4-0.4,0.8-0.7,1.2-1.1c1.1-1.3,2.5-2.4,2.9-4.2c2.3-0.8,3.3-2.9,4.7-4.6c0.4-0.2,0.6-0.6,0.4-1
	c-0.3-0.2-0.5,0-0.8,0c0.3,0,0.5-0.1,0.8,0c0.3-0.2,0.7-0.2,0.9-0.7c1.4-0.9,2.1-2.3,2.7-3.8c0.4-0.3,0.8-0.7,1.2-1
	c3.3-2.4,6.1-5.4,9-8.3c0.1,0,0.2-0.1,0.2-0.1c3.1-1.3,6.1-2.9,8.1-5.7c2-2.8,3.7-5.9,5.4-8.9c3.3-5.9,5.8-12.2,8.6-18.3
	c2-4.3,3.1-8.8,4.1-13.4c0.3-1.4,1-2.8,0.7-4.3c0.9-2.3,1-4.7,1.5-7.1c0.2-1.2,0.7-2.4,0.5-3.6c0.6-0.6,0.4-1.2,0.4-1.9
	c-0.4,0.4-0.8,0.9-1.3,1.2c0.5-0.3,0.9-0.8,1.3-1.2c0.4-0.8,0.5-1.7,0.5-2.6c1.4-5.1,2.5-10.2,3.3-15.4c0.2-1.6,0.9-3.2,0.3-4.9
	c1.4-2.3,0.8-4.9,1.2-7.4c0.2-1.2,0.3-2.5,0-3.8c0.2-0.9,0.3-1.7,0.1-2.6c0.2-1.4,0-2.7-0.1-4.1c0-1.4-0.2-2.8-0.6-4.1
	c-0.3-1.5-0.3-3.1-1.1-4.5c0-1.1-0.2-2.1-0.5-3.1c-1.8-4.7-4-9.2-6.2-13.6c-1.7-3.2-2.7-6.7-3.7-10.1c-0.7-2.4-1.4-4.8-2.1-7.2
	c-1-3.5-2.2-6.9-3.6-10.3c-0.3-0.8-0.7-1.5-1-2.3c0.3,0.8,0.8,1.5,1,2.3c0.1,0,0.2-0.1,0.3-0.1c-0.6-1.4-1.2-2.8-1.8-4.1
	c-1.2-2.7-2.3-5.4-3.5-8c-0.4-0.9-0.8-1.8-1.2-2.7c-0.8-0.9-1.3-2-1.9-3c-1.8-3.2-3.7-6.4-5.5-9.7c-1.2-2.1-2.4-4.3-3.6-6.5
	c-2.7-4.8-5.7-9.6-9.6-13.5c-0.1-0.1-0.3-0.2-0.4-0.3c-0.2-0.3-0.2-0.7-0.7-0.9c-0.5-0.9-1.3-1.6-1.9-2.4c-0.9-1.4-2.2-2.5-3.4-3.6
	c-1.5-1.4-2.8-3.1-4.7-4.2c-0.7-0.6-1.2-1.5-2.2-1.7c-0.2-0.5-0.6-0.9-1-1.2c-1.3-1.1-2.7-2.2-4.1-3.1c-2.3-1.5-4.3-3.4-6.7-4.7
	c-0.2-0.1-0.3-0.2-0.5-0.3c-0.4-0.6-1.1-0.7-1.6-1.1c-0.1,0.1-0.1,0.3-0.2,0.4c0.1-0.1,0.1-0.2,0.2-0.4c-0.3-0.4-0.8-0.2-1.1-0.4
	c-0.3-1.1-1.2-1.3-2.1-1.7c-0.4-0.3-0.8-0.6-1.3-0.9c-2-1-3.7-2.4-6-2.7c-1.3-1.3-3.1-1.6-4.8-2.2c-0.2,0.1-0.3,0.1-0.5,0.2
	c-0.2-0.6-0.5-0.7-1.1-0.4c-0.1-0.3-0.4-0.4-0.7-0.4c0-0.1,0-0.1-0.1-0.1c-0.6-0.5-1.4-0.6-2.1-0.8c-3.1-1.4-6.5-2.4-9.7-3.6
	c-0.5-0.6-1.2-0.5-1.8-0.7c-2-1.1-4.2-2-6.1-3.4c-0.8-1-1.7-2-2.5-3c0,0-0.1,0.1-0.1,0.1c0,0,0.1-0.1,0.1-0.1
	c-1.3-1.7-2.3-3.7-3.8-5.3c-0.4-1.2-1.4-1.9-2.2-2.8c-0.4-0.1-1,0.4-1.4,0.1c-0.1-0.1-0.1-0.1-0.1-0.2c0,0.1,0.1,0.2,0.1,0.2
	c0.3,0.3,1-0.2,1.4-0.1c-0.4-0.6-0.8-1.1-1.4-1.4c-2.8-2.6-6-4.5-9.8-5.6c-3.4-1-6.6-2.7-9.9-4.1c-2.4-1.1-4.8-2.2-7.3-3
	c-3.9-1.2-7.7-2.7-11.7-3.7c-4.4-1.2-8.8-2.5-13.4-3.3c-3.2-0.6-6.4-1-9.5-1.4c-4.3-0.5-8.6-0.7-12.9-1.1c-3.8-0.3-7.6-0.6-11.4-0.8
	c-5.3-0.3-10.6-0.2-15.9-0.4c-2.4-0.1-4.9-0.1-7.3,0c-5.4,0.1-10.8-0.3-16.3,0.1c-5.1,0.3-10.1,1.1-15.1,1.9
	c-4.2,0.7-8.4,1.8-12.6,2.5c-5.1,0.9-10.1,2.5-14.9,4.5C508.7,2054.4,505.2,2055.9,502.8,2058.9z"/>
<path class="st4" d="M890.2,249.1c-27-3.7-53-0.4-78.4,8c-23.9,7.9-44.5,22.2-64.4,37.3c-24.5,18.5-46.4,39.9-63.7,65.3
	c-10.7,15.8-17.4,33.3-23.5,51.7c-9.4,28.2-15.6,56.7-17.6,86.1c-1.3,19.7,6.7,37,16.9,52.9c5.2,8.1,11.1,17.4,22.3,19.6
	c1.6,1.8,2.9,3.8,4.7,5.2c30.8,24,63.3,45.2,98.1,63c16.3,8.4,32.9,6.3,48.1-1.7c33.8-17.6,69.8-30.3,103.5-48.1
	c29.8-15.8,56.8-33.8,77.6-61.4c19.1-25.3,34.3-52.6,42.8-82.5c5.4-19.2,11.6-38.5,13.8-58.9c3.5-33.1,7.8-65.9,0.6-99
	c-3-13.6-8.8-25.1-20.5-32.9c-9.3-6.2-21-8-30.9-6.3c-17.4,3.1-34.2,8-52.5,7.1C941.4,253.1,915.6,252.6,890.2,249.1z"/>
<path class="st4" d="M3746.8,1360.7c-21.2-17.1-45.2-27.7-71.2-33.7c-24.5-5.7-49.6-4-74.4-1.4c-30.6,3.2-60.3,10.1-88.3,22.9
	c-17.4,7.9-32.1,19.5-46.9,32.1c-22.7,19.3-42.7,40.4-59.6,64.6c-11.3,16.2-13.4,35.2-12.9,54c0.3,9.6,0.5,20.6,8.9,28.3
	c0.4,2.3,0.5,4.8,1.3,6.9c13.9,36.4,30.8,71.4,51.3,104.6c9.6,15.6,24.9,22.4,42.1,23.5c38,2.4,75.4,10.2,113.5,12.4
	c33.7,1.9,66.1,0.4,98.2-12.4c29.5-11.8,56.6-27.2,79.3-48.5c14.6-13.6,29.8-26.9,42.2-43.3c20.1-26.5,40.8-52.4,51.7-84.5
	c4.5-13.2,5.4-26-0.5-38.7c-4.7-10.1-13.8-17.7-23.2-21.4c-16.5-6.4-33.4-10.8-48.6-21.1C3788.6,1390.6,3766.9,1376.8,3746.8,1360.7
	z"/>
<path class="st0" d="M4390.9,1165.4c-1.3-2.6-3.8-4.4-5.1-7.1c-3.3-6.8-5.5-13.8-6.3-21.4c-1.1-10-0.8-20.1-2.2-30
	c-1-7.4-2.5-14.7-3.8-22c-0.7-4.1-1.5-8.2-2.5-12.3c-0.8-3.3-2-6.6-4.1-9.4c-0.8-1.2-0.8-2.9-1.5-4.3c-2.8-5.5-6.8-10.1-10.2-15.2
	c-3.9-5.6-6.8-11.8-10-17.8c-2-3.7-4.7-6.9-7.5-10c-5.9-6.5-12.1-12.9-18.7-18.7c-6.5-5.8-13.5-11.1-20.1-16.7
	c-4.7-4-10-7.2-15.1-10.7c-0.8-0.6-1.7-1.1-2.8-1c-0.3-0.8-1.1-1-1.7-1.4c-4.4-3.3-9.4-5.2-14.1-7.9c-4.8-2.8-9.7-5-14.8-6.9
	c-5.8-2.2-11.7-4.4-17.5-6.9c0,0.2,0,0.4,0,0.6c0-0.2,0-0.4,0-0.6c-0.7-0.6-1.5-0.8-2.4-0.9c-1-0.2-1.7-1.1-2.7-1
	c-0.4-0.4-0.9-0.4-1.3-0.5c-1.8-1.4-4-2.1-6.2-2.7c-0.2,0-0.3,0-0.5,0c-1.8-1-3.8-1.8-5.5-3c-10-6.3-19.9-12.8-30.9-17.3
	c-5.6-2.3-11.1-5-17.1-6.4c-0.6-0.8-1.5-0.8-2.3-0.9c-0.3-0.1-0.6-0.2-0.9-0.3c-1.3-0.5-2.6-1.1-3.9-1.4c-9-1.9-17.9-3.9-26.9-5.7
	c-10-1.9-20-3.8-30.1-5.2c-4-0.6-8.1-1.2-12.1-1.8c-4.8-0.4-9.6-1.3-14.4-1.5c0,0.3,0.1,0.6,0.2,0.8c-0.1-0.2-0.2-0.5-0.2-0.8
	c-2.7-0.9-5.6-1-8.4-1.3c-3.3,0-6.5-0.9-9.8-0.7c-0.5-0.1-0.9-0.2-1.4-0.3c-1,0-2,0-3,0c1,0,2,0,3,0c0-0.2,0-0.3,0-0.5
	c-2.3,0-4.7,0-7,0c-1.4,0-2.8,0-4.2,0c-1.7,0-3.4,0-5.1,0c0,0.2,0,0.3,0.1,0.5c-0.3,0.1-0.7,0.3-1,0.4c-1.3,0.2-3-0.5-3.7,1.4
	c-0.3,0-0.6,0-0.9,0c-0.3,0-0.6,0-0.9,0c-3.3,0.8-6.5,1.6-9.8,2.3c-2.7,0.3-5.3,0.7-8,1c-3.9,0.4-7.8,0.9-11.7,1.3
	c-0.6,0.1-1.2,0.3-1.8,0.4c0.1,0.5,0.2,1.1,0.3,1.6c-0.1-0.5-0.2-1.1-0.3-1.6c-1.8-0.1-3.5,0.1-5.2,0.8c-4.8,0.6-9.5,1.7-13.9,3.8
	c-0.5,0-1,0-1.4,0.4c-4.7,1-9.1,2.8-13.5,4.6c-1.8,0.7-3.4,1.6-5.2,2.4c-0.3,0.1-0.6,0.3-0.9,0.4c-2.6,0.7-5,1.8-7.4,2.9
	c-1.3,0.3-2.3,1-3.3,1.8c-3.2,0.1-6.1,1.3-8.9,2.8l-0.2,0l-0.2,0c0,0.2-0.1,0.5-0.1,0.7c0-0.2,0.1-0.5,0.1-0.7
	c-1.8,0.3-3.7,0.7-5.5,1c-1.7,0.5-3.5,0.3-5.2,0.4c-1.6,0.1-3.1,0.3-4.7,0.4c-0.3,0-0.6,0-0.9,0c-0.1,0.5-0.3,1-0.5,1.5
	c0.2-0.5,0.4-1,0.5-1.5c-3.4,0.2-6.6,1.1-9.8,2.4c-0.5,0.3-1,0.5-1.4,0.8c-4.3,0.7-7.7,3.1-10.7,6.1c-1.7,1.1-3.4,2.1-4.6,3.7
	c1.3,0.2,1.8,0.8,2.2,1.5c-0.3-0.8-0.9-1.4-2.2-1.5c-2.4,1-4.9,1.7-7,3.3c-2,0.3-3.7,1.3-5.2,2.7c0.6,0.4,1.1,0.8,1.7,1
	c-0.6-0.2-1.1-0.6-1.7-1c-4,2-6.3,5.8-9.2,9c-1.5,2.1-4.4,3.1-5.2,5.9c-2.3,1.5-4.2,3.3-5.6,5.7c-1,0-1.4,0.7-1.9,1.4
	c-3.1,2.5-6.2,5-9.3,7.4c0.3,0.2,0.5,0.3,0.6,0.5c-0.1-0.2-0.3-0.4-0.6-0.5c-2.1,1.6-4.3,3.1-6,5.2c-3.6,2.3-7,4.7-9.3,8.3
	c-1.2,0.4-2,1.1-2.4,2.4c-3.4,3.1-6.8,6.2-9.3,10.2c-1.2,0.6-1.9,1.6-2.3,2.8c0.2,0,0.5,0,0.7,0.1c-0.2,0-0.5,0-0.7-0.1
	c-2.2,2-4.2,4.3-5.5,7c-1.9,1-2.8,2.9-3.8,4.6c-1.6,2.2-3.3,4.3-4.7,6.5c-0.8,1.3-2,2.4-1.8,4.2c-2.5,2.3-4,5.2-5.2,8.3
	c0.1,0.3,0.4,0.5,0.6,0.8c-0.2-0.3-0.5-0.5-0.6-0.8c-0.6,0.4-0.9,1.1-1.2,1.7c-3.3,6.5-6.5,13.1-9.4,19.8c-0.9,2.1-1.1,4.5-2.8,6.3
	c-2.4,2.5-4.9,4.9-6.8,7.8c-1.6,2.3-3.7,4.4-4.3,7.3c-1.1,2-0.4,4.1-0.5,6.1c0.1,2.5-0.3,4.9-1,7.3c-0.5,1.8-1.1,3.7-1.4,5.6
	c-0.8,5.5-1.3,11.1-3.2,16.3c-1.7,4.8-2.8,9.6-3.7,14.5c-1.4,7.4-1.8,14.9-4.1,22.2c-1.9,6.1-3.8,12.2-5.1,18.4
	c-1.2,6-2.8,12.1-2.5,18.3c0.4,9-1.5,17.8-1.8,26.8c-0.1,0.9-0.3,1.9-0.4,2.8c0.5,1.2-0.7,2.1-0.5,3.3c-1.2,3.1-1.3,6.5-1.3,9.7
	c-0.2,7-1.5,13.8-2.3,20.7c-0.1,1.2,0.3,2.5-0.6,3.6c0,2,0,4,0,6.1c0,0.6,0,1.2,0,1.9c0,6.5,0,13,0,19.6c0,0.9,0,1.9,0,2.8
	s0,1.9,0,2.8c0,1.4,0,2.8,0,4.2c0,1.7,0,3.4,0,5.1c0,12.6,0,25.1,0,37.7c1,4.9,3.3,9.4,5.2,13.9c0.2,0,0.3-0.1,0.4-0.1
	c-0.1,0.1-0.3,0.1-0.4,0.1c0.3,0.9,0.5,1.8,0.9,2.6c1.3,2.7,2.2,5.7,4.7,7.7c-0.4,4.2,2.3,7.3,4.1,10.7c0.1,0.8,0.5,1.3,1.4,1.4
	c0.4-0.3,0.4-0.8,0.6-1.2c-0.2,0.4-0.1,0.9-0.6,1.2c0.1,0.6-0.1,1.4,0.5,1.9c0.5,2.9,2.3,5,4.3,7c0.3,0.9,0.6,1.7,0.8,2.6
	c1.6,7,4.5,13.5,7,20.2c0,0.2,0,0.3,0,0.5c-0.1,5.9,0.4,11.9,3.5,17.1c3.1,5.2,6.8,10.1,10.5,15c7.1,9.4,15.5,17.8,23.4,26.6
	c5.5,6.1,12,11.2,18.6,16c2,1.5,3.8,3.5,6.4,4.1c3,3.1,6.9,4.9,10.3,7.4c1.7,1.2,3.3,2.8,5.5,3.3c0.5,1.3,1.7,1.4,2.8,1.9
	c-0.4-0.9-0.9-1.9-1-2.9c0.2,1,0.6,2,1,2.9c1,1.3,2.3,2,3.7,2.7c7.2,5.8,14.6,11.2,22.4,16.1c2.4,1.5,4.5,3.8,7.7,4
	c2.7,3.8,7.3,4.8,10.9,7.1c1.8,1.2,3.9,2.2,6.1,2.7c1.2,0.9,2.6,1.7,4.1,2c2.1,1.2,4.3,1.9,6.6,2.7c2.2,1,4.5,1.7,7,2
	c2.6,0.6,5.1,1.7,7.9,1.4c1.7,0.8,3.5,1.2,5.3,1.3c8.7,0.4,17.5,0.1,26.2-0.4c6.3-0.4,12.6,0.4,18.8,1.2c4.3,0.6,8.7,1.1,13,1.7
	c6.4,1,12.7,1.3,19.1,1.4c1.5,0.2,3,0,4.4,0c-1.5,0-3,0.2-4.4,0c0,0.2,0,0.3-0.1,0.5c2.6,0,5.3,0,7.9,0c5.1,0,10.2,0,15.4,0
	c1.7,0,3.4,0,5.1,0c2-0.7,4-0.7,6.1-1c6.4-0.7,12.9-1.3,19.3-2c4.3-0.4,8.6-0.8,12.9-1.3c9.7-1,19.3-2.4,28.5-5.9
	c0.3-0.1,0.5-0.3,0.7-0.5c0.7,0,1.4,0.1,1.9-0.5c1.8-0.1,3.4-0.9,5.1-1.4c2.9-0.5,5.6-1.7,8.2-2.9c3.3-1.5,7-2.3,10-4.5
	c1.5-0.7,3.2-0.9,4.2-2.3c1,0.1,1.8-0.3,2.7-0.7c2.7-1.4,5.4-2.8,7.9-4.4c4-2.6,8.5-4.4,12.3-7.4c0.3-0.2,0.6-0.4,0.9-0.6
	c1.2-0.1,1.9-1.3,2.8-1.8c-0.2-0.2-0.3-0.4-0.4-0.6c0.1,0.2,0.2,0.4,0.4,0.6c0.9-0.1,0.8-1.1,1.4-1.5c2,0.3,3-1,4.2-2.2
	c0.8-0.5,1.6-0.9,2.3-1.5c3-2.5,6.5-4.3,8.5-7.8c3-1.2,4.7-3.9,6.9-6.1c0-0.3,0-0.6,0-0.9c1.1,0.1,1.5-0.4,1.4-1.4
	c0.6,0.1,0.9-0.4,1.1-0.9c0.1,0,0.2,0,0.3-0.1c1.2-0.7,2-1.8,2.8-2.8c4.5-4,8.4-8.7,12.6-13c1.3-0.3,1.6-1.6,2.3-2.4
	c3.2-2.5,6.2-5.4,9.7-7.5c2.2-0.6,4.3-1.3,6.5-1.9c0-0.1-0.1-0.2-0.1-0.3c0,0.1,0.1,0.2,0.1,0.3c3.7-0.9,7.5-1.2,11.2-2.3
	c2.2,0.1,4-0.9,6-1.5c0.4-0.6,0.1-1.9,0.9-2.2c0.1,0,0.3-0.1,0.5,0c-0.2,0-0.4,0-0.5,0c-0.8,0.3-0.4,1.6-0.9,2.2
	c1.2-0.2,2.4-0.4,3.3-1.3c6.2-2.7,11.5-6.5,15.8-11.8c4-4.8,9-8.7,13.5-12.9c3.4-3.1,6.9-6.1,10-9.6c4.7-5.4,9.7-10.5,14.2-16.2
	c5-6.3,10.2-12.4,14.7-19.1c3.2-4.7,6.1-9.5,8.9-14.3c3.8-6.5,7.2-13.3,10.7-19.9c3.1-5.9,6.2-11.8,9.3-17.7
	c4.3-8.2,7.8-16.8,11.8-25.2c1.8-3.9,3.5-7.8,5.2-11.7c3.6-8.8,8-17.2,11.2-26.2c3-8.4,5.3-16.9,7.5-25.5c1.8-7.2,3-14.6,4.7-21.9
	c2.1-8.9,3-18,3.2-27.1C4394,1178.1,4394,1171.5,4390.9,1165.4z"/>
<path class="st2" d="M3779-85.3c-1.4,5.1,1.6,10,0.7,15.1c-0.3,1.6,1.1,2.7,2.5,3.5c0.3-0.7,2.7,15,5.5,22.2
	c0.6,5.1,5.1,14.5,4.6,14.3c1.7,3.8,4.8,13.9,5.3,15c0.4,1.2,0.7,2.4,1.1,3.5c4.5,11,7.3,22.5,12.3,33.3c3.7,7.8,6.3,16.1,10.8,23.6
	c1.7,4.8,8.2,14,7,13.5c1.3,2.2,2.6,4.5,3.8,6.7c1,1.9,1.9,3.8,2.9,5.7c2.6,4.4,5.1,8.7,7.7,13.1c1.4,2.7,3.5,4.9,5.5,7.2
	c0.3-0.2,0.5-0.3,0.8-0.4c-0.3,0.1-0.5,0.2-0.8,0.4c1.4,3.2,3.8,5.8,5.8,8.6c3.8,5.8,8.1,11.3,13.3,15.9c1,1.3,2,2.6,3,3.9
	c0.2,0.2,0.4,0.4,0.7,0.6c0.3-0.1,0.6-0.1,0.9-0.1c-0.3,0-0.6,0-0.9,0.1c0.9,2.3,3,3.6,4.4,5.4c2.1,1.9,4.2,3.9,6.4,5.8
	c0.1-0.1,0.2-0.2,0.2-0.2c-0.1,0.1-0.2,0.2-0.2,0.2c1,1.8,2,3.7,4.4,4c0.3,0.1,0.7,0.3,1,0.4c1.5-0.2,2.2,0.2,2.4,0.9
	c-0.2-0.7-0.8-1.1-2.4-0.9c-0.6,1.9,0.8,2.4,2,3c2.4,3.5,5.9,6,8.8,9c1,0.7,2,1.4,2.9,2.1c1.5,2.6,4,4,6.4,5.6
	c0.2-0.3,0.4-0.5,0.6-0.7c-0.2,0.1-0.4,0.3-0.6,0.7c2.1,2.4,4.2,4.7,7.2,6c1.2,2.9,4.9,3.1,6.4,5.8c0.2-0.2,0.4-0.3,0.7-0.5
	c-0.2,0.2-0.4,0.3-0.7,0.5c3.6,2.4,6.7,5.5,10.7,7.3c3.6,3.5,12.9,10.6,14,10.9c0.5,0.3,1.1,0.6,1.6,1c0.1-0.2,0.2-0.4,0.4-0.7
	c-0.1,0.2-0.3,0.4-0.4,0.7c2.1,1.2,4.3,2.4,6.4,3.7c2.1,2.4,4.8,3.9,7.7,5.3c4.7,3.1,9,6.9,14.2,9.3c1.1,0.5,2.3,1,2.5,2.4
	c1.6,0.9,3.2,1.8,4.8,2.7c1.6,0.9,3.2,1.8,4.8,2.7c9.6,5.5,19.3,11,28.9,16.5c5.4,3,10.7,6.1,16.1,9.1c0.1-0.2,0.3-0.4,0.5-0.5
	c4.7-0.5,6.3,4.9,10.4,5.6c2.2,1.2,4.4,2.5,6.5,3.7c1.6,0.9,3.2,1.8,4.7,2.8c0.5,0.3,1.1,0.6,1.6,0.9c6.6,2.9,12.6,7.2,19.2,9.8
	c14.1,5.7,27.4,13.3,41.7,18.7c10.9,4.1,21.9,8,33,11.5c10.7,3.3,21.6,5.8,32.7,7.9c12.4,2.3,24.6,4,37.2,2.8
	c2.9,0.5,5.8,0.6,8.6-0.3c14.8,0.4,28.6-4.4,42.7-7.6c0.4-0.1,0.8-0.3,1.1-0.4c19.8-2.8,39.6-5.4,59.3-8.5c11.9-1.9,23.8-4.1,35.2-8
	c2.4-0.5,5-0.3,6.8-2.4c2.1-0.6,4.3-1.2,6.4-1.8c5-2,9.6-4.9,13.9-8.2c0.5-0.4,1.1-0.8,1.6-1.1c2.5-1.8,5-3.6,7.4-5.4
	c5.8-5.5,11.9-10.8,17.5-16.6c5-5.2,10.7-9.9,14.8-16c0.4-0.5,0.8-1,1.2-1.5c7.8-9.3,15.8-18.5,21.7-29.2c0.7-0.8,1-1.9,2.3-1.9
	c0.8-1.3,1.5-2.7,2.3-4c0.3-0.5,0.6-1.1,0.9-1.6c0.5-0.8,0.9-1.6,1.4-2.4c-0.6-0.7-0.2-1.4,0-2.2c2.1-3,3.2-6.4,2.8-10.1
	c1.3-4.6,2.6-9.2,1.6-14c-0.1-1.7-0.4-3.4-1.6-4.9c0-1.2-0.9-1.8-1.8-2.3c-1.7-2.9-3.8-5.4-6.8-6.9c-5.7-5.1-11.5-10.3-14.3-17.8
	c-1.8,0-1.8-6.8-2.8-10.2c-1.8-6.2-1.2-13.1-5.2-18.8c-0.2-4.8-3-8.8-4.2-13.3c-5.6-11.3-22.6-27.5-20.2-31.5
	c-0.5-1.3-0.9-2.6-2.1-3.4c-11-7.7-21.7-15.8-34.6-20.3c-0.5-0.3-1.1-0.7-1.6-1c-3-2.1-6.3-3.5-9.1-6.1c-6.4-6-10.6-13.7-16.4-20.1
	c-7.7-10.8-16.1-20.9-27.8-27.7c-0.6-2.2-2.9-2.5-4.5-3.5c-1.7-1.4-3.5-2.7-5.2-4.1c-8.6-6-17.2-12.1-25.8-18.1
	c-4.3-4.1-8.6-8.3-13.5-11.8c-2.3,1.6-2.1,2.3-1.2,2.9c-0.9-0.6-1.1-1.3,1.2-2.9c-3.1-4.1-7.3-7-11.6-9.7c-0.5-0.3-1-0.7-1.4-1
	c-0.3,0.2-0.6,0.3-0.9,0.4c0.3-0.1,0.6-0.3,0.9-0.4c-0.9-2-2.8-2.5-4.6-3.3c-0.2-0.2-0.4-0.4-0.6-0.6c-0.7,0.2-1.3,0.4-1.9,0.5
	c0.6-0.1,1.2-0.4,1.9-0.5c-6.6-6-13.6-11.5-19.4-18.4c-3.5-4.2-7.6-7.9-11.5-11.8c-0.5-0.4-0.9-0.7-1.4-1.1
	c-1.2-2.1-2.7-3.8-4.9-4.7c-3.3-3.8-7.9-6.2-11.6-9.7c-1-0.6-2.1-1.2-3.1-1.8c-1.9-2.2-4.2-3.7-6.7-5.1c-5.3-4.4-10.6-8.8-15.9-13.2
	c0,0.4,0,0.7,0,1c0,0.3-0.1,0.6-0.2,0.9c0.1-0.3,0.1-0.6,0.2-0.9c0-0.3,0-0.7,0-1c-2.1-1.4-3.5-3.7-6-4.5
	c-7.5-7.5-16.7-12.7-25.4-18.6c-9.3-6.3-19.4-11.7-29.9-15.8c-18.7-7.3-37.7-13.8-58-15.2c-8.5-1.7-17-1.3-25.5-0.7
	c-1,0.1-1.9,0.9-2.8,1.4c0.2,0.5,0.5,1,0.7,1.3c-0.2-0.4-0.5-0.8-0.7-1.3c-3.5-1.7-6.6,0.6-10,0.8c-1.8,0.7-3.6,1.5-5.4,2.2
	c0.1,0.5,0.3,1,0.6,1.3c-0.3-0.3-0.5-0.8-0.6-1.3c-6.6,2.3-13.2,4.6-19.9,6.9c-2.3,0.9-4.5,1.8-6.8,2.6c-2.7,0.1-5.1,1-7.5,2
	c-7.7,1.9-15.3,3.8-22.4,7.6c-5.9,0.8-11.2,3.5-16.9,5c-5.8-0.2-10.3,3.6-15.5,5.1c-1.8,0.7-3.7,1.4-5.5,2.1
	c-5.1,2.1-10.2,4.2-15.3,6.3c1.3,0.8,2.7,1.4,3.6,2.4c-0.9-1-2.3-1.6-3.6-2.4c-0.5,0.4-1.1,0.8-1.6,1.2c-1.3,0.3-2.6,0.6-3.9,0.9
	c-0.6,0.4-1.2,0.8-1.7,1.2c-5.3,1.2-9.7,4.2-14.4,6.7c0,0.2,0.1,0.4,0.1,0.6c0-0.2,0-0.4-0.1-0.6c-1.6,0.8-3.5,1.1-4.7,2.6
	c-2.8,0.3-5.1,1.6-7.3,3.3c0.3,0.5,0.6,1,0.7,1.5c-0.1-0.5-0.4-1-0.7-1.5c-2.2,0.3-3.9,1.5-5.7,2.7c-3.7,2.4-7.7,4.3-11.4,6.7
	c-3.1,1.9-7.8,2.7-11.7,4.2c-2.5,0-5-0.6-7.5,0c-2.5,0.2-4-1.9-6-2.9c-6.4-3.1-12.4-2.1-18.5,0.6c-4.7-0.1-7.2,3.6-10.1,6.2
	c-6.1,5.4-11.2,11.7-15.5,18.6C3782.8-98.7,3779.3-92.7,3779-85.3z"/>
<path class="st2" d="M-395,1507.7c-1.4,5.1,1.6,10,0.7,15.1c-0.3,1.6,1.1,2.7,2.5,3.5c0.3-0.7,2.7,15,5.5,22.2
	c0.6,5.1,5.1,14.5,4.6,14.3c1.7,3.8,4.7,13.9,5.3,15c0.4,1.2,0.7,2.4,1.1,3.5c4.5,11,7.3,22.5,12.3,33.3c3.7,7.8,6.3,16.1,10.8,23.6
	c1.7,4.8,8.2,14,7,13.5c1.3,2.2,2.6,4.5,3.8,6.7c1,1.9,1.9,3.8,2.9,5.7c2.6,4.4,5.1,8.7,7.7,13.1c1.4,2.7,3.5,4.9,5.5,7.2
	c0.3-0.2,0.5-0.3,0.8-0.4c-0.3,0.1-0.5,0.2-0.8,0.4c1.4,3.2,3.8,5.8,5.8,8.6c3.8,5.8,8.1,11.3,13.3,15.9c1,1.3,2,2.6,3,3.9
	c0.2,0.2,0.4,0.4,0.7,0.6c0.3-0.1,0.6-0.1,0.9-0.1c-0.3,0-0.6,0-0.9,0.1c0.9,2.3,3,3.6,4.4,5.4c2.1,1.9,4.2,3.9,6.4,5.8
	c0.1-0.1,0.2-0.2,0.2-0.2c-0.1,0.1-0.2,0.2-0.2,0.2c1,1.8,2,3.7,4.4,4c0.3,0.1,0.7,0.3,1,0.4c1.5-0.2,2.2,0.2,2.4,0.9
	c-0.2-0.7-0.8-1.1-2.4-0.9c-0.6,1.9,0.8,2.4,2,3c2.4,3.5,5.9,6,8.8,9c1,0.7,2,1.4,2.9,2.1c1.5,2.6,4,4,6.4,5.6
	c0.2-0.3,0.4-0.5,0.6-0.7c-0.2,0.1-0.4,0.3-0.6,0.7c2.1,2.4,4.2,4.7,7.2,6c1.2,2.9,4.9,3.1,6.4,5.8c0.2-0.2,0.4-0.3,0.7-0.5
	c-0.2,0.2-0.4,0.3-0.7,0.5c3.6,2.4,6.7,5.5,10.7,7.3c3.6,3.5,12.9,10.6,14,10.9c0.5,0.3,1.1,0.6,1.6,1c0.1-0.2,0.2-0.4,0.4-0.7
	c-0.1,0.2-0.3,0.4-0.4,0.7c2.1,1.2,4.3,2.4,6.4,3.7c2.1,2.4,4.8,3.9,7.7,5.3c4.7,3.1,9,6.9,14.2,9.3c1.1,0.5,2.3,1,2.5,2.4
	c1.6,0.9,3.2,1.8,4.8,2.7c1.6,0.9,3.2,1.8,4.8,2.7c9.6,5.5,19.3,11,28.9,16.5c5.4,3,10.7,6.1,16.1,9.1c0.1-0.2,0.3-0.4,0.5-0.5
	c4.7-0.5,6.3,4.9,10.4,5.6c2.2,1.2,4.4,2.5,6.5,3.7c1.6,0.9,3.2,1.8,4.7,2.8c0.5,0.3,1.1,0.6,1.6,0.9c6.6,2.9,12.6,7.2,19.2,9.8
	c14.1,5.7,27.4,13.3,41.7,18.7c10.9,4.1,21.9,8,33,11.5c10.7,3.3,21.6,5.8,32.7,7.9c12.4,2.3,24.6,4,37.2,2.8
	c2.9,0.5,5.8,0.6,8.6-0.3c14.8,0.4,28.6-4.4,42.7-7.6c0.4-0.1,0.8-0.3,1.1-0.4c19.8-2.8,39.6-5.4,59.3-8.5c11.9-1.9,23.8-4.1,35.2-8
	c2.4-0.5,5-0.3,6.8-2.4c2.1-0.6,4.3-1.2,6.4-1.8c5-2,9.6-4.9,13.9-8.2c0.5-0.4,1.1-0.8,1.6-1.1c2.5-1.8,5-3.6,7.4-5.4
	c5.8-5.5,11.9-10.8,17.5-16.6c5-5.2,10.7-9.9,14.8-16c0.4-0.5,0.8-1,1.2-1.5c7.8-9.3,15.8-18.5,21.7-29.2c0.7-0.8,1-1.9,2.3-1.9
	c0.8-1.3,1.5-2.7,2.3-4c0.3-0.5,0.6-1.1,0.9-1.6c0.5-0.8,0.9-1.6,1.4-2.4c-0.6-0.7-0.2-1.4,0-2.2c2.1-3,3.2-6.4,2.8-10.1
	c1.3-4.6,2.6-9.2,1.6-14c-0.1-1.7-0.4-3.4-1.6-4.9c0-1.2-0.9-1.8-1.8-2.3c-1.7-2.9-3.8-5.4-6.8-6.9c-5.7-5.1-11.5-10.3-14.3-17.8
	c-1.8,0-1.8-6.8-2.8-10.2c-1.8-6.2-1.2-13.1-5.2-18.8c-0.2-4.8-3-8.8-4.2-13.3c-5.6-11.3-22.6-27.5-20.2-31.5
	c-0.5-1.3-0.9-2.6-2.1-3.4c-11-7.7-21.7-15.8-34.6-20.3c-0.5-0.3-1.1-0.7-1.6-1c-3-2.1-6.3-3.5-9.1-6.1c-6.4-6-10.6-13.7-16.4-20.1
	c-7.7-10.8-16.1-20.9-27.8-27.7c-0.6-2.2-2.9-2.5-4.5-3.5c-1.7-1.4-3.5-2.7-5.2-4.1c-8.6-6-17.2-12.1-25.8-18.1
	c-4.3-4.1-8.6-8.3-13.5-11.8c-2.3,1.6-2.1,2.3-1.2,2.9c-0.9-0.6-1.1-1.3,1.2-2.9c-3.1-4.1-7.3-7-11.6-9.7c-0.5-0.3-1-0.7-1.4-1
	c-0.3,0.2-0.6,0.3-0.9,0.4c0.3-0.1,0.6-0.3,0.9-0.4c-0.9-2-2.8-2.5-4.6-3.3c-0.2-0.2-0.4-0.4-0.6-0.6c-0.7,0.2-1.3,0.4-1.9,0.5
	c0.6-0.1,1.2-0.4,1.9-0.5c-6.6-6-13.6-11.5-19.4-18.4c-3.5-4.2-7.6-7.9-11.5-11.8c-0.5-0.4-0.9-0.7-1.4-1.1
	c-1.2-2.1-2.7-3.8-4.9-4.7c-3.3-3.8-7.9-6.2-11.6-9.7c-1-0.6-2.1-1.2-3.1-1.8c-1.9-2.2-4.2-3.7-6.7-5.1c-5.3-4.4-10.6-8.8-15.9-13.2
	c0,0.4,0,0.7,0,1c0,0.3-0.1,0.6-0.2,0.9c0.1-0.3,0.1-0.6,0.2-0.9c0-0.3,0-0.7,0-1c-2.1-1.4-3.5-3.7-6-4.5
	c-7.5-7.5-16.7-12.7-25.4-18.6c-9.3-6.3-19.4-11.7-29.9-15.8c-18.7-7.3-37.7-13.8-58-15.2c-8.5-1.7-17-1.3-25.5-0.7
	c-1,0.1-1.9,0.9-2.8,1.4c0.2,0.5,0.5,1,0.7,1.3c-0.2-0.4-0.5-0.8-0.7-1.3c-3.5-1.7-6.6,0.6-10,0.8c-1.8,0.7-3.6,1.5-5.4,2.2
	c0.1,0.5,0.3,1,0.6,1.3c-0.3-0.3-0.5-0.8-0.6-1.3c-6.6,2.3-13.2,4.6-19.9,6.9c-2.3,0.9-4.5,1.8-6.8,2.6c-2.7,0.1-5.1,1-7.5,2
	c-7.7,1.9-15.3,3.8-22.4,7.6c-5.9,0.8-11.2,3.5-16.9,5c-5.8-0.2-10.3,3.6-15.5,5.1c-1.8,0.7-3.7,1.4-5.5,2.1
	c-5.1,2.1-10.2,4.2-15.3,6.3c1.3,0.8,2.7,1.4,3.6,2.4c-0.9-1-2.3-1.6-3.6-2.4c-0.5,0.4-1.1,0.8-1.6,1.2c-1.3,0.3-2.6,0.6-3.9,0.9
	c-0.6,0.4-1.2,0.8-1.7,1.2c-5.3,1.2-9.7,4.2-14.4,6.7c0,0.2,0.1,0.4,0.1,0.6c0-0.2,0-0.4-0.1-0.6c-1.6,0.8-3.5,1.1-4.7,2.6
	c-2.8,0.3-5.1,1.6-7.3,3.3c0.3,0.5,0.6,1,0.7,1.5c-0.1-0.5-0.4-1-0.7-1.5c-2.2,0.3-3.9,1.5-5.7,2.7c-3.7,2.4-7.7,4.3-11.4,6.7
	c-3.1,1.9-7.8,2.7-11.7,4.2c-2.5,0-5-0.6-7.5,0c-2.5,0.2-4-1.9-6-2.9c-6.4-3.1-12.4-2.1-18.5,0.6c-4.7-0.1-7.2,3.6-10.1,6.2
	c-6.1,5.4-11.2,11.7-15.5,18.6C-391.2,1494.3-394.7,1500.3-395,1507.7z"/>
<path class="st1" d="M1365.8,2096.4c0.1,2.4,1.3,4.6,1.4,7c0.2,6.2-0.6,12.1-2.5,18c-2.6,7.8-6.2,15.2-8.5,23.1
	c-1.7,5.8-3.1,11.8-4.6,17.6c-0.8,3.3-1.7,6.6-2.3,9.9c-0.5,2.8-0.8,5.6-0.2,8.4c0.2,1.1-0.4,2.4-0.3,3.7c0.2,5,1.6,9.8,2.5,14.7
	c1,5.5,1.1,11.1,1.4,16.6c0.2,3.4,1.1,6.7,2.2,10c2.2,6.9,4.6,13.6,7.6,20.2c2.9,6.5,6.3,12.8,9.3,19.2c2.1,4.6,5,8.8,7.6,13.1
	c0.4,0.7,0.9,1.4,1.7,1.7c0,0.7,0.5,1.1,0.8,1.6c2.1,3.9,5.3,7.1,7.8,10.6c2.6,3.7,5.6,7,8.7,10.1c3.6,3.6,7.2,7.2,10.6,11
	c0-0.1,0.1-0.3,0.2-0.5c-0.1,0.2-0.1,0.3-0.2,0.5c0.3,0.7,0.9,1.1,1.4,1.5c0.7,0.5,0.9,1.4,1.7,1.7c0.1,0.4,0.5,0.6,0.8,0.8
	c0.9,1.6,2.2,2.9,3.7,4.1c0.1,0.1,0.2,0.1,0.3,0.2c1,1.3,2.2,2.6,3.1,4.1c5.3,8.1,10.4,16.2,17.1,23.3c3.4,3.6,6.6,7.5,10.6,10.5
	c0.1,0.8,0.8,1.1,1.4,1.4c0.2,0.2,0.4,0.4,0.6,0.6c0.8,0.8,1.6,1.7,2.5,2.3c6,4.5,12,9,18.1,13.3c6.8,4.8,13.6,9.6,20.6,14
	c2.8,1.8,5.6,3.6,8.4,5.4c3.4,1.9,6.7,4.2,10.2,6c0.1-0.2,0.1-0.4,0.1-0.7c0,0.2,0,0.5-0.1,0.7c1.7,1.6,3.8,2.6,5.8,3.8
	c2.4,1.1,4.5,2.9,7,3.8c0.3,0.2,0.6,0.5,0.9,0.7c0.8,0.4,1.5,0.7,2.2,1c-0.7-0.3-1.5-0.7-2.2-1c-0.1,0.1-0.1,0.2-0.2,0.3
	c1.7,0.8,3.5,1.6,5.2,2.4c1,0.5,2.1,0.9,3.1,1.4c1.3,0.6,2.5,1.2,3.8,1.7c0-0.1,0.1-0.3,0.1-0.4c0.3,0,0.6,0,0.9,0
	c1.1,0.3,2.1,1.4,3.2,0.2c0.2,0.1,0.5,0.2,0.7,0.3c0.2,0.1,0.5,0.2,0.7,0.3c2.7,0.5,5.4,1,8.1,1.6c2.1,0.6,4.2,1.3,6.3,1.9
	c3,1,6.1,2,9.1,3c0.5,0.2,1,0.2,1.5,0.3c0.1-0.4,0.3-0.9,0.3-1.3c-0.1,0.4-0.2,0.8-0.3,1.3c1.3,0.7,2.7,1.1,4.1,1.1
	c3.8,1.2,7.6,1.9,11.6,1.9c0.4,0.2,0.8,0.3,1.2,0.1c3.8,0.8,7.7,1,11.6,1.1c1.5,0.1,3.1,0,4.7,0c0.3,0,0.6,0,0.8,0
	c2.2,0.3,4.3,0.4,6.5,0.3c1,0.2,2,0,3.1-0.2c2.4,1,5,1.1,7.5,0.9l0.2,0.1l0.2,0.1c0.1-0.2,0.2-0.3,0.3-0.5c-0.1,0.2-0.2,0.3-0.3,0.5
	c1.5,0.4,3,0.7,4.5,1.1c1.4,0.2,2.7,0.9,4,1.5c1.2,0.4,2.4,0.9,3.6,1.3c0.2,0.1,0.5,0.2,0.7,0.3c0.2-0.3,0.6-0.6,0.9-0.9
	c-0.3,0.3-0.7,0.6-0.9,0.9c2.6,1,5.3,1.4,8.1,1.5c0.4,0,0.9-0.1,1.3-0.1c3.5,0.9,6.8,0.3,10-0.9c1.6-0.2,3.2-0.4,4.7-1.2
	c-0.9-0.6-1.1-1.2-1.1-1.9c0,0.7,0.2,1.3,1.1,1.9c2.1,0.1,4.2,0.4,6.3-0.1c1.6,0.5,3.2,0.3,4.8-0.2c-0.3-0.5-0.5-1-0.9-1.3
	c0.4,0.3,0.6,0.9,0.9,1.3c3.7-0.1,6.7-2.1,9.9-3.5c1.9-1.1,4.3-0.8,5.8-2.7c2.2-0.3,4.2-1,6.1-2.3c0.7,0.3,1.3-0.1,1.9-0.4
	c3.1-0.8,6.3-1.6,9.4-2.4c-0.2-0.2-0.2-0.4-0.3-0.6c0,0.2,0.1,0.4,0.3,0.6c2.1-0.4,4.2-0.9,6.2-1.8c3.4-0.5,6.8-1.1,9.7-3
	c1,0.1,1.9-0.2,2.5-1c3.6-1.2,7.2-2.3,10.4-4.4c1.1-0.1,1.9-0.5,2.7-1.3c-0.2-0.1-0.4-0.2-0.5-0.3c0.1,0.1,0.3,0.2,0.5,0.3
	c2.3-0.7,4.6-1.8,6.5-3.3c1.8-0.1,3-1.2,4.4-2.2c1.9-1.1,3.9-2.1,5.7-3.3c1-0.7,2.3-1.1,2.8-2.5c2.6-0.9,4.7-2.5,6.6-4.4
	c0-0.3-0.1-0.5-0.2-0.8c0,0.3,0.2,0.5,0.2,0.8c0.6-0.1,1-0.5,1.5-0.9c4.7-3.7,9.3-7.6,13.7-11.5c1.4-1.2,2.3-3,4.2-3.7
	c2.6-1.1,5.3-2,7.7-3.5c2-1.2,4.2-2,5.7-4c1.5-1.1,1.6-2.9,2.4-4.4c0.7-1.9,1.9-3.5,3.2-5.1c1-1.2,2.1-2.3,2.9-3.7
	c2.5-3.8,4.7-7.8,7.9-11c2.8-3,5.3-6.2,7.7-9.5c3.5-5,6.4-10.5,10.6-15.1c3.5-3.8,7-7.7,10-12c3-4.1,6.1-8,8-12.7
	c2.7-6.8,7.1-12.7,10.4-19.3c0.4-0.6,0.9-1.3,1.3-1.9c0-1.1,1.2-1.3,1.5-2.2c2-1.9,3.1-4.4,4.3-6.8c2.5-5.1,5.8-9.7,8.7-14.6
	c0.5-0.8,0.6-2,1.7-2.5c0.7-1.5,1.4-3,2-4.5c0.2-0.5,0.4-0.9,0.6-1.4c2.2-4.8,4.4-9.7,6.6-14.5c0.3-0.7,0.6-1.4,0.9-2.1
	c0.3-0.7,0.6-1.4,0.9-2.1c0.5-1,0.9-2.1,1.4-3.1c0.6-1.3,1.2-2.5,1.7-3.8c4.3-9.3,8.5-18.7,12.8-28c0.9-4,0.7-8.1,0.9-12.1
	c-0.1,0-0.3-0.1-0.4,0c0.1,0,0.2,0,0.4,0c0.1-0.7,0.2-1.5,0.2-2.2c0-2.5,0.3-5-0.9-7.3c1.7-3,0.7-6.2,0.6-9.4c0.2-0.7,0-1.2-0.6-1.5
	c-0.4,0.1-0.6,0.5-0.8,0.7c0.3-0.3,0.4-0.7,0.8-0.7c0.1-0.5,0.6-1,0.3-1.5c0.6-2.3,0-4.5-0.8-6.6c0.1-0.7,0.1-1.5,0.3-2.2
	c1.2-5.7,1.3-11.6,1.6-17.4c0-0.1,0.1-0.2,0.1-0.4c2.1-4.4,3.7-8.9,3.2-13.9c-0.6-4.9-1.7-9.8-2.7-14.7c-2.1-9.4-5.5-18.4-8.4-27.6
	c-2-6.4-5.1-12.3-8.4-18.2c-1-1.8-1.6-3.9-3.4-5.2c-1.2-3.3-3.4-6-5.2-9c-0.9-1.5-1.5-3.2-3-4.3c0.1-1.1-0.8-1.7-1.4-2.4
	c0,0.8,0,1.7-0.2,2.5c0.2-0.8,0.2-1.7,0.2-2.5c-0.3-1.3-1-2.3-1.9-3.2c-3.4-6.7-7.1-13.2-11.2-19.5c-1.3-2-2.1-4.4-4.4-5.5
	c-0.7-3.7-3.8-6-5.7-9c-1-1.5-2.1-2.9-3.6-4.1c-0.6-1.1-1.3-2.1-2.4-2.8c-1.1-1.6-2.6-2.9-4-4.2c-1.3-1.5-2.8-2.8-4.5-3.8
	c-1.7-1.4-3.2-3-5.4-3.7c-1-1.1-2.2-2.1-3.5-2.8c-6.4-3.2-13-6-19.6-8.5c-4.8-1.9-9.2-4.5-13.6-7.2c-3-1.9-6.1-3.7-9.1-5.7
	c-4.4-2.9-9-5.2-13.7-7.5c-1-0.6-2.2-1-3.3-1.5c1.1,0.5,2.3,0.8,3.3,1.5c0.1-0.1,0.1-0.2,0.2-0.3c-2-0.9-3.9-1.8-5.9-2.7
	c-3.8-1.7-7.6-3.5-11.4-5.2c-1.3-0.6-2.5-1.2-3.8-1.7c-1.7-0.1-3.2-0.8-4.8-1.3c-5-1.7-10-3.4-15-5.1c-3.3-1.1-6.7-2.3-10-3.4
	c-7.5-2.5-15.1-4.8-23.1-5.2c-0.2,0-0.5,0.1-0.7,0.1c-0.5-0.2-1-0.6-1.5-0.3c-1.4-0.5-2.8-0.5-4.3-0.7c-2.3-0.6-4.7-0.6-7.1-0.6
	c-3,0-6-0.6-9,0c-1.3,0-2.7-0.4-3.9,0.3c-0.7-0.4-1.5-0.4-2.2-0.3c-2.4,0.1-4.9,0.2-7.3,0.6c-3.9,0.5-7.8,0.4-11.6,1.4
	c-0.3,0-0.6,0.1-0.9,0.1c-1-0.3-1.8,0.3-2.7,0.4c0.1,0.2,0.1,0.4,0.1,0.6c0-0.2-0.1-0.4-0.1-0.6c-0.7-0.2-1,0.6-1.5,0.7
	c-1.3-0.9-2.6-0.2-3.9,0.2c-0.7,0.1-1.5,0.1-2.2,0.3c-3,0.8-6.3,1-8.9,2.9c-2.7-0.1-4.8,1.3-7.2,2.2c-0.1,0.2-0.2,0.5-0.3,0.7
	c-0.8-0.5-1.2-0.2-1.5,0.6c-0.5-0.3-0.8,0-1.1,0.3c-0.1,0-0.1-0.1-0.2-0.1c-1.1,0.1-2.1,0.6-3.1,1.1c-4.7,1.5-9.1,3.6-13.7,5.4
	c-1-0.2-1.7,0.6-2.5,1c-3.3,0.8-6.4,1.9-9.8,2.3c-1.8-0.3-3.7-0.5-5.5-0.8c0,0.1,0,0.1,0,0.2c0-0.1,0-0.1,0-0.2
	c-3-0.6-6-1.7-9.1-2.1c-1.6-0.8-3.3-0.7-5-0.9c-0.5,0.3-0.7,1.4-1.4,1.4c-0.1,0-0.2,0-0.4-0.1c0.1,0.1,0.3,0.1,0.4,0.1
	c0.7,0,0.9-1.1,1.4-1.4c-0.9-0.3-1.9-0.5-2.9-0.1c-5.5-0.1-10.7,1-15.7,3.4c-4.6,2.3-9.6,3.4-14.4,5c-3.6,1.2-7.2,2.2-10.7,3.8
	c-5.3,2.4-10.8,4.6-16,7.2c-5.8,3-11.7,5.8-17.3,9.2c-3.9,2.4-7.7,5-11.5,7.6c-5,3.5-9.8,7.4-14.7,11.2c-4.3,3.3-8.6,6.6-12.9,10
	c-6,4.7-11.5,9.9-17.3,14.7c-2.7,2.2-5.2,4.6-7.8,6.9c-5.7,5.3-11.8,10.1-17.2,15.6c-5.1,5.2-9.7,10.7-14.2,16.4
	c-3.8,4.8-7.2,9.9-10.9,14.7c-4.6,5.9-8.3,12.3-11.5,19C1367.8,2085.9,1365.6,2090.8,1365.8,2096.4z"/>
<path class="st2" d="M800,2488.7c-1.4,5.1,1.6,10,0.7,15.1c-0.3,1.6,1.1,2.7,2.5,3.5c0.3-0.7,2.7,15,5.5,22.2
	c0.6,5.1,5.1,14.5,4.6,14.3c1.7,3.8,4.7,13.9,5.3,15c0.4,1.2,0.7,2.4,1.1,3.5c4.5,11,7.3,22.5,12.3,33.3c3.7,7.8,6.3,16.1,10.8,23.6
	c1.7,4.8,8.2,14,7,13.5c1.3,2.2,2.6,4.5,3.8,6.7c1,1.9,1.9,3.8,2.9,5.7c2.6,4.4,5.1,8.7,7.7,13.1c1.4,2.7,3.5,4.9,5.5,7.2
	c0.3-0.2,0.5-0.3,0.8-0.4c-0.3,0.1-0.5,0.2-0.8,0.4c1.4,3.2,3.8,5.8,5.8,8.6c3.8,5.8,8.1,11.3,13.3,15.9c1,1.3,2,2.6,3,3.9
	c0.2,0.2,0.4,0.4,0.7,0.6c0.3-0.1,0.6-0.1,0.9-0.1c-0.3,0-0.6,0-0.9,0.1c0.9,2.3,3,3.6,4.4,5.4c2.1,1.9,4.2,3.9,6.4,5.8
	c0.1-0.1,0.2-0.2,0.2-0.2c-0.1,0.1-0.2,0.2-0.2,0.2c1,1.8,2,3.7,4.4,4c0.3,0.1,0.7,0.3,1,0.4c1.5-0.2,2.2,0.2,2.4,0.9
	c-0.2-0.7-0.8-1.1-2.4-0.9c-0.6,1.9,0.8,2.4,2,3c2.4,3.5,5.9,6,8.8,9c1,0.7,2,1.4,2.9,2.1c1.5,2.6,4,4,6.4,5.6
	c0.2-0.3,0.4-0.5,0.6-0.7c-0.2,0.1-0.4,0.3-0.6,0.7c2.1,2.4,4.2,4.7,7.2,6c1.2,2.9,4.9,3.1,6.4,5.8c0.2-0.2,0.4-0.3,0.7-0.5
	c-0.2,0.2-0.4,0.3-0.7,0.5c3.6,2.4,6.7,5.5,10.7,7.3c3.6,3.5,12.9,10.6,14,10.9c0.5,0.3,1.1,0.6,1.6,1c0.1-0.2,0.2-0.4,0.4-0.7
	c-0.1,0.2-0.3,0.4-0.4,0.7c2.1,1.2,4.3,2.4,6.4,3.7c2.1,2.4,4.8,3.9,7.7,5.3c4.7,3.1,9,6.9,14.2,9.3c1.1,0.5,2.3,1,2.5,2.4
	c1.6,0.9,3.2,1.8,4.8,2.7c1.6,0.9,3.2,1.8,4.8,2.7c9.6,5.5,19.3,11,28.9,16.5c5.4,3,10.7,6.1,16.1,9.1c0.1-0.2,0.3-0.4,0.5-0.5
	c4.7-0.5,6.3,4.9,10.4,5.6c2.2,1.2,4.4,2.5,6.5,3.7c1.6,0.9,3.2,1.8,4.7,2.8c0.5,0.3,1.1,0.6,1.6,0.9c6.6,2.9,12.6,7.2,19.2,9.8
	c14.1,5.7,27.4,13.3,41.7,18.7c10.9,4.1,21.9,8,33,11.5c10.7,3.3,21.6,5.8,32.7,7.9c12.4,2.3,24.6,4,37.2,2.8
	c2.9,0.5,5.8,0.6,8.6-0.3c14.8,0.4,28.6-4.4,42.7-7.6c0.4-0.1,0.8-0.3,1.1-0.4c19.8-2.8,39.6-5.4,59.3-8.5c11.9-1.9,23.8-4.1,35.2-8
	c2.4-0.5,5-0.3,6.8-2.4c2.1-0.6,4.3-1.2,6.4-1.8c5-2,9.6-4.9,13.9-8.2c0.5-0.4,1.1-0.8,1.6-1.1c2.5-1.8,5-3.6,7.4-5.4
	c5.8-5.5,11.9-10.8,17.5-16.6c5-5.2,10.7-9.9,14.8-16c0.4-0.5,0.8-1,1.2-1.5c7.8-9.3,15.8-18.5,21.7-29.2c0.7-0.8,1-1.9,2.3-1.9
	c0.8-1.3,1.5-2.7,2.3-4c0.3-0.5,0.6-1.1,0.9-1.6c0.5-0.8,0.9-1.6,1.4-2.4c-0.6-0.7-0.2-1.4,0-2.2c2.1-3,3.2-6.4,2.8-10.1
	c1.3-4.6,2.6-9.2,1.6-14c-0.1-1.7-0.4-3.4-1.6-4.9c0-1.2-0.9-1.8-1.8-2.3c-1.7-2.9-3.8-5.4-6.8-6.9c-5.7-5.1-11.5-10.3-14.3-17.8
	c-1.8,0-1.8-6.8-2.8-10.2c-1.8-6.2-1.2-13.1-5.2-18.8c-0.2-4.8-3-8.8-4.2-13.3c-5.6-11.3-22.6-27.5-20.2-31.5
	c-0.5-1.3-0.9-2.6-2.1-3.4c-11-7.7-21.7-15.8-34.6-20.3c-0.5-0.3-1.1-0.7-1.6-1c-3-2.1-6.3-3.5-9.1-6.1c-6.4-6-10.6-13.7-16.4-20.1
	c-7.7-10.8-16.1-20.9-27.8-27.7c-0.6-2.2-2.9-2.5-4.5-3.5c-1.7-1.4-3.5-2.7-5.2-4.1c-8.6-6-17.2-12.1-25.8-18.1
	c-4.3-4.1-8.6-8.3-13.5-11.8c-2.3,1.6-2.1,2.3-1.2,2.9c-0.9-0.6-1.1-1.3,1.2-2.9c-3.1-4.1-7.3-7-11.6-9.7c-0.5-0.3-1-0.7-1.4-1
	c-0.3,0.2-0.6,0.3-0.9,0.4c0.3-0.1,0.6-0.3,0.9-0.4c-0.9-2-2.8-2.5-4.6-3.3c-0.2-0.2-0.4-0.4-0.6-0.6c-0.7,0.2-1.3,0.4-1.9,0.5
	c0.6-0.1,1.2-0.4,1.9-0.5c-6.6-6-13.6-11.5-19.4-18.4c-3.5-4.2-7.6-7.9-11.5-11.8c-0.5-0.4-0.9-0.7-1.4-1.1
	c-1.2-2.1-2.7-3.8-4.9-4.7c-3.3-3.8-7.9-6.2-11.6-9.7c-1-0.6-2.1-1.2-3.1-1.8c-1.9-2.2-4.2-3.7-6.7-5.1c-5.3-4.4-10.6-8.8-15.9-13.2
	c0,0.4,0,0.7,0,1c0,0.3-0.1,0.6-0.2,0.9c0.1-0.3,0.1-0.6,0.2-0.9c0-0.3,0-0.7,0-1c-2.1-1.4-3.5-3.7-6-4.5
	c-7.5-7.5-16.7-12.7-25.4-18.6c-9.3-6.3-19.4-11.7-29.9-15.8c-18.7-7.3-37.7-13.8-58-15.2c-8.5-1.7-17-1.3-25.5-0.7
	c-1,0.1-1.9,0.9-2.8,1.4c0.2,0.5,0.5,1,0.7,1.3c-0.2-0.4-0.5-0.8-0.7-1.3c-3.5-1.7-6.6,0.6-10,0.8c-1.8,0.7-3.6,1.5-5.4,2.2
	c0.1,0.5,0.3,1,0.6,1.3c-0.3-0.3-0.5-0.8-0.6-1.3c-6.6,2.3-13.2,4.6-19.9,6.9c-2.3,0.9-4.5,1.8-6.8,2.6c-2.7,0.1-5.1,1-7.5,2
	c-7.7,1.9-15.3,3.8-22.4,7.6c-5.9,0.8-11.2,3.5-16.9,5c-5.8-0.2-10.3,3.6-15.5,5.1c-1.8,0.7-3.7,1.4-5.5,2.1
	c-5.1,2.1-10.2,4.2-15.3,6.3c1.3,0.8,2.7,1.4,3.6,2.4c-0.9-1-2.3-1.6-3.6-2.4c-0.5,0.4-1.1,0.8-1.6,1.2c-1.3,0.3-2.6,0.6-3.9,0.9
	c-0.6,0.4-1.2,0.8-1.7,1.2c-5.3,1.2-9.7,4.2-14.4,6.7c0,0.2,0.1,0.4,0.1,0.6c0-0.2,0-0.4-0.1-0.6c-1.6,0.8-3.5,1.1-4.7,2.6
	c-2.8,0.3-5.1,1.6-7.3,3.3c0.3,0.5,0.6,1,0.7,1.5c-0.1-0.5-0.4-1-0.7-1.5c-2.2,0.3-3.9,1.5-5.7,2.7c-3.7,2.4-7.7,4.3-11.4,6.7
	c-3.1,1.9-7.8,2.7-11.7,4.2c-2.5,0-5-0.6-7.5,0c-2.5,0.2-4-1.9-6-2.9c-6.4-3.1-12.4-2.1-18.5,0.6c-4.7-0.1-7.2,3.6-10.1,6.2
	c-6.1,5.4-11.2,11.7-15.5,18.6C803.8,2475.3,800.3,2481.3,800,2488.7z"/>
<path class="st3" d="M3111.3,2332.8c-1.1-2.3-3.3-3.8-4.4-6.2c-2.9-5.9-4.8-11.9-5.5-18.5c-0.9-8.6-0.7-17.3-1.9-25.9
	c-0.9-6.4-2.1-12.7-3.3-19c-0.6-3.5-1.3-7.1-2.1-10.6c-0.7-2.9-1.7-5.7-3.5-8.2c-0.7-1-0.7-2.5-1.3-3.7c-2.4-4.7-5.9-8.8-8.8-13.1
	c-3.3-4.9-5.9-10.2-8.6-15.4c-1.7-3.2-4.1-6-6.5-8.6c-5.1-5.6-10.5-11.1-16.1-16.2c-5.6-5-11.6-9.6-17.4-14.5
	c-4.1-3.5-8.7-6.2-13.1-9.2c-0.7-0.5-1.5-1-2.4-0.9c-0.3-0.7-1-0.8-1.5-1.2c-3.8-2.8-8.2-4.5-12.2-6.8c-4.1-2.4-8.4-4.3-12.8-6
	c-5-1.9-10.1-3.8-15.1-6c0,0.2,0,0.3,0,0.5c0-0.2,0-0.4,0-0.5c-0.6-0.5-1.3-0.7-2-0.8c-0.8-0.2-1.4-0.9-2.3-0.9
	c-0.3-0.3-0.7-0.4-1.2-0.4c-1.6-1.2-3.4-1.9-5.3-2.3c-0.1,0-0.3,0-0.4,0c-1.6-0.8-3.2-1.6-4.8-2.5c-8.6-5.5-17.1-11.1-26.6-15
	c-4.9-2-9.6-4.3-14.8-5.5c-0.5-0.7-1.3-0.7-2-0.8c-0.3-0.1-0.5-0.2-0.8-0.3c-1.1-0.4-2.2-0.9-3.4-1.2c-7.7-1.7-15.5-3.4-23.3-4.9
	c-8.6-1.7-17.3-3.3-26-4.5c-3.5-0.5-7-1-10.5-1.5c-4.2-0.4-8.3-1.2-12.4-1.3c0,0.3,0.1,0.5,0.2,0.7c-0.1-0.2-0.2-0.4-0.2-0.7
	c-2.4-0.7-4.8-0.8-7.3-1.1c-2.8,0-5.6-0.8-8.5-0.6c-0.4-0.1-0.8-0.2-1.2-0.3c-0.9,0-1.7,0-2.6,0c0.9,0,1.7,0,2.6,0
	c0-0.1,0-0.3,0-0.4c-2,0-4,0-6,0c-1.2,0-2.4,0-3.6,0c-1.5,0-2.9,0-4.4,0c0,0.1,0,0.3,0.1,0.4c-0.3,0.1-0.6,0.2-0.9,0.4
	c-1.2,0.2-2.6-0.4-3.2,1.2c-0.3,0-0.5,0-0.8,0c-0.3,0-0.5,0-0.8,0c-2.8,0.7-5.6,1.3-8.4,2c-2.3,0.3-4.6,0.6-6.9,0.9
	c-3.4,0.4-6.7,0.7-10.1,1.1c-0.5,0.1-1,0.3-1.5,0.4c0.1,0.5,0.1,0.9,0.2,1.4c-0.1-0.4-0.1-0.9-0.2-1.4c-1.5-0.1-3.1,0.1-4.5,0.7
	c-4.2,0.5-8.2,1.5-12,3.3c-0.4,0-0.9,0-1.2,0.4c-4,0.9-7.8,2.4-11.6,4c-1.5,0.6-3,1.4-4.5,2.1c-0.3,0.1-0.5,0.2-0.8,0.4
	c-2.2,0.6-4.3,1.5-6.4,2.5c-1.1,0.2-2,0.9-2.8,1.6c-2.8,0.1-5.2,1.2-7.6,2.4l-0.2,0l-0.2,0c0,0.2-0.1,0.4-0.1,0.6
	c0-0.2,0.1-0.4,0.1-0.6c-1.6,0.3-3.2,0.6-4.8,0.9c-1.5,0.4-3,0.3-4.5,0.4c-1.3,0.1-2.7,0.2-4,0.3c-0.3,0-0.5,0-0.8,0
	c-0.1,0.4-0.3,0.9-0.4,1.3c0.2-0.4,0.4-0.9,0.4-1.3c-2.9,0.1-5.7,1-8.4,2.1c-0.4,0.2-0.8,0.5-1.2,0.7c-3.7,0.6-6.6,2.7-9.3,5.2
	c-1.5,0.9-2.9,1.8-4,3.2c1.1,0.2,1.6,0.7,1.9,1.3c-0.3-0.7-0.8-1.2-1.9-1.3c-2.1,0.8-4.2,1.5-6,2.8c-1.8,0.3-3.2,1.1-4.5,2.3
	c0.5,0.3,0.9,0.7,1.5,0.9c-0.6-0.1-1-0.5-1.5-0.9c-3.5,1.7-5.5,5-8,7.7c-1.3,1.8-3.8,2.7-4.5,5.1c-2,1.3-3.6,2.8-4.8,4.9
	c-0.9,0-1.2,0.6-1.6,1.2c-2.7,2.1-5.4,4.3-8,6.4c0.2,0.1,0.4,0.3,0.5,0.5c-0.1-0.2-0.3-0.3-0.5-0.5c-1.9,1.3-3.7,2.7-5.2,4.4
	c-3.1,2-6,4-8.1,7.2c-1,0.3-1.7,1-2,2c-2.9,2.7-5.9,5.4-8,8.8c-1,0.5-1.6,1.4-2,2.4c0.2,0,0.4,0,0.6,0.1c-0.2,0-0.4,0-0.6-0.1
	c-1.9,1.7-3.6,3.7-4.8,6.1c-1.7,0.8-2.4,2.5-3.3,4c-1.4,1.9-2.8,3.7-4.1,5.7c-0.7,1.1-1.7,2.1-1.6,3.6c-2.1,2-3.4,4.5-4.4,7.2
	c0.1,0.3,0.4,0.4,0.5,0.7c-0.2-0.2-0.4-0.4-0.5-0.7c-0.5,0.4-0.8,0.9-1,1.5c-2.9,5.6-5.6,11.3-8.1,17.1c-0.8,1.8-0.9,3.9-2.4,5.4
	c-2,2.2-4.2,4.2-5.9,6.7c-1.4,2-3.2,3.8-3.7,6.3c-0.9,1.7-0.3,3.5-0.4,5.3c0.1,2.2-0.3,4.2-0.8,6.3c-0.4,1.6-1,3.2-1.2,4.8
	c-0.7,4.7-1.2,9.5-2.7,14.1c-1.4,4.1-2.4,8.3-3.2,12.5c-1.2,6.4-1.6,12.9-3.6,19.1c-1.7,5.2-3.3,10.5-4.4,15.9
	c-1.1,5.2-2.4,10.4-2.2,15.8c0.4,7.8-1.3,15.4-1.6,23.1c-0.1,0.8-0.3,1.6-0.4,2.4c0.5,1-0.6,1.8-0.4,2.8c-1.1,2.7-1.1,5.6-1.1,8.4
	c-0.1,6-1.3,11.9-2,17.8c-0.1,1,0.3,2.2-0.5,3.1c0,1.7,0,3.5,0,5.2c0,0.5,0,1.1,0,1.6c0,5.6,0,11.3,0,16.9c0,0.8,0,1.6,0,2.4
	c0,0.8,0,1.6,0,2.4c0,1.2,0,2.4,0,3.6c0,1.5,0,2.9,0,4.4c0,10.9,0,21.7,0,32.6c0.9,4.2,2.8,8.1,4.5,12c0.1,0,0.3-0.1,0.4-0.1
	c-0.1,0.1-0.2,0.1-0.4,0.1c0.3,0.8,0.4,1.5,0.8,2.2c1.1,2.3,1.9,4.9,4,6.6c-0.3,3.7,2,6.3,3.5,9.3c0.1,0.7,0.5,1.1,1.2,1.2
	c0.4-0.3,0.3-0.7,0.5-1.1c-0.1,0.4-0.1,0.8-0.5,1.1c0.1,0.5-0.1,1.2,0.4,1.6c0.4,2.5,2,4.3,3.7,6c0.2,0.8,0.6,1.5,0.7,2.3
	c1.4,6,3.9,11.7,6.1,17.4c0,0.1,0,0.3,0,0.4c-0.1,5.1,0.3,10.2,3,14.7c2.7,4.5,5.9,8.7,9.1,12.9c6.1,8.2,13.4,15.3,20.2,22.9
	c4.7,5.3,10.3,9.6,16,13.8c1.7,1.3,3.3,3,5.5,3.6c2.6,2.6,5.9,4.3,8.9,6.4c1.5,1.1,2.9,2.4,4.8,2.9c0.4,1.1,1.5,1.3,2.4,1.6
	c-0.3-0.8-0.7-1.6-0.9-2.5c0.1,0.9,0.5,1.7,0.9,2.5c0.8,1.1,2,1.7,3.2,2.3c6.2,5,12.6,9.6,19.3,13.9c2.1,1.3,3.9,3.3,6.6,3.4
	c2.3,3.3,6.3,4.1,9.4,6.1c1.6,1,3.3,1.9,5.2,2.4c1.1,0.8,2.2,1.4,3.6,1.7c1.8,1,3.7,1.7,5.7,2.3c1.9,0.8,3.9,1.4,6,1.7
	c2.2,0.6,4.4,1.5,6.8,1.2c1.5,0.7,3,1,4.6,1.1c7.5,0.3,15.1,0.1,22.6-0.4c5.5-0.3,10.8,0.3,16.2,1c3.7,0.5,7.5,0.9,11.2,1.5
	c5.5,0.8,11,1.1,16.5,1.2c1.3,0.1,2.5,0,3.8,0c-1.3,0-2.6,0.2-3.8,0c0,0.1,0,0.3-0.1,0.4c2.3,0,4.6,0,6.8,0c4.4,0,8.8,0,13.3,0
	c1.5,0,2.9,0,4.4,0c1.7-0.6,3.5-0.6,5.2-0.8c5.6-0.6,11.1-1.2,16.7-1.7c3.7-0.4,7.4-0.7,11.1-1.1c8.4-0.9,16.7-2.1,24.6-5.1
	c0.2-0.1,0.4-0.3,0.6-0.5c0.6,0,1.2,0.1,1.6-0.4c1.6-0.1,3-0.8,4.4-1.2c2.5-0.4,4.8-1.5,7.1-2.5c2.9-1.3,6-2,8.6-3.9
	c1.3-0.6,2.7-0.8,3.6-2c0.8,0,1.6-0.3,2.3-0.6c2.3-1.2,4.6-2.4,6.8-3.8c3.5-2.2,7.3-3.8,10.6-6.4c0.3-0.2,0.5-0.3,0.8-0.5
	c1.1-0.1,1.6-1.1,2.5-1.5c-0.2-0.2-0.3-0.3-0.4-0.5c0.1,0.2,0.2,0.3,0.4,0.5c0.8-0.1,0.7-1,1.2-1.3c1.7,0.3,2.6-0.9,3.6-1.9
	c0.7-0.4,1.4-0.8,2-1.3c2.6-2.1,5.6-3.7,7.3-6.7c2.6-1,4.1-3.4,6-5.2c0-0.3,0-0.5,0-0.8c0.9,0.1,1.3-0.3,1.2-1.2
	c0.6,0,0.8-0.3,0.9-0.7c0.1,0,0.2,0,0.2,0c1-0.6,1.7-1.5,2.5-2.4c3.9-3.5,7.2-7.5,10.9-11.2c1.1-0.3,1.4-1.4,2-2.1
	c2.8-2.2,5.4-4.6,8.4-6.4c1.9-0.6,3.7-1.1,5.6-1.7c0-0.1,0-0.2-0.1-0.2c0,0.1,0,0.2,0.1,0.2c3.2-0.7,6.5-1,9.7-2
	c1.9,0.1,3.5-0.8,5.2-1.3c0.4-0.5,0.1-1.7,0.8-1.9c0.1,0,0.2-0.1,0.4,0c-0.2,0-0.3,0-0.4,0c-0.7,0.2-0.4,1.4-0.8,1.9
	c1-0.2,2-0.4,2.8-1.1c5.3-2.3,9.9-5.6,13.6-10.2c3.4-4.2,7.7-7.5,11.7-11.1c2.9-2.7,6-5.3,8.6-8.3c4-4.7,8.4-9.1,12.2-13.9
	c4.3-5.4,8.8-10.7,12.7-16.5c2.7-4,5.3-8.2,7.7-12.4c3.3-5.6,6.2-11.5,9.3-17.2c2.7-5.1,5.4-10.2,8-15.3c3.7-7.1,6.7-14.5,10.2-21.7
	c1.6-3.3,3-6.7,4.4-10.1c3.1-7.6,6.9-14.8,9.7-22.6c2.6-7.2,4.6-14.6,6.5-22c1.6-6.3,2.6-12.6,4.1-18.9c1.8-7.7,2.6-15.5,2.7-23.4
	C3114,2343.8,3113.9,2338,3111.3,2332.8z"/>
<path class="st0" d="M3303.8,2787.3c-4.4,2-8.7,3.9-13.1,5.9c-1.2,1.1-2.2,2.2-2.8,3.3c0.6-1.2,1.6-2.2,2.8-3.3
	c-8.4,5.6-18.5,8.2-26.6,13.8c-6.3,4.3-15.1,5.2-19.2,12.8c-1.2,0.7-2.5,1.4-3.7,2c-7.8,5.6-12.9,13.6-18.8,20.9
	c-10,12.4-18,26.1-22.6,41.4c-2.1,6.8-2.3,14.4,2.3,19.9c3.9,4.7,4.8,10.1,5.7,15.3c2.2,12.5,4.7,24.9,9.3,36.8
	c1.3,3.5,2.8,7.4,7.2,9.4c9.7,4.6,19.7,7.7,30,10.8c17,5.1,34.1,9.4,51.4,13.2c3.7,2.3,7.9,2.3,12.1,2.3c0.5,0.7,1.1,1.1,1.8,0.5
	c2.7,0.4,5.5,1.1,8.2,1.2c18.5,0.2,36.5-3.3,54.1-8.8c10.4-3.3,21-5.9,31.2-9.6c11.7-4.2,21-12.4,30.2-20.5
	c21.1-18.5,40.7-38.4,58.8-59.7c6.6-7.7,13.4-15.7,16.1-26.3c3.6-14,2-27.9-0.3-41.6c-1.5-8.6-3.6-17.6-10.4-24
	c-10.8-10.1-22.2-19.4-35.4-26.4c-13.4-7.1-25.6-17.1-41.7-17.3c-6.8-0.1-13.7,0.3-20.5,0.4c-8.4,2.3-17.2-0.9-25.6,1.8
	c-0.6-0.2-1.3-0.5-1.9-0.4c-19.3,3.3-38.3,7-56.2,15.7C3318.9,2780.3,3310.1,2781.1,3303.8,2787.3z"/>
<path class="st2" d="M3779,2414.7c-1.4,5.1,1.6,10,0.7,15.1c-0.3,1.6,1.1,2.7,2.5,3.5c0.3-0.7,2.7,15,5.5,22.2
	c0.6,5.1,5.1,14.5,4.6,14.3c1.7,3.8,4.8,13.9,5.3,15c0.4,1.2,0.7,2.4,1.1,3.5c4.5,11,7.3,22.5,12.3,33.3c3.7,7.8,6.3,16.1,10.8,23.6
	c1.7,4.8,8.2,14,7,13.5c1.3,2.2,2.6,4.5,3.8,6.7c1,1.9,1.9,3.8,2.9,5.7c2.6,4.4,5.1,8.7,7.7,13.1c1.4,2.7,3.5,4.9,5.5,7.2
	c0.3-0.2,0.5-0.3,0.8-0.4c-0.3,0.1-0.5,0.2-0.8,0.4c1.4,3.2,3.8,5.8,5.8,8.6c3.8,5.8,8.1,11.3,13.3,15.9c1,1.3,2,2.6,3,3.9
	c0.2,0.2,0.4,0.4,0.7,0.6c0.3-0.1,0.6-0.1,0.9-0.1c-0.3,0-0.6,0-0.9,0.1c0.9,2.3,3,3.6,4.4,5.4c2.1,1.9,4.2,3.9,6.4,5.8
	c0.1-0.1,0.2-0.2,0.2-0.2c-0.1,0.1-0.2,0.2-0.2,0.2c1,1.8,2,3.7,4.4,4c0.3,0.1,0.7,0.3,1,0.4c1.5-0.2,2.2,0.2,2.4,0.9
	c-0.2-0.7-0.8-1.1-2.4-0.9c-0.6,1.9,0.8,2.4,2,3c2.4,3.5,5.9,6,8.8,9c1,0.7,2,1.4,2.9,2.1c1.5,2.6,4,4,6.4,5.6
	c0.2-0.3,0.4-0.5,0.6-0.7c-0.2,0.1-0.4,0.3-0.6,0.7c2.1,2.4,4.2,4.7,7.2,6c1.2,2.9,4.9,3.1,6.4,5.8c0.2-0.2,0.4-0.3,0.7-0.5
	c-0.2,0.2-0.4,0.3-0.7,0.5c3.6,2.4,6.7,5.5,10.7,7.3c3.6,3.5,12.9,10.6,14,10.9c0.5,0.3,1.1,0.6,1.6,1c0.1-0.2,0.2-0.4,0.4-0.7
	c-0.1,0.2-0.3,0.4-0.4,0.7c2.1,1.2,4.3,2.4,6.4,3.7c2.1,2.4,4.8,3.9,7.7,5.3c4.7,3.1,9,6.9,14.2,9.3c1.1,0.5,2.3,1,2.5,2.4
	c1.6,0.9,3.2,1.8,4.8,2.7c1.6,0.9,3.2,1.8,4.8,2.7c9.6,5.5,19.3,11,28.9,16.5c5.4,3,10.7,6.1,16.1,9.1c0.1-0.2,0.3-0.4,0.5-0.5
	c4.7-0.5,6.3,4.9,10.4,5.6c2.2,1.2,4.4,2.5,6.5,3.7c1.6,0.9,3.2,1.8,4.7,2.8c0.5,0.3,1.1,0.6,1.6,0.9c6.6,2.9,12.6,7.2,19.2,9.8
	c14.1,5.7,27.4,13.3,41.7,18.7c10.9,4.1,21.9,8,33,11.5c10.7,3.3,21.6,5.8,32.7,7.9c12.4,2.3,24.6,4,37.2,2.8
	c2.9,0.5,5.8,0.6,8.6-0.3c14.8,0.4,28.6-4.4,42.7-7.6c0.4-0.1,0.8-0.3,1.1-0.4c19.8-2.8,39.6-5.4,59.3-8.5c11.9-1.9,23.8-4.1,35.2-8
	c2.4-0.5,5-0.3,6.8-2.4c2.1-0.6,4.3-1.2,6.4-1.8c5-2,9.6-4.9,13.9-8.2c0.5-0.4,1.1-0.8,1.6-1.1c2.5-1.8,5-3.6,7.4-5.4
	c5.8-5.5,11.9-10.8,17.5-16.6c5-5.2,10.7-9.9,14.8-16c0.4-0.5,0.8-1,1.2-1.5c7.8-9.3,15.8-18.5,21.7-29.2c0.7-0.8,1-1.9,2.3-1.9
	c0.8-1.3,1.5-2.7,2.3-4c0.3-0.5,0.6-1.1,0.9-1.6c0.5-0.8,0.9-1.6,1.4-2.4c-0.6-0.7-0.2-1.4,0-2.2c2.1-3,3.2-6.4,2.8-10.1
	c1.3-4.6,2.6-9.2,1.6-14c-0.1-1.7-0.4-3.4-1.6-4.9c0-1.2-0.9-1.8-1.8-2.3c-1.7-2.9-3.8-5.4-6.8-6.9c-5.7-5.1-11.5-10.3-14.3-17.8
	c-1.8,0-1.8-6.8-2.8-10.2c-1.8-6.2-1.2-13.1-5.2-18.8c-0.2-4.8-3-8.8-4.2-13.3c-5.6-11.3-22.6-27.5-20.2-31.5
	c-0.5-1.3-0.9-2.6-2.1-3.4c-11-7.7-21.7-15.8-34.6-20.3c-0.5-0.3-1.1-0.7-1.6-1c-3-2.1-6.3-3.5-9.1-6.1c-6.4-6-10.6-13.7-16.4-20.1
	c-7.7-10.8-16.1-20.9-27.8-27.7c-0.6-2.2-2.9-2.5-4.5-3.5c-1.7-1.4-3.5-2.7-5.2-4.1c-8.6-6-17.2-12.1-25.8-18.1
	c-4.3-4.1-8.6-8.3-13.5-11.8c-2.3,1.6-2.1,2.3-1.2,2.9c-0.9-0.6-1.1-1.3,1.2-2.9c-3.1-4.1-7.3-7-11.6-9.7c-0.5-0.3-1-0.7-1.4-1
	c-0.3,0.2-0.6,0.3-0.9,0.4c0.3-0.1,0.6-0.3,0.9-0.4c-0.9-2-2.8-2.5-4.6-3.3c-0.2-0.2-0.4-0.4-0.6-0.6c-0.7,0.2-1.3,0.4-1.9,0.5
	c0.6-0.1,1.2-0.4,1.9-0.5c-6.6-6-13.6-11.5-19.4-18.4c-3.5-4.2-7.6-7.9-11.5-11.8c-0.5-0.4-0.9-0.7-1.4-1.1
	c-1.2-2.1-2.7-3.8-4.9-4.7c-3.3-3.8-7.9-6.2-11.6-9.7c-1-0.6-2.1-1.2-3.1-1.8c-1.9-2.2-4.2-3.7-6.7-5.1c-5.3-4.4-10.6-8.8-15.9-13.2
	c0,0.4,0,0.7,0,1s-0.1,0.6-0.2,0.9c0.1-0.3,0.1-0.6,0.2-0.9s0-0.7,0-1c-2.1-1.4-3.5-3.7-6-4.5c-7.5-7.5-16.7-12.7-25.4-18.6
	c-9.3-6.3-19.4-11.7-29.9-15.8c-18.7-7.3-37.7-13.8-58-15.2c-8.5-1.7-17-1.3-25.5-0.7c-1,0.1-1.9,0.9-2.8,1.4c0.2,0.5,0.5,1,0.7,1.3
	c-0.2-0.4-0.5-0.8-0.7-1.3c-3.5-1.7-6.6,0.6-10,0.8c-1.8,0.7-3.6,1.5-5.4,2.2c0.1,0.5,0.3,1,0.6,1.3c-0.3-0.3-0.5-0.8-0.6-1.3
	c-6.6,2.3-13.2,4.6-19.9,6.9c-2.3,0.9-4.5,1.8-6.8,2.6c-2.7,0.1-5.1,1-7.5,2c-7.7,1.9-15.3,3.8-22.4,7.6c-5.9,0.8-11.2,3.5-16.9,5
	c-5.8-0.2-10.3,3.6-15.5,5.1c-1.8,0.7-3.7,1.4-5.5,2.1c-5.1,2.1-10.2,4.2-15.3,6.3c1.3,0.8,2.7,1.4,3.6,2.4c-0.9-1-2.3-1.6-3.6-2.4
	c-0.5,0.4-1.1,0.8-1.6,1.2c-1.3,0.3-2.6,0.6-3.9,0.9c-0.6,0.4-1.2,0.8-1.7,1.2c-5.3,1.2-9.7,4.2-14.4,6.7c0,0.2,0.1,0.4,0.1,0.6
	c0-0.2,0-0.4-0.1-0.6c-1.6,0.8-3.5,1.1-4.7,2.6c-2.8,0.3-5.1,1.6-7.3,3.3c0.3,0.5,0.6,1,0.7,1.5c-0.1-0.5-0.4-1-0.7-1.5
	c-2.2,0.3-3.9,1.5-5.7,2.7c-3.7,2.4-7.7,4.3-11.4,6.7c-3.1,1.9-7.8,2.7-11.7,4.2c-2.5,0-5-0.6-7.5,0c-2.5,0.2-4-1.9-6-2.9
	c-6.4-3.1-12.4-2.1-18.5,0.6c-4.7-0.1-7.2,3.6-10.1,6.2c-6.1,5.4-11.2,11.7-15.5,18.6C3782.8,2401.3,3779.3,2407.3,3779,2414.7z"/>
<path class="st3" d="M4075.5,2059.4c0.9,1.6,2.5,2.7,3.5,4.4c2.3,4.2,3.9,8.6,4.7,13.4c1,6.3,1.1,12.7,2.3,19
	c0.9,4.7,2,9.3,3.1,13.9c0.6,2.6,1.2,5.2,1.9,7.7c0.6,2.1,1.5,4.1,2.9,5.9c0.6,0.7,0.6,1.8,1.1,2.7c1.9,3.4,4.6,6.2,7,9.3
	c2.6,3.5,4.7,7.3,6.9,11c1.4,2.3,3.2,4.3,5.1,6.1c4,4,8.1,7.8,12.5,11.3c4.3,3.5,8.9,6.6,13.3,10c3.1,2.4,6.6,4.3,9.9,6.3
	c0.5,0.3,1.1,0.7,1.8,0.5c0.2,0.5,0.7,0.6,1.1,0.8c2.9,1.9,6.2,3,9.2,4.6c3.1,1.6,6.3,2.8,9.6,3.9c3.8,1.2,7.6,2.4,11.3,3.8
	c0-0.1,0-0.3,0-0.4c0,0.1,0,0.3,0,0.4c0.4,0.4,1,0.4,1.5,0.5c0.6,0.1,1.1,0.6,1.8,0.6c0.2,0.2,0.6,0.2,0.9,0.3
	c1.2,0.8,2.6,1.2,4,1.5c0.1,0,0.2,0,0.3,0c1.2,0.6,2.4,1.1,3.6,1.7c6.5,3.7,13,7.5,20.1,10.1c3.7,1.3,7.2,2.8,11.1,3.5
	c0.4,0.5,1,0.5,1.5,0.5c0.2,0.1,0.4,0.1,0.6,0.2c0.8,0.3,1.7,0.6,2.5,0.7c5.8,1,11.5,1.9,17.3,2.8c6.4,0.9,12.8,1.8,19.3,2.3
	c2.6,0.2,5.2,0.5,7.8,0.7c3.1,0.1,6.1,0.6,9.2,0.5c0-0.2-0.1-0.3-0.2-0.5c0.1,0.2,0.2,0.3,0.2,0.5c1.8,0.5,3.6,0.4,5.4,0.6
	c2.1-0.1,4.2,0.4,6.2,0.1c0.3,0.1,0.6,0.1,0.9,0.2c0.6,0,1.3-0.1,1.9-0.1c-0.6,0-1.3,0.1-1.9,0.1c0,0.1,0,0.2,0,0.3
	c1.5-0.1,3-0.1,4.4-0.2c0.9,0,1.8-0.1,2.7-0.1c1.1-0.1,2.2-0.1,3.3-0.2c0-0.1,0-0.2-0.1-0.3c0.2-0.1,0.4-0.2,0.6-0.3
	c0.8-0.2,1.9,0.2,2.3-1c0.2,0,0.4,0,0.6,0c0.2,0,0.4,0,0.6,0c2-0.6,4.1-1.2,6.1-1.8c1.7-0.3,3.3-0.6,5-0.9c2.5-0.4,4.9-0.8,7.4-1.2
	c0.4-0.1,0.7-0.2,1.1-0.3c-0.1-0.3-0.1-0.7-0.2-1c0.1,0.3,0.1,0.7,0.2,1c1.1,0,2.2-0.2,3.3-0.7c3.1-0.5,6-1.4,8.7-2.8
	c0.3,0,0.6,0,0.9-0.3c2.9-0.8,5.7-2.1,8.4-3.3c1.1-0.5,2.1-1.1,3.2-1.7c0.2-0.1,0.4-0.2,0.6-0.3c1.6-0.5,3.1-1.3,4.6-2.1
	c0.8-0.2,1.4-0.7,2-1.3c2-0.1,3.8-1,5.5-2l0.1,0l0.1,0c0-0.1,0-0.3,0.1-0.4c0,0.1,0,0.3-0.1,0.4c1.2-0.3,2.3-0.6,3.5-0.8
	c1.1-0.3,2.2-0.3,3.3-0.4c1-0.1,2-0.3,2.9-0.4c0.2,0,0.4,0,0.6,0c0-0.3,0.2-0.6,0.3-1c-0.1,0.3-0.2,0.6-0.3,1
	c2.2-0.2,4.2-0.9,6.1-1.8c0.3-0.2,0.6-0.4,0.9-0.5c2.7-0.6,4.8-2.2,6.6-4.2c1-0.7,2.1-1.5,2.8-2.5c-0.8-0.1-1.2-0.4-1.4-0.9
	c0.2,0.5,0.6,0.8,1.4,0.9c1.5-0.7,3-1.2,4.3-2.3c1.3-0.3,2.3-1,3.2-1.9c-0.4-0.2-0.7-0.5-1.1-0.6c0.4,0.1,0.7,0.4,1.1,0.6
	c2.5-1.4,3.9-3.9,5.6-6c0.9-1.4,2.7-2.1,3.1-3.9c1.4-1,2.6-2.2,3.4-3.8c0.6,0,0.9-0.5,1.1-1c1.9-1.7,3.8-3.3,5.7-5
	c-0.2-0.1-0.3-0.2-0.4-0.3c0.1,0.1,0.2,0.2,0.4,0.3c1.3-1.1,2.6-2.1,3.7-3.5c2.2-1.6,4.3-3.2,5.7-5.6c0.7-0.3,1.2-0.8,1.4-1.6
	c2.1-2.1,4.1-4.2,5.6-6.8c0.7-0.4,1.2-1.1,1.4-1.9c-0.2,0-0.3,0-0.5,0c0.1,0,0.3,0,0.5,0c1.4-1.4,2.5-2.8,3.3-4.6
	c1.2-0.7,1.7-1.9,2.3-3.1c0.9-1.4,1.9-2.8,2.8-4.3c0.5-0.8,1.2-1.6,1-2.7c1.5-1.5,2.4-3.4,3-5.4c-0.1-0.2-0.3-0.3-0.4-0.5
	c0.1,0.2,0.3,0.3,0.4,0.5c0.4-0.3,0.5-0.7,0.7-1.1c1.9-4.3,3.7-8.5,5.4-12.9c0.5-1.4,0.5-2.9,1.6-4.1c1.4-1.7,2.9-3.3,4.1-5.1
	c0.9-1.5,2.2-2.9,2.5-4.8c0.6-1.3,0.1-2.6,0.1-3.9c-0.2-1.6,0.1-3.1,0.4-4.7c0.3-1.2,0.6-2.4,0.7-3.6c0.3-3.5,0.5-7.1,1.5-10.5
	c0.9-3.1,1.5-6.2,1.9-9.3c0.6-4.7,0.7-9.5,1.9-14.2c1-3.9,2-7.8,2.7-11.9c0.6-3.9,1.4-7.7,1-11.7c-0.5-5.7,0.4-11.4,0.3-17.1
	c0.1-0.6,0.1-1.2,0.2-1.8c-0.4-0.7,0.4-1.4,0.2-2.1c0.7-2,0.6-4.2,0.5-6.2c-0.1-4.4,0.5-8.8,0.8-13.2c0-0.8-0.3-1.6,0.3-2.3
	c-0.1-1.3-0.1-2.6-0.2-3.8c0-0.4,0-0.8-0.1-1.2c-0.2-4.1-0.4-8.3-0.6-12.4c0-0.6-0.1-1.2-0.1-1.8c0-0.6-0.1-1.2-0.1-1.8
	c0-0.9-0.1-1.8-0.1-2.7c-0.1-1.1-0.1-2.2-0.2-3.3c-0.4-8-0.8-16-1.2-24c-0.8-3.1-2.4-5.8-3.7-8.7c-0.1,0-0.2,0.1-0.3,0.1
	c0.1,0,0.2-0.1,0.3-0.1c-0.2-0.5-0.4-1.1-0.7-1.6c-0.9-1.7-1.6-3.6-3.2-4.7c0.1-2.7-1.7-4.6-2.9-6.7c-0.1-0.5-0.4-0.8-0.9-0.8
	c-0.3,0.2-0.2,0.5-0.3,0.8c0.1-0.3,0.1-0.6,0.3-0.8c-0.1-0.4,0-0.9-0.4-1.2c-0.4-1.8-1.6-3.1-2.9-4.3c-0.2-0.5-0.5-1.1-0.6-1.6
	c-1.2-4.4-3.3-8.5-5.1-12.6c0-0.1,0-0.2,0-0.3c-0.1-3.8-0.6-7.5-2.8-10.7c-2.2-3.2-4.7-6.2-7.1-9.2c-4.8-5.8-10.4-10.8-15.7-16.1
	c-3.7-3.7-8-6.7-12.3-9.6c-1.3-0.9-2.5-2.1-4.2-2.4c-2-1.9-4.5-2.9-6.8-4.4c-1.1-0.7-2.2-1.7-3.6-1.9c-0.4-0.8-1.1-0.9-1.8-1.1
	c0.3,0.6,0.6,1.2,0.7,1.8c-0.1-0.7-0.5-1.2-0.7-1.8c-0.7-0.8-1.5-1.2-2.4-1.6c-4.7-3.4-9.6-6.6-14.7-9.5c-1.6-0.9-3-2.3-5-2.3
	c-1.8-2.3-4.8-2.8-7.2-4.2c-1.2-0.7-2.5-1.3-3.9-1.5c-0.8-0.6-1.7-1-2.7-1.1c-1.4-0.7-2.8-1.1-4.3-1.5c-1.4-0.6-2.9-0.9-4.5-1
	c-1.7-0.3-3.3-0.9-5.1-0.6c-1.1-0.4-2.3-0.7-3.4-0.7c-5.6,0-11.1,0.5-16.6,1.1c-4,0.4-8,0.2-12-0.2c-2.8-0.2-5.6-0.4-8.3-0.7
	c-4.1-0.4-8.1-0.4-12.2-0.3c-0.9-0.1-1.9,0.1-2.8,0.2c0.9-0.1,1.9-0.2,2.8-0.2c0-0.1,0-0.2,0-0.3c-1.7,0.1-3.4,0.2-5,0.2
	c-3.3,0.2-6.5,0.3-9.8,0.5c-1.1,0.1-2.2,0.1-3.3,0.2c-1.2,0.5-2.5,0.6-3.8,0.8c-4.1,0.6-8.1,1.2-12.2,1.9c-2.7,0.4-5.4,0.8-8.1,1.2
	c-6.1,0.9-12.2,2.1-17.9,4.6c-0.2,0.1-0.3,0.2-0.5,0.4c-0.4,0-0.9,0-1.2,0.4c-1.1,0.1-2.1,0.7-3.2,1.1c-1.8,0.4-3.5,1.3-5.1,2.1
	c-2.1,1-4.4,1.7-6.2,3.2c-0.9,0.5-2,0.7-2.6,1.6c-0.6,0-1.2,0.3-1.7,0.6c-1.6,1-3.3,1.9-4.9,3c-2.5,1.7-5.3,3.1-7.6,5.1
	c-0.2,0.1-0.4,0.3-0.6,0.4c-0.8,0.1-1.1,0.9-1.8,1.2c0.1,0.1,0.2,0.2,0.3,0.4c-0.1-0.1-0.2-0.2-0.3-0.4c-0.6,0.1-0.5,0.7-0.8,1
	c-1.3-0.1-1.9,0.8-2.6,1.5c-0.5,0.3-1,0.6-1.4,1c-1.8,1.6-4,2.9-5.1,5.2c-1.9,0.9-2.9,2.6-4.2,4.1c0,0.2,0,0.4,0,0.6
	c-0.7-0.1-0.9,0.3-0.8,0.9c-0.4,0-0.5,0.3-0.6,0.6c-0.1,0-0.1,0-0.2,0c-0.7,0.5-1.2,1.2-1.7,1.9c-2.7,2.7-5,5.8-7.6,8.6
	c-0.8,0.2-1,1-1.4,1.6c-2,1.7-3.8,3.6-6,5c-1.4,0.5-2.7,0.9-4.1,1.4c0,0.1,0,0.1,0.1,0.2c0-0.1,0-0.1-0.1-0.2c-2.3,0.7-4.8,1-7,1.8
	c-1.4,0-2.5,0.7-3.8,1.1c-0.3,0.4,0,1.2-0.5,1.4c-0.1,0-0.2,0-0.3,0c0.1,0,0.2,0,0.3,0c0.5-0.2,0.2-1.1,0.5-1.4
	c-0.7,0.2-1.5,0.3-2,0.9c-3.9,1.9-7.1,4.5-9.7,8c-2.4,3.2-5.4,5.8-8.2,8.6c-2.1,2.1-4.2,4.1-6,6.4c-2.8,3.6-5.8,7-8.5,10.7
	c-3,4.1-6.1,8.2-8.7,12.6c-1.9,3.1-3.6,6.2-5.2,9.4c-2.2,4.3-4.2,8.7-6.2,13c-1.8,3.8-3.6,7.7-5.4,11.5c-2.5,5.4-4.4,10.9-6.7,16.4
	c-1,2.5-2,5-2.9,7.6c-2,5.7-4.6,11.2-6.3,17c-1.6,5.4-2.9,10.9-4,16.4c-0.9,4.7-1.5,9.4-2.3,14.1c-1,5.7-1.4,11.5-1.2,17.3
	C4073.1,2051.4,4073.3,2055.6,4075.5,2059.4z"/>
<rect x="1625" class="st5" width="2500" height="2500"/>
<g id="gKBk13_1_">
	
		<image style="overflow:visible;" width="3980" height="2496" id="gKBk13" xlink:href="6AA4D8CF63A53F3E.jpg"  transform="matrix(0.5 0 0 0.5 2279 2936)">
	</image>
</g>
<path class="st0" d="M671.2,2136.2c2,4.4,4,8.7,6,13.1c1.1,1.1,2.2,2.1,3.3,2.8c-1.2-0.6-2.3-1.6-3.3-2.8c5.6,8.4,8.4,18.4,14,26.6
	c4.4,6.3,5.3,15,12.9,19.1c0.7,1.2,1.4,2.5,2.1,3.7c5.6,7.7,13.7,12.9,21,18.7c12.5,9.9,26.2,17.8,41.6,22.3
	c6.8,2,14.4,2.2,19.9-2.4c4.7-3.9,10.1-4.9,15.2-5.8c12.5-2.3,24.9-4.8,36.7-9.5c3.5-1.4,7.3-2.9,9.4-7.3
	c4.5-9.7,7.6-19.8,10.6-30.1c5-17,9.2-34.2,12.8-51.5c2.3-3.7,2.2-7.9,2.2-12.1c0.7-0.5,1.1-1.1,0.5-1.8c0.4-2.7,1.1-5.5,1.1-8.2
	c0.1-18.5-3.5-36.5-9.1-54c-3.3-10.4-6.1-21-9.8-31.2c-4.3-11.7-12.6-20.9-20.7-30.1c-18.6-20.9-38.7-40.4-60.1-58.4
	c-7.7-6.5-15.8-13.3-26.4-15.9c-14-3.5-27.9-1.9-41.6,0.6c-8.6,1.5-17.6,3.7-23.9,10.6c-10,10.9-19.3,22.3-26.2,35.6
	c-7,13.4-16.9,25.7-17,41.9c0,6.8,0.4,13.7,0.6,20.5c2.4,8.4-0.8,17.2,2,25.6c-0.1,0.6-0.5,1.3-0.4,1.9c3.4,19.2,7.2,38.3,16,56.1
	C664.1,2121.2,664.9,2130,671.2,2136.2z"/>
</svg>
