<?xml version="1.0" encoding="utf-8"?>
<!-- Generator: Adobe Illustrator 24.1.0, SVG Export Plug-In . SVG Version: 6.00 Build 0)  -->
<svg version="1.1" id="Layer_1" xmlns="http://www.w3.org/2000/svg" xmlns:xlink="http://www.w3.org/1999/xlink" x="0px" y="0px"
	 viewBox="0 0 120 150" style="enable-background:new 0 0 120 150;" xml:space="preserve">
<style type="text/css">
	.st0{fill:#A9E3ED;}
</style>
<circle class="st0" cx="16.3" cy="27.7" r="34.5"/>
<g>
	<path d="M30.9,97.8c0.6,0,1-0.5,1-1c0-0.2-0.1-0.4-0.1-0.5c-2.3-3.9-5.3-10.7-6.2-20.7c0-0.1,0-0.2,0.1-0.3
		c0.1-0.1,0.2-0.1,0.3-0.1c0.1,0,0.1,0.1,0.2,0.2l5.2,9.6l2.9,5.6c0.3,0.5,0.9,0.7,1.4,0.4s0.7-0.9,0.4-1.4l-2.2-4.2
		c0.8,0.2,1.9,1,3.1,3c0.7,1.2,1.5,2.3,2.5,3.2c0.4,0.4,1.1,0.4,1.5,0c0.4-0.4,0.4-1,0-1.4c-0.8-0.8-1.6-1.8-2.2-2.8
		c-2.3-3.8-4.7-4.2-6-4.1l-4.8-8.9c-0.6-1.2-2.1-1.6-3.3-1c-0.9,0.5-1.3,1.4-1.3,2.4c1,10.4,4.1,17.5,6.5,21.6
		C30.1,97.7,30.5,97.8,30.9,97.8z"/>
	<path d="M89.6,79.8c-0.3-0.5-1-0.6-1.4-0.3c-0.5,0.3-0.6,1-0.3,1.4l0,0c1.4,2.1,2.3,4.5,2.6,7.1c0.5,4.1,2,16.7-3.6,22.8
		c-2.2,2.4-5.3,3.5-9.3,3.4h0c-0.6,0-1,0.5-1,1.1c0,0.5,0.4,1,1,1c0.2,0,0.4,0,0.6,0c4.3,0,7.8-1.4,10.3-4.1
		c6.2-6.8,4.7-20.1,4.1-24.5C92.2,84.9,91.2,82.2,89.6,79.8z"/>
	<path d="M63.1,97.5c3.1-12.5,1.1-19.2-1-22.7c-0.3-0.5-1-0.6-1.5-0.3c-0.5,0.3-0.6,0.9-0.3,1.4C62.3,79,64,85.2,61.1,97
		c0,0,0,0.1,0,0.1c0,0.1-1.5,13.3-10.5,16.1c-5.3,1-8.2,0.1-9.8-0.8c2.8-0.7,5.4-2,7.6-3.8c0.4-0.4,0.5-1,0.2-1.5s-1-0.5-1.5-0.2
		l0,0c-4.3,3.5-8.6,3.7-8.6,3.7h0h0c-2.8,0.3-4.5-1.5-5.3-2.8c2.3-0.3,4.6-0.9,6.7-1.9c4.1-1.8,9.8-5.6,13.2-13.6
		c0.2-0.5,0-1.1-0.6-1.4c-0.5-0.2-1.1,0-1.3,0.5c-2.5,5.9-6.5,10.1-12,12.5c-3.9,1.7-7.2,1.9-7.5,1.9c-3.4-0.2-4.8-1.7-5.3-2.9
		c3.4,0.4,7-0.3,10.5-2.1c5-2.6,9-7,11.2-12.3c1.1-2.8,2.3-5.2,3.4-7.3c0.3-0.5,0.1-1.1-0.4-1.4c-0.5-0.3-1.1-0.1-1.4,0.4l0,0
		c-1.1,2.1-2.3,4.7-3.5,7.5c-2,4.9-5.7,8.9-10.3,11.3c-3.7,1.9-7.3,2.5-10.7,1.7c-0.6-0.1-1.1,0.2-1.3,0.8c0,0.1,0,0.2,0,0.3
		c0,0.1,0.3,5.5,7,6.2c1,2,3.4,4.9,7.3,4.8c0.9,1,3.3,2.9,8.2,2.9c1.6,0,3.2-0.2,4.8-0.5c0,0,0,0,0,0l0.1,0
		C61.1,112.2,62.9,98.7,63.1,97.5z"/>
	<path d="M52.1,77.9c0.5,0.3,1.1,0.2,1.4-0.3c0,0,0,0,0,0l0,0c0.4-0.5,0.3-1.1-0.2-1.5c-0.5-0.4-1.1-0.3-1.5,0.2
		c0,0-0.1,0.1-0.1,0.1l0,0C51.5,76.9,51.6,77.6,52.1,77.9z"/>
	<path d="M57.5,63.2l-0.6,8.1c-0.7,0.3-1.4,0.8-1.9,1.3c-0.4,0.4-0.5,1-0.1,1.5c0.2,0.2,0.5,0.3,0.8,0.3c0.3,0,0.5-0.1,0.7-0.3
		c0.9-0.8,1.4-1,1.5-1c0.3,0,0.5,0,0.7-0.2c0.2-0.2,0.3-0.5,0.3-0.8l0.7-8.8c1.1-6.2,3.4-10.7,7-13.4c0.5-0.3,0.6-1,0.2-1.5
		c-0.3-0.5-1-0.6-1.5-0.2c-0.4,0.3-0.8,0.7-1.2,1c-0.3-0.3-0.6-0.6-1-1c-0.4-0.4-1.1-0.3-1.5,0.1c-0.4,0.4-0.3,1.1,0.1,1.5l0,0
		c0.3,0.3,0.7,0.6,0.9,0.9c-2.5,3-4.2,7-5.1,12.2C57.6,63.2,57.6,63.2,57.5,63.2z"/>
	<path d="M52.5,102.5c-0.5-0.3-1.1-0.2-1.5,0.3l-0.1,0.2c-0.3,0.5-0.2,1.1,0.2,1.5c0.5,0.3,1.1,0.2,1.5-0.2l0,0
		c0.1-0.1,0.1-0.2,0.2-0.2C53.1,103.4,53,102.8,52.5,102.5C52.5,102.5,52.5,102.5,52.5,102.5z"/>
	<path d="M72.8,121.4h-3.4v-4c1-0.4,1.9-0.8,2.9-1.3c7.4-3.9,12.7-10.9,14.5-19.3c1.2-5.6,0.9-11.1-0.8-16.3V63.6
		c0-1.2,0-2.4,0.1-3.8c0.1-1.8,0-4.5-0.9-6.9c-1.6-4.3-5.7-7.2-10.6-7.4c-1.9-1.4-5.6-4.2-12.5-3.8c-0.6,0-2.5,0.1-4.8,1.9
		C57,44,57,44.6,57.3,45c0.3,0.4,0.9,0.5,1.4,0.2c1.6-1.2,2.8-1.4,3.6-1.5c6.3-0.4,9.5,2.1,11.3,3.4l0.1,0.1l0,0c0,0,0,0,0.1,0
		c0,0,0.1,0,0.1,0.1l0.1,0c0,0,0.1,0,0.1,0l0.1,0c0,0,0.1,0,0.1,0h0c4.1,0.1,7.7,2.5,9,6.1c0.8,2.2,0.8,4.7,0.7,6.1
		C84,61.1,84,62.4,84,63.6v17.2c0,0.1,0,0.2,0.1,0.3c1.7,4.9,1.9,10.1,0.8,15.3c-1.7,7.8-6.6,14.3-13.4,17.9
		c-6.5,3.4-12.1,2.6-15.6,1.3c-0.6-0.2-1.1,0.2-1.3,0.7c-0.1,0.5,0.1,1,0.6,1.2c0.8,0.3,1.5,0.5,2.3,0.7v3.1h-0.7
		c-0.6,0-1.1,0.4-1.1,1c0,0.6,0.4,1.1,1,1.1c0,0,0.1,0,0.1,0h6.1c0.6,0,1-0.5,1-1.1c0-0.5-0.5-1-1-1h-3.4v-2.8
		c0.8,0.1,1.7,0.2,2.6,0.2c1.8,0,3.6-0.2,5.4-0.7v3.3h-0.7c-0.6,0-1,0.5-1,1.1c0,0.5,0.5,1,1,1h6.1c0.6,0,1-0.5,1-1.1
		C73.8,121.9,73.4,121.5,72.8,121.4L72.8,121.4z"/>
	<path d="M60.4,48c0.2-0.3,0.6-0.4,0.9-0.5c0.6-0.1,0.9-0.7,0.8-1.2c-0.1-0.5-0.6-0.9-1.2-0.8c-0.8,0.2-1.5,0.6-2.1,1.2
		c-0.4,0.4-0.3,1.1,0.1,1.5C59.4,48.5,60,48.4,60.4,48L60.4,48z"/>
	<path d="M68.7,101.7c0.4,0.4,1.1,0.4,1.5-0.1c0,0,0,0,0,0c1.3-1.4,2-3.1,2-5c0-0.6-0.5-1-1.1-1s-1,0.5-1,1.1l0,0
		c0,1.3-0.5,2.5-1.4,3.5C68.3,100.6,68.3,101.3,68.7,101.7C68.7,101.7,68.7,101.7,68.7,101.7z"/>
	<path d="M74.2,102c0.3,0,0.6-0.1,0.8-0.3c1.3-1.4,2-3.1,2-5c0-0.6-0.6-1-1.1-1c-0.5,0-1,0.5-1,1.1c0,1.3-0.5,2.5-1.4,3.5
		c-0.4,0.4-0.4,1.1,0.1,1.5C73.7,101.9,74,102,74.2,102L74.2,102z"/>
	<path d="M78,101.7c0.4,0.4,1.1,0.4,1.5-0.1c1.3-1.4,2-3.1,2-5c0-0.6-0.5-1-1.1-1s-1,0.5-1,1.1l0,0c0,1.3-0.5,2.5-1.4,3.5
		C77.6,100.6,77.6,101.3,78,101.7C78,101.7,78,101.7,78,101.7z"/>
	<path d="M81.5,69c-0.1-0.6-0.6-1-1.2-0.9c-0.6,0.1-0.9,0.6-0.9,1.2c0,0.2,0.7,5-4.1,8.3c-0.5,0.3-0.6,1-0.2,1.5
		c0.3,0.4,0.9,0.5,1.4,0.3C82.4,75.3,81.5,69.3,81.5,69z"/>
	<path d="M76.5,72.9c0.1-0.6-0.3-1.1-0.9-1.2c-0.5-0.1-1,0.3-1.2,0.8c-0.1,0.3-0.6,2.9-3.7,2.7c-0.6-0.1-1.1,0.3-1.2,0.9
		c-0.1,0.6,0.3,1.1,0.9,1.2c0,0,0.1,0,0.1,0c0.2,0,0.4,0,0.7,0C74.7,77.3,76.2,74.5,76.5,72.9z"/>
	<path d="M67.6,72.1c-0.6-0.1-1.1,0.3-1.2,0.8c-0.1,0.5,0.2,1.1,0.8,1.2c0.4,0.1,0.8,0.1,1.2,0.1c1.3,0,2.5-0.5,3.5-1.4
		c0.4-0.4,0.4-1.1,0-1.5c-0.4-0.4-1.1-0.4-1.5,0c0,0,0,0,0,0.1C69.6,72.1,68.6,72.3,67.6,72.1z"/>
	<path d="M72.1,54.2c0-0.1-0.1-0.1-0.1-0.2c0-0.1-0.1-0.1-0.1-0.2c0,0-0.1-0.1-0.2-0.1c-0.1,0-0.1-0.1-0.2-0.1c-0.1,0-0.1,0-0.2-0.1
		c-0.3-0.1-0.7,0-0.9,0.3c0,0-0.1,0.1-0.1,0.2c0,0.1-0.1,0.1-0.1,0.2c0,0.1,0,0.1-0.1,0.2c0,0.1,0,0.3,0,0.4c0,0.1,0,0.1,0.1,0.2
		c0,0.1,0.1,0.1,0.1,0.2c0,0.1,0.1,0.1,0.1,0.2c0.2,0.2,0.5,0.3,0.7,0.3c0.1,0,0.1,0,0.2,0c0.1,0,0.1,0,0.2-0.1
		c0.1,0,0.1-0.1,0.2-0.1c0.1-0.1,0.2-0.2,0.3-0.3c0-0.1,0.1-0.1,0.1-0.2c0-0.1,0-0.1,0.1-0.2c0-0.1,0-0.3,0-0.4
		C72.1,54.3,72.1,54.2,72.1,54.2z"/>
	<path d="M78.4,55.5c0.1,0,0.1,0,0.2,0.1c0.1,0,0.1,0,0.2,0c0.6,0,1-0.5,1-1c0,0,0,0,0,0c0-0.1,0-0.1,0-0.2c0-0.1,0-0.1-0.1-0.2
		c0-0.1-0.1-0.1-0.1-0.2c0-0.1-0.1-0.1-0.1-0.2c-0.2-0.2-0.6-0.4-0.9-0.3c-0.1,0-0.1,0-0.2,0.1c-0.1,0-0.1,0.1-0.2,0.1
		c-0.1,0-0.1,0.1-0.2,0.1c0,0-0.1,0.1-0.1,0.2c-0.1,0.1-0.1,0.2-0.2,0.4c0,0.1,0,0.1,0,0.2c0,0.3,0.1,0.5,0.3,0.7
		c0,0,0.1,0.1,0.2,0.1C78.3,55.5,78.3,55.5,78.4,55.5z"/>
	<path d="M72.4,59.2L72.4,59.2c-0.9,0.9-1.2,2.1-0.8,3.2c0.4,1.1,1.5,1.9,2.7,1.8H80c0.6,0,1-0.5,1-1c0-0.1,0-0.2,0-0.3
		c0-0.1-0.9-3.1-3.6-4.4C75.8,57.7,73.8,58,72.4,59.2z M78.4,62.2h-4c-0.3,0-0.7-0.2-0.8-0.5c-0.1-0.3-0.1-0.6,0.2-0.9l0,0
		c0.4-0.4,1-0.6,1.6-0.6c0.4,0,0.8,0.1,1.1,0.3C77.3,60.8,78,61.4,78.4,62.2z"/>
</g>
</svg>
