<?xml version="1.0" encoding="utf-8"?>
<!-- Generator: Adobe Illustrator 24.1.0, SVG Export Plug-In . SVG Version: 6.00 Build 0)  -->
<svg version="1.1" id="Layer_1" xmlns="http://www.w3.org/2000/svg" xmlns:xlink="http://www.w3.org/1999/xlink" x="0px" y="0px"
	 viewBox="0 0 120 150" style="enable-background:new 0 0 120 150;" xml:space="preserve">
<style type="text/css">
	.st0{clip-path:url(#SVGID_1_);}
	.st1{clip-path:url(#SVGID_2_);}
	.st2{fill:#FFCFEB;}
	.st3{clip-path:url(#SVGID_1_);fill:none;stroke:#FFCFEB;stroke-width:3;stroke-miterlimit:10;}
	.st4{clip-path:url(#SVGID_1_);fill:none;}
</style>
<g>
	<defs>
		<rect id="SVGID_5_" x="0" width="120" height="150"/>
	</defs>
	<clipPath id="SVGID_1_">
		<use xlink:href="#SVGID_5_"  style="overflow:visible;"/>
	</clipPath>
	<g class="st0">
		<defs>
			<rect id="SVGID_7_" x="88.1" y="-0.5" width="82.5" height="151.1"/>
		</defs>
		<clipPath id="SVGID_2_">
			<use xlink:href="#SVGID_7_"  style="overflow:visible;"/>
		</clipPath>
		<g class="st1">
			<path class="st2" d="M91.4,10h6.6c0.6,0,1.1-0.5,1.1-1.1v0c0-0.6-0.5-1.1-1.1-1.1h-6.6c-0.6,0-1.1,0.5-1.1,1.1v0
				C90.3,9.5,90.8,10,91.4,10z"/>
			<path class="st2" d="M91.4-9.2h6.6c0.6,0,1.1-0.5,1.1-1.1v0c0-0.6-0.5-1.1-1.1-1.1h-6.6c-0.6,0-1.1,0.5-1.1,1.1v0
				C90.3-9.8,90.8-9.2,91.4-9.2z"/>
			<path class="st2" d="M91.4,29.2h6.6c0.6,0,1.1-0.5,1.1-1.1v0c0-0.6-0.5-1.1-1.1-1.1h-6.6c-0.6,0-1.1,0.5-1.1,1.1v0
				C90.3,28.7,90.8,29.2,91.4,29.2z"/>
			<path class="st2" d="M91.4,48.4h6.6c0.6,0,1.1-0.5,1.1-1.1l0,0c0-0.6-0.5-1.1-1.1-1.1h-6.6c-0.6,0-1.1,0.5-1.1,1.1l0,0
				C90.3,47.9,90.8,48.4,91.4,48.4z"/>
			<path class="st2" d="M91.4,67.6h6.6c0.6,0,1.1-0.5,1.1-1.1l0,0c0-0.6-0.5-1.1-1.1-1.1h-6.6c-0.6,0-1.1,0.5-1.1,1.1l0,0
				C90.3,67.1,90.8,67.6,91.4,67.6z"/>
			<path class="st2" d="M91.4,86.9h6.6c0.6,0,1.1-0.5,1.1-1.1l0,0c0-0.6-0.5-1.1-1.1-1.1h-6.6c-0.6,0-1.1,0.5-1.1,1.1l0,0
				C90.3,86.4,90.8,86.9,91.4,86.9z"/>
			<path class="st2" d="M91.4,106.1h6.6c0.6,0,1.1-0.5,1.1-1.1v0c0-0.6-0.5-1.1-1.1-1.1h-6.6c-0.6,0-1.1,0.5-1.1,1.1v0
				C90.3,105.6,90.8,106.1,91.4,106.1z"/>
			<path class="st2" d="M91.4,125.3h6.6c0.6,0,1.1-0.5,1.1-1.1l0,0c0-0.6-0.5-1.1-1.1-1.1h-6.6c-0.6,0-1.1,0.5-1.1,1.1l0,0
				C90.3,124.8,90.8,125.3,91.4,125.3z"/>
			<path class="st2" d="M91.4,144.5h6.6c0.6,0,1.1-0.5,1.1-1.1v0c0-0.6-0.5-1.1-1.1-1.1h-6.6c-0.6,0-1.1,0.5-1.1,1.1v0
				C90.3,144,90.8,144.5,91.4,144.5z"/>
			<path class="st2" d="M112.8,19.9h6.6c0.6,0,1.1-0.5,1.1-1.1v0c0-0.6-0.5-1.1-1.1-1.1h-6.6c-0.6,0-1.1,0.5-1.1,1.1v0
				C111.6,19.4,112.1,19.9,112.8,19.9z"/>
			<path class="st2" d="M112.8,0.6h6.6c0.6,0,1.1-0.5,1.1-1.1v0c0-0.6-0.5-1.1-1.1-1.1h-6.6c-0.6,0-1.1,0.5-1.1,1.1v0
				C111.6,0.1,112.1,0.6,112.8,0.6z"/>
			<path class="st2" d="M112.8,39.1h6.6c0.6,0,1.1-0.5,1.1-1.1v0c0-0.6-0.5-1.1-1.1-1.1h-6.6c-0.6,0-1.1,0.5-1.1,1.1v0
				C111.6,38.6,112.1,39.1,112.8,39.1z"/>
			<path class="st2" d="M112.8,58.3h6.6c0.6,0,1.1-0.5,1.1-1.1v0c0-0.6-0.5-1.1-1.1-1.1h-6.6c-0.6,0-1.1,0.5-1.1,1.1v0
				C111.6,57.8,112.1,58.3,112.8,58.3z"/>
			<path class="st2" d="M112.8,77.5h6.6c0.6,0,1.1-0.5,1.1-1.1l0,0c0-0.6-0.5-1.1-1.1-1.1h-6.6c-0.6,0-1.1,0.5-1.1,1.1l0,0
				C111.6,77,112.1,77.5,112.8,77.5z"/>
			<path class="st2" d="M112.8,96.8h6.6c0.6,0,1.1-0.5,1.1-1.1l0,0c0-0.6-0.5-1.1-1.1-1.1h-6.6c-0.6,0-1.1,0.5-1.1,1.1l0,0
				C111.6,96.3,112.1,96.8,112.8,96.8z"/>
			<path class="st2" d="M112.8,116h6.6c0.6,0,1.1-0.5,1.1-1.1l0,0c0-0.6-0.5-1.1-1.1-1.1h-6.6c-0.6,0-1.1,0.5-1.1,1.1l0,0
				C111.6,115.5,112.1,116,112.8,116z"/>
			<path class="st2" d="M112.8,135.2h6.6c0.6,0,1.1-0.5,1.1-1.1l0,0c0-0.6-0.5-1.1-1.1-1.1h-6.6c-0.6,0-1.1,0.5-1.1,1.1l0,0
				C111.6,134.7,112.1,135.2,112.8,135.2z"/>
			<path class="st2" d="M112.8,154.4h6.6c0.6,0,1.1-0.5,1.1-1.1l0,0c0-0.6-0.5-1.1-1.1-1.1h-6.6c-0.6,0-1.1,0.5-1.1,1.1l0,0
				C111.6,153.9,112.1,154.4,112.8,154.4z"/>
			<path class="st2" d="M134.1,10h6.6c0.6,0,1.1-0.5,1.1-1.1v0c0-0.6-0.5-1.1-1.1-1.1h-6.6c-0.6,0-1.1,0.5-1.1,1.1v0
				C133,9.5,133.5,10,134.1,10z"/>
			<path class="st2" d="M134.1-9.2h6.6c0.6,0,1.1-0.5,1.1-1.1v0c0-0.6-0.5-1.1-1.1-1.1h-6.6c-0.6,0-1.1,0.5-1.1,1.1v0
				C133-9.8,133.5-9.2,134.1-9.2z"/>
			<path class="st2" d="M134.1,29.2h6.6c0.6,0,1.1-0.5,1.1-1.1v0c0-0.6-0.5-1.1-1.1-1.1h-6.6c-0.6,0-1.1,0.5-1.1,1.1v0
				C133,28.7,133.5,29.2,134.1,29.2z"/>
			<path class="st2" d="M134.1,48.4h6.6c0.6,0,1.1-0.5,1.1-1.1l0,0c0-0.6-0.5-1.1-1.1-1.1h-6.6c-0.6,0-1.1,0.5-1.1,1.1l0,0
				C133,47.9,133.5,48.4,134.1,48.4z"/>
			<path class="st2" d="M134.1,67.6h6.6c0.6,0,1.1-0.5,1.1-1.1l0,0c0-0.6-0.5-1.1-1.1-1.1h-6.6c-0.6,0-1.1,0.5-1.1,1.1l0,0
				C133,67.1,133.5,67.6,134.1,67.6z"/>
			<path class="st2" d="M134.1,86.9h6.6c0.6,0,1.1-0.5,1.1-1.1l0,0c0-0.6-0.5-1.1-1.1-1.1h-6.6c-0.6,0-1.1,0.5-1.1,1.1l0,0
				C133,86.4,133.5,86.9,134.1,86.9z"/>
			<path class="st2" d="M134.1,106.1h6.6c0.6,0,1.1-0.5,1.1-1.1v0c0-0.6-0.5-1.1-1.1-1.1h-6.6c-0.6,0-1.1,0.5-1.1,1.1v0
				C133,105.6,133.5,106.1,134.1,106.1z"/>
			<path class="st2" d="M134.1,125.3h6.6c0.6,0,1.1-0.5,1.1-1.1l0,0c0-0.6-0.5-1.1-1.1-1.1h-6.6c-0.6,0-1.1,0.5-1.1,1.1l0,0
				C133,124.8,133.5,125.3,134.1,125.3z"/>
			<path class="st2" d="M134.1,144.5h6.6c0.6,0,1.1-0.5,1.1-1.1v0c0-0.6-0.5-1.1-1.1-1.1h-6.6c-0.6,0-1.1,0.5-1.1,1.1v0
				C133,144,133.5,144.5,134.1,144.5z"/>
			<path class="st2" d="M155.4,19.9h6.6c0.6,0,1.1-0.5,1.1-1.1v0c0-0.6-0.5-1.1-1.1-1.1h-6.6c-0.6,0-1.1,0.5-1.1,1.1v0
				C154.3,19.4,154.8,19.9,155.4,19.9z"/>
			<path class="st2" d="M155.4,0.6h6.6c0.6,0,1.1-0.5,1.1-1.1v0c0-0.6-0.5-1.1-1.1-1.1h-6.6c-0.6,0-1.1,0.5-1.1,1.1v0
				C154.3,0.1,154.8,0.6,155.4,0.6z"/>
			<path class="st2" d="M155.4,39.1h6.6c0.6,0,1.1-0.5,1.1-1.1v0c0-0.6-0.5-1.1-1.1-1.1h-6.6c-0.6,0-1.1,0.5-1.1,1.1v0
				C154.3,38.6,154.8,39.1,155.4,39.1z"/>
			<path class="st2" d="M155.4,58.3h6.6c0.6,0,1.1-0.5,1.1-1.1v0c0-0.6-0.5-1.1-1.1-1.1h-6.6c-0.6,0-1.1,0.5-1.1,1.1v0
				C154.3,57.8,154.8,58.3,155.4,58.3z"/>
			<path class="st2" d="M155.4,77.5h6.6c0.6,0,1.1-0.5,1.1-1.1l0,0c0-0.6-0.5-1.1-1.1-1.1h-6.6c-0.6,0-1.1,0.5-1.1,1.1l0,0
				C154.3,77,154.8,77.5,155.4,77.5z"/>
			<path class="st2" d="M155.4,96.8h6.6c0.6,0,1.1-0.5,1.1-1.1l0,0c0-0.6-0.5-1.1-1.1-1.1h-6.6c-0.6,0-1.1,0.5-1.1,1.1l0,0
				C154.3,96.3,154.8,96.8,155.4,96.8z"/>
			<path class="st2" d="M155.4,116h6.6c0.6,0,1.1-0.5,1.1-1.1l0,0c0-0.6-0.5-1.1-1.1-1.1h-6.6c-0.6,0-1.1,0.5-1.1,1.1l0,0
				C154.3,115.5,154.8,116,155.4,116z"/>
			<path class="st2" d="M155.4,135.2h6.6c0.6,0,1.1-0.5,1.1-1.1l0,0c0-0.6-0.5-1.1-1.1-1.1h-6.6c-0.6,0-1.1,0.5-1.1,1.1l0,0
				C154.3,134.7,154.8,135.2,155.4,135.2z"/>
			<path class="st2" d="M155.4,154.4h6.6c0.6,0,1.1-0.5,1.1-1.1l0,0c0-0.6-0.5-1.1-1.1-1.1h-6.6c-0.6,0-1.1,0.5-1.1,1.1l0,0
				C154.3,153.9,154.8,154.4,155.4,154.4z"/>
			<path class="st2" d="M176.8,10h6.6c0.6,0,1.1-0.5,1.1-1.1v0c0-0.6-0.5-1.1-1.1-1.1h-6.6c-0.6,0-1.1,0.5-1.1,1.1v0
				C175.6,9.5,176.1,10,176.8,10z"/>
			<path class="st2" d="M176.8-9.2h6.6c0.6,0,1.1-0.5,1.1-1.1v0c0-0.6-0.5-1.1-1.1-1.1h-6.6c-0.6,0-1.1,0.5-1.1,1.1v0
				C175.6-9.8,176.1-9.2,176.8-9.2z"/>
			<path class="st2" d="M176.8,29.2h6.6c0.6,0,1.1-0.5,1.1-1.1v0c0-0.6-0.5-1.1-1.1-1.1h-6.6c-0.6,0-1.1,0.5-1.1,1.1v0
				C175.6,28.7,176.1,29.2,176.8,29.2z"/>
			<path class="st2" d="M176.8,48.4h6.6c0.6,0,1.1-0.5,1.1-1.1l0,0c0-0.6-0.5-1.1-1.1-1.1h-6.6c-0.6,0-1.1,0.5-1.1,1.1l0,0
				C175.6,47.9,176.1,48.4,176.8,48.4z"/>
			<path class="st2" d="M176.8,67.6h6.6c0.6,0,1.1-0.5,1.1-1.1l0,0c0-0.6-0.5-1.1-1.1-1.1h-6.6c-0.6,0-1.1,0.5-1.1,1.1l0,0
				C175.6,67.1,176.1,67.6,176.8,67.6z"/>
			<path class="st2" d="M176.8,86.9h6.6c0.6,0,1.1-0.5,1.1-1.1l0,0c0-0.6-0.5-1.1-1.1-1.1h-6.6c-0.6,0-1.1,0.5-1.1,1.1l0,0
				C175.6,86.4,176.1,86.9,176.8,86.9z"/>
			<path class="st2" d="M176.8,106.1h6.6c0.6,0,1.1-0.5,1.1-1.1v0c0-0.6-0.5-1.1-1.1-1.1h-6.6c-0.6,0-1.1,0.5-1.1,1.1v0
				C175.6,105.6,176.1,106.1,176.8,106.1z"/>
			<path class="st2" d="M176.8,125.3h6.6c0.6,0,1.1-0.5,1.1-1.1l0,0c0-0.6-0.5-1.1-1.1-1.1h-6.6c-0.6,0-1.1,0.5-1.1,1.1l0,0
				C175.6,124.8,176.1,125.3,176.8,125.3z"/>
			<path class="st2" d="M176.8,144.5h6.6c0.6,0,1.1-0.5,1.1-1.1v0c0-0.6-0.5-1.1-1.1-1.1h-6.6c-0.6,0-1.1,0.5-1.1,1.1v0
				C175.6,144,176.1,144.5,176.8,144.5z"/>
			<path class="st2" d="M198.1,19.9h6.6c0.6,0,1.1-0.5,1.1-1.1v0c0-0.6-0.5-1.1-1.1-1.1h-6.6c-0.6,0-1.1,0.5-1.1,1.1v0
				C197,19.4,197.5,19.9,198.1,19.9z"/>
			<path class="st2" d="M198.1,0.6h6.6c0.6,0,1.1-0.5,1.1-1.1v0c0-0.6-0.5-1.1-1.1-1.1h-6.6c-0.6,0-1.1,0.5-1.1,1.1v0
				C197,0.1,197.5,0.6,198.1,0.6z"/>
			<path class="st2" d="M198.1,39.1h6.6c0.6,0,1.1-0.5,1.1-1.1v0c0-0.6-0.5-1.1-1.1-1.1h-6.6c-0.6,0-1.1,0.5-1.1,1.1v0
				C197,38.6,197.5,39.1,198.1,39.1z"/>
			<path class="st2" d="M198.1,58.3h6.6c0.6,0,1.1-0.5,1.1-1.1v0c0-0.6-0.5-1.1-1.1-1.1h-6.6c-0.6,0-1.1,0.5-1.1,1.1v0
				C197,57.8,197.5,58.3,198.1,58.3z"/>
			<path class="st2" d="M198.1,77.5h6.6c0.6,0,1.1-0.5,1.1-1.1l0,0c0-0.6-0.5-1.1-1.1-1.1h-6.6c-0.6,0-1.1,0.5-1.1,1.1l0,0
				C197,77,197.5,77.5,198.1,77.5z"/>
			<path class="st2" d="M198.1,96.8h6.6c0.6,0,1.1-0.5,1.1-1.1l0,0c0-0.6-0.5-1.1-1.1-1.1h-6.6c-0.6,0-1.1,0.5-1.1,1.1l0,0
				C197,96.3,197.5,96.8,198.1,96.8z"/>
			<path class="st2" d="M198.1,116h6.6c0.6,0,1.1-0.5,1.1-1.1l0,0c0-0.6-0.5-1.1-1.1-1.1h-6.6c-0.6,0-1.1,0.5-1.1,1.1l0,0
				C197,115.5,197.5,116,198.1,116z"/>
			<path class="st2" d="M198.1,135.2h6.6c0.6,0,1.1-0.5,1.1-1.1l0,0c0-0.6-0.5-1.1-1.1-1.1h-6.6c-0.6,0-1.1,0.5-1.1,1.1l0,0
				C197,134.7,197.5,135.2,198.1,135.2z"/>
			<path class="st2" d="M198.1,154.4h6.6c0.6,0,1.1-0.5,1.1-1.1l0,0c0-0.6-0.5-1.1-1.1-1.1h-6.6c-0.6,0-1.1,0.5-1.1,1.1l0,0
				C197,153.9,197.5,154.4,198.1,154.4z"/>
		</g>
	</g>
	<circle class="st3" cx="6.5" cy="124.7" r="44.2"/>
	<g class="st0">
		<path d="M95.9,62.1c-0.7-1-3.9-6-1.3-9.4c1.4-1.9,1.5-4.5,0.2-6.5l-0.2-0.3c-1.7-2.6-5.2-3.3-7.8-1.6c-0.2,0.1-0.3,0.2-0.5,0.4
			c-2.9,2.4-4.3,5.7-4.2,9.5c0.1,2,0.6,4,1.6,5.8c0.6,1.3,1.4,2.5,2.3,3.7c3.2,4,2.7,10-1.2,13.4c-0.6,0.5-1.3,1.1-2,1.5
			c-2.1-1.4-4.4-2.4-6.9-2.8c-0.6-0.1-1.2,0.3-1.3,0.8c-0.1,0.6,0.3,1.2,0.8,1.3c4.2,0.8,8,3.3,11.2,7.2c2.7,3.2,4,7.1,3.7,10.8
			c-0.2,2.8-0.5,4.7-2.7,7.3c-0.4,0.5-0.3,1.1,0.1,1.5c0.1,0.1,0.3,0.2,0.4,0.2c0,0,2.1,0.6,2.8,2.8c0.2,0.7,0.1,1.5-0.3,2.1
			c-0.3,0.5-0.9,0.7-1.5,0.7h-1.9c-0.6,0-1.1,0.5-1.1,1.1s0.5,1.1,1.1,1.1h1.9c1.3,0,2.5-0.6,3.2-1.6c0.8-1.2,1.1-2.6,0.7-4
			c-0.5-1.5-1.5-2.8-2.9-3.6c1.9-2.6,2.2-4.8,2.4-7.5c0.3-4.3-1.2-8.7-4.2-12.3c-1.1-1.4-2.3-2.6-3.7-3.7c0.5-0.4,1.1-0.8,1.6-1.2
			c4.8-4.1,5.5-11.5,1.5-16.4c-0.8-1-1.5-2.1-2.1-3.3c-0.8-1.5-1.2-3.2-1.3-4.9c-0.1-3.2,1-5.8,3.4-7.8c0.7-0.6,1.7-0.9,2.7-0.8
			c1,0.1,1.8,0.7,2.4,1.5l0.2,0.3c0.8,1.2,0.7,2.9-0.2,4c-3.4,4.5,0.1,10.3,1.3,12c0.2,0.3,0.5,0.7,0.7,1c4.1,7,0.5,13.2-3.4,17.1
			c-0.4,0.5-0.3,1.1,0.1,1.5c0.4,0.3,1,0.3,1.4,0c4.3-4.5,8.5-11.5,3.7-19.7C96.4,62.8,96.2,62.4,95.9,62.1z"/>
		<path d="M54.3,116.2c0.2,0.2,0.5,0.5,0.7,0.7c0.8,0.7,1.8,1,2.9,1h15.3c5.6,0,10.2-4.3,10.4-9.7c0.2-3.9-3.1-5.9-4.8-6.4
			c-0.6-0.2-1.2,0.2-1.3,0.8c-0.2,0.6,0.1,1.1,0.7,1.3c0.1,0,3.4,1.1,3.3,4.3c-0.2,4.2-3.9,7.7-8.3,7.7H57.9c-0.6,0-1.1-0.2-1.5-0.5
			c-1.1-0.9-1.2-1.7-1.2-1.8c0,0,0,0,0,0c0-4.8-2.6-7.2-4.7-8.4c-1.7-0.9-3.5-1.4-5.4-1.4h-9.6c-0.6,0-1.1,0.4-1.1,1
			c0,0.6,0.4,1.1,1,1.1c0,0,0.1,0,0.1,0h9.6c1.5,0,3,0.4,4.3,1.1c2.4,1.4,3.6,3.6,3.6,6.6v0l0,0v0c0,0.1,0,0.1,0,0.2
			c0,0.4-0.1,0.8-0.4,1.1c-0.5,0.7-1.2,1-2,1H31.7c-4.4,0-8-3.5-8-7.9v-0.6c0-1.9,0.7-3.6,1.9-5.1c3.9-4.7,6.8-10.6,8.5-14.6
			c0.2-0.6,0-1.2-0.6-1.4c-0.6-0.2-1.2,0-1.4,0.6l0,0c-1.6,3.9-4.4,9.5-8.1,14c-1.5,1.8-2.3,4.1-2.4,6.4v0.6c0,5.5,4.5,10,10.1,10
			h19.1C52.1,117.9,53.4,117.3,54.3,116.2z"/>
		<path d="M33.4,79.8c0,0-2.1-2.5-2.8-5.4c-0.1-0.6-0.7-1-1.3-0.8c-0.6,0.1-1,0.7-0.8,1.3c0,0,0,0.1,0,0.1c0.9,3.3,3.1,6.1,3.2,6.2
			c2.7,3.3,6.6,5.3,11.7,5.9c0.9,1.2,2.7,2.6,5.2,2.6c0.5,0,1-0.1,1.4-0.2c0.6-0.1,1-0.7,0.8-1.3c-0.1-0.6-0.7-1-1.3-0.8
			c-3,0.7-4.5-1.8-4.6-1.9c-0.2-0.3-0.5-0.5-0.8-0.5C39.4,84.5,35.8,82.8,33.4,79.8z"/>
		<path d="M59.5,86.4c0.2,0.6,0.8,0.8,1.4,0.6c0,0,0,0,0,0c3.2-1.2,5.9-3.1,7.9-5.6c1.7-1.9,2.9-4.1,3.6-6.5
			c0.2-0.6-0.2-1.2-0.8-1.3c-0.6-0.2-1.2,0.2-1.3,0.8c-0.6,2.1-1.6,4-3,5.6l-0.1,0.1c-1.8,2.2-4.2,3.9-7.1,5
			C59.5,85.3,59.3,85.9,59.5,86.4z"/>
		<path d="M53.8,85.5c-0.3-0.5-0.9-0.8-1.5-0.5c-0.5,0.3-0.8,0.9-0.5,1.5c0.1,0.1,1.5,3,5,3c0.6,0,1.1-0.5,1-1.1c0-0.6-0.5-1-1-1
			C55.6,87.3,54.4,86.6,53.8,85.5z"/>
		<path d="M50.9,72.6c0.6-0.2,1.2-0.6,1.6-1.1l1.3-1.6c0.7-0.8,0.8-2,0.3-3c-0.4-0.9-1.3-1.4-2.2-1.5h-4.2c-1,0-1.8,0.6-2.2,1.5
			c-0.5,1-0.3,2.1,0.3,3l1.3,1.6c0.4,0.5,1,0.9,1.6,1.1 M52.2,68.5l-1.3,1.6c-0.2,0.3-0.6,0.5-1,0.5l0,0c-0.4,0-0.7-0.2-1-0.5
			l-1.3-1.6c-0.1-0.2-0.2-0.5-0.1-0.7c0-0.1,0.2-0.2,0.3-0.2h4.2c0.1,0,0.2,0.1,0.3,0.2C52.3,68.1,52.3,68.3,52.2,68.5z"/>
		<path d="M39.7,66.1c0.1,0,0.1,0,0.2,0.1c0.1,0,0.1,0,0.2,0c0.6,0,1.1-0.5,1.1-1.1c0-0.3-0.1-0.6-0.3-0.8c0-0.1-0.1-0.1-0.2-0.1
			c-0.1,0-0.1-0.1-0.2-0.1c-0.1,0-0.1,0-0.2-0.1c-0.1,0-0.3,0-0.4,0c-0.1,0-0.1,0-0.2,0.1c-0.1,0-0.1,0.1-0.2,0.1
			c-0.1,0-0.1,0.1-0.2,0.1c-0.1,0-0.1,0.1-0.1,0.2c0,0.1-0.1,0.1-0.1,0.2C39,64.8,39,65,39,65.1c0,0.3,0.1,0.6,0.3,0.8
			c0.1,0,0.1,0.1,0.2,0.1C39.5,66,39.6,66.1,39.7,66.1z"/>
		<path d="M57.5,65.7c0,0.1,0.1,0.1,0.1,0.2c0.1,0,0.1,0.1,0.2,0.1c0.1,0,0.1,0.1,0.2,0.1c0.1,0,0.1,0,0.2,0.1c0.1,0,0.1,0,0.2,0
			c0.6,0,1.1-0.5,1.1-1.1c0-0.6-0.5-1.1-1.1-1.1c-0.1,0-0.2,0-0.2,0c-0.1,0-0.1,0-0.2,0.1c-0.1,0-0.1,0.1-0.2,0.1
			c-0.1,0-0.1,0.1-0.2,0.1c-0.2,0.2-0.3,0.5-0.3,0.8c0,0.1,0,0.1,0,0.2c0,0.1,0,0.1,0.1,0.2C57.4,65.6,57.5,65.7,57.5,65.7z"/>
		<path d="M22.4,65.2c0.1,0,7.7-1,12.5,2.7c0.5,0.4,1.2,0.3,1.5-0.2s0.3-1.2-0.2-1.5c-1.6-1.2-3.5-2.1-5.4-2.6
			c1.8-10,8.4-14.2,13.6-15.9c5.2-1.8,10.9-1.4,15.8,0.9c1.3,0.6,2.5,1.3,3.6,2.2c0.1,0.2,0.3,0.3,0.5,0.4c4.7,3.8,6.3,9,6.9,12.4
			c-1.9,0.5-3.8,1.3-5.5,2.6c-0.5,0.4-0.6,1.1-0.2,1.5c0.2,0.3,0.5,0.4,0.9,0.4c0.2,0,0.5-0.1,0.7-0.2c4.8-3.7,12.4-2.7,12.5-2.7
			c0.6,0.1,1.1-0.3,1.2-0.9c0.1-0.6-0.3-1.1-0.9-1.2l0,0c-2.2-0.3-4.3-0.2-6.5,0.1c-0.6-3.3-2.3-9.3-7.7-13.7c-1.3-5.5,4-8,4.2-8.2
			c0.5-0.3,0.8-0.9,0.5-1.4s-0.9-0.8-1.4-0.5c-2.2,1-5.7,3.9-5.7,8.5c-0.7-0.4-1.4-0.8-2.2-1.2c-0.6-0.3-1.3-0.6-2-0.8
			c2.2-3.5,6.4-8.7,12-10.2c0.8-0.2,1.6,0.2,1.9,1c0.9,2.6,2,8-0.4,14.7c0,0,0,0,0,0c0,0,0,0.1-0.1,0.2c-0.2,0.6,0.1,1.2,0.6,1.4
			c0.1,0,0.2,0.1,0.4,0.1c0.5,0,0.9-0.3,1-0.7c0.1-0.2,0.1-0.3,0.1-0.3c2.6-7.3,1.4-13.2,0.4-16.1c-0.6-1.9-2.6-2.9-4.5-2.4
			c-6.6,1.8-11.2,7.9-13.5,11.6c-3.1-0.8-6.3-0.9-9.5-0.4c-2.3-4-7.1-10.6-14-12.5c-1.9-0.5-3.9,0.5-4.5,2.4
			c-1,2.9-2.2,8.8,0.4,16.1c0,0,0,0.1,0.1,0.3c0.2,0.4,0.6,0.7,1,0.7c0.6,0,1.1-0.5,1.1-1.1c0-0.1,0-0.3-0.1-0.4
			c-0.1-0.1-0.1-0.2-0.1-0.2s0,0,0,0c-2.4-6.7-1.3-12.1-0.4-14.7c0.3-0.8,1.1-1.2,1.9-1c6,1.6,10.4,7.6,12.4,10.9
			c-0.5,0.1-1.1,0.3-1.6,0.5c-1,0.3-2,0.7-3,1.2c0.2-4.8-3.4-7.8-5.7-8.8c-0.6-0.2-1.2,0-1.4,0.6c-0.2,0.5,0,1.1,0.5,1.4
			c0.2,0.1,5.5,2.6,4.2,8.1c-4.3,2.7-8.3,7.3-9.7,15c-2.2-0.3-4.4-0.4-6.6-0.1c-0.6,0.1-1,0.6-0.9,1.2
			C21.3,64.9,21.8,65.3,22.4,65.2L22.4,65.2z"/>
		<path d="M35.8,70.3c-7.3-2.1-11.8-0.4-13.8,0.9c-0.5,0.3-0.7,1-0.4,1.5c0.3,0.5,1,0.7,1.5,0.4c1.7-1,5.5-2.5,12-0.6
			c0.6,0.2,1.2-0.2,1.3-0.7C36.7,71.1,36.4,70.5,35.8,70.3L35.8,70.3L35.8,70.3z"/>
		<path d="M79.4,73.2c0.6,0,1.1-0.5,1.1-1.1c0-0.4-0.2-0.7-0.5-0.9c-2-1.2-6.5-3-13.8-0.9c-0.6,0.2-0.9,0.8-0.7,1.3s0.8,0.9,1.3,0.7
			c6.5-1.9,10.3-0.4,12,0.6C78.9,73.1,79.1,73.2,79.4,73.2z"/>
		<path d="M61.1,103.6c-0.3,0-3.4,0-5.2,2.9c-0.3,0.5-0.2,1.2,0.3,1.5c0.2,0.1,0.4,0.2,0.6,0.2c0.4,0,0.7-0.2,0.9-0.5
			c1.2-1.8,3.2-1.9,3.3-1.9h7.6c0.6,0,1.1-0.5,1-1.1c0-0.6-0.5-1-1-1H61.1z"/>
		<path d="M44.3,92.2c-0.6,0-1.1,0.4-1.1,1c0,0.1-0.2,6.4,7.5,7.8c0.1,0,0.1,0,0.2,0c0.6,0,1.1-0.5,1.1-1.1c0-0.5-0.4-1-0.9-1.1
			c-5.8-1-5.8-5.4-5.7-5.6C45.3,92.7,44.8,92.2,44.3,92.2z"/>
		<path d="M53.3,95.5c-0.1-0.6-0.7-0.9-1.3-0.8c-0.6,0.1-0.9,0.7-0.8,1.3c0,0.1,0.8,3.4,6,4.6c0.1,0,0.2,0,0.2,0
			c0.6,0,1.1-0.5,1.1-1.1c0-0.5-0.3-0.9-0.8-1C53.9,97.6,53.3,95.6,53.3,95.5z"/>
		<path d="M58.6,95.5c-0.5,0.4-0.5,1.1-0.2,1.5c0.1,0.1,1.4,1.7,4,1.7c0.4,0,0.8,0,1.2-0.1c0.6-0.1,1-0.7,0.9-1.3
			c-0.1-0.6-0.7-1-1.3-0.9c-2.2,0.4-3.1-0.7-3.2-0.8C59.7,95.2,59,95.1,58.6,95.5z"/>
		<path d="M74.5,96.2c-0.6,0.1-0.9,0.7-0.8,1.3c0.1,0.6,0.7,0.9,1.3,0.8c0.1,0,2.5-0.6,4.6,2.4c0.3,0.5,1,0.6,1.5,0.3
			c0.5-0.3,0.6-1,0.3-1.5c0,0,0,0,0-0.1C78.5,95.3,74.7,96.2,74.5,96.2z"/>
		<path d="M74,90.4c-0.6,0-1.1,0.4-1.2,1c0,0.6,0.4,1.1,1,1.2c0,0,0.1,0,0.1,0c1.3,0.2,2.5,0.9,3.1,2.1c0.3,0.5,1,0.6,1.5,0.3
			c0.5-0.3,0.6-1,0.3-1.4C77.8,91.7,76,90.6,74,90.4z"/>
	</g>
	<rect x="0" class="st4" width="120" height="150"/>
</g>
</svg>
