<?xml version="1.0" encoding="utf-8"?>
<!-- Generator: Adobe Illustrator 24.1.0, SVG Export Plug-In . SVG Version: 6.00 Build 0)  -->
<svg version="1.1" id="Layer_1" xmlns="http://www.w3.org/2000/svg" xmlns:xlink="http://www.w3.org/1999/xlink" x="0px" y="0px"
	 viewBox="0 0 120 150" style="enable-background:new 0 0 120 150;" xml:space="preserve">
<style type="text/css">
	.st0{fill:none;stroke:#FFCFEB;stroke-width:3;stroke-miterlimit:10;}
</style>
<circle class="st0" cx="101.5" cy="112.3" r="44.2"/>
<g>
	<path d="M98.5,61.7c-0.7-1-3.9-6-1.3-9.4c1.4-1.9,1.5-4.5,0.2-6.5l-0.2-0.3c-1.7-2.6-5.2-3.3-7.8-1.6c-0.2,0.1-0.3,0.2-0.5,0.4
		c-2.9,2.4-4.3,5.7-4.2,9.5c0.1,2,0.6,4,1.6,5.8c0.6,1.3,1.4,2.5,2.3,3.7c3.2,4,2.7,10-1.2,13.4c-0.6,0.5-1.3,1.1-2,1.5
		c-2.1-1.4-4.4-2.4-6.9-2.8c-0.6-0.1-1.2,0.3-1.3,0.8c-0.1,0.6,0.3,1.2,0.8,1.3c4.2,0.8,8,3.3,11.2,7.2c2.7,3.2,4,7.1,3.7,10.8
		c-0.2,2.8-0.5,4.7-2.7,7.3c-0.4,0.5-0.3,1.1,0.1,1.5c0.1,0.1,0.3,0.2,0.4,0.2c0,0,2.1,0.6,2.8,2.8c0.2,0.7,0.1,1.5-0.3,2.1
		c-0.3,0.5-0.9,0.7-1.5,0.7h-1.9c-0.6,0-1.1,0.5-1.1,1.1c0,0.6,0.5,1.1,1.1,1.1h1.9c1.3,0,2.5-0.6,3.2-1.6c0.8-1.2,1.1-2.6,0.7-4
		c-0.5-1.5-1.5-2.8-2.9-3.6c1.9-2.6,2.2-4.8,2.4-7.5c0.3-4.3-1.2-8.7-4.2-12.3c-1.1-1.4-2.3-2.6-3.7-3.7c0.5-0.4,1.1-0.8,1.6-1.2
		c4.8-4.1,5.5-11.5,1.5-16.4c-0.8-1-1.5-2.1-2.1-3.3c-0.8-1.5-1.2-3.2-1.3-4.9c-0.1-3.2,1-5.8,3.4-7.8c0.7-0.6,1.7-0.9,2.7-0.8
		c1,0.1,1.8,0.7,2.4,1.5l0.2,0.3c0.8,1.2,0.7,2.9-0.2,4c-3.4,4.5,0.1,10.3,1.3,12c0.2,0.3,0.5,0.7,0.7,1c4.1,7,0.5,13.2-3.4,17.1
		c-0.4,0.5-0.3,1.1,0.1,1.5c0.4,0.3,1,0.3,1.4,0c4.3-4.5,8.5-11.5,3.7-19.7C99,62.4,98.7,62,98.5,61.7z"/>
	<path d="M56.8,115.8c0.2,0.2,0.5,0.5,0.7,0.7c0.8,0.7,1.8,1,2.9,1h15.3c5.6,0,10.2-4.3,10.4-9.7c0.2-3.9-3.1-5.9-4.8-6.4
		c-0.6-0.2-1.2,0.2-1.3,0.8c-0.2,0.6,0.1,1.1,0.7,1.3c0.1,0,3.4,1.1,3.3,4.3c-0.2,4.2-3.9,7.7-8.3,7.7H60.5c-0.6,0-1.1-0.2-1.5-0.5
		c-1.1-0.9-1.2-1.7-1.2-1.8c0,0,0,0,0,0c0-4.8-2.6-7.2-4.7-8.4c-1.7-0.9-3.5-1.4-5.4-1.4h-9.6c-0.6,0-1.1,0.4-1.1,1
		c0,0.6,0.4,1.1,1,1.1c0,0,0.1,0,0.1,0h9.6c1.5,0,3,0.4,4.3,1.1c2.4,1.4,3.6,3.6,3.6,6.6v0l0,0v0c0,0.1,0,0.1,0,0.2
		c0,0.4-0.1,0.8-0.4,1.1c-0.5,0.7-1.2,1-2,1H34.2c-4.4,0-8-3.5-8-7.9v-0.6c0-1.9,0.7-3.6,1.9-5.1c3.9-4.7,6.8-10.6,8.5-14.6
		c0.2-0.6,0-1.2-0.6-1.4c-0.6-0.2-1.2,0-1.4,0.6l0,0c-1.6,3.9-4.4,9.5-8.1,14c-1.5,1.8-2.3,4.1-2.4,6.4v0.6c0,5.5,4.5,10,10.1,10
		h19.1C54.6,117.5,56,116.9,56.8,115.8z"/>
	<path d="M36,79.4c0,0-2.1-2.5-2.8-5.4c-0.1-0.6-0.7-1-1.3-0.8c-0.6,0.1-1,0.7-0.8,1.3c0,0,0,0.1,0,0.1c0.9,3.3,3.1,6.1,3.2,6.2
		C37,84.1,40.9,86,46,86.6c0.9,1.2,2.7,2.6,5.2,2.6c0.5,0,1-0.1,1.4-0.2c0.6-0.1,1-0.7,0.8-1.3s-0.7-1-1.3-0.8
		c-3,0.7-4.5-1.8-4.6-1.9c-0.2-0.3-0.5-0.5-0.8-0.5C42,84,38.4,82.3,36,79.4z"/>
	<path d="M62,86c0.2,0.6,0.8,0.8,1.4,0.6c0,0,0,0,0,0c3.2-1.2,5.9-3.1,7.9-5.6c1.7-1.9,2.9-4.1,3.6-6.5c0.2-0.6-0.2-1.2-0.8-1.3
		c-0.6-0.2-1.2,0.2-1.3,0.8c-0.6,2.1-1.6,4-3,5.6l-0.1,0.1c-1.8,2.2-4.2,3.9-7.1,5C62.1,84.8,61.8,85.5,62,86z"/>
	<path d="M56.3,85.1c-0.3-0.5-0.9-0.8-1.5-0.5c-0.5,0.3-0.8,0.9-0.5,1.5c0.1,0.1,1.5,3,5,3c0.6,0,1.1-0.5,1-1.1c0-0.6-0.5-1-1-1
		C58.1,86.9,56.9,86.2,56.3,85.1z"/>
	<path d="M53.5,72.2c0.6-0.2,1.2-0.6,1.6-1.1l1.3-1.6c0.7-0.8,0.8-2,0.3-3c-0.4-0.9-1.3-1.4-2.2-1.5h-4.2c-1,0-1.8,0.6-2.2,1.5
		c-0.5,1-0.3,2.1,0.3,3l1.3,1.6c0.4,0.5,1,0.9,1.6,1.1 M54.7,68.1l-1.3,1.6c-0.2,0.3-0.6,0.5-1,0.5l0,0c-0.4,0-0.7-0.2-1-0.5
		l-1.3-1.6c-0.1-0.2-0.2-0.5-0.1-0.7c0-0.1,0.2-0.2,0.3-0.2h4.2c0.1,0,0.2,0.1,0.3,0.2C54.9,67.6,54.9,67.9,54.7,68.1z"/>
	<path d="M42.2,65.7c0.1,0,0.1,0,0.2,0.1c0.1,0,0.1,0,0.2,0c0.6,0,1.1-0.5,1.1-1.1c0-0.3-0.1-0.6-0.3-0.8c0-0.1-0.1-0.1-0.2-0.1
		c-0.1,0-0.1-0.1-0.2-0.1c-0.1,0-0.1,0-0.2-0.1c-0.1,0-0.3,0-0.4,0c-0.1,0-0.1,0-0.2,0.1c-0.1,0-0.1,0.1-0.2,0.1
		c-0.1,0-0.1,0.1-0.2,0.1c-0.1,0-0.1,0.1-0.1,0.2c0,0.1-0.1,0.1-0.1,0.2c-0.1,0.1-0.1,0.3-0.1,0.4c0,0.3,0.1,0.6,0.3,0.8
		c0.1,0,0.1,0.1,0.2,0.1C42.1,65.6,42.2,65.7,42.2,65.7z"/>
	<path d="M60,65.3c0,0.1,0.1,0.1,0.1,0.2c0.1,0,0.1,0.1,0.2,0.1c0.1,0,0.1,0.1,0.2,0.1c0.1,0,0.1,0,0.2,0.1c0.1,0,0.1,0,0.2,0
		c0.6,0,1.1-0.5,1.1-1.1s-0.5-1.1-1.1-1.1c-0.1,0-0.2,0-0.2,0c-0.1,0-0.1,0-0.2,0.1c-0.1,0-0.1,0.1-0.2,0.1c-0.1,0-0.1,0.1-0.2,0.1
		c-0.2,0.2-0.3,0.5-0.3,0.8c0,0.1,0,0.1,0,0.2c0,0.1,0,0.1,0.1,0.2C60,65.2,60,65.2,60,65.3z"/>
	<path d="M24.9,64.8c0.1,0,7.7-1,12.5,2.7c0.5,0.4,1.2,0.3,1.5-0.2c0.4-0.5,0.3-1.2-0.2-1.5c-1.6-1.2-3.5-2.1-5.4-2.6
		c1.8-10,8.4-14.2,13.6-15.9c5.2-1.8,10.9-1.4,15.8,0.9c1.3,0.6,2.5,1.3,3.6,2.2c0.1,0.2,0.3,0.3,0.5,0.4c4.7,3.8,6.3,9,6.9,12.4
		c-1.9,0.5-3.8,1.3-5.5,2.6c-0.5,0.4-0.6,1.1-0.2,1.5c0.2,0.3,0.5,0.4,0.9,0.4c0.2,0,0.5-0.1,0.7-0.2c4.8-3.7,12.4-2.7,12.5-2.7
		c0.6,0.1,1.1-0.3,1.2-0.9c0.1-0.6-0.3-1.1-0.9-1.2l0,0c-2.2-0.3-4.3-0.2-6.5,0.1c-0.6-3.3-2.3-9.3-7.7-13.7c-1.3-5.5,4-8,4.2-8.2
		c0.5-0.3,0.8-0.9,0.5-1.4s-0.9-0.8-1.4-0.5c-2.2,1-5.7,3.9-5.7,8.5c-0.7-0.4-1.4-0.8-2.2-1.2c-0.6-0.3-1.3-0.6-2-0.8
		c2.2-3.5,6.4-8.7,12-10.2c0.8-0.2,1.6,0.2,1.9,1c0.9,2.6,2,8-0.4,14.7c0,0,0,0,0,0c0,0,0,0.1-0.1,0.2c-0.2,0.6,0.1,1.2,0.6,1.4
		c0.1,0,0.2,0.1,0.4,0.1c0.5,0,0.9-0.3,1-0.7c0.1-0.2,0.1-0.3,0.1-0.3c2.6-7.3,1.4-13.2,0.4-16.1c-0.6-1.9-2.6-2.9-4.5-2.4
		c-6.6,1.8-11.2,7.9-13.5,11.6c-3.1-0.8-6.3-0.9-9.5-0.4c-2.3-4-7.1-10.6-14-12.5c-1.9-0.5-3.9,0.5-4.5,2.4c-1,2.9-2.2,8.8,0.4,16.1
		c0,0,0,0.1,0.1,0.3c0.2,0.4,0.6,0.7,1,0.7c0.6,0,1.1-0.5,1.1-1.1c0-0.1,0-0.3-0.1-0.4C34,49.7,34,49.6,34,49.6s0,0,0,0
		c-2.4-6.7-1.3-12.1-0.4-14.7c0.3-0.8,1.1-1.2,1.9-1c6,1.6,10.4,7.6,12.4,10.9c-0.5,0.1-1.1,0.3-1.6,0.5c-1,0.3-2,0.7-3,1.2
		c0.2-4.8-3.4-7.8-5.7-8.8c-0.6-0.2-1.2,0-1.4,0.6c-0.2,0.5,0,1.1,0.5,1.4c0.2,0.1,5.5,2.6,4.2,8.1c-4.3,2.7-8.3,7.3-9.7,15
		c-2.2-0.3-4.4-0.4-6.6-0.1c-0.6,0.1-1,0.6-0.9,1.2C23.8,64.5,24.3,64.9,24.9,64.8L24.9,64.8z"/>
	<path d="M38.4,69.9c-7.3-2.1-11.8-0.4-13.8,0.9c-0.5,0.3-0.7,1-0.4,1.5c0.3,0.5,1,0.7,1.5,0.4c1.7-1,5.5-2.5,12-0.6
		c0.6,0.2,1.2-0.2,1.3-0.7C39.3,70.7,38.9,70.1,38.4,69.9L38.4,69.9L38.4,69.9z"/>
	<path d="M81.9,72.8c0.6,0,1.1-0.5,1.1-1.1c0-0.4-0.2-0.7-0.5-0.9c-2-1.2-6.5-3-13.8-0.9c-0.6,0.2-0.9,0.8-0.7,1.3
		c0.2,0.6,0.8,0.9,1.3,0.7c6.5-1.9,10.3-0.4,12,0.6C81.5,72.7,81.7,72.8,81.9,72.8z"/>
	<path d="M63.7,103.2c-0.3,0-3.4,0-5.2,2.9c-0.3,0.5-0.2,1.2,0.3,1.5c0.2,0.1,0.4,0.2,0.6,0.2c0.4,0,0.7-0.2,0.9-0.5
		c1.2-1.8,3.2-1.9,3.3-1.9h7.6c0.6,0,1.1-0.5,1-1.1c0-0.6-0.5-1-1-1H63.7z"/>
	<path d="M46.8,91.8c-0.6,0-1.1,0.4-1.1,1c0,0.1-0.2,6.4,7.5,7.8c0.1,0,0.1,0,0.2,0c0.6,0,1.1-0.5,1.1-1.1c0-0.5-0.4-1-0.9-1.1
		c-5.8-1-5.8-5.4-5.7-5.6C47.9,92.3,47.4,91.8,46.8,91.8z"/>
	<path d="M55.8,95.1c-0.1-0.6-0.7-0.9-1.3-0.8c-0.6,0.1-0.9,0.7-0.8,1.3c0,0.1,0.8,3.4,6,4.6c0.1,0,0.2,0,0.2,0
		c0.6,0,1.1-0.5,1.1-1.1c0-0.5-0.3-0.9-0.8-1C56.5,97.2,55.9,95.2,55.8,95.1z"/>
	<path d="M61.1,95.1c-0.5,0.4-0.5,1.1-0.2,1.5c0.1,0.1,1.4,1.7,4,1.7c0.4,0,0.8,0,1.2-0.1c0.6-0.1,1-0.7,0.9-1.3
		c-0.1-0.6-0.7-1-1.3-0.9c-2.2,0.4-3.1-0.7-3.2-0.8C62.3,94.8,61.6,94.7,61.1,95.1z"/>
	<path d="M77.1,95.8c-0.6,0.1-0.9,0.7-0.8,1.3c0.1,0.6,0.7,0.9,1.3,0.8c0.1,0,2.5-0.6,4.6,2.4c0.3,0.5,1,0.6,1.5,0.3
		c0.5-0.3,0.6-1,0.3-1.5c0,0,0,0,0-0.1C81,94.8,77.2,95.8,77.1,95.8z"/>
	<path d="M76.5,89.9c-0.6,0-1.1,0.4-1.2,1c0,0.6,0.4,1.1,1,1.2c0,0,0.1,0,0.1,0c1.3,0.2,2.5,0.9,3.1,2.1c0.3,0.5,1,0.6,1.5,0.3
		c0.5-0.3,0.6-1,0.3-1.4C80.3,91.3,78.5,90.1,76.5,89.9z"/>
</g>
</svg>
