<?xml version="1.0" encoding="utf-8"?>
<!-- Generator: Adobe Illustrator 24.1.0, SVG Export Plug-In . SVG Version: 6.00 Build 0)  -->
<svg version="1.1" id="Layer_1" xmlns="http://www.w3.org/2000/svg" xmlns:xlink="http://www.w3.org/1999/xlink" x="0px" y="0px"
	 viewBox="0 0 606.4 349.1" style="enable-background:new 0 0 606.4 349.1;" xml:space="preserve">
<style type="text/css">
	.st0{fill:#AAE3EC;}
	.st1{fill:url(#SVGID_1_);}
	.st2{fill:#FFFFFF;}
	.st3{font-family:'Rubik-Bold';}
	.st4{font-size:30px;}
</style>
<rect x="76.3" y="106.7" width="135.7" height="52.5"/>
<g>
	<path class="st0" d="M321.2,108c-13.7,0-24.9,11.2-24.9,24.9s11.2,24.9,24.9,24.9c13.7,0,24.9-11.2,24.9-24.9S334.9,108,321.2,108z
		 M321.2,152.4c-9.7,0-17.8-7.2-19.2-16.6h7.5c1.3,5.3,6,9.2,11.7,9.2c5.7,0,10.4-4,11.7-9.2h7.5C339,145.1,330.9,152.4,321.2,152.4
		z M315.4,135.7H327c-1,2.2-3.2,3.7-5.8,3.7C318.6,139.4,316.4,137.9,315.4,135.7z M302,130.2c1.4-9.4,9.4-16.6,19.2-16.6
		c9.7,0,17.8,7.2,19.2,16.6H302z"/>
	
		<linearGradient id="SVGID_1_" gradientUnits="userSpaceOnUse" x1="217.6595" y1="-31.2203" x2="442.3088" y2="357.8837" gradientTransform="matrix(1 0 0 -1 0 349.8898)">
		<stop  offset="9.828819e-02" style="stop-color:#AAE3EC"/>
		<stop  offset="0.5507" style="stop-color:#C1B1EA"/>
		<stop  offset="1" style="stop-color:#CA9DE9"/>
	</linearGradient>
	<path class="st1" d="M468,16.6C468,3.5,457.1,0,451.4,0c-26.2,0-45,34.6-54.4,56.9c-9.5-2.7-20.8-4.3-34.2-4.3
		c-13.4,0-24.6,1.6-34.2,4.3C319.1,34.6,300.3,0,274.1,0c-5.7,0-16.6,3.5-16.6,16.6c0,7.1,3.2,14.5,6.3,21.6
		c3.2,7.4,6.1,14.3,4.9,19.3c-6.3,25.4-2.2,43,12.4,52.7c-1,5.8-1.4,11.6-1.4,17.2c0,15.1,1.5,32.5,9.6,46.8
		c-36.9,16.2-93.6,51.4-113.4,120c-1.9-0.3-3.8-0.6-5.7-0.6c-16,0-29.1,12.4-29.1,27.7c0,15.3,13,27.7,29.1,27.7
		c3.8,0,7.6-0.8,11.2-2.2c2.8,1.4,5.9,2.1,9.1,2.1c0,0,0,0,0.1,0h22.6l0,0h90.7h3.5h42.3c1.1,0,2.1-0.7,2.6-1.7
		c1.5-3.5,2.3-7.5,2.3-11.4c0-4.5-1-8.8-2.9-12.6c5-7.5,10.9-17,17.1-27.4V313c-6.9,5.2-11.4,13.5-11.4,22.9c0,4,0.8,7.9,2.3,11.4
		c0.4,1,1.4,1.7,2.6,1.7h45.8c1.1,0,2.1-0.7,2.6-1.7c1.5-3.5,2.3-7.5,2.3-11.4c0-9-4.1-17.3-11.1-22.7v-38.4
		c9.4-21.3,11-52.8,11.1-70c3.1-3.3,5.1-7.4,5.4-11.8c24.6-15,27.8-42.9,27.8-65.6c0-5.6-0.4-11.5-1.4-17.2
		c14.5-9.6,18.7-27.3,12.4-52.7c-1.2-5,1.7-11.9,4.9-19.3C464.8,31.1,468,23.7,468,16.6z M274,58.8c1.7-6.8-1.7-14.6-5.2-22.8
		c-2.9-6.6-5.8-13.5-5.8-19.4c0-10.7,10-11.1,11.1-11.1c22.9,0,40.2,32,49.2,53.1c-5.3,1.9-10.1,4.2-14.2,6.8c-8-35-16.3-35-19-35
		c-2.6,0-7.6,2.3-7.6,11.1c0,4.2,1.1,8.7,2.2,13c1.1,4.4,2.1,8.6,1.7,11.5c-0.6,4.2-1,14,1.7,22.5c-2.6,5-4.4,10.3-5.7,15.7
		C271.4,95.7,268.6,80.5,274,58.8z M289.9,53.2c-1-4-2-8.1-2-11.6c0-4.2,1.4-5.5,2-5.5c3.2,0,8.8,8.7,14.1,32.9
		c-4.9,3.8-8.9,8.1-12.1,12.8c-0.9-5.7-0.7-11.5-0.3-14.9C292.3,62.8,291.2,58.2,289.9,53.2z M292.2,179c3.8,5.3,8.8,10.1,15.1,14
		c0.9,11.4,12.4,20.3,26.4,20.3c4.6,0,9.2-1,13.1-2.9c4.8,1.8,10.3,2.9,15.8,2.9c5.6,0,11-1,15.8-2.9c4,1.9,8.5,2.9,13.1,2.9
		c2.1,0,4.1-0.2,6.1-0.6c-2.5,14.7-9,32.7-19.3,53.4c-18.6,9.1-37.6,8.3-37.8,8.3c-0.8,0-1.5,0.2-2,0.8c-0.5,0.5-0.9,1.2-0.9,2v32.7
		c-3.5-1.6-7.2-2.4-11.1-2.4c-3.9,0-7.7,0.9-11.1,2.4v-32.7c0-1.4-1-2.6-2.4-2.7c-11.3-1.6-21.3-6.3-29.9-14.1
		c-17.2-15.7-25.7-41-29.9-60.1C267.2,190.9,280.8,184,292.2,179z M353,206.5c0.2-0.2,0.4-0.3,0.6-0.5c1-0.9,1.9-1.9,2.6-2.9
		c0.4-0.5,1.2-1.8,1.6-2.4l0.1-0.2c1-1.5,2.8-2.4,4.8-2.4s3.8,0.9,4.8,2.4l0.2,0.3c0.4,0.6,1.2,2,1.6,2.4c0.8,1,1.7,2,2.6,2.9
		c0.2,0.2,0.4,0.3,0.6,0.5C366.2,208,359.2,208,353,206.5z M248.6,203.6c3.7,16.4,10.6,36.5,22.9,52c-5.3,4.9-10.4,10.1-15.2,15.4
		c-12.2-14.3-29.1-24.4-48.4-28.3C220,226.8,234.3,213.9,248.6,203.6z M170.2,343.5c-13,0-23.5-9.9-23.5-22.2
		c0-12.2,10.6-22.2,23.5-22.2c1.4,0,2.8,0.2,4.2,0.4c-2.1,8.4-3.7,17.3-4.7,26.7c-0.6,5.8,1.4,11.6,5.3,15.9
		c0.2,0.2,0.5,0.4,0.7,0.7C173.9,343.3,172.1,343.5,170.2,343.5z M218.7,343.5h-28.2l0,0c-4.3,0-8.4-1.8-11.3-5s-4.3-7.4-3.9-11.7
		c3.2-32.1,14.2-58.1,29-79.1c32.1,5.3,57.4,29.2,64.8,60.5c-2-0.5-4-0.8-6.1-0.8c-15.3,0-27.7,12.8-27.7,28.5c0,2.6,0.4,5.1,1,7.5
		h-17.6V343.5z M283.9,343.5H274v-19.4c0-1.5-1.2-2.8-2.8-2.8c-1.5,0-2.8,1.2-2.8,2.8v19.4h-11.1v-19.4c0-1.5-1.2-2.8-2.8-2.8
		c-1.6,0-2.8,1.2-2.8,2.8v19.4h-9.9c-0.8-2.4-1.2-4.9-1.2-7.5c0-12.7,9.9-23,22.2-23c4.3,0,8.4,1.2,12,3.6
		c6.4,4.3,10.2,11.5,10.2,19.4C285.2,338.6,284.7,341.1,283.9,343.5z M300,343.5h-10.3c0.6-2.4,1-4.9,1-7.5c0-9.7-4.7-18.7-12.7-24
		c-0.9-0.6-1.8-1.1-2.8-1.6c-2.5-13-7.8-24.9-15.4-35.1c4.8-5.3,9.9-10.5,15.3-15.5c1.5,1.6,2.9,3.1,4.5,4.6
		c8.8,8,19,13.1,30.5,15.1v33.7c-6.7,5.2-11.1,13.4-11.1,22.7C299,338.5,299.4,341.1,300,343.5z M347.7,343.5h-9.9v-19.4
		c0-1.5-1.2-2.8-2.8-2.8c-1.5,0-2.8,1.2-2.8,2.8v19.4h-11.1v-19.4c0-1.5-1.2-2.8-2.8-2.8c-1.5,0-2.8,1.2-2.8,2.8v19.4h-8.3h-1.6
		c-0.8-2.4-1.2-5-1.2-7.6c0-12.6,9.9-22.9,22.2-22.9c4.3,0,8.4,1.2,12,3.6c6.4,4.2,10.2,11.5,10.2,19.3
		C348.9,338.5,348.5,341.1,347.7,343.5z M348.3,318.1c-1.4-1.8-3.1-3.5-4.9-4.9V280c5.4-0.1,17.8-1,31.2-6.1
		C365.7,290.7,355.9,306.4,348.3,318.1z M407,335.9c0,2.6-0.4,5.2-1.2,7.6h-9.9v-19.4c0-1.5-1.2-2.8-2.8-2.8c-1.5,0-2.8,1.2-2.8,2.8
		v19.4h-11.1v-19.4c0-1.5-1.2-2.8-2.8-2.8c-1.5,0-2.8,1.2-2.8,2.8v19.4h-9.9c-0.8-2.4-1.2-5-1.2-7.6c0-12.6,9.9-22.9,22.2-22.9
		c4.3,0,8.4,1.2,12,3.6C403.2,320.9,407,328.1,407,335.9z M396.2,273.1c-0.2,0.4-0.2,0.7-0.2,1.1v35.6c-3.5-1.6-7.2-2.4-11.1-2.4
		c-3.8,0-7.5,0.8-10.8,2.2v-23.5c3-5.5,6.1-11.1,8.9-16.8l0,0c11.4-22.8,18.4-42.5,20.6-58.5c1.2-0.5,2.3-1.1,3.4-1.7
		C406.7,226.7,404.7,254.4,396.2,273.1z M412.6,192.4c-0.6,8.6-9.7,15.4-20.9,15.4c-6.2,0-12-2.1-16-5.8c-0.7-0.7-1.4-1.4-2-2.2
		c-0.3-0.4-1-1.5-1.3-2l-0.2-0.4c-2.1-3-5.5-4.8-9.4-4.8c-3.8,0-7.3,1.8-9.3,4.8l-0.3,0.4c-0.3,0.5-1,1.6-1.3,2
		c-0.6,0.8-1.3,1.5-2,2.2c-4,3.7-9.8,5.8-16,5.8c-11.2,0-20.4-6.8-20.9-15.4c0-0.3,0-1.2,0-1.7c0.5-14.8,13.4-27.9,32.3-33.2l10.6,9
		c2,1.7,4.4,2.5,6.9,2.5s5-0.8,6.9-2.5l10.6-9c18.9,5.2,31.8,18.4,32.3,33.3C412.6,191.1,412.6,192,412.6,192.4z M376,153.9
		l-9.9,8.4c-1.8,1.5-4.9,1.5-6.7,0l-9.9-8.4C357,148.1,368.5,148.1,376,153.9z M361.5,69.9c0.7-0.7,1.1-0.7,1.2-0.7s0.6,0,1.2,0.7
		c2.7,2.7,8.6,15.5,7.8,75.6c-5.8-1.9-12.2-1.9-18,0C352.9,85.5,358.8,72.6,361.5,69.9z M417.7,186.7c-2.4-15.7-16.3-29.1-36-34.5
		c-0.3-0.7-0.7-1.4-1.3-1.9c-1-0.8-2.1-1.6-3.2-2.3c0.8-47.2-2.3-74.9-9.3-82c-1.9-1.9-3.9-2.3-5.2-2.3c-1.3,0-3.3,0.4-5.2,2.3
		c-7,7.1-10.1,34.7-9.3,82c-1.1,0.7-2.2,1.4-3.2,2.3c-0.6,0.5-1,1.2-1.3,1.9c-19.7,5.5-33.6,18.9-36,34.5
		c-15.7-10.9-22.5-28.9-22.5-59.2c0-45.3,26.8-69.3,77.6-69.3s77.6,23.9,77.6,69.3C440.3,157.8,433.5,175.8,417.7,186.7z
		 M433.7,66.9c0.5,3.3,0.6,9.2-0.3,14.9c-3.2-4.7-7.2-9-12.1-12.8c5.3-24.2,10.9-32.9,14.1-32.9c0,0,2,0.5,2,5.5c0,3.6-1,7.7-2,11.7
		C434.3,58.2,433.1,62.8,433.7,66.9z M451.5,58.8c5.4,21.6,2.6,36.8-8.2,45.4c-1.3-5.4-3.2-10.7-5.7-15.7c2.6-8.4,2.3-18.3,1.7-22.5
		c-0.4-3,0.6-7.1,1.7-11.5c1.1-4.3,2.2-8.7,2.2-13c0-8.8-4.9-11.1-7.6-11.1c-2.8,0-11,0-19,35c-4.2-2.6-8.9-4.9-14.2-6.8
		c8.9-21,26.3-53.1,49.2-53.1c0.5,0,11.1,0.1,11.1,11.1c0,5.9-3,12.8-5.8,19.4C453.1,44.3,449.8,52.1,451.5,58.8z"/>
	<path class="st0" d="M379.3,133c0,13.7,11.2,24.9,24.9,24.9s24.9-11.2,24.9-24.9s-11.2-24.9-24.9-24.9S379.3,119.2,379.3,133z
		 M404.3,152.4c-9.7,0-17.8-7.2-19.2-16.6h7.5c1.3,5.3,6,9.2,11.7,9.2s10.4-4,11.7-9.2h7.5C422.1,145.1,414,152.4,404.3,152.4z
		 M398.5,135.7h11.6c-1,2.2-3.2,3.7-5.8,3.7C401.7,139.4,399.5,137.9,398.5,135.7z M423.4,130.2h-38.3c1.4-9.4,9.4-16.6,19.2-16.6
		S422.1,120.8,423.4,130.2z"/>
</g>
<text transform="matrix(1 0 0 1 91.4 143.6)" class="st2 st3 st4">BOBBY</text>
<g>
	<polygon points="235.5,144.7 247.2,132.9 235.5,121.2 	"/>
	<rect x="228.9" y="124.4" transform="matrix(-1.836970e-16 1 -1 -1.836970e-16 363.3331 -97.4526)" width="3" height="17.2"/>
</g>
</svg>
