<?xml version="1.0" encoding="utf-8"?>
<!-- Generator: Adobe Illustrator 24.1.0, SVG Export Plug-In . SVG Version: 6.00 Build 0)  -->
<svg version="1.1" id="Layer_1" xmlns="http://www.w3.org/2000/svg" xmlns:xlink="http://www.w3.org/1999/xlink" x="0px" y="0px"
	 viewBox="0 0 100 97" style="enable-background:new 0 0 100 97;" xml:space="preserve">
<style type="text/css">
	.st0{fill:#FFFFFF;}
</style>
<g>
	<path class="st0" d="M29.6,11c-5.1,0-9.3,4.2-9.3,9.3c0,1.1,0.9,2,2,2s2-0.9,2-2c0-2.9,2.4-5.3,5.3-5.3s5.3,2.4,5.3,5.3
		c0,1.1,0.9,2,2,2s2-0.9,2-2C38.8,15.2,34.7,11,29.6,11z"/>
	<path class="st0" d="M79.3,53.4c-1.1,0-2,0.9-2,2c0,7-5.7,12.6-12.6,12.6c-1.6,0-3.1-0.3-4.5-0.9c-0.3-0.1-0.6-0.2-0.9-0.4
		c-3.6-1.7-6.2-5-7-8.9c-0.1-0.6-0.2-1.3-0.2-1.9c0-0.1,0-0.3-0.1-0.4c0-0.1,0-0.1,0-0.2v-7.1h0.4c0,0,3-2.6,5.7-5
		c3-2.8,2.8-7.2-0.9-9.4c-0.9-0.6-2-1-3.1-1h-8.2c-1.1,0-2.1,0.4-3.1,1c-3.6,2.3-3.9,6.7-0.9,9.4c2.7,2.4,5.7,5,5.7,5H48v7.1
		c0,0.1,0,0.1,0,0.2c0,0.1-0.1,0.3-0.1,0.4c-0.2,5-3.4,9.4-8.1,11.2c-0.4,0.1-0.7,0.3-1.1,0.4h-0.2v0c-1,0.3-2.1,0.4-3.2,0.4
		c-7,0-12.7-5.7-12.7-12.7c0-1.1-0.9-2-2-2s-2,0.9-2,2c0,9.2,7.5,16.7,16.7,16.7c1.1,0,2.2-0.1,3.2-0.3v4.9C38.6,82.9,43.7,88,50,88
		c6.3,0,11.5-5.1,11.5-11.4v-4.9c1.1,0.2,2.1,0.3,3.2,0.3c9.2,0,16.6-7.5,16.6-16.6C81.3,54.3,80.4,53.4,79.3,53.4z M50,84
		c-4.1,0-7.4-3.3-7.4-7.4v-6.2c2.1-1,4-2.5,5.5-4.2v4.3v3c0,1.1,0.9,2,2,2s2-0.9,2-2v-3v-4.4c1.5,1.8,3.3,3.2,5.5,4.2v6.2
		C57.5,80.7,54.1,84,50,84z"/>
	<circle class="st0" cx="59.2" cy="56.3" r="2.4"/>
	<circle class="st0" cx="70.2" cy="56.3" r="2.4"/>
	<circle class="st0" cx="64.7" cy="62.7" r="2.4"/>
	<circle class="st0" cx="29.6" cy="56.3" r="2.4"/>
	<circle class="st0" cx="40.6" cy="56.3" r="2.4"/>
	<circle class="st0" cx="35.1" cy="62.7" r="2.4"/>
	<circle class="st0" cx="70.2" cy="20.3" r="7.9"/>
</g>
</svg>
