<?xml version="1.0" encoding="utf-8"?>
<!-- Generator: Adobe Illustrator 24.1.0, SVG Export Plug-In . SVG Version: 6.00 Build 0)  -->
<svg version="1.1" id="Layer_1" xmlns="http://www.w3.org/2000/svg" xmlns:xlink="http://www.w3.org/1999/xlink" x="0px" y="0px"
	 viewBox="0 0 120 150" style="enable-background:new 0 0 120 150;" xml:space="preserve">
<style type="text/css">
	.st0{fill:#FFFFFF;}
</style>
<desc>Created with Sketch.</desc>
<g>
	<path class="st0" d="M94.8,31.4H55.2c-1.1,0-2,0.6-2.4,1.6s-0.2,2.1,0.6,2.9l7.3,7.3L23.2,80.6c-0.5,0.5-0.8,1.1-0.8,1.8
		c0,0.7,0.3,1.4,0.8,1.9l19.4,19.4l-12.1,12.1c-1,1-1,2.7,0,3.7c0.5,0.5,1.2,0.8,1.9,0.8c0.7,0,1.3-0.3,1.9-0.8l14-13.9l37.4-37.4
		l7.3,7.3c0.5,0.5,1.2,0.8,1.9,0.8c0.3,0,0.7-0.1,1-0.2c1-0.4,1.6-1.4,1.6-2.4V34C97.4,32.6,96.2,31.4,94.8,31.4z M28.8,82.4
		l7.5-7.5l5.1,20.2L28.8,82.4z M47.7,98.6l-7.1-28l9-9l7.1,28L47.7,98.6z M61.1,85.3l-7.1-28l9-9l7.1,28L61.1,85.3z M74.4,72
		l-5.1-20.2l12.6,12.6L74.4,72z M92.1,67.2L61.6,36.7h30.5V67.2L92.1,67.2z"/>
</g>
</svg>
