<?xml version="1.0" encoding="utf-8"?>
<!-- Generator: Adobe Illustrator 24.1.0, SVG Export Plug-In . SVG Version: 6.00 Build 0)  -->
<svg version="1.1" id="Layer_1" xmlns="http://www.w3.org/2000/svg" xmlns:xlink="http://www.w3.org/1999/xlink" x="0px" y="0px"
	 viewBox="0 0 100 106.9" style="enable-background:new 0 0 100 106.9;" xml:space="preserve">
<desc>Created with Sketch.</desc>
<g>
	<path d="M85.4,6H45.8c-1.1,0-2,0.6-2.4,1.6s-0.2,2.1,0.6,2.9l7.3,7.3L13.8,55.2C13.3,55.7,13,56.3,13,57s0.3,1.4,0.8,1.9l19.4,19.4
		L21.1,90.4c-1,1-1,2.7,0,3.7c0.5,0.5,1.2,0.8,1.9,0.8c0.7,0,1.3-0.3,1.9-0.8l14-13.9l37.4-37.4l7.3,7.3c0.5,0.5,1.2,0.8,1.9,0.8
		c0.3,0,0.7-0.1,1-0.2c1-0.4,1.6-1.4,1.6-2.4V8.6C88,7.2,86.8,6,85.4,6z M19.4,57l7.5-7.5L32,69.7L19.4,57z M38.3,73.2l-7.1-28l9-9
		l7.1,28L38.3,73.2z M51.7,59.9l-7.1-28l9-9l7.1,28L51.7,59.9z M65,46.6l-5.1-20.2L72.5,39L65,46.6z M82.7,41.8L52.2,11.3h30.5V41.8
		L82.7,41.8z"/>
</g>
</svg>
