<?xml version="1.0" encoding="utf-8"?>
<!-- Generator: Adobe Illustrator 24.1.0, SVG Export Plug-In . SVG Version: 6.00 Build 0)  -->
<svg version="1.1" id="Layer_1" xmlns="http://www.w3.org/2000/svg" xmlns:xlink="http://www.w3.org/1999/xlink" x="0px" y="0px"
	 viewBox="0 0 120 150" style="enable-background:new 0 0 120 150;" xml:space="preserve">
<style type="text/css">
	.st0{clip-path:url(#SVGID_1_);}
	.st1{clip-path:url(#SVGID_2_);}
	.st2{fill:#FFCFEB;}
	.st3{clip-path:url(#SVGID_1_);fill:none;stroke:#FFCFEB;stroke-width:3;stroke-miterlimit:10;}
</style>
<g>
	<defs>
		<rect id="SVGID_5_" y="0" width="120" height="150"/>
	</defs>
	<clipPath id="SVGID_1_">
		<use xlink:href="#SVGID_5_"  style="overflow:visible;"/>
	</clipPath>
	<g class="st0">
		<defs>
			<rect id="SVGID_7_" x="-0.8" y="-34.3" width="120.8" height="69.3"/>
		</defs>
		<clipPath id="SVGID_2_">
			<use xlink:href="#SVGID_7_"  style="overflow:visible;"/>
		</clipPath>
		<g class="st1">
			<path class="st2" d="M2.5-41.9h6.6c0.6,0,1.1-0.5,1.1-1.1v0c0-0.6-0.5-1.1-1.1-1.1H2.5c-0.6,0-1.1,0.5-1.1,1.1v0
				C1.4-42.4,1.9-41.9,2.5-41.9z"/>
			<path class="st2" d="M2.5-61.1h6.6c0.6,0,1.1-0.5,1.1-1.1v0c0-0.6-0.5-1.1-1.1-1.1H2.5c-0.6,0-1.1,0.5-1.1,1.1v0
				C1.4-61.6,1.9-61.1,2.5-61.1z"/>
			<path class="st2" d="M2.5-22.7h6.6c0.6,0,1.1-0.5,1.1-1.1v0c0-0.6-0.5-1.1-1.1-1.1H2.5c-0.6,0-1.1,0.5-1.1,1.1v0
				C1.4-23.2,1.9-22.7,2.5-22.7z"/>
			<path class="st2" d="M2.5-3.5h6.6c0.6,0,1.1-0.5,1.1-1.1v0c0-0.6-0.5-1.1-1.1-1.1H2.5c-0.6,0-1.1,0.5-1.1,1.1v0
				C1.4-4,1.9-3.5,2.5-3.5z"/>
			<path class="st2" d="M2.5,15.8h6.6c0.6,0,1.1-0.5,1.1-1.1v0c0-0.6-0.5-1.1-1.1-1.1H2.5c-0.6,0-1.1,0.5-1.1,1.1v0
				C1.4,15.3,1.9,15.8,2.5,15.8z"/>
			<path class="st2" d="M2.5,35h6.6c0.6,0,1.1-0.5,1.1-1.1v0c0-0.6-0.5-1.1-1.1-1.1H2.5c-0.6,0-1.1,0.5-1.1,1.1v0
				C1.4,34.5,1.9,35,2.5,35z"/>
			<path class="st2" d="M2.5,54.2h6.6c0.6,0,1.1-0.5,1.1-1.1v0c0-0.6-0.5-1.1-1.1-1.1H2.5c-0.6,0-1.1,0.5-1.1,1.1v0
				C1.4,53.7,1.9,54.2,2.5,54.2z"/>
			<path class="st2" d="M2.5,73.4h6.6c0.6,0,1.1-0.5,1.1-1.1v0c0-0.6-0.5-1.1-1.1-1.1H2.5c-0.6,0-1.1,0.5-1.1,1.1v0
				C1.4,72.9,1.9,73.4,2.5,73.4z"/>
			<path class="st2" d="M2.5,92.7h6.6c0.6,0,1.1-0.5,1.1-1.1l0,0c0-0.6-0.5-1.1-1.1-1.1H2.5c-0.6,0-1.1,0.5-1.1,1.1l0,0
				C1.4,92.2,1.9,92.7,2.5,92.7z"/>
			<path class="st2" d="M23.8-32h6.6c0.6,0,1.1-0.5,1.1-1.1v0c0-0.6-0.5-1.1-1.1-1.1h-6.6c-0.6,0-1.1,0.5-1.1,1.1v0
				C22.7-32.5,23.2-32,23.8-32z"/>
			<path class="st2" d="M23.8-51.2h6.6c0.6,0,1.1-0.5,1.1-1.1l0,0c0-0.6-0.5-1.1-1.1-1.1h-6.6c-0.6,0-1.1,0.5-1.1,1.1l0,0
				C22.7-51.7,23.2-51.2,23.8-51.2z"/>
			<path class="st2" d="M23.8-12.8h6.6c0.6,0,1.1-0.5,1.1-1.1v0c0-0.6-0.5-1.1-1.1-1.1h-6.6c-0.6,0-1.1,0.5-1.1,1.1v0
				C22.7-13.3,23.2-12.8,23.8-12.8z"/>
			<path class="st2" d="M23.8,6.4h6.6c0.6,0,1.1-0.5,1.1-1.1v0c0-0.6-0.5-1.1-1.1-1.1h-6.6c-0.6,0-1.1,0.5-1.1,1.1v0
				C22.7,5.9,23.2,6.4,23.8,6.4z"/>
			<path class="st2" d="M23.8,25.7h6.6c0.6,0,1.1-0.5,1.1-1.1v0c0-0.6-0.5-1.1-1.1-1.1h-6.6c-0.6,0-1.1,0.5-1.1,1.1v0
				C22.7,25.2,23.2,25.7,23.8,25.7z"/>
			<path class="st2" d="M23.8,44.9h6.6c0.6,0,1.1-0.5,1.1-1.1v0c0-0.6-0.5-1.1-1.1-1.1h-6.6c-0.6,0-1.1,0.5-1.1,1.1v0
				C22.7,44.4,23.2,44.9,23.8,44.9z"/>
			<path class="st2" d="M23.8,64.1h6.6c0.6,0,1.1-0.5,1.1-1.1l0,0c0-0.6-0.5-1.1-1.1-1.1h-6.6c-0.6,0-1.1,0.5-1.1,1.1l0,0
				C22.7,63.6,23.2,64.1,23.8,64.1z"/>
			<path class="st2" d="M23.8,83.3h6.6c0.6,0,1.1-0.5,1.1-1.1l0,0c0-0.6-0.5-1.1-1.1-1.1h-6.6c-0.6,0-1.1,0.5-1.1,1.1l0,0
				C22.7,82.8,23.2,83.3,23.8,83.3z"/>
			<path class="st2" d="M23.8,102.6h6.6c0.6,0,1.1-0.5,1.1-1.1l0,0c0-0.6-0.5-1.1-1.1-1.1h-6.6c-0.6,0-1.1,0.5-1.1,1.1l0,0
				C22.7,102,23.2,102.6,23.8,102.6z"/>
			<path class="st2" d="M45.2-41.9h6.6c0.6,0,1.1-0.5,1.1-1.1v0c0-0.6-0.5-1.1-1.1-1.1h-6.6c-0.6,0-1.1,0.5-1.1,1.1v0
				C44-42.4,44.5-41.9,45.2-41.9z"/>
			<path class="st2" d="M45.2-61.1h6.6c0.6,0,1.1-0.5,1.1-1.1v0c0-0.6-0.5-1.1-1.1-1.1h-6.6c-0.6,0-1.1,0.5-1.1,1.1v0
				C44-61.6,44.5-61.1,45.2-61.1z"/>
			<path class="st2" d="M45.2-22.7h6.6c0.6,0,1.1-0.5,1.1-1.1v0c0-0.6-0.5-1.1-1.1-1.1h-6.6c-0.6,0-1.1,0.5-1.1,1.1v0
				C44-23.2,44.5-22.7,45.2-22.7z"/>
			<path class="st2" d="M45.2-3.5h6.6c0.6,0,1.1-0.5,1.1-1.1v0c0-0.6-0.5-1.1-1.1-1.1h-6.6c-0.6,0-1.1,0.5-1.1,1.1v0
				C44-4,44.5-3.5,45.2-3.5z"/>
			<path class="st2" d="M45.2,15.8h6.6c0.6,0,1.1-0.5,1.1-1.1v0c0-0.6-0.5-1.1-1.1-1.1h-6.6c-0.6,0-1.1,0.5-1.1,1.1v0
				C44,15.3,44.5,15.8,45.2,15.8z"/>
			<path class="st2" d="M45.2,35h6.6c0.6,0,1.1-0.5,1.1-1.1v0c0-0.6-0.5-1.1-1.1-1.1h-6.6c-0.6,0-1.1,0.5-1.1,1.1v0
				C44,34.5,44.5,35,45.2,35z"/>
			<path class="st2" d="M45.2,54.2h6.6c0.6,0,1.1-0.5,1.1-1.1v0c0-0.6-0.5-1.1-1.1-1.1h-6.6c-0.6,0-1.1,0.5-1.1,1.1v0
				C44,53.7,44.5,54.2,45.2,54.2z"/>
			<path class="st2" d="M45.2,73.4h6.6c0.6,0,1.1-0.5,1.1-1.1v0c0-0.6-0.5-1.1-1.1-1.1h-6.6c-0.6,0-1.1,0.5-1.1,1.1v0
				C44,72.9,44.5,73.4,45.2,73.4z"/>
			<path class="st2" d="M45.2,92.7h6.6c0.6,0,1.1-0.5,1.1-1.1l0,0c0-0.6-0.5-1.1-1.1-1.1h-6.6c-0.6,0-1.1,0.5-1.1,1.1l0,0
				C44,92.2,44.5,92.7,45.2,92.7z"/>
			<path class="st2" d="M66.5-32h6.6c0.6,0,1.1-0.5,1.1-1.1v0c0-0.6-0.5-1.1-1.1-1.1h-6.6c-0.6,0-1.1,0.5-1.1,1.1v0
				C65.4-32.5,65.9-32,66.5-32z"/>
			<path class="st2" d="M66.5-51.2h6.6c0.6,0,1.1-0.5,1.1-1.1l0,0c0-0.6-0.5-1.1-1.1-1.1h-6.6c-0.6,0-1.1,0.5-1.1,1.1l0,0
				C65.4-51.7,65.9-51.2,66.5-51.2z"/>
			<path class="st2" d="M66.5-12.8h6.6c0.6,0,1.1-0.5,1.1-1.1v0c0-0.6-0.5-1.1-1.1-1.1h-6.6c-0.6,0-1.1,0.5-1.1,1.1v0
				C65.4-13.3,65.9-12.8,66.5-12.8z"/>
			<path class="st2" d="M66.5,6.4h6.6c0.6,0,1.1-0.5,1.1-1.1v0c0-0.6-0.5-1.1-1.1-1.1h-6.6c-0.6,0-1.1,0.5-1.1,1.1v0
				C65.4,5.9,65.9,6.4,66.5,6.4z"/>
			<path class="st2" d="M66.5,25.7h6.6c0.6,0,1.1-0.5,1.1-1.1v0c0-0.6-0.5-1.1-1.1-1.1h-6.6c-0.6,0-1.1,0.5-1.1,1.1v0
				C65.4,25.2,65.9,25.7,66.5,25.7z"/>
			<path class="st2" d="M66.5,44.9h6.6c0.6,0,1.1-0.5,1.1-1.1v0c0-0.6-0.5-1.1-1.1-1.1h-6.6c-0.6,0-1.1,0.5-1.1,1.1v0
				C65.4,44.4,65.9,44.9,66.5,44.9z"/>
			<path class="st2" d="M66.5,64.1h6.6c0.6,0,1.1-0.5,1.1-1.1l0,0c0-0.6-0.5-1.1-1.1-1.1h-6.6c-0.6,0-1.1,0.5-1.1,1.1l0,0
				C65.4,63.6,65.9,64.1,66.5,64.1z"/>
			<path class="st2" d="M66.5,83.3h6.6c0.6,0,1.1-0.5,1.1-1.1l0,0c0-0.6-0.5-1.1-1.1-1.1h-6.6c-0.6,0-1.1,0.5-1.1,1.1l0,0
				C65.4,82.8,65.9,83.3,66.5,83.3z"/>
			<path class="st2" d="M66.5,102.6h6.6c0.6,0,1.1-0.5,1.1-1.1l0,0c0-0.6-0.5-1.1-1.1-1.1h-6.6c-0.6,0-1.1,0.5-1.1,1.1l0,0
				C65.4,102,65.9,102.6,66.5,102.6z"/>
			<path class="st2" d="M87.8-41.9h6.6c0.6,0,1.1-0.5,1.1-1.1v0c0-0.6-0.5-1.1-1.1-1.1h-6.6c-0.6,0-1.1,0.5-1.1,1.1v0
				C86.7-42.4,87.2-41.9,87.8-41.9z"/>
			<path class="st2" d="M87.8-61.1h6.6c0.6,0,1.1-0.5,1.1-1.1v0c0-0.6-0.5-1.1-1.1-1.1h-6.6c-0.6,0-1.1,0.5-1.1,1.1v0
				C86.7-61.6,87.2-61.1,87.8-61.1z"/>
			<path class="st2" d="M87.8-22.7h6.6c0.6,0,1.1-0.5,1.1-1.1v0c0-0.6-0.5-1.1-1.1-1.1h-6.6c-0.6,0-1.1,0.5-1.1,1.1v0
				C86.7-23.2,87.2-22.7,87.8-22.7z"/>
			<path class="st2" d="M87.8-3.5h6.6c0.6,0,1.1-0.5,1.1-1.1v0c0-0.6-0.5-1.1-1.1-1.1h-6.6c-0.6,0-1.1,0.5-1.1,1.1v0
				C86.7-4,87.2-3.5,87.8-3.5z"/>
			<path class="st2" d="M87.8,15.8h6.6c0.6,0,1.1-0.5,1.1-1.1v0c0-0.6-0.5-1.1-1.1-1.1h-6.6c-0.6,0-1.1,0.5-1.1,1.1v0
				C86.7,15.3,87.2,15.8,87.8,15.8z"/>
			<path class="st2" d="M87.8,35h6.6c0.6,0,1.1-0.5,1.1-1.1v0c0-0.6-0.5-1.1-1.1-1.1h-6.6c-0.6,0-1.1,0.5-1.1,1.1v0
				C86.7,34.5,87.2,35,87.8,35z"/>
			<path class="st2" d="M87.8,54.2h6.6c0.6,0,1.1-0.5,1.1-1.1v0c0-0.6-0.5-1.1-1.1-1.1h-6.6c-0.6,0-1.1,0.5-1.1,1.1v0
				C86.7,53.7,87.2,54.2,87.8,54.2z"/>
			<path class="st2" d="M87.8,73.4h6.6c0.6,0,1.1-0.5,1.1-1.1v0c0-0.6-0.5-1.1-1.1-1.1h-6.6c-0.6,0-1.1,0.5-1.1,1.1v0
				C86.7,72.9,87.2,73.4,87.8,73.4z"/>
			<path class="st2" d="M87.8,92.7h6.6c0.6,0,1.1-0.5,1.1-1.1l0,0c0-0.6-0.5-1.1-1.1-1.1h-6.6c-0.6,0-1.1,0.5-1.1,1.1l0,0
				C86.7,92.2,87.2,92.7,87.8,92.7z"/>
			<path class="st2" d="M109.2-32h6.6c0.6,0,1.1-0.5,1.1-1.1v0c0-0.6-0.5-1.1-1.1-1.1h-6.6c-0.6,0-1.1,0.5-1.1,1.1v0
				C108-32.5,108.5-32,109.2-32z"/>
			<path class="st2" d="M109.2-51.2h6.6c0.6,0,1.1-0.5,1.1-1.1l0,0c0-0.6-0.5-1.1-1.1-1.1h-6.6c-0.6,0-1.1,0.5-1.1,1.1l0,0
				C108-51.7,108.5-51.2,109.2-51.2z"/>
			<path class="st2" d="M109.2-12.8h6.6c0.6,0,1.1-0.5,1.1-1.1v0c0-0.6-0.5-1.1-1.1-1.1h-6.6c-0.6,0-1.1,0.5-1.1,1.1v0
				C108-13.3,108.5-12.8,109.2-12.8z"/>
			<path class="st2" d="M109.2,6.4h6.6c0.6,0,1.1-0.5,1.1-1.1v0c0-0.6-0.5-1.1-1.1-1.1h-6.6c-0.6,0-1.1,0.5-1.1,1.1v0
				C108,5.9,108.5,6.4,109.2,6.4z"/>
			<path class="st2" d="M109.2,25.7h6.6c0.6,0,1.1-0.5,1.1-1.1v0c0-0.6-0.5-1.1-1.1-1.1h-6.6c-0.6,0-1.1,0.5-1.1,1.1v0
				C108,25.2,108.5,25.7,109.2,25.7z"/>
			<path class="st2" d="M109.2,44.9h6.6c0.6,0,1.1-0.5,1.1-1.1v0c0-0.6-0.5-1.1-1.1-1.1h-6.6c-0.6,0-1.1,0.5-1.1,1.1v0
				C108,44.4,108.5,44.9,109.2,44.9z"/>
			<path class="st2" d="M109.2,64.1h6.6c0.6,0,1.1-0.5,1.1-1.1l0,0c0-0.6-0.5-1.1-1.1-1.1h-6.6c-0.6,0-1.1,0.5-1.1,1.1l0,0
				C108,63.6,108.5,64.1,109.2,64.1z"/>
			<path class="st2" d="M109.2,83.3h6.6c0.6,0,1.1-0.5,1.1-1.1l0,0c0-0.6-0.5-1.1-1.1-1.1h-6.6c-0.6,0-1.1,0.5-1.1,1.1l0,0
				C108,82.8,108.5,83.3,109.2,83.3z"/>
			<path class="st2" d="M109.2,102.6h6.6c0.6,0,1.1-0.5,1.1-1.1l0,0c0-0.6-0.5-1.1-1.1-1.1h-6.6c-0.6,0-1.1,0.5-1.1,1.1l0,0
				C108,102,108.5,102.6,109.2,102.6z"/>
		</g>
	</g>
	<circle class="st3" cx="95" cy="121.7" r="48.4"/>
	<g class="st0">
		<g>
			<path d="M63.1,109l-12-48.9l2.8-0.7c0.4-0.1,0.8-0.4,0.9-0.9c0.1-0.4,0-0.9-0.3-1.2l-18.3-17c-0.3-0.3-0.7-0.4-1.1-0.3
				c-0.4,0.1-0.7,0.4-0.8,0.8l-7.6,23.4c-0.1,0.4,0,0.9,0.3,1.2c0.2,0.2,0.5,0.4,0.9,0.4c0.1,0,0.2,0,0.3,0l2.8-0.7L43,114
				c0.1,0.3,0.3,0.6,0.5,0.7c0.2,0.1,0.4,0.2,0.6,0.2c0.1,0,0.2,0,0.3,0l8.1-2l2.4,9.7c0.1,0.5,0.6,0.9,1.1,0.9c0.1,0,0.2,0,0.3,0
				c0.6-0.2,1-0.8,0.9-1.4l-2.4-9.7l7.6-1.9C63,110.2,63.2,109.6,63.1,109z M39.4,89.7L52.1,74l2.2,8.9L41.5,98.7L39.4,89.7z
				 M36.5,77.9l12.8-15.7l2.2,8.9L38.7,86.9L36.5,77.9z M35.9,43.3l15.3,14.4L29.6,63L35.9,43.3z M47.1,61.1l-11.3,14l-2.6-10.6
				L47.1,61.1z M42.3,101.6l12.8-15.7l2.2,8.9l-12.8,15.7L42.3,101.6z M46.4,111.8l11.5-14.3l2.7,10.8L46.4,111.8z"/>
			<path d="M72.1,115.8c0.1,0,0.1,0,0.2,0c0.6,0,1.1-0.4,1.2-1l1.3-9.9l7.8,1c0.1,0,0.1,0,0.2,0c0.6,0,1.1-0.4,1.2-1L90.4,55
				l2.9,0.4c0.1,0,0.1,0,0.2,0c0.4,0,0.7-0.2,1-0.5c0.3-0.4,0.3-0.8,0.1-1.2L83.7,31.2c-0.2-0.4-0.5-0.6-0.9-0.7
				c-0.4-0.1-0.8,0.1-1.1,0.4L66.1,50c-0.3,0.3-0.3,0.8-0.2,1.2c0.2,0.4,0.5,0.7,0.9,0.7l2.9,0.4l-6.5,49.9c0,0.3,0,0.6,0.2,0.9
				c0.2,0.2,0.5,0.4,0.8,0.5l8.3,1.1l-1.3,9.9C71,115.1,71.4,115.7,72.1,115.8z M81.5,103.4l-14.5-1.9L83,92.4L81.5,103.4z
				 M70.1,66.3l17.6-10.1l-1.2,9.1L68.9,75.4L70.1,66.3z M68.6,78.4l17.6-10.1L85,77.4L67.4,87.5L68.6,78.4z M67,90.4l17.6-10.1
				l-1.2,9.1L65.8,99.5L67,90.4z M82.1,33.9l9.1,18.9l-22-2.9L82.1,33.9z M86.2,54.4l-15.6,8.9l1.4-10.8L86.2,54.4z"/>
			<path d="M64.9,31c-10.1,4.1-11.6,14.2-11.6,14.7c-0.1,0.6,0.4,1.2,1,1.3c0.1,0,0.1,0,0.2,0c0.6,0,1.1-0.4,1.2-1
				c0-0.1,1.3-9.1,10.2-12.8c0.6-0.2,0.9-0.9,0.6-1.5C66.2,31,65.5,30.7,64.9,31z"/>
			<path d="M105.6,41.2c-6.6-1.2-10.8,6.3-11,6.6c-0.3,0.6-0.1,1.3,0.5,1.6c0.2,0.1,0.4,0.1,0.6,0.1c0.4,0,0.8-0.2,1-0.6
				c0-0.1,3.5-6.3,8.6-5.4c0.6,0.1,1.3-0.3,1.4-0.9S106.2,41.3,105.6,41.2z"/>
			<path d="M23.7,51.5c0.2,0.4,0.6,0.5,1,0.5c0.2,0,0.4-0.1,0.6-0.2c0.6-0.4,0.7-1.1,0.4-1.6c-0.2-0.3-4.8-7.5-11.4-5.9
				c-0.6,0.2-1,0.8-0.9,1.4c0.2,0.6,0.8,1,1.4,0.9C19.8,45.4,23.7,51.5,23.7,51.5z"/>
			<path d="M18.8,39l3.1,1l1,3.1c0.1,0.4,0.5,0.7,0.9,0.8c0.1,0,0.1,0,0.2,0c0.4,0,0.7-0.2,1-0.5l1.9-2.8h3.3l0,0
				c0.4,0,0.9-0.3,1.1-0.6c0.2-0.4,0.2-0.9-0.1-1.2l-2-2.7l1.1-3.1c0.1-0.4,0-0.9-0.3-1.2c-0.3-0.3-0.8-0.4-1.2-0.3l-3.1,1.1l-2.7-2
				c-0.4-0.3-0.8-0.3-1.2-0.1c-0.5,0.2-0.7,0.6-0.7,1.1l0.1,3.3l-2.7,1.9c-0.4,0.3-0.6,0.7-0.5,1.2C18.1,38.5,18.4,38.9,18.8,39z
				 M23,36.5c0.3-0.2,0.5-0.6,0.5-1V34l1.3,1c0.3,0.2,0.7,0.3,1.1,0.2l1.5-0.5l-0.5,1.5c-0.1,0.4-0.1,0.8,0.2,1.1l1,1.3h-1.6
				c-0.4,0-0.8,0.2-1,0.5l-0.9,1.3L24,38.7c-0.1-0.4-0.4-0.7-0.8-0.8l-1.5-0.5L23,36.5z"/>
			<path d="M103.3,63.6l1.1-3.1c0.1-0.4,0-0.9-0.3-1.2c-0.3-0.3-0.8-0.4-1.2-0.3l-3.1,1.1l-2.7-2c-0.4-0.3-0.8-0.3-1.2-0.1
				c-0.4,0.2-0.7,0.6-0.6,1.1l0.1,3.3l-2.7,1.9c-0.4,0.3-0.6,0.7-0.5,1.2c0.1,0.4,0.4,0.8,0.8,0.9l3.1,1l1,3.1
				c0.1,0.4,0.5,0.7,0.9,0.8c0.1,0,0.1,0,0.2,0c0.4,0,0.7-0.2,1-0.5l1.9-2.8h3.3c0.4,0,0.9-0.2,1.1-0.6c0.2-0.4,0.2-0.9-0.1-1.2
				L103.3,63.6z M100.4,65.8c-0.4-0.1-0.8,0.2-1,0.5l-0.9,1.3l-0.5-1.5c-0.1-0.4-0.4-0.7-0.8-0.8l-1.5-0.5l1.3-0.9
				c0.3-0.2,0.5-0.6,0.5-1v-1.6l1.3,1c0.3,0.2,0.7,0.3,1.1,0.2l1.5-0.5l-0.5,1.5c-0.1,0.4-0.1,0.8,0.2,1.1l1,1.3L100.4,65.8z"/>
			<path d="M29.3,84.6c0.2-0.4,0.2-0.9-0.1-1.2l-2-2.7l1.1-3.1c0.1-0.4,0-0.9-0.3-1.2s-0.8-0.4-1.2-0.3l-3.1,1.1l-2.7-2
				c-0.4-0.3-0.8-0.3-1.2-0.1c-0.4,0.2-0.6,0.6-0.6,1.1l0.1,3.3l-2.7,1.9c-0.4,0.3-0.6,0.7-0.5,1.2c0.1,0.4,0.4,0.8,0.8,0.9l3.1,1
				l1,3.1c0.1,0.4,0.5,0.7,0.9,0.8c0.1,0,0.1,0,0.2,0c0.4,0,0.7-0.2,1-0.5l1.9-2.8h3.3C28.8,85.2,29.1,85,29.3,84.6z M24.4,82.8
				L24.4,82.8c-0.4,0-0.8,0.2-1,0.5l-0.9,1.3L22,83.1c-0.1-0.4-0.4-0.7-0.8-0.8l-1.5-0.4l1.3-0.9c0.3-0.2,0.5-0.6,0.5-1v-1.6l1.3,1
				c0.3,0.2,0.7,0.3,1.1,0.2l1.5-0.5l-0.5,1.5c-0.1,0.4-0.1,0.8,0.2,1.1l1,1.3L24.4,82.8z"/>
		</g>
		<circle cx="57.2" cy="126" r="1.2"/>
	</g>
</g>
</svg>
