<?xml version="1.0" encoding="utf-8"?>
<!-- Generator: Adobe Illustrator 24.1.0, SVG Export Plug-In . SVG Version: 6.00 Build 0)  -->
<svg version="1.1" id="Layer_1" xmlns="http://www.w3.org/2000/svg" xmlns:xlink="http://www.w3.org/1999/xlink" x="0px" y="0px"
	 viewBox="0 0 120 150" style="enable-background:new 0 0 120 150;" xml:space="preserve">
<style type="text/css">
	.st0{clip-path:url(#SVGID_2_);}
	.st1{clip-path:url(#SVGID_4_);}
	.st2{fill:#FFCFEB;}
	.st3{clip-path:url(#SVGID_6_);fill:none;stroke:#FFCFEB;stroke-width:3;stroke-miterlimit:10;}
	.st4{clip-path:url(#SVGID_8_);}
	.st5{fill:#FFFFFF;}
</style>
<g>
	<g>
		<defs>
			<rect id="SVGID_1_" y="0" width="120" height="150"/>
		</defs>
		<clipPath id="SVGID_2_">
			<use xlink:href="#SVGID_1_"  style="overflow:visible;"/>
		</clipPath>
		<g class="st0">
			<g>
				<defs>
					<rect id="SVGID_3_" x="-0.8" y="-34.3" width="120.8" height="69.3"/>
				</defs>
				<clipPath id="SVGID_4_">
					<use xlink:href="#SVGID_3_"  style="overflow:visible;"/>
				</clipPath>
				<g class="st1">
					<path class="st2" d="M2.5-41.9h6.6c0.6,0,1.1-0.5,1.1-1.1l0,0c0-0.6-0.5-1.1-1.1-1.1H2.5c-0.6,0-1.1,0.5-1.1,1.1l0,0
						C1.4-42.4,1.9-41.9,2.5-41.9z"/>
					<path class="st2" d="M2.5-61.1h6.6c0.6,0,1.1-0.5,1.1-1.1l0,0c0-0.6-0.5-1.1-1.1-1.1H2.5c-0.6,0-1.1,0.5-1.1,1.1l0,0
						C1.4-61.6,1.9-61.1,2.5-61.1z"/>
					<path class="st2" d="M2.5-22.7h6.6c0.6,0,1.1-0.5,1.1-1.1l0,0c0-0.6-0.5-1.1-1.1-1.1H2.5c-0.6,0-1.1,0.5-1.1,1.1l0,0
						C1.4-23.2,1.9-22.7,2.5-22.7z"/>
					<path class="st2" d="M2.5-3.5h6.6c0.6,0,1.1-0.5,1.1-1.1l0,0c0-0.6-0.5-1.1-1.1-1.1H2.5c-0.6,0-1.1,0.5-1.1,1.1l0,0
						C1.4-4,1.9-3.5,2.5-3.5z"/>
					<path class="st2" d="M2.5,15.8h6.6c0.6,0,1.1-0.5,1.1-1.1l0,0c0-0.6-0.5-1.1-1.1-1.1H2.5c-0.6,0-1.1,0.5-1.1,1.1l0,0
						C1.4,15.3,1.9,15.8,2.5,15.8z"/>
					<path class="st2" d="M2.5,35h6.6c0.6,0,1.1-0.5,1.1-1.1l0,0c0-0.6-0.5-1.1-1.1-1.1H2.5c-0.6,0-1.1,0.5-1.1,1.1l0,0
						C1.4,34.5,1.9,35,2.5,35z"/>
					<path class="st2" d="M2.5,54.2h6.6c0.6,0,1.1-0.5,1.1-1.1l0,0c0-0.6-0.5-1.1-1.1-1.1H2.5c-0.6,0-1.1,0.5-1.1,1.1l0,0
						C1.4,53.7,1.9,54.2,2.5,54.2z"/>
					<path class="st2" d="M2.5,73.4h6.6c0.6,0,1.1-0.5,1.1-1.1l0,0c0-0.6-0.5-1.1-1.1-1.1H2.5c-0.6,0-1.1,0.5-1.1,1.1l0,0
						C1.4,72.9,1.9,73.4,2.5,73.4z"/>
					<path class="st2" d="M2.5,92.7h6.6c0.6,0,1.1-0.5,1.1-1.1l0,0c0-0.6-0.5-1.1-1.1-1.1H2.5c-0.6,0-1.1,0.5-1.1,1.1l0,0
						C1.4,92.2,1.9,92.7,2.5,92.7z"/>
					<path class="st2" d="M23.8-32h6.6c0.6,0,1.1-0.5,1.1-1.1l0,0c0-0.6-0.5-1.1-1.1-1.1h-6.6c-0.6,0-1.1,0.5-1.1,1.1l0,0
						C22.7-32.5,23.2-32,23.8-32z"/>
					<path class="st2" d="M23.8-51.2h6.6c0.6,0,1.1-0.5,1.1-1.1l0,0c0-0.6-0.5-1.1-1.1-1.1h-6.6c-0.6,0-1.1,0.5-1.1,1.1l0,0
						C22.7-51.7,23.2-51.2,23.8-51.2z"/>
					<path class="st2" d="M23.8-12.8h6.6c0.6,0,1.1-0.5,1.1-1.1l0,0c0-0.6-0.5-1.1-1.1-1.1h-6.6c-0.6,0-1.1,0.5-1.1,1.1l0,0
						C22.7-13.3,23.2-12.8,23.8-12.8z"/>
					<path class="st2" d="M23.8,6.4h6.6c0.6,0,1.1-0.5,1.1-1.1l0,0c0-0.6-0.5-1.1-1.1-1.1h-6.6c-0.6,0-1.1,0.5-1.1,1.1l0,0
						C22.7,5.9,23.2,6.4,23.8,6.4z"/>
					<path class="st2" d="M23.8,25.7h6.6c0.6,0,1.1-0.5,1.1-1.1l0,0c0-0.6-0.5-1.1-1.1-1.1h-6.6c-0.6,0-1.1,0.5-1.1,1.1l0,0
						C22.7,25.2,23.2,25.7,23.8,25.7z"/>
					<path class="st2" d="M23.8,44.9h6.6c0.6,0,1.1-0.5,1.1-1.1l0,0c0-0.6-0.5-1.1-1.1-1.1h-6.6c-0.6,0-1.1,0.5-1.1,1.1l0,0
						C22.7,44.4,23.2,44.9,23.8,44.9z"/>
					<path class="st2" d="M23.8,64.1h6.6c0.6,0,1.1-0.5,1.1-1.1l0,0c0-0.6-0.5-1.1-1.1-1.1h-6.6c-0.6,0-1.1,0.5-1.1,1.1l0,0
						C22.7,63.6,23.2,64.1,23.8,64.1z"/>
					<path class="st2" d="M23.8,83.3h6.6c0.6,0,1.1-0.5,1.1-1.1l0,0c0-0.6-0.5-1.1-1.1-1.1h-6.6c-0.6,0-1.1,0.5-1.1,1.1l0,0
						C22.7,82.8,23.2,83.3,23.8,83.3z"/>
					<path class="st2" d="M23.8,102.6h6.6c0.6,0,1.1-0.5,1.1-1.1l0,0c0-0.6-0.5-1.1-1.1-1.1h-6.6c-0.6,0-1.1,0.5-1.1,1.1l0,0
						C22.7,102,23.2,102.6,23.8,102.6z"/>
					<path class="st2" d="M45.2-41.9h6.6c0.6,0,1.1-0.5,1.1-1.1l0,0c0-0.6-0.5-1.1-1.1-1.1h-6.6c-0.6,0-1.1,0.5-1.1,1.1l0,0
						C44-42.4,44.5-41.9,45.2-41.9z"/>
					<path class="st2" d="M45.2-61.1h6.6c0.6,0,1.1-0.5,1.1-1.1l0,0c0-0.6-0.5-1.1-1.1-1.1h-6.6c-0.6,0-1.1,0.5-1.1,1.1l0,0
						C44-61.6,44.5-61.1,45.2-61.1z"/>
					<path class="st2" d="M45.2-22.7h6.6c0.6,0,1.1-0.5,1.1-1.1l0,0c0-0.6-0.5-1.1-1.1-1.1h-6.6c-0.6,0-1.1,0.5-1.1,1.1l0,0
						C44-23.2,44.5-22.7,45.2-22.7z"/>
					<path class="st2" d="M45.2-3.5h6.6c0.6,0,1.1-0.5,1.1-1.1l0,0c0-0.6-0.5-1.1-1.1-1.1h-6.6c-0.6,0-1.1,0.5-1.1,1.1l0,0
						C44-4,44.5-3.5,45.2-3.5z"/>
					<path class="st2" d="M45.2,15.8h6.6c0.6,0,1.1-0.5,1.1-1.1l0,0c0-0.6-0.5-1.1-1.1-1.1h-6.6c-0.6,0-1.1,0.5-1.1,1.1l0,0
						C44,15.3,44.5,15.8,45.2,15.8z"/>
					<path class="st2" d="M45.2,35h6.6c0.6,0,1.1-0.5,1.1-1.1l0,0c0-0.6-0.5-1.1-1.1-1.1h-6.6c-0.6,0-1.1,0.5-1.1,1.1l0,0
						C44,34.5,44.5,35,45.2,35z"/>
					<path class="st2" d="M45.2,54.2h6.6c0.6,0,1.1-0.5,1.1-1.1l0,0c0-0.6-0.5-1.1-1.1-1.1h-6.6c-0.6,0-1.1,0.5-1.1,1.1l0,0
						C44,53.7,44.5,54.2,45.2,54.2z"/>
					<path class="st2" d="M45.2,73.4h6.6c0.6,0,1.1-0.5,1.1-1.1l0,0c0-0.6-0.5-1.1-1.1-1.1h-6.6c-0.6,0-1.1,0.5-1.1,1.1l0,0
						C44,72.9,44.5,73.4,45.2,73.4z"/>
					<path class="st2" d="M45.2,92.7h6.6c0.6,0,1.1-0.5,1.1-1.1l0,0c0-0.6-0.5-1.1-1.1-1.1h-6.6c-0.6,0-1.1,0.5-1.1,1.1l0,0
						C44,92.2,44.5,92.7,45.2,92.7z"/>
					<path class="st2" d="M66.5-32h6.6c0.6,0,1.1-0.5,1.1-1.1l0,0c0-0.6-0.5-1.1-1.1-1.1h-6.6c-0.6,0-1.1,0.5-1.1,1.1l0,0
						C65.4-32.5,65.9-32,66.5-32z"/>
					<path class="st2" d="M66.5-51.2h6.6c0.6,0,1.1-0.5,1.1-1.1l0,0c0-0.6-0.5-1.1-1.1-1.1h-6.6c-0.6,0-1.1,0.5-1.1,1.1l0,0
						C65.4-51.7,65.9-51.2,66.5-51.2z"/>
					<path class="st2" d="M66.5-12.8h6.6c0.6,0,1.1-0.5,1.1-1.1l0,0c0-0.6-0.5-1.1-1.1-1.1h-6.6c-0.6,0-1.1,0.5-1.1,1.1l0,0
						C65.4-13.3,65.9-12.8,66.5-12.8z"/>
					<path class="st2" d="M66.5,6.4h6.6c0.6,0,1.1-0.5,1.1-1.1l0,0c0-0.6-0.5-1.1-1.1-1.1h-6.6c-0.6,0-1.1,0.5-1.1,1.1l0,0
						C65.4,5.9,65.9,6.4,66.5,6.4z"/>
					<path class="st2" d="M66.5,25.7h6.6c0.6,0,1.1-0.5,1.1-1.1l0,0c0-0.6-0.5-1.1-1.1-1.1h-6.6c-0.6,0-1.1,0.5-1.1,1.1l0,0
						C65.4,25.2,65.9,25.7,66.5,25.7z"/>
					<path class="st2" d="M66.5,44.9h6.6c0.6,0,1.1-0.5,1.1-1.1l0,0c0-0.6-0.5-1.1-1.1-1.1h-6.6c-0.6,0-1.1,0.5-1.1,1.1l0,0
						C65.4,44.4,65.9,44.9,66.5,44.9z"/>
					<path class="st2" d="M66.5,64.1h6.6c0.6,0,1.1-0.5,1.1-1.1l0,0c0-0.6-0.5-1.1-1.1-1.1h-6.6c-0.6,0-1.1,0.5-1.1,1.1l0,0
						C65.4,63.6,65.9,64.1,66.5,64.1z"/>
					<path class="st2" d="M66.5,83.3h6.6c0.6,0,1.1-0.5,1.1-1.1l0,0c0-0.6-0.5-1.1-1.1-1.1h-6.6c-0.6,0-1.1,0.5-1.1,1.1l0,0
						C65.4,82.8,65.9,83.3,66.5,83.3z"/>
					<path class="st2" d="M66.5,102.6h6.6c0.6,0,1.1-0.5,1.1-1.1l0,0c0-0.6-0.5-1.1-1.1-1.1h-6.6c-0.6,0-1.1,0.5-1.1,1.1l0,0
						C65.4,102,65.9,102.6,66.5,102.6z"/>
					<path class="st2" d="M87.8-41.9h6.6c0.6,0,1.1-0.5,1.1-1.1l0,0c0-0.6-0.5-1.1-1.1-1.1h-6.6c-0.6,0-1.1,0.5-1.1,1.1l0,0
						C86.7-42.4,87.2-41.9,87.8-41.9z"/>
					<path class="st2" d="M87.8-61.1h6.6c0.6,0,1.1-0.5,1.1-1.1l0,0c0-0.6-0.5-1.1-1.1-1.1h-6.6c-0.6,0-1.1,0.5-1.1,1.1l0,0
						C86.7-61.6,87.2-61.1,87.8-61.1z"/>
					<path class="st2" d="M87.8-22.7h6.6c0.6,0,1.1-0.5,1.1-1.1l0,0c0-0.6-0.5-1.1-1.1-1.1h-6.6c-0.6,0-1.1,0.5-1.1,1.1l0,0
						C86.7-23.2,87.2-22.7,87.8-22.7z"/>
					<path class="st2" d="M87.8-3.5h6.6c0.6,0,1.1-0.5,1.1-1.1l0,0c0-0.6-0.5-1.1-1.1-1.1h-6.6c-0.6,0-1.1,0.5-1.1,1.1l0,0
						C86.7-4,87.2-3.5,87.8-3.5z"/>
					<path class="st2" d="M87.8,15.8h6.6c0.6,0,1.1-0.5,1.1-1.1l0,0c0-0.6-0.5-1.1-1.1-1.1h-6.6c-0.6,0-1.1,0.5-1.1,1.1l0,0
						C86.7,15.3,87.2,15.8,87.8,15.8z"/>
					<path class="st2" d="M87.8,35h6.6c0.6,0,1.1-0.5,1.1-1.1l0,0c0-0.6-0.5-1.1-1.1-1.1h-6.6c-0.6,0-1.1,0.5-1.1,1.1l0,0
						C86.7,34.5,87.2,35,87.8,35z"/>
					<path class="st2" d="M87.8,54.2h6.6c0.6,0,1.1-0.5,1.1-1.1l0,0c0-0.6-0.5-1.1-1.1-1.1h-6.6c-0.6,0-1.1,0.5-1.1,1.1l0,0
						C86.7,53.7,87.2,54.2,87.8,54.2z"/>
					<path class="st2" d="M87.8,73.4h6.6c0.6,0,1.1-0.5,1.1-1.1l0,0c0-0.6-0.5-1.1-1.1-1.1h-6.6c-0.6,0-1.1,0.5-1.1,1.1l0,0
						C86.7,72.9,87.2,73.4,87.8,73.4z"/>
					<path class="st2" d="M87.8,92.7h6.6c0.6,0,1.1-0.5,1.1-1.1l0,0c0-0.6-0.5-1.1-1.1-1.1h-6.6c-0.6,0-1.1,0.5-1.1,1.1l0,0
						C86.7,92.2,87.2,92.7,87.8,92.7z"/>
					<path class="st2" d="M109.2-32h6.6c0.6,0,1.1-0.5,1.1-1.1l0,0c0-0.6-0.5-1.1-1.1-1.1h-6.6c-0.6,0-1.1,0.5-1.1,1.1l0,0
						C108-32.5,108.5-32,109.2-32z"/>
					<path class="st2" d="M109.2-51.2h6.6c0.6,0,1.1-0.5,1.1-1.1l0,0c0-0.6-0.5-1.1-1.1-1.1h-6.6c-0.6,0-1.1,0.5-1.1,1.1l0,0
						C108-51.7,108.5-51.2,109.2-51.2z"/>
					<path class="st2" d="M109.2-12.8h6.6c0.6,0,1.1-0.5,1.1-1.1l0,0c0-0.6-0.5-1.1-1.1-1.1h-6.6c-0.6,0-1.1,0.5-1.1,1.1l0,0
						C108-13.3,108.5-12.8,109.2-12.8z"/>
					<path class="st2" d="M109.2,6.4h6.6c0.6,0,1.1-0.5,1.1-1.1l0,0c0-0.6-0.5-1.1-1.1-1.1h-6.6c-0.6,0-1.1,0.5-1.1,1.1l0,0
						C108,5.9,108.5,6.4,109.2,6.4z"/>
					<path class="st2" d="M109.2,25.7h6.6c0.6,0,1.1-0.5,1.1-1.1l0,0c0-0.6-0.5-1.1-1.1-1.1h-6.6c-0.6,0-1.1,0.5-1.1,1.1l0,0
						C108,25.2,108.5,25.7,109.2,25.7z"/>
					<path class="st2" d="M109.2,44.9h6.6c0.6,0,1.1-0.5,1.1-1.1l0,0c0-0.6-0.5-1.1-1.1-1.1h-6.6c-0.6,0-1.1,0.5-1.1,1.1l0,0
						C108,44.4,108.5,44.9,109.2,44.9z"/>
					<path class="st2" d="M109.2,64.1h6.6c0.6,0,1.1-0.5,1.1-1.1l0,0c0-0.6-0.5-1.1-1.1-1.1h-6.6c-0.6,0-1.1,0.5-1.1,1.1l0,0
						C108,63.6,108.5,64.1,109.2,64.1z"/>
					<path class="st2" d="M109.2,83.3h6.6c0.6,0,1.1-0.5,1.1-1.1l0,0c0-0.6-0.5-1.1-1.1-1.1h-6.6c-0.6,0-1.1,0.5-1.1,1.1l0,0
						C108,82.8,108.5,83.3,109.2,83.3z"/>
					<path class="st2" d="M109.2,102.6h6.6c0.6,0,1.1-0.5,1.1-1.1l0,0c0-0.6-0.5-1.1-1.1-1.1h-6.6c-0.6,0-1.1,0.5-1.1,1.1l0,0
						C108,102,108.5,102.6,109.2,102.6z"/>
				</g>
			</g>
		</g>
	</g>
	<g>
		<defs>
			<rect id="SVGID_5_" y="0" width="120" height="150"/>
		</defs>
		<clipPath id="SVGID_6_">
			<use xlink:href="#SVGID_5_"  style="overflow:visible;"/>
		</clipPath>
		<circle class="st3" cx="95" cy="121.7" r="48.4"/>
	</g>
	<g>
		<defs>
			<rect id="SVGID_7_" y="0" width="120" height="150"/>
		</defs>
		<clipPath id="SVGID_8_">
			<use xlink:href="#SVGID_7_"  style="overflow:visible;"/>
		</clipPath>
		<g class="st4">
			<g>
				<path d="M62.9,109L50.9,60l3-0.7c0.3-0.1,0.7-0.3,0.8-0.8c0.1-0.4,0-0.8-0.3-1l-18.3-17c-0.3-0.3-0.6-0.3-0.9-0.3
					c-0.3,0.1-0.6,0.3-0.7,0.7l-7.6,23.4c-0.1,0.4,0,0.8,0.3,1c0.2,0.2,0.5,0.3,0.8,0.3h0.3l2.9-0.7l12,49.1
					c0.1,0.3,0.3,0.5,0.4,0.6c0.2,0.1,0.4,0.2,0.5,0.2h0.3l8.2-2l2.4,9.9c0.1,0.4,0.5,0.8,0.9,0.8h0.3c0.5-0.2,0.8-0.7,0.8-1.2
					l-2.4-9.9l7.8-1.9C62.8,110.1,63,109.6,62.9,109z M29.3,63.2L35.8,43l15.7,14.8L29.3,63.2z M33,64.4l14.6-3.6L35.7,75.5L33,64.4
					z M36.3,77.9L36.3,77.9l13.1-16l2.3,9.3l-0.1,0.1l-13,16.1L36.3,77.9z M39.2,89.7l13-16l2.3,9.3L54.4,83l-13,16.1L39.2,89.7z
					 M42.1,101.6L42.1,101.6l13.1-16l2.3,9.3l-0.1,0.1l-13,16L42.1,101.6z M45.9,112.1l12-15l2.8,11.3L45.9,112.1z"/>
				<path d="M94.4,53.8L83.5,31.3c-0.2-0.3-0.4-0.5-0.8-0.6c-0.4-0.1-0.8,0.2-0.9,0.4L66.2,50.1c-0.3,0.3-0.2,0.9-0.2,1
					c0.1,0.2,0.4,0.6,0.7,0.6l3.1,0.4l-6.5,50.1c0,0.3,0,0.5,0.2,0.8c0.2,0.2,0.5,0.3,0.7,0.4l8.4,1.1l-1.3,10.1
					c-0.1,0.2-0.1,0.4,0,0.6c0.1,0.2,0.4,0.4,0.7,0.4h0.2c0.5,0,0.9-0.4,1-0.9l1.3-10.1l0.2,0l7.8,1l0.2,0c0.5,0,0.9-0.4,1-0.9
					l6.4-50.1l3.1,0.4l0.2,0c0.3,0,0.6-0.1,0.9-0.4C94.6,54.5,94.6,54.1,94.4,53.8z M81.6,103.6l-15.2-2l16.8-9.5L81.6,103.6z
					 M83.6,89.5L83.6,89.5l-18,10.3l1.3-9.5l0.1,0L84.8,80L83.6,89.5z M85.2,77.5L85.2,77.5l-18,10.3l1.3-9.5l0.1,0L86.4,68
					L85.2,77.5z M86.7,65.4L86.7,65.4l-18,10.3l1.3-9.5l0.1,0l17.9-10.3L86.7,65.4z M70.4,63.6l1.5-11.3l14.9,2L70.4,63.6z M68.9,50
					l13.3-16.5L91.5,53L68.9,50z"/>
				<path d="M65.8,33c0.2-0.1,0.4-0.3,0.5-0.5c0.1-0.2,0.1-0.5,0-0.8c-0.1-0.3-0.4-0.6-0.7-0.7c-0.1,0-0.2-0.1-0.3-0.1
					c-0.1,0-0.3,0-0.4,0.1l0,0c-10.3,4.2-11.5,14.4-11.5,14.5c-0.1,0.5,0.3,1,0.9,1.1l0.2,0c0.5,0,0.9-0.4,1-0.9
					C55.5,45.9,56.8,36.8,65.8,33z"/>
				<path d="M94.7,47.9c-0.3,0.5-0.1,1.1,0.4,1.3c0.2,0.1,0.3,0.1,0.5,0.1c0.4,0,0.7-0.2,0.8-0.5l0,0c0.2-0.4,1.3-2.2,3-3.7
					c1.9-1.6,3.8-2.2,5.8-1.8c0.5,0.1,1.1-0.3,1.2-0.8c0.1-0.5-0.4-1.1-1-1.2l0,0c-0.5-0.1-0.9-0.1-1.4-0.1
					C99.2,41.2,95.8,46.2,94.7,47.9C94.8,47.8,94.8,47.9,94.7,47.9z"/>
				<path d="M23.8,51.4L23.8,51.4c0.1,0.3,0.4,0.4,0.9,0.4c0.2,0,0.3-0.1,0.5-0.2c0.5-0.3,0.6-1,0.3-1.4c-0.8-1.2-5.2-7.3-11.2-5.8
					c-0.5,0.2-0.9,0.7-0.8,1.2c0.2,0.5,0.7,0.8,1.2,0.8c0.5-0.1,0.9-0.2,1.3-0.2C20.5,46.3,23.8,51.3,23.8,51.4z"/>
				<path d="M30.2,40.4c0.3,0,0.8-0.3,1-0.5c0.2-0.3,0.1-0.8-0.1-1L29,36.1l1.1-3.2c0.1-0.4,0-0.8-0.3-1c-0.2-0.2-0.7-0.3-1-0.3
					l-3.2,1.1l-2.8-2.1c-0.2-0.1-0.4-0.2-0.6-0.2c-0.1,0-0.3,0-0.5,0.1c-0.4,0.2-0.6,0.5-0.6,0.9l0.1,3.4l-2.8,2
					c-0.4,0.3-0.5,0.6-0.4,1c0.1,0.4,0.4,0.8,0.7,0.9l0,0l3.2,1l1,3.2c0.1,0.4,0.5,0.6,0.8,0.7l0.2,0c0.3,0,0.6-0.1,0.9-0.4l1.9-2.9
					H30.2z M25.6,39.2l-1.1,1.6l-0.7-2c-0.1-0.4-0.3-0.6-0.7-0.7l-1.8-0.6l1.6-1.1c0.3-0.2,0.4-0.5,0.4-0.9v-1.9l1.6,1.2
					c0.3,0.2,0.6,0.2,1,0.2l1.8-0.6l-0.6,1.8C27,36.7,27,37,27.2,37.2l1.2,1.6h-2C26.2,38.8,25.8,38.9,25.6,39.2z"/>
				<path d="M92.4,65.5c0.1,0.3,0.3,0.7,0.7,0.8l3.2,1l0,0.1l1,3.1c0.1,0.4,0.5,0.6,0.8,0.7l0.2,0c0.3,0,0.6-0.1,0.9-0.4l1.9-2.9
					h3.4c0.3,0,0.8-0.2,0.9-0.5c0.2-0.4,0.2-0.8-0.1-1l-2.2-2.7l1.1-3.2c0.1-0.4,0-0.8-0.3-1c-0.2-0.2-0.7-0.3-1-0.3l-3.2,1.1
					L97,58.2c-0.2-0.1-0.4-0.2-0.6-0.2c-0.1,0-0.3,0-0.5,0.1c-0.3,0.2-0.6,0.5-0.5,0.9l0.1,3.4l-2.8,2
					C92.4,64.7,92.3,65.1,92.4,65.5z M96.9,63.8c0.3-0.2,0.4-0.5,0.4-0.9v-2l1.6,1.2c0.3,0.2,0.6,0.2,1,0.2l1.8-0.6l-0.6,1.8
					c-0.1,0.4-0.1,0.7,0.2,0.9l1.2,1.6l-2.1-0.1c-0.3-0.1-0.6,0.2-0.8,0.4L98.4,68l-0.6-1.8c-0.1-0.3-0.3-0.6-0.7-0.7l-1.8-0.6
					L96.9,63.8z"/>
				<path d="M16.3,82.6c0.1,0.3,0.3,0.7,0.7,0.8l3.2,1l1,3.2c0.1,0.4,0.5,0.6,0.8,0.7l0.2,0c0.3,0,0.6-0.1,0.9-0.4l1.9-2.9h3.4
					c0.4,0.1,0.7,0,0.8-0.4h0c0.2-0.4,0.2-0.8-0.1-1L27,80.7l1.1-3.2c0.1-0.4,0-0.8-0.3-1c-0.2-0.2-0.7-0.3-1-0.3l-3.2,1.1l-2.8-2.1
					c-0.2-0.1-0.4-0.2-0.6-0.2c-0.1,0-0.3,0-0.5,0.1c-0.4,0.2-0.5,0.6-0.5,0.9l0.1,3.4l-2.8,2C16.3,81.8,16.2,82.2,16.3,82.6z
					 M20.9,80.9c0.3-0.2,0.4-0.5,0.4-0.9v-2l1.6,1.2c0.3,0.2,0.6,0.2,1,0.2l1.8-0.6l-0.6,1.8c-0.1,0.4-0.1,0.7,0.2,0.9l1.3,1.6
					L24.4,83c-0.3,0-0.7,0.2-0.8,0.4L22.4,85l-0.6-1.8c-0.1-0.4-0.3-0.6-0.7-0.7L19.3,82L20.9,80.9z"/>
			</g>
			<g>
				<circle cx="57.2" cy="126" r="1.2"/>
				<path class="st5" d="M57.2,127.4c-0.8,0-1.4-0.6-1.4-1.4s0.6-1.4,1.4-1.4c0.8,0,1.4,0.6,1.4,1.4S58,127.4,57.2,127.4z M57.2,125
					c-0.6,0-1,0.5-1,1s0.5,1,1,1c0.6,0,1-0.5,1-1S57.8,125,57.2,125z"/>
			</g>
		</g>
	</g>
</g>
</svg>
