<?xml version="1.0" encoding="utf-8"?>
<!-- Generator: Adobe Illustrator 24.1.0, SVG Export Plug-In . SVG Version: 6.00 Build 0)  -->
<svg version="1.1" id="Layer_1" xmlns="http://www.w3.org/2000/svg" xmlns:xlink="http://www.w3.org/1999/xlink" x="0px" y="0px"
	 viewBox="0 0 120 150" style="enable-background:new 0 0 120 150;" xml:space="preserve">
<style type="text/css">
	.st0{fill:none;stroke:#FFCFEB;stroke-width:3;stroke-miterlimit:10;}
</style>
<circle class="st0" cx="98.7" cy="115.2" r="48.4"/>
<g>
	<path d="M63.4,106.3l-12-48.9l2.8-0.7c0.4-0.1,0.8-0.4,0.9-0.9c0.1-0.4,0-0.9-0.3-1.2l-18.3-17c-0.3-0.3-0.7-0.4-1.1-0.3
		c-0.4,0.1-0.7,0.4-0.8,0.8L27,61.6c-0.1,0.4,0,0.9,0.3,1.2c0.2,0.2,0.5,0.4,0.9,0.4c0.1,0,0.2,0,0.3,0l2.8-0.7l12,48.9
		c0.1,0.3,0.3,0.6,0.5,0.7s0.4,0.2,0.6,0.2c0.1,0,0.2,0,0.3,0l8.1-2L55,120c0.1,0.5,0.6,0.9,1.1,0.9c0.1,0,0.2,0,0.3,0
		c0.6-0.2,1-0.8,0.9-1.4l-2.4-9.7l7.6-1.9C63.2,107.5,63.5,106.9,63.4,106.3z M39.6,87l12.8-15.7l2.2,8.9L41.7,96L39.6,87z
		 M36.7,75.2l12.8-15.7l2.2,8.9L38.9,84.2L36.7,75.2z M36.1,40.6L51.5,55l-21.6,5.3L36.1,40.6z M47.3,58.4L36,72.4l-2.6-10.6
		L47.3,58.4z M42.5,98.9l12.8-15.7l2.2,8.9l-12.8,15.7L42.5,98.9z M46.6,109.2l11.5-14.3l2.7,10.8L46.6,109.2z"/>
	<path d="M72.3,113.1c0.1,0,0.1,0,0.2,0c0.6,0,1.1-0.4,1.2-1l1.3-9.9l7.8,1c0.1,0,0.1,0,0.2,0c0.6,0,1.1-0.4,1.2-1l6.5-49.9l2.9,0.4
		c0.1,0,0.1,0,0.2,0c0.4,0,0.7-0.2,1-0.5c0.3-0.4,0.3-0.8,0.1-1.2L83.9,28.5c-0.2-0.4-0.5-0.6-0.9-0.7c-0.4-0.1-0.8,0.1-1.1,0.4
		L66.3,47.3c-0.3,0.3-0.3,0.8-0.2,1.2c0.2,0.4,0.5,0.7,0.9,0.7l2.9,0.4l-6.5,49.9c0,0.3,0,0.6,0.2,0.9c0.2,0.2,0.5,0.4,0.8,0.5
		l8.3,1.1l-1.3,9.9C71.2,112.4,71.6,113,72.3,113.1z M81.7,100.7l-14.5-1.9l15.9-9.1L81.7,100.7z M70.3,63.6l17.6-10.1l-1.2,9.1
		L69.2,72.8L70.3,63.6z M68.8,75.7l17.6-10.1l-1.2,9.1L67.6,84.9L68.8,75.7z M67.2,87.7l17.6-10.1l-1.2,9.1L66,96.9L67.2,87.7z
		 M82.3,31.2l9.1,18.9l-22-2.9L82.3,31.2z M86.4,51.7l-15.6,8.9l1.4-10.8L86.4,51.7z"/>
	<path d="M65.1,28.3C55,32.5,53.5,42.5,53.5,43c-0.1,0.6,0.4,1.2,1,1.3c0.1,0,0.1,0,0.2,0c0.6,0,1.1-0.4,1.2-1
		c0-0.1,1.3-9.1,10.2-12.8c0.6-0.2,0.9-0.9,0.6-1.5C66.4,28.3,65.7,28,65.1,28.3z"/>
	<path d="M105.8,38.6c-6.6-1.2-10.8,6.3-11,6.6c-0.3,0.6-0.1,1.3,0.5,1.6c0.2,0.1,0.4,0.1,0.6,0.1c0.4,0,0.8-0.2,1-0.6
		c0-0.1,3.5-6.3,8.6-5.4c0.6,0.1,1.3-0.3,1.4-0.9S106.4,38.7,105.8,38.6z"/>
	<path d="M23.9,48.8c0.2,0.4,0.6,0.5,1,0.5c0.2,0,0.4-0.1,0.6-0.2c0.6-0.4,0.7-1.1,0.4-1.6c-0.2-0.3-4.8-7.5-11.4-5.9
		c-0.6,0.2-1,0.8-0.9,1.4c0.2,0.6,0.8,1,1.4,0.9C20,42.7,23.9,48.8,23.9,48.8z"/>
	<path d="M19,36.3l3.1,1l1,3.1c0.1,0.4,0.5,0.7,0.9,0.8c0.1,0,0.1,0,0.2,0c0.4,0,0.7-0.2,1-0.5l1.9-2.8h3.3l0,0
		c0.4,0,0.9-0.3,1.1-0.6c0.2-0.4,0.2-0.9-0.1-1.2l-2-2.7l1.1-3.1c0.1-0.4,0-0.9-0.3-1.2c-0.3-0.3-0.8-0.4-1.2-0.3L25.9,30l-2.7-2
		c-0.4-0.3-0.8-0.3-1.2-0.1c-0.5,0.2-0.7,0.6-0.7,1.1l0.1,3.3l-2.7,1.9c-0.4,0.3-0.6,0.7-0.5,1.2C18.3,35.8,18.6,36.2,19,36.3z
		 M23.2,33.8c0.3-0.2,0.5-0.6,0.5-1v-1.6l1.3,1c0.3,0.2,0.7,0.3,1.1,0.2l1.5-0.5l-0.5,1.5c-0.1,0.4-0.1,0.8,0.2,1.1l1,1.3h-1.6
		c-0.4,0-0.8,0.2-1,0.5l-0.9,1.3L24.2,36c-0.1-0.4-0.4-0.7-0.8-0.8L22,34.7L23.2,33.8z"/>
	<path d="M103.5,61l1.1-3.1c0.1-0.4,0-0.9-0.3-1.2c-0.3-0.3-0.8-0.4-1.2-0.3l-3.1,1.1l-2.7-2c-0.4-0.3-0.8-0.3-1.2-0.1
		c-0.4,0.2-0.7,0.6-0.6,1.1l0.1,3.3L93,61.7c-0.4,0.3-0.6,0.7-0.5,1.2c0.1,0.4,0.4,0.8,0.8,0.9l3.1,1l1,3.1c0.1,0.4,0.5,0.7,0.9,0.8
		c0.1,0,0.1,0,0.2,0c0.4,0,0.7-0.2,1-0.5l1.9-2.8h3.3c0.4,0,0.9-0.2,1.1-0.6s0.2-0.9-0.1-1.2L103.5,61z M100.6,63.1
		c-0.4-0.1-0.8,0.2-1,0.5l-0.9,1.3l-0.5-1.5c-0.1-0.4-0.4-0.7-0.8-0.8L96,62.2l1.3-0.9c0.3-0.2,0.5-0.6,0.5-1v-1.6l1.3,1
		c0.3,0.2,0.7,0.3,1.1,0.2l1.5-0.5l-0.5,1.5c-0.1,0.4-0.1,0.8,0.2,1.1l1,1.3L100.6,63.1z"/>
	<path d="M29.5,81.9c0.2-0.4,0.2-0.9-0.1-1.2l-2-2.7l1.1-3.1c0.1-0.4,0-0.9-0.3-1.2c-0.3-0.3-0.8-0.4-1.2-0.3l-3.1,1.1l-2.7-2
		c-0.4-0.3-0.8-0.3-1.2-0.1c-0.4,0.2-0.6,0.6-0.6,1.1l0.1,3.3l-2.7,1.9c-0.4,0.3-0.6,0.7-0.5,1.2c0.1,0.4,0.4,0.8,0.8,0.9l3.1,1
		l1,3.1c0.1,0.4,0.5,0.7,0.9,0.8c0.1,0,0.1,0,0.2,0c0.4,0,0.7-0.2,1-0.5l1.9-2.8h3.3C29,82.5,29.3,82.3,29.5,81.9z M24.6,80.2
		L24.6,80.2c-0.4,0-0.8,0.2-1,0.5l-0.9,1.3l-0.5-1.5c-0.1-0.4-0.4-0.7-0.8-0.8L20,79.3l1.3-0.9c0.3-0.2,0.5-0.6,0.5-1v-1.6l1.3,1
		c0.3,0.2,0.7,0.3,1.1,0.2l1.5-0.5L25.1,78c-0.1,0.4-0.1,0.8,0.2,1.1l1,1.3L24.6,80.2z"/>
</g>
<circle cx="57" cy="122.9" r="1.2"/>
</svg>
