<?xml version="1.0" encoding="utf-8"?>
<!-- Generator: Adobe Illustrator 24.1.0, SVG Export Plug-In . SVG Version: 6.00 Build 0)  -->
<svg version="1.1" id="Layer_1" xmlns="http://www.w3.org/2000/svg" xmlns:xlink="http://www.w3.org/1999/xlink" x="0px" y="0px"
	 viewBox="0 0 120 150" style="enable-background:new 0 0 120 150;" xml:space="preserve">
<style type="text/css">
	.st0{clip-path:url(#SVGID_1_);}
	.st1{clip-path:url(#SVGID_2_);}
	.st2{fill:#A9E3ED;}
	.st3{clip-path:url(#SVGID_1_);fill:#A9E3ED;}
	.st4{stroke:#000000;stroke-width:0.25;stroke-miterlimit:10;}
</style>
<g>
	<defs>
		<rect id="SVGID_5_" y="0" width="120" height="150"/>
	</defs>
	<clipPath id="SVGID_1_">
		<use xlink:href="#SVGID_5_"  style="overflow:visible;"/>
	</clipPath>
	<g class="st0">
		<defs>
			<rect id="SVGID_7_" x="81.4" y="80.2" width="66.2" height="151.1"/>
		</defs>
		<clipPath id="SVGID_2_">
			<use xlink:href="#SVGID_7_"  style="overflow:visible;"/>
		</clipPath>
		<g class="st1">
			<g>
				<path class="st2" d="M84.8,94.1h6.6c0.6,0,1.1-0.5,1.1-1.1v0c0-0.6-0.5-1.1-1.1-1.1h-6.6c-0.6,0-1.1,0.5-1.1,1.1v0
					C83.7,93.6,84.2,94.1,84.8,94.1z"/>
				<path class="st2" d="M84.8,74.9h6.6c0.6,0,1.1-0.5,1.1-1.1l0,0c0-0.6-0.5-1.1-1.1-1.1h-6.6c-0.6,0-1.1,0.5-1.1,1.1l0,0
					C83.7,74.4,84.2,74.9,84.8,74.9z"/>
				<path class="st2" d="M84.8,113.3h6.6c0.6,0,1.1-0.5,1.1-1.1l0,0c0-0.6-0.5-1.1-1.1-1.1h-6.6c-0.6,0-1.1,0.5-1.1,1.1l0,0
					C83.7,112.8,84.2,113.3,84.8,113.3z"/>
				<path class="st2" d="M84.8,132.5h6.6c0.6,0,1.1-0.5,1.1-1.1l0,0c0-0.6-0.5-1.1-1.1-1.1h-6.6c-0.6,0-1.1,0.5-1.1,1.1l0,0
					C83.7,132,84.2,132.5,84.8,132.5z"/>
				<path class="st2" d="M84.8,151.8h6.6c0.6,0,1.1-0.5,1.1-1.1l0,0c0-0.6-0.5-1.1-1.1-1.1h-6.6c-0.6,0-1.1,0.5-1.1,1.1l0,0
					C83.7,151.3,84.2,151.8,84.8,151.8z"/>
				<path class="st2" d="M84.8,171h6.6c0.6,0,1.1-0.5,1.1-1.1l0,0c0-0.6-0.5-1.1-1.1-1.1h-6.6c-0.6,0-1.1,0.5-1.1,1.1l0,0
					C83.7,170.5,84.2,171,84.8,171z"/>
				<path class="st2" d="M84.8,190.2h6.6c0.6,0,1.1-0.5,1.1-1.1v0c0-0.6-0.5-1.1-1.1-1.1h-6.6c-0.6,0-1.1,0.5-1.1,1.1v0
					C83.7,189.7,84.2,190.2,84.8,190.2z"/>
				<path class="st2" d="M84.8,209.4h6.6c0.6,0,1.1-0.5,1.1-1.1l0,0c0-0.6-0.5-1.1-1.1-1.1h-6.6c-0.6,0-1.1,0.5-1.1,1.1l0,0
					C83.7,208.9,84.2,209.4,84.8,209.4z"/>
				<path class="st2" d="M84.8,228.7h6.6c0.6,0,1.1-0.5,1.1-1.1l0,0c0-0.6-0.5-1.1-1.1-1.1h-6.6c-0.6,0-1.1,0.5-1.1,1.1l0,0
					C83.7,228.2,84.2,228.7,84.8,228.7z"/>
				<path class="st2" d="M106.1,104h6.6c0.6,0,1.1-0.5,1.1-1.1v0c0-0.6-0.5-1.1-1.1-1.1h-6.6c-0.6,0-1.1,0.5-1.1,1.1v0
					C105,103.5,105.5,104,106.1,104z"/>
				<path class="st2" d="M106.1,84.8h6.6c0.6,0,1.1-0.5,1.1-1.1l0,0c0-0.6-0.5-1.1-1.1-1.1h-6.6c-0.6,0-1.1,0.5-1.1,1.1l0,0
					C105,84.3,105.5,84.8,106.1,84.8z"/>
				<path class="st2" d="M106.1,123.2h6.6c0.6,0,1.1-0.5,1.1-1.1l0,0c0-0.6-0.5-1.1-1.1-1.1h-6.6c-0.6,0-1.1,0.5-1.1,1.1l0,0
					C105,122.7,105.5,123.2,106.1,123.2z"/>
				<path class="st2" d="M106.1,142.4h6.6c0.6,0,1.1-0.5,1.1-1.1l0,0c0-0.6-0.5-1.1-1.1-1.1h-6.6c-0.6,0-1.1,0.5-1.1,1.1l0,0
					C105,141.9,105.5,142.4,106.1,142.4z"/>
				<path class="st2" d="M106.1,161.7h6.6c0.6,0,1.1-0.5,1.1-1.1l0,0c0-0.6-0.5-1.1-1.1-1.1h-6.6c-0.6,0-1.1,0.5-1.1,1.1l0,0
					C105,161.2,105.5,161.7,106.1,161.7z"/>
				<path class="st2" d="M106.1,180.9h6.6c0.6,0,1.1-0.5,1.1-1.1l0,0c0-0.6-0.5-1.1-1.1-1.1h-6.6c-0.6,0-1.1,0.5-1.1,1.1l0,0
					C105,180.4,105.5,180.9,106.1,180.9z"/>
				<path class="st2" d="M106.1,200.1h6.6c0.6,0,1.1-0.5,1.1-1.1l0,0c0-0.6-0.5-1.1-1.1-1.1h-6.6c-0.6,0-1.1,0.5-1.1,1.1l0,0
					C105,199.6,105.5,200.1,106.1,200.1z"/>
				<path class="st2" d="M106.1,219.3h6.6c0.6,0,1.1-0.5,1.1-1.1l0,0c0-0.6-0.5-1.1-1.1-1.1h-6.6c-0.6,0-1.1,0.5-1.1,1.1l0,0
					C105,218.8,105.5,219.3,106.1,219.3z"/>
				<path class="st2" d="M106.1,238.6h6.6c0.6,0,1.1-0.5,1.1-1.1v0c0-0.6-0.5-1.1-1.1-1.1h-6.6c-0.6,0-1.1,0.5-1.1,1.1v0
					C105,238.1,105.5,238.6,106.1,238.6z"/>
				<path class="st2" d="M127.5,94.1h6.6c0.6,0,1.1-0.5,1.1-1.1v0c0-0.6-0.5-1.1-1.1-1.1h-6.6c-0.6,0-1.1,0.5-1.1,1.1v0
					C126.3,93.6,126.8,94.1,127.5,94.1z"/>
				<path class="st2" d="M127.5,74.9h6.6c0.6,0,1.1-0.5,1.1-1.1l0,0c0-0.6-0.5-1.1-1.1-1.1h-6.6c-0.6,0-1.1,0.5-1.1,1.1l0,0
					C126.3,74.4,126.8,74.9,127.5,74.9z"/>
				<path class="st2" d="M127.5,113.3h6.6c0.6,0,1.1-0.5,1.1-1.1l0,0c0-0.6-0.5-1.1-1.1-1.1h-6.6c-0.6,0-1.1,0.5-1.1,1.1l0,0
					C126.3,112.8,126.8,113.3,127.5,113.3z"/>
				<path class="st2" d="M127.5,132.5h6.6c0.6,0,1.1-0.5,1.1-1.1l0,0c0-0.6-0.5-1.1-1.1-1.1h-6.6c-0.6,0-1.1,0.5-1.1,1.1l0,0
					C126.3,132,126.8,132.5,127.5,132.5z"/>
				<path class="st2" d="M127.5,151.8h6.6c0.6,0,1.1-0.5,1.1-1.1l0,0c0-0.6-0.5-1.1-1.1-1.1h-6.6c-0.6,0-1.1,0.5-1.1,1.1l0,0
					C126.3,151.3,126.8,151.8,127.5,151.8z"/>
				<path class="st2" d="M127.5,171h6.6c0.6,0,1.1-0.5,1.1-1.1l0,0c0-0.6-0.5-1.1-1.1-1.1h-6.6c-0.6,0-1.1,0.5-1.1,1.1l0,0
					C126.3,170.5,126.8,171,127.5,171z"/>
				<path class="st2" d="M127.5,190.2h6.6c0.6,0,1.1-0.5,1.1-1.1v0c0-0.6-0.5-1.1-1.1-1.1h-6.6c-0.6,0-1.1,0.5-1.1,1.1v0
					C126.3,189.7,126.8,190.2,127.5,190.2z"/>
				<path class="st2" d="M127.5,209.4h6.6c0.6,0,1.1-0.5,1.1-1.1l0,0c0-0.6-0.5-1.1-1.1-1.1h-6.6c-0.6,0-1.1,0.5-1.1,1.1l0,0
					C126.3,208.9,126.8,209.4,127.5,209.4z"/>
				<path class="st2" d="M127.5,228.7h6.6c0.6,0,1.1-0.5,1.1-1.1l0,0c0-0.6-0.5-1.1-1.1-1.1h-6.6c-0.6,0-1.1,0.5-1.1,1.1l0,0
					C126.3,228.2,126.8,228.7,127.5,228.7z"/>
				<path class="st2" d="M148.8,104h6.6c0.6,0,1.1-0.5,1.1-1.1v0c0-0.6-0.5-1.1-1.1-1.1h-6.6c-0.6,0-1.1,0.5-1.1,1.1v0
					C147.7,103.5,148.2,104,148.8,104z"/>
				<path class="st2" d="M148.8,84.8h6.6c0.6,0,1.1-0.5,1.1-1.1l0,0c0-0.6-0.5-1.1-1.1-1.1h-6.6c-0.6,0-1.1,0.5-1.1,1.1l0,0
					C147.7,84.3,148.2,84.8,148.8,84.8z"/>
				<path class="st2" d="M148.8,123.2h6.6c0.6,0,1.1-0.5,1.1-1.1l0,0c0-0.6-0.5-1.1-1.1-1.1h-6.6c-0.6,0-1.1,0.5-1.1,1.1l0,0
					C147.7,122.7,148.2,123.2,148.8,123.2z"/>
				<path class="st2" d="M148.8,142.4h6.6c0.6,0,1.1-0.5,1.1-1.1l0,0c0-0.6-0.5-1.1-1.1-1.1h-6.6c-0.6,0-1.1,0.5-1.1,1.1l0,0
					C147.7,141.9,148.2,142.4,148.8,142.4z"/>
				<path class="st2" d="M148.8,161.7h6.6c0.6,0,1.1-0.5,1.1-1.1l0,0c0-0.6-0.5-1.1-1.1-1.1h-6.6c-0.6,0-1.1,0.5-1.1,1.1l0,0
					C147.7,161.2,148.2,161.7,148.8,161.7z"/>
				<path class="st2" d="M148.8,180.9h6.6c0.6,0,1.1-0.5,1.1-1.1l0,0c0-0.6-0.5-1.1-1.1-1.1h-6.6c-0.6,0-1.1,0.5-1.1,1.1l0,0
					C147.7,180.4,148.2,180.9,148.8,180.9z"/>
				<path class="st2" d="M148.8,200.1h6.6c0.6,0,1.1-0.5,1.1-1.1l0,0c0-0.6-0.5-1.1-1.1-1.1h-6.6c-0.6,0-1.1,0.5-1.1,1.1l0,0
					C147.7,199.6,148.2,200.1,148.8,200.1z"/>
				<path class="st2" d="M148.8,219.3h6.6c0.6,0,1.1-0.5,1.1-1.1l0,0c0-0.6-0.5-1.1-1.1-1.1h-6.6c-0.6,0-1.1,0.5-1.1,1.1l0,0
					C147.7,218.8,148.2,219.3,148.8,219.3z"/>
				<path class="st2" d="M148.8,238.6h6.6c0.6,0,1.1-0.5,1.1-1.1v0c0-0.6-0.5-1.1-1.1-1.1h-6.6c-0.6,0-1.1,0.5-1.1,1.1v0
					C147.7,238.1,148.2,238.6,148.8,238.6z"/>
				<path class="st2" d="M170.1,94.1h6.6c0.6,0,1.1-0.5,1.1-1.1v0c0-0.6-0.5-1.1-1.1-1.1h-6.6c-0.6,0-1.1,0.5-1.1,1.1v0
					C169,93.6,169.5,94.1,170.1,94.1z"/>
				<path class="st2" d="M170.1,74.9h6.6c0.6,0,1.1-0.5,1.1-1.1l0,0c0-0.6-0.5-1.1-1.1-1.1h-6.6c-0.6,0-1.1,0.5-1.1,1.1l0,0
					C169,74.4,169.5,74.9,170.1,74.9z"/>
				<path class="st2" d="M170.1,113.3h6.6c0.6,0,1.1-0.5,1.1-1.1l0,0c0-0.6-0.5-1.1-1.1-1.1h-6.6c-0.6,0-1.1,0.5-1.1,1.1l0,0
					C169,112.8,169.5,113.3,170.1,113.3z"/>
				<path class="st2" d="M170.1,132.5h6.6c0.6,0,1.1-0.5,1.1-1.1l0,0c0-0.6-0.5-1.1-1.1-1.1h-6.6c-0.6,0-1.1,0.5-1.1,1.1l0,0
					C169,132,169.5,132.5,170.1,132.5z"/>
				<path class="st2" d="M170.1,151.8h6.6c0.6,0,1.1-0.5,1.1-1.1l0,0c0-0.6-0.5-1.1-1.1-1.1h-6.6c-0.6,0-1.1,0.5-1.1,1.1l0,0
					C169,151.3,169.5,151.8,170.1,151.8z"/>
				<path class="st2" d="M170.1,171h6.6c0.6,0,1.1-0.5,1.1-1.1l0,0c0-0.6-0.5-1.1-1.1-1.1h-6.6c-0.6,0-1.1,0.5-1.1,1.1l0,0
					C169,170.5,169.5,171,170.1,171z"/>
				<path class="st2" d="M170.1,190.2h6.6c0.6,0,1.1-0.5,1.1-1.1v0c0-0.6-0.5-1.1-1.1-1.1h-6.6c-0.6,0-1.1,0.5-1.1,1.1v0
					C169,189.7,169.5,190.2,170.1,190.2z"/>
				<path class="st2" d="M170.1,209.4h6.6c0.6,0,1.1-0.5,1.1-1.1l0,0c0-0.6-0.5-1.1-1.1-1.1h-6.6c-0.6,0-1.1,0.5-1.1,1.1l0,0
					C169,208.9,169.5,209.4,170.1,209.4z"/>
				<path class="st2" d="M170.1,228.7h6.6c0.6,0,1.1-0.5,1.1-1.1l0,0c0-0.6-0.5-1.1-1.1-1.1h-6.6c-0.6,0-1.1,0.5-1.1,1.1l0,0
					C169,228.2,169.5,228.7,170.1,228.7z"/>
				<path class="st2" d="M191.5,104h6.6c0.6,0,1.1-0.5,1.1-1.1v0c0-0.6-0.5-1.1-1.1-1.1h-6.6c-0.6,0-1.1,0.5-1.1,1.1v0
					C190.3,103.5,190.8,104,191.5,104z"/>
				<path class="st2" d="M191.5,84.8h6.6c0.6,0,1.1-0.5,1.1-1.1l0,0c0-0.6-0.5-1.1-1.1-1.1h-6.6c-0.6,0-1.1,0.5-1.1,1.1l0,0
					C190.3,84.3,190.8,84.8,191.5,84.8z"/>
				<path class="st2" d="M191.5,123.2h6.6c0.6,0,1.1-0.5,1.1-1.1l0,0c0-0.6-0.5-1.1-1.1-1.1h-6.6c-0.6,0-1.1,0.5-1.1,1.1l0,0
					C190.3,122.7,190.8,123.2,191.5,123.2z"/>
				<path class="st2" d="M191.5,142.4h6.6c0.6,0,1.1-0.5,1.1-1.1l0,0c0-0.6-0.5-1.1-1.1-1.1h-6.6c-0.6,0-1.1,0.5-1.1,1.1l0,0
					C190.3,141.9,190.8,142.4,191.5,142.4z"/>
				<path class="st2" d="M191.5,161.7h6.6c0.6,0,1.1-0.5,1.1-1.1l0,0c0-0.6-0.5-1.1-1.1-1.1h-6.6c-0.6,0-1.1,0.5-1.1,1.1l0,0
					C190.3,161.2,190.8,161.7,191.5,161.7z"/>
				<path class="st2" d="M191.5,180.9h6.6c0.6,0,1.1-0.5,1.1-1.1l0,0c0-0.6-0.5-1.1-1.1-1.1h-6.6c-0.6,0-1.1,0.5-1.1,1.1l0,0
					C190.3,180.4,190.8,180.9,191.5,180.9z"/>
				<path class="st2" d="M191.5,200.1h6.6c0.6,0,1.1-0.5,1.1-1.1l0,0c0-0.6-0.5-1.1-1.1-1.1h-6.6c-0.6,0-1.1,0.5-1.1,1.1l0,0
					C190.3,199.6,190.8,200.1,191.5,200.1z"/>
				<path class="st2" d="M191.5,219.3h6.6c0.6,0,1.1-0.5,1.1-1.1l0,0c0-0.6-0.5-1.1-1.1-1.1h-6.6c-0.6,0-1.1,0.5-1.1,1.1l0,0
					C190.3,218.8,190.8,219.3,191.5,219.3z"/>
				<path class="st2" d="M191.5,238.6h6.6c0.6,0,1.1-0.5,1.1-1.1v0c0-0.6-0.5-1.1-1.1-1.1h-6.6c-0.6,0-1.1,0.5-1.1,1.1v0
					C190.3,238.1,190.8,238.6,191.5,238.6z"/>
			</g>
			<path class="st2" d="M89.2,96.3v-6.6c0-0.6-0.5-1.1-1.1-1.1l0,0c-0.6,0-1.1,0.5-1.1,1.1v6.6c0,0.6,0.5,1.1,1.1,1.1l0,0
				C88.7,97.4,89.2,96.9,89.2,96.3z"/>
			<path class="st2" d="M89.2,77.1v-6.6c0-0.6-0.5-1.1-1.1-1.1l0,0c-0.6,0-1.1,0.5-1.1,1.1v6.6c0,0.6,0.5,1.1,1.1,1.1l0,0
				C88.7,78.2,89.2,77.7,89.2,77.1z"/>
			<path class="st2" d="M89.2,134.7v-6.6c0-0.6-0.5-1.1-1.1-1.1l0,0c-0.6,0-1.1,0.5-1.1,1.1v6.6c0,0.6,0.5,1.1,1.1,1.1l0,0
				C88.7,135.9,89.2,135.4,89.2,134.7z"/>
			<path class="st2" d="M89.2,115.8v-6.6c0-0.6-0.5-1.1-1.1-1.1l0,0c-0.6,0-1.1,0.5-1.1,1.1v6.6c0,0.6,0.5,1.1,1.1,1.1l0,0
				C88.7,116.9,89.2,116.4,89.2,115.8z"/>
			<path class="st2" d="M89.2,173v-6.6c0-0.6-0.5-1.1-1.1-1.1l0,0c-0.6,0-1.1,0.5-1.1,1.1v6.6c0,0.6,0.5,1.1,1.1,1.1l0,0
				C88.7,174.1,89.2,173.6,89.2,173z"/>
			<path class="st2" d="M89.2,153.8v-6.6c0-0.6-0.5-1.1-1.1-1.1l0,0c-0.6,0-1.1,0.5-1.1,1.1v6.6c0,0.6,0.5,1.1,1.1,1.1l0,0
				C88.7,154.9,89.2,154.4,89.2,153.8z"/>
			<path class="st2" d="M89.2,211.5v-6.6c0-0.6-0.5-1.1-1.1-1.1l0,0c-0.6,0-1.1,0.5-1.1,1.1v6.6c0,0.6,0.5,1.1,1.1,1.1l0,0
				C88.7,212.6,89.2,212.1,89.2,211.5z"/>
			<path class="st2" d="M89.2,230.9v-6.6c0-0.6-0.5-1.1-1.1-1.1l0,0c-0.6,0-1.1,0.5-1.1,1.1v6.6c0,0.6,0.5,1.1,1.1,1.1l0,0
				C88.7,232,89.2,231.5,89.2,230.9z"/>
			<path class="st2" d="M89.2,192.5v-6.6c0-0.6-0.5-1.1-1.1-1.1l0,0c-0.6,0-1.1,0.5-1.1,1.1v6.6c0,0.6,0.5,1.1,1.1,1.1l0,0
				C88.7,193.6,89.2,193.1,89.2,192.5z"/>
			<path class="st2" d="M110.6,106.2v-6.6c0-0.6-0.5-1.1-1.1-1.1l0,0c-0.6,0-1.1,0.5-1.1,1.1v6.6c0,0.6,0.5,1.1,1.1,1.1l0,0
				C110.1,107.3,110.6,106.8,110.6,106.2z"/>
			<path class="st2" d="M110.6,87v-6.6c0-0.6-0.5-1.1-1.1-1.1l0,0c-0.6,0-1.1,0.5-1.1,1.1V87c0,0.6,0.5,1.1,1.1,1.1l0,0
				C110.1,88.1,110.6,87.6,110.6,87z"/>
			<path class="st2" d="M110.6,144.6V138c0-0.6-0.5-1.1-1.1-1.1l0,0c-0.6,0-1.1,0.5-1.1,1.1v6.6c0,0.6,0.5,1.1,1.1,1.1l0,0
				C110.1,145.8,110.6,145.3,110.6,144.6z"/>
			<path class="st2" d="M110.6,125.7V119c0-0.6-0.5-1.1-1.1-1.1l0,0c-0.6,0-1.1,0.5-1.1,1.1v6.6c0,0.6,0.5,1.1,1.1,1.1l0,0
				C110.1,126.8,110.6,126.3,110.6,125.7z"/>
			<path class="st2" d="M110.6,182.9v-6.6c0-0.6-0.5-1.1-1.1-1.1l0,0c-0.6,0-1.1,0.5-1.1,1.1v6.6c0,0.6,0.5,1.1,1.1,1.1l0,0
				C110.1,184,110.6,183.5,110.6,182.9z"/>
			<path class="st2" d="M110.6,163.7V157c0-0.6-0.5-1.1-1.1-1.1l0,0c-0.6,0-1.1,0.5-1.1,1.1v6.6c0,0.6,0.5,1.1,1.1,1.1l0,0
				C110.1,164.8,110.6,164.3,110.6,163.7z"/>
			<path class="st2" d="M110.6,221.3v-6.6c0-0.6-0.5-1.1-1.1-1.1l0,0c-0.6,0-1.1,0.5-1.1,1.1v6.6c0,0.6,0.5,1.1,1.1,1.1l0,0
				C110.1,222.5,110.6,222,110.6,221.3z"/>
			<path class="st2" d="M110.6,240.8v-6.6c0-0.6-0.5-1.1-1.1-1.1l0,0c-0.6,0-1.1,0.5-1.1,1.1v6.6c0,0.6,0.5,1.1,1.1,1.1l0,0
				C110.1,241.9,110.6,241.4,110.6,240.8z"/>
			<path class="st2" d="M110.6,202.4v-6.6c0-0.6-0.5-1.1-1.1-1.1l0,0c-0.6,0-1.1,0.5-1.1,1.1v6.6c0,0.6,0.5,1.1,1.1,1.1l0,0
				C110.1,203.5,110.6,203,110.6,202.4z"/>
			<path class="st2" d="M131.9,96.3v-6.6c0-0.6-0.5-1.1-1.1-1.1l0,0c-0.6,0-1.1,0.5-1.1,1.1v6.6c0,0.6,0.5,1.1,1.1,1.1l0,0
				C131.4,97.4,131.9,96.9,131.9,96.3z"/>
			<path class="st2" d="M131.9,77.1v-6.6c0-0.6-0.5-1.1-1.1-1.1l0,0c-0.6,0-1.1,0.5-1.1,1.1v6.6c0,0.6,0.5,1.1,1.1,1.1l0,0
				C131.4,78.2,131.9,77.7,131.9,77.1z"/>
			<path class="st2" d="M131.9,134.7v-6.6c0-0.6-0.5-1.1-1.1-1.1l0,0c-0.6,0-1.1,0.5-1.1,1.1v6.6c0,0.6,0.5,1.1,1.1,1.1l0,0
				C131.4,135.9,131.9,135.4,131.9,134.7z"/>
			<path class="st2" d="M131.9,115.8v-6.6c0-0.6-0.5-1.1-1.1-1.1l0,0c-0.6,0-1.1,0.5-1.1,1.1v6.6c0,0.6,0.5,1.1,1.1,1.1l0,0
				C131.4,116.9,131.9,116.4,131.9,115.8z"/>
			<path class="st2" d="M131.9,173v-6.6c0-0.6-0.5-1.1-1.1-1.1l0,0c-0.6,0-1.1,0.5-1.1,1.1v6.6c0,0.6,0.5,1.1,1.1,1.1l0,0
				C131.4,174.1,131.9,173.6,131.9,173z"/>
			<path class="st2" d="M131.9,153.8v-6.6c0-0.6-0.5-1.1-1.1-1.1l0,0c-0.6,0-1.1,0.5-1.1,1.1v6.6c0,0.6,0.5,1.1,1.1,1.1l0,0
				C131.4,154.9,131.9,154.4,131.9,153.8z"/>
			<path class="st2" d="M131.9,211.5v-6.6c0-0.6-0.5-1.1-1.1-1.1l0,0c-0.6,0-1.1,0.5-1.1,1.1v6.6c0,0.6,0.5,1.1,1.1,1.1l0,0
				C131.4,212.6,131.9,212.1,131.9,211.5z"/>
			<path class="st2" d="M131.9,230.9v-6.6c0-0.6-0.5-1.1-1.1-1.1l0,0c-0.6,0-1.1,0.5-1.1,1.1v6.6c0,0.6,0.5,1.1,1.1,1.1l0,0
				C131.4,232,131.9,231.5,131.9,230.9z"/>
			<path class="st2" d="M131.9,192.5v-6.6c0-0.6-0.5-1.1-1.1-1.1l0,0c-0.6,0-1.1,0.5-1.1,1.1v6.6c0,0.6,0.5,1.1,1.1,1.1l0,0
				C131.4,193.6,131.9,193.1,131.9,192.5z"/>
			<path class="st2" d="M153.2,106v-6.6c0-0.6-0.5-1.1-1.1-1.1l0,0c-0.6,0-1.1,0.5-1.1,1.1v6.6c0,0.6,0.5,1.1,1.1,1.1l0,0
				C152.7,107.1,153.2,106.6,153.2,106z"/>
			<path class="st2" d="M153.2,86.8v-6.6c0-0.6-0.5-1.1-1.1-1.1l0,0c-0.6,0-1.1,0.5-1.1,1.1v6.6c0,0.6,0.5,1.1,1.1,1.1l0,0
				C152.7,87.9,153.2,87.4,153.2,86.8z"/>
			<path class="st2" d="M153.2,144.5v-6.6c0-0.6-0.5-1.1-1.1-1.1l0,0c-0.6,0-1.1,0.5-1.1,1.1v6.6c0,0.6,0.5,1.1,1.1,1.1l0,0
				C152.7,145.6,153.2,145.1,153.2,144.5z"/>
			<path class="st2" d="M153.2,125.5v-6.6c0-0.6-0.5-1.1-1.1-1.1l0,0c-0.6,0-1.1,0.5-1.1,1.1v6.6c0,0.6,0.5,1.1,1.1,1.1l0,0
				C152.7,126.6,153.2,126.1,153.2,125.5z"/>
			<path class="st2" d="M153.2,182.7v-6.6c0-0.6-0.5-1.1-1.1-1.1l0,0c-0.6,0-1.1,0.5-1.1,1.1v6.6c0,0.6,0.5,1.1,1.1,1.1l0,0
				C152.7,183.8,153.2,183.3,153.2,182.7z"/>
			<path class="st2" d="M153.2,163.5v-6.6c0-0.6-0.5-1.1-1.1-1.1l0,0c-0.6,0-1.1,0.5-1.1,1.1v6.6c0,0.6,0.5,1.1,1.1,1.1l0,0
				C152.7,164.6,153.2,164.1,153.2,163.5z"/>
			<path class="st2" d="M153.2,221.2v-6.6c0-0.6-0.5-1.1-1.1-1.1l0,0c-0.6,0-1.1,0.5-1.1,1.1v6.6c0,0.6,0.5,1.1,1.1,1.1l0,0
				C152.7,222.3,153.2,221.8,153.2,221.2z"/>
			<path class="st2" d="M153.2,240.6v-6.6c0-0.6-0.5-1.1-1.1-1.1l0,0c-0.6,0-1.1,0.5-1.1,1.1v6.6c0,0.6,0.5,1.1,1.1,1.1l0,0
				C152.7,241.7,153.2,241.2,153.2,240.6z"/>
			<path class="st2" d="M153.2,202.2v-6.6c0-0.6-0.5-1.1-1.1-1.1l0,0c-0.6,0-1.1,0.5-1.1,1.1v6.6c0,0.6,0.5,1.1,1.1,1.1l0,0
				C152.7,203.4,153.2,202.8,153.2,202.2z"/>
			<path class="st2" d="M174.6,96.1v-6.6c0-0.6-0.5-1.1-1.1-1.1l0,0c-0.6,0-1.1,0.5-1.1,1.1v6.6c0,0.6,0.5,1.1,1.1,1.1l0,0
				C174.1,97.2,174.6,96.7,174.6,96.1z"/>
			<path class="st2" d="M174.6,76.9v-6.6c0-0.6-0.5-1.1-1.1-1.1l0,0c-0.6,0-1.1,0.5-1.1,1.1v6.6c0,0.6,0.5,1.1,1.1,1.1l0,0
				C174.1,78,174.6,77.5,174.6,76.9z"/>
			<path class="st2" d="M174.6,134.6v-6.6c0-0.6-0.5-1.1-1.1-1.1l0,0c-0.6,0-1.1,0.5-1.1,1.1v6.6c0,0.6,0.5,1.1,1.1,1.1l0,0
				C174.1,135.7,174.6,135.2,174.6,134.6z"/>
			<path class="st2" d="M174.6,115.6V109c0-0.6-0.5-1.1-1.1-1.1l0,0c-0.6,0-1.1,0.5-1.1,1.1v6.6c0,0.6,0.5,1.1,1.1,1.1l0,0
				C174.1,116.7,174.6,116.2,174.6,115.6z"/>
			<path class="st2" d="M174.6,172.8v-6.6c0-0.6-0.5-1.1-1.1-1.1l0,0c-0.6,0-1.1,0.5-1.1,1.1v6.6c0,0.6,0.5,1.1,1.1,1.1l0,0
				C174.1,174,174.6,173.4,174.6,172.8z"/>
			<path class="st2" d="M174.6,153.6v-6.6c0-0.6-0.5-1.1-1.1-1.1l0,0c-0.6,0-1.1,0.5-1.1,1.1v6.6c0,0.6,0.5,1.1,1.1,1.1l0,0
				C174.1,154.7,174.6,154.2,174.6,153.6z"/>
			<path class="st2" d="M174.6,211.3v-6.6c0-0.6-0.5-1.1-1.1-1.1l0,0c-0.6,0-1.1,0.5-1.1,1.1v6.6c0,0.6,0.5,1.1,1.1,1.1l0,0
				C174.1,212.4,174.6,211.9,174.6,211.3z"/>
			<path class="st2" d="M174.6,230.7V224c0-0.6-0.5-1.1-1.1-1.1l0,0c-0.6,0-1.1,0.5-1.1,1.1v6.6c0,0.6,0.5,1.1,1.1,1.1l0,0
				C174.1,231.8,174.6,231.3,174.6,230.7z"/>
			<path class="st2" d="M174.6,192.3v-6.6c0-0.6-0.5-1.1-1.1-1.1l0,0c-0.6,0-1.1,0.5-1.1,1.1v6.6c0,0.6,0.5,1.1,1.1,1.1l0,0
				C174.1,193.5,174.6,193,174.6,192.3z"/>
			<path class="st2" d="M195.9,105.8v-6.6c0-0.6-0.5-1.1-1.1-1.1l0,0c-0.6,0-1.1,0.5-1.1,1.1v6.6c0,0.6,0.5,1.1,1.1,1.1l0,0
				C195.4,106.9,195.9,106.4,195.9,105.8z"/>
			<path class="st2" d="M195.9,86.6v-6.6c0-0.6-0.5-1.1-1.1-1.1l0,0c-0.6,0-1.1,0.5-1.1,1.1v6.6c0,0.6,0.5,1.1,1.1,1.1l0,0
				C195.4,87.7,195.9,87.2,195.9,86.6z"/>
			<path class="st2" d="M195.9,144.3v-6.6c0-0.6-0.5-1.1-1.1-1.1l0,0c-0.6,0-1.1,0.5-1.1,1.1v6.6c0,0.6,0.5,1.1,1.1,1.1l0,0
				C195.4,145.4,195.9,144.9,195.9,144.3z"/>
			<path class="st2" d="M195.9,125.3v-6.6c0-0.6-0.5-1.1-1.1-1.1l0,0c-0.6,0-1.1,0.5-1.1,1.1v6.6c0,0.6,0.5,1.1,1.1,1.1l0,0
				C195.4,126.5,195.9,126,195.9,125.3z"/>
			<path class="st2" d="M195.9,182.5v-6.6c0-0.6-0.5-1.1-1.1-1.1l0,0c-0.6,0-1.1,0.5-1.1,1.1v6.6c0,0.6,0.5,1.1,1.1,1.1l0,0
				C195.4,183.7,195.9,183.2,195.9,182.5z"/>
			<path class="st2" d="M195.9,163.3v-6.6c0-0.6-0.5-1.1-1.1-1.1l0,0c-0.6,0-1.1,0.5-1.1,1.1v6.6c0,0.6,0.5,1.1,1.1,1.1l0,0
				C195.4,164.4,195.9,163.9,195.9,163.3z"/>
			<path class="st2" d="M195.9,221v-6.6c0-0.6-0.5-1.1-1.1-1.1l0,0c-0.6,0-1.1,0.5-1.1,1.1v6.6c0,0.6,0.5,1.1,1.1,1.1l0,0
				C195.4,222.1,195.9,221.6,195.9,221z"/>
			<path class="st2" d="M195.9,240.4v-6.6c0-0.6-0.5-1.1-1.1-1.1l0,0c-0.6,0-1.1,0.5-1.1,1.1v6.6c0,0.6,0.5,1.1,1.1,1.1l0,0
				C195.4,241.5,195.9,241,195.9,240.4z"/>
			<path class="st2" d="M195.9,202v-6.6c0-0.6-0.5-1.1-1.1-1.1l0,0c-0.6,0-1.1,0.5-1.1,1.1v6.6c0,0.6,0.5,1.1,1.1,1.1l0,0
				C195.4,203.2,195.9,202.7,195.9,202z"/>
		</g>
	</g>
	<circle class="st3" cx="17.6" cy="80.1" r="34.5"/>
	<g class="st0">
		<path class="st4" d="M45.2,100c0.6,0,1.1-0.5,1.1-1.1v-3.1c0-0.6-0.5-1.1-1.1-1.1c-0.6,0-1.1,0.5-1.1,1.1v3.1
			C44.1,99.5,44.6,100,45.2,100C45.2,100,45.2,100,45.2,100z"/>
		<path class="st4" d="M37.3,63.2c-0.6,0-1.1,0.5-1.1,1.1c0,0.6,0.5,1,1.1,1.1h0.1c0.6,0,1.1-0.4,1.1-1.1c0-0.6-0.4-1.1-1.1-1.1
			C37.4,63.2,37.4,63.2,37.3,63.2L37.3,63.2z"/>
		<path class="st4" d="M16.2,71.8H21v44.3c0,0.6,0.5,1.1,1.1,1.1h75.8c0.6,0,1.1-0.5,1.1-1.1V71.8h4.8c0.6,0,1.1-0.5,1.1-1.1
			c0,0,0,0,0,0v-1.5c0-3.3-2.7-6-6-6H43.6c-0.6,0-1.1,0.5-1.1,1.1c0,0.6,0.5,1,1.1,1.1h55.3c2.1,0,3.8,1.7,3.8,3.8v0.4H17.3v-0.4
			c0-2.1,1.7-3.8,3.8-3.8h10c0.6,0,1.1-0.4,1.1-1.1c0-0.6-0.4-1.1-1.1-1.1c0,0-0.1,0-0.1,0h-10c-3.3,0-6,2.7-6,6v1.5
			C15.1,71.4,15.6,71.8,16.2,71.8C16.2,71.8,16.2,71.8,16.2,71.8z M48.7,115.1H30.9V79.6h17.8L48.7,115.1z M96.8,115.1H50.9V78.5
			c0-0.6-0.5-1.1-1.1-1.1c0,0,0,0,0,0h-20c-0.6,0-1.1,0.5-1.1,1.1v36.6h-5.5V71.8h73.6L96.8,115.1z"/>
		<path class="st4" d="M58.8,102.8h31.4c0.6,0,1.1-0.5,1.1-1.1c0,0,0,0,0,0V78.5c0-0.6-0.5-1.1-1.1-1.1l0,0H58.8
			c-0.6,0-1.1,0.5-1.1,1.1l0,0v23.2C57.7,102.3,58.2,102.8,58.8,102.8C58.8,102.8,58.8,102.8,58.8,102.8z M59.9,79.6h29.2v21H59.9
			L59.9,79.6z"/>
		<path class="st4" d="M86.9,41.4c0,0.6,0.5,1.1,1.1,1.1l0,0h3.6c2.9,0,5.2,2.3,5.2,5.2v12c0,0.6,0.4,1.1,1.1,1.1
			c0.6,0,1.1-0.4,1.1-1.1c0,0,0-0.1,0-0.1v-12c0-4.1-3.3-7.4-7.4-7.4H88C87.4,40.3,86.9,40.8,86.9,41.4
			C86.9,41.4,86.9,41.4,86.9,41.4z"/>
		<path class="st4" d="M22.1,60.8c0.6,0,1.1-0.5,1.1-1.1l0,0v-12c0-2.9,2.3-5.2,5.2-5.2H32c0.6,0,1.1-0.5,1.1-1.1
			c0-0.6-0.5-1-1.1-1.1h-3.6c-4.1,0-7.4,3.3-7.4,7.4v12C21,60.3,21.5,60.8,22.1,60.8C22.1,60.8,22.1,60.8,22.1,60.8z"/>
		<path class="st4" d="M47,57.9c1.8-1.1,3.2-2.9,4.1-5.3h17.7c0.9,2.5,2.3,4.3,4.1,5.3c3.9,2.3,7.7,0.6,9.7-2
			c1.9-2.6,2.5-6.8-0.9-9.9c0,0-0.1-0.1-0.1-0.1l0.1-0.1c3.4-3.1,2.8-7.3,0.9-9.9s-5.8-4.3-9.7-2c-1.8,1.1-3.2,2.9-4.1,5.3H51.1
			c-0.9-2.5-2.3-4.3-4.1-5.3c-3.9-2.3-7.7-0.6-9.7,2c-1.9,2.6-2.5,6.8,0.9,9.9c0,0,0.1,0.1,0.1,0.1c0,0-0.1,0.1-0.1,0.1
			c-3.4,3.1-2.8,7.3-0.9,9.9c1.3,1.7,3.5,3.1,5.9,3.1C44.6,59,45.9,58.6,47,57.9z M39.1,54.6c-1.4-1.9-1.8-4.8,0.6-7
			c0.3-0.3,0.7-0.6,1-0.8c0.5-0.3,0.7-1,0.4-1.5c-0.1-0.2-0.2-0.3-0.4-0.4c-0.4-0.2-0.7-0.5-1-0.8c-2.4-2.2-2-5.1-0.6-7
			c1.4-1.9,4.1-3.1,6.8-1.4c1.5,0.9,2.7,2.6,3.5,4.9c0.1,0.4,0.6,0.7,1,0.7h19.3c0.5,0,0.9-0.3,1-0.7c0.8-2.3,1.9-4,3.5-4.9
			c2.7-1.6,5.4-0.5,6.8,1.4c1.4,1.9,1.8,4.8-0.6,7c-0.3,0.3-0.7,0.6-1,0.8c-0.5,0.3-0.7,1-0.4,1.5c0.1,0.2,0.2,0.3,0.4,0.4
			c0.4,0.2,0.7,0.5,1,0.8c2.4,2.2,2,5.1,0.6,7s-4.1,3.1-6.8,1.4c-1.5-0.9-2.7-2.6-3.5-4.9c-0.1-0.4-0.6-0.7-1-0.7H50.4
			c-0.5,0-0.9,0.3-1,0.7c-0.8,2.3-1.9,4-3.5,4.9C43.1,57.7,40.5,56.5,39.1,54.6z"/>
	</g>
</g>
</svg>
