<?xml version="1.0" encoding="utf-8"?>
<!-- Generator: Adobe Illustrator 24.1.0, SVG Export Plug-In . SVG Version: 6.00 Build 0)  -->
<svg version="1.1" id="Layer_1" xmlns="http://www.w3.org/2000/svg" xmlns:xlink="http://www.w3.org/1999/xlink" x="0px" y="0px"
	 viewBox="0 0 120 150" style="enable-background:new 0 0 120 150;" xml:space="preserve">
<style type="text/css">
	.st0{fill:#A9E3ED;}
</style>
<circle class="st0" cx="16.5" cy="81.6" r="34.5"/>
<g>
	<path d="M44.5,102.1c0.6,0,1.1-0.5,1.1-1.1v-3.1c0-0.6-0.5-1.1-1.1-1.1c-0.6,0-1.1,0.5-1.1,1.1v3.1
		C43.4,101.6,43.9,102.1,44.5,102.1C44.5,102.1,44.5,102.1,44.5,102.1z"/>
	<path d="M36.6,65.3c-0.6,0-1.1,0.5-1.1,1.1c0,0.6,0.5,1,1.1,1.1h0.1c0.6,0,1.1-0.4,1.1-1.1c0-0.6-0.4-1.1-1.1-1.1
		C36.7,65.3,36.7,65.3,36.6,65.3L36.6,65.3z"/>
	<path d="M15.5,73.9h4.8v44.3c0,0.6,0.5,1.1,1.1,1.1h75.8c0.6,0,1.1-0.5,1.1-1.1V73.9h4.8c0.6,0,1.1-0.5,1.1-1.1c0,0,0,0,0,0v-1.5
		c0-3.3-2.7-6-6-6H42.9c-0.6,0-1.1,0.5-1.1,1.1c0,0.6,0.5,1,1.1,1.1h55.3c2.1,0,3.8,1.7,3.8,3.8v0.4H16.6v-0.4
		c0-2.1,1.7-3.8,3.8-3.8h10c0.6,0,1.1-0.4,1.1-1.1c0-0.6-0.4-1.1-1.1-1.1c0,0-0.1,0-0.1,0h-10c-3.3,0-6,2.7-6,6v1.5
		C14.4,73.4,14.9,73.9,15.5,73.9C15.5,73.9,15.5,73.9,15.5,73.9z M48,117.1H30.2V81.6H48L48,117.1z M96.1,117.1H50.2V80.5
		c0-0.6-0.5-1.1-1.1-1.1c0,0,0,0,0,0h-20c-0.6,0-1.1,0.5-1.1,1.1v36.6h-5.5V73.9h73.6L96.1,117.1z"/>
	<path d="M58.1,104.8h31.4c0.6,0,1.1-0.5,1.1-1.1c0,0,0,0,0,0V80.5c0-0.6-0.5-1.1-1.1-1.1l0,0H58.1c-0.6,0-1.1,0.5-1.1,1.1l0,0v23.2
		C57,104.3,57.5,104.8,58.1,104.8C58.1,104.8,58.1,104.8,58.1,104.8z M59.2,81.6h29.2v21H59.2L59.2,81.6z"/>
	<path d="M86.2,43.5c0,0.6,0.5,1.1,1.1,1.1l0,0h3.6c2.9,0,5.2,2.3,5.2,5.2v12c0,0.6,0.4,1.1,1.1,1.1c0.6,0,1.1-0.4,1.1-1.1
		c0,0,0-0.1,0-0.1v-12c0-4.1-3.3-7.4-7.4-7.4h-3.6C86.7,42.4,86.2,42.8,86.2,43.5C86.2,43.4,86.2,43.5,86.2,43.5z"/>
	<path d="M21.4,62.8c0.6,0,1.1-0.5,1.1-1.1l0,0v-12c0-2.9,2.3-5.2,5.2-5.2h3.6c0.6,0,1.1-0.5,1.1-1.1c0-0.6-0.5-1-1.1-1.1h-3.6
		c-4.1,0-7.4,3.3-7.4,7.4v12C20.3,62.3,20.8,62.8,21.4,62.8C21.4,62.8,21.4,62.8,21.4,62.8z"/>
	<path d="M46.3,60c1.8-1.1,3.2-2.9,4.1-5.3h17.7c0.9,2.5,2.3,4.3,4.1,5.3c3.9,2.3,7.7,0.6,9.7-2c1.9-2.6,2.5-6.8-0.9-9.9
		C81,48,81,48,81,48l0.1-0.1c3.4-3.1,2.8-7.3,0.9-9.9s-5.8-4.3-9.7-2c-1.8,1.1-3.2,2.9-4.1,5.3H50.4c-0.9-2.5-2.3-4.3-4.1-5.3
		c-3.9-2.3-7.7-0.6-9.7,2c-1.9,2.6-2.5,6.8,0.9,9.9c0,0,0.1,0.1,0.1,0.1c0,0-0.1,0.1-0.1,0.1c-3.4,3.1-2.8,7.3-0.9,9.9
		c1.3,1.7,3.5,3.1,5.9,3.1C43.9,61.1,45.2,60.7,46.3,60z M38.4,56.7c-1.4-1.9-1.8-4.8,0.6-7c0.3-0.3,0.7-0.6,1-0.8
		c0.5-0.3,0.7-1,0.4-1.5c-0.1-0.2-0.2-0.3-0.4-0.4c-0.4-0.2-0.7-0.5-1-0.8c-2.4-2.2-2-5.1-0.6-7c1.4-1.9,4.1-3.1,6.8-1.4
		c1.5,0.9,2.7,2.6,3.5,4.9c0.1,0.4,0.6,0.7,1,0.7h19.3c0.5,0,0.9-0.3,1-0.7c0.8-2.3,1.9-4,3.5-4.9c2.7-1.6,5.4-0.5,6.8,1.4
		c1.4,1.9,1.8,4.8-0.6,7c-0.3,0.3-0.7,0.6-1,0.8c-0.5,0.3-0.7,1-0.4,1.5c0.1,0.2,0.2,0.3,0.4,0.4c0.4,0.2,0.7,0.5,1,0.8
		c2.4,2.2,2,5.1,0.6,7c-1.4,1.9-4.1,3.1-6.8,1.4c-1.5-0.9-2.7-2.6-3.5-4.9c-0.1-0.4-0.6-0.7-1-0.7H49.7c-0.5,0-0.9,0.3-1,0.7
		c-0.8,2.3-1.9,4-3.5,4.9C42.4,59.7,39.8,58.6,38.4,56.7z"/>
</g>
</svg>
