<?xml version="1.0" encoding="utf-8"?>
<!-- Generator: Adobe Illustrator 24.1.0, SVG Export Plug-In . SVG Version: 6.00 Build 0)  -->
<svg version="1.1" id="Layer_1" xmlns="http://www.w3.org/2000/svg" xmlns:xlink="http://www.w3.org/1999/xlink" x="0px" y="0px"
	 viewBox="0 0 120 150" style="enable-background:new 0 0 120 150;" xml:space="preserve">
<style type="text/css">
	.st0{clip-path:url(#SVGID_2_);}
	.st1{clip-path:url(#SVGID_4_);}
	.st2{fill:#A9E3ED;}
	.st3{clip-path:url(#SVGID_6_);fill:#A9E3ED;}
	.st4{clip-path:url(#SVGID_8_);}
	.st5{fill:none;}
</style>
<g>
	<g>
		<defs>
			<rect id="SVGID_1_" y="0" width="120" height="150"/>
		</defs>
		<clipPath id="SVGID_2_">
			<use xlink:href="#SVGID_1_"  style="overflow:visible;"/>
		</clipPath>
		<g class="st0">
			<g>
				<defs>
					<rect id="SVGID_3_" x="90.4" y="-27.8" width="66.2" height="151.1"/>
				</defs>
				<clipPath id="SVGID_4_">
					<use xlink:href="#SVGID_3_"  style="overflow:visible;"/>
				</clipPath>
				<g class="st1">
					<g>
						<path class="st2" d="M93.7-13.8h6.6c0.6,0,1.1-0.5,1.1-1.1l0,0c0-0.6-0.5-1.1-1.1-1.1h-6.6c-0.6,0-1.1,0.5-1.1,1.1l0,0
							C92.6-14.3,93.1-13.8,93.7-13.8z"/>
						<path class="st2" d="M93.7-33.1h6.6c0.6,0,1.1-0.5,1.1-1.1l0,0c0-0.6-0.5-1.1-1.1-1.1h-6.6c-0.6,0-1.1,0.5-1.1,1.1l0,0
							C92.6-33.6,93.1-33.1,93.7-33.1z"/>
						<path class="st2" d="M93.7,5.4h6.6c0.6,0,1.1-0.5,1.1-1.1l0,0c0-0.6-0.5-1.1-1.1-1.1h-6.6c-0.6,0-1.1,0.5-1.1,1.1l0,0
							C92.6,4.9,93.1,5.4,93.7,5.4z"/>
						<path class="st2" d="M93.7,24.6h6.6c0.6,0,1.1-0.5,1.1-1.1l0,0c0-0.6-0.5-1.1-1.1-1.1h-6.6c-0.6,0-1.1,0.5-1.1,1.1l0,0
							C92.6,24.1,93.1,24.6,93.7,24.6z"/>
						<path class="st2" d="M93.7,43.8h6.6c0.6,0,1.1-0.5,1.1-1.1l0,0c0-0.6-0.5-1.1-1.1-1.1h-6.6c-0.6,0-1.1,0.5-1.1,1.1l0,0
							C92.6,43.3,93.1,43.8,93.7,43.8z"/>
						<path class="st2" d="M93.7,63.1h6.6c0.6,0,1.1-0.5,1.1-1.1l0,0c0-0.6-0.5-1.1-1.1-1.1h-6.6c-0.6,0-1.1,0.5-1.1,1.1l0,0
							C92.6,62.6,93.1,63.1,93.7,63.1z"/>
						<path class="st2" d="M93.7,82.3h6.6c0.6,0,1.1-0.5,1.1-1.1l0,0c0-0.6-0.5-1.1-1.1-1.1h-6.6c-0.6,0-1.1,0.5-1.1,1.1l0,0
							C92.6,81.8,93.1,82.3,93.7,82.3z"/>
						<path class="st2" d="M93.7,101.5h6.6c0.6,0,1.1-0.5,1.1-1.1l0,0c0-0.6-0.5-1.1-1.1-1.1h-6.6c-0.6,0-1.1,0.5-1.1,1.1l0,0
							C92.6,101,93.1,101.5,93.7,101.5z"/>
						<path class="st2" d="M93.7,120.7h6.6c0.6,0,1.1-0.5,1.1-1.1l0,0c0-0.6-0.5-1.1-1.1-1.1h-6.6c-0.6,0-1.1,0.5-1.1,1.1l0,0
							C92.6,120.2,93.1,120.7,93.7,120.7z"/>
						<path class="st2" d="M115.1-3.9h6.6c0.6,0,1.1-0.5,1.1-1.1l0,0c0-0.6-0.5-1.1-1.1-1.1h-6.6c-0.6,0-1.1,0.5-1.1,1.1l0,0
							C113.9-4.4,114.4-3.9,115.1-3.9z"/>
						<path class="st2" d="M115.1-23.2h6.6c0.6,0,1.1-0.5,1.1-1.1l0,0c0-0.6-0.5-1.1-1.1-1.1h-6.6c-0.6,0-1.1,0.5-1.1,1.1l0,0
							C113.9-23.7,114.4-23.2,115.1-23.2z"/>
						<path class="st2" d="M115.1,15.3h6.6c0.6,0,1.1-0.5,1.1-1.1l0,0c0-0.6-0.5-1.1-1.1-1.1h-6.6c-0.6,0-1.1,0.5-1.1,1.1l0,0
							C113.9,14.8,114.4,15.3,115.1,15.3z"/>
						<path class="st2" d="M115.1,34.5h6.6c0.6,0,1.1-0.5,1.1-1.1l0,0c0-0.6-0.5-1.1-1.1-1.1h-6.6c-0.6,0-1.1,0.5-1.1,1.1l0,0
							C113.9,34,114.4,34.5,115.1,34.5z"/>
						<path class="st2" d="M115.1,53.7h6.6c0.6,0,1.1-0.5,1.1-1.1l0,0c0-0.6-0.5-1.1-1.1-1.1h-6.6c-0.6,0-1.1,0.5-1.1,1.1l0,0
							C113.9,53.2,114.4,53.7,115.1,53.7z"/>
						<path class="st2" d="M115.1,73h6.6c0.6,0,1.1-0.5,1.1-1.1l0,0c0-0.6-0.5-1.1-1.1-1.1h-6.6c-0.6,0-1.1,0.5-1.1,1.1l0,0
							C113.9,72.5,114.4,73,115.1,73z"/>
						<path class="st2" d="M115.1,92.2h6.6c0.6,0,1.1-0.5,1.1-1.1l0,0c0-0.6-0.5-1.1-1.1-1.1h-6.6c-0.6,0-1.1,0.5-1.1,1.1l0,0
							C113.9,91.7,114.4,92.2,115.1,92.2z"/>
						<path class="st2" d="M115.1,111.4h6.6c0.6,0,1.1-0.5,1.1-1.1l0,0c0-0.6-0.5-1.1-1.1-1.1h-6.6c-0.6,0-1.1,0.5-1.1,1.1l0,0
							C113.9,110.9,114.4,111.4,115.1,111.4z"/>
						<path class="st2" d="M115.1,130.6h6.6c0.6,0,1.1-0.5,1.1-1.1l0,0c0-0.6-0.5-1.1-1.1-1.1h-6.6c-0.6,0-1.1,0.5-1.1,1.1l0,0
							C113.9,130.1,114.4,130.6,115.1,130.6z"/>
						<path class="st2" d="M136.4-13.8h6.6c0.6,0,1.1-0.5,1.1-1.1l0,0c0-0.6-0.5-1.1-1.1-1.1h-6.6c-0.6,0-1.1,0.5-1.1,1.1l0,0
							C135.3-14.3,135.8-13.8,136.4-13.8z"/>
						<path class="st2" d="M136.4-33.1h6.6c0.6,0,1.1-0.5,1.1-1.1l0,0c0-0.6-0.5-1.1-1.1-1.1h-6.6c-0.6,0-1.1,0.5-1.1,1.1l0,0
							C135.3-33.6,135.8-33.1,136.4-33.1z"/>
						<path class="st2" d="M136.4,5.4h6.6c0.6,0,1.1-0.5,1.1-1.1l0,0c0-0.6-0.5-1.1-1.1-1.1h-6.6c-0.6,0-1.1,0.5-1.1,1.1l0,0
							C135.3,4.9,135.8,5.4,136.4,5.4z"/>
						<path class="st2" d="M136.4,24.6h6.6c0.6,0,1.1-0.5,1.1-1.1l0,0c0-0.6-0.5-1.1-1.1-1.1h-6.6c-0.6,0-1.1,0.5-1.1,1.1l0,0
							C135.3,24.1,135.8,24.6,136.4,24.6z"/>
						<path class="st2" d="M136.4,43.8h6.6c0.6,0,1.1-0.5,1.1-1.1l0,0c0-0.6-0.5-1.1-1.1-1.1h-6.6c-0.6,0-1.1,0.5-1.1,1.1l0,0
							C135.3,43.3,135.8,43.8,136.4,43.8z"/>
						<path class="st2" d="M136.4,63.1h6.6c0.6,0,1.1-0.5,1.1-1.1l0,0c0-0.6-0.5-1.1-1.1-1.1h-6.6c-0.6,0-1.1,0.5-1.1,1.1l0,0
							C135.3,62.6,135.8,63.1,136.4,63.1z"/>
						<path class="st2" d="M136.4,82.3h6.6c0.6,0,1.1-0.5,1.1-1.1l0,0c0-0.6-0.5-1.1-1.1-1.1h-6.6c-0.6,0-1.1,0.5-1.1,1.1l0,0
							C135.3,81.8,135.8,82.3,136.4,82.3z"/>
						<path class="st2" d="M136.4,101.5h6.6c0.6,0,1.1-0.5,1.1-1.1l0,0c0-0.6-0.5-1.1-1.1-1.1h-6.6c-0.6,0-1.1,0.5-1.1,1.1l0,0
							C135.3,101,135.8,101.5,136.4,101.5z"/>
						<path class="st2" d="M136.4,120.7h6.6c0.6,0,1.1-0.5,1.1-1.1l0,0c0-0.6-0.5-1.1-1.1-1.1h-6.6c-0.6,0-1.1,0.5-1.1,1.1l0,0
							C135.3,120.2,135.8,120.7,136.4,120.7z"/>
						<path class="st2" d="M157.7-3.9h6.6c0.6,0,1.1-0.5,1.1-1.1l0,0c0-0.6-0.5-1.1-1.1-1.1h-6.6c-0.6,0-1.1,0.5-1.1,1.1l0,0
							C156.6-4.4,157.1-3.9,157.7-3.9z"/>
						<path class="st2" d="M157.7-23.2h6.6c0.6,0,1.1-0.5,1.1-1.1l0,0c0-0.6-0.5-1.1-1.1-1.1h-6.6c-0.6,0-1.1,0.5-1.1,1.1l0,0
							C156.6-23.7,157.1-23.2,157.7-23.2z"/>
						<path class="st2" d="M157.7,15.3h6.6c0.6,0,1.1-0.5,1.1-1.1l0,0c0-0.6-0.5-1.1-1.1-1.1h-6.6c-0.6,0-1.1,0.5-1.1,1.1l0,0
							C156.6,14.8,157.1,15.3,157.7,15.3z"/>
						<path class="st2" d="M157.7,34.5h6.6c0.6,0,1.1-0.5,1.1-1.1l0,0c0-0.6-0.5-1.1-1.1-1.1h-6.6c-0.6,0-1.1,0.5-1.1,1.1l0,0
							C156.6,34,157.1,34.5,157.7,34.5z"/>
						<path class="st2" d="M157.7,53.7h6.6c0.6,0,1.1-0.5,1.1-1.1l0,0c0-0.6-0.5-1.1-1.1-1.1h-6.6c-0.6,0-1.1,0.5-1.1,1.1l0,0
							C156.6,53.2,157.1,53.7,157.7,53.7z"/>
						<path class="st2" d="M157.7,73h6.6c0.6,0,1.1-0.5,1.1-1.1l0,0c0-0.6-0.5-1.1-1.1-1.1h-6.6c-0.6,0-1.1,0.5-1.1,1.1l0,0
							C156.6,72.5,157.1,73,157.7,73z"/>
						<path class="st2" d="M157.7,92.2h6.6c0.6,0,1.1-0.5,1.1-1.1l0,0c0-0.6-0.5-1.1-1.1-1.1h-6.6c-0.6,0-1.1,0.5-1.1,1.1l0,0
							C156.6,91.7,157.1,92.2,157.7,92.2z"/>
						<path class="st2" d="M157.7,111.4h6.6c0.6,0,1.1-0.5,1.1-1.1l0,0c0-0.6-0.5-1.1-1.1-1.1h-6.6c-0.6,0-1.1,0.5-1.1,1.1l0,0
							C156.6,110.9,157.1,111.4,157.7,111.4z"/>
						<path class="st2" d="M157.7,130.6h6.6c0.6,0,1.1-0.5,1.1-1.1l0,0c0-0.6-0.5-1.1-1.1-1.1h-6.6c-0.6,0-1.1,0.5-1.1,1.1l0,0
							C156.6,130.1,157.1,130.6,157.7,130.6z"/>
						<path class="st2" d="M179.1-13.8h6.6c0.6,0,1.1-0.5,1.1-1.1l0,0c0-0.6-0.5-1.1-1.1-1.1h-6.6c-0.6,0-1.1,0.5-1.1,1.1l0,0
							C177.9-14.3,178.4-13.8,179.1-13.8z"/>
						<path class="st2" d="M179.1-33.1h6.6c0.6,0,1.1-0.5,1.1-1.1l0,0c0-0.6-0.5-1.1-1.1-1.1h-6.6c-0.6,0-1.1,0.5-1.1,1.1l0,0
							C177.9-33.6,178.4-33.1,179.1-33.1z"/>
						<path class="st2" d="M179.1,5.4h6.6c0.6,0,1.1-0.5,1.1-1.1l0,0c0-0.6-0.5-1.1-1.1-1.1h-6.6c-0.6,0-1.1,0.5-1.1,1.1l0,0
							C177.9,4.9,178.4,5.4,179.1,5.4z"/>
						<path class="st2" d="M179.1,24.6h6.6c0.6,0,1.1-0.5,1.1-1.1l0,0c0-0.6-0.5-1.1-1.1-1.1h-6.6c-0.6,0-1.1,0.5-1.1,1.1l0,0
							C177.9,24.1,178.4,24.6,179.1,24.6z"/>
						<path class="st2" d="M179.1,43.8h6.6c0.6,0,1.1-0.5,1.1-1.1l0,0c0-0.6-0.5-1.1-1.1-1.1h-6.6c-0.6,0-1.1,0.5-1.1,1.1l0,0
							C177.9,43.3,178.4,43.8,179.1,43.8z"/>
						<path class="st2" d="M179.1,63.1h6.6c0.6,0,1.1-0.5,1.1-1.1l0,0c0-0.6-0.5-1.1-1.1-1.1h-6.6c-0.6,0-1.1,0.5-1.1,1.1l0,0
							C177.9,62.6,178.4,63.1,179.1,63.1z"/>
						<path class="st2" d="M179.1,82.3h6.6c0.6,0,1.1-0.5,1.1-1.1l0,0c0-0.6-0.5-1.1-1.1-1.1h-6.6c-0.6,0-1.1,0.5-1.1,1.1l0,0
							C177.9,81.8,178.4,82.3,179.1,82.3z"/>
						<path class="st2" d="M179.1,101.5h6.6c0.6,0,1.1-0.5,1.1-1.1l0,0c0-0.6-0.5-1.1-1.1-1.1h-6.6c-0.6,0-1.1,0.5-1.1,1.1l0,0
							C177.9,101,178.4,101.5,179.1,101.5z"/>
						<path class="st2" d="M179.1,120.7h6.6c0.6,0,1.1-0.5,1.1-1.1l0,0c0-0.6-0.5-1.1-1.1-1.1h-6.6c-0.6,0-1.1,0.5-1.1,1.1l0,0
							C177.9,120.2,178.4,120.7,179.1,120.7z"/>
						<path class="st2" d="M200.4-3.9h6.6c0.6,0,1.1-0.5,1.1-1.1l0,0c0-0.6-0.5-1.1-1.1-1.1h-6.6c-0.6,0-1.1,0.5-1.1,1.1l0,0
							C199.3-4.4,199.8-3.9,200.4-3.9z"/>
						<path class="st2" d="M200.4-23.2h6.6c0.6,0,1.1-0.5,1.1-1.1l0,0c0-0.6-0.5-1.1-1.1-1.1h-6.6c-0.6,0-1.1,0.5-1.1,1.1l0,0
							C199.3-23.7,199.8-23.2,200.4-23.2z"/>
						<path class="st2" d="M200.4,15.3h6.6c0.6,0,1.1-0.5,1.1-1.1l0,0c0-0.6-0.5-1.1-1.1-1.1h-6.6c-0.6,0-1.1,0.5-1.1,1.1l0,0
							C199.3,14.8,199.8,15.3,200.4,15.3z"/>
						<path class="st2" d="M200.4,34.5h6.6c0.6,0,1.1-0.5,1.1-1.1l0,0c0-0.6-0.5-1.1-1.1-1.1h-6.6c-0.6,0-1.1,0.5-1.1,1.1l0,0
							C199.3,34,199.8,34.5,200.4,34.5z"/>
						<path class="st2" d="M200.4,53.7h6.6c0.6,0,1.1-0.5,1.1-1.1l0,0c0-0.6-0.5-1.1-1.1-1.1h-6.6c-0.6,0-1.1,0.5-1.1,1.1l0,0
							C199.3,53.2,199.8,53.7,200.4,53.7z"/>
						<path class="st2" d="M200.4,73h6.6c0.6,0,1.1-0.5,1.1-1.1l0,0c0-0.6-0.5-1.1-1.1-1.1h-6.6c-0.6,0-1.1,0.5-1.1,1.1l0,0
							C199.3,72.5,199.8,73,200.4,73z"/>
						<path class="st2" d="M200.4,92.2h6.6c0.6,0,1.1-0.5,1.1-1.1l0,0c0-0.6-0.5-1.1-1.1-1.1h-6.6c-0.6,0-1.1,0.5-1.1,1.1l0,0
							C199.3,91.7,199.8,92.2,200.4,92.2z"/>
						<path class="st2" d="M200.4,111.4h6.6c0.6,0,1.1-0.5,1.1-1.1l0,0c0-0.6-0.5-1.1-1.1-1.1h-6.6c-0.6,0-1.1,0.5-1.1,1.1l0,0
							C199.3,110.9,199.8,111.4,200.4,111.4z"/>
						<path class="st2" d="M200.4,130.6h6.6c0.6,0,1.1-0.5,1.1-1.1l0,0c0-0.6-0.5-1.1-1.1-1.1h-6.6c-0.6,0-1.1,0.5-1.1,1.1l0,0
							C199.3,130.1,199.8,130.6,200.4,130.6z"/>
					</g>
					<path class="st2" d="M98.2-11.6v-6.6c0-0.6-0.5-1.1-1.1-1.1l0,0c-0.6,0-1.1,0.5-1.1,1.1v6.6c0,0.6,0.5,1.1,1.1,1.1l0,0
						C97.7-10.5,98.2-11,98.2-11.6z"/>
					<path class="st2" d="M98.2-30.9v-6.6c0-0.6-0.5-1.1-1.1-1.1l0,0c-0.6,0-1.1,0.5-1.1,1.1v6.6c0,0.6,0.5,1.1,1.1,1.1l0,0
						C97.7-29.7,98.2-30.2,98.2-30.9z"/>
					<path class="st2" d="M98.2,26.8v-6.6c0-0.6-0.5-1.1-1.1-1.1l0,0c-0.6,0-1.1,0.5-1.1,1.1v6.6c0,0.6,0.5,1.1,1.1,1.1l0,0
						C97.7,27.9,98.2,27.4,98.2,26.8z"/>
					<path class="st2" d="M98.2,7.9V1.2c0-0.6-0.5-1.1-1.1-1.1l0,0c-0.6,0-1.1,0.5-1.1,1.1v6.6c0,0.6,0.5,1.1,1.1,1.1l0,0
						C97.7,9,98.2,8.5,98.2,7.9z"/>
					<path class="st2" d="M98.2,65.1v-6.6c0-0.6-0.5-1.1-1.1-1.1l0,0c-0.6,0-1.1,0.5-1.1,1.1v6.6c0,0.6,0.5,1.1,1.1,1.1l0,0
						C97.7,66.2,98.2,65.7,98.2,65.1z"/>
					<path class="st2" d="M98.2,45.9v-6.6c0-0.6-0.5-1.1-1.1-1.1l0,0c-0.6,0-1.1,0.5-1.1,1.1v6.6c0,0.6,0.5,1.1,1.1,1.1l0,0
						C97.7,47,98.2,46.5,98.2,45.9z"/>
					<path class="st2" d="M98.2,103.5v-6.6c0-0.6-0.5-1.1-1.1-1.1l0,0c-0.6,0-1.1,0.5-1.1,1.1v6.6c0,0.6,0.5,1.1,1.1,1.1l0,0
						C97.7,104.7,98.2,104.2,98.2,103.5z"/>
					<path class="st2" d="M98.2,122.9v-6.6c0-0.6-0.5-1.1-1.1-1.1l0,0c-0.6,0-1.1,0.5-1.1,1.1v6.6c0,0.6,0.5,1.1,1.1,1.1l0,0
						C97.7,124.1,98.2,123.6,98.2,122.9z"/>
					<path class="st2" d="M98.2,84.6V78c0-0.6-0.5-1.1-1.1-1.1l0,0c-0.6,0-1.1,0.5-1.1,1.1v6.6c0,0.6,0.5,1.1,1.1,1.1l0,0
						C97.7,85.7,98.2,85.2,98.2,84.6z"/>
					<path class="st2" d="M119.5-1.7v-6.6c0-0.6-0.5-1.1-1.1-1.1l0,0c-0.6,0-1.1,0.5-1.1,1.1v6.6c0,0.6,0.5,1.1,1.1,1.1l0,0
						C119-0.6,119.5-1.1,119.5-1.7z"/>
					<path class="st2" d="M119.5-21v-6.6c0-0.6-0.5-1.1-1.1-1.1l0,0c-0.6,0-1.1,0.5-1.1,1.1v6.6c0,0.6,0.5,1.1,1.1,1.1l0,0
						C119-19.8,119.5-20.3,119.5-21z"/>
					<path class="st2" d="M119.5,36.7v-6.6c0-0.6-0.5-1.1-1.1-1.1l0,0c-0.6,0-1.1,0.5-1.1,1.1v6.6c0,0.6,0.5,1.1,1.1,1.1l0,0
						C119,37.8,119.5,37.3,119.5,36.7z"/>
					<path class="st2" d="M119.5,17.8v-6.6c0-0.6-0.5-1.1-1.1-1.1l0,0c-0.6,0-1.1,0.5-1.1,1.1v6.6c0,0.6,0.5,1.1,1.1,1.1l0,0
						C119,18.9,119.5,18.4,119.5,17.8z"/>
					<path class="st2" d="M119.5,75v-6.6c0-0.6-0.5-1.1-1.1-1.1l0,0c-0.6,0-1.1,0.5-1.1,1.1V75c0,0.6,0.5,1.1,1.1,1.1l0,0
						C119,76.1,119.5,75.6,119.5,75z"/>
					<path class="st2" d="M119.5,55.7v-6.6c0-0.6-0.5-1.1-1.1-1.1l0,0c-0.6,0-1.1,0.5-1.1,1.1v6.6c0,0.6,0.5,1.1,1.1,1.1l0,0
						C119,56.9,119.5,56.4,119.5,55.7z"/>
					<path class="st2" d="M119.5,113.4v-6.6c0-0.6-0.5-1.1-1.1-1.1l0,0c-0.6,0-1.1,0.5-1.1,1.1v6.6c0,0.6,0.5,1.1,1.1,1.1l0,0
						C119,114.6,119.5,114,119.5,113.4z"/>
					<path class="st2" d="M119.5,132.8v-6.6c0-0.6-0.5-1.1-1.1-1.1l0,0c-0.6,0-1.1,0.5-1.1,1.1v6.6c0,0.6,0.5,1.1,1.1,1.1l0,0
						C119,134,119.5,133.5,119.5,132.8z"/>
					<path class="st2" d="M119.5,94.5v-6.6c0-0.6-0.5-1.1-1.1-1.1l0,0c-0.6,0-1.1,0.5-1.1,1.1v6.6c0,0.6,0.5,1.1,1.1,1.1l0,0
						C119,95.6,119.5,95.1,119.5,94.5z"/>
					<path class="st2" d="M140.9-11.6v-6.6c0-0.6-0.5-1.1-1.1-1.1l0,0c-0.6,0-1.1,0.5-1.1,1.1v6.6c0,0.6,0.5,1.1,1.1,1.1l0,0
						C140.3-10.5,140.9-11,140.9-11.6z"/>
					<path class="st2" d="M140.9-30.9v-6.6c0-0.6-0.5-1.1-1.1-1.1l0,0c-0.6,0-1.1,0.5-1.1,1.1v6.6c0,0.6,0.5,1.1,1.1,1.1l0,0
						C140.3-29.7,140.9-30.2,140.9-30.9z"/>
					<path class="st2" d="M140.9,26.8v-6.6c0-0.6-0.5-1.1-1.1-1.1l0,0c-0.6,0-1.1,0.5-1.1,1.1v6.6c0,0.6,0.5,1.1,1.1,1.1l0,0
						C140.3,27.9,140.9,27.4,140.9,26.8z"/>
					<path class="st2" d="M140.9,7.9V1.2c0-0.6-0.5-1.1-1.1-1.1l0,0c-0.6,0-1.1,0.5-1.1,1.1v6.6c0,0.6,0.5,1.1,1.1,1.1l0,0
						C140.3,9,140.9,8.5,140.9,7.9z"/>
					<path class="st2" d="M140.9,65.1v-6.6c0-0.6-0.5-1.1-1.1-1.1l0,0c-0.6,0-1.1,0.5-1.1,1.1v6.6c0,0.6,0.5,1.1,1.1,1.1l0,0
						C140.3,66.2,140.9,65.7,140.9,65.1z"/>
					<path class="st2" d="M140.9,45.9v-6.6c0-0.6-0.5-1.1-1.1-1.1l0,0c-0.6,0-1.1,0.5-1.1,1.1v6.6c0,0.6,0.5,1.1,1.1,1.1l0,0
						C140.3,47,140.9,46.5,140.9,45.9z"/>
					<path class="st2" d="M140.9,103.5v-6.6c0-0.6-0.5-1.1-1.1-1.1l0,0c-0.6,0-1.1,0.5-1.1,1.1v6.6c0,0.6,0.5,1.1,1.1,1.1l0,0
						C140.3,104.7,140.9,104.2,140.9,103.5z"/>
					<path class="st2" d="M140.9,122.9v-6.6c0-0.6-0.5-1.1-1.1-1.1l0,0c-0.6,0-1.1,0.5-1.1,1.1v6.6c0,0.6,0.5,1.1,1.1,1.1l0,0
						C140.3,124.1,140.9,123.6,140.9,122.9z"/>
					<path class="st2" d="M140.9,84.6V78c0-0.6-0.5-1.1-1.1-1.1l0,0c-0.6,0-1.1,0.5-1.1,1.1v6.6c0,0.6,0.5,1.1,1.1,1.1l0,0
						C140.3,85.7,140.9,85.2,140.9,84.6z"/>
					<path class="st2" d="M162.2-1.9v-6.6c0-0.6-0.5-1.1-1.1-1.1l0,0c-0.6,0-1.1,0.5-1.1,1.1v6.6c0,0.6,0.5,1.1,1.1,1.1l0,0
						C161.7-0.8,162.2-1.3,162.2-1.9z"/>
					<path class="st2" d="M162.2-21.1v-6.6c0-0.6-0.5-1.1-1.1-1.1l0,0c-0.6,0-1.1,0.5-1.1,1.1v6.6c0,0.6,0.5,1.1,1.1,1.1l0,0
						C161.7-20,162.2-20.5,162.2-21.1z"/>
					<path class="st2" d="M162.2,36.5v-6.6c0-0.6-0.5-1.1-1.1-1.1l0,0c-0.6,0-1.1,0.5-1.1,1.1v6.6c0,0.6,0.5,1.1,1.1,1.1l0,0
						C161.7,37.7,162.2,37.2,162.2,36.5z"/>
					<path class="st2" d="M162.2,17.6V11c0-0.6-0.5-1.1-1.1-1.1l0,0c-0.6,0-1.1,0.5-1.1,1.1v6.6c0,0.6,0.5,1.1,1.1,1.1l0,0
						C161.7,18.7,162.2,18.2,162.2,17.6z"/>
					<path class="st2" d="M162.2,74.8v-6.6c0-0.6-0.5-1.1-1.1-1.1l0,0c-0.6,0-1.1,0.5-1.1,1.1v6.6c0,0.6,0.5,1.1,1.1,1.1l0,0
						C161.7,75.9,162.2,75.4,162.2,74.8z"/>
					<path class="st2" d="M162.2,55.6V49c0-0.6-0.5-1.1-1.1-1.1l0,0c-0.6,0-1.1,0.5-1.1,1.1v6.6c0,0.6,0.5,1.1,1.1,1.1l0,0
						C161.7,56.7,162.2,56.2,162.2,55.6z"/>
					<path class="st2" d="M162.2,113.2v-6.6c0-0.6-0.5-1.1-1.1-1.1l0,0c-0.6,0-1.1,0.5-1.1,1.1v6.6c0,0.6,0.5,1.1,1.1,1.1l0,0
						C161.7,114.4,162.2,113.9,162.2,113.2z"/>
					<path class="st2" d="M162.2,132.6V126c0-0.6-0.5-1.1-1.1-1.1l0,0c-0.6,0-1.1,0.5-1.1,1.1v6.6c0,0.6,0.5,1.1,1.1,1.1l0,0
						C161.7,133.8,162.2,133.3,162.2,132.6z"/>
					<path class="st2" d="M162.2,94.3v-6.6c0-0.6-0.5-1.1-1.1-1.1l0,0c-0.6,0-1.1,0.5-1.1,1.1v6.6c0,0.6,0.5,1.1,1.1,1.1l0,0
						C161.7,95.4,162.2,94.9,162.2,94.3z"/>
					<path class="st2" d="M183.5-11.8v-6.6c0-0.6-0.5-1.1-1.1-1.1l0,0c-0.6,0-1.1,0.5-1.1,1.1v6.6c0,0.6,0.5,1.1,1.1,1.1l0,0
						C183-10.7,183.5-11.2,183.5-11.8z"/>
					<path class="st2" d="M183.5-31v-6.6c0-0.6-0.5-1.1-1.1-1.1l0,0c-0.6,0-1.1,0.5-1.1,1.1v6.6c0,0.6,0.5,1.1,1.1,1.1l0,0
						C183-29.9,183.5-30.4,183.5-31z"/>
					<path class="st2" d="M183.5,26.6V20c0-0.6-0.5-1.1-1.1-1.1l0,0c-0.6,0-1.1,0.5-1.1,1.1v6.6c0,0.6,0.5,1.1,1.1,1.1l0,0
						C183,27.8,183.5,27.3,183.5,26.6z"/>
					<path class="st2" d="M183.5,7.7V1c0-0.6-0.5-1.1-1.1-1.1l0,0c-0.6,0-1.1,0.5-1.1,1.1v6.6c0,0.6,0.5,1.1,1.1,1.1l0,0
						C183,8.8,183.5,8.3,183.5,7.7z"/>
					<path class="st2" d="M183.5,64.9v-6.6c0-0.6-0.5-1.1-1.1-1.1l0,0c-0.6,0-1.1,0.5-1.1,1.1v6.6c0,0.6,0.5,1.1,1.1,1.1l0,0
						C183,66,183.5,65.5,183.5,64.9z"/>
					<path class="st2" d="M183.5,45.7V39c0-0.6-0.5-1.1-1.1-1.1l0,0c-0.6,0-1.1,0.5-1.1,1.1v6.6c0,0.6,0.5,1.1,1.1,1.1l0,0
						C183,46.8,183.5,46.3,183.5,45.7z"/>
					<path class="st2" d="M183.5,103.3v-6.6c0-0.6-0.5-1.1-1.1-1.1l0,0c-0.6,0-1.1,0.5-1.1,1.1v6.6c0,0.6,0.5,1.1,1.1,1.1l0,0
						C183,104.5,183.5,104,183.5,103.3z"/>
					<path class="st2" d="M183.5,122.8v-6.6c0-0.6-0.5-1.1-1.1-1.1l0,0c-0.6,0-1.1,0.5-1.1,1.1v6.6c0,0.6,0.5,1.1,1.1,1.1l0,0
						C183,123.9,183.5,123.4,183.5,122.8z"/>
					<path class="st2" d="M183.5,84.4v-6.6c0-0.6-0.5-1.1-1.1-1.1l0,0c-0.6,0-1.1,0.5-1.1,1.1v6.6c0,0.6,0.5,1.1,1.1,1.1l0,0
						C183,85.5,183.5,85,183.5,84.4z"/>
					<path class="st2" d="M204.8-2.1v-6.6c0-0.6-0.5-1.1-1.1-1.1l0,0c-0.6,0-1.1,0.5-1.1,1.1v6.6c0,0.6,0.5,1.1,1.1,1.1l0,0
						C204.3-1,204.8-1.5,204.8-2.1z"/>
					<path class="st2" d="M204.8-21.3V-28c0-0.6-0.5-1.1-1.1-1.1l0,0c-0.6,0-1.1,0.5-1.1,1.1v6.6c0,0.6,0.5,1.1,1.1,1.1l0,0
						C204.3-20.2,204.8-20.7,204.8-21.3z"/>
					<path class="st2" d="M204.8,36.3v-6.6c0-0.6-0.5-1.1-1.1-1.1l0,0c-0.6,0-1.1,0.5-1.1,1.1v6.6c0,0.6,0.5,1.1,1.1,1.1l0,0
						C204.3,37.5,204.8,37,204.8,36.3z"/>
					<path class="st2" d="M204.8,17.4v-6.6c0-0.6-0.5-1.1-1.1-1.1l0,0c-0.6,0-1.1,0.5-1.1,1.1v6.6c0,0.6,0.5,1.1,1.1,1.1l0,0
						C204.3,18.5,204.8,18,204.8,17.4z"/>
					<path class="st2" d="M204.8,74.6V68c0-0.6-0.5-1.1-1.1-1.1l0,0c-0.6,0-1.1,0.5-1.1,1.1v6.6c0,0.6,0.5,1.1,1.1,1.1l0,0
						C204.3,75.7,204.8,75.2,204.8,74.6z"/>
					<path class="st2" d="M204.8,55.4v-6.6c0-0.6-0.5-1.1-1.1-1.1l0,0c-0.6,0-1.1,0.5-1.1,1.1v6.6c0,0.6,0.5,1.1,1.1,1.1l0,0
						C204.3,56.5,204.8,56,204.8,55.4z"/>
					<path class="st2" d="M204.8,113.1v-6.6c0-0.6-0.5-1.1-1.1-1.1l0,0c-0.6,0-1.1,0.5-1.1,1.1v6.6c0,0.6,0.5,1.1,1.1,1.1l0,0
						C204.3,114.2,204.8,113.7,204.8,113.1z"/>
					<path class="st2" d="M204.8,132.5v-6.6c0-0.6-0.5-1.1-1.1-1.1l0,0c-0.6,0-1.1,0.5-1.1,1.1v6.6c0,0.6,0.5,1.1,1.1,1.1l0,0
						C204.3,133.6,204.8,133.1,204.8,132.5z"/>
					<path class="st2" d="M204.8,94.1v-6.6c0-0.6-0.5-1.1-1.1-1.1l0,0c-0.6,0-1.1,0.5-1.1,1.1v6.6c0,0.6,0.5,1.1,1.1,1.1l0,0
						C204.3,95.2,204.8,94.7,204.8,94.1z"/>
				</g>
			</g>
		</g>
	</g>
	<g>
		<defs>
			<rect id="SVGID_5_" y="0" width="120" height="150"/>
		</defs>
		<clipPath id="SVGID_6_">
			<use xlink:href="#SVGID_5_"  style="overflow:visible;"/>
		</clipPath>
		<circle class="st3" cx="12.4" cy="102.7" r="34.5"/>
	</g>
	<g>
		<defs>
			<rect id="SVGID_7_" y="0" width="120" height="150"/>
		</defs>
		<clipPath id="SVGID_8_">
			<use xlink:href="#SVGID_7_"  style="overflow:visible;"/>
		</clipPath>
		<g class="st4">
			<path d="M69.7,118c0.2,0.2,0.5,0.4,0.8,0.4h7.1c0.6,0,1.1-0.5,1.1-1.1v-14.3h2.2c0.6,0,1.1-0.5,1.1-1.1v-9.1h16.9
				c3.5,0,6.4-2.9,6.4-6.4V57.2c0-3.4-2.9-6.2-6.2-6.2h-8.2c-0.6,0-1.1,0.5-1.1,1.1c0,0.6,0.5,1.1,1.1,1.1h8.3
				c2.2,0,4.1,1.8,4.1,4.1v29.1c0,2.3-1.9,4.2-4.2,4.2H59.3V66.8c0-5.5-2.5-10.1-7.1-13.1l-0.8-0.6h12.4c0.6,0,1-0.5,1-1.1
				c0-0.6-0.4-1-1-1.1l-0.1,0H43.2c-6.4,0-11.7,3.5-14.1,9.4v0.2H16.7c-0.6,0-1.1,0.5-1.1,1.1v23c0,0.6,0.5,1.1,1.1,1.1h10.6v5.9
				c0,0.6,0.5,1.1,1.1,1.1h37.8v9.1c0,0.6,0.5,1.1,1.1,1.1h2.2v14.3C69.4,117.5,69.5,117.7,69.7,118z M47.1,62.8L33.5,73.3l-0.2-0.2
				L19.9,62.8H47.1z M17.7,83.6V63.9l15.1,11.7c0.3,0.3,1,0.2,1.4,0l15-11.7v19.6H17.7z M57,90.5H29.4v-4.8h20.8
				c0.6,0,1.1-0.5,1.1-1.1l0-23.1c-0.1-0.4-0.2-0.9-1-0.9H31.1l0.2-0.5c2.3-4.4,6.6-6.9,11.7-6.9c6.8,0,14,4.8,14,13.6V90.5z
				 M76.5,116.1h-4.8v-13.2h4.8V116.1z M68.3,100.8v-8h11.3v8H68.3z"/>
			<path d="M69.6,63.9c-2.8,0-5.1,2.3-5.1,5.1c0,2.8,2.3,5.1,5.1,5.1s5.1-2.3,5.1-5.1C74.7,66.1,72.5,63.9,69.6,63.9z M69.6,72
				c-1.6,0-3-1.4-3-3c0-1.6,1.4-3,3-3c1.6,0,3,1.3,3,3C72.5,70.6,71.1,72,69.6,72z"/>
			<path d="M86.6,51.6V38.8c0-0.6-0.5-1.1-1.1-1.1h-16c-0.1,0-0.2,0-0.3,0l-0.1,0.1h-0.7v22.6h2.2v-7.6h14.9
				C86.2,52.6,86.6,52.2,86.6,51.6z M84.5,50.5H70.6V39.9h13.8V50.5z"/>
			<circle cx="69.6" cy="60.2" r="1.1"/>
		</g>
	</g>
	<rect y="0" class="st5" width="120" height="150"/>
	<path d="M71.2,81.9h-2c-0.7,0-1.2,0.6-1.2,1.2c0,0.7,0.6,1.2,1.2,1.2h2c0.7,0,1.2-0.5,1.2-1.2C72.4,82.4,71.8,81.9,71.2,81.9z"/>
	<rect y="0" class="st5" width="120" height="150"/>
	<path d="M79.6,81.9h-2c-0.7,0-1.2,0.6-1.2,1.2c0,0.7,0.6,1.2,1.2,1.2h2c0.6,0,1.1-0.5,1.2-1.2C80.8,82.4,80.2,81.9,79.6,81.9z"/>
	<rect y="0" class="st5" width="120" height="150"/>
	<path d="M87.9,81.9h-2c-0.7,0-1.2,0.6-1.2,1.2c0,0.7,0.6,1.2,1.2,1.2h2c0.6,0,1.1-0.5,1.2-1.2C89.1,82.4,88.5,81.9,87.9,81.9z"/>
	<rect y="0" class="st5" width="120" height="150"/>
	<path d="M96.2,81.9h-2c-0.7,0-1.2,0.6-1.2,1.2c0,0.7,0.6,1.2,1.2,1.2h2c0.7,0,1.2-0.5,1.2-1.2C97.4,82.4,96.8,81.9,96.2,81.9z"/>
</g>
</svg>
