<?xml version="1.0" encoding="utf-8"?>
<!-- Generator: Adobe Illustrator 24.1.0, SVG Export Plug-In . SVG Version: 6.00 Build 0)  -->
<svg version="1.1" id="Layer_1" xmlns="http://www.w3.org/2000/svg" xmlns:xlink="http://www.w3.org/1999/xlink" x="0px" y="0px"
	 viewBox="0 0 120 150" style="enable-background:new 0 0 120 150;" xml:space="preserve">
<style type="text/css">
	.st0{clip-path:url(#SVGID_1_);fill:#A9E3ED;}
	.st1{clip-path:url(#SVGID_1_);}
	.st2{clip-path:url(#SVGID_2_);}
	.st3{fill:#A9E3ED;}
</style>
<g>
	<defs>
		<rect id="SVGID_6_" width="120" height="150"/>
	</defs>
	<clipPath id="SVGID_1_">
		<use xlink:href="#SVGID_6_"  style="overflow:visible;"/>
	</clipPath>
	<circle class="st0" cx="107" cy="21" r="34.5"/>
	<path class="st1" d="M109.1,86.6c-0.8-2.2-2.1-4.3-4.4-5c-2.1-0.6-6.1-1.1-10.5-1.7c-4.4-0.5-9-1.1-11.8-1.6
		c-2.2-0.7-4.4-1.7-6.1-2.7l0.9-1.1c0.6-0.7-0.1-1.9-1-1.8c-0.3,0-0.7,0.2-0.9,0.4l-1,1.2c-1.3-0.9-2.6-1.9-3.9-3l2-2.4
		c0.6-0.7,0-1.9-1-1.8c-0.3,0-0.7,0.2-0.9,0.4L68.7,70c-0.9-0.9-1.9-1.8-2.8-2.7l1.9-2.7c0.5-0.7-0.2-1.9-1.1-1.7
		c-0.3,0-0.7,0.2-0.8,0.5l-1.6,2.2c-0.9-1-1.9-2-2.7-2.9l1.6-2.6c0.4-0.7-0.3-1.7-1.1-1.7c-0.4,0-0.7,0.3-0.9,0.6l-1.1,1.8
		c-0.9-1-1.8-2-2.6-3l1.1-2.2c0.4-0.7-0.3-1.7-1.1-1.6c-0.4,0-0.8,0.3-1,0.6l-0.7,1.2c-2.6-3-5.3-5.9-8-8.2c-0.3-0.3-0.7-0.2-1-0.3
		v0c-0.2,0-0.5,0.2-0.6,0.3c-1.2,1.2-2.8,2.9-3.7,5c-0.8,1.9-1,4.1-0.2,6.3c-3.1,2.2-6.6,2.9-10.4,2.3c-4-0.6-8.2-2.8-12.1-6
		c-0.6-0.5-1.8-0.1-1.9,0.7c-3.3,13.4-7.3,27.1-8.2,39.9c0,0.3,0.1,0.6,0.3,0.8c3.5,3.3,7.3,4.6,12.7,4.7v-2.3
		c-4.3-0.4-8.2-1.6-10.6-3.7c0.1-0.9,0.2-1.9,0.3-2.8C24.7,93,40.1,96,49.3,96c2.6,0,4.8-0.9,7.1-1.7s4.8-1.6,8.1-1.6
		c2.7,0,5.8,0.8,8.7,1.6c2.9,0.8,5.5,1.7,7.6,1.7c2.3,0,4.8-1.2,9.1-2.6c6.4-1.8,12.2-3.1,17.4-3.9c0.2,1.3,0.4,2.7,0.4,4
		c-2.6,2-6.3,3.1-9,3.8c-5.6,1.6-12.8,3-19.1,3c-15.5-0.3-33.9-0.6-49.4-0.9v2.2c15.5,0.3,33.9,0.6,49.4,0.9
		c7.6-0.1,13.9-1.4,19.8-3.1c3.4-1,6.7-2.1,9.5-3.9c0.6-0.4,1.2-0.9,1.2-1.8C110.2,91.5,109.9,88.9,109.1,86.6z M56.3,59.9
		c0.8,1,1.7,1.9,2.6,2.9l-2.3,3.9c-0.3,0.5-0.1,1.2,0.5,1.5c0.5,0.3,1.3,0.1,1.6-0.4l1.9-3.1c0.9,1,1.7,1.9,2.5,2.8L61.2,70
		c-0.3,0.5-0.2,1.2,0.3,1.5s1.3,0.2,1.6-0.3l1.4-2c0.9,0.9,1.7,1.7,2.6,2.5L66,73.2c-0.4,0.5-0.3,1.2,0.2,1.6
		c0.5,0.4,1.3,0.3,1.6-0.2l1.2-1.4c1.3,1.1,2.6,2.1,3.9,3l-0.8,1c-2.9-0.5-5.8-1.3-8.6-2c-3.1-0.9-5.9-1.9-8.1-2.8
		c-2.1-0.9-3.6-2-3.9-2.3c0-0.1-0.1-0.6,0.1-1.5c0.3-0.9,0.8-2,1.5-3.2C54.2,63.3,55.2,62,56.3,59.9z M19.7,58
		c3.8,2.8,7.8,4.8,11.8,5.5c4.5,0.7,9-0.2,12.8-3.1c0.4-0.3,0.6-0.9,0.3-1.3c-1-1.9-0.8-3.7,0-5.4c0.6-1.3,1.6-2.5,2.5-3.5
		c1,0.9,2.1,2,3.1,3c-6.8,11.2-15.6,15.2-20.7,15.2c-3.1,0-8.3-1-11.5-3.7C18.7,62.1,19.3,59.9,19.7,58z M13.7,82.2
		c1.8-1.6,3.9-3.5,5.4-4.9c1.7-1.5,3.2-2.3,4.5-2.3c0.1,0,0.7,0.1,1.4,0.4c0.7,0.3,1.7,0.7,2.7,1.3c2.1,1.1,4.7,2.8,7.6,4.7
		c4,2.7,8.2,5.9,12.1,9.1C42,88.1,36,86,30.3,84.8c-5.8-1-11.9-1.8-17.1,0.4C13.4,84.2,13.6,83.2,13.7,82.2z M12.5,90.5
		c0.1-0.9,0.2-1.7,0.3-2.6c5.6-2.7,11.5-2.1,17-0.9c6.4,1.3,13.4,3.9,19.4,6.8C40.5,93.8,25.2,90.8,12.5,90.5z M64.5,90.5
		c-4,0-7.5,1.3-11,2.4c-4.7-4.5-11.1-9.4-16.9-13.3c-2.9-2-5.6-3.6-7.8-4.8c-1.1-0.6-2.1-1.1-3-1.5c-0.9-0.3-1.6-0.6-2.3-0.6
		c-2.3,0-4.2,1.3-6.1,2.9c-1,0.9-2.1,1.9-3.1,2.9c0.8-4,1.9-7.9,2.9-11.5c3.8,2.6,8.8,3.5,12.1,3.5c6.2,0,15.3-4.4,22.3-15.7l0,0
		c0.9,1,1.9,2,2.8,3.1c-1.1,1.9-2.4,4.1-3.5,6.3c-0.7,1.3-1.2,2.5-1.6,3.6c-0.3,1.1-0.6,2.2,0,3.2c1.5,1.6,3.4,2.6,5,3.3
		c2.3,1,5.3,2,8.4,2.9c10.4,2.8,21.2,3.6,31,4.9c1.8,0.2,3.4,0.4,4.9,0.7c-4,0.7-8.4,1.1-12.4,1.9c-2.9,0.6-5.4,1.3-7.5,2.7
		c-1.8,1.2-3.1,2.9-3.7,5.1C71.8,91.6,67.8,90.5,64.5,90.5z M89.3,91.3c-4.4,1.4-7.2,2.5-8.4,2.5c-0.8,0-2-0.3-3.4-0.6
		c0.4-1.8,1.3-3,2.7-3.9c1.6-1.1,4-1.8,6.7-2.4c5.9-1.4,12.1-1.5,17.2-3v0c1.1,0.5,2,1.7,2.6,3.5C101.1,88.4,94.8,89.6,89.3,91.3z"
		/>
	<circle class="st1" cx="22.5" cy="100.4" r="1.1"/>
	<circle class="st1" cx="26.5" cy="100.6" r="1.1"/>
	<circle class="st1" cx="30.3" cy="100.6" r="1.1"/>
	<g class="st1">
		<defs>
			<rect id="SVGID_3_" x="-1.3" y="108.3" width="66.2" height="83.5"/>
		</defs>
		<clipPath id="SVGID_2_">
			<use xlink:href="#SVGID_3_"  style="overflow:visible;"/>
		</clipPath>
		<g class="st2">
			<g>
				<path class="st3" d="M2.1,122.2h6.6c0.6,0,1.1-0.5,1.1-1.1v0c0-0.6-0.5-1.1-1.1-1.1H2.1c-0.6,0-1.1,0.5-1.1,1.1v0
					C0.9,121.7,1.4,122.2,2.1,122.2z"/>
				<path class="st3" d="M2.1,103h6.6c0.6,0,1.1-0.5,1.1-1.1l0,0c0-0.6-0.5-1.1-1.1-1.1H2.1c-0.6,0-1.1,0.5-1.1,1.1l0,0
					C0.9,102.5,1.4,103,2.1,103z"/>
				<path class="st3" d="M2.1,141.4h6.6c0.6,0,1.1-0.5,1.1-1.1l0,0c0-0.6-0.5-1.1-1.1-1.1H2.1c-0.6,0-1.1,0.5-1.1,1.1l0,0
					C0.9,140.9,1.4,141.4,2.1,141.4z"/>
				<path class="st3" d="M2.1,160.6h6.6c0.6,0,1.1-0.5,1.1-1.1l0,0c0-0.6-0.5-1.1-1.1-1.1H2.1c-0.6,0-1.1,0.5-1.1,1.1l0,0
					C0.9,160.1,1.4,160.6,2.1,160.6z"/>
				<path class="st3" d="M2.1,179.9h6.6c0.6,0,1.1-0.5,1.1-1.1l0,0c0-0.6-0.5-1.1-1.1-1.1H2.1c-0.6,0-1.1,0.5-1.1,1.1l0,0
					C0.9,179.4,1.4,179.9,2.1,179.9z"/>
				<path class="st3" d="M2.1,199.1h6.6c0.6,0,1.1-0.5,1.1-1.1l0,0c0-0.6-0.5-1.1-1.1-1.1H2.1c-0.6,0-1.1,0.5-1.1,1.1l0,0
					C0.9,198.6,1.4,199.1,2.1,199.1z"/>
				<path class="st3" d="M2.1,218.3h6.6c0.6,0,1.1-0.5,1.1-1.1l0,0c0-0.6-0.5-1.1-1.1-1.1H2.1c-0.6,0-1.1,0.5-1.1,1.1l0,0
					C0.9,217.8,1.4,218.3,2.1,218.3z"/>
				<path class="st3" d="M2.1,237.5h6.6c0.6,0,1.1-0.5,1.1-1.1l0,0c0-0.6-0.5-1.1-1.1-1.1H2.1c-0.6,0-1.1,0.5-1.1,1.1l0,0
					C0.9,237,1.4,237.5,2.1,237.5z"/>
				<path class="st3" d="M2.1,256.8h6.6c0.6,0,1.1-0.5,1.1-1.1l0,0c0-0.6-0.5-1.1-1.1-1.1H2.1c-0.6,0-1.1,0.5-1.1,1.1l0,0
					C0.9,256.3,1.4,256.8,2.1,256.8z"/>
				<path class="st3" d="M23.4,132.1h6.6c0.6,0,1.1-0.5,1.1-1.1l0,0c0-0.6-0.5-1.1-1.1-1.1h-6.6c-0.6,0-1.1,0.5-1.1,1.1l0,0
					C22.3,131.6,22.8,132.1,23.4,132.1z"/>
				<path class="st3" d="M23.4,112.9h6.6c0.6,0,1.1-0.5,1.1-1.1v0c0-0.6-0.5-1.1-1.1-1.1h-6.6c-0.6,0-1.1,0.5-1.1,1.1v0
					C22.3,112.4,22.8,112.9,23.4,112.9z"/>
				<path class="st3" d="M23.4,151.3h6.6c0.6,0,1.1-0.5,1.1-1.1l0,0c0-0.6-0.5-1.1-1.1-1.1h-6.6c-0.6,0-1.1,0.5-1.1,1.1l0,0
					C22.3,150.8,22.8,151.3,23.4,151.3z"/>
				<path class="st3" d="M23.4,170.5h6.6c0.6,0,1.1-0.5,1.1-1.1l0,0c0-0.6-0.5-1.1-1.1-1.1h-6.6c-0.6,0-1.1,0.5-1.1,1.1l0,0
					C22.3,170,22.8,170.5,23.4,170.5z"/>
				<path class="st3" d="M23.4,189.8h6.6c0.6,0,1.1-0.5,1.1-1.1l0,0c0-0.6-0.5-1.1-1.1-1.1h-6.6c-0.6,0-1.1,0.5-1.1,1.1l0,0
					C22.3,189.3,22.8,189.8,23.4,189.8z"/>
				<path class="st3" d="M23.4,209h6.6c0.6,0,1.1-0.5,1.1-1.1v0c0-0.6-0.5-1.1-1.1-1.1h-6.6c-0.6,0-1.1,0.5-1.1,1.1v0
					C22.3,208.5,22.8,209,23.4,209z"/>
				<path class="st3" d="M23.4,228.2h6.6c0.6,0,1.1-0.5,1.1-1.1l0,0c0-0.6-0.5-1.1-1.1-1.1h-6.6c-0.6,0-1.1,0.5-1.1,1.1l0,0
					C22.3,227.7,22.8,228.2,23.4,228.2z"/>
				<path class="st3" d="M23.4,247.4h6.6c0.6,0,1.1-0.5,1.1-1.1l0,0c0-0.6-0.5-1.1-1.1-1.1h-6.6c-0.6,0-1.1,0.5-1.1,1.1l0,0
					C22.3,246.9,22.8,247.4,23.4,247.4z"/>
				<path class="st3" d="M23.4,266.7h6.6c0.6,0,1.1-0.5,1.1-1.1l0,0c0-0.6-0.5-1.1-1.1-1.1h-6.6c-0.6,0-1.1,0.5-1.1,1.1l0,0
					C22.3,266.1,22.8,266.7,23.4,266.7z"/>
				<path class="st3" d="M44.7,122.2h6.6c0.6,0,1.1-0.5,1.1-1.1v0c0-0.6-0.5-1.1-1.1-1.1h-6.6c-0.6,0-1.1,0.5-1.1,1.1v0
					C43.6,121.7,44.1,122.2,44.7,122.2z"/>
				<path class="st3" d="M44.7,103h6.6c0.6,0,1.1-0.5,1.1-1.1l0,0c0-0.6-0.5-1.1-1.1-1.1h-6.6c-0.6,0-1.1,0.5-1.1,1.1l0,0
					C43.6,102.5,44.1,103,44.7,103z"/>
				<path class="st3" d="M44.7,141.4h6.6c0.6,0,1.1-0.5,1.1-1.1l0,0c0-0.6-0.5-1.1-1.1-1.1h-6.6c-0.6,0-1.1,0.5-1.1,1.1l0,0
					C43.6,140.9,44.1,141.4,44.7,141.4z"/>
				<path class="st3" d="M44.7,160.6h6.6c0.6,0,1.1-0.5,1.1-1.1l0,0c0-0.6-0.5-1.1-1.1-1.1h-6.6c-0.6,0-1.1,0.5-1.1,1.1l0,0
					C43.6,160.1,44.1,160.6,44.7,160.6z"/>
				<path class="st3" d="M44.7,179.9h6.6c0.6,0,1.1-0.5,1.1-1.1l0,0c0-0.6-0.5-1.1-1.1-1.1h-6.6c-0.6,0-1.1,0.5-1.1,1.1l0,0
					C43.6,179.4,44.1,179.9,44.7,179.9z"/>
				<path class="st3" d="M44.7,199.1h6.6c0.6,0,1.1-0.5,1.1-1.1l0,0c0-0.6-0.5-1.1-1.1-1.1h-6.6c-0.6,0-1.1,0.5-1.1,1.1l0,0
					C43.6,198.6,44.1,199.1,44.7,199.1z"/>
				<path class="st3" d="M44.7,218.3h6.6c0.6,0,1.1-0.5,1.1-1.1l0,0c0-0.6-0.5-1.1-1.1-1.1h-6.6c-0.6,0-1.1,0.5-1.1,1.1l0,0
					C43.6,217.8,44.1,218.3,44.7,218.3z"/>
				<path class="st3" d="M44.7,237.5h6.6c0.6,0,1.1-0.5,1.1-1.1l0,0c0-0.6-0.5-1.1-1.1-1.1h-6.6c-0.6,0-1.1,0.5-1.1,1.1l0,0
					C43.6,237,44.1,237.5,44.7,237.5z"/>
				<path class="st3" d="M44.7,256.8h6.6c0.6,0,1.1-0.5,1.1-1.1l0,0c0-0.6-0.5-1.1-1.1-1.1h-6.6c-0.6,0-1.1,0.5-1.1,1.1l0,0
					C43.6,256.3,44.1,256.8,44.7,256.8z"/>
				<path class="st3" d="M66.1,132.1h6.6c0.6,0,1.1-0.5,1.1-1.1l0,0c0-0.6-0.5-1.1-1.1-1.1h-6.6c-0.6,0-1.1,0.5-1.1,1.1l0,0
					C64.9,131.6,65.4,132.1,66.1,132.1z"/>
				<path class="st3" d="M66.1,112.9h6.6c0.6,0,1.1-0.5,1.1-1.1v0c0-0.6-0.5-1.1-1.1-1.1h-6.6c-0.6,0-1.1,0.5-1.1,1.1v0
					C64.9,112.4,65.4,112.9,66.1,112.9z"/>
				<path class="st3" d="M66.1,151.3h6.6c0.6,0,1.1-0.5,1.1-1.1l0,0c0-0.6-0.5-1.1-1.1-1.1h-6.6c-0.6,0-1.1,0.5-1.1,1.1l0,0
					C64.9,150.8,65.4,151.3,66.1,151.3z"/>
				<path class="st3" d="M66.1,170.5h6.6c0.6,0,1.1-0.5,1.1-1.1l0,0c0-0.6-0.5-1.1-1.1-1.1h-6.6c-0.6,0-1.1,0.5-1.1,1.1l0,0
					C64.9,170,65.4,170.5,66.1,170.5z"/>
				<path class="st3" d="M66.1,189.8h6.6c0.6,0,1.1-0.5,1.1-1.1l0,0c0-0.6-0.5-1.1-1.1-1.1h-6.6c-0.6,0-1.1,0.5-1.1,1.1l0,0
					C64.9,189.3,65.4,189.8,66.1,189.8z"/>
				<path class="st3" d="M66.1,209h6.6c0.6,0,1.1-0.5,1.1-1.1v0c0-0.6-0.5-1.1-1.1-1.1h-6.6c-0.6,0-1.1,0.5-1.1,1.1v0
					C64.9,208.5,65.4,209,66.1,209z"/>
				<path class="st3" d="M66.1,228.2h6.6c0.6,0,1.1-0.5,1.1-1.1l0,0c0-0.6-0.5-1.1-1.1-1.1h-6.6c-0.6,0-1.1,0.5-1.1,1.1l0,0
					C64.9,227.7,65.4,228.2,66.1,228.2z"/>
				<path class="st3" d="M66.1,247.4h6.6c0.6,0,1.1-0.5,1.1-1.1l0,0c0-0.6-0.5-1.1-1.1-1.1h-6.6c-0.6,0-1.1,0.5-1.1,1.1l0,0
					C64.9,246.9,65.4,247.4,66.1,247.4z"/>
				<path class="st3" d="M66.1,266.7h6.6c0.6,0,1.1-0.5,1.1-1.1l0,0c0-0.6-0.5-1.1-1.1-1.1h-6.6c-0.6,0-1.1,0.5-1.1,1.1l0,0
					C64.9,266.1,65.4,266.7,66.1,266.7z"/>
				<path class="st3" d="M87.4,122.2h6.6c0.6,0,1.1-0.5,1.1-1.1v0c0-0.6-0.5-1.1-1.1-1.1h-6.6c-0.6,0-1.1,0.5-1.1,1.1v0
					C86.3,121.7,86.8,122.2,87.4,122.2z"/>
				<path class="st3" d="M87.4,103h6.6c0.6,0,1.1-0.5,1.1-1.1l0,0c0-0.6-0.5-1.1-1.1-1.1h-6.6c-0.6,0-1.1,0.5-1.1,1.1l0,0
					C86.3,102.5,86.8,103,87.4,103z"/>
				<path class="st3" d="M87.4,141.4h6.6c0.6,0,1.1-0.5,1.1-1.1l0,0c0-0.6-0.5-1.1-1.1-1.1h-6.6c-0.6,0-1.1,0.5-1.1,1.1l0,0
					C86.3,140.9,86.8,141.4,87.4,141.4z"/>
				<path class="st3" d="M87.4,160.6h6.6c0.6,0,1.1-0.5,1.1-1.1l0,0c0-0.6-0.5-1.1-1.1-1.1h-6.6c-0.6,0-1.1,0.5-1.1,1.1l0,0
					C86.3,160.1,86.8,160.6,87.4,160.6z"/>
				<path class="st3" d="M87.4,179.9h6.6c0.6,0,1.1-0.5,1.1-1.1l0,0c0-0.6-0.5-1.1-1.1-1.1h-6.6c-0.6,0-1.1,0.5-1.1,1.1l0,0
					C86.3,179.4,86.8,179.9,87.4,179.9z"/>
				<path class="st3" d="M87.4,199.1h6.6c0.6,0,1.1-0.5,1.1-1.1l0,0c0-0.6-0.5-1.1-1.1-1.1h-6.6c-0.6,0-1.1,0.5-1.1,1.1l0,0
					C86.3,198.6,86.8,199.1,87.4,199.1z"/>
				<path class="st3" d="M87.4,218.3h6.6c0.6,0,1.1-0.5,1.1-1.1l0,0c0-0.6-0.5-1.1-1.1-1.1h-6.6c-0.6,0-1.1,0.5-1.1,1.1l0,0
					C86.3,217.8,86.8,218.3,87.4,218.3z"/>
				<path class="st3" d="M87.4,237.5h6.6c0.6,0,1.1-0.5,1.1-1.1l0,0c0-0.6-0.5-1.1-1.1-1.1h-6.6c-0.6,0-1.1,0.5-1.1,1.1l0,0
					C86.3,237,86.8,237.5,87.4,237.5z"/>
				<path class="st3" d="M87.4,256.8h6.6c0.6,0,1.1-0.5,1.1-1.1l0,0c0-0.6-0.5-1.1-1.1-1.1h-6.6c-0.6,0-1.1,0.5-1.1,1.1l0,0
					C86.3,256.3,86.8,256.8,87.4,256.8z"/>
				<path class="st3" d="M108.7,132.1h6.6c0.6,0,1.1-0.5,1.1-1.1l0,0c0-0.6-0.5-1.1-1.1-1.1h-6.6c-0.6,0-1.1,0.5-1.1,1.1l0,0
					C107.6,131.6,108.1,132.1,108.7,132.1z"/>
				<path class="st3" d="M108.7,112.9h6.6c0.6,0,1.1-0.5,1.1-1.1v0c0-0.6-0.5-1.1-1.1-1.1h-6.6c-0.6,0-1.1,0.5-1.1,1.1v0
					C107.6,112.4,108.1,112.9,108.7,112.9z"/>
				<path class="st3" d="M108.7,151.3h6.6c0.6,0,1.1-0.5,1.1-1.1l0,0c0-0.6-0.5-1.1-1.1-1.1h-6.6c-0.6,0-1.1,0.5-1.1,1.1l0,0
					C107.6,150.8,108.1,151.3,108.7,151.3z"/>
				<path class="st3" d="M108.7,170.5h6.6c0.6,0,1.1-0.5,1.1-1.1l0,0c0-0.6-0.5-1.1-1.1-1.1h-6.6c-0.6,0-1.1,0.5-1.1,1.1l0,0
					C107.6,170,108.1,170.5,108.7,170.5z"/>
				<path class="st3" d="M108.7,189.8h6.6c0.6,0,1.1-0.5,1.1-1.1l0,0c0-0.6-0.5-1.1-1.1-1.1h-6.6c-0.6,0-1.1,0.5-1.1,1.1l0,0
					C107.6,189.3,108.1,189.8,108.7,189.8z"/>
				<path class="st3" d="M108.7,209h6.6c0.6,0,1.1-0.5,1.1-1.1v0c0-0.6-0.5-1.1-1.1-1.1h-6.6c-0.6,0-1.1,0.5-1.1,1.1v0
					C107.6,208.5,108.1,209,108.7,209z"/>
				<path class="st3" d="M108.7,228.2h6.6c0.6,0,1.1-0.5,1.1-1.1l0,0c0-0.6-0.5-1.1-1.1-1.1h-6.6c-0.6,0-1.1,0.5-1.1,1.1l0,0
					C107.6,227.7,108.1,228.2,108.7,228.2z"/>
				<path class="st3" d="M108.7,247.4h6.6c0.6,0,1.1-0.5,1.1-1.1l0,0c0-0.6-0.5-1.1-1.1-1.1h-6.6c-0.6,0-1.1,0.5-1.1,1.1l0,0
					C107.6,246.9,108.1,247.4,108.7,247.4z"/>
				<path class="st3" d="M108.7,266.7h6.6c0.6,0,1.1-0.5,1.1-1.1l0,0c0-0.6-0.5-1.1-1.1-1.1h-6.6c-0.6,0-1.1,0.5-1.1,1.1l0,0
					C107.6,266.1,108.1,266.7,108.7,266.7z"/>
			</g>
			<path class="st3" d="M6.5,124.4v-6.6c0-0.6-0.5-1.1-1.1-1.1h0c-0.6,0-1.1,0.5-1.1,1.1v6.6c0,0.6,0.5,1.1,1.1,1.1h0
				C6,125.5,6.5,125,6.5,124.4z"/>
			<path class="st3" d="M6.5,105.2v-6.6c0-0.6-0.5-1.1-1.1-1.1h0c-0.6,0-1.1,0.5-1.1,1.1v6.6c0,0.6,0.5,1.1,1.1,1.1h0
				C6,106.3,6.5,105.8,6.5,105.2z"/>
			<path class="st3" d="M6.5,162.8v-6.6c0-0.6-0.5-1.1-1.1-1.1h0c-0.6,0-1.1,0.5-1.1,1.1v6.6c0,0.6,0.5,1.1,1.1,1.1h0
				C6,164,6.5,163.5,6.5,162.8z"/>
			<path class="st3" d="M6.5,143.9v-6.6c0-0.6-0.5-1.1-1.1-1.1h0c-0.6,0-1.1,0.5-1.1,1.1v6.6c0,0.6,0.5,1.1,1.1,1.1h0
				C6,145,6.5,144.5,6.5,143.9z"/>
			<path class="st3" d="M6.5,201.1v-6.6c0-0.6-0.5-1.1-1.1-1.1h0c-0.6,0-1.1,0.5-1.1,1.1v6.6c0,0.6,0.5,1.1,1.1,1.1h0
				C6,202.2,6.5,201.7,6.5,201.1z"/>
			<path class="st3" d="M6.5,181.9v-6.6c0-0.6-0.5-1.1-1.1-1.1h0c-0.6,0-1.1,0.5-1.1,1.1v6.6c0,0.6,0.5,1.1,1.1,1.1h0
				C6,183,6.5,182.5,6.5,181.9z"/>
			<path class="st3" d="M6.5,239.5v-6.6c0-0.6-0.5-1.1-1.1-1.1h0c-0.6,0-1.1,0.5-1.1,1.1v6.6c0,0.6,0.5,1.1,1.1,1.1h0
				C6,240.7,6.5,240.2,6.5,239.5z"/>
			<path class="st3" d="M6.5,259v-6.6c0-0.6-0.5-1.1-1.1-1.1h0c-0.6,0-1.1,0.5-1.1,1.1v6.6c0,0.6,0.5,1.1,1.1,1.1h0
				C6,260.1,6.5,259.6,6.5,259z"/>
			<path class="st3" d="M6.5,220.6V214c0-0.6-0.5-1.1-1.1-1.1h0c-0.6,0-1.1,0.5-1.1,1.1v6.6c0,0.6,0.5,1.1,1.1,1.1h0
				C6,221.7,6.5,221.2,6.5,220.6z"/>
			<path class="st3" d="M27.9,134.3v-6.6c0-0.6-0.5-1.1-1.1-1.1h0c-0.6,0-1.1,0.5-1.1,1.1v6.6c0,0.6,0.5,1.1,1.1,1.1h0
				C27.4,135.4,27.9,134.9,27.9,134.3z"/>
			<path class="st3" d="M27.9,115.1v-6.6c0-0.6-0.5-1.1-1.1-1.1h0c-0.6,0-1.1,0.5-1.1,1.1v6.6c0,0.6,0.5,1.1,1.1,1.1h0
				C27.4,116.2,27.9,115.7,27.9,115.1z"/>
			<path class="st3" d="M27.9,172.7v-6.6c0-0.6-0.5-1.1-1.1-1.1h0c-0.6,0-1.1,0.5-1.1,1.1v6.6c0,0.6,0.5,1.1,1.1,1.1h0
				C27.4,173.9,27.9,173.4,27.9,172.7z"/>
			<path class="st3" d="M27.9,153.8v-6.6c0-0.6-0.5-1.1-1.1-1.1h0c-0.6,0-1.1,0.5-1.1,1.1v6.6c0,0.6,0.5,1.1,1.1,1.1h0
				C27.4,154.9,27.9,154.4,27.9,153.8z"/>
			<path class="st3" d="M27.9,211v-6.6c0-0.6-0.5-1.1-1.1-1.1h0c-0.6,0-1.1,0.5-1.1,1.1v6.6c0,0.6,0.5,1.1,1.1,1.1h0
				C27.4,212.1,27.9,211.6,27.9,211z"/>
			<path class="st3" d="M27.9,191.8v-6.6c0-0.6-0.5-1.1-1.1-1.1h0c-0.6,0-1.1,0.5-1.1,1.1v6.6c0,0.6,0.5,1.1,1.1,1.1h0
				C27.4,192.9,27.9,192.4,27.9,191.8z"/>
			<path class="st3" d="M27.9,249.4v-6.6c0-0.6-0.5-1.1-1.1-1.1h0c-0.6,0-1.1,0.5-1.1,1.1v6.6c0,0.6,0.5,1.1,1.1,1.1h0
				C27.4,250.6,27.9,250.1,27.9,249.4z"/>
			<path class="st3" d="M27.9,268.8v-6.6c0-0.6-0.5-1.1-1.1-1.1h0c-0.6,0-1.1,0.5-1.1,1.1v6.6c0,0.6,0.5,1.1,1.1,1.1h0
				C27.4,270,27.9,269.5,27.9,268.8z"/>
			<path class="st3" d="M27.9,230.5v-6.6c0-0.6-0.5-1.1-1.1-1.1h0c-0.6,0-1.1,0.5-1.1,1.1v6.6c0,0.6,0.5,1.1,1.1,1.1h0
				C27.4,231.6,27.9,231.1,27.9,230.5z"/>
			<path class="st3" d="M49.2,124.4v-6.6c0-0.6-0.5-1.1-1.1-1.1h0c-0.6,0-1.1,0.5-1.1,1.1v6.6c0,0.6,0.5,1.1,1.1,1.1h0
				C48.7,125.5,49.2,125,49.2,124.4z"/>
			<path class="st3" d="M49.2,105.2v-6.6c0-0.6-0.5-1.1-1.1-1.1h0c-0.6,0-1.1,0.5-1.1,1.1v6.6c0,0.6,0.5,1.1,1.1,1.1h0
				C48.7,106.3,49.2,105.8,49.2,105.2z"/>
			<path class="st3" d="M49.2,162.8v-6.6c0-0.6-0.5-1.1-1.1-1.1h0c-0.6,0-1.1,0.5-1.1,1.1v6.6c0,0.6,0.5,1.1,1.1,1.1h0
				C48.7,164,49.2,163.5,49.2,162.8z"/>
			<path class="st3" d="M49.2,143.9v-6.6c0-0.6-0.5-1.1-1.1-1.1h0c-0.6,0-1.1,0.5-1.1,1.1v6.6c0,0.6,0.5,1.1,1.1,1.1h0
				C48.7,145,49.2,144.5,49.2,143.9z"/>
			<path class="st3" d="M49.2,201.1v-6.6c0-0.6-0.5-1.1-1.1-1.1h0c-0.6,0-1.1,0.5-1.1,1.1v6.6c0,0.6,0.5,1.1,1.1,1.1h0
				C48.7,202.2,49.2,201.7,49.2,201.1z"/>
			<path class="st3" d="M49.2,181.9v-6.6c0-0.6-0.5-1.1-1.1-1.1h0c-0.6,0-1.1,0.5-1.1,1.1v6.6c0,0.6,0.5,1.1,1.1,1.1h0
				C48.7,183,49.2,182.5,49.2,181.9z"/>
			<path class="st3" d="M49.2,239.5v-6.6c0-0.6-0.5-1.1-1.1-1.1h0c-0.6,0-1.1,0.5-1.1,1.1v6.6c0,0.6,0.5,1.1,1.1,1.1h0
				C48.7,240.7,49.2,240.2,49.2,239.5z"/>
			<path class="st3" d="M49.2,259v-6.6c0-0.6-0.5-1.1-1.1-1.1h0c-0.6,0-1.1,0.5-1.1,1.1v6.6c0,0.6,0.5,1.1,1.1,1.1h0
				C48.7,260.1,49.2,259.6,49.2,259z"/>
			<path class="st3" d="M49.2,220.6V214c0-0.6-0.5-1.1-1.1-1.1h0c-0.6,0-1.1,0.5-1.1,1.1v6.6c0,0.6,0.5,1.1,1.1,1.1h0
				C48.7,221.7,49.2,221.2,49.2,220.6z"/>
			<path class="st3" d="M70.5,134.1v-6.6c0-0.6-0.5-1.1-1.1-1.1l0,0c-0.6,0-1.1,0.5-1.1,1.1v6.6c0,0.6,0.5,1.1,1.1,1.1l0,0
				C70,135.2,70.5,134.7,70.5,134.1z"/>
			<path class="st3" d="M70.5,114.9v-6.6c0-0.6-0.5-1.1-1.1-1.1l0,0c-0.6,0-1.1,0.5-1.1,1.1v6.6c0,0.6,0.5,1.1,1.1,1.1l0,0
				C70,116,70.5,115.5,70.5,114.9z"/>
			<path class="st3" d="M70.5,172.5v-6.6c0-0.6-0.5-1.1-1.1-1.1l0,0c-0.6,0-1.1,0.5-1.1,1.1v6.6c0,0.6,0.5,1.1,1.1,1.1l0,0
				C70,173.7,70.5,173.2,70.5,172.5z"/>
			<path class="st3" d="M70.5,153.6V147c0-0.6-0.5-1.1-1.1-1.1l0,0c-0.6,0-1.1,0.5-1.1,1.1v6.6c0,0.6,0.5,1.1,1.1,1.1l0,0
				C70,154.7,70.5,154.2,70.5,153.6z"/>
			<path class="st3" d="M70.5,210.8v-6.6c0-0.6-0.5-1.1-1.1-1.1l0,0c-0.6,0-1.1,0.5-1.1,1.1v6.6c0,0.6,0.5,1.1,1.1,1.1l0,0
				C70,211.9,70.5,211.4,70.5,210.8z"/>
			<path class="st3" d="M70.5,191.6v-6.6c0-0.6-0.5-1.1-1.1-1.1l0,0c-0.6,0-1.1,0.5-1.1,1.1v6.6c0,0.6,0.5,1.1,1.1,1.1l0,0
				C70,192.7,70.5,192.2,70.5,191.6z"/>
			<path class="st3" d="M70.5,249.3v-6.6c0-0.6-0.5-1.1-1.1-1.1l0,0c-0.6,0-1.1,0.5-1.1,1.1v6.6c0,0.6,0.5,1.1,1.1,1.1l0,0
				C70,250.4,70.5,249.9,70.5,249.3z"/>
			<path class="st3" d="M70.5,268.7V262c0-0.6-0.5-1.1-1.1-1.1l0,0c-0.6,0-1.1,0.5-1.1,1.1v6.6c0,0.6,0.5,1.1,1.1,1.1l0,0
				C70,269.8,70.5,269.3,70.5,268.7z"/>
			<path class="st3" d="M70.5,230.3v-6.6c0-0.6-0.5-1.1-1.1-1.1l0,0c-0.6,0-1.1,0.5-1.1,1.1v6.6c0,0.6,0.5,1.1,1.1,1.1l0,0
				C70,231.4,70.5,230.9,70.5,230.3z"/>
			<path class="st3" d="M91.9,124.2v-6.6c0-0.6-0.5-1.1-1.1-1.1h0c-0.6,0-1.1,0.5-1.1,1.1v6.6c0,0.6,0.5,1.1,1.1,1.1h0
				C91.4,125.3,91.9,124.8,91.9,124.2z"/>
			<path class="st3" d="M91.9,105v-6.6c0-0.6-0.5-1.1-1.1-1.1h0c-0.6,0-1.1,0.5-1.1,1.1v6.6c0,0.6,0.5,1.1,1.1,1.1h0
				C91.4,106.1,91.9,105.6,91.9,105z"/>
			<path class="st3" d="M91.9,162.6V156c0-0.6-0.5-1.1-1.1-1.1h0c-0.6,0-1.1,0.5-1.1,1.1v6.6c0,0.6,0.5,1.1,1.1,1.1h0
				C91.4,163.8,91.9,163.3,91.9,162.6z"/>
			<path class="st3" d="M91.9,143.7v-6.6c0-0.6-0.5-1.1-1.1-1.1h0c-0.6,0-1.1,0.5-1.1,1.1v6.6c0,0.6,0.5,1.1,1.1,1.1h0
				C91.4,144.8,91.9,144.3,91.9,143.7z"/>
			<path class="st3" d="M91.9,200.9v-6.6c0-0.6-0.5-1.1-1.1-1.1h0c-0.6,0-1.1,0.5-1.1,1.1v6.6c0,0.6,0.5,1.1,1.1,1.1h0
				C91.4,202,91.9,201.5,91.9,200.9z"/>
			<path class="st3" d="M91.9,181.7V175c0-0.6-0.5-1.1-1.1-1.1h0c-0.6,0-1.1,0.5-1.1,1.1v6.6c0,0.6,0.5,1.1,1.1,1.1h0
				C91.4,182.8,91.9,182.3,91.9,181.7z"/>
			<path class="st3" d="M91.9,239.4v-6.6c0-0.6-0.5-1.1-1.1-1.1h0c-0.6,0-1.1,0.5-1.1,1.1v6.6c0,0.6,0.5,1.1,1.1,1.1h0
				C91.4,240.5,91.9,240,91.9,239.4z"/>
			<path class="st3" d="M91.9,258.8v-6.6c0-0.6-0.5-1.1-1.1-1.1h0c-0.6,0-1.1,0.5-1.1,1.1v6.6c0,0.6,0.5,1.1,1.1,1.1h0
				C91.4,259.9,91.9,259.4,91.9,258.8z"/>
			<path class="st3" d="M91.9,220.4v-6.6c0-0.6-0.5-1.1-1.1-1.1h0c-0.6,0-1.1,0.5-1.1,1.1v6.6c0,0.6,0.5,1.1,1.1,1.1h0
				C91.4,221.6,91.9,221,91.9,220.4z"/>
			<path class="st3" d="M113.2,133.9v-6.6c0-0.6-0.5-1.1-1.1-1.1h0c-0.6,0-1.1,0.5-1.1,1.1v6.6c0,0.6,0.5,1.1,1.1,1.1h0
				C112.7,135,113.2,134.5,113.2,133.9z"/>
			<path class="st3" d="M113.2,114.7V108c0-0.6-0.5-1.1-1.1-1.1h0c-0.6,0-1.1,0.5-1.1,1.1v6.6c0,0.6,0.5,1.1,1.1,1.1h0
				C112.7,115.8,113.2,115.3,113.2,114.7z"/>
			<path class="st3" d="M113.2,172.4v-6.6c0-0.6-0.5-1.1-1.1-1.1h0c-0.6,0-1.1,0.5-1.1,1.1v6.6c0,0.6,0.5,1.1,1.1,1.1h0
				C112.7,173.5,113.2,173,113.2,172.4z"/>
			<path class="st3" d="M113.2,153.4v-6.6c0-0.6-0.5-1.1-1.1-1.1h0c-0.6,0-1.1,0.5-1.1,1.1v6.6c0,0.6,0.5,1.1,1.1,1.1h0
				C112.7,154.5,113.2,154,113.2,153.4z"/>
			<path class="st3" d="M113.2,210.6V204c0-0.6-0.5-1.1-1.1-1.1h0c-0.6,0-1.1,0.5-1.1,1.1v6.6c0,0.6,0.5,1.1,1.1,1.1h0
				C112.7,211.8,113.2,211.2,113.2,210.6z"/>
			<path class="st3" d="M113.2,191.4v-6.6c0-0.6-0.5-1.1-1.1-1.1h0c-0.6,0-1.1,0.5-1.1,1.1v6.6c0,0.6,0.5,1.1,1.1,1.1h0
				C112.7,192.5,113.2,192,113.2,191.4z"/>
			<path class="st3" d="M113.2,249.1v-6.6c0-0.6-0.5-1.1-1.1-1.1h0c-0.6,0-1.1,0.5-1.1,1.1v6.6c0,0.6,0.5,1.1,1.1,1.1h0
				C112.7,250.2,113.2,249.7,113.2,249.1z"/>
			<path class="st3" d="M113.2,268.5v-6.6c0-0.6-0.5-1.1-1.1-1.1h0c-0.6,0-1.1,0.5-1.1,1.1v6.6c0,0.6,0.5,1.1,1.1,1.1h0
				C112.7,269.6,113.2,269.1,113.2,268.5z"/>
			<path class="st3" d="M113.2,230.1v-6.6c0-0.6-0.5-1.1-1.1-1.1h0c-0.6,0-1.1,0.5-1.1,1.1v6.6c0,0.6,0.5,1.1,1.1,1.1h0
				C112.7,231.3,113.2,230.8,113.2,230.1z"/>
		</g>
	</g>
</g>
</svg>
