<?xml version="1.0" encoding="utf-8"?>
<!-- Generator: Adobe Illustrator 24.1.0, SVG Export Plug-In . SVG Version: 6.00 Build 0)  -->
<svg version="1.1" id="Layer_1" xmlns="http://www.w3.org/2000/svg" xmlns:xlink="http://www.w3.org/1999/xlink" x="0px" y="0px"
	 viewBox="0 0 120 150" style="enable-background:new 0 0 120 150;" xml:space="preserve">
<style type="text/css">
	.st0{fill:#A9E3ED;}
</style>
<circle class="st0" cx="106.2" cy="23.5" r="34.5"/>
<g transform="translate(0,-952.36218)">
	<path d="M48.4,1003.5c-0.2,0-0.5,0.2-0.6,0.3c-1.2,1.2-2.8,2.9-3.7,5c-0.8,1.9-1,4.1-0.2,6.3c-3.1,2.2-6.6,2.9-10.4,2.3
		c-4-0.6-8.2-2.8-12.1-6c-0.6-0.5-1.8-0.1-1.9,0.7c-3.3,13.4-7.3,27.1-8.2,39.9c0,0.3,0.1,0.6,0.3,0.8c3.7,3.5,7.7,4.8,13.7,4.8
		c18.7,0.4,37.4,0.7,56.1,1.1c7.6-0.1,13.9-1.4,19.8-3.1c3.4-1,6.7-2.1,9.5-3.9c0.6-0.4,1.2-0.9,1.2-1.8c0-2.3-0.3-4.9-1.1-7.2
		c-0.8-2.2-2.1-4.3-4.4-5c-2.1-0.6-6.1-1.1-10.5-1.7c-4.4-0.5-9-1.1-11.8-1.6c-2.2-0.7-4.4-1.7-6.1-2.7l0.9-1.1
		c0.6-0.7-0.1-1.9-1-1.8c-0.3,0-0.7,0.2-0.9,0.4l-1,1.2c-1.3-0.9-2.6-1.9-3.9-3l2-2.4c0.6-0.7,0-1.9-1-1.8c-0.3,0-0.7,0.2-0.9,0.4
		l-1.9,2.3c-0.9-0.9-1.9-1.8-2.8-2.7l1.9-2.7c0.5-0.7-0.2-1.9-1.1-1.7c-0.3,0-0.7,0.2-0.8,0.5l-1.6,2.2c-0.9-1-1.9-2-2.7-2.9
		l1.6-2.6c0.4-0.7-0.3-1.7-1.1-1.7c-0.4,0-0.7,0.3-0.9,0.6l-1.1,1.8c-0.9-1-1.8-2-2.6-3l1.1-2.2c0.4-0.7-0.3-1.7-1.1-1.6
		c-0.4,0-0.8,0.3-1,0.6l-0.7,1.2c-2.6-3-5.3-5.9-8-8.2C49.1,1003.5,48.6,1003.6,48.4,1003.5L48.4,1003.5z M48.6,1006.3
		c1,0.9,2.1,2,3.1,3c-6.8,11.2-15.6,15.2-20.7,15.2c-3.1,0-8.3-1-11.5-3.7c0.7-2.6,1.3-4.8,1.7-6.7c3.8,2.8,7.8,4.8,11.8,5.5
		c4.5,0.7,9-0.2,12.8-3.1c0.4-0.3,0.6-0.9,0.3-1.3c-1-1.9-0.8-3.7,0-5.4C46.7,1008.4,47.7,1007.2,48.6,1006.3z M53.4,1011
		c0.9,1,1.9,2,2.8,3.1c-1.1,1.9-2.4,4.1-3.5,6.3c-0.7,1.3-1.2,2.5-1.6,3.6c-0.3,1.1-0.6,2.2,0,3.2c1.5,1.6,3.4,2.6,5,3.3
		c2.3,1,5.3,2,8.4,2.9c10.4,2.8,21.2,3.6,31,4.9c1.8,0.2,3.4,0.4,4.9,0.7c-4,0.7-8.4,1.1-12.4,1.9c-2.9,0.6-5.4,1.3-7.5,2.7
		c-1.8,1.2-3.1,2.9-3.7,5.1c-3.5-0.9-7.5-2-10.7-2.1c-4,0-7.5,1.3-11,2.4c-4.7-4.5-11.1-9.4-16.9-13.3c-2.9-2-5.6-3.6-7.8-4.8
		c-1.1-0.6-2.1-1.1-3-1.5c-0.9-0.3-1.6-0.6-2.3-0.6c-2.3,0-4.2,1.3-6.1,2.9c-1,0.9-2.1,1.9-3.1,2.9c0.8-4,1.9-7.9,2.9-11.5
		c3.8,2.6,8.8,3.5,12.1,3.5C37.2,1026.7,46.3,1022.3,53.4,1011L53.4,1011z M57.9,1016.1c0.8,1,1.7,1.9,2.6,2.9l-2.3,3.9
		c-0.3,0.5-0.1,1.2,0.5,1.5c0.5,0.3,1.3,0.1,1.6-0.4l1.9-3.1c0.9,1,1.7,1.9,2.5,2.8l-1.8,2.5c-0.3,0.5-0.2,1.2,0.3,1.5
		c0.5,0.3,1.3,0.2,1.6-0.3l1.4-2c0.9,0.9,1.7,1.7,2.6,2.5l-1.3,1.5c-0.4,0.5-0.3,1.2,0.2,1.6c0.5,0.4,1.3,0.3,1.6-0.2l1.2-1.4
		c1.3,1.1,2.6,2.1,3.9,3l-0.8,1c-2.9-0.5-5.8-1.3-8.6-2c-3.1-0.9-5.9-1.9-8.1-2.8c-2.1-0.9-3.6-2-3.9-2.3c0-0.1-0.1-0.6,0.1-1.5
		c0.3-0.9,0.8-2,1.5-3.2C55.8,1019.4,56.8,1018.1,57.9,1016.1z M25.2,1031.1c0.1,0,0.7,0.1,1.4,0.4c0.7,0.3,1.7,0.7,2.7,1.3
		c2.1,1.1,4.7,2.8,7.6,4.7c4,2.7,8.2,5.9,12.1,9.1c-5.4-2.4-11.4-4.5-17.1-5.7c-5.8-1-11.9-1.8-17.1,0.4c0.2-1,0.3-2,0.5-3
		c1.8-1.6,3.9-3.5,5.4-4.9C22.4,1032,24,1031.1,25.2,1031.1z M105.8,1040c1.1,0.5,2,1.7,2.6,3.5c-5.7,1-12.1,2.3-17.5,4
		c-4.4,1.4-7.2,2.5-8.4,2.5c-0.8,0-2-0.3-3.4-0.6c0.4-1.8,1.3-3,2.7-3.9c1.6-1.1,4-1.8,6.7-2.4C94.6,1041.6,100.7,1041.5,105.8,1040
		L105.8,1040z M31.4,1043.1c6.4,1.3,13.4,3.9,19.4,6.8c-8.7,0-24-3-36.7-3.3c0.1-0.9,0.2-1.7,0.3-2.6
		C20,1041.4,25.9,1042,31.4,1043.1z M109,1045.7c0.2,1.3,0.4,2.7,0.4,4c-2.6,2-6.3,3.1-9,3.8c-5.6,1.6-12.8,3-19.1,3
		c-18.7-0.4-37.4-0.7-56.1-1.1c-4.7-0.3-9-1.5-11.7-3.8c0.1-0.9,0.2-1.9,0.3-2.8c12.4,0.2,27.8,3.3,37.1,3.3c2.6,0,4.8-0.9,7.1-1.7
		s4.8-1.6,8.1-1.6c2.7,0,5.8,0.8,8.7,1.6c2.9,0.8,5.5,1.7,7.6,1.7c2.3,0,4.8-1.2,9.1-2.6C98.1,1047.8,103.8,1046.5,109,1045.7z"/>
</g>
</svg>
