<?xml version="1.0" encoding="utf-8"?>
<!-- Generator: Adobe Illustrator 24.1.0, SVG Export Plug-In . SVG Version: 6.00 Build 0)  -->
<svg version="1.1" id="Layer_1" xmlns="http://www.w3.org/2000/svg" xmlns:xlink="http://www.w3.org/1999/xlink" x="0px" y="0px"
	 viewBox="0 0 100 98.9" style="enable-background:new 0 0 100 98.9;" xml:space="preserve">
<path d="M84.5,24l-7.6-3c-0.6-0.2-1-0.6-1.4-1.1l-5-7.4c-0.7-1-1.8-1.5-3-1.3s-2.1,1.1-2.4,2.2c-1.4,5.6-4,16-8.5,19.3
	c-3.4,2.6-8.2,3.2-14,4.5c2.1-6,1.7-11.5-1.3-16.6c-5.8-10-15.6-10.7-22.2-8.4C11.6,14.8,7.9,20.3,8,29c0,1.6,1.4,3,3,3l0,0
	c1.7,0,3-1.3,3-3c0-2.3,2.6-2.8,3-2.8c1,0,3,0,3,4.3c0,2.2-1.9,4.7-4.2,7.7C10.4,45.3,2.3,56,14.5,74.4C16,82.8,23.7,89,32.3,89H50
	c1.7,0,3-1.3,3-3c0-3.6-1.1-6.7-3.1-9.3C55.6,76,59,74,63.5,68H80c1.6,0,2.9-1.3,3-2.9c0.2-5-1.1-9.1-3.7-11.8
	c-0.7-0.8-1.6-1.4-2.5-1.9l1.7-1.7l4.4-1.1C88.3,47.3,92,42.5,92,37v-1.9C92,30.2,89,25.8,84.5,24z M15.3,63
	c-3.4-9.7,1-15.5,5.3-21.1c2.8-3.7,5.4-7.1,5.4-11.3c0-6.1-3.2-10.3-9.1-10.3c1.2-1.2,2.8-1.9,4.3-2.5c1.6-0.6,9.9-3,15,5.8
	c2.7,4.7,2.4,9.6-1.1,15.8C24.2,43.5,17.7,51.9,15.3,63z M86,37c0,2.8-1.9,5.2-4.5,5.8l-5.2,1.3c-0.5,0.1-1,0.4-1.4,0.8l-6,6
	c-0.9,0.9-1.1,2.1-0.7,3.3c0.5,1.1,1.6,1.8,2.8,1.8c1.7,0,3,0.5,4,1.5s1.6,2.6,1.9,4.5H62c-1,0-1.9,0.5-2.4,1.2C54,71,52.2,71,41,71
	c-1.5,0-2.7,1-3,2.5c-0.2,1.4,0.6,2.8,1.9,3.3c3.5,1.3,5.7,3.3,6.6,6.2H32.3c-3.3,0-6.5-1.3-8.8-3.7c-3.4-3.5-3.5-7.5-2.9-12.2
	c2.7-19.6,17.1-22.9,26.1-24.8c4.9-1,9.6-2,13.5-5c4.3-3.3,6.9-9.4,8.9-16.2l1.3,1.9c1,1.5,2.4,2.7,4.1,3.4l7.6,3
	c2.3,0.9,3.8,3.1,3.8,5.6L86,37L86,37z"/>
<path d="M77,32c0,1.7-1.3,3-3,3s-3-1.3-3-3c0-1.7,1.3-3,3-3S77,30.3,77,32z"/>
</svg>
