<?xml version="1.0" encoding="utf-8"?>
<!-- Generator: Adobe Illustrator 24.1.0, SVG Export Plug-In . SVG Version: 6.00 Build 0)  -->
<svg version="1.1" id="Layer_1" xmlns="http://www.w3.org/2000/svg" xmlns:xlink="http://www.w3.org/1999/xlink" x="0px" y="0px"
	 viewBox="0 0 120 150" style="enable-background:new 0 0 120 150;" xml:space="preserve">
<style type="text/css">
	.st0{fill:#A9E3ED;}
	.st1{clip-path:url(#SVGID_2_);}
	.st2{fill:none;}
</style>
<path class="st0" d="M120,10.4c-1.6-0.2-3.3-0.4-5-0.4c-19.1,0-34.5,15.4-34.5,34.5S95.9,79.1,115,79.1c1.7,0,3.4-0.1,5-0.4V10.4z"
	/>
<g>
	<g>
		<defs>
			<rect id="SVGID_1_" y="95.4" width="46.4" height="54.6"/>
		</defs>
		<clipPath id="SVGID_2_">
			<use xlink:href="#SVGID_1_"  style="overflow:visible;"/>
		</clipPath>
		<g class="st1">
			<g>
				<path class="st0" d="M-16.5,109.3h6.6c0.6,0,1.1-0.5,1.1-1.1l0,0c0-0.6-0.5-1.1-1.1-1.1h-6.6c-0.6,0-1.1,0.5-1.1,1.1l0,0
					C-17.6,108.8-17.1,109.3-16.5,109.3z"/>
				<path class="st0" d="M-16.5,90.1h6.6c0.6,0,1.1-0.5,1.1-1.1l0,0c0-0.6-0.5-1.1-1.1-1.1h-6.6c-0.6,0-1.1,0.5-1.1,1.1l0,0
					C-17.6,89.6-17.1,90.1-16.5,90.1z"/>
				<path class="st0" d="M-16.5,128.6h6.6c0.6,0,1.1-0.5,1.1-1.1l0,0c0-0.6-0.5-1.1-1.1-1.1h-6.6c-0.6,0-1.1,0.5-1.1,1.1l0,0
					C-17.6,128.1-17.1,128.6-16.5,128.6z"/>
				<path class="st0" d="M-16.5,147.8h6.6c0.6,0,1.1-0.5,1.1-1.1l0,0c0-0.6-0.5-1.1-1.1-1.1h-6.6c-0.6,0-1.1,0.5-1.1,1.1l0,0
					C-17.6,147.3-17.1,147.8-16.5,147.8z"/>
				<path class="st0" d="M-16.5,167h6.6c0.6,0,1.1-0.5,1.1-1.1l0,0c0-0.6-0.5-1.1-1.1-1.1h-6.6c-0.6,0-1.1,0.5-1.1,1.1l0,0
					C-17.6,166.5-17.1,167-16.5,167z"/>
				<path class="st0" d="M-16.5,186.2h6.6c0.6,0,1.1-0.5,1.1-1.1l0,0c0-0.6-0.5-1.1-1.1-1.1h-6.6c-0.6,0-1.1,0.5-1.1,1.1l0,0
					C-17.6,185.7-17.1,186.2-16.5,186.2z"/>
				<path class="st0" d="M-16.5,205.5h6.6c0.6,0,1.1-0.5,1.1-1.1l0,0c0-0.6-0.5-1.1-1.1-1.1h-6.6c-0.6,0-1.1,0.5-1.1,1.1l0,0
					C-17.6,205-17.1,205.5-16.5,205.5z"/>
				<path class="st0" d="M-16.5,224.7h6.6c0.6,0,1.1-0.5,1.1-1.1l0,0c0-0.6-0.5-1.1-1.1-1.1h-6.6c-0.6,0-1.1,0.5-1.1,1.1l0,0
					C-17.6,224.2-17.1,224.7-16.5,224.7z"/>
				<path class="st0" d="M-16.5,243.9h6.6c0.6,0,1.1-0.5,1.1-1.1l0,0c0-0.6-0.5-1.1-1.1-1.1h-6.6c-0.6,0-1.1,0.5-1.1,1.1l0,0
					C-17.6,243.4-17.1,243.9-16.5,243.9z"/>
				<path class="st0" d="M4.8,119.2h6.6c0.6,0,1.1-0.5,1.1-1.1l0,0c0-0.6-0.5-1.1-1.1-1.1H4.8c-0.6,0-1.1,0.5-1.1,1.1l0,0
					C3.7,118.7,4.2,119.2,4.8,119.2z"/>
				<path class="st0" d="M4.8,100h6.6c0.6,0,1.1-0.5,1.1-1.1l0,0c0-0.6-0.5-1.1-1.1-1.1H4.8c-0.6,0-1.1,0.5-1.1,1.1l0,0
					C3.7,99.5,4.2,100,4.8,100z"/>
				<path class="st0" d="M4.8,138.5h6.6c0.6,0,1.1-0.5,1.1-1.1l0,0c0-0.6-0.5-1.1-1.1-1.1H4.8c-0.6,0-1.1,0.5-1.1,1.1l0,0
					C3.7,138,4.2,138.5,4.8,138.5z"/>
				<path class="st0" d="M4.8,157.7h6.6c0.6,0,1.1-0.5,1.1-1.1l0,0c0-0.6-0.5-1.1-1.1-1.1H4.8c-0.6,0-1.1,0.5-1.1,1.1l0,0
					C3.7,157.2,4.2,157.7,4.8,157.7z"/>
				<path class="st0" d="M4.8,176.9h6.6c0.6,0,1.1-0.5,1.1-1.1l0,0c0-0.6-0.5-1.1-1.1-1.1H4.8c-0.6,0-1.1,0.5-1.1,1.1l0,0
					C3.7,176.4,4.2,176.9,4.8,176.9z"/>
				<path class="st0" d="M4.8,196.1h6.6c0.6,0,1.1-0.5,1.1-1.1l0,0c0-0.6-0.5-1.1-1.1-1.1H4.8c-0.6,0-1.1,0.5-1.1,1.1l0,0
					C3.7,195.6,4.2,196.1,4.8,196.1z"/>
				<path class="st0" d="M4.8,215.4h6.6c0.6,0,1.1-0.5,1.1-1.1l0,0c0-0.6-0.5-1.1-1.1-1.1H4.8c-0.6,0-1.1,0.5-1.1,1.1l0,0
					C3.7,214.8,4.2,215.4,4.8,215.4z"/>
				<path class="st0" d="M4.8,234.6h6.6c0.6,0,1.1-0.5,1.1-1.1l0,0c0-0.6-0.5-1.1-1.1-1.1H4.8c-0.6,0-1.1,0.5-1.1,1.1l0,0
					C3.7,234.1,4.2,234.6,4.8,234.6z"/>
				<path class="st0" d="M4.8,253.8h6.6c0.6,0,1.1-0.5,1.1-1.1l0,0c0-0.6-0.5-1.1-1.1-1.1H4.8c-0.6,0-1.1,0.5-1.1,1.1l0,0
					C3.7,253.3,4.2,253.8,4.8,253.8z"/>
				<path class="st0" d="M26.2,109.3h6.6c0.6,0,1.1-0.5,1.1-1.1l0,0c0-0.6-0.5-1.1-1.1-1.1h-6.6c-0.6,0-1.1,0.5-1.1,1.1l0,0
					C25,108.8,25.6,109.3,26.2,109.3z"/>
				<path class="st0" d="M26.2,90.1h6.6c0.6,0,1.1-0.5,1.1-1.1l0,0c0-0.6-0.5-1.1-1.1-1.1h-6.6c-0.6,0-1.1,0.5-1.1,1.1l0,0
					C25,89.6,25.6,90.1,26.2,90.1z"/>
				<path class="st0" d="M26.2,128.6h6.6c0.6,0,1.1-0.5,1.1-1.1l0,0c0-0.6-0.5-1.1-1.1-1.1h-6.6c-0.6,0-1.1,0.5-1.1,1.1l0,0
					C25,128.1,25.6,128.6,26.2,128.6z"/>
				<path class="st0" d="M26.2,147.8h6.6c0.6,0,1.1-0.5,1.1-1.1l0,0c0-0.6-0.5-1.1-1.1-1.1h-6.6c-0.6,0-1.1,0.5-1.1,1.1l0,0
					C25,147.3,25.6,147.8,26.2,147.8z"/>
				<path class="st0" d="M26.2,167h6.6c0.6,0,1.1-0.5,1.1-1.1l0,0c0-0.6-0.5-1.1-1.1-1.1h-6.6c-0.6,0-1.1,0.5-1.1,1.1l0,0
					C25,166.5,25.6,167,26.2,167z"/>
				<path class="st0" d="M26.2,186.2h6.6c0.6,0,1.1-0.5,1.1-1.1l0,0c0-0.6-0.5-1.1-1.1-1.1h-6.6c-0.6,0-1.1,0.5-1.1,1.1l0,0
					C25,185.7,25.6,186.2,26.2,186.2z"/>
				<path class="st0" d="M26.2,205.5h6.6c0.6,0,1.1-0.5,1.1-1.1l0,0c0-0.6-0.5-1.1-1.1-1.1h-6.6c-0.6,0-1.1,0.5-1.1,1.1l0,0
					C25,205,25.6,205.5,26.2,205.5z"/>
				<path class="st0" d="M26.2,224.7h6.6c0.6,0,1.1-0.5,1.1-1.1l0,0c0-0.6-0.5-1.1-1.1-1.1h-6.6c-0.6,0-1.1,0.5-1.1,1.1l0,0
					C25,224.2,25.6,224.7,26.2,224.7z"/>
				<path class="st0" d="M26.2,243.9h6.6c0.6,0,1.1-0.5,1.1-1.1l0,0c0-0.6-0.5-1.1-1.1-1.1h-6.6c-0.6,0-1.1,0.5-1.1,1.1l0,0
					C25,243.4,25.6,243.9,26.2,243.9z"/>
				<path class="st0" d="M47.5,119.2h6.6c0.6,0,1.1-0.5,1.1-1.1l0,0c0-0.6-0.5-1.1-1.1-1.1h-6.6c-0.6,0-1.1,0.5-1.1,1.1l0,0
					C46.4,118.7,46.9,119.2,47.5,119.2z"/>
				<path class="st0" d="M47.5,100h6.6c0.6,0,1.1-0.5,1.1-1.1l0,0c0-0.6-0.5-1.1-1.1-1.1h-6.6c-0.6,0-1.1,0.5-1.1,1.1l0,0
					C46.4,99.5,46.9,100,47.5,100z"/>
				<path class="st0" d="M47.5,138.5h6.6c0.6,0,1.1-0.5,1.1-1.1l0,0c0-0.6-0.5-1.1-1.1-1.1h-6.6c-0.6,0-1.1,0.5-1.1,1.1l0,0
					C46.4,138,46.9,138.5,47.5,138.5z"/>
				<path class="st0" d="M47.5,157.7h6.6c0.6,0,1.1-0.5,1.1-1.1l0,0c0-0.6-0.5-1.1-1.1-1.1h-6.6c-0.6,0-1.1,0.5-1.1,1.1l0,0
					C46.4,157.2,46.9,157.7,47.5,157.7z"/>
				<path class="st0" d="M47.5,176.9h6.6c0.6,0,1.1-0.5,1.1-1.1l0,0c0-0.6-0.5-1.1-1.1-1.1h-6.6c-0.6,0-1.1,0.5-1.1,1.1l0,0
					C46.4,176.4,46.9,176.9,47.5,176.9z"/>
				<path class="st0" d="M47.5,196.1h6.6c0.6,0,1.1-0.5,1.1-1.1l0,0c0-0.6-0.5-1.1-1.1-1.1h-6.6c-0.6,0-1.1,0.5-1.1,1.1l0,0
					C46.4,195.6,46.9,196.1,47.5,196.1z"/>
				<path class="st0" d="M47.5,215.4h6.6c0.6,0,1.1-0.5,1.1-1.1l0,0c0-0.6-0.5-1.1-1.1-1.1h-6.6c-0.6,0-1.1,0.5-1.1,1.1l0,0
					C46.4,214.8,46.9,215.4,47.5,215.4z"/>
				<path class="st0" d="M47.5,234.6h6.6c0.6,0,1.1-0.5,1.1-1.1l0,0c0-0.6-0.5-1.1-1.1-1.1h-6.6c-0.6,0-1.1,0.5-1.1,1.1l0,0
					C46.4,234.1,46.9,234.6,47.5,234.6z"/>
				<path class="st0" d="M47.5,253.8h6.6c0.6,0,1.1-0.5,1.1-1.1l0,0c0-0.6-0.5-1.1-1.1-1.1h-6.6c-0.6,0-1.1,0.5-1.1,1.1l0,0
					C46.4,253.3,46.9,253.8,47.5,253.8z"/>
				<path class="st0" d="M68.8,109.3h6.6c0.6,0,1.1-0.5,1.1-1.1l0,0c0-0.6-0.5-1.1-1.1-1.1h-6.6c-0.6,0-1.1,0.5-1.1,1.1l0,0
					C67.7,108.8,68.2,109.3,68.8,109.3z"/>
				<path class="st0" d="M68.8,90.1h6.6c0.6,0,1.1-0.5,1.1-1.1l0,0c0-0.6-0.5-1.1-1.1-1.1h-6.6c-0.6,0-1.1,0.5-1.1,1.1l0,0
					C67.7,89.6,68.2,90.1,68.8,90.1z"/>
				<path class="st0" d="M68.8,128.6h6.6c0.6,0,1.1-0.5,1.1-1.1l0,0c0-0.6-0.5-1.1-1.1-1.1h-6.6c-0.6,0-1.1,0.5-1.1,1.1l0,0
					C67.7,128.1,68.2,128.6,68.8,128.6z"/>
				<path class="st0" d="M68.8,147.8h6.6c0.6,0,1.1-0.5,1.1-1.1l0,0c0-0.6-0.5-1.1-1.1-1.1h-6.6c-0.6,0-1.1,0.5-1.1,1.1l0,0
					C67.7,147.3,68.2,147.8,68.8,147.8z"/>
				<path class="st0" d="M68.8,167h6.6c0.6,0,1.1-0.5,1.1-1.1l0,0c0-0.6-0.5-1.1-1.1-1.1h-6.6c-0.6,0-1.1,0.5-1.1,1.1l0,0
					C67.7,166.5,68.2,167,68.8,167z"/>
				<path class="st0" d="M68.8,186.2h6.6c0.6,0,1.1-0.5,1.1-1.1l0,0c0-0.6-0.5-1.1-1.1-1.1h-6.6c-0.6,0-1.1,0.5-1.1,1.1l0,0
					C67.7,185.7,68.2,186.2,68.8,186.2z"/>
				<path class="st0" d="M68.8,205.5h6.6c0.6,0,1.1-0.5,1.1-1.1l0,0c0-0.6-0.5-1.1-1.1-1.1h-6.6c-0.6,0-1.1,0.5-1.1,1.1l0,0
					C67.7,205,68.2,205.5,68.8,205.5z"/>
				<path class="st0" d="M68.8,224.7h6.6c0.6,0,1.1-0.5,1.1-1.1l0,0c0-0.6-0.5-1.1-1.1-1.1h-6.6c-0.6,0-1.1,0.5-1.1,1.1l0,0
					C67.7,224.2,68.2,224.7,68.8,224.7z"/>
				<path class="st0" d="M68.8,243.9h6.6c0.6,0,1.1-0.5,1.1-1.1l0,0c0-0.6-0.5-1.1-1.1-1.1h-6.6c-0.6,0-1.1,0.5-1.1,1.1l0,0
					C67.7,243.4,68.2,243.9,68.8,243.9z"/>
				<path class="st0" d="M90.2,119.2h6.6c0.6,0,1.1-0.5,1.1-1.1l0,0c0-0.6-0.5-1.1-1.1-1.1h-6.6c-0.6,0-1.1,0.5-1.1,1.1l0,0
					C89,118.7,89.6,119.2,90.2,119.2z"/>
				<path class="st0" d="M90.2,100h6.6c0.6,0,1.1-0.5,1.1-1.1l0,0c0-0.6-0.5-1.1-1.1-1.1h-6.6c-0.6,0-1.1,0.5-1.1,1.1l0,0
					C89,99.5,89.6,100,90.2,100z"/>
				<path class="st0" d="M90.2,138.5h6.6c0.6,0,1.1-0.5,1.1-1.1l0,0c0-0.6-0.5-1.1-1.1-1.1h-6.6c-0.6,0-1.1,0.5-1.1,1.1l0,0
					C89,138,89.6,138.5,90.2,138.5z"/>
				<path class="st0" d="M90.2,157.7h6.6c0.6,0,1.1-0.5,1.1-1.1l0,0c0-0.6-0.5-1.1-1.1-1.1h-6.6c-0.6,0-1.1,0.5-1.1,1.1l0,0
					C89,157.2,89.6,157.7,90.2,157.7z"/>
				<path class="st0" d="M90.2,176.9h6.6c0.6,0,1.1-0.5,1.1-1.1l0,0c0-0.6-0.5-1.1-1.1-1.1h-6.6c-0.6,0-1.1,0.5-1.1,1.1l0,0
					C89,176.4,89.6,176.9,90.2,176.9z"/>
				<path class="st0" d="M90.2,196.1h6.6c0.6,0,1.1-0.5,1.1-1.1l0,0c0-0.6-0.5-1.1-1.1-1.1h-6.6c-0.6,0-1.1,0.5-1.1,1.1l0,0
					C89,195.6,89.6,196.1,90.2,196.1z"/>
				<path class="st0" d="M90.2,215.4h6.6c0.6,0,1.1-0.5,1.1-1.1l0,0c0-0.6-0.5-1.1-1.1-1.1h-6.6c-0.6,0-1.1,0.5-1.1,1.1l0,0
					C89,214.8,89.6,215.4,90.2,215.4z"/>
				<path class="st0" d="M90.2,234.6h6.6c0.6,0,1.1-0.5,1.1-1.1l0,0c0-0.6-0.5-1.1-1.1-1.1h-6.6c-0.6,0-1.1,0.5-1.1,1.1l0,0
					C89,234.1,89.6,234.6,90.2,234.6z"/>
				<path class="st0" d="M90.2,253.8h6.6c0.6,0,1.1-0.5,1.1-1.1l0,0c0-0.6-0.5-1.1-1.1-1.1h-6.6c-0.6,0-1.1,0.5-1.1,1.1l0,0
					C89,253.3,89.6,253.8,90.2,253.8z"/>
			</g>
			<path class="st0" d="M-12,111.5v-6.6c0-0.6-0.5-1.1-1.1-1.1l0,0c-0.6,0-1.1,0.5-1.1,1.1v6.6c0,0.6,0.5,1.1,1.1,1.1l0,0
				C-12.5,112.7-12,112.2-12,111.5z"/>
			<path class="st0" d="M-12,92.3v-6.6c0-0.6-0.5-1.1-1.1-1.1l0,0c-0.6,0-1.1,0.5-1.1,1.1v6.6c0,0.6,0.5,1.1,1.1,1.1l0,0
				C-12.5,93.4-12,92.9-12,92.3z"/>
			<path class="st0" d="M-12,150v-6.6c0-0.6-0.5-1.1-1.1-1.1l0,0c-0.6,0-1.1,0.5-1.1,1.1v6.6c0,0.6,0.5,1.1,1.1,1.1l0,0
				C-12.5,151.1-12,150.6-12,150z"/>
			<path class="st0" d="M-12,131v-6.6c0-0.6-0.5-1.1-1.1-1.1l0,0c-0.6,0-1.1,0.5-1.1,1.1v6.6c0,0.6,0.5,1.1,1.1,1.1l0,0
				C-12.5,132.2-12,131.7-12,131z"/>
			<path class="st0" d="M-12,188.2v-6.6c0-0.6-0.5-1.1-1.1-1.1l0,0c-0.6,0-1.1,0.5-1.1,1.1v6.6c0,0.6,0.5,1.1,1.1,1.1l0,0
				C-12.5,189.4-12,188.9-12,188.2z"/>
			<path class="st0" d="M-12,169v-6.6c0-0.6-0.5-1.1-1.1-1.1l0,0c-0.6,0-1.1,0.5-1.1,1.1v6.6c0,0.6,0.5,1.1,1.1,1.1l0,0
				C-12.5,170.2-12,169.6-12,169z"/>
			<path class="st0" d="M-12,226.7V220c0-0.6-0.5-1.1-1.1-1.1l0,0c-0.6,0-1.1,0.5-1.1,1.1v6.6c0,0.6,0.5,1.1,1.1,1.1l0,0
				C-12.5,227.8-12,227.3-12,226.7z"/>
			<path class="st0" d="M-12,246.1v-6.6c0-0.6-0.5-1.1-1.1-1.1l0,0c-0.6,0-1.1,0.5-1.1,1.1v6.6c0,0.6,0.5,1.1,1.1,1.1l0,0
				C-12.5,247.2-12,246.7-12,246.1z"/>
			<path class="st0" d="M-12,207.8v-6.6c0-0.6-0.5-1.1-1.1-1.1l0,0c-0.6,0-1.1,0.5-1.1,1.1v6.6c0,0.6,0.5,1.1,1.1,1.1l0,0
				C-12.5,208.9-12,208.4-12,207.8z"/>
			<path class="st0" d="M9.3,121.4v-6.6c0-0.6-0.5-1.1-1.1-1.1l0,0c-0.6,0-1.1,0.5-1.1,1.1v6.6c0,0.6,0.5,1.1,1.1,1.1l0,0
				C8.8,122.6,9.3,122.1,9.3,121.4z"/>
			<path class="st0" d="M9.3,102.2v-6.6c0-0.6-0.5-1.1-1.1-1.1l0,0c-0.6,0-1.1,0.5-1.1,1.1v6.6c0,0.6,0.5,1.1,1.1,1.1l0,0
				C8.8,103.3,9.3,102.8,9.3,102.2z"/>
			<path class="st0" d="M9.3,159.9v-6.6c0-0.6-0.5-1.1-1.1-1.1l0,0c-0.6,0-1.1,0.5-1.1,1.1v6.6c0,0.6,0.5,1.1,1.1,1.1l0,0
				C8.8,161,9.3,160.5,9.3,159.9z"/>
			<path class="st0" d="M9.3,140.9v-6.6c0-0.6-0.5-1.1-1.1-1.1l0,0c-0.6,0-1.1,0.5-1.1,1.1v6.6c0,0.6,0.5,1.1,1.1,1.1l0,0
				C8.8,142.1,9.3,141.6,9.3,140.9z"/>
			<path class="st0" d="M9.3,198.1v-6.6c0-0.6-0.5-1.1-1.1-1.1l0,0c-0.6,0-1.1,0.5-1.1,1.1v6.6c0,0.6,0.5,1.1,1.1,1.1l0,0
				C8.8,199.3,9.3,198.8,9.3,198.1z"/>
			<path class="st0" d="M9.3,178.9v-6.6c0-0.6-0.5-1.1-1.1-1.1l0,0c-0.6,0-1.1,0.5-1.1,1.1v6.6c0,0.6,0.5,1.1,1.1,1.1l0,0
				C8.8,180,9.3,179.5,9.3,178.9z"/>
			<path class="st0" d="M9.3,236.6V230c0-0.6-0.5-1.1-1.1-1.1l0,0c-0.6,0-1.1,0.5-1.1,1.1v6.6c0,0.6,0.5,1.1,1.1,1.1l0,0
				C8.8,237.7,9.3,237.2,9.3,236.6z"/>
			<path class="st0" d="M9.3,256v-6.6c0-0.6-0.5-1.1-1.1-1.1l0,0c-0.6,0-1.1,0.5-1.1,1.1v6.6c0,0.6,0.5,1.1,1.1,1.1l0,0
				C8.8,257.1,9.3,256.6,9.3,256z"/>
			<path class="st0" d="M9.3,217.6V211c0-0.6-0.5-1.1-1.1-1.1l0,0c-0.6,0-1.1,0.5-1.1,1.1v6.6c0,0.6,0.5,1.1,1.1,1.1l0,0
				C8.8,218.8,9.3,218.3,9.3,217.6z"/>
			<path class="st0" d="M30.6,111.5v-6.6c0-0.6-0.5-1.1-1.1-1.1l0,0c-0.6,0-1.1,0.5-1.1,1.1v6.6c0,0.6,0.5,1.1,1.1,1.1l0,0
				C30.1,112.7,30.6,112.2,30.6,111.5z"/>
			<path class="st0" d="M30.6,92.3v-6.6c0-0.6-0.5-1.1-1.1-1.1l0,0c-0.6,0-1.1,0.5-1.1,1.1v6.6c0,0.6,0.5,1.1,1.1,1.1l0,0
				C30.1,93.4,30.6,92.9,30.6,92.3z"/>
			<path class="st0" d="M30.6,150v-6.6c0-0.6-0.5-1.1-1.1-1.1l0,0c-0.6,0-1.1,0.5-1.1,1.1v6.6c0,0.6,0.5,1.1,1.1,1.1l0,0
				C30.1,151.1,30.6,150.6,30.6,150z"/>
			<path class="st0" d="M30.6,131v-6.6c0-0.6-0.5-1.1-1.1-1.1l0,0c-0.6,0-1.1,0.5-1.1,1.1v6.6c0,0.6,0.5,1.1,1.1,1.1l0,0
				C30.1,132.2,30.6,131.7,30.6,131z"/>
			<path class="st0" d="M30.6,188.2v-6.6c0-0.6-0.5-1.1-1.1-1.1l0,0c-0.6,0-1.1,0.5-1.1,1.1v6.6c0,0.6,0.5,1.1,1.1,1.1l0,0
				C30.1,189.4,30.6,188.9,30.6,188.2z"/>
			<path class="st0" d="M30.6,169v-6.6c0-0.6-0.5-1.1-1.1-1.1l0,0c-0.6,0-1.1,0.5-1.1,1.1v6.6c0,0.6,0.5,1.1,1.1,1.1l0,0
				C30.1,170.2,30.6,169.6,30.6,169z"/>
			<path class="st0" d="M30.6,226.7V220c0-0.6-0.5-1.1-1.1-1.1l0,0c-0.6,0-1.1,0.5-1.1,1.1v6.6c0,0.6,0.5,1.1,1.1,1.1l0,0
				C30.1,227.8,30.6,227.3,30.6,226.7z"/>
			<path class="st0" d="M30.6,246.1v-6.6c0-0.6-0.5-1.1-1.1-1.1l0,0c-0.6,0-1.1,0.5-1.1,1.1v6.6c0,0.6,0.5,1.1,1.1,1.1l0,0
				C30.1,247.2,30.6,246.7,30.6,246.1z"/>
			<path class="st0" d="M30.6,207.8v-6.6c0-0.6-0.5-1.1-1.1-1.1l0,0c-0.6,0-1.1,0.5-1.1,1.1v6.6c0,0.6,0.5,1.1,1.1,1.1l0,0
				C30.1,208.9,30.6,208.4,30.6,207.8z"/>
			<path class="st0" d="M52,121.2v-6.6c0-0.6-0.5-1.1-1.1-1.1l0,0c-0.6,0-1.1,0.5-1.1,1.1v6.6c0,0.6,0.5,1.1,1.1,1.1l0,0
				C51.5,122.4,52,121.9,52,121.2z"/>
			<path class="st0" d="M52,102v-6.6c0-0.6-0.5-1.1-1.1-1.1l0,0c-0.6,0-1.1,0.5-1.1,1.1v6.6c0,0.6,0.5,1.1,1.1,1.1l0,0
				C51.5,103.1,52,102.6,52,102z"/>
			<path class="st0" d="M52,159.7V153c0-0.6-0.5-1.1-1.1-1.1l0,0c-0.6,0-1.1,0.5-1.1,1.1v6.6c0,0.6,0.5,1.1,1.1,1.1l0,0
				C51.5,160.8,52,160.3,52,159.7z"/>
			<path class="st0" d="M52,140.7v-6.6c0-0.6-0.5-1.1-1.1-1.1l0,0c-0.6,0-1.1,0.5-1.1,1.1v6.6c0,0.6,0.5,1.1,1.1,1.1l0,0
				C51.5,141.9,52,141.4,52,140.7z"/>
			<path class="st0" d="M52,198v-6.6c0-0.6-0.5-1.1-1.1-1.1l0,0c-0.6,0-1.1,0.5-1.1,1.1v6.6c0,0.6,0.5,1.1,1.1,1.1l0,0
				C51.5,199.1,52,198.6,52,198z"/>
			<path class="st0" d="M52,178.7v-6.6c0-0.6-0.5-1.1-1.1-1.1l0,0c-0.6,0-1.1,0.5-1.1,1.1v6.6c0,0.6,0.5,1.1,1.1,1.1l0,0
				C51.5,179.9,52,179.4,52,178.7z"/>
			<path class="st0" d="M52,236.4v-6.6c0-0.6-0.5-1.1-1.1-1.1l0,0c-0.6,0-1.1,0.5-1.1,1.1v6.6c0,0.6,0.5,1.1,1.1,1.1l0,0
				C51.5,237.5,52,237,52,236.4z"/>
			<path class="st0" d="M52,255.8v-6.6c0-0.6-0.5-1.1-1.1-1.1l0,0c-0.6,0-1.1,0.5-1.1,1.1v6.6c0,0.6,0.5,1.1,1.1,1.1l0,0
				C51.5,256.9,52,256.4,52,255.8z"/>
			<path class="st0" d="M52,217.5v-6.6c0-0.6-0.5-1.1-1.1-1.1l0,0c-0.6,0-1.1,0.5-1.1,1.1v6.6c0,0.6,0.5,1.1,1.1,1.1l0,0
				C51.5,218.6,52,218.1,52,217.5z"/>
			<path class="st0" d="M73.3,111.3v-6.6c0-0.6-0.5-1.1-1.1-1.1l0,0c-0.6,0-1.1,0.5-1.1,1.1v6.6c0,0.6,0.5,1.1,1.1,1.1l0,0
				C72.8,112.5,73.3,112,73.3,111.3z"/>
			<path class="st0" d="M73.3,92.1v-6.6c0-0.6-0.5-1.1-1.1-1.1l0,0c-0.6,0-1.1,0.5-1.1,1.1v6.6c0,0.6,0.5,1.1,1.1,1.1l0,0
				C72.8,93.3,73.3,92.7,73.3,92.1z"/>
			<path class="st0" d="M73.3,149.8v-6.6c0-0.6-0.5-1.1-1.1-1.1l0,0c-0.6,0-1.1,0.5-1.1,1.1v6.6c0,0.6,0.5,1.1,1.1,1.1l0,0
				C72.8,150.9,73.3,150.4,73.3,149.8z"/>
			<path class="st0" d="M73.3,130.9v-6.6c0-0.6-0.5-1.1-1.1-1.1l0,0c-0.6,0-1.1,0.5-1.1,1.1v6.6c0,0.6,0.5,1.1,1.1,1.1l0,0
				C72.8,132,73.3,131.5,73.3,130.9z"/>
			<path class="st0" d="M73.3,188.1v-6.6c0-0.6-0.5-1.1-1.1-1.1l0,0c-0.6,0-1.1,0.5-1.1,1.1v6.6c0,0.6,0.5,1.1,1.1,1.1l0,0
				C72.8,189.2,73.3,188.7,73.3,188.1z"/>
			<path class="st0" d="M73.3,168.8v-6.6c0-0.6-0.5-1.1-1.1-1.1l0,0c-0.6,0-1.1,0.5-1.1,1.1v6.6c0,0.6,0.5,1.1,1.1,1.1l0,0
				C72.8,170,73.3,169.5,73.3,168.8z"/>
			<path class="st0" d="M73.3,226.5v-6.6c0-0.6-0.5-1.1-1.1-1.1l0,0c-0.6,0-1.1,0.5-1.1,1.1v6.6c0,0.6,0.5,1.1,1.1,1.1l0,0
				C72.8,227.6,73.3,227.1,73.3,226.5z"/>
			<path class="st0" d="M73.3,245.9v-6.6c0-0.6-0.5-1.1-1.1-1.1l0,0c-0.6,0-1.1,0.5-1.1,1.1v6.6c0,0.6,0.5,1.1,1.1,1.1l0,0
				C72.8,247,73.3,246.5,73.3,245.9z"/>
			<path class="st0" d="M73.3,207.6V201c0-0.6-0.5-1.1-1.1-1.1l0,0c-0.6,0-1.1,0.5-1.1,1.1v6.6c0,0.6,0.5,1.1,1.1,1.1l0,0
				C72.8,208.7,73.3,208.2,73.3,207.6z"/>
			<path class="st0" d="M94.6,121.1v-6.6c0-0.6-0.5-1.1-1.1-1.1l0,0c-0.6,0-1.1,0.5-1.1,1.1v6.6c0,0.6,0.5,1.1,1.1,1.1l0,0
				C94.1,122.2,94.6,121.7,94.6,121.1z"/>
			<path class="st0" d="M94.6,101.8v-6.6c0-0.6-0.5-1.1-1.1-1.1l0,0c-0.6,0-1.1,0.5-1.1,1.1v6.6c0,0.6,0.5,1.1,1.1,1.1l0,0
				C94.1,103,94.6,102.5,94.6,101.8z"/>
			<path class="st0" d="M94.6,159.5v-6.6c0-0.6-0.5-1.1-1.1-1.1l0,0c-0.6,0-1.1,0.5-1.1,1.1v6.6c0,0.6,0.5,1.1,1.1,1.1l0,0
				C94.1,160.6,94.6,160.1,94.6,159.5z"/>
			<path class="st0" d="M94.6,140.6V134c0-0.6-0.5-1.1-1.1-1.1l0,0c-0.6,0-1.1,0.5-1.1,1.1v6.6c0,0.6,0.5,1.1,1.1,1.1l0,0
				C94.1,141.7,94.6,141.2,94.6,140.6z"/>
			<path class="st0" d="M94.6,197.8v-6.6c0-0.6-0.5-1.1-1.1-1.1l0,0c-0.6,0-1.1,0.5-1.1,1.1v6.6c0,0.6,0.5,1.1,1.1,1.1l0,0
				C94.1,198.9,94.6,198.4,94.6,197.8z"/>
			<path class="st0" d="M94.6,178.5v-6.6c0-0.6-0.5-1.1-1.1-1.1l0,0c-0.6,0-1.1,0.5-1.1,1.1v6.6c0,0.6,0.5,1.1,1.1,1.1l0,0
				C94.1,179.7,94.6,179.2,94.6,178.5z"/>
			<path class="st0" d="M94.6,236.2v-6.6c0-0.6-0.5-1.1-1.1-1.1l0,0c-0.6,0-1.1,0.5-1.1,1.1v6.6c0,0.6,0.5,1.1,1.1,1.1l0,0
				C94.1,237.4,94.6,236.8,94.6,236.2z"/>
			<path class="st0" d="M94.6,255.6V249c0-0.6-0.5-1.1-1.1-1.1l0,0c-0.6,0-1.1,0.5-1.1,1.1v6.6c0,0.6,0.5,1.1,1.1,1.1l0,0
				C94.1,256.8,94.6,256.3,94.6,255.6z"/>
			<path class="st0" d="M94.6,217.3v-6.6c0-0.6-0.5-1.1-1.1-1.1l0,0c-0.6,0-1.1,0.5-1.1,1.1v6.6c0,0.6,0.5,1.1,1.1,1.1l0,0
				C94.1,218.4,94.6,217.9,94.6,217.3z"/>
		</g>
	</g>
</g>
<circle cx="84.8" cy="87.9" r="1.1"/>
<g>
	<path d="M83.8,90.9v0.3c-0.8,7.3-5.7,13.4-12.6,16c-0.6,0.3-1.3,0.5-1.9,0.6c-0.7,0.2-1.4,0.6-1.8,1.4c-0.4,0.7-0.6,1.5-0.4,2.1
		c0,0.1,0.1,0.2,0.1,0.3v0.1c0.2,0.5,0.3,1,0.4,1.5c0,0.7-0.3,1.6-0.8,2.1c-0.6,0.6-1.3,0.9-2.1,0.9H37.8c-0.3,0-0.4-0.2-0.4-0.4
		v-0.1c0.6-3,3.2-5,6.4-5h5.6c1.7,0,3-1.4,3-3c0-0.8-0.4-1.7-1.1-2.2c-2.8-2.4-4.4-5.6-4.7-9.3c-0.3-3.7,0.9-7.2,3.3-10
		c0.9-1.1,2-2,3.1-2.7c0.5-0.3,0.6-0.8,0.4-1.4c-0.3-0.5-0.8-0.6-1.5-0.4c-4.7,2.9-7.6,7.9-7.6,13.3c-1.7,1-3.7,1.3-5.6,0.7
		c-1.7-0.9-3.5-1.6-5.5-1.9c-0.8-0.2-1.6,0-2.3,0.5c-0.6,0.5-1.1,1.1-1.3,2V97c0,0.8-0.6,1.6-1.5,1.6c-0.3,0-0.6-0.1-0.8-0.2
		c-1.2-0.6-2.1-1.8-2.5-3.1c-0.4-1.3-0.2-2.8,0.5-4c0.5-0.8,1.2-1.6,2.1-2.1c1.3-0.5,2.6-0.6,4-0.5c3.7,0.4,7.1-2.2,7.7-5.9
		c0.4-2.2,1.5-4.2,3.3-5.7c0.4-0.4,0.5-0.9,0.3-1.4l-0.1-0.1c-0.4-0.4-0.9-0.5-1.4-0.2c-1.6,1.5-2.9,3.3-3.4,5.4
		c-1.6-1.5-4-1.8-5.9-0.7c-2.6,1.8-5.6,2.6-8.7,2.6c-2.1-0.4-3.8-1.8-4.2-3.9v-0.4c0.3-2.9,1.3-5.7,3-8.2c1.8-3.1,4.6-5.5,8.1-6.8
		c0,0.8,0,1.6,0,2.4c0,0.3,0.2,0.6,0.4,0.7c0.2,0.2,0.5,0.2,0.6,0.2c0.6,0,0.9-0.5,0.9-1.1c-0.5-4.8,1.5-9.7,5.4-13
		c2.9,4.1,3,9.4,0.1,13.6c-0.4,0.4-0.4,1,0.1,1.5c0.4,0.4,1,0.4,1.5-0.1l0.2-0.2c0.4-0.6,0.7-1.1,1-1.8c2.8,2.1,6.2,3.2,9.9,3.2
		c1.3,0,2.6-0.3,3.6-0.8c10.4-4.8,22.8-0.2,27.6,10.3c0.6,1.2,1,2.5,1.4,4c0.4,0.9,0.6,1.8,0.8,2.8V85h1.8l0.2-0.4
		c-0.2-0.8-0.3-1.6-0.6-2.3c-0.1-0.2-0.1-0.4-0.2-0.6c-0.1-0.2-0.1-0.3-0.2-0.5c-3-11.8-14.5-19.3-26.4-17.1
		c-3.1-4.5-4.9-9.6-5.4-15.1c-0.5-3.5,0.5-7,2.6-9.9c2.1-2.8,5.3-4.6,8.9-5.2c0.3,0.1,0.6,0,1,0h0.1c-3,5.6-1.6,12.6,3.6,16.3
		c4.8,3.6,10.2,6.6,15.8,8.9c9.5,4.1,15.8,13.4,16.2,23.7c0.7,8.5-2.7,16.6-9.1,21.9c-5.7,4.5-13.2,6.1-20.1,4.2
		c7.6-2.8,13-9.6,14-17.6 M103.3,82.7C102.9,71.6,96,61.6,86,57.3c-5.4-2.2-10.6-5.2-15.4-8.7c-4.4-3.3-5.6-9.3-2.9-14
		c0.3-0.5,0.4-0.9,0.2-1.4c-0.1-0.5-0.5-0.8-0.8-1h-0.2c-0.2,0-0.4,0-0.6-0.1c-0.2,0-0.3,0-0.4,0c-4.2,0-7.9,1.7-10.8,4.6
		c-2.9,3-4.4,6.8-4.3,10.9c0,0.6,0.1,1.3,0.2,1.8c0.5,5.4,2.3,10.8,5.4,15.4c-1.1,0.4-2.2,0.7-3.1,1.2c-0.8,0.4-1.7,0.6-2.8,0.6
		c-3.2,0.1-6.4-1-9.1-3c1.4-4.2,0.6-9-2.1-12.5c-0.6-0.8-1.7-0.9-2.5-0.4h-0.1l-0.1,0.1c-1.1,0.8-2,1.8-2.9,3
		c-1.3-1.9-3.1-3.5-5.3-4.4c-0.8-0.5-1.8-0.1-2.4,0.7c-2.4,4.2-2.8,9.3-1.1,13.9c-1.9,1.4-3.6,3.3-4.8,5.4c-1.8,2.7-2.9,5.6-3.2,9.1
		c0,0.3,0,0.6,0.1,0.8c0.6,3,3,5.2,6.2,5.6c3.6,0,6.9-1,9.9-2.9c1.5-0.7,3.2-0.3,4.2,1.1l0.2,0.4c-0.7,2.1-2.9,3.4-5.2,3.1
		c-1.7-0.2-3.3,0-5,0.6c-1.8,0.8-3,2.4-3.7,4.2c-0.6,1.8-0.5,3.8,0.4,5.4c0.6,1.3,1.7,2.4,3,3.2c0.8,0.5,1.8,0.6,2.8,0.3
		c0.9-0.3,1.7-0.9,2.1-1.8c0.3-0.6,0.5-1.3,0.5-1.8c0-0.5,0.5-0.9,0.9-0.9h0.2c1.8,0.4,3.5,0.9,5.1,1.8c2.2,0.6,4.5,0.6,6.6-0.4
		c0.6,3.9,2.4,7.4,5.3,9.8c0.4,0.3,0.5,0.9,0.2,1.3c-0.2,0.2-0.5,0.4-0.7,0.4h-5.6c-4,0-7.4,2.7-8.3,6.6c-0.2,0.6,0,1.3,0.3,1.8
		c0.4,0.6,0.9,0.9,1.6,1.1c0.1,0,0.1,0,0.2,0c0.1,0,0.2,0,0.3,0h26.7c2.8,0,5-2.2,5-5.1c0-0.6-0.2-1.4-0.5-2.1
		c-0.1-0.2-0.1-0.5,0-0.6c8.2,3,17.4,1.6,24.1-3.9C100.4,100.7,104.2,91.6,103.3,82.7z M30.3,61.2c-1.5,0.5-2.7,0.9-3.7,1.5
		c-1.3-3.8-0.8-8,1.1-11.5c1.9,0.9,3.6,2.5,4.6,4.4C31.4,57.4,30.6,59.2,30.3,61.2z"/>
	<circle cx="27.9" cy="72.3" r="1.1"/>
</g>
<circle cx="84.8" cy="91.2" r="1"/>
<circle cx="84.5" cy="84.6" r="1"/>
<rect class="st2" width="120" height="150"/>
</svg>
