<?xml version="1.0" encoding="utf-8"?>
<!-- Generator: Adobe Illustrator 24.1.0, SVG Export Plug-In . SVG Version: 6.00 Build 0)  -->
<svg version="1.1" id="Layer_1" xmlns="http://www.w3.org/2000/svg" xmlns:xlink="http://www.w3.org/1999/xlink" x="0px" y="0px"
	 viewBox="0 0 120 150" style="enable-background:new 0 0 120 150;" xml:space="preserve">
<style type="text/css">
	.st0{clip-path:url(#SVGID_1_);fill:#A9E3ED;}
	.st1{clip-path:url(#SVGID_1_);}
	.st2{clip-path:url(#SVGID_2_);}
	.st3{fill:#A9E3ED;}
</style>
<g>
	<defs>
		<rect id="SVGID_5_" x="0.8" y="0" width="120" height="150"/>
	</defs>
	<clipPath id="SVGID_1_">
		<use xlink:href="#SVGID_5_"  style="overflow:visible;"/>
	</clipPath>
	<circle class="st0" cx="102.9" cy="125.9" r="34.5"/>
	<g class="st1">
		<defs>
			<rect id="SVGID_7_" x="-16.3" y="-20.7" width="66.2" height="84.8"/>
		</defs>
		<clipPath id="SVGID_2_">
			<use xlink:href="#SVGID_7_"  style="overflow:visible;"/>
		</clipPath>
		<g class="st2">
			<g>
				<path class="st3" d="M-13-6.8h6.6c0.6,0,1.1-0.5,1.1-1.1v0C-5.2-8.5-5.7-9-6.3-9H-13c-0.6,0-1.1,0.5-1.1,1.1v0
					C-14.1-7.3-13.6-6.8-13-6.8z"/>
				<path class="st3" d="M-13-26h6.6c0.6,0,1.1-0.5,1.1-1.1v0c0-0.6-0.5-1.1-1.1-1.1H-13c-0.6,0-1.1,0.5-1.1,1.1v0
					C-14.1-26.5-13.6-26-13-26z"/>
				<path class="st3" d="M-13,12.5h6.6c0.6,0,1.1-0.5,1.1-1.1v0c0-0.6-0.5-1.1-1.1-1.1H-13c-0.6,0-1.1,0.5-1.1,1.1v0
					C-14.1,12-13.6,12.5-13,12.5z"/>
				<path class="st3" d="M-13,31.7h6.6c0.6,0,1.1-0.5,1.1-1.1v0c0-0.6-0.5-1.1-1.1-1.1H-13c-0.6,0-1.1,0.5-1.1,1.1v0
					C-14.1,31.2-13.6,31.7-13,31.7z"/>
				<path class="st3" d="M-13,50.9h6.6c0.6,0,1.1-0.5,1.1-1.1l0,0c0-0.6-0.5-1.1-1.1-1.1H-13c-0.6,0-1.1,0.5-1.1,1.1l0,0
					C-14.1,50.4-13.6,50.9-13,50.9z"/>
				<path class="st3" d="M-13,70.1h6.6c0.6,0,1.1-0.5,1.1-1.1l0,0c0-0.6-0.5-1.1-1.1-1.1H-13c-0.6,0-1.1,0.5-1.1,1.1l0,0
					C-14.1,69.6-13.6,70.1-13,70.1z"/>
				<path class="st3" d="M-13,89.4h6.6c0.6,0,1.1-0.5,1.1-1.1l0,0c0-0.6-0.5-1.1-1.1-1.1H-13c-0.6,0-1.1,0.5-1.1,1.1l0,0
					C-14.1,88.9-13.6,89.4-13,89.4z"/>
				<path class="st3" d="M-13,108.6h6.6c0.6,0,1.1-0.5,1.1-1.1v0c0-0.6-0.5-1.1-1.1-1.1H-13c-0.6,0-1.1,0.5-1.1,1.1v0
					C-14.1,108.1-13.6,108.6-13,108.6z"/>
				<path class="st3" d="M-13,127.8h6.6c0.6,0,1.1-0.5,1.1-1.1l0,0c0-0.6-0.5-1.1-1.1-1.1H-13c-0.6,0-1.1,0.5-1.1,1.1l0,0
					C-14.1,127.3-13.6,127.8-13,127.8z"/>
				<path class="st3" d="M8.4,3.1H15c0.6,0,1.1-0.5,1.1-1.1v0c0-0.6-0.5-1.1-1.1-1.1l-6.6,0C7.7,0.9,7.2,1.4,7.2,2v0
					C7.2,2.6,7.7,3.1,8.4,3.1z"/>
				<path class="st3" d="M8.4-16.1H15c0.6,0,1.1-0.5,1.1-1.1v0c0-0.6-0.5-1.1-1.1-1.1H8.4c-0.6,0-1.1,0.5-1.1,1.1v0
					C7.2-16.6,7.7-16.1,8.4-16.1z"/>
				<path class="st3" d="M8.4,22.4H15c0.6,0,1.1-0.5,1.1-1.1v0c0-0.6-0.5-1.1-1.1-1.1H8.4c-0.6,0-1.1,0.5-1.1,1.1v0
					C7.2,21.9,7.7,22.4,8.4,22.4z"/>
				<path class="st3" d="M8.4,41.6H15c0.6,0,1.1-0.5,1.1-1.1l0,0c0-0.6-0.5-1.1-1.1-1.1H8.4c-0.6,0-1.1,0.5-1.1,1.1l0,0
					C7.2,41.1,7.7,41.6,8.4,41.6z"/>
				<path class="st3" d="M8.4,60.8H15c0.6,0,1.1-0.5,1.1-1.1v0c0-0.6-0.5-1.1-1.1-1.1H8.4c-0.6,0-1.1,0.5-1.1,1.1v0
					C7.2,60.3,7.7,60.8,8.4,60.8z"/>
				<path class="st3" d="M8.4,80H15c0.6,0,1.1-0.5,1.1-1.1l0,0c0-0.6-0.5-1.1-1.1-1.1H8.4c-0.6,0-1.1,0.5-1.1,1.1l0,0
					C7.2,79.5,7.7,80,8.4,80z"/>
				<path class="st3" d="M8.4,99.3H15c0.6,0,1.1-0.5,1.1-1.1v0c0-0.6-0.5-1.1-1.1-1.1H8.4c-0.6,0-1.1,0.5-1.1,1.1v0
					C7.2,98.8,7.7,99.3,8.4,99.3z"/>
				<path class="st3" d="M8.4,118.5H15c0.6,0,1.1-0.5,1.1-1.1l0,0c0-0.6-0.5-1.1-1.1-1.1H8.4c-0.6,0-1.1,0.5-1.1,1.1l0,0
					C7.2,118,7.7,118.5,8.4,118.5z"/>
				<path class="st3" d="M8.4,137.7H15c0.6,0,1.1-0.5,1.1-1.1l0,0c0-0.6-0.5-1.1-1.1-1.1H8.4c-0.6,0-1.1,0.5-1.1,1.1l0,0
					C7.2,137.2,7.7,137.7,8.4,137.7z"/>
				<path class="st3" d="M29.7-6.8h6.6c0.6,0,1.1-0.5,1.1-1.1v0C37.5-8.5,37-9,36.3-9h-6.6c-0.6,0-1.1,0.5-1.1,1.1v0
					C28.6-7.3,29.1-6.8,29.7-6.8z"/>
				<path class="st3" d="M29.7-26h6.6c0.6,0,1.1-0.5,1.1-1.1v0c0-0.6-0.5-1.1-1.1-1.1h-6.6c-0.6,0-1.1,0.5-1.1,1.1v0
					C28.6-26.5,29.1-26,29.7-26z"/>
				<path class="st3" d="M29.7,12.5h6.6c0.6,0,1.1-0.5,1.1-1.1v0c0-0.6-0.5-1.1-1.1-1.1h-6.6c-0.6,0-1.1,0.5-1.1,1.1v0
					C28.6,12,29.1,12.5,29.7,12.5z"/>
				<path class="st3" d="M29.7,31.7h6.6c0.6,0,1.1-0.5,1.1-1.1v0c0-0.6-0.5-1.1-1.1-1.1h-6.6c-0.6,0-1.1,0.5-1.1,1.1v0
					C28.6,31.2,29.1,31.7,29.7,31.7z"/>
				<path class="st3" d="M29.7,50.9h6.6c0.6,0,1.1-0.5,1.1-1.1l0,0c0-0.6-0.5-1.1-1.1-1.1h-6.6c-0.6,0-1.1,0.5-1.1,1.1l0,0
					C28.6,50.4,29.1,50.9,29.7,50.9z"/>
				<path class="st3" d="M29.7,70.1h6.6c0.6,0,1.1-0.5,1.1-1.1l0,0c0-0.6-0.5-1.1-1.1-1.1h-6.6c-0.6,0-1.1,0.5-1.1,1.1l0,0
					C28.6,69.6,29.1,70.1,29.7,70.1z"/>
				<path class="st3" d="M29.7,89.4h6.6c0.6,0,1.1-0.5,1.1-1.1l0,0c0-0.6-0.5-1.1-1.1-1.1h-6.6c-0.6,0-1.1,0.5-1.1,1.1l0,0
					C28.6,88.9,29.1,89.4,29.7,89.4z"/>
				<path class="st3" d="M29.7,108.6h6.6c0.6,0,1.1-0.5,1.1-1.1v0c0-0.6-0.5-1.1-1.1-1.1h-6.6c-0.6,0-1.1,0.5-1.1,1.1v0
					C28.6,108.1,29.1,108.6,29.7,108.6z"/>
				<path class="st3" d="M29.7,127.8h6.6c0.6,0,1.1-0.5,1.1-1.1l0,0c0-0.6-0.5-1.1-1.1-1.1h-6.6c-0.6,0-1.1,0.5-1.1,1.1l0,0
					C28.6,127.3,29.1,127.8,29.7,127.8z"/>
				<path class="st3" d="M51,3.1h6.6c0.6,0,1.1-0.5,1.1-1.1v0c0-0.6-0.5-1.1-1.1-1.1l-6.6,0c-0.6,0-1.1,0.5-1.1,1.1v0
					C49.9,2.6,50.4,3.1,51,3.1z"/>
				<path class="st3" d="M51-16.1h6.6c0.6,0,1.1-0.5,1.1-1.1v0c0-0.6-0.5-1.1-1.1-1.1H51c-0.6,0-1.1,0.5-1.1,1.1v0
					C49.9-16.6,50.4-16.1,51-16.1z"/>
				<path class="st3" d="M51,22.4h6.6c0.6,0,1.1-0.5,1.1-1.1v0c0-0.6-0.5-1.1-1.1-1.1H51c-0.6,0-1.1,0.5-1.1,1.1v0
					C49.9,21.9,50.4,22.4,51,22.4z"/>
				<path class="st3" d="M51,41.6h6.6c0.6,0,1.1-0.5,1.1-1.1l0,0c0-0.6-0.5-1.1-1.1-1.1H51c-0.6,0-1.1,0.5-1.1,1.1l0,0
					C49.9,41.1,50.4,41.6,51,41.6z"/>
				<path class="st3" d="M51,60.8h6.6c0.6,0,1.1-0.5,1.1-1.1v0c0-0.6-0.5-1.1-1.1-1.1H51c-0.6,0-1.1,0.5-1.1,1.1v0
					C49.9,60.3,50.4,60.8,51,60.8z"/>
				<path class="st3" d="M51,80h6.6c0.6,0,1.1-0.5,1.1-1.1l0,0c0-0.6-0.5-1.1-1.1-1.1H51c-0.6,0-1.1,0.5-1.1,1.1l0,0
					C49.9,79.5,50.4,80,51,80z"/>
				<path class="st3" d="M51,99.3h6.6c0.6,0,1.1-0.5,1.1-1.1v0c0-0.6-0.5-1.1-1.1-1.1H51c-0.6,0-1.1,0.5-1.1,1.1v0
					C49.9,98.8,50.4,99.3,51,99.3z"/>
				<path class="st3" d="M51,118.5h6.6c0.6,0,1.1-0.5,1.1-1.1l0,0c0-0.6-0.5-1.1-1.1-1.1H51c-0.6,0-1.1,0.5-1.1,1.1l0,0
					C49.9,118,50.4,118.5,51,118.5z"/>
				<path class="st3" d="M51,137.7h6.6c0.6,0,1.1-0.5,1.1-1.1l0,0c0-0.6-0.5-1.1-1.1-1.1H51c-0.6,0-1.1,0.5-1.1,1.1l0,0
					C49.9,137.2,50.4,137.7,51,137.7z"/>
				<path class="st3" d="M72.4-6.8H79c0.6,0,1.1-0.5,1.1-1.1v0C80.1-8.5,79.6-9,79-9h-6.6c-0.6,0-1.1,0.5-1.1,1.1v0
					C71.2-7.3,71.7-6.8,72.4-6.8z"/>
				<path class="st3" d="M72.4-26H79c0.6,0,1.1-0.5,1.1-1.1v0c0-0.6-0.5-1.1-1.1-1.1h-6.6c-0.6,0-1.1,0.5-1.1,1.1v0
					C71.2-26.5,71.7-26,72.4-26z"/>
				<path class="st3" d="M72.4,12.5H79c0.6,0,1.1-0.5,1.1-1.1v0c0-0.6-0.5-1.1-1.1-1.1h-6.6c-0.6,0-1.1,0.5-1.1,1.1v0
					C71.2,12,71.7,12.5,72.4,12.5z"/>
				<path class="st3" d="M72.4,31.7H79c0.6,0,1.1-0.5,1.1-1.1v0c0-0.6-0.5-1.1-1.1-1.1h-6.6c-0.6,0-1.1,0.5-1.1,1.1v0
					C71.2,31.2,71.7,31.7,72.4,31.7z"/>
				<path class="st3" d="M72.4,50.9H79c0.6,0,1.1-0.5,1.1-1.1l0,0c0-0.6-0.5-1.1-1.1-1.1h-6.6c-0.6,0-1.1,0.5-1.1,1.1l0,0
					C71.2,50.4,71.7,50.9,72.4,50.9z"/>
				<path class="st3" d="M72.4,70.1H79c0.6,0,1.1-0.5,1.1-1.1l0,0c0-0.6-0.5-1.1-1.1-1.1h-6.6c-0.6,0-1.1,0.5-1.1,1.1l0,0
					C71.2,69.6,71.7,70.1,72.4,70.1z"/>
				<path class="st3" d="M72.4,89.4H79c0.6,0,1.1-0.5,1.1-1.1l0,0c0-0.6-0.5-1.1-1.1-1.1h-6.6c-0.6,0-1.1,0.5-1.1,1.1l0,0
					C71.2,88.9,71.7,89.4,72.4,89.4z"/>
				<path class="st3" d="M72.4,108.6H79c0.6,0,1.1-0.5,1.1-1.1v0c0-0.6-0.5-1.1-1.1-1.1h-6.6c-0.6,0-1.1,0.5-1.1,1.1v0
					C71.2,108.1,71.7,108.6,72.4,108.6z"/>
				<path class="st3" d="M72.4,127.8H79c0.6,0,1.1-0.5,1.1-1.1l0,0c0-0.6-0.5-1.1-1.1-1.1h-6.6c-0.6,0-1.1,0.5-1.1,1.1l0,0
					C71.2,127.3,71.7,127.8,72.4,127.8z"/>
				<path class="st3" d="M93.7,3.1h6.6c0.6,0,1.1-0.5,1.1-1.1v0c0-0.6-0.5-1.1-1.1-1.1l-6.6,0c-0.6,0-1.1,0.5-1.1,1.1v0
					C92.6,2.6,93.1,3.1,93.7,3.1z"/>
				<path class="st3" d="M93.7-16.1h6.6c0.6,0,1.1-0.5,1.1-1.1v0c0-0.6-0.5-1.1-1.1-1.1h-6.6c-0.6,0-1.1,0.5-1.1,1.1v0
					C92.6-16.6,93.1-16.1,93.7-16.1z"/>
				<path class="st3" d="M93.7,22.4h6.6c0.6,0,1.1-0.5,1.1-1.1v0c0-0.6-0.5-1.1-1.1-1.1h-6.6c-0.6,0-1.1,0.5-1.1,1.1v0
					C92.6,21.9,93.1,22.4,93.7,22.4z"/>
				<path class="st3" d="M93.7,41.6h6.6c0.6,0,1.1-0.5,1.1-1.1l0,0c0-0.6-0.5-1.1-1.1-1.1h-6.6c-0.6,0-1.1,0.5-1.1,1.1l0,0
					C92.6,41.1,93.1,41.6,93.7,41.6z"/>
				<path class="st3" d="M93.7,60.8h6.6c0.6,0,1.1-0.5,1.1-1.1v0c0-0.6-0.5-1.1-1.1-1.1h-6.6c-0.6,0-1.1,0.5-1.1,1.1v0
					C92.6,60.3,93.1,60.8,93.7,60.8z"/>
				<path class="st3" d="M93.7,80h6.6c0.6,0,1.1-0.5,1.1-1.1l0,0c0-0.6-0.5-1.1-1.1-1.1h-6.6c-0.6,0-1.1,0.5-1.1,1.1l0,0
					C92.6,79.5,93.1,80,93.7,80z"/>
				<path class="st3" d="M93.7,99.3h6.6c0.6,0,1.1-0.5,1.1-1.1v0c0-0.6-0.5-1.1-1.1-1.1h-6.6c-0.6,0-1.1,0.5-1.1,1.1v0
					C92.6,98.8,93.1,99.3,93.7,99.3z"/>
				<path class="st3" d="M93.7,118.5h6.6c0.6,0,1.1-0.5,1.1-1.1l0,0c0-0.6-0.5-1.1-1.1-1.1h-6.6c-0.6,0-1.1,0.5-1.1,1.1l0,0
					C92.6,118,93.1,118.5,93.7,118.5z"/>
				<path class="st3" d="M93.7,137.7h6.6c0.6,0,1.1-0.5,1.1-1.1l0,0c0-0.6-0.5-1.1-1.1-1.1h-6.6c-0.6,0-1.1,0.5-1.1,1.1l0,0
					C92.6,137.2,93.1,137.7,93.7,137.7z"/>
			</g>
			<path class="st3" d="M-8.5-4.6v-6.6c0-0.6-0.5-1.1-1.1-1.1h0c-0.6,0-1.1,0.5-1.1,1.1v6.6c0,0.6,0.5,1.1,1.1,1.1h0
				C-9-3.4-8.5-3.9-8.5-4.6z"/>
			<path class="st3" d="M-8.5-23.8v-6.6c0-0.6-0.5-1.1-1.1-1.1h0c-0.6,0-1.1,0.5-1.1,1.1v6.6c0,0.6,0.5,1.1,1.1,1.1h0
				C-9-22.7-8.5-23.2-8.5-23.8z"/>
			<path class="st3" d="M-8.5,33.9v-6.6c0-0.6-0.5-1.1-1.1-1.1h0c-0.6,0-1.1,0.5-1.1,1.1v6.6c0,0.6,0.5,1.1,1.1,1.1h0
				C-9,35-8.5,34.5-8.5,33.9z"/>
			<path class="st3" d="M-8.5,14.9V8.3c0-0.6-0.5-1.1-1.1-1.1h0c-0.6,0-1.1,0.5-1.1,1.1v6.6c0,0.6,0.5,1.1,1.1,1.1h0
				C-9,16.1-8.5,15.6-8.5,14.9z"/>
			<path class="st3" d="M-8.5,72.1v-6.6c0-0.6-0.5-1.1-1.1-1.1h0c-0.6,0-1.1,0.5-1.1,1.1v6.6c0,0.6,0.5,1.1,1.1,1.1h0
				C-9,73.3-8.5,72.8-8.5,72.1z"/>
			<path class="st3" d="M-8.5,52.9v-6.6c0-0.6-0.5-1.1-1.1-1.1h0c-0.6,0-1.1,0.5-1.1,1.1v6.6c0,0.6,0.5,1.1,1.1,1.1h0
				C-9,54.1-8.5,53.6-8.5,52.9z"/>
			<path class="st3" d="M-8.5,110.6V104c0-0.6-0.5-1.1-1.1-1.1h0c-0.6,0-1.1,0.5-1.1,1.1v6.6c0,0.6,0.5,1.1,1.1,1.1h0
				C-9,111.7-8.5,111.2-8.5,110.6z"/>
			<path class="st3" d="M-8.5,130v-6.6c0-0.6-0.5-1.1-1.1-1.1h0c-0.6,0-1.1,0.5-1.1,1.1v6.6c0,0.6,0.5,1.1,1.1,1.1h0
				C-9,131.1-8.5,130.6-8.5,130z"/>
			<path class="st3" d="M-8.5,91.7V85c0-0.6-0.5-1.1-1.1-1.1h0c-0.6,0-1.1,0.5-1.1,1.1v6.6c0,0.6,0.5,1.1,1.1,1.1h0
				C-9,92.8-8.5,92.3-8.5,91.7z"/>
			<path class="st3" d="M12.8,5.3v-6.6c0-0.6-0.5-1.1-1.1-1.1h0c-0.6,0-1.1,0.5-1.1,1.1v6.6c0,0.6,0.5,1.1,1.1,1.1h0
				C12.3,6.5,12.8,6,12.8,5.3z"/>
			<path class="st3" d="M12.8-13.9v-6.6c0-0.6-0.5-1.1-1.1-1.1h0c-0.6,0-1.1,0.5-1.1,1.1v6.6c0,0.6,0.5,1.1,1.1,1.1h0
				C12.3-12.8,12.8-13.3,12.8-13.9z"/>
			<path class="st3" d="M12.8,43.8v-6.6c0-0.6-0.5-1.1-1.1-1.1h0c-0.6,0-1.1,0.5-1.1,1.1v6.6c0,0.6,0.5,1.1,1.1,1.1h0
				C12.3,44.9,12.8,44.4,12.8,43.8z"/>
			<path class="st3" d="M12.8,24.8v-6.6c0-0.6-0.5-1.1-1.1-1.1h0c-0.6,0-1.1,0.5-1.1,1.1v6.6c0,0.6,0.5,1.1,1.1,1.1h0
				C12.3,26,12.8,25.5,12.8,24.8z"/>
			<path class="st3" d="M12.8,82v-6.6c0-0.6-0.5-1.1-1.1-1.1h0c-0.6,0-1.1,0.5-1.1,1.1V82c0,0.6,0.5,1.1,1.1,1.1h0
				C12.3,83.2,12.8,82.7,12.8,82z"/>
			<path class="st3" d="M12.8,62.8v-6.6c0-0.6-0.5-1.1-1.1-1.1h0c-0.6,0-1.1,0.5-1.1,1.1v6.6c0,0.6,0.5,1.1,1.1,1.1h0
				C12.3,64,12.8,63.4,12.8,62.8z"/>
			<path class="st3" d="M12.8,120.5v-6.6c0-0.6-0.5-1.1-1.1-1.1h0c-0.6,0-1.1,0.5-1.1,1.1v6.6c0,0.6,0.5,1.1,1.1,1.1h0
				C12.3,121.6,12.8,121.1,12.8,120.5z"/>
			<path class="st3" d="M12.8,139.9v-6.6c0-0.6-0.5-1.1-1.1-1.1h0c-0.6,0-1.1,0.5-1.1,1.1v6.6c0,0.6,0.5,1.1,1.1,1.1h0
				C12.3,141,12.8,140.5,12.8,139.9z"/>
			<path class="st3" d="M12.8,101.6v-6.6c0-0.6-0.5-1.1-1.1-1.1h0c-0.6,0-1.1,0.5-1.1,1.1v6.6c0,0.6,0.5,1.1,1.1,1.1h0
				C12.3,102.7,12.8,102.2,12.8,101.6z"/>
			<path class="st3" d="M34.2-4.6v-6.6c0-0.6-0.5-1.1-1.1-1.1l0,0c-0.6,0-1.1,0.5-1.1,1.1v6.6c0,0.6,0.5,1.1,1.1,1.1l0,0
				C33.7-3.4,34.2-3.9,34.2-4.6z"/>
			<path class="st3" d="M34.2-23.8v-6.6c0-0.6-0.5-1.1-1.1-1.1l0,0c-0.6,0-1.1,0.5-1.1,1.1v6.6c0,0.6,0.5,1.1,1.1,1.1l0,0
				C33.7-22.7,34.2-23.2,34.2-23.8z"/>
			<path class="st3" d="M34.2,33.9v-6.6c0-0.6-0.5-1.1-1.1-1.1l0,0c-0.6,0-1.1,0.5-1.1,1.1v6.6c0,0.6,0.5,1.1,1.1,1.1l0,0
				C33.7,35,34.2,34.5,34.2,33.9z"/>
			<path class="st3" d="M34.2,14.9V8.3c0-0.6-0.5-1.1-1.1-1.1l0,0c-0.6,0-1.1,0.5-1.1,1.1v6.6c0,0.6,0.5,1.1,1.1,1.1l0,0
				C33.7,16.1,34.2,15.6,34.2,14.9z"/>
			<path class="st3" d="M34.2,72.1v-6.6c0-0.6-0.5-1.1-1.1-1.1l0,0c-0.6,0-1.1,0.5-1.1,1.1v6.6c0,0.6,0.5,1.1,1.1,1.1l0,0
				C33.7,73.3,34.2,72.8,34.2,72.1z"/>
			<path class="st3" d="M34.2,52.9v-6.6c0-0.6-0.5-1.1-1.1-1.1l0,0c-0.6,0-1.1,0.5-1.1,1.1v6.6c0,0.6,0.5,1.1,1.1,1.1l0,0
				C33.7,54.1,34.2,53.6,34.2,52.9z"/>
			<path class="st3" d="M34.2,110.6V104c0-0.6-0.5-1.1-1.1-1.1l0,0c-0.6,0-1.1,0.5-1.1,1.1v6.6c0,0.6,0.5,1.1,1.1,1.1l0,0
				C33.7,111.7,34.2,111.2,34.2,110.6z"/>
			<path class="st3" d="M34.2,130v-6.6c0-0.6-0.5-1.1-1.1-1.1l0,0c-0.6,0-1.1,0.5-1.1,1.1v6.6c0,0.6,0.5,1.1,1.1,1.1l0,0
				C33.7,131.1,34.2,130.6,34.2,130z"/>
			<path class="st3" d="M34.2,91.7V85c0-0.6-0.5-1.1-1.1-1.1l0,0c-0.6,0-1.1,0.5-1.1,1.1v6.6c0,0.6,0.5,1.1,1.1,1.1l0,0
				C33.7,92.8,34.2,92.3,34.2,91.7z"/>
			<path class="st3" d="M55.5,5.1v-6.6c0-0.6-0.5-1.1-1.1-1.1l0,0c-0.6,0-1.1,0.5-1.1,1.1v6.6c0,0.6,0.5,1.1,1.1,1.1l0,0
				C55,6.3,55.5,5.8,55.5,5.1z"/>
			<path class="st3" d="M55.5-14.1v-6.6c0-0.6-0.5-1.1-1.1-1.1l0,0c-0.6,0-1.1,0.5-1.1,1.1v6.6c0,0.6,0.5,1.1,1.1,1.1l0,0
				C55-12.9,55.5-13.5,55.5-14.1z"/>
			<path class="st3" d="M55.5,43.6v-6.6c0-0.6-0.5-1.1-1.1-1.1l0,0c-0.6,0-1.1,0.5-1.1,1.1v6.6c0,0.6,0.5,1.1,1.1,1.1l0,0
				C55,44.7,55.5,44.2,55.5,43.6z"/>
			<path class="st3" d="M55.5,24.7V18c0-0.6-0.5-1.1-1.1-1.1l0,0c-0.6,0-1.1,0.5-1.1,1.1v6.6c0,0.6,0.5,1.1,1.1,1.1l0,0
				C55,25.8,55.5,25.3,55.5,24.7z"/>
			<path class="st3" d="M55.5,81.9v-6.6c0-0.6-0.5-1.1-1.1-1.1l0,0c-0.6,0-1.1,0.5-1.1,1.1v6.6c0,0.6,0.5,1.1,1.1,1.1l0,0
				C55,83,55.5,82.5,55.5,81.9z"/>
			<path class="st3" d="M55.5,62.6V56c0-0.6-0.5-1.1-1.1-1.1l0,0c-0.6,0-1.1,0.5-1.1,1.1v6.6c0,0.6,0.5,1.1,1.1,1.1l0,0
				C55,63.8,55.5,63.3,55.5,62.6z"/>
			<path class="st3" d="M55.5,120.3v-6.6c0-0.6-0.5-1.1-1.1-1.1l0,0c-0.6,0-1.1,0.5-1.1,1.1v6.6c0,0.6,0.5,1.1,1.1,1.1l0,0
				C55,121.4,55.5,120.9,55.5,120.3z"/>
			<path class="st3" d="M55.5,139.7v-6.6c0-0.6-0.5-1.1-1.1-1.1l0,0c-0.6,0-1.1,0.5-1.1,1.1v6.6c0,0.6,0.5,1.1,1.1,1.1l0,0
				C55,140.9,55.5,140.3,55.5,139.7z"/>
			<path class="st3" d="M55.5,101.4v-6.6c0-0.6-0.5-1.1-1.1-1.1l0,0c-0.6,0-1.1,0.5-1.1,1.1v6.6c0,0.6,0.5,1.1,1.1,1.1l0,0
				C55,102.5,55.5,102,55.5,101.4z"/>
			<path class="st3" d="M76.8-4.7v-6.6c0-0.6-0.5-1.1-1.1-1.1h0c-0.6,0-1.1,0.5-1.1,1.1v6.6c0,0.6,0.5,1.1,1.1,1.1h0
				C76.3-3.6,76.8-4.1,76.8-4.7z"/>
			<path class="st3" d="M76.8-24v-6.6c0-0.6-0.5-1.1-1.1-1.1h0c-0.6,0-1.1,0.5-1.1,1.1v6.6c0,0.6,0.5,1.1,1.1,1.1h0
				C76.3-22.8,76.8-23.3,76.8-24z"/>
			<path class="st3" d="M76.8,33.7v-6.6c0-0.6-0.5-1.1-1.1-1.1h0c-0.6,0-1.1,0.5-1.1,1.1v6.6c0,0.6,0.5,1.1,1.1,1.1h0
				C76.3,34.8,76.8,34.3,76.8,33.7z"/>
			<path class="st3" d="M76.8,14.8V8.1c0-0.6-0.5-1.1-1.1-1.1h0c-0.6,0-1.1,0.5-1.1,1.1v6.6c0,0.6,0.5,1.1,1.1,1.1h0
				C76.3,15.9,76.8,15.4,76.8,14.8z"/>
			<path class="st3" d="M76.8,72v-6.6c0-0.6-0.5-1.1-1.1-1.1h0c-0.6,0-1.1,0.5-1.1,1.1V72c0,0.6,0.5,1.1,1.1,1.1h0
				C76.3,73.1,76.8,72.6,76.8,72z"/>
			<path class="st3" d="M76.8,52.7v-6.6c0-0.6-0.5-1.1-1.1-1.1h0c-0.6,0-1.1,0.5-1.1,1.1v6.6c0,0.6,0.5,1.1,1.1,1.1h0
				C76.3,53.9,76.8,53.4,76.8,52.7z"/>
			<path class="st3" d="M76.8,110.4v-6.6c0-0.6-0.5-1.1-1.1-1.1h0c-0.6,0-1.1,0.5-1.1,1.1v6.6c0,0.6,0.5,1.1,1.1,1.1h0
				C76.3,111.5,76.8,111,76.8,110.4z"/>
			<path class="st3" d="M76.8,129.8v-6.6c0-0.6-0.5-1.1-1.1-1.1h0c-0.6,0-1.1,0.5-1.1,1.1v6.6c0,0.6,0.5,1.1,1.1,1.1h0
				C76.3,131,76.8,130.4,76.8,129.8z"/>
			<path class="st3" d="M76.8,91.5v-6.6c0-0.6-0.5-1.1-1.1-1.1h0c-0.6,0-1.1,0.5-1.1,1.1v6.6c0,0.6,0.5,1.1,1.1,1.1h0
				C76.3,92.6,76.8,92.1,76.8,91.5z"/>
			<path class="st3" d="M98.2,5v-6.6c0-0.6-0.5-1.1-1.1-1.1l0,0c-0.6,0-1.1,0.5-1.1,1.1V5c0,0.6,0.5,1.1,1.1,1.1l0,0
				C97.6,6.1,98.2,5.6,98.2,5z"/>
			<path class="st3" d="M98.2-14.3v-6.6c0-0.6-0.5-1.1-1.1-1.1l0,0c-0.6,0-1.1,0.5-1.1,1.1v6.6c0,0.6,0.5,1.1,1.1,1.1l0,0
				C97.6-13.1,98.2-13.6,98.2-14.3z"/>
			<path class="st3" d="M98.2,43.4v-6.6c0-0.6-0.5-1.1-1.1-1.1l0,0c-0.6,0-1.1,0.5-1.1,1.1v6.6c0,0.6,0.5,1.1,1.1,1.1l0,0
				C97.6,44.5,98.2,44,98.2,43.4z"/>
			<path class="st3" d="M98.2,24.5v-6.6c0-0.6-0.5-1.1-1.1-1.1l0,0c-0.6,0-1.1,0.5-1.1,1.1v6.6c0,0.6,0.5,1.1,1.1,1.1l0,0
				C97.6,25.6,98.2,25.1,98.2,24.5z"/>
			<path class="st3" d="M98.2,81.7V75c0-0.6-0.5-1.1-1.1-1.1l0,0c-0.6,0-1.1,0.5-1.1,1.1v6.6c0,0.6,0.5,1.1,1.1,1.1l0,0
				C97.6,82.8,98.2,82.3,98.2,81.7z"/>
			<path class="st3" d="M98.2,62.5v-6.6c0-0.6-0.5-1.1-1.1-1.1l0,0c-0.6,0-1.1,0.5-1.1,1.1v6.6c0,0.6,0.5,1.1,1.1,1.1l0,0
				C97.6,63.6,98.2,63.1,98.2,62.5z"/>
			<path class="st3" d="M98.2,120.1v-6.6c0-0.6-0.5-1.1-1.1-1.1l0,0c-0.6,0-1.1,0.5-1.1,1.1v6.6c0,0.6,0.5,1.1,1.1,1.1l0,0
				C97.6,121.3,98.2,120.8,98.2,120.1z"/>
			<path class="st3" d="M98.2,139.5v-6.6c0-0.6-0.5-1.1-1.1-1.1l0,0c-0.6,0-1.1,0.5-1.1,1.1v6.6c0,0.6,0.5,1.1,1.1,1.1l0,0
				C97.6,140.7,98.2,140.2,98.2,139.5z"/>
			<path class="st3" d="M98.2,101.2v-6.6c0-0.6-0.5-1.1-1.1-1.1l0,0c-0.6,0-1.1,0.5-1.1,1.1v6.6c0,0.6,0.5,1.1,1.1,1.1l0,0
				C97.6,102.3,98.2,101.8,98.2,101.2z"/>
		</g>
	</g>
	<g class="st1">
		<path d="M101,59.2c-0.9-1.5-2-2.9-3.1-4.3c-0.1-0.1-0.1-0.2-0.2-0.2l0,0c-11.2-12.5-30.4-13.6-42.9-2.4c-0.8,0.7-1.6,1.5-2.4,2.4
			l0,0c-0.1,0.1-0.1,0.1-0.2,0.2C51,56.3,50,57.7,49,59.2c-0.1,0.1-0.1,0.2-0.1,0.2c-2.8,4.7-4.3,10.1-4.3,15.6c0,0.4,0,0.7,0,1.1
			c0,0.6,0.5,1.1,1.1,1.1c0.6,0,1.1-0.5,1.1-1.1c0-0.3,0-0.7,0-1c0-4.6,1.1-9.1,3.2-13.1c2.7,3.8,4.1,8.4,4.1,13.1c0,0.3,0,0.6,0,1
			c0,0.6,0.4,1.1,1,1.1c0,0,0,0,0,0h0c0.6,0,1.1-0.5,1.1-1c0-0.3,0-0.7,0-1c0-5.5-1.8-10.8-5.1-15.2c0.6-0.9,1.2-1.8,1.9-2.6
			c4.1,5,6.3,11.3,6.3,17.8c0,0.4,0,0.8,0,1.2c0,0.6,0.4,1.1,1,1.1h0c0.6,0,1.1-0.5,1.1-1c0-0.4,0-0.8,0-1.3c0-7.1-2.5-14-7-19.4
			c10.7-11.3,28.6-11.8,39.9-1.1c0.4,0.3,0.7,0.7,1.1,1.1c-3.7,4.5-6.1,9.9-6.8,15.7c-0.1,0.6,0.3,1.1,0.9,1.2c0,0,0,0,0,0
			c0,0,0.1,0,0.1,0c0.6,0,1-0.4,1.1-1c0.6-5.2,2.8-10.2,6.1-14.3c0.7,0.8,1.3,1.7,1.9,2.6c-6.8,9-6.8,21.4,0,30.4
			c-0.6,0.9-1.2,1.8-1.9,2.6c-1.3-1.6-2.5-3.4-3.4-5.3c-0.3-0.5-0.9-0.8-1.5-0.5s-0.8,0.9-0.5,1.5l0,0c1.1,2.1,2.4,4.2,3.9,6
			c-0.5,0.5-1,1-1.5,1.4c-0.4,0.4-0.4,1.1,0,1.5c0.4,0.4,1.1,0.4,1.5,0.1c2.2-2,4-4.2,5.5-6.7c0-0.1,0.1-0.1,0.1-0.2
			c5.7-9.6,5.7-21.6,0-31.1C101.1,59.3,101.1,59.3,101,59.2z M100,88.1c-5.5-7.9-5.5-18.3,0-26.2C104.4,70.1,104.4,79.9,100,88.1z"
			/>
		<path d="M20.1,73.6L20.1,73.6c-0.5,0.4-0.6,1.1-0.3,1.6s1.1,0.6,1.5,0.2l0,0c0.5-0.3,0.6-1,0.3-1.5C21.3,73.4,20.6,73.2,20.1,73.6
			C20.1,73.6,20.1,73.6,20.1,73.6L20.1,73.6z"/>
		<path d="M19.1,88.2c0.2,0.1,0.3,0.3,0.5,0.4c-0.1,0.1-0.3,0.3-0.5,0.4c-4.2,3.9-3.5,9.2-1.1,12.5c1.6,2.2,4.4,3.9,7.4,3.9
			c1.7,0,3.3-0.5,4.8-1.4c2.3-1.4,4.1-3.8,5.4-7H54c4.9,4.7,11.2,7.6,18,8.3c0,0,0.1,0,0.1,0c0.6,0,1.1-0.5,1.1-1.1
			c0-0.6-0.4-1.1-1-1.1c-5.4-0.6-10.6-2.7-14.9-6.1h14.8c1.2,3.3,3,5.6,5.4,7c4.9,2.9,9.8,0.8,12.2-2.5c2.5-3.3,3.2-8.6-1.1-12.5
			c-0.2-0.1-0.3-0.3-0.5-0.4c0.1-0.1,0.3-0.3,0.5-0.4c4.3-3.9,3.5-9.2,1.1-12.5c-2.4-3.3-7.3-5.5-12.2-2.5c-2.3,1.4-4.1,3.8-5.4,7
			H35.6c-1.2-3.3-3-5.6-5.4-7c-1.8-1.1-3.8-1.5-5.7-1.3c-0.6,0.1-1,0.6-1,1.2c0.1,0.6,0.6,1,1.2,1l0,0c1.5-0.2,2.9,0.2,4.3,1
			c2.1,1.2,3.6,3.5,4.7,6.6c0.1,0.4,0.6,0.7,1,0.7h38c0.5,0,0.9-0.3,1-0.7c1-3.1,2.6-5.4,4.7-6.6c3.8-2.3,7.4-0.7,9.3,1.9
			c2,2.6,2.5,6.6-0.8,9.6c-0.4,0.4-0.9,0.8-1.4,1.1c-0.5,0.3-0.7,1-0.4,1.5c0.1,0.2,0.2,0.3,0.4,0.4c0.5,0.3,1,0.7,1.4,1.1
			c3.3,3,2.8,7,0.8,9.6c-1.9,2.6-5.6,4.2-9.3,1.9c-2.1-1.2-3.6-3.5-4.7-6.6c-0.1-0.4-0.6-0.7-1-0.7h-38c-0.5,0-0.9,0.3-1,0.7
			c-1,3.1-2.6,5.4-4.7,6.6c-3.8,2.3-7.4,0.6-9.3-1.9c-2-2.6-2.5-6.6,0.8-9.6c0.4-0.4,0.9-0.8,1.4-1.1c0.5-0.3,0.7-1,0.4-1.5
			c-0.1-0.2-0.2-0.3-0.4-0.4c-0.5-0.3-1-0.7-1.4-1.1c-2.4-2.2-3-5.3-1.6-8.3c0.3-0.5,0.1-1.2-0.5-1.5c-0.5-0.3-1.2-0.1-1.5,0.5
			c0,0,0,0,0,0.1C15.2,81.2,16,85.3,19.1,88.2z"/>
	</g>
</g>
</svg>
