<?xml version="1.0" encoding="utf-8"?>
<!-- Generator: Adobe Illustrator 24.1.0, SVG Export Plug-In . SVG Version: 6.00 Build 0)  -->
<svg version="1.1" id="Layer_1" xmlns="http://www.w3.org/2000/svg" xmlns:xlink="http://www.w3.org/1999/xlink" x="0px" y="0px"
	 viewBox="0 0 120 150" style="enable-background:new 0 0 120 150;" xml:space="preserve">
<style type="text/css">
	.st0{fill:#A9E3ED;}
</style>
<circle class="st0" cx="99.6" cy="122.3" r="34.5"/>
<path d="M101.1,55.3c-1-1.6-2.1-3.1-3.3-4.5c-0.1-0.1-0.1-0.2-0.2-0.2l0,0C85.7,37.3,65.5,36.2,52.3,48c-0.9,0.8-1.7,1.6-2.5,2.5
	l0,0c-0.1,0.1-0.1,0.1-0.2,0.2c-1.2,1.4-2.3,2.9-3.3,4.5c-0.1,0.1-0.1,0.2-0.2,0.3c-3,5-4.5,10.6-4.5,16.4c0,0.4,0,0.8,0,1.2
	c0,0.6,0.6,1.1,1.2,1.1c0.6,0,1.1-0.6,1.1-1.2c0-0.4,0-0.7,0-1.1c0-4.8,1.2-9.6,3.4-13.9c2.9,4.1,4.4,8.9,4.4,13.9c0,0.3,0,0.7,0,1
	c0,0.6,0.5,1.2,1.1,1.2c0,0,0,0,0,0h0c0.6,0,1.1-0.5,1.2-1.1c0-0.4,0-0.7,0-1.1c0-5.8-1.9-11.4-5.4-16c0.6-0.9,1.3-1.9,2-2.7
	c4.3,5.3,6.7,11.9,6.7,18.8c0,0.4,0,0.8,0,1.2c0,0.6,0.5,1.2,1.1,1.2h0c0.6,0,1.1-0.5,1.2-1.1c0-0.4,0-0.9,0-1.3
	c0-7.5-2.6-14.8-7.4-20.5C63.4,39.5,82.2,39,94.1,50.3c0.4,0.4,0.8,0.7,1.1,1.1c-3.9,4.7-6.4,10.5-7.2,16.5c-0.1,0.6,0.4,1.2,1,1.3
	c0,0,0,0,0,0c0,0,0.1,0,0.1,0c0.6,0,1.1-0.4,1.1-1c0.7-5.5,2.9-10.8,6.4-15.1c0.7,0.9,1.4,1.8,2,2.7c-7.2,9.5-7.2,22.6,0,32.1
	c-0.6,0.9-1.3,1.9-2,2.7c-1.4-1.7-2.6-3.6-3.6-5.6c-0.3-0.6-1-0.8-1.5-0.5s-0.8,1-0.5,1.5l0,0c1.1,2.3,2.5,4.4,4.1,6.3
	c-0.5,0.5-1,1-1.5,1.5c-0.5,0.4-0.5,1.2,0,1.6c0.4,0.4,1.1,0.5,1.6,0.1c2.3-2.1,4.2-4.5,5.8-7.1c0.1-0.1,0.1-0.1,0.1-0.2
	c6-10.1,6-22.8,0-32.9C101.2,55.4,101.2,55.3,101.1,55.3z M100.1,85.8c-5.8-8.3-5.8-19.4,0-27.7C104.6,66.8,104.6,77.1,100.1,85.8z"
	/>
<path d="M15.6,70.5L15.6,70.5c-0.6,0.4-0.7,1.2-0.3,1.7c0.4,0.5,1.1,0.6,1.6,0.2l0,0c0.5-0.4,0.6-1.1,0.3-1.6
	C16.9,70.2,16.2,70.1,15.6,70.5C15.7,70.5,15.7,70.5,15.6,70.5L15.6,70.5z"/>
<path d="M14.6,85.9c0.2,0.2,0.3,0.3,0.5,0.4c-0.2,0.1-0.3,0.3-0.5,0.4c-4.5,4.1-3.7,9.7-1.1,13.2c1.7,2.3,4.6,4.1,7.9,4.1
	c1.8,0,3.5-0.5,5-1.5c2.5-1.5,4.4-4,5.7-7.4h19.4c5.2,4.9,11.9,8,19,8.7c0,0,0.1,0,0.1,0c0.6,0,1.2-0.5,1.2-1.1
	c0-0.6-0.5-1.1-1.1-1.2c-5.7-0.6-11.2-2.8-15.7-6.4h15.6c1.3,3.5,3.2,6,5.7,7.4c5.2,3.1,10.3,0.8,12.9-2.7c2.6-3.5,3.3-9.1-1.1-13.2
	c-0.2-0.2-0.3-0.3-0.5-0.4c0.2-0.1,0.3-0.3,0.5-0.4c4.5-4.1,3.7-9.7,1.1-13.2c-2.6-3.5-7.7-5.8-12.9-2.7c-2.5,1.5-4.4,4-5.7,7.4H32
	c-1.3-3.5-3.2-6-5.7-7.4c-1.9-1.1-4-1.6-6-1.4c-0.6,0.1-1.1,0.6-1,1.3c0.1,0.6,0.6,1.1,1.3,1l0,0c1.5-0.2,3.1,0.2,4.6,1.1
	c2.2,1.3,3.8,3.6,4.9,7c0.2,0.5,0.6,0.8,1.1,0.8h40.2c0.5,0,0.9-0.3,1.1-0.8c1.1-3.3,2.8-5.7,4.9-7c4-2.4,7.8-0.7,9.8,2.1
	c2.1,2.8,2.6,7-0.8,10.1c-0.5,0.4-0.9,0.8-1.5,1.1c-0.6,0.3-0.7,1-0.4,1.6c0.1,0.2,0.2,0.3,0.4,0.4c0.5,0.3,1,0.7,1.5,1.1
	c3.5,3.2,2.9,7.4,0.8,10.1c-2,2.7-5.9,4.4-9.8,2.1c-2.2-1.3-3.8-3.6-4.9-7c-0.2-0.5-0.6-0.8-1.1-0.8H31.2c-0.5,0-0.9,0.3-1.1,0.8
	c-1.1,3.3-2.8,5.7-4.9,7c-4,2.4-7.8,0.7-9.8-2.1c-2.1-2.8-2.6-7,0.8-10.1c0.4-0.4,0.9-0.8,1.4-1.1c0.6-0.3,0.7-1,0.4-1.6
	c-0.1-0.2-0.2-0.3-0.4-0.4c-0.5-0.3-1-0.7-1.5-1.1c-2.6-2.4-3.2-5.6-1.7-8.8c0.3-0.6,0.1-1.3-0.5-1.6c-0.6-0.3-1.3-0.1-1.6,0.5
	c0,0,0,0,0,0.1C10.4,78.5,11.3,82.9,14.6,85.9z"/>
</svg>
