<?xml version="1.0" encoding="utf-8"?>
<!-- Generator: Adobe Illustrator 24.1.0, SVG Export Plug-In . SVG Version: 6.00 Build 0)  -->
<svg version="1.1" id="Layer_1" xmlns="http://www.w3.org/2000/svg" xmlns:xlink="http://www.w3.org/1999/xlink" x="0px" y="0px"
	 viewBox="0 0 120 150" style="enable-background:new 0 0 120 150;" xml:space="preserve">
<style type="text/css">
	.st0{clip-path:url(#SVGID_1_);}
	.st1{clip-path:url(#SVGID_2_);}
	.st2{fill:#A9E3ED;}
	.st3{clip-path:url(#SVGID_1_);fill:#A9E3ED;}
</style>
<g>
	<defs>
		<rect id="SVGID_5_" y="0" width="120" height="150"/>
	</defs>
	<clipPath id="SVGID_1_">
		<use xlink:href="#SVGID_5_"  style="overflow:visible;"/>
	</clipPath>
	<g class="st0">
		<defs>
			<rect id="SVGID_7_" x="68.9" y="75.2" width="66.2" height="83.5"/>
		</defs>
		<clipPath id="SVGID_2_">
			<use xlink:href="#SVGID_7_"  style="overflow:visible;"/>
		</clipPath>
		<g class="st1">
			<g>
				<path class="st2" d="M72.2,89.1h6.6c0.6,0,1.1-0.5,1.1-1.1v0c0-0.6-0.5-1.1-1.1-1.1h-6.6c-0.6,0-1.1,0.5-1.1,1.1v0
					C71.1,88.6,71.6,89.1,72.2,89.1z"/>
				<path class="st2" d="M72.2,69.9h6.6c0.6,0,1.1-0.5,1.1-1.1l0,0c0-0.6-0.5-1.1-1.1-1.1h-6.6c-0.6,0-1.1,0.5-1.1,1.1l0,0
					C71.1,69.4,71.6,69.9,72.2,69.9z"/>
				<path class="st2" d="M72.2,108.4h6.6c0.6,0,1.1-0.5,1.1-1.1l0,0c0-0.6-0.5-1.1-1.1-1.1h-6.6c-0.6,0-1.1,0.5-1.1,1.1l0,0
					C71.1,107.9,71.6,108.4,72.2,108.4z"/>
				<path class="st2" d="M72.2,127.6h6.6c0.6,0,1.1-0.5,1.1-1.1l0,0c0-0.6-0.5-1.1-1.1-1.1h-6.6c-0.6,0-1.1,0.5-1.1,1.1l0,0
					C71.1,127.1,71.6,127.6,72.2,127.6z"/>
				<path class="st2" d="M72.2,146.8h6.6c0.6,0,1.1-0.5,1.1-1.1l0,0c0-0.6-0.5-1.1-1.1-1.1h-6.6c-0.6,0-1.1,0.5-1.1,1.1l0,0
					C71.1,146.3,71.6,146.8,72.2,146.8z"/>
				<path class="st2" d="M72.2,166h6.6c0.6,0,1.1-0.5,1.1-1.1l0,0c0-0.6-0.5-1.1-1.1-1.1h-6.6c-0.6,0-1.1,0.5-1.1,1.1l0,0
					C71.1,165.5,71.6,166,72.2,166z"/>
				<path class="st2" d="M72.2,185.3h6.6c0.6,0,1.1-0.5,1.1-1.1l0,0c0-0.6-0.5-1.1-1.1-1.1h-6.6c-0.6,0-1.1,0.5-1.1,1.1l0,0
					C71.1,184.8,71.6,185.3,72.2,185.3z"/>
				<path class="st2" d="M72.2,204.5h6.6c0.6,0,1.1-0.5,1.1-1.1l0,0c0-0.6-0.5-1.1-1.1-1.1h-6.6c-0.6,0-1.1,0.5-1.1,1.1l0,0
					C71.1,204,71.6,204.5,72.2,204.5z"/>
				<path class="st2" d="M72.2,223.7h6.6c0.6,0,1.1-0.5,1.1-1.1v0c0-0.6-0.5-1.1-1.1-1.1h-6.6c-0.6,0-1.1,0.5-1.1,1.1v0
					C71.1,223.2,71.6,223.7,72.2,223.7z"/>
				<path class="st2" d="M93.6,99h6.6c0.6,0,1.1-0.5,1.1-1.1l0,0c0-0.6-0.5-1.1-1.1-1.1h-6.6c-0.6,0-1.1,0.5-1.1,1.1l0,0
					C92.4,98.5,92.9,99,93.6,99z"/>
				<path class="st2" d="M93.6,79.8h6.6c0.6,0,1.1-0.5,1.1-1.1v0c0-0.6-0.5-1.1-1.1-1.1h-6.6c-0.6,0-1.1,0.5-1.1,1.1v0
					C92.4,79.3,92.9,79.8,93.6,79.8z"/>
				<path class="st2" d="M93.6,118.3h6.6c0.6,0,1.1-0.5,1.1-1.1l0,0c0-0.6-0.5-1.1-1.1-1.1h-6.6c-0.6,0-1.1,0.5-1.1,1.1l0,0
					C92.4,117.8,92.9,118.3,93.6,118.3z"/>
				<path class="st2" d="M93.6,137.5h6.6c0.6,0,1.1-0.5,1.1-1.1l0,0c0-0.6-0.5-1.1-1.1-1.1h-6.6c-0.6,0-1.1,0.5-1.1,1.1l0,0
					C92.4,137,92.9,137.5,93.6,137.5z"/>
				<path class="st2" d="M93.6,156.7h6.6c0.6,0,1.1-0.5,1.1-1.1v0c0-0.6-0.5-1.1-1.1-1.1h-6.6c-0.6,0-1.1,0.5-1.1,1.1v0
					C92.4,156.2,92.9,156.7,93.6,156.7z"/>
				<path class="st2" d="M93.6,175.9h6.6c0.6,0,1.1-0.5,1.1-1.1l0,0c0-0.6-0.5-1.1-1.1-1.1h-6.6c-0.6,0-1.1,0.5-1.1,1.1l0,0
					C92.4,175.4,92.9,175.9,93.6,175.9z"/>
				<path class="st2" d="M93.6,195.2h6.6c0.6,0,1.1-0.5,1.1-1.1l0,0c0-0.6-0.5-1.1-1.1-1.1h-6.6c-0.6,0-1.1,0.5-1.1,1.1l0,0
					C92.4,194.7,92.9,195.2,93.6,195.2z"/>
				<path class="st2" d="M93.6,214.4h6.6c0.6,0,1.1-0.5,1.1-1.1l0,0c0-0.6-0.5-1.1-1.1-1.1h-6.6c-0.6,0-1.1,0.5-1.1,1.1l0,0
					C92.4,213.9,92.9,214.4,93.6,214.4z"/>
				<path class="st2" d="M93.6,233.6h6.6c0.6,0,1.1-0.5,1.1-1.1l0,0c0-0.6-0.5-1.1-1.1-1.1h-6.6c-0.6,0-1.1,0.5-1.1,1.1l0,0
					C92.4,233.1,92.9,233.6,93.6,233.6z"/>
				<path class="st2" d="M114.9,89.1h6.6c0.6,0,1.1-0.5,1.1-1.1v0c0-0.6-0.5-1.1-1.1-1.1h-6.6c-0.6,0-1.1,0.5-1.1,1.1v0
					C113.8,88.6,114.3,89.1,114.9,89.1z"/>
				<path class="st2" d="M114.9,69.9h6.6c0.6,0,1.1-0.5,1.1-1.1l0,0c0-0.6-0.5-1.1-1.1-1.1h-6.6c-0.6,0-1.1,0.5-1.1,1.1l0,0
					C113.8,69.4,114.3,69.9,114.9,69.9z"/>
				<path class="st2" d="M114.9,108.4h6.6c0.6,0,1.1-0.5,1.1-1.1l0,0c0-0.6-0.5-1.1-1.1-1.1h-6.6c-0.6,0-1.1,0.5-1.1,1.1l0,0
					C113.8,107.9,114.3,108.4,114.9,108.4z"/>
				<path class="st2" d="M114.9,127.6h6.6c0.6,0,1.1-0.5,1.1-1.1l0,0c0-0.6-0.5-1.1-1.1-1.1h-6.6c-0.6,0-1.1,0.5-1.1,1.1l0,0
					C113.8,127.1,114.3,127.6,114.9,127.6z"/>
				<path class="st2" d="M114.9,146.8h6.6c0.6,0,1.1-0.5,1.1-1.1l0,0c0-0.6-0.5-1.1-1.1-1.1h-6.6c-0.6,0-1.1,0.5-1.1,1.1l0,0
					C113.8,146.3,114.3,146.8,114.9,146.8z"/>
				<path class="st2" d="M114.9,166h6.6c0.6,0,1.1-0.5,1.1-1.1l0,0c0-0.6-0.5-1.1-1.1-1.1h-6.6c-0.6,0-1.1,0.5-1.1,1.1l0,0
					C113.8,165.5,114.3,166,114.9,166z"/>
				<path class="st2" d="M114.9,185.3h6.6c0.6,0,1.1-0.5,1.1-1.1l0,0c0-0.6-0.5-1.1-1.1-1.1h-6.6c-0.6,0-1.1,0.5-1.1,1.1l0,0
					C113.8,184.8,114.3,185.3,114.9,185.3z"/>
				<path class="st2" d="M114.9,204.5h6.6c0.6,0,1.1-0.5,1.1-1.1l0,0c0-0.6-0.5-1.1-1.1-1.1h-6.6c-0.6,0-1.1,0.5-1.1,1.1l0,0
					C113.8,204,114.3,204.5,114.9,204.5z"/>
				<path class="st2" d="M114.9,223.7h6.6c0.6,0,1.1-0.5,1.1-1.1v0c0-0.6-0.5-1.1-1.1-1.1h-6.6c-0.6,0-1.1,0.5-1.1,1.1v0
					C113.8,223.2,114.3,223.7,114.9,223.7z"/>
				<path class="st2" d="M136.2,99h6.6c0.6,0,1.1-0.5,1.1-1.1l0,0c0-0.6-0.5-1.1-1.1-1.1h-6.6c-0.6,0-1.1,0.5-1.1,1.1l0,0
					C135.1,98.5,135.6,99,136.2,99z"/>
				<path class="st2" d="M136.2,79.8h6.6c0.6,0,1.1-0.5,1.1-1.1v0c0-0.6-0.5-1.1-1.1-1.1h-6.6c-0.6,0-1.1,0.5-1.1,1.1v0
					C135.1,79.3,135.6,79.8,136.2,79.8z"/>
				<path class="st2" d="M136.2,118.3h6.6c0.6,0,1.1-0.5,1.1-1.1l0,0c0-0.6-0.5-1.1-1.1-1.1h-6.6c-0.6,0-1.1,0.5-1.1,1.1l0,0
					C135.1,117.8,135.6,118.3,136.2,118.3z"/>
				<path class="st2" d="M136.2,137.5h6.6c0.6,0,1.1-0.5,1.1-1.1l0,0c0-0.6-0.5-1.1-1.1-1.1h-6.6c-0.6,0-1.1,0.5-1.1,1.1l0,0
					C135.1,137,135.6,137.5,136.2,137.5z"/>
				<path class="st2" d="M136.2,156.7h6.6c0.6,0,1.1-0.5,1.1-1.1v0c0-0.6-0.5-1.1-1.1-1.1h-6.6c-0.6,0-1.1,0.5-1.1,1.1v0
					C135.1,156.2,135.6,156.7,136.2,156.7z"/>
				<path class="st2" d="M136.2,175.9h6.6c0.6,0,1.1-0.5,1.1-1.1l0,0c0-0.6-0.5-1.1-1.1-1.1h-6.6c-0.6,0-1.1,0.5-1.1,1.1l0,0
					C135.1,175.4,135.6,175.9,136.2,175.9z"/>
				<path class="st2" d="M136.2,195.2h6.6c0.6,0,1.1-0.5,1.1-1.1l0,0c0-0.6-0.5-1.1-1.1-1.1h-6.6c-0.6,0-1.1,0.5-1.1,1.1l0,0
					C135.1,194.7,135.6,195.2,136.2,195.2z"/>
				<path class="st2" d="M136.2,214.4h6.6c0.6,0,1.1-0.5,1.1-1.1l0,0c0-0.6-0.5-1.1-1.1-1.1h-6.6c-0.6,0-1.1,0.5-1.1,1.1l0,0
					C135.1,213.9,135.6,214.4,136.2,214.4z"/>
				<path class="st2" d="M136.2,233.6h6.6c0.6,0,1.1-0.5,1.1-1.1l0,0c0-0.6-0.5-1.1-1.1-1.1h-6.6c-0.6,0-1.1,0.5-1.1,1.1l0,0
					C135.1,233.1,135.6,233.6,136.2,233.6z"/>
				<path class="st2" d="M157.6,89.1h6.6c0.6,0,1.1-0.5,1.1-1.1v0c0-0.6-0.5-1.1-1.1-1.1h-6.6c-0.6,0-1.1,0.5-1.1,1.1v0
					C156.4,88.6,156.9,89.1,157.6,89.1z"/>
				<path class="st2" d="M157.6,69.9h6.6c0.6,0,1.1-0.5,1.1-1.1l0,0c0-0.6-0.5-1.1-1.1-1.1h-6.6c-0.6,0-1.1,0.5-1.1,1.1l0,0
					C156.4,69.4,156.9,69.9,157.6,69.9z"/>
				<path class="st2" d="M157.6,108.4h6.6c0.6,0,1.1-0.5,1.1-1.1l0,0c0-0.6-0.5-1.1-1.1-1.1h-6.6c-0.6,0-1.1,0.5-1.1,1.1l0,0
					C156.4,107.9,156.9,108.4,157.6,108.4z"/>
				<path class="st2" d="M157.6,127.6h6.6c0.6,0,1.1-0.5,1.1-1.1l0,0c0-0.6-0.5-1.1-1.1-1.1h-6.6c-0.6,0-1.1,0.5-1.1,1.1l0,0
					C156.4,127.1,156.9,127.6,157.6,127.6z"/>
				<path class="st2" d="M157.6,146.8h6.6c0.6,0,1.1-0.5,1.1-1.1l0,0c0-0.6-0.5-1.1-1.1-1.1h-6.6c-0.6,0-1.1,0.5-1.1,1.1l0,0
					C156.4,146.3,156.9,146.8,157.6,146.8z"/>
				<path class="st2" d="M157.6,166h6.6c0.6,0,1.1-0.5,1.1-1.1l0,0c0-0.6-0.5-1.1-1.1-1.1h-6.6c-0.6,0-1.1,0.5-1.1,1.1l0,0
					C156.4,165.5,156.9,166,157.6,166z"/>
				<path class="st2" d="M157.6,185.3h6.6c0.6,0,1.1-0.5,1.1-1.1l0,0c0-0.6-0.5-1.1-1.1-1.1h-6.6c-0.6,0-1.1,0.5-1.1,1.1l0,0
					C156.4,184.8,156.9,185.3,157.6,185.3z"/>
				<path class="st2" d="M157.6,204.5h6.6c0.6,0,1.1-0.5,1.1-1.1l0,0c0-0.6-0.5-1.1-1.1-1.1h-6.6c-0.6,0-1.1,0.5-1.1,1.1l0,0
					C156.4,204,156.9,204.5,157.6,204.5z"/>
				<path class="st2" d="M157.6,223.7h6.6c0.6,0,1.1-0.5,1.1-1.1v0c0-0.6-0.5-1.1-1.1-1.1h-6.6c-0.6,0-1.1,0.5-1.1,1.1v0
					C156.4,223.2,156.9,223.7,157.6,223.7z"/>
				<path class="st2" d="M178.9,99h6.6c0.6,0,1.1-0.5,1.1-1.1l0,0c0-0.6-0.5-1.1-1.1-1.1h-6.6c-0.6,0-1.1,0.5-1.1,1.1l0,0
					C177.8,98.5,178.3,99,178.9,99z"/>
				<path class="st2" d="M178.9,79.8h6.6c0.6,0,1.1-0.5,1.1-1.1v0c0-0.6-0.5-1.1-1.1-1.1h-6.6c-0.6,0-1.1,0.5-1.1,1.1v0
					C177.8,79.3,178.3,79.8,178.9,79.8z"/>
				<path class="st2" d="M178.9,118.3h6.6c0.6,0,1.1-0.5,1.1-1.1l0,0c0-0.6-0.5-1.1-1.1-1.1h-6.6c-0.6,0-1.1,0.5-1.1,1.1l0,0
					C177.8,117.8,178.3,118.3,178.9,118.3z"/>
				<path class="st2" d="M178.9,137.5h6.6c0.6,0,1.1-0.5,1.1-1.1l0,0c0-0.6-0.5-1.1-1.1-1.1h-6.6c-0.6,0-1.1,0.5-1.1,1.1l0,0
					C177.8,137,178.3,137.5,178.9,137.5z"/>
				<path class="st2" d="M178.9,156.7h6.6c0.6,0,1.1-0.5,1.1-1.1v0c0-0.6-0.5-1.1-1.1-1.1h-6.6c-0.6,0-1.1,0.5-1.1,1.1v0
					C177.8,156.2,178.3,156.7,178.9,156.7z"/>
				<path class="st2" d="M178.9,175.9h6.6c0.6,0,1.1-0.5,1.1-1.1l0,0c0-0.6-0.5-1.1-1.1-1.1h-6.6c-0.6,0-1.1,0.5-1.1,1.1l0,0
					C177.8,175.4,178.3,175.9,178.9,175.9z"/>
				<path class="st2" d="M178.9,195.2h6.6c0.6,0,1.1-0.5,1.1-1.1l0,0c0-0.6-0.5-1.1-1.1-1.1h-6.6c-0.6,0-1.1,0.5-1.1,1.1l0,0
					C177.8,194.7,178.3,195.2,178.9,195.2z"/>
				<path class="st2" d="M178.9,214.4h6.6c0.6,0,1.1-0.5,1.1-1.1l0,0c0-0.6-0.5-1.1-1.1-1.1h-6.6c-0.6,0-1.1,0.5-1.1,1.1l0,0
					C177.8,213.9,178.3,214.4,178.9,214.4z"/>
				<path class="st2" d="M178.9,233.6h6.6c0.6,0,1.1-0.5,1.1-1.1l0,0c0-0.6-0.5-1.1-1.1-1.1h-6.6c-0.6,0-1.1,0.5-1.1,1.1l0,0
					C177.8,233.1,178.3,233.6,178.9,233.6z"/>
			</g>
			<path class="st2" d="M76.7,91.3v-6.6c0-0.6-0.5-1.1-1.1-1.1l0,0c-0.6,0-1.1,0.5-1.1,1.1v6.6c0,0.6,0.5,1.1,1.1,1.1l0,0
				C76.2,92.5,76.7,92,76.7,91.3z"/>
			<path class="st2" d="M76.7,72.1v-6.6c0-0.6-0.5-1.1-1.1-1.1l0,0c-0.6,0-1.1,0.5-1.1,1.1v6.6c0,0.6,0.5,1.1,1.1,1.1l0,0
				C76.2,73.2,76.7,72.7,76.7,72.1z"/>
			<path class="st2" d="M76.7,129.8v-6.6c0-0.6-0.5-1.1-1.1-1.1l0,0c-0.6,0-1.1,0.5-1.1,1.1v6.6c0,0.6,0.5,1.1,1.1,1.1l0,0
				C76.2,130.9,76.7,130.4,76.7,129.8z"/>
			<path class="st2" d="M76.7,110.8v-6.6c0-0.6-0.5-1.1-1.1-1.1l0,0c-0.6,0-1.1,0.5-1.1,1.1v6.6c0,0.6,0.5,1.1,1.1,1.1l0,0
				C76.2,112,76.7,111.5,76.7,110.8z"/>
			<path class="st2" d="M76.7,168.1v-6.6c0-0.6-0.5-1.1-1.1-1.1l0,0c-0.6,0-1.1,0.5-1.1,1.1v6.6c0,0.6,0.5,1.1,1.1,1.1l0,0
				C76.2,169.2,76.7,168.7,76.7,168.1z"/>
			<path class="st2" d="M76.7,148.8v-6.6c0-0.6-0.5-1.1-1.1-1.1l0,0c-0.6,0-1.1,0.5-1.1,1.1v6.6c0,0.6,0.5,1.1,1.1,1.1l0,0
				C76.2,150,76.7,149.5,76.7,148.8z"/>
			<path class="st2" d="M76.7,206.5v-6.6c0-0.6-0.5-1.1-1.1-1.1l0,0c-0.6,0-1.1,0.5-1.1,1.1v6.6c0,0.6,0.5,1.1,1.1,1.1l0,0
				C76.2,207.6,76.7,207.1,76.7,206.5z"/>
			<path class="st2" d="M76.7,225.9v-6.6c0-0.6-0.5-1.1-1.1-1.1l0,0c-0.6,0-1.1,0.5-1.1,1.1v6.6c0,0.6,0.5,1.1,1.1,1.1l0,0
				C76.2,227,76.7,226.5,76.7,225.9z"/>
			<path class="st2" d="M76.7,187.6v-6.6c0-0.6-0.5-1.1-1.1-1.1l0,0c-0.6,0-1.1,0.5-1.1,1.1v6.6c0,0.6,0.5,1.1,1.1,1.1l0,0
				C76.2,188.7,76.7,188.2,76.7,187.6z"/>
			<path class="st2" d="M98,101.2v-6.6c0-0.6-0.5-1.1-1.1-1.1l0,0c-0.6,0-1.1,0.5-1.1,1.1v6.6c0,0.6,0.5,1.1,1.1,1.1l0,0
				C97.5,102.4,98,101.9,98,101.2z"/>
			<path class="st2" d="M98,82v-6.6c0-0.6-0.5-1.1-1.1-1.1l0,0c-0.6,0-1.1,0.5-1.1,1.1V82c0,0.6,0.5,1.1,1.1,1.1l0,0
				C97.5,83.1,98,82.6,98,82z"/>
			<path class="st2" d="M98,139.7V133c0-0.6-0.5-1.1-1.1-1.1l0,0c-0.6,0-1.1,0.5-1.1,1.1v6.6c0,0.6,0.5,1.1,1.1,1.1l0,0
				C97.5,140.8,98,140.3,98,139.7z"/>
			<path class="st2" d="M98,120.7v-6.6c0-0.6-0.5-1.1-1.1-1.1l0,0c-0.6,0-1.1,0.5-1.1,1.1v6.6c0,0.6,0.5,1.1,1.1,1.1l0,0
				C97.5,121.9,98,121.4,98,120.7z"/>
			<path class="st2" d="M98,177.9v-6.6c0-0.6-0.5-1.1-1.1-1.1l0,0c-0.6,0-1.1,0.5-1.1,1.1v6.6c0,0.6,0.5,1.1,1.1,1.1l0,0
				C97.5,179.1,98,178.6,98,177.9z"/>
			<path class="st2" d="M98,158.7v-6.6c0-0.6-0.5-1.1-1.1-1.1l0,0c-0.6,0-1.1,0.5-1.1,1.1v6.6c0,0.6,0.5,1.1,1.1,1.1l0,0
				C97.5,159.9,98,159.3,98,158.7z"/>
			<path class="st2" d="M98,216.4v-6.6c0-0.6-0.5-1.1-1.1-1.1l0,0c-0.6,0-1.1,0.5-1.1,1.1v6.6c0,0.6,0.5,1.1,1.1,1.1l0,0
				C97.5,217.5,98,217,98,216.4z"/>
			<path class="st2" d="M98,235.8v-6.6c0-0.6-0.5-1.1-1.1-1.1l0,0c-0.6,0-1.1,0.5-1.1,1.1v6.6c0,0.6,0.5,1.1,1.1,1.1l0,0
				C97.5,236.9,98,236.4,98,235.8z"/>
			<path class="st2" d="M98,197.5v-6.6c0-0.6-0.5-1.1-1.1-1.1l0,0c-0.6,0-1.1,0.5-1.1,1.1v6.6c0,0.6,0.5,1.1,1.1,1.1l0,0
				C97.5,198.6,98,198.1,98,197.5z"/>
			<path class="st2" d="M119.4,91.3v-6.6c0-0.6-0.5-1.1-1.1-1.1l0,0c-0.6,0-1.1,0.5-1.1,1.1v6.6c0,0.6,0.5,1.1,1.1,1.1l0,0
				C118.8,92.5,119.4,92,119.4,91.3z"/>
			<path class="st2" d="M119.4,72.1v-6.6c0-0.6-0.5-1.1-1.1-1.1l0,0c-0.6,0-1.1,0.5-1.1,1.1v6.6c0,0.6,0.5,1.1,1.1,1.1l0,0
				C118.8,73.2,119.4,72.7,119.4,72.1z"/>
			<path class="st2" d="M119.4,129.8v-6.6c0-0.6-0.5-1.1-1.1-1.1l0,0c-0.6,0-1.1,0.5-1.1,1.1v6.6c0,0.6,0.5,1.1,1.1,1.1l0,0
				C118.8,130.9,119.4,130.4,119.4,129.8z"/>
			<path class="st2" d="M119.4,110.8v-6.6c0-0.6-0.5-1.1-1.1-1.1l0,0c-0.6,0-1.1,0.5-1.1,1.1v6.6c0,0.6,0.5,1.1,1.1,1.1l0,0
				C118.8,112,119.4,111.5,119.4,110.8z"/>
			<path class="st2" d="M119.4,168.1v-6.6c0-0.6-0.5-1.1-1.1-1.1l0,0c-0.6,0-1.1,0.5-1.1,1.1v6.6c0,0.6,0.5,1.1,1.1,1.1l0,0
				C118.8,169.2,119.4,168.7,119.4,168.1z"/>
			<path class="st2" d="M119.4,148.8v-6.6c0-0.6-0.5-1.1-1.1-1.1l0,0c-0.6,0-1.1,0.5-1.1,1.1v6.6c0,0.6,0.5,1.1,1.1,1.1l0,0
				C118.8,150,119.4,149.5,119.4,148.8z"/>
			<path class="st2" d="M119.4,206.5v-6.6c0-0.6-0.5-1.1-1.1-1.1l0,0c-0.6,0-1.1,0.5-1.1,1.1v6.6c0,0.6,0.5,1.1,1.1,1.1l0,0
				C118.8,207.6,119.4,207.1,119.4,206.5z"/>
			<path class="st2" d="M119.4,225.9v-6.6c0-0.6-0.5-1.1-1.1-1.1l0,0c-0.6,0-1.1,0.5-1.1,1.1v6.6c0,0.6,0.5,1.1,1.1,1.1l0,0
				C118.8,227,119.4,226.5,119.4,225.9z"/>
			<path class="st2" d="M119.4,187.6v-6.6c0-0.6-0.5-1.1-1.1-1.1l0,0c-0.6,0-1.1,0.5-1.1,1.1v6.6c0,0.6,0.5,1.1,1.1,1.1l0,0
				C118.8,188.7,119.4,188.2,119.4,187.6z"/>
			<path class="st2" d="M140.7,101.1v-6.6c0-0.6-0.5-1.1-1.1-1.1h0c-0.6,0-1.1,0.5-1.1,1.1v6.6c0,0.6,0.5,1.1,1.1,1.1h0
				C140.2,102.2,140.7,101.7,140.7,101.1z"/>
			<path class="st2" d="M140.7,81.8v-6.6c0-0.6-0.5-1.1-1.1-1.1h0c-0.6,0-1.1,0.5-1.1,1.1v6.6c0,0.6,0.5,1.1,1.1,1.1h0
				C140.2,83,140.7,82.5,140.7,81.8z"/>
			<path class="st2" d="M140.7,139.5v-6.6c0-0.6-0.5-1.1-1.1-1.1h0c-0.6,0-1.1,0.5-1.1,1.1v6.6c0,0.6,0.5,1.1,1.1,1.1h0
				C140.2,140.6,140.7,140.1,140.7,139.5z"/>
			<path class="st2" d="M140.7,120.6v-6.6c0-0.6-0.5-1.1-1.1-1.1h0c-0.6,0-1.1,0.5-1.1,1.1v6.6c0,0.6,0.5,1.1,1.1,1.1h0
				C140.2,121.7,140.7,121.2,140.7,120.6z"/>
			<path class="st2" d="M140.7,177.8v-6.6c0-0.6-0.5-1.1-1.1-1.1h0c-0.6,0-1.1,0.5-1.1,1.1v6.6c0,0.6,0.5,1.1,1.1,1.1h0
				C140.2,178.9,140.7,178.4,140.7,177.8z"/>
			<path class="st2" d="M140.7,158.5v-6.6c0-0.6-0.5-1.1-1.1-1.1h0c-0.6,0-1.1,0.5-1.1,1.1v6.6c0,0.6,0.5,1.1,1.1,1.1h0
				C140.2,159.7,140.7,159.2,140.7,158.5z"/>
			<path class="st2" d="M140.7,216.2v-6.6c0-0.6-0.5-1.1-1.1-1.1h0c-0.6,0-1.1,0.5-1.1,1.1v6.6c0,0.6,0.5,1.1,1.1,1.1h0
				C140.2,217.3,140.7,216.8,140.7,216.2z"/>
			<path class="st2" d="M140.7,235.6V229c0-0.6-0.5-1.1-1.1-1.1h0c-0.6,0-1.1,0.5-1.1,1.1v6.6c0,0.6,0.5,1.1,1.1,1.1h0
				C140.2,236.8,140.7,236.2,140.7,235.6z"/>
			<path class="st2" d="M140.7,197.3v-6.6c0-0.6-0.5-1.1-1.1-1.1h0c-0.6,0-1.1,0.5-1.1,1.1v6.6c0,0.6,0.5,1.1,1.1,1.1h0
				C140.2,198.4,140.7,197.9,140.7,197.3z"/>
			<path class="st2" d="M162,91.2v-6.6c0-0.6-0.5-1.1-1.1-1.1l0,0c-0.6,0-1.1,0.5-1.1,1.1v6.6c0,0.6,0.5,1.1,1.1,1.1l0,0
				C161.5,92.3,162,91.8,162,91.2z"/>
			<path class="st2" d="M162,71.9v-6.6c0-0.6-0.5-1.1-1.1-1.1l0,0c-0.6,0-1.1,0.5-1.1,1.1v6.6c0,0.6,0.5,1.1,1.1,1.1l0,0
				C161.5,73.1,162,72.6,162,71.9z"/>
			<path class="st2" d="M162,129.6V123c0-0.6-0.5-1.1-1.1-1.1l0,0c-0.6,0-1.1,0.5-1.1,1.1v6.6c0,0.6,0.5,1.1,1.1,1.1l0,0
				C161.5,130.7,162,130.2,162,129.6z"/>
			<path class="st2" d="M162,110.7V104c0-0.6-0.5-1.1-1.1-1.1l0,0c-0.6,0-1.1,0.5-1.1,1.1v6.6c0,0.6,0.5,1.1,1.1,1.1l0,0
				C161.5,111.8,162,111.3,162,110.7z"/>
			<path class="st2" d="M162,167.9v-6.6c0-0.6-0.5-1.1-1.1-1.1l0,0c-0.6,0-1.1,0.5-1.1,1.1v6.6c0,0.6,0.5,1.1,1.1,1.1l0,0
				C161.5,169,162,168.5,162,167.9z"/>
			<path class="st2" d="M162,148.6V142c0-0.6-0.5-1.1-1.1-1.1l0,0c-0.6,0-1.1,0.5-1.1,1.1v6.6c0,0.6,0.5,1.1,1.1,1.1l0,0
				C161.5,149.8,162,149.3,162,148.6z"/>
			<path class="st2" d="M162,206.3v-6.6c0-0.6-0.5-1.1-1.1-1.1l0,0c-0.6,0-1.1,0.5-1.1,1.1v6.6c0,0.6,0.5,1.1,1.1,1.1l0,0
				C161.5,207.4,162,206.9,162,206.3z"/>
			<path class="st2" d="M162,225.7v-6.6c0-0.6-0.5-1.1-1.1-1.1l0,0c-0.6,0-1.1,0.5-1.1,1.1v6.6c0,0.6,0.5,1.1,1.1,1.1l0,0
				C161.5,226.9,162,226.4,162,225.7z"/>
			<path class="st2" d="M162,187.4v-6.6c0-0.6-0.5-1.1-1.1-1.1l0,0c-0.6,0-1.1,0.5-1.1,1.1v6.6c0,0.6,0.5,1.1,1.1,1.1l0,0
				C161.5,188.5,162,188,162,187.4z"/>
			<path class="st2" d="M183.4,100.9v-6.6c0-0.6-0.5-1.1-1.1-1.1l0,0c-0.6,0-1.1,0.5-1.1,1.1v6.6c0,0.6,0.5,1.1,1.1,1.1l0,0
				C182.8,102,183.4,101.5,183.4,100.9z"/>
			<path class="st2" d="M183.4,81.6V75c0-0.6-0.5-1.1-1.1-1.1l0,0c-0.6,0-1.1,0.5-1.1,1.1v6.6c0,0.6,0.5,1.1,1.1,1.1l0,0
				C182.8,82.8,183.4,82.3,183.4,81.6z"/>
			<path class="st2" d="M183.4,139.3v-6.6c0-0.6-0.5-1.1-1.1-1.1l0,0c-0.6,0-1.1,0.5-1.1,1.1v6.6c0,0.6,0.5,1.1,1.1,1.1l0,0
				C182.8,140.4,183.4,139.9,183.4,139.3z"/>
			<path class="st2" d="M183.4,120.4v-6.6c0-0.6-0.5-1.1-1.1-1.1l0,0c-0.6,0-1.1,0.5-1.1,1.1v6.6c0,0.6,0.5,1.1,1.1,1.1l0,0
				C182.8,121.5,183.4,121,183.4,120.4z"/>
			<path class="st2" d="M183.4,177.6v-6.6c0-0.6-0.5-1.1-1.1-1.1l0,0c-0.6,0-1.1,0.5-1.1,1.1v6.6c0,0.6,0.5,1.1,1.1,1.1l0,0
				C182.8,178.7,183.4,178.2,183.4,177.6z"/>
			<path class="st2" d="M183.4,158.4v-6.6c0-0.6-0.5-1.1-1.1-1.1l0,0c-0.6,0-1.1,0.5-1.1,1.1v6.6c0,0.6,0.5,1.1,1.1,1.1l0,0
				C182.8,159.5,183.4,159,183.4,158.4z"/>
			<path class="st2" d="M183.4,216v-6.6c0-0.6-0.5-1.1-1.1-1.1l0,0c-0.6,0-1.1,0.5-1.1,1.1v6.6c0,0.6,0.5,1.1,1.1,1.1l0,0
				C182.8,217.2,183.4,216.7,183.4,216z"/>
			<path class="st2" d="M183.4,235.4v-6.6c0-0.6-0.5-1.1-1.1-1.1l0,0c-0.6,0-1.1,0.5-1.1,1.1v6.6c0,0.6,0.5,1.1,1.1,1.1l0,0
				C182.8,236.6,183.4,236.1,183.4,235.4z"/>
			<path class="st2" d="M183.4,197.1v-6.6c0-0.6-0.5-1.1-1.1-1.1l0,0c-0.6,0-1.1,0.5-1.1,1.1v6.6c0,0.6,0.5,1.1,1.1,1.1l0,0
				C182.8,198.2,183.4,197.7,183.4,197.1z"/>
		</g>
	</g>
	<circle class="st3" cx="13.3" cy="55.8" r="34.5"/>
	<g class="st0">
		<g>
			<path d="M40.6,98.2c0,0.6,0,5.7,0,5.7c0,1.2-0.6,2.4-1.6,3.1c-0.5,0.3-0.9,0.7-1.3,1.2l-0.1,0.1l-0.1,0
				c-3.9-0.5-7.8-1.3-11.6-2.3c-0.7-0.2-1.3-0.7-1.7-1.3s-0.5-1.4-0.3-2.1c0.2-0.6,0.6-1.2,1.1-1.5c1.4-1,2.2-2.6,2.2-4.3
				c0-0.7-0.6-1.2-1.2-1.2s-1.2,0.6-1.2,1.2c0,0.9-0.4,1.8-1.2,2.3c-2.4,1.7-2.9,5-1.3,7.4c0.7,1,1.7,1.7,2.9,2
				c3.6,1,7.3,1.8,11,2.3l0.3,0l-0.1,0.3c-0.6,3.2,1.3,6.3,4.4,7.2c9.1,2.6,18.6,3.9,28.1,3.9c0,0,0,0,0,0c9.5,0,19-1.3,28.1-3.9
				c1.6-0.4,2.9-1.5,3.8-3c0.8-1.5,1-3.1,0.6-4.7c-0.4-1.4-1.2-2.6-2.4-3.4c-1-0.7-1.6-1.8-1.6-3.1V93.8c0-0.7-0.6-1.2-1.2-1.2
				s-1.2,0.6-1.2,1.2V104c0,2,1,3.9,2.6,5.1c0.8,0.6,1.4,1.4,1.5,2.4c0.2,1-0.1,2-0.6,2.8c-0.5,0.7-1.2,1.2-2,1.4
				c-17.9,5-36.9,5-54.9,0c-2-0.6-3.2-2.6-2.6-4.6c0.2-0.8,0.7-1.5,1.4-2c1.6-1.2,2.6-3.1,2.6-5.1V82.4c0-9.9,5.4-18.7,14.2-23.2
				l0.2-0.1l0.1,0.3c0.3,0.8,0.9,1.5,1.6,1.9c6,3.4,13.5,3.4,19.6,0c0.7-0.4,1.3-1.1,1.6-1.8l0.1-0.3l0.2,0.1
				C89.6,64,95.1,73.1,95.1,83v4.8c0,0.7,0.6,1.2,1.2,1.2s1.2-0.6,1.2-1.2V83c0.1-11.4-6.6-21.9-17-26.6l-0.1,0l0-0.1
				c-0.4-0.9-1.2-1.6-2.1-2c-1-0.4-2-0.3-2.9,0.1c-0.1,0-0.2,0.1-0.3,0.2c-0.7,0.4-1.5,0.7-2.3,1l-0.4,0.1l0.9-6.6
				c0-0.3,0-0.7-0.2-0.9c-0.2-0.3-0.5-0.4-0.8-0.5c-0.7-0.1-1.3,0.4-1.4,1.1l-1,7.3l-0.2,0c-0.3,0-0.6,0-0.9,0l-0.2,0l-1.2-11.8
				c-0.1-0.7-0.7-1.2-1.4-1.1c-0.7,0.1-1.2,0.7-1.1,1.4L66,55.7l-0.4-0.1c-0.9-0.3-1.7-0.6-2.5-1c-0.2-0.1-0.3-0.2-0.5-0.2l-0.1,0
				l-4.3-13.4c-0.7-2.3,0.5-4.8,2.8-5.5c1.3-0.4,2.8-0.2,4,0.7c2.5,1.8,5.8,1.8,8.2,0c1.9-1.4,4.7-1.1,6.1,0.9
				c0.8,1.1,1.1,2.6,0.7,4l-2.6,8.2c-0.2,0.7,0.1,1.4,0.8,1.6c0.3,0.1,0.7,0.1,1-0.1c0.3-0.2,0.5-0.4,0.6-0.7l2.6-8.2
				c0.6-1.7,0.4-3.6-0.4-5.2c-0.8-1.6-2.3-2.8-4-3.4c-2.1-0.7-4.4-0.3-6.2,1c-1.6,1.2-3.7,1.2-5.2,0c-1.5-1.1-3.3-1.6-5.1-1.3
				c-1.8,0.3-3.4,1.2-4.5,2.7c-1.3,1.8-1.7,4.1-1,6.2l4,12.6l-0.2,0.1c-0.1,0-0.3,0.1-0.4,0.2c-0.6,0.4-1.1,0.9-1.5,1.6l-0.2,0.3
				l-0.2-0.3c-0.4-0.4-0.8-0.8-1.3-1c-1-0.5-2.1-0.6-3.1-0.2c-0.3,0.1-0.6,0.2-0.9,0.3l-0.4,0.1l2.2-7.6c0.1-0.3,0.1-0.7-0.1-1
				c-0.2-0.3-0.4-0.5-0.7-0.6c-0.7-0.2-1.4,0.1-1.6,0.8L49,55.7l-0.2,0c-0.3,0-0.7,0-1,0l-0.2,0l-1.2-7c0-0.3-0.2-0.6-0.5-0.8
				c-0.3-0.2-0.6-0.3-0.9-0.2c-0.7,0.1-1.2,0.7-1.1,1.4l0,0.1l1.1,6.3l-0.4-0.1c-0.5-0.1-0.9-0.2-1.3-0.4c-0.3-0.1-0.6-0.2-0.9-0.2
				l-0.2,0l-2.9-9.1c-0.3-0.9-0.2-1.8,0.2-2.6c0.4-0.8,1.1-1.4,2-1.7c1.1-0.3,2.2-0.2,3.1,0.5c2.1,1.6,5,1.6,7.1,0
				c0.5-0.4,0.7-1.2,0.2-1.7c-0.2-0.3-0.5-0.4-0.8-0.5c-0.3,0-0.7,0-0.9,0.2c-1.2,0.9-2.9,0.9-4.1,0c-2.6-2-6.3-1.4-8.2,1.1
				c-1.2,1.5-1.5,3.5-0.9,5.4l2.9,9l-0.2,0.1c-0.9,0.6-1.4,1.5-1.6,2.6l0,0.1l-0.1,0.1c-8,3.9-13,11.9-13,20.9v11.6
				c0,0.7,0.6,1.2,1.2,1.2s1.2-0.6,1.2-1.2V79.2c0-7.6,4.2-14.6,10.9-18.3l0.2-0.1l0.1,0.2c0.5,0.8,1.3,1.4,2.2,1.7
				c2,0.7,4.1,1,6.2,1.1l0.5,0l-0.3,0.4c-1.4,1.7-3.7,5.6-3.7,5.6C39.6,75.5,40.6,89.8,40.6,98.2z M60.6,56.7c0.3-0.2,0.6-0.2,1-0.2
				c0.2,0,0.3,0.1,0.4,0.2c1.7,1,3.5,1.6,5.5,1.8l0,0.3h0l0.1-0.2c3.1,0.4,6.2-0.3,8.9-1.8c0.3-0.2,0.7-0.2,1-0.1
				c0.3,0.1,0.6,0.3,0.8,0.6c0.1,0.2,0.2,0.4,0.2,0.7c0,0.5-0.3,0.9-0.7,1.2c-2.6,1.5-5.6,2.2-8.5,2.2c-3,0-5.9-0.7-8.5-2.2
				c-0.4-0.2-0.7-0.7-0.7-1.2C59.9,57.4,60.1,57,60.6,56.7z M41.5,60.4L41.5,60.4c-0.5-0.2-0.9-0.6-1-1.1h0l0-0.2c0,0,0,0,0-0.1
				c0-0.1,0-0.1,0-0.1c0-0.5,0.2-1,0.7-1.3c0.2-0.1,0.4-0.2,0.7-0.3l0.1,0c0.2,0,0.4,0,0.7,0.1c1.3,0.4,2.6,0.7,3.9,0.8l0.1,0
				c1.1,0.1,2.3,0.1,3.4,0l0.1,0c0,0,0.1,0,0.1,0c1.3-0.1,2.5-0.4,3.7-0.8c0.3-0.1,0.6-0.1,0.9,0l0.6,0.2l-0.5,0.3
				c-1.7,1-3.3,2.2-4.8,3.5l-0.1,0.1l-0.1,0c-0.6,0.1-1.2,0.1-1.8,0.1C45.8,61.4,43.6,61.1,41.5,60.4z"/>
		</g>
	</g>
	<g class="st0">
		<path d="M53.3,83.4c0.4-0.4,0.5-1.1,0.1-1.5C52.5,81,52,79.8,52,78.5l0,0c0-0.6-0.4-1.1-1-1.1c-0.6,0-1.1,0.4-1.1,1
			c0,1.9,0.7,3.6,2,5c0,0,0,0,0,0C52.3,83.8,52.9,83.8,53.3,83.4C53.3,83.4,53.3,83.4,53.3,83.4z"/>
		<path d="M80,108.1c0.3,0,0.6-0.1,0.8-0.3c1.3-1.4,2-3.1,2-5c0-0.6-0.6-1-1.1-1c-0.5,0-1,0.5-1,1.1c0,1.3-0.5,2.5-1.4,3.5
			c-0.4,0.4-0.4,1.1,0.1,1.5C79.4,108,79.7,108.1,80,108.1L80,108.1z"/>
		<path d="M83.8,107.9c0.4,0.4,1.1,0.4,1.5-0.1c1.3-1.4,2-3.1,2-5c0-0.6-0.5-1-1.1-1c-0.6,0-1,0.5-1,1.1l0,0c0,1.3-0.5,2.5-1.4,3.5
			C83.3,106.8,83.3,107.5,83.8,107.9C83.8,107.9,83.8,107.9,83.8,107.9z"/>
	</g>
	<g class="st0">
		<path d="M34.7,101.8c0.4-0.4,0.5-1.1,0.1-1.5c-0.9-0.9-1.4-2.2-1.4-3.5l0,0c0-0.6-0.4-1.1-1-1.1c-0.6,0-1.1,0.4-1.1,1
			c0,1.9,0.7,3.6,2,5c0,0,0,0,0,0C33.6,102.2,34.3,102.2,34.7,101.8C34.7,101.8,34.7,101.8,34.7,101.8z"/>
	</g>
</g>
</svg>
