<?xml version="1.0" encoding="utf-8"?>
<!-- Generator: Adobe Illustrator 24.1.0, SVG Export Plug-In . SVG Version: 6.00 Build 0)  -->
<svg version="1.1" id="Layer_1" xmlns="http://www.w3.org/2000/svg" xmlns:xlink="http://www.w3.org/1999/xlink" x="0px" y="0px"
	 viewBox="0 0 120 150" style="enable-background:new 0 0 120 150;" xml:space="preserve">
<style type="text/css">
	.st0{clip-path:url(#SVGID_2_);}
	.st1{clip-path:url(#SVGID_4_);}
	.st2{fill:#A9E3ED;}
	.st3{clip-path:url(#SVGID_6_);fill:#A9E3ED;}
	.st4{clip-path:url(#SVGID_8_);}
	.st5{clip-path:url(#SVGID_10_);}
	.st6{clip-path:url(#SVGID_12_);}
</style>
<g>
	<g>
		<defs>
			<rect id="SVGID_1_" y="0" width="120" height="150"/>
		</defs>
		<clipPath id="SVGID_2_">
			<use xlink:href="#SVGID_1_"  style="overflow:visible;"/>
		</clipPath>
		<g class="st0">
			<g>
				<defs>
					<rect id="SVGID_3_" x="68.9" y="75.2" width="66.2" height="83.5"/>
				</defs>
				<clipPath id="SVGID_4_">
					<use xlink:href="#SVGID_3_"  style="overflow:visible;"/>
				</clipPath>
				<g class="st1">
					<g>
						<path class="st2" d="M72.2,89.1h6.6c0.6,0,1.1-0.5,1.1-1.1l0,0c0-0.6-0.5-1.1-1.1-1.1h-6.6c-0.6,0-1.1,0.5-1.1,1.1l0,0
							C71.1,88.6,71.6,89.1,72.2,89.1z"/>
						<path class="st2" d="M72.2,69.9h6.6c0.6,0,1.1-0.5,1.1-1.1l0,0c0-0.6-0.5-1.1-1.1-1.1h-6.6c-0.6,0-1.1,0.5-1.1,1.1l0,0
							C71.1,69.4,71.6,69.9,72.2,69.9z"/>
						<path class="st2" d="M72.2,108.4h6.6c0.6,0,1.1-0.5,1.1-1.1l0,0c0-0.6-0.5-1.1-1.1-1.1h-6.6c-0.6,0-1.1,0.5-1.1,1.1l0,0
							C71.1,107.9,71.6,108.4,72.2,108.4z"/>
						<path class="st2" d="M72.2,127.6h6.6c0.6,0,1.1-0.5,1.1-1.1l0,0c0-0.6-0.5-1.1-1.1-1.1h-6.6c-0.6,0-1.1,0.5-1.1,1.1l0,0
							C71.1,127.1,71.6,127.6,72.2,127.6z"/>
						<path class="st2" d="M72.2,146.8h6.6c0.6,0,1.1-0.5,1.1-1.1l0,0c0-0.6-0.5-1.1-1.1-1.1h-6.6c-0.6,0-1.1,0.5-1.1,1.1l0,0
							C71.1,146.3,71.6,146.8,72.2,146.8z"/>
						<path class="st2" d="M72.2,166h6.6c0.6,0,1.1-0.5,1.1-1.1l0,0c0-0.6-0.5-1.1-1.1-1.1h-6.6c-0.6,0-1.1,0.5-1.1,1.1l0,0
							C71.1,165.5,71.6,166,72.2,166z"/>
						<path class="st2" d="M72.2,185.3h6.6c0.6,0,1.1-0.5,1.1-1.1l0,0c0-0.6-0.5-1.1-1.1-1.1h-6.6c-0.6,0-1.1,0.5-1.1,1.1l0,0
							C71.1,184.8,71.6,185.3,72.2,185.3z"/>
						<path class="st2" d="M72.2,204.5h6.6c0.6,0,1.1-0.5,1.1-1.1l0,0c0-0.6-0.5-1.1-1.1-1.1h-6.6c-0.6,0-1.1,0.5-1.1,1.1l0,0
							C71.1,204,71.6,204.5,72.2,204.5z"/>
						<path class="st2" d="M72.2,223.7h6.6c0.6,0,1.1-0.5,1.1-1.1l0,0c0-0.6-0.5-1.1-1.1-1.1h-6.6c-0.6,0-1.1,0.5-1.1,1.1l0,0
							C71.1,223.2,71.6,223.7,72.2,223.7z"/>
						<path class="st2" d="M93.6,99h6.6c0.6,0,1.1-0.5,1.1-1.1l0,0c0-0.6-0.5-1.1-1.1-1.1h-6.6c-0.6,0-1.1,0.5-1.1,1.1l0,0
							C92.4,98.5,92.9,99,93.6,99z"/>
						<path class="st2" d="M93.6,79.8h6.6c0.6,0,1.1-0.5,1.1-1.1l0,0c0-0.6-0.5-1.1-1.1-1.1h-6.6c-0.6,0-1.1,0.5-1.1,1.1l0,0
							C92.4,79.3,92.9,79.8,93.6,79.8z"/>
						<path class="st2" d="M93.6,118.3h6.6c0.6,0,1.1-0.5,1.1-1.1l0,0c0-0.6-0.5-1.1-1.1-1.1h-6.6c-0.6,0-1.1,0.5-1.1,1.1l0,0
							C92.4,117.8,92.9,118.3,93.6,118.3z"/>
						<path class="st2" d="M93.6,137.5h6.6c0.6,0,1.1-0.5,1.1-1.1l0,0c0-0.6-0.5-1.1-1.1-1.1h-6.6c-0.6,0-1.1,0.5-1.1,1.1l0,0
							C92.4,137,92.9,137.5,93.6,137.5z"/>
						<path class="st2" d="M93.6,156.7h6.6c0.6,0,1.1-0.5,1.1-1.1l0,0c0-0.6-0.5-1.1-1.1-1.1h-6.6c-0.6,0-1.1,0.5-1.1,1.1l0,0
							C92.4,156.2,92.9,156.7,93.6,156.7z"/>
						<path class="st2" d="M93.6,175.9h6.6c0.6,0,1.1-0.5,1.1-1.1l0,0c0-0.6-0.5-1.1-1.1-1.1h-6.6c-0.6,0-1.1,0.5-1.1,1.1l0,0
							C92.4,175.4,92.9,175.9,93.6,175.9z"/>
						<path class="st2" d="M93.6,195.2h6.6c0.6,0,1.1-0.5,1.1-1.1l0,0c0-0.6-0.5-1.1-1.1-1.1h-6.6c-0.6,0-1.1,0.5-1.1,1.1l0,0
							C92.4,194.7,92.9,195.2,93.6,195.2z"/>
						<path class="st2" d="M93.6,214.4h6.6c0.6,0,1.1-0.5,1.1-1.1l0,0c0-0.6-0.5-1.1-1.1-1.1h-6.6c-0.6,0-1.1,0.5-1.1,1.1l0,0
							C92.4,213.9,92.9,214.4,93.6,214.4z"/>
						<path class="st2" d="M93.6,233.6h6.6c0.6,0,1.1-0.5,1.1-1.1l0,0c0-0.6-0.5-1.1-1.1-1.1h-6.6c-0.6,0-1.1,0.5-1.1,1.1l0,0
							C92.4,233.1,92.9,233.6,93.6,233.6z"/>
						<path class="st2" d="M114.9,89.1h6.6c0.6,0,1.1-0.5,1.1-1.1l0,0c0-0.6-0.5-1.1-1.1-1.1h-6.6c-0.6,0-1.1,0.5-1.1,1.1l0,0
							C113.8,88.6,114.3,89.1,114.9,89.1z"/>
						<path class="st2" d="M114.9,69.9h6.6c0.6,0,1.1-0.5,1.1-1.1l0,0c0-0.6-0.5-1.1-1.1-1.1h-6.6c-0.6,0-1.1,0.5-1.1,1.1l0,0
							C113.8,69.4,114.3,69.9,114.9,69.9z"/>
						<path class="st2" d="M114.9,108.4h6.6c0.6,0,1.1-0.5,1.1-1.1l0,0c0-0.6-0.5-1.1-1.1-1.1h-6.6c-0.6,0-1.1,0.5-1.1,1.1l0,0
							C113.8,107.9,114.3,108.4,114.9,108.4z"/>
						<path class="st2" d="M114.9,127.6h6.6c0.6,0,1.1-0.5,1.1-1.1l0,0c0-0.6-0.5-1.1-1.1-1.1h-6.6c-0.6,0-1.1,0.5-1.1,1.1l0,0
							C113.8,127.1,114.3,127.6,114.9,127.6z"/>
						<path class="st2" d="M114.9,146.8h6.6c0.6,0,1.1-0.5,1.1-1.1l0,0c0-0.6-0.5-1.1-1.1-1.1h-6.6c-0.6,0-1.1,0.5-1.1,1.1l0,0
							C113.8,146.3,114.3,146.8,114.9,146.8z"/>
						<path class="st2" d="M114.9,166h6.6c0.6,0,1.1-0.5,1.1-1.1l0,0c0-0.6-0.5-1.1-1.1-1.1h-6.6c-0.6,0-1.1,0.5-1.1,1.1l0,0
							C113.8,165.5,114.3,166,114.9,166z"/>
						<path class="st2" d="M114.9,185.3h6.6c0.6,0,1.1-0.5,1.1-1.1l0,0c0-0.6-0.5-1.1-1.1-1.1h-6.6c-0.6,0-1.1,0.5-1.1,1.1l0,0
							C113.8,184.8,114.3,185.3,114.9,185.3z"/>
						<path class="st2" d="M114.9,204.5h6.6c0.6,0,1.1-0.5,1.1-1.1l0,0c0-0.6-0.5-1.1-1.1-1.1h-6.6c-0.6,0-1.1,0.5-1.1,1.1l0,0
							C113.8,204,114.3,204.5,114.9,204.5z"/>
						<path class="st2" d="M114.9,223.7h6.6c0.6,0,1.1-0.5,1.1-1.1l0,0c0-0.6-0.5-1.1-1.1-1.1h-6.6c-0.6,0-1.1,0.5-1.1,1.1l0,0
							C113.8,223.2,114.3,223.7,114.9,223.7z"/>
						<path class="st2" d="M136.2,99h6.6c0.6,0,1.1-0.5,1.1-1.1l0,0c0-0.6-0.5-1.1-1.1-1.1h-6.6c-0.6,0-1.1,0.5-1.1,1.1l0,0
							C135.1,98.5,135.6,99,136.2,99z"/>
						<path class="st2" d="M136.2,79.8h6.6c0.6,0,1.1-0.5,1.1-1.1l0,0c0-0.6-0.5-1.1-1.1-1.1h-6.6c-0.6,0-1.1,0.5-1.1,1.1l0,0
							C135.1,79.3,135.6,79.8,136.2,79.8z"/>
						<path class="st2" d="M136.2,118.3h6.6c0.6,0,1.1-0.5,1.1-1.1l0,0c0-0.6-0.5-1.1-1.1-1.1h-6.6c-0.6,0-1.1,0.5-1.1,1.1l0,0
							C135.1,117.8,135.6,118.3,136.2,118.3z"/>
						<path class="st2" d="M136.2,137.5h6.6c0.6,0,1.1-0.5,1.1-1.1l0,0c0-0.6-0.5-1.1-1.1-1.1h-6.6c-0.6,0-1.1,0.5-1.1,1.1l0,0
							C135.1,137,135.6,137.5,136.2,137.5z"/>
						<path class="st2" d="M136.2,156.7h6.6c0.6,0,1.1-0.5,1.1-1.1l0,0c0-0.6-0.5-1.1-1.1-1.1h-6.6c-0.6,0-1.1,0.5-1.1,1.1l0,0
							C135.1,156.2,135.6,156.7,136.2,156.7z"/>
						<path class="st2" d="M136.2,175.9h6.6c0.6,0,1.1-0.5,1.1-1.1l0,0c0-0.6-0.5-1.1-1.1-1.1h-6.6c-0.6,0-1.1,0.5-1.1,1.1l0,0
							C135.1,175.4,135.6,175.9,136.2,175.9z"/>
						<path class="st2" d="M136.2,195.2h6.6c0.6,0,1.1-0.5,1.1-1.1l0,0c0-0.6-0.5-1.1-1.1-1.1h-6.6c-0.6,0-1.1,0.5-1.1,1.1l0,0
							C135.1,194.7,135.6,195.2,136.2,195.2z"/>
						<path class="st2" d="M136.2,214.4h6.6c0.6,0,1.1-0.5,1.1-1.1l0,0c0-0.6-0.5-1.1-1.1-1.1h-6.6c-0.6,0-1.1,0.5-1.1,1.1l0,0
							C135.1,213.9,135.6,214.4,136.2,214.4z"/>
						<path class="st2" d="M136.2,233.6h6.6c0.6,0,1.1-0.5,1.1-1.1l0,0c0-0.6-0.5-1.1-1.1-1.1h-6.6c-0.6,0-1.1,0.5-1.1,1.1l0,0
							C135.1,233.1,135.6,233.6,136.2,233.6z"/>
						<path class="st2" d="M157.6,89.1h6.6c0.6,0,1.1-0.5,1.1-1.1l0,0c0-0.6-0.5-1.1-1.1-1.1h-6.6c-0.6,0-1.1,0.5-1.1,1.1l0,0
							C156.4,88.6,156.9,89.1,157.6,89.1z"/>
						<path class="st2" d="M157.6,69.9h6.6c0.6,0,1.1-0.5,1.1-1.1l0,0c0-0.6-0.5-1.1-1.1-1.1h-6.6c-0.6,0-1.1,0.5-1.1,1.1l0,0
							C156.4,69.4,156.9,69.9,157.6,69.9z"/>
						<path class="st2" d="M157.6,108.4h6.6c0.6,0,1.1-0.5,1.1-1.1l0,0c0-0.6-0.5-1.1-1.1-1.1h-6.6c-0.6,0-1.1,0.5-1.1,1.1l0,0
							C156.4,107.9,156.9,108.4,157.6,108.4z"/>
						<path class="st2" d="M157.6,127.6h6.6c0.6,0,1.1-0.5,1.1-1.1l0,0c0-0.6-0.5-1.1-1.1-1.1h-6.6c-0.6,0-1.1,0.5-1.1,1.1l0,0
							C156.4,127.1,156.9,127.6,157.6,127.6z"/>
						<path class="st2" d="M157.6,146.8h6.6c0.6,0,1.1-0.5,1.1-1.1l0,0c0-0.6-0.5-1.1-1.1-1.1h-6.6c-0.6,0-1.1,0.5-1.1,1.1l0,0
							C156.4,146.3,156.9,146.8,157.6,146.8z"/>
						<path class="st2" d="M157.6,166h6.6c0.6,0,1.1-0.5,1.1-1.1l0,0c0-0.6-0.5-1.1-1.1-1.1h-6.6c-0.6,0-1.1,0.5-1.1,1.1l0,0
							C156.4,165.5,156.9,166,157.6,166z"/>
						<path class="st2" d="M157.6,185.3h6.6c0.6,0,1.1-0.5,1.1-1.1l0,0c0-0.6-0.5-1.1-1.1-1.1h-6.6c-0.6,0-1.1,0.5-1.1,1.1l0,0
							C156.4,184.8,156.9,185.3,157.6,185.3z"/>
						<path class="st2" d="M157.6,204.5h6.6c0.6,0,1.1-0.5,1.1-1.1l0,0c0-0.6-0.5-1.1-1.1-1.1h-6.6c-0.6,0-1.1,0.5-1.1,1.1l0,0
							C156.4,204,156.9,204.5,157.6,204.5z"/>
						<path class="st2" d="M157.6,223.7h6.6c0.6,0,1.1-0.5,1.1-1.1l0,0c0-0.6-0.5-1.1-1.1-1.1h-6.6c-0.6,0-1.1,0.5-1.1,1.1l0,0
							C156.4,223.2,156.9,223.7,157.6,223.7z"/>
						<path class="st2" d="M178.9,99h6.6c0.6,0,1.1-0.5,1.1-1.1l0,0c0-0.6-0.5-1.1-1.1-1.1h-6.6c-0.6,0-1.1,0.5-1.1,1.1l0,0
							C177.8,98.5,178.3,99,178.9,99z"/>
						<path class="st2" d="M178.9,79.8h6.6c0.6,0,1.1-0.5,1.1-1.1l0,0c0-0.6-0.5-1.1-1.1-1.1h-6.6c-0.6,0-1.1,0.5-1.1,1.1l0,0
							C177.8,79.3,178.3,79.8,178.9,79.8z"/>
						<path class="st2" d="M178.9,118.3h6.6c0.6,0,1.1-0.5,1.1-1.1l0,0c0-0.6-0.5-1.1-1.1-1.1h-6.6c-0.6,0-1.1,0.5-1.1,1.1l0,0
							C177.8,117.8,178.3,118.3,178.9,118.3z"/>
						<path class="st2" d="M178.9,137.5h6.6c0.6,0,1.1-0.5,1.1-1.1l0,0c0-0.6-0.5-1.1-1.1-1.1h-6.6c-0.6,0-1.1,0.5-1.1,1.1l0,0
							C177.8,137,178.3,137.5,178.9,137.5z"/>
						<path class="st2" d="M178.9,156.7h6.6c0.6,0,1.1-0.5,1.1-1.1l0,0c0-0.6-0.5-1.1-1.1-1.1h-6.6c-0.6,0-1.1,0.5-1.1,1.1l0,0
							C177.8,156.2,178.3,156.7,178.9,156.7z"/>
						<path class="st2" d="M178.9,175.9h6.6c0.6,0,1.1-0.5,1.1-1.1l0,0c0-0.6-0.5-1.1-1.1-1.1h-6.6c-0.6,0-1.1,0.5-1.1,1.1l0,0
							C177.8,175.4,178.3,175.9,178.9,175.9z"/>
						<path class="st2" d="M178.9,195.2h6.6c0.6,0,1.1-0.5,1.1-1.1l0,0c0-0.6-0.5-1.1-1.1-1.1h-6.6c-0.6,0-1.1,0.5-1.1,1.1l0,0
							C177.8,194.7,178.3,195.2,178.9,195.2z"/>
						<path class="st2" d="M178.9,214.4h6.6c0.6,0,1.1-0.5,1.1-1.1l0,0c0-0.6-0.5-1.1-1.1-1.1h-6.6c-0.6,0-1.1,0.5-1.1,1.1l0,0
							C177.8,213.9,178.3,214.4,178.9,214.4z"/>
						<path class="st2" d="M178.9,233.6h6.6c0.6,0,1.1-0.5,1.1-1.1l0,0c0-0.6-0.5-1.1-1.1-1.1h-6.6c-0.6,0-1.1,0.5-1.1,1.1l0,0
							C177.8,233.1,178.3,233.6,178.9,233.6z"/>
					</g>
					<path class="st2" d="M76.7,91.3v-6.6c0-0.6-0.5-1.1-1.1-1.1l0,0c-0.6,0-1.1,0.5-1.1,1.1v6.6c0,0.6,0.5,1.1,1.1,1.1l0,0
						C76.2,92.5,76.7,92,76.7,91.3z"/>
					<path class="st2" d="M76.7,72.1v-6.6c0-0.6-0.5-1.1-1.1-1.1l0,0c-0.6,0-1.1,0.5-1.1,1.1v6.6c0,0.6,0.5,1.1,1.1,1.1l0,0
						C76.2,73.2,76.7,72.7,76.7,72.1z"/>
					<path class="st2" d="M76.7,129.8v-6.6c0-0.6-0.5-1.1-1.1-1.1l0,0c-0.6,0-1.1,0.5-1.1,1.1v6.6c0,0.6,0.5,1.1,1.1,1.1l0,0
						C76.2,130.9,76.7,130.4,76.7,129.8z"/>
					<path class="st2" d="M76.7,110.8v-6.6c0-0.6-0.5-1.1-1.1-1.1l0,0c-0.6,0-1.1,0.5-1.1,1.1v6.6c0,0.6,0.5,1.1,1.1,1.1l0,0
						C76.2,112,76.7,111.5,76.7,110.8z"/>
					<path class="st2" d="M76.7,168.1v-6.6c0-0.6-0.5-1.1-1.1-1.1l0,0c-0.6,0-1.1,0.5-1.1,1.1v6.6c0,0.6,0.5,1.1,1.1,1.1l0,0
						C76.2,169.2,76.7,168.7,76.7,168.1z"/>
					<path class="st2" d="M76.7,148.8v-6.6c0-0.6-0.5-1.1-1.1-1.1l0,0c-0.6,0-1.1,0.5-1.1,1.1v6.6c0,0.6,0.5,1.1,1.1,1.1l0,0
						C76.2,150,76.7,149.5,76.7,148.8z"/>
					<path class="st2" d="M76.7,206.5v-6.6c0-0.6-0.5-1.1-1.1-1.1l0,0c-0.6,0-1.1,0.5-1.1,1.1v6.6c0,0.6,0.5,1.1,1.1,1.1l0,0
						C76.2,207.6,76.7,207.1,76.7,206.5z"/>
					<path class="st2" d="M76.7,225.9v-6.6c0-0.6-0.5-1.1-1.1-1.1l0,0c-0.6,0-1.1,0.5-1.1,1.1v6.6c0,0.6,0.5,1.1,1.1,1.1l0,0
						C76.2,227,76.7,226.5,76.7,225.9z"/>
					<path class="st2" d="M76.7,187.6V181c0-0.6-0.5-1.1-1.1-1.1l0,0c-0.6,0-1.1,0.5-1.1,1.1v6.6c0,0.6,0.5,1.1,1.1,1.1l0,0
						C76.2,188.7,76.7,188.2,76.7,187.6z"/>
					<path class="st2" d="M98,101.2v-6.6c0-0.6-0.5-1.1-1.1-1.1l0,0c-0.6,0-1.1,0.5-1.1,1.1v6.6c0,0.6,0.5,1.1,1.1,1.1l0,0
						C97.5,102.4,98,101.9,98,101.2z"/>
					<path class="st2" d="M98,82v-6.6c0-0.6-0.5-1.1-1.1-1.1l0,0c-0.6,0-1.1,0.5-1.1,1.1V82c0,0.6,0.5,1.1,1.1,1.1l0,0
						C97.5,83.1,98,82.6,98,82z"/>
					<path class="st2" d="M98,139.7V133c0-0.6-0.5-1.1-1.1-1.1l0,0c-0.6,0-1.1,0.5-1.1,1.1v6.6c0,0.6,0.5,1.1,1.1,1.1l0,0
						C97.5,140.8,98,140.3,98,139.7z"/>
					<path class="st2" d="M98,120.7v-6.6c0-0.6-0.5-1.1-1.1-1.1l0,0c-0.6,0-1.1,0.5-1.1,1.1v6.6c0,0.6,0.5,1.1,1.1,1.1l0,0
						C97.5,121.9,98,121.4,98,120.7z"/>
					<path class="st2" d="M98,177.9v-6.6c0-0.6-0.5-1.1-1.1-1.1l0,0c-0.6,0-1.1,0.5-1.1,1.1v6.6c0,0.6,0.5,1.1,1.1,1.1l0,0
						C97.5,179.1,98,178.6,98,177.9z"/>
					<path class="st2" d="M98,158.7v-6.6c0-0.6-0.5-1.1-1.1-1.1l0,0c-0.6,0-1.1,0.5-1.1,1.1v6.6c0,0.6,0.5,1.1,1.1,1.1l0,0
						C97.5,159.9,98,159.3,98,158.7z"/>
					<path class="st2" d="M98,216.4v-6.6c0-0.6-0.5-1.1-1.1-1.1l0,0c-0.6,0-1.1,0.5-1.1,1.1v6.6c0,0.6,0.5,1.1,1.1,1.1l0,0
						C97.5,217.5,98,217,98,216.4z"/>
					<path class="st2" d="M98,235.8v-6.6c0-0.6-0.5-1.1-1.1-1.1l0,0c-0.6,0-1.1,0.5-1.1,1.1v6.6c0,0.6,0.5,1.1,1.1,1.1l0,0
						C97.5,236.9,98,236.4,98,235.8z"/>
					<path class="st2" d="M98,197.5v-6.6c0-0.6-0.5-1.1-1.1-1.1l0,0c-0.6,0-1.1,0.5-1.1,1.1v6.6c0,0.6,0.5,1.1,1.1,1.1l0,0
						C97.5,198.6,98,198.1,98,197.5z"/>
					<path class="st2" d="M119.4,91.3v-6.6c0-0.6-0.5-1.1-1.1-1.1l0,0c-0.6,0-1.1,0.5-1.1,1.1v6.6c0,0.6,0.5,1.1,1.1,1.1l0,0
						C118.8,92.5,119.4,92,119.4,91.3z"/>
					<path class="st2" d="M119.4,72.1v-6.6c0-0.6-0.5-1.1-1.1-1.1l0,0c-0.6,0-1.1,0.5-1.1,1.1v6.6c0,0.6,0.5,1.1,1.1,1.1l0,0
						C118.8,73.2,119.4,72.7,119.4,72.1z"/>
					<path class="st2" d="M119.4,129.8v-6.6c0-0.6-0.5-1.1-1.1-1.1l0,0c-0.6,0-1.1,0.5-1.1,1.1v6.6c0,0.6,0.5,1.1,1.1,1.1l0,0
						C118.8,130.9,119.4,130.4,119.4,129.8z"/>
					<path class="st2" d="M119.4,110.8v-6.6c0-0.6-0.5-1.1-1.1-1.1l0,0c-0.6,0-1.1,0.5-1.1,1.1v6.6c0,0.6,0.5,1.1,1.1,1.1l0,0
						C118.8,112,119.4,111.5,119.4,110.8z"/>
					<path class="st2" d="M119.4,168.1v-6.6c0-0.6-0.5-1.1-1.1-1.1l0,0c-0.6,0-1.1,0.5-1.1,1.1v6.6c0,0.6,0.5,1.1,1.1,1.1l0,0
						C118.8,169.2,119.4,168.7,119.4,168.1z"/>
					<path class="st2" d="M119.4,148.8v-6.6c0-0.6-0.5-1.1-1.1-1.1l0,0c-0.6,0-1.1,0.5-1.1,1.1v6.6c0,0.6,0.5,1.1,1.1,1.1l0,0
						C118.8,150,119.4,149.5,119.4,148.8z"/>
					<path class="st2" d="M119.4,206.5v-6.6c0-0.6-0.5-1.1-1.1-1.1l0,0c-0.6,0-1.1,0.5-1.1,1.1v6.6c0,0.6,0.5,1.1,1.1,1.1l0,0
						C118.8,207.6,119.4,207.1,119.4,206.5z"/>
					<path class="st2" d="M119.4,225.9v-6.6c0-0.6-0.5-1.1-1.1-1.1l0,0c-0.6,0-1.1,0.5-1.1,1.1v6.6c0,0.6,0.5,1.1,1.1,1.1l0,0
						C118.8,227,119.4,226.5,119.4,225.9z"/>
					<path class="st2" d="M119.4,187.6V181c0-0.6-0.5-1.1-1.1-1.1l0,0c-0.6,0-1.1,0.5-1.1,1.1v6.6c0,0.6,0.5,1.1,1.1,1.1l0,0
						C118.8,188.7,119.4,188.2,119.4,187.6z"/>
					<path class="st2" d="M140.7,101.1v-6.6c0-0.6-0.5-1.1-1.1-1.1l0,0c-0.6,0-1.1,0.5-1.1,1.1v6.6c0,0.6,0.5,1.1,1.1,1.1l0,0
						C140.2,102.2,140.7,101.7,140.7,101.1z"/>
					<path class="st2" d="M140.7,81.8v-6.6c0-0.6-0.5-1.1-1.1-1.1l0,0c-0.6,0-1.1,0.5-1.1,1.1v6.6c0,0.6,0.5,1.1,1.1,1.1l0,0
						C140.2,83,140.7,82.5,140.7,81.8z"/>
					<path class="st2" d="M140.7,139.5v-6.6c0-0.6-0.5-1.1-1.1-1.1l0,0c-0.6,0-1.1,0.5-1.1,1.1v6.6c0,0.6,0.5,1.1,1.1,1.1l0,0
						C140.2,140.6,140.7,140.1,140.7,139.5z"/>
					<path class="st2" d="M140.7,120.6V114c0-0.6-0.5-1.1-1.1-1.1l0,0c-0.6,0-1.1,0.5-1.1,1.1v6.6c0,0.6,0.5,1.1,1.1,1.1l0,0
						C140.2,121.7,140.7,121.2,140.7,120.6z"/>
					<path class="st2" d="M140.7,177.8v-6.6c0-0.6-0.5-1.1-1.1-1.1l0,0c-0.6,0-1.1,0.5-1.1,1.1v6.6c0,0.6,0.5,1.1,1.1,1.1l0,0
						C140.2,178.9,140.7,178.4,140.7,177.8z"/>
					<path class="st2" d="M140.7,158.5v-6.6c0-0.6-0.5-1.1-1.1-1.1l0,0c-0.6,0-1.1,0.5-1.1,1.1v6.6c0,0.6,0.5,1.1,1.1,1.1l0,0
						C140.2,159.7,140.7,159.2,140.7,158.5z"/>
					<path class="st2" d="M140.7,216.2v-6.6c0-0.6-0.5-1.1-1.1-1.1l0,0c-0.6,0-1.1,0.5-1.1,1.1v6.6c0,0.6,0.5,1.1,1.1,1.1l0,0
						C140.2,217.3,140.7,216.8,140.7,216.2z"/>
					<path class="st2" d="M140.7,235.6V229c0-0.6-0.5-1.1-1.1-1.1l0,0c-0.6,0-1.1,0.5-1.1,1.1v6.6c0,0.6,0.5,1.1,1.1,1.1l0,0
						C140.2,236.8,140.7,236.2,140.7,235.6z"/>
					<path class="st2" d="M140.7,197.3v-6.6c0-0.6-0.5-1.1-1.1-1.1l0,0c-0.6,0-1.1,0.5-1.1,1.1v6.6c0,0.6,0.5,1.1,1.1,1.1l0,0
						C140.2,198.4,140.7,197.9,140.7,197.3z"/>
					<path class="st2" d="M162,91.2v-6.6c0-0.6-0.5-1.1-1.1-1.1l0,0c-0.6,0-1.1,0.5-1.1,1.1v6.6c0,0.6,0.5,1.1,1.1,1.1l0,0
						C161.5,92.3,162,91.8,162,91.2z"/>
					<path class="st2" d="M162,71.9v-6.6c0-0.6-0.5-1.1-1.1-1.1l0,0c-0.6,0-1.1,0.5-1.1,1.1v6.6c0,0.6,0.5,1.1,1.1,1.1l0,0
						C161.5,73.1,162,72.6,162,71.9z"/>
					<path class="st2" d="M162,129.6V123c0-0.6-0.5-1.1-1.1-1.1l0,0c-0.6,0-1.1,0.5-1.1,1.1v6.6c0,0.6,0.5,1.1,1.1,1.1l0,0
						C161.5,130.7,162,130.2,162,129.6z"/>
					<path class="st2" d="M162,110.7V104c0-0.6-0.5-1.1-1.1-1.1l0,0c-0.6,0-1.1,0.5-1.1,1.1v6.6c0,0.6,0.5,1.1,1.1,1.1l0,0
						C161.5,111.8,162,111.3,162,110.7z"/>
					<path class="st2" d="M162,167.9v-6.6c0-0.6-0.5-1.1-1.1-1.1l0,0c-0.6,0-1.1,0.5-1.1,1.1v6.6c0,0.6,0.5,1.1,1.1,1.1l0,0
						C161.5,169,162,168.5,162,167.9z"/>
					<path class="st2" d="M162,148.6V142c0-0.6-0.5-1.1-1.1-1.1l0,0c-0.6,0-1.1,0.5-1.1,1.1v6.6c0,0.6,0.5,1.1,1.1,1.1l0,0
						C161.5,149.8,162,149.3,162,148.6z"/>
					<path class="st2" d="M162,206.3v-6.6c0-0.6-0.5-1.1-1.1-1.1l0,0c-0.6,0-1.1,0.5-1.1,1.1v6.6c0,0.6,0.5,1.1,1.1,1.1l0,0
						C161.5,207.4,162,206.9,162,206.3z"/>
					<path class="st2" d="M162,225.7v-6.6c0-0.6-0.5-1.1-1.1-1.1l0,0c-0.6,0-1.1,0.5-1.1,1.1v6.6c0,0.6,0.5,1.1,1.1,1.1l0,0
						C161.5,226.9,162,226.4,162,225.7z"/>
					<path class="st2" d="M162,187.4v-6.6c0-0.6-0.5-1.1-1.1-1.1l0,0c-0.6,0-1.1,0.5-1.1,1.1v6.6c0,0.6,0.5,1.1,1.1,1.1l0,0
						C161.5,188.5,162,188,162,187.4z"/>
					<path class="st2" d="M183.4,100.9v-6.6c0-0.6-0.5-1.1-1.1-1.1l0,0c-0.6,0-1.1,0.5-1.1,1.1v6.6c0,0.6,0.5,1.1,1.1,1.1l0,0
						C182.8,102,183.4,101.5,183.4,100.9z"/>
					<path class="st2" d="M183.4,81.6V75c0-0.6-0.5-1.1-1.1-1.1l0,0c-0.6,0-1.1,0.5-1.1,1.1v6.6c0,0.6,0.5,1.1,1.1,1.1l0,0
						C182.8,82.8,183.4,82.3,183.4,81.6z"/>
					<path class="st2" d="M183.4,139.3v-6.6c0-0.6-0.5-1.1-1.1-1.1l0,0c-0.6,0-1.1,0.5-1.1,1.1v6.6c0,0.6,0.5,1.1,1.1,1.1l0,0
						C182.8,140.4,183.4,139.9,183.4,139.3z"/>
					<path class="st2" d="M183.4,120.4v-6.6c0-0.6-0.5-1.1-1.1-1.1l0,0c-0.6,0-1.1,0.5-1.1,1.1v6.6c0,0.6,0.5,1.1,1.1,1.1l0,0
						C182.8,121.5,183.4,121,183.4,120.4z"/>
					<path class="st2" d="M183.4,177.6V171c0-0.6-0.5-1.1-1.1-1.1l0,0c-0.6,0-1.1,0.5-1.1,1.1v6.6c0,0.6,0.5,1.1,1.1,1.1l0,0
						C182.8,178.7,183.4,178.2,183.4,177.6z"/>
					<path class="st2" d="M183.4,158.4v-6.6c0-0.6-0.5-1.1-1.1-1.1l0,0c-0.6,0-1.1,0.5-1.1,1.1v6.6c0,0.6,0.5,1.1,1.1,1.1l0,0
						C182.8,159.5,183.4,159,183.4,158.4z"/>
					<path class="st2" d="M183.4,216v-6.6c0-0.6-0.5-1.1-1.1-1.1l0,0c-0.6,0-1.1,0.5-1.1,1.1v6.6c0,0.6,0.5,1.1,1.1,1.1l0,0
						C182.8,217.2,183.4,216.7,183.4,216z"/>
					<path class="st2" d="M183.4,235.4v-6.6c0-0.6-0.5-1.1-1.1-1.1l0,0c-0.6,0-1.1,0.5-1.1,1.1v6.6c0,0.6,0.5,1.1,1.1,1.1l0,0
						C182.8,236.6,183.4,236.1,183.4,235.4z"/>
					<path class="st2" d="M183.4,197.1v-6.6c0-0.6-0.5-1.1-1.1-1.1l0,0c-0.6,0-1.1,0.5-1.1,1.1v6.6c0,0.6,0.5,1.1,1.1,1.1l0,0
						C182.8,198.2,183.4,197.7,183.4,197.1z"/>
				</g>
			</g>
		</g>
	</g>
	<g>
		<defs>
			<rect id="SVGID_5_" y="0" width="120" height="150"/>
		</defs>
		<clipPath id="SVGID_6_">
			<use xlink:href="#SVGID_5_"  style="overflow:visible;"/>
		</clipPath>
		<circle class="st3" cx="13.3" cy="55.8" r="34.5"/>
	</g>
	<g>
		<defs>
			<rect id="SVGID_7_" y="0" width="120" height="150"/>
		</defs>
		<clipPath id="SVGID_8_">
			<use xlink:href="#SVGID_7_"  style="overflow:visible;"/>
		</clipPath>
		<path class="st4" d="M40.8,118.1c9,2.6,18.5,3.9,28.1,3.9s19-1.3,28.1-3.9c1.5-0.4,2.8-1.4,3.7-2.9c0.8-1.5,1-3,0.6-4.6
			c-0.4-1.4-1.2-2.5-2.3-3.3c-1.1-0.8-1.7-1.9-1.7-3.2V93.8c0-0.6-0.5-1-1-1c-0.5,0-1,0.5-1,1V104c0,1.9,0.9,3.8,2.5,5
			c0.9,0.7,1.5,1.6,1.6,2.5c0.2,0.9,0,2-0.6,2.9c-0.5,0.7-1.3,1.3-2.1,1.5c-17.9,5-37,5-55,0c-2.1-0.6-3.3-2.8-2.7-4.8
			c0.2-0.8,0.7-1.6,1.5-2.1c1.6-1.2,2.5-3,2.5-5V82.4c0-9.9,5.5-18.8,14.3-23.4l0.4-0.2l0.2,0.5c0.3,0.7,0.8,1.4,1.5,1.8
			c5.9,3.4,13.4,3.4,19.4,0c0.6-0.4,1.2-1,1.5-1.7l0.2-0.5l0.4,0.2c9,4.7,14.6,13.8,14.6,23.9v4.8c0,0.6,0.5,1,1,1c0.5,0,1-0.5,1-1
			V83c0.1-11.4-6.5-21.7-16.9-26.4h-0.2v-0.2c-0.4-0.8-1.1-1.5-2-1.9c-0.9-0.3-1.8-0.3-2.8,0.1l-0.1,0c0,0-0.1,0.1-0.2,0.1l0,0
			c-0.7,0.4-1.5,0.7-2.3,1l-0.7,0.2l0.9-6.9c0-0.2,0-0.6-0.2-0.8c-0.2-0.3-0.4-0.4-0.7-0.5c-0.6-0.1-1.1,0.3-1.2,1l-1,7.5h-1.6
			l0-0.2l-1.2-11.8c-0.1-0.6-0.6-1-1.2-0.9c-0.3,0-0.6,0.2-0.7,0.4c-0.2,0.2-0.3,0.5-0.2,0.8l1.1,11.4l-0.6-0.2
			c-0.8-0.3-1.6-0.6-2.5-1c-0.1,0-0.1-0.1-0.2-0.1c-0.1-0.1-0.2-0.1-0.3-0.1h-0.2L58,41.1c-0.4-1.2-0.3-2.4,0.3-3.5
			c0.5-1.1,1.5-1.9,2.6-2.2c1.4-0.4,3-0.2,4.2,0.7c2.4,1.8,5.7,1.8,8,0c1-0.7,2.3-1,3.5-0.8c1.2,0.2,2.2,0.8,2.9,1.8
			c0.9,1.2,1.1,2.7,0.7,4.1l-2.6,8.2c-0.2,0.6,0.1,1.2,0.7,1.4c0.2,0.1,0.6,0.1,0.9-0.1c0.3-0.2,0.5-0.4,0.5-0.6l2.6-8.2
			c0.6-1.6,0.4-3.4-0.4-5.1c-0.7-1.5-2.2-2.7-3.9-3.3c-2-0.7-4.3-0.3-6,1c-1.7,1.3-3.8,1.2-5.4,0c-1.5-1.1-3.3-1.5-5-1.3
			c-1.8,0.3-3.3,1.2-4.4,2.6c-1.3,1.8-1.6,4-1,6l4,12.7l-0.4,0.2c0,0-0.2,0.1-0.3,0.1c-0.6,0.4-1.1,0.9-1.5,1.6L57.7,57l-0.3-0.5
			c-0.4-0.4-0.8-0.7-1.2-0.9c-1-0.5-2.1-0.6-3-0.2l-0.9,0.3l-0.7,0.2l2.3-7.9c0.1-0.2,0.1-0.6-0.1-0.9c-0.2-0.3-0.4-0.5-0.6-0.5
			c-0.3-0.1-0.6-0.1-0.9,0.1c-0.3,0.1-0.4,0.3-0.5,0.6l-2.6,8.6h-1.7l-1.2-7.1c0-0.3-0.2-0.5-0.4-0.7c-0.3-0.2-0.5-0.3-0.7-0.2
			c-0.3,0-0.6,0.2-0.8,0.4c-0.2,0.2-0.3,0.5-0.2,0.8l0,0.1l1.1,6.5l-0.7-0.2c-0.5-0.1-0.9-0.2-1.3-0.4c-0.3-0.1-0.5-0.2-0.8-0.2
			h-0.3l-2.9-9.2c-0.3-0.9-0.2-1.9,0.2-2.7c0.4-0.8,1.2-1.5,2.1-1.8c1.3-0.3,2.4-0.2,3.3,0.5c2,1.5,4.9,1.5,6.9,0
			c0.2-0.2,0.4-0.5,0.4-0.8c0-0.2,0-0.4-0.2-0.6c-0.2-0.3-0.4-0.4-0.7-0.4c-0.3,0-0.6,0-0.7,0.1c-1.3,1-3.1,1-4.3,0
			c-1.2-0.9-2.7-1.3-4.2-1.1c-1.5,0.2-2.9,1-3.8,2.2c-1.2,1.4-1.5,3.4-0.9,5.2l2.9,9.1l-0.3,0.2c-0.8,0.5-1.3,1.4-1.5,2.5l0,0.1
			l-0.2,0.2c-8,3.9-12.9,11.8-12.9,20.7v11.6c0,0.6,0.5,1,1,1c0.5,0,1-0.5,1-1V79.2c0-7.6,4.2-14.7,11-18.5l0.4-0.2l0.2,0.4
			c0.5,0.7,1.2,1.3,2.1,1.6c1.8,0.6,3.8,1,6.2,1.1h0.8l-0.5,0.7c-1.4,1.7-3.7,5.5-3.7,5.6c-3.3,4.8-3.1,15.8-2.9,23.9
			c0,1.6,0.1,3.1,0.1,4.4v5.7c0,1.3-0.6,2.5-1.7,3.2c-0.4,0.3-0.8,0.6-1.3,1.2l-0.2,0.2h-0.2c-3.7-0.5-7.6-1.3-11.6-2.3
			c-0.7-0.2-1.4-0.7-1.8-1.4c-0.4-0.6-0.5-1.5-0.3-2.2c0.2-0.7,0.7-1.3,1.2-1.6c1.3-0.9,2.1-2.5,2.1-4.1c0-0.6-0.5-1-1-1
			c-0.5,0-1,0.5-1,1c0,1-0.5,1.9-1.3,2.4c-2.3,1.6-2.8,4.8-1.2,7.2c0.7,1,1.6,1.6,2.8,1.9c3.8,1,7.5,1.8,11,2.3l0.3,0h0.2l-0.2,0.5
			C36,114.2,37.8,117.3,40.8,118.1z M60.5,56.6c0.3-0.2,0.7-0.2,1.1-0.2c0.3,0,0.4,0.1,0.5,0.2c1.7,1,3.5,1.6,5.4,1.8l0.2,0v0.1
			c3,0.4,6-0.2,8.7-1.8c0.4-0.2,0.8-0.2,1.1-0.1c0.4,0.1,0.7,0.4,0.9,0.7c0.1,0.2,0.2,0.5,0.2,0.8c0,0.5-0.3,1-0.8,1.3
			c-2.5,1.5-5.5,2.2-8.6,2.2c-3.1,0-6-0.7-8.6-2.2c-0.4-0.2-0.8-0.8-0.8-1.3C59.7,57.4,59.9,56.9,60.5,56.6z M41.4,60.6L41.4,60.6
			c-0.6-0.2-1-0.7-1.1-1.2l0-0.4c0-0.6,0.3-1.1,0.8-1.4c0.2-0.1,0.4-0.2,0.7-0.3l0.1,0H42c0.2,0,0.4,0,0.8,0.1
			c1.4,0.4,2.7,0.7,3.9,0.8l0.1,0c1.1,0.1,2.3,0.1,3.4,0l0.2,0c1.1-0.1,2.3-0.3,3.6-0.8c0.3-0.1,0.7-0.1,1,0l1,0.3L55.1,58
			c-1.6,0.9-3.1,2.1-4.8,3.5l-0.1,0.1H50c-0.6,0.1-1.2,0.1-1.8,0.1C46.1,61.6,43.7,61.3,41.4,60.6z"/>
	</g>
	<g>
		<defs>
			<rect id="SVGID_9_" y="0" width="120" height="150"/>
		</defs>
		<clipPath id="SVGID_10_">
			<use xlink:href="#SVGID_9_"  style="overflow:visible;"/>
		</clipPath>
		<g class="st5">
			<path d="M53.3,83.4c0.4-0.4,0.5-1.1,0.1-1.5C52.5,81,52,79.8,52,78.5l0,0c0-0.6-0.4-1.1-1-1.1s-1.1,0.4-1.1,1c0,1.9,0.7,3.6,2,5
				l0,0C52.3,83.8,52.9,83.8,53.3,83.4L53.3,83.4z"/>
			<path d="M80,108.1c0.3,0,0.6-0.1,0.8-0.3c1.3-1.4,2-3.1,2-5c0-0.6-0.6-1-1.1-1s-1,0.5-1,1.1c0,1.3-0.5,2.5-1.4,3.5
				c-0.4,0.4-0.4,1.1,0.1,1.5C79.4,108,79.7,108.1,80,108.1L80,108.1z"/>
			<path d="M83.8,107.9c0.4,0.4,1.1,0.4,1.5-0.1c1.3-1.4,2-3.1,2-5c0-0.6-0.5-1-1.1-1s-1,0.5-1,1.1l0,0c0,1.3-0.5,2.5-1.4,3.5
				C83.3,106.8,83.3,107.5,83.8,107.9L83.8,107.9z"/>
		</g>
	</g>
	<g>
		<defs>
			<rect id="SVGID_11_" y="0" width="120" height="150"/>
		</defs>
		<clipPath id="SVGID_12_">
			<use xlink:href="#SVGID_11_"  style="overflow:visible;"/>
		</clipPath>
		<g class="st6">
			<path d="M34.7,101.8c0.4-0.4,0.5-1.1,0.1-1.5c-0.9-0.9-1.4-2.2-1.4-3.5l0,0c0-0.6-0.4-1.1-1-1.1c-0.6,0-1.1,0.4-1.1,1
				c0,1.9,0.7,3.6,2,5l0,0C33.6,102.2,34.3,102.2,34.7,101.8L34.7,101.8z"/>
		</g>
	</g>
</g>
</svg>
