<?xml version="1.0" encoding="utf-8"?>
<!-- Generator: Adobe Illustrator 24.1.0, SVG Export Plug-In . SVG Version: 6.00 Build 0)  -->
<svg version="1.1" id="Layer_1" xmlns="http://www.w3.org/2000/svg" xmlns:xlink="http://www.w3.org/1999/xlink" x="0px" y="0px"
	 viewBox="0 0 120 150" style="enable-background:new 0 0 120 150;" xml:space="preserve">
<style type="text/css">
	.st0{clip-path:url(#SVGID_1_);}
	.st1{clip-path:url(#SVGID_2_);}
	.st2{fill:#FFCFEB;}
	.st3{clip-path:url(#SVGID_1_);fill:none;stroke:#FFCFEB;stroke-width:3;stroke-miterlimit:10;}
</style>
<g>
	<defs>
		<rect id="SVGID_5_" y="0" width="120" height="150"/>
	</defs>
	<clipPath id="SVGID_1_">
		<use xlink:href="#SVGID_5_"  style="overflow:visible;"/>
	</clipPath>
	<g class="st0">
		<defs>
			<rect id="SVGID_7_" x="-23.1" y="-22.9" width="82.5" height="87.4"/>
		</defs>
		<clipPath id="SVGID_2_">
			<use xlink:href="#SVGID_7_"  style="overflow:visible;"/>
		</clipPath>
		<g class="st1">
			<path class="st2" d="M-19.8-12.4h6.6c0.6,0,1.1-0.5,1.1-1.1v0c0-0.6-0.5-1.1-1.1-1.1h-6.6c-0.6,0-1.1,0.5-1.1,1.1v0
				C-20.9-12.9-20.4-12.4-19.8-12.4z"/>
			<path class="st2" d="M-19.8-31.7h6.6c0.6,0,1.1-0.5,1.1-1.1l0,0c0-0.6-0.5-1.1-1.1-1.1h-6.6c-0.6,0-1.1,0.5-1.1,1.1l0,0
				C-20.9-32.2-20.4-31.7-19.8-31.7z"/>
			<path class="st2" d="M-19.8,6.8h6.6c0.6,0,1.1-0.5,1.1-1.1v0c0-0.6-0.5-1.1-1.1-1.1l-6.6,0c-0.6,0-1.1,0.5-1.1,1.1v0
				C-20.9,6.3-20.4,6.8-19.8,6.8z"/>
			<path class="st2" d="M-19.8,26h6.6c0.6,0,1.1-0.5,1.1-1.1v0c0-0.6-0.5-1.1-1.1-1.1h-6.6c-0.6,0-1.1,0.5-1.1,1.1v0
				C-20.9,25.5-20.4,26-19.8,26z"/>
			<path class="st2" d="M-19.8,45.2h6.6c0.6,0,1.1-0.5,1.1-1.1v0c0-0.6-0.5-1.1-1.1-1.1h-6.6c-0.6,0-1.1,0.5-1.1,1.1v0
				C-20.9,44.7-20.4,45.2-19.8,45.2z"/>
			<path class="st2" d="M-19.8,64.5h6.6c0.6,0,1.1-0.5,1.1-1.1l0,0c0-0.6-0.5-1.1-1.1-1.1h-6.6c-0.6,0-1.1,0.5-1.1,1.1l0,0
				C-20.9,63.9-20.4,64.5-19.8,64.5z"/>
			<path class="st2" d="M-19.8,83.7h6.6c0.6,0,1.1-0.5,1.1-1.1l0,0c0-0.6-0.5-1.1-1.1-1.1h-6.6c-0.6,0-1.1,0.5-1.1,1.1l0,0
				C-20.9,83.2-20.4,83.7-19.8,83.7z"/>
			<path class="st2" d="M-19.8,102.9h6.6c0.6,0,1.1-0.5,1.1-1.1l0,0c0-0.6-0.5-1.1-1.1-1.1h-6.6c-0.6,0-1.1,0.5-1.1,1.1l0,0
				C-20.9,102.4-20.4,102.9-19.8,102.9z"/>
			<path class="st2" d="M-19.8,122.1h6.6c0.6,0,1.1-0.5,1.1-1.1v0c0-0.6-0.5-1.1-1.1-1.1h-6.6c-0.6,0-1.1,0.5-1.1,1.1v0
				C-20.9,121.6-20.4,122.1-19.8,122.1z"/>
			<path class="st2" d="M1.6-2.5h6.6c0.6,0,1.1-0.5,1.1-1.1v0c0-0.6-0.5-1.1-1.1-1.1H1.6c-0.6,0-1.1,0.5-1.1,1.1v0
				C0.4-3.1,0.9-2.5,1.6-2.5z"/>
			<path class="st2" d="M1.6-21.8h6.6c0.6,0,1.1-0.5,1.1-1.1v0c0-0.6-0.5-1.1-1.1-1.1H1.6c-0.6,0-1.1,0.5-1.1,1.1v0
				C0.4-22.3,0.9-21.8,1.6-21.8z"/>
			<path class="st2" d="M1.6,16.7h6.6c0.6,0,1.1-0.5,1.1-1.1v0c0-0.6-0.5-1.1-1.1-1.1H1.6c-0.6,0-1.1,0.5-1.1,1.1v0
				C0.4,16.2,0.9,16.7,1.6,16.7z"/>
			<path class="st2" d="M1.6,35.9h6.6c0.6,0,1.1-0.5,1.1-1.1v0c0-0.6-0.5-1.1-1.1-1.1H1.6c-0.6,0-1.1,0.5-1.1,1.1v0
				C0.4,35.4,0.9,35.9,1.6,35.9z"/>
			<path class="st2" d="M1.6,55.1h6.6c0.6,0,1.1-0.5,1.1-1.1l0,0c0-0.6-0.5-1.1-1.1-1.1H1.6c-0.6,0-1.1,0.5-1.1,1.1l0,0
				C0.4,54.6,0.9,55.1,1.6,55.1z"/>
			<path class="st2" d="M1.6,74.4h6.6c0.6,0,1.1-0.5,1.1-1.1l0,0c0-0.6-0.5-1.1-1.1-1.1H1.6c-0.6,0-1.1,0.5-1.1,1.1l0,0
				C0.4,73.8,0.9,74.4,1.6,74.4z"/>
			<path class="st2" d="M1.6,93.6h6.6c0.6,0,1.1-0.5,1.1-1.1l0,0c0-0.6-0.5-1.1-1.1-1.1H1.6c-0.6,0-1.1,0.5-1.1,1.1l0,0
				C0.4,93.1,0.9,93.6,1.6,93.6z"/>
			<path class="st2" d="M1.6,112.8h6.6c0.6,0,1.1-0.5,1.1-1.1v0c0-0.6-0.5-1.1-1.1-1.1H1.6c-0.6,0-1.1,0.5-1.1,1.1v0
				C0.4,112.3,0.9,112.8,1.6,112.8z"/>
			<path class="st2" d="M1.6,132h6.6c0.6,0,1.1-0.5,1.1-1.1l0,0c0-0.6-0.5-1.1-1.1-1.1H1.6c-0.6,0-1.1,0.5-1.1,1.1l0,0
				C0.4,131.5,0.9,132,1.6,132z"/>
			<path class="st2" d="M22.9-12.4h6.6c0.6,0,1.1-0.5,1.1-1.1v0c0-0.6-0.5-1.1-1.1-1.1h-6.6c-0.6,0-1.1,0.5-1.1,1.1v0
				C21.8-12.9,22.3-12.4,22.9-12.4z"/>
			<path class="st2" d="M22.9-31.7h6.6c0.6,0,1.1-0.5,1.1-1.1l0,0c0-0.6-0.5-1.1-1.1-1.1h-6.6c-0.6,0-1.1,0.5-1.1,1.1l0,0
				C21.8-32.2,22.3-31.7,22.9-31.7z"/>
			<path class="st2" d="M22.9,6.8h6.6c0.6,0,1.1-0.5,1.1-1.1v0c0-0.6-0.5-1.1-1.1-1.1l-6.6,0c-0.6,0-1.1,0.5-1.1,1.1v0
				C21.8,6.3,22.3,6.8,22.9,6.8z"/>
			<path class="st2" d="M22.9,26h6.6c0.6,0,1.1-0.5,1.1-1.1v0c0-0.6-0.5-1.1-1.1-1.1h-6.6c-0.6,0-1.1,0.5-1.1,1.1v0
				C21.8,25.5,22.3,26,22.9,26z"/>
			<path class="st2" d="M22.9,45.2h6.6c0.6,0,1.1-0.5,1.1-1.1v0c0-0.6-0.5-1.1-1.1-1.1h-6.6c-0.6,0-1.1,0.5-1.1,1.1v0
				C21.8,44.7,22.3,45.2,22.9,45.2z"/>
			<path class="st2" d="M22.9,64.5h6.6c0.6,0,1.1-0.5,1.1-1.1l0,0c0-0.6-0.5-1.1-1.1-1.1h-6.6c-0.6,0-1.1,0.5-1.1,1.1l0,0
				C21.8,63.9,22.3,64.5,22.9,64.5z"/>
			<path class="st2" d="M22.9,83.7h6.6c0.6,0,1.1-0.5,1.1-1.1l0,0c0-0.6-0.5-1.1-1.1-1.1h-6.6c-0.6,0-1.1,0.5-1.1,1.1l0,0
				C21.8,83.2,22.3,83.7,22.9,83.7z"/>
			<path class="st2" d="M22.9,102.9h6.6c0.6,0,1.1-0.5,1.1-1.1l0,0c0-0.6-0.5-1.1-1.1-1.1h-6.6c-0.6,0-1.1,0.5-1.1,1.1l0,0
				C21.8,102.4,22.3,102.9,22.9,102.9z"/>
			<path class="st2" d="M22.9,122.1h6.6c0.6,0,1.1-0.5,1.1-1.1v0c0-0.6-0.5-1.1-1.1-1.1h-6.6c-0.6,0-1.1,0.5-1.1,1.1v0
				C21.8,121.6,22.3,122.1,22.9,122.1z"/>
			<path class="st2" d="M44.2-2.5h6.6c0.6,0,1.1-0.5,1.1-1.1v0c0-0.6-0.5-1.1-1.1-1.1h-6.6c-0.6,0-1.1,0.5-1.1,1.1v0
				C43.1-3.1,43.6-2.5,44.2-2.5z"/>
			<path class="st2" d="M44.2-21.8h6.6c0.6,0,1.1-0.5,1.1-1.1v0c0-0.6-0.5-1.1-1.1-1.1h-6.6c-0.6,0-1.1,0.5-1.1,1.1v0
				C43.1-22.3,43.6-21.8,44.2-21.8z"/>
			<path class="st2" d="M44.2,16.7h6.6c0.6,0,1.1-0.5,1.1-1.1v0c0-0.6-0.5-1.1-1.1-1.1h-6.6c-0.6,0-1.1,0.5-1.1,1.1v0
				C43.1,16.2,43.6,16.7,44.2,16.7z"/>
			<path class="st2" d="M44.2,35.9h6.6c0.6,0,1.1-0.5,1.1-1.1v0c0-0.6-0.5-1.1-1.1-1.1h-6.6c-0.6,0-1.1,0.5-1.1,1.1v0
				C43.1,35.4,43.6,35.9,44.2,35.9z"/>
			<path class="st2" d="M44.2,55.1h6.6c0.6,0,1.1-0.5,1.1-1.1l0,0c0-0.6-0.5-1.1-1.1-1.1h-6.6c-0.6,0-1.1,0.5-1.1,1.1l0,0
				C43.1,54.6,43.6,55.1,44.2,55.1z"/>
			<path class="st2" d="M44.2,74.4h6.6c0.6,0,1.1-0.5,1.1-1.1l0,0c0-0.6-0.5-1.1-1.1-1.1h-6.6c-0.6,0-1.1,0.5-1.1,1.1l0,0
				C43.1,73.8,43.6,74.4,44.2,74.4z"/>
			<path class="st2" d="M44.2,93.6h6.6c0.6,0,1.1-0.5,1.1-1.1l0,0c0-0.6-0.5-1.1-1.1-1.1h-6.6c-0.6,0-1.1,0.5-1.1,1.1l0,0
				C43.1,93.1,43.6,93.6,44.2,93.6z"/>
			<path class="st2" d="M44.2,112.8h6.6c0.6,0,1.1-0.5,1.1-1.1v0c0-0.6-0.5-1.1-1.1-1.1h-6.6c-0.6,0-1.1,0.5-1.1,1.1v0
				C43.1,112.3,43.6,112.8,44.2,112.8z"/>
			<path class="st2" d="M44.2,132h6.6c0.6,0,1.1-0.5,1.1-1.1l0,0c0-0.6-0.5-1.1-1.1-1.1h-6.6c-0.6,0-1.1,0.5-1.1,1.1l0,0
				C43.1,131.5,43.6,132,44.2,132z"/>
			<path class="st2" d="M65.6-12.4h6.6c0.6,0,1.1-0.5,1.1-1.1v0c0-0.6-0.5-1.1-1.1-1.1h-6.6c-0.6,0-1.1,0.5-1.1,1.1v0
				C64.4-12.9,64.9-12.4,65.6-12.4z"/>
			<path class="st2" d="M65.6-31.7h6.6c0.6,0,1.1-0.5,1.1-1.1l0,0c0-0.6-0.5-1.1-1.1-1.1h-6.6c-0.6,0-1.1,0.5-1.1,1.1l0,0
				C64.4-32.2,64.9-31.7,65.6-31.7z"/>
			<path class="st2" d="M65.6,6.8h6.6c0.6,0,1.1-0.5,1.1-1.1v0c0-0.6-0.5-1.1-1.1-1.1l-6.6,0c-0.6,0-1.1,0.5-1.1,1.1v0
				C64.4,6.3,64.9,6.8,65.6,6.8z"/>
			<path class="st2" d="M65.6,26h6.6c0.6,0,1.1-0.5,1.1-1.1v0c0-0.6-0.5-1.1-1.1-1.1h-6.6c-0.6,0-1.1,0.5-1.1,1.1v0
				C64.4,25.5,64.9,26,65.6,26z"/>
			<path class="st2" d="M65.6,45.2h6.6c0.6,0,1.1-0.5,1.1-1.1v0c0-0.6-0.5-1.1-1.1-1.1h-6.6c-0.6,0-1.1,0.5-1.1,1.1v0
				C64.4,44.7,64.9,45.2,65.6,45.2z"/>
			<path class="st2" d="M65.6,64.5h6.6c0.6,0,1.1-0.5,1.1-1.1l0,0c0-0.6-0.5-1.1-1.1-1.1h-6.6c-0.6,0-1.1,0.5-1.1,1.1l0,0
				C64.4,63.9,64.9,64.5,65.6,64.5z"/>
			<path class="st2" d="M65.6,83.7h6.6c0.6,0,1.1-0.5,1.1-1.1l0,0c0-0.6-0.5-1.1-1.1-1.1h-6.6c-0.6,0-1.1,0.5-1.1,1.1l0,0
				C64.4,83.2,64.9,83.7,65.6,83.7z"/>
			<path class="st2" d="M65.6,102.9h6.6c0.6,0,1.1-0.5,1.1-1.1l0,0c0-0.6-0.5-1.1-1.1-1.1h-6.6c-0.6,0-1.1,0.5-1.1,1.1l0,0
				C64.4,102.4,64.9,102.9,65.6,102.9z"/>
			<path class="st2" d="M65.6,122.1h6.6c0.6,0,1.1-0.5,1.1-1.1v0c0-0.6-0.5-1.1-1.1-1.1h-6.6c-0.6,0-1.1,0.5-1.1,1.1v0
				C64.4,121.6,64.9,122.1,65.6,122.1z"/>
			<path class="st2" d="M86.9-2.5h6.6c0.6,0,1.1-0.5,1.1-1.1v0c0-0.6-0.5-1.1-1.1-1.1h-6.6c-0.6,0-1.1,0.5-1.1,1.1v0
				C85.8-3.1,86.3-2.5,86.9-2.5z"/>
			<path class="st2" d="M86.9-21.8h6.6c0.6,0,1.1-0.5,1.1-1.1v0c0-0.6-0.5-1.1-1.1-1.1h-6.6c-0.6,0-1.1,0.5-1.1,1.1v0
				C85.8-22.3,86.3-21.8,86.9-21.8z"/>
			<path class="st2" d="M86.9,16.7h6.6c0.6,0,1.1-0.5,1.1-1.1v0c0-0.6-0.5-1.1-1.1-1.1h-6.6c-0.6,0-1.1,0.5-1.1,1.1v0
				C85.8,16.2,86.3,16.7,86.9,16.7z"/>
			<path class="st2" d="M86.9,35.9h6.6c0.6,0,1.1-0.5,1.1-1.1v0c0-0.6-0.5-1.1-1.1-1.1h-6.6c-0.6,0-1.1,0.5-1.1,1.1v0
				C85.8,35.4,86.3,35.9,86.9,35.9z"/>
			<path class="st2" d="M86.9,55.1h6.6c0.6,0,1.1-0.5,1.1-1.1l0,0c0-0.6-0.5-1.1-1.1-1.1h-6.6c-0.6,0-1.1,0.5-1.1,1.1l0,0
				C85.8,54.6,86.3,55.1,86.9,55.1z"/>
			<path class="st2" d="M86.9,74.4h6.6c0.6,0,1.1-0.5,1.1-1.1l0,0c0-0.6-0.5-1.1-1.1-1.1h-6.6c-0.6,0-1.1,0.5-1.1,1.1l0,0
				C85.8,73.8,86.3,74.4,86.9,74.4z"/>
			<path class="st2" d="M86.9,93.6h6.6c0.6,0,1.1-0.5,1.1-1.1l0,0c0-0.6-0.5-1.1-1.1-1.1h-6.6c-0.6,0-1.1,0.5-1.1,1.1l0,0
				C85.8,93.1,86.3,93.6,86.9,93.6z"/>
			<path class="st2" d="M86.9,112.8h6.6c0.6,0,1.1-0.5,1.1-1.1v0c0-0.6-0.5-1.1-1.1-1.1h-6.6c-0.6,0-1.1,0.5-1.1,1.1v0
				C85.8,112.3,86.3,112.8,86.9,112.8z"/>
			<path class="st2" d="M86.9,132h6.6c0.6,0,1.1-0.5,1.1-1.1l0,0c0-0.6-0.5-1.1-1.1-1.1h-6.6c-0.6,0-1.1,0.5-1.1,1.1l0,0
				C85.8,131.5,86.3,132,86.9,132z"/>
		</g>
	</g>
	<circle class="st3" cx="94.1" cy="119.5" r="44.2"/>
	<path class="st0" d="M41.6,103.6c-0.4-0.1-0.9-0.1-1.3-0.1c-1.5,0-3,0.6-4.1,1.7c-1.4,1.4-2,3.4-1.5,5.4c0.5,2.1,2.2,3.8,4.3,4.3
		c2,0.4,4-0.1,5.4-1.5c1.4-1.4,2-3.4,1.5-5.4C45.4,105.8,43.7,104.1,41.6,103.6z M43.4,109.8c-0.2,1.2-1.2,2.2-2.5,2.5
		c-0.2,0-0.4,0.1-0.6,0.1c-0.8,0-1.6-0.3-2.2-0.9c-0.7-0.7-1.1-1.8-0.9-2.8c0.2-1.2,1.2-2.2,2.5-2.5c1-0.2,2.1,0.1,2.8,0.9
		C43.3,107.7,43.6,108.7,43.4,109.8z"/>
	<path class="st0" d="M21.9,85c-0.8,0-1.5,0.7-1.5,1.5s0.7,1.5,1.5,1.5s1.5-0.7,1.5-1.5S22.7,85,21.9,85z"/>
	<path class="st0" d="M65.4,122.6c-0.8,0-1.5,0.7-1.5,1.5s0.7,1.5,1.5,1.5s1.5-0.7,1.5-1.5S66.2,122.6,65.4,122.6z"/>
	<path class="st0" d="M60.7,122.6c-0.8,0-1.5,0.7-1.5,1.5s0.7,1.5,1.5,1.5s1.5-0.7,1.5-1.5S61.5,122.6,60.7,122.6z"/>
	<path class="st0" d="M56,122.6c-0.8,0-1.5,0.7-1.5,1.5s0.7,1.5,1.5,1.5s1.5-0.7,1.5-1.5S56.8,122.6,56,122.6z"/>
	<path class="st0" d="M21.9,90.2c-0.8,0-1.5,0.7-1.5,1.5c0,0.8,0.7,1.5,1.5,1.5s1.5-0.7,1.5-1.5C23.4,90.8,22.7,90.2,21.9,90.2z"/>
	<path class="st0" d="M100.7,113.8h-6v-3.2c0-1.5-1.2-2.7-2.7-2.7h-0.2h-2.6H89h-3.2V50.3c0-3-1.3-5.8-3.6-7.7
		C80,40.6,77,39.8,74,40.3c-4.8,0.8-8.4,5.2-8.4,10.3v27.7c0,3.1-2.5,5.8-5.6,6l-0.1,0l-0.1,0c-1.4-1.1-2.9-2-4.5-2.9L54.8,81H58
		c2.3,0,4.2-1.9,4.2-4.2V50.6c0-7,5.1-12.9,11.9-13.7c3.9-0.4,7.6,0.7,10.5,3.3c2.9,2.6,4.5,6.2,4.5,10v54.7h2.6V50.7
		c0-8.4-6.1-15.4-14.2-16.4c-4.6-0.5-9.1,0.9-12.5,4c-3.4,3-5.4,7.4-5.4,12v26.5c0,0.9-0.7,1.6-1.6,1.6l-9.9,0
		c-2.5-0.7-5.1-1.2-7.8-1.4l-0.2,0v-2.1c0-1.3-1.1-2.4-2.4-2.4h-8.1c-1.3,0-2.4,1.1-2.4,2.4v2h-3.1c-5.6,0-10.1,4.5-10.1,10.1v19.2
		c0,4,3.2,7.2,7.2,7.2h8.4l0,0.1c1.8,4.4,6,7.3,10.8,7.3c4.7,0,9-2.8,10.8-7.3l0-0.1h12.8c4,0,7.2-3.2,7.2-7.1
		c0-7.4-3-14.4-8.5-19.7l-0.2-0.2l0.3-0.1c3.3-1.3,5.5-4.5,5.5-8.1V50.5c0-3.7,2.5-6.8,5.9-7.6c2.3-0.5,4.6,0,6.4,1.5
		c1.8,1.4,2.8,3.6,2.8,5.9v57.6h-0.2c-1.5,0-2.8,1.2-2.8,2.7v3.2h-4.3c-3.3,0-6,2.7-6,6v1.2c0,2.4,1.9,4.3,4.3,4.3h26.4
		c2.4,0,4.3-1.9,4.3-4.3v-2.8C105,115.7,103.1,113.8,100.7,113.8z M29.8,76.1c0-0.5,0.4-0.9,0.9-0.9h5.6c0.6,0,1.1,0.5,1.1,1.1v0.7
		h-7.7V76.1z M49.2,110.7c-0.6,3.7-3.6,6.7-7.4,7.4c-0.5,0.1-1,0.1-1.5,0.1c-2.4,0-4.6-0.9-6.4-2.6c-2.1-2.1-3-5-2.5-7.9
		c0.6-3.7,3.6-6.7,7.4-7.4c2.9-0.5,5.8,0.4,7.9,2.5C48.8,104.9,49.7,107.8,49.2,110.7z M68.5,106.3c0,2.5-2.1,4.6-4.6,4.6H51.8
		l0-0.2c0.1-0.5,0.1-1,0.1-1.5c0-6.4-5.2-11.6-11.6-11.6s-11.6,5.2-11.6,11.6c0,0.4,0,0.9,0.1,1.5l0,0.2h-7.7
		c-2.5,0-4.6-2.1-4.6-4.6V87.1c0-4.2,3.4-7.5,7.5-7.5h13.3c8.4,0,16.3,2.7,22.1,7.7C65.3,92.3,68.5,99,68.5,106.3z M82.9,111.7
		c0-0.7,0.5-1.2,1.2-1.2h6.8c0.7,0,1.2,0.5,1.2,1.2v2.1h-9.2V111.7z M102.4,119.9c0,1.5-1.2,2.7-2.7,2.7H75.3
		c-1.5,0-2.7-1.2-2.7-2.7v-0.8c0-1.5,1.2-2.7,2.7-2.7h24.4c1.5,0,2.7,1.2,2.7,2.7V119.9z"/>
	<circle class="st0" cx="90.4" cy="104.8" r="1.3"/>
</g>
</svg>
