<?xml version="1.0" encoding="utf-8"?>
<!-- Generator: Adobe Illustrator 24.1.0, SVG Export Plug-In . SVG Version: 6.00 Build 0)  -->
<svg version="1.1" id="Layer_1" xmlns="http://www.w3.org/2000/svg" xmlns:xlink="http://www.w3.org/1999/xlink" x="0px" y="0px"
	 viewBox="0 0 120 150" style="enable-background:new 0 0 120 150;" xml:space="preserve">
<style type="text/css">
	.st0{clip-path:url(#SVGID_2_);}
	.st1{clip-path:url(#SVGID_4_);}
	.st2{fill:#FFCFEB;}
	.st3{clip-path:url(#SVGID_6_);fill:none;stroke:#FFCFEB;stroke-width:3;stroke-miterlimit:10;}
	.st4{clip-path:url(#SVGID_8_);}
	.st5{clip-path:url(#SVGID_10_);}
	.st6{clip-path:url(#SVGID_12_);}
	.st7{clip-path:url(#SVGID_14_);}
	.st8{clip-path:url(#SVGID_16_);}
	.st9{clip-path:url(#SVGID_18_);}
	.st10{fill:none;}
</style>
<g>
	<defs>
		<rect id="SVGID_1_" y="0" width="120" height="150"/>
	</defs>
	<clipPath id="SVGID_2_">
		<use xlink:href="#SVGID_1_"  style="overflow:visible;"/>
	</clipPath>
	<g class="st0">
		<g>
			<defs>
				<rect id="SVGID_3_" x="-23.1" y="-22.9" width="82.5" height="87.4"/>
			</defs>
			<clipPath id="SVGID_4_">
				<use xlink:href="#SVGID_3_"  style="overflow:visible;"/>
			</clipPath>
			<g class="st1">
				<path class="st2" d="M-19.8-12.4h6.6c0.6,0,1.1-0.5,1.1-1.1l0,0c0-0.6-0.5-1.1-1.1-1.1h-6.6c-0.6,0-1.1,0.5-1.1,1.1l0,0
					C-20.9-12.9-20.4-12.4-19.8-12.4z"/>
				<path class="st2" d="M-19.8-31.7h6.6c0.6,0,1.1-0.5,1.1-1.1l0,0c0-0.6-0.5-1.1-1.1-1.1h-6.6c-0.6,0-1.1,0.5-1.1,1.1l0,0
					C-20.9-32.2-20.4-31.7-19.8-31.7z"/>
				<path class="st2" d="M-19.8,6.8h6.6c0.6,0,1.1-0.5,1.1-1.1l0,0c0-0.6-0.5-1.1-1.1-1.1h-6.6c-0.6,0-1.1,0.5-1.1,1.1l0,0
					C-20.9,6.3-20.4,6.8-19.8,6.8z"/>
				<path class="st2" d="M-19.8,26h6.6c0.6,0,1.1-0.5,1.1-1.1l0,0c0-0.6-0.5-1.1-1.1-1.1h-6.6c-0.6,0-1.1,0.5-1.1,1.1l0,0
					C-20.9,25.5-20.4,26-19.8,26z"/>
				<path class="st2" d="M-19.8,45.2h6.6c0.6,0,1.1-0.5,1.1-1.1l0,0c0-0.6-0.5-1.1-1.1-1.1h-6.6c-0.6,0-1.1,0.5-1.1,1.1l0,0
					C-20.9,44.7-20.4,45.2-19.8,45.2z"/>
				<path class="st2" d="M-19.8,64.5h6.6c0.6,0,1.1-0.5,1.1-1.1l0,0c0-0.6-0.5-1.1-1.1-1.1h-6.6c-0.6,0-1.1,0.5-1.1,1.1l0,0
					C-20.9,63.9-20.4,64.5-19.8,64.5z"/>
				<path class="st2" d="M-19.8,83.7h6.6c0.6,0,1.1-0.5,1.1-1.1l0,0c0-0.6-0.5-1.1-1.1-1.1h-6.6c-0.6,0-1.1,0.5-1.1,1.1l0,0
					C-20.9,83.2-20.4,83.7-19.8,83.7z"/>
				<path class="st2" d="M-19.8,102.9h6.6c0.6,0,1.1-0.5,1.1-1.1l0,0c0-0.6-0.5-1.1-1.1-1.1h-6.6c-0.6,0-1.1,0.5-1.1,1.1l0,0
					C-20.9,102.4-20.4,102.9-19.8,102.9z"/>
				<path class="st2" d="M-19.8,122.1h6.6c0.6,0,1.1-0.5,1.1-1.1l0,0c0-0.6-0.5-1.1-1.1-1.1h-6.6c-0.6,0-1.1,0.5-1.1,1.1l0,0
					C-20.9,121.6-20.4,122.1-19.8,122.1z"/>
				<path class="st2" d="M1.6-2.5h6.6c0.6,0,1.1-0.5,1.1-1.1l0,0c0-0.6-0.5-1.1-1.1-1.1H1.6C1-4.7,0.5-4.2,0.5-3.6l0,0
					C0.4-3.1,0.9-2.5,1.6-2.5z"/>
				<path class="st2" d="M1.6-21.8h6.6c0.6,0,1.1-0.5,1.1-1.1l0,0c0-0.6-0.5-1.1-1.1-1.1H1.6c-0.6,0-1.1,0.5-1.1,1.1l0,0
					C0.4-22.3,0.9-21.8,1.6-21.8z"/>
				<path class="st2" d="M1.6,16.7h6.6c0.6,0,1.1-0.5,1.1-1.1l0,0c0-0.6-0.5-1.1-1.1-1.1H1.6c-0.6,0-1.1,0.5-1.1,1.1l0,0
					C0.4,16.2,0.9,16.7,1.6,16.7z"/>
				<path class="st2" d="M1.6,35.9h6.6c0.6,0,1.1-0.5,1.1-1.1l0,0c0-0.6-0.5-1.1-1.1-1.1H1.6c-0.6,0-1.1,0.5-1.1,1.1l0,0
					C0.4,35.4,0.9,35.9,1.6,35.9z"/>
				<path class="st2" d="M1.6,55.1h6.6c0.6,0,1.1-0.5,1.1-1.1l0,0c0-0.6-0.5-1.1-1.1-1.1H1.6c-0.6,0-1.1,0.5-1.1,1.1l0,0
					C0.4,54.6,0.9,55.1,1.6,55.1z"/>
				<path class="st2" d="M1.6,74.4h6.6c0.6,0,1.1-0.5,1.1-1.1l0,0c0-0.6-0.5-1.1-1.1-1.1H1.6c-0.6,0-1.1,0.5-1.1,1.1l0,0
					C0.4,73.8,0.9,74.4,1.6,74.4z"/>
				<path class="st2" d="M1.6,93.6h6.6c0.6,0,1.1-0.5,1.1-1.1l0,0c0-0.6-0.5-1.1-1.1-1.1H1.6c-0.6,0-1.1,0.5-1.1,1.1l0,0
					C0.4,93.1,0.9,93.6,1.6,93.6z"/>
				<path class="st2" d="M1.6,112.8h6.6c0.6,0,1.1-0.5,1.1-1.1l0,0c0-0.6-0.5-1.1-1.1-1.1H1.6c-0.6,0-1.1,0.5-1.1,1.1l0,0
					C0.4,112.3,0.9,112.8,1.6,112.8z"/>
				<path class="st2" d="M1.6,132h6.6c0.6,0,1.1-0.5,1.1-1.1l0,0c0-0.6-0.5-1.1-1.1-1.1H1.6c-0.6,0-1.1,0.5-1.1,1.1l0,0
					C0.4,131.5,0.9,132,1.6,132z"/>
				<path class="st2" d="M22.9-12.4h6.6c0.6,0,1.1-0.5,1.1-1.1l0,0c0-0.6-0.5-1.1-1.1-1.1h-6.6c-0.6,0-1.1,0.5-1.1,1.1l0,0
					C21.8-12.9,22.3-12.4,22.9-12.4z"/>
				<path class="st2" d="M22.9-31.7h6.6c0.6,0,1.1-0.5,1.1-1.1l0,0c0-0.6-0.5-1.1-1.1-1.1h-6.6c-0.6,0-1.1,0.5-1.1,1.1l0,0
					C21.8-32.2,22.3-31.7,22.9-31.7z"/>
				<path class="st2" d="M22.9,6.8h6.6c0.6,0,1.1-0.5,1.1-1.1l0,0c0-0.6-0.5-1.1-1.1-1.1h-6.6c-0.6,0-1.1,0.5-1.1,1.1l0,0
					C21.8,6.3,22.3,6.8,22.9,6.8z"/>
				<path class="st2" d="M22.9,26h6.6c0.6,0,1.1-0.5,1.1-1.1l0,0c0-0.6-0.5-1.1-1.1-1.1h-6.6c-0.6,0-1.1,0.5-1.1,1.1l0,0
					C21.8,25.5,22.3,26,22.9,26z"/>
				<path class="st2" d="M22.9,45.2h6.6c0.6,0,1.1-0.5,1.1-1.1l0,0c0-0.6-0.5-1.1-1.1-1.1h-6.6c-0.6,0-1.1,0.5-1.1,1.1l0,0
					C21.8,44.7,22.3,45.2,22.9,45.2z"/>
				<path class="st2" d="M22.9,64.5h6.6c0.6,0,1.1-0.5,1.1-1.1l0,0c0-0.6-0.5-1.1-1.1-1.1h-6.6c-0.6,0-1.1,0.5-1.1,1.1l0,0
					C21.8,63.9,22.3,64.5,22.9,64.5z"/>
				<path class="st2" d="M22.9,83.7h6.6c0.6,0,1.1-0.5,1.1-1.1l0,0c0-0.6-0.5-1.1-1.1-1.1h-6.6c-0.6,0-1.1,0.5-1.1,1.1l0,0
					C21.8,83.2,22.3,83.7,22.9,83.7z"/>
				<path class="st2" d="M22.9,102.9h6.6c0.6,0,1.1-0.5,1.1-1.1l0,0c0-0.6-0.5-1.1-1.1-1.1h-6.6c-0.6,0-1.1,0.5-1.1,1.1l0,0
					C21.8,102.4,22.3,102.9,22.9,102.9z"/>
				<path class="st2" d="M22.9,122.1h6.6c0.6,0,1.1-0.5,1.1-1.1l0,0c0-0.6-0.5-1.1-1.1-1.1h-6.6c-0.6,0-1.1,0.5-1.1,1.1l0,0
					C21.8,121.6,22.3,122.1,22.9,122.1z"/>
				<path class="st2" d="M44.2-2.5h6.6c0.6,0,1.1-0.5,1.1-1.1l0,0c0-0.6-0.5-1.1-1.1-1.1h-6.6c-0.6,0-1.1,0.5-1.1,1.1l0,0
					C43.1-3.1,43.6-2.5,44.2-2.5z"/>
				<path class="st2" d="M44.2-21.8h6.6c0.6,0,1.1-0.5,1.1-1.1l0,0c0-0.6-0.5-1.1-1.1-1.1h-6.6c-0.6,0-1.1,0.5-1.1,1.1l0,0
					C43.1-22.3,43.6-21.8,44.2-21.8z"/>
				<path class="st2" d="M44.2,16.7h6.6c0.6,0,1.1-0.5,1.1-1.1l0,0c0-0.6-0.5-1.1-1.1-1.1h-6.6c-0.6,0-1.1,0.5-1.1,1.1l0,0
					C43.1,16.2,43.6,16.7,44.2,16.7z"/>
				<path class="st2" d="M44.2,35.9h6.6c0.6,0,1.1-0.5,1.1-1.1l0,0c0-0.6-0.5-1.1-1.1-1.1h-6.6c-0.6,0-1.1,0.5-1.1,1.1l0,0
					C43.1,35.4,43.6,35.9,44.2,35.9z"/>
				<path class="st2" d="M44.2,55.1h6.6c0.6,0,1.1-0.5,1.1-1.1l0,0c0-0.6-0.5-1.1-1.1-1.1h-6.6c-0.6,0-1.1,0.5-1.1,1.1l0,0
					C43.1,54.6,43.6,55.1,44.2,55.1z"/>
				<path class="st2" d="M44.2,74.4h6.6c0.6,0,1.1-0.5,1.1-1.1l0,0c0-0.6-0.5-1.1-1.1-1.1h-6.6c-0.6,0-1.1,0.5-1.1,1.1l0,0
					C43.1,73.8,43.6,74.4,44.2,74.4z"/>
				<path class="st2" d="M44.2,93.6h6.6c0.6,0,1.1-0.5,1.1-1.1l0,0c0-0.6-0.5-1.1-1.1-1.1h-6.6c-0.6,0-1.1,0.5-1.1,1.1l0,0
					C43.1,93.1,43.6,93.6,44.2,93.6z"/>
				<path class="st2" d="M44.2,112.8h6.6c0.6,0,1.1-0.5,1.1-1.1l0,0c0-0.6-0.5-1.1-1.1-1.1h-6.6c-0.6,0-1.1,0.5-1.1,1.1l0,0
					C43.1,112.3,43.6,112.8,44.2,112.8z"/>
				<path class="st2" d="M44.2,132h6.6c0.6,0,1.1-0.5,1.1-1.1l0,0c0-0.6-0.5-1.1-1.1-1.1h-6.6c-0.6,0-1.1,0.5-1.1,1.1l0,0
					C43.1,131.5,43.6,132,44.2,132z"/>
				<path class="st2" d="M65.6-12.4h6.6c0.6,0,1.1-0.5,1.1-1.1l0,0c0-0.6-0.5-1.1-1.1-1.1h-6.6c-0.6,0-1.1,0.5-1.1,1.1l0,0
					C64.4-12.9,64.9-12.4,65.6-12.4z"/>
				<path class="st2" d="M65.6-31.7h6.6c0.6,0,1.1-0.5,1.1-1.1l0,0c0-0.6-0.5-1.1-1.1-1.1h-6.6c-0.6,0-1.1,0.5-1.1,1.1l0,0
					C64.4-32.2,64.9-31.7,65.6-31.7z"/>
				<path class="st2" d="M65.6,6.8h6.6c0.6,0,1.1-0.5,1.1-1.1l0,0c0-0.6-0.5-1.1-1.1-1.1h-6.6c-0.6,0-1.1,0.5-1.1,1.1l0,0
					C64.4,6.3,64.9,6.8,65.6,6.8z"/>
				<path class="st2" d="M65.6,26h6.6c0.6,0,1.1-0.5,1.1-1.1l0,0c0-0.6-0.5-1.1-1.1-1.1h-6.6c-0.6,0-1.1,0.5-1.1,1.1l0,0
					C64.4,25.5,64.9,26,65.6,26z"/>
				<path class="st2" d="M65.6,45.2h6.6c0.6,0,1.1-0.5,1.1-1.1l0,0c0-0.6-0.5-1.1-1.1-1.1h-6.6c-0.6,0-1.1,0.5-1.1,1.1l0,0
					C64.4,44.7,64.9,45.2,65.6,45.2z"/>
				<path class="st2" d="M65.6,64.5h6.6c0.6,0,1.1-0.5,1.1-1.1l0,0c0-0.6-0.5-1.1-1.1-1.1h-6.6c-0.6,0-1.1,0.5-1.1,1.1l0,0
					C64.4,63.9,64.9,64.5,65.6,64.5z"/>
				<path class="st2" d="M65.6,83.7h6.6c0.6,0,1.1-0.5,1.1-1.1l0,0c0-0.6-0.5-1.1-1.1-1.1h-6.6c-0.6,0-1.1,0.5-1.1,1.1l0,0
					C64.4,83.2,64.9,83.7,65.6,83.7z"/>
				<path class="st2" d="M65.6,102.9h6.6c0.6,0,1.1-0.5,1.1-1.1l0,0c0-0.6-0.5-1.1-1.1-1.1h-6.6c-0.6,0-1.1,0.5-1.1,1.1l0,0
					C64.4,102.4,64.9,102.9,65.6,102.9z"/>
				<path class="st2" d="M65.6,122.1h6.6c0.6,0,1.1-0.5,1.1-1.1l0,0c0-0.6-0.5-1.1-1.1-1.1h-6.6c-0.6,0-1.1,0.5-1.1,1.1l0,0
					C64.4,121.6,64.9,122.1,65.6,122.1z"/>
				<path class="st2" d="M86.9-2.5h6.6c0.6,0,1.1-0.5,1.1-1.1l0,0c0-0.6-0.5-1.1-1.1-1.1h-6.6c-0.6,0-1.1,0.5-1.1,1.1l0,0
					C85.8-3.1,86.3-2.5,86.9-2.5z"/>
				<path class="st2" d="M86.9-21.8h6.6c0.6,0,1.1-0.5,1.1-1.1l0,0c0-0.6-0.5-1.1-1.1-1.1h-6.6c-0.6,0-1.1,0.5-1.1,1.1l0,0
					C85.8-22.3,86.3-21.8,86.9-21.8z"/>
				<path class="st2" d="M86.9,16.7h6.6c0.6,0,1.1-0.5,1.1-1.1l0,0c0-0.6-0.5-1.1-1.1-1.1h-6.6c-0.6,0-1.1,0.5-1.1,1.1l0,0
					C85.8,16.2,86.3,16.7,86.9,16.7z"/>
				<path class="st2" d="M86.9,35.9h6.6c0.6,0,1.1-0.5,1.1-1.1l0,0c0-0.6-0.5-1.1-1.1-1.1h-6.6c-0.6,0-1.1,0.5-1.1,1.1l0,0
					C85.8,35.4,86.3,35.9,86.9,35.9z"/>
				<path class="st2" d="M86.9,55.1h6.6c0.6,0,1.1-0.5,1.1-1.1l0,0c0-0.6-0.5-1.1-1.1-1.1h-6.6c-0.6,0-1.1,0.5-1.1,1.1l0,0
					C85.8,54.6,86.3,55.1,86.9,55.1z"/>
				<path class="st2" d="M86.9,74.4h6.6c0.6,0,1.1-0.5,1.1-1.1l0,0c0-0.6-0.5-1.1-1.1-1.1h-6.6c-0.6,0-1.1,0.5-1.1,1.1l0,0
					C85.8,73.8,86.3,74.4,86.9,74.4z"/>
				<path class="st2" d="M86.9,93.6h6.6c0.6,0,1.1-0.5,1.1-1.1l0,0c0-0.6-0.5-1.1-1.1-1.1h-6.6c-0.6,0-1.1,0.5-1.1,1.1l0,0
					C85.8,93.1,86.3,93.6,86.9,93.6z"/>
				<path class="st2" d="M86.9,112.8h6.6c0.6,0,1.1-0.5,1.1-1.1l0,0c0-0.6-0.5-1.1-1.1-1.1h-6.6c-0.6,0-1.1,0.5-1.1,1.1l0,0
					C85.8,112.3,86.3,112.8,86.9,112.8z"/>
				<path class="st2" d="M86.9,132h6.6c0.6,0,1.1-0.5,1.1-1.1l0,0c0-0.6-0.5-1.1-1.1-1.1h-6.6c-0.6,0-1.1,0.5-1.1,1.1l0,0
					C85.8,131.5,86.3,132,86.9,132z"/>
			</g>
		</g>
	</g>
</g>
<g>
	<defs>
		<rect id="SVGID_5_" y="0" width="120" height="150"/>
	</defs>
	<clipPath id="SVGID_6_">
		<use xlink:href="#SVGID_5_"  style="overflow:visible;"/>
	</clipPath>
	<circle class="st3" cx="94.1" cy="119.5" r="44.2"/>
</g>
<g>
	<defs>
		<rect id="SVGID_7_" y="0" width="120" height="150"/>
	</defs>
	<clipPath id="SVGID_8_">
		<use xlink:href="#SVGID_7_"  style="overflow:visible;"/>
	</clipPath>
	<path class="st4" d="M45.8,108c-0.5-2.1-2.1-3.8-4.2-4.3l0,0c-0.4-0.1-0.9-0.1-1.3-0.1c-1.5,0-3,0.6-4,1.7
		c-1.4,1.4-1.9,3.4-1.5,5.3c0.5,2.1,2.1,3.7,4.2,4.2c2,0.4,3.9-0.1,5.3-1.5C45.7,111.9,46.3,109.9,45.8,108z M43.5,109.8
		c-0.2,1.2-1.3,2.3-2.6,2.6c-0.1,0-0.2,0-0.3,0c-0.1,0-0.2,0.1-0.3,0.1c-0.9,0-1.7-0.3-2.3-0.9c-0.8-0.8-1.1-1.9-0.9-2.9
		c0.2-1.2,1.2-2.3,2.6-2.6c1.1-0.2,2.2,0.1,2.9,0.9C43.4,107.6,43.7,108.6,43.5,109.8z"/>
</g>
<g>
	<defs>
		<rect id="SVGID_9_" y="0" width="120" height="150"/>
	</defs>
	<clipPath id="SVGID_10_">
		<use xlink:href="#SVGID_9_"  style="overflow:visible;"/>
	</clipPath>
	<path class="st5" d="M21.9,85c-0.8,0-1.5,0.7-1.5,1.5s0.7,1.5,1.5,1.5s1.5-0.7,1.5-1.5S22.7,85,21.9,85z"/>
</g>
<g>
	<defs>
		<rect id="SVGID_11_" y="0" width="120" height="150"/>
	</defs>
	<clipPath id="SVGID_12_">
		<use xlink:href="#SVGID_11_"  style="overflow:visible;"/>
	</clipPath>
	<path class="st6" d="M65.4,122.6c-0.8,0-1.5,0.7-1.5,1.5s0.7,1.5,1.5,1.5s1.5-0.7,1.5-1.5S66.2,122.6,65.4,122.6z"/>
</g>
<g>
	<defs>
		<rect id="SVGID_13_" y="0" width="120" height="150"/>
	</defs>
	<clipPath id="SVGID_14_">
		<use xlink:href="#SVGID_13_"  style="overflow:visible;"/>
	</clipPath>
	<path class="st7" d="M60.7,122.6c-0.8,0-1.5,0.7-1.5,1.5s0.7,1.5,1.5,1.5s1.5-0.7,1.5-1.5S61.5,122.6,60.7,122.6z"/>
</g>
<g>
	<defs>
		<rect id="SVGID_15_" y="0" width="120" height="150"/>
	</defs>
	<clipPath id="SVGID_16_">
		<use xlink:href="#SVGID_15_"  style="overflow:visible;"/>
	</clipPath>
	<path class="st8" d="M56,122.6c-0.8,0-1.5,0.7-1.5,1.5s0.7,1.5,1.5,1.5s1.5-0.7,1.5-1.5S56.8,122.6,56,122.6z"/>
</g>
<g>
	<defs>
		<rect id="SVGID_17_" y="0" width="120" height="150"/>
	</defs>
	<clipPath id="SVGID_18_">
		<use xlink:href="#SVGID_17_"  style="overflow:visible;"/>
	</clipPath>
	<path class="st9" d="M21.9,90.2c-0.8,0-1.5,0.7-1.5,1.5s0.7,1.5,1.5,1.5s1.5-0.7,1.5-1.5C23.4,90.8,22.7,90.2,21.9,90.2z"/>
</g>
<rect y="0" class="st10" width="120" height="150"/>
<path d="M74.4,125.2h26.4c2.3,0,4.2-1.8,4.2-4.2v-2.8c-0.1-2.4-1.9-4.3-4.3-4.3h-6.1v-3.3c0-1.4-1.2-2.6-2.6-2.6h-6.3V50.3
	c0-3-1.3-5.7-3.6-7.6C80,40.7,77,39.9,74,40.4c-4.7,0.8-8.3,5.2-8.3,10.2v27.7c0,3.2-2.6,5.9-5.7,6.1h-0.3l0,0
	c-1.4-1.1-3-2.1-4.5-2.9l-0.8-0.6H58c2.2,0,4.1-1.8,4.1-4.1V50.6c0-7.1,5.2-13,12-13.8c4-0.4,7.7,0.7,10.6,3.3
	c2.9,2.6,4.5,6.2,4.5,10.1v54.6l0,0.1c0,0.6,0.5,1.1,1.2,1.1c0.6,0,1.1-0.5,1.2-1.1l0-0.1V50.7c0-8.3-6.1-15.3-14.1-16.3
	c-4.6-0.5-9,0.9-12.4,4c-3.4,3-5.4,7.3-5.4,11.9v26.5c0,1-0.8,1.7-1.7,1.7l-9.9,0c-2.7-0.7-5.2-1.2-7.8-1.4H40v-2.2
	c0-1.2-1-2.3-2.3-2.3h-8.1c-1.2,0-2.3,1-2.3,2.3V77h-3.2c-5.5,0-10,4.5-10,10v19.2c0,3.9,3.2,7.1,7.1,7.1h8.5v0.2
	c1.8,4.4,6,7.2,10.7,7.2c4.7,0,8.9-2.8,10.7-7.2v-0.2H64c3.9,0,7.1-3.1,7.1-7c0-7.4-3-14.4-8.5-19.6l-0.3-0.3l0.5-0.2
	c3.3-1.3,5.4-4.4,5.4-8V50.5c0-3.7,2.5-6.9,6-7.7c2.4-0.5,4.7,0,6.5,1.5c1.8,1.4,2.8,3.6,2.8,6V108h-0.3c-1.5,0-2.7,1.2-2.7,2.6v3.3
	h-4.4c-3.2,0-5.9,2.6-5.9,5.9v1.2C70.2,123.3,72.1,125.2,74.4,125.2z M29.6,76h0.1c0.1-0.5,0.5-0.9,1-0.9h5.6c0.7,0,1.2,0.6,1.2,1.2
	v0.8h-7.9V76z M49.3,110.7c-0.6,3.8-3.6,6.8-7.5,7.5c-0.5,0.1-1,0.1-1.5,0.1c-2.4,0-4.7-0.9-6.5-2.6c-2.1-2.1-3-5-2.5-8
	c0.6-3.8,3.6-6.8,7.5-7.5c3-0.5,5.9,0.4,8,2.5C48.9,104.8,49.8,107.8,49.3,110.7z M68.6,106.3c0,2.6-2.2,4.7-4.7,4.7H51.7v-0.3
	c0.1-0.5,0.1-1,0.1-1.5c0-6.3-5.1-11.5-11.5-11.5s-11.5,5.1-11.5,11.5c0,0.4,0,0.9,0.1,1.5l0,0.3h-7.8c-2.6,0-4.7-2.2-4.7-4.7V87.1
	c0-4.2,3.4-7.6,7.6-7.6h13.3c8.5,0,16.4,2.7,22.2,7.7C65.4,92.2,68.6,99,68.6,106.3z M82.8,111.7c0-0.8,0.6-1.3,1.3-1.3h6.8
	c0.8,0,1.3,0.6,1.3,1.3v2.2h-9.4V111.7z M72.5,119.1c0-1.6,1.3-2.8,2.8-2.8h24.4c1.6,0,2.8,1.3,2.8,2.8v0.8c0,1.6-1.3,2.8-2.8,2.8
	H75.3c-1.6,0-2.8-1.3-2.8-2.8V119.1z"/>
</svg>
