<?xml version="1.0" encoding="utf-8"?>
<!-- Generator: Adobe Illustrator 24.1.0, SVG Export Plug-In . SVG Version: 6.00 Build 0)  -->
<svg version="1.1" id="Layer_1" xmlns="http://www.w3.org/2000/svg" xmlns:xlink="http://www.w3.org/1999/xlink" x="0px" y="0px"
	 viewBox="0 0 120 150" style="enable-background:new 0 0 120 150;" xml:space="preserve">
<style type="text/css">
	.st0{clip-path:url(#SVGID_2_);}
	.st1{clip-path:url(#SVGID_4_);}
	.st2{fill:#FFCFEB;}
	.st3{clip-path:url(#SVGID_6_);fill:none;stroke:#FFCFEB;stroke-width:3;stroke-miterlimit:10;}
	.st4{clip-path:url(#SVGID_8_);}
</style>
<g>
	<g>
		<defs>
			<rect id="SVGID_1_" y="0.4" width="120" height="150"/>
		</defs>
		<clipPath id="SVGID_2_">
			<use xlink:href="#SVGID_1_"  style="overflow:visible;"/>
		</clipPath>
		<g class="st0">
			<g>
				<defs>
					<rect id="SVGID_3_" x="67.6" y="-43.1" width="82.5" height="87.4"/>
				</defs>
				<clipPath id="SVGID_4_">
					<use xlink:href="#SVGID_3_"  style="overflow:visible;"/>
				</clipPath>
				<g class="st1">
					<path class="st2" d="M71-32.6h6.6c0.6,0,1.1-0.5,1.1-1.1l0,0c0-0.6-0.5-1.1-1.1-1.1H71c-0.6,0-1.1,0.5-1.1,1.1l0,0
						C69.8-33.1,70.3-32.6,71-32.6z"/>
					<path class="st2" d="M71-51.8h6.6c0.6,0,1.1-0.5,1.1-1.1l0,0c0-0.6-0.5-1.1-1.1-1.1H71c-0.6,0-1.1,0.5-1.1,1.1l0,0
						C69.8-52.3,70.3-51.8,71-51.8z"/>
					<path class="st2" d="M71-13.4h6.6c0.6,0,1.1-0.5,1.1-1.1l0,0c0-0.6-0.5-1.1-1.1-1.1H71c-0.6,0-1.1,0.5-1.1,1.1l0,0
						C69.8-13.9,70.3-13.4,71-13.4z"/>
					<path class="st2" d="M71,5.8h6.6c0.6,0,1.1-0.5,1.1-1.1l0,0c0-0.6-0.5-1.1-1.1-1.1H71c-0.6,0-1.1,0.5-1.1,1.1l0,0
						C69.8,5.3,70.3,5.8,71,5.8z"/>
					<path class="st2" d="M71,25.1h6.6c0.6,0,1.1-0.5,1.1-1.1l0,0c0-0.6-0.5-1.1-1.1-1.1H71c-0.6,0-1.1,0.5-1.1,1.1l0,0
						C69.8,24.6,70.3,25.1,71,25.1z"/>
					<path class="st2" d="M71,44.3h6.6c0.6,0,1.1-0.5,1.1-1.1l0,0c0-0.6-0.5-1.1-1.1-1.1H71c-0.6,0-1.1,0.5-1.1,1.1l0,0
						C69.8,43.8,70.3,44.3,71,44.3z"/>
					<path class="st2" d="M71,63.5h6.6c0.6,0,1.1-0.5,1.1-1.1l0,0c0-0.6-0.5-1.1-1.1-1.1H71c-0.6,0-1.1,0.5-1.1,1.1l0,0
						C69.8,63,70.3,63.5,71,63.5z"/>
					<path class="st2" d="M71,82.7h6.6c0.6,0,1.1-0.5,1.1-1.1l0,0c0-0.6-0.5-1.1-1.1-1.1H71c-0.6,0-1.1,0.5-1.1,1.1l0,0
						C69.8,82.2,70.3,82.7,71,82.7z"/>
					<path class="st2" d="M71,102h6.6c0.6,0,1.1-0.5,1.1-1.1l0,0c0-0.6-0.5-1.1-1.1-1.1H71c-0.6,0-1.1,0.5-1.1,1.1l0,0
						C69.8,101.5,70.3,102,71,102z"/>
					<path class="st2" d="M92.3-22.7h6.6c0.6,0,1.1-0.5,1.1-1.1l0,0c0-0.6-0.5-1.1-1.1-1.1h-6.6c-0.6,0-1.1,0.5-1.1,1.1l0,0
						C91.2-23.2,91.7-22.7,92.3-22.7z"/>
					<path class="st2" d="M92.3-41.9h6.6c0.6,0,1.1-0.5,1.1-1.1l0,0c0-0.6-0.5-1.1-1.1-1.1h-6.6c-0.6,0-1.1,0.5-1.1,1.1l0,0
						C91.2-42.4,91.7-41.9,92.3-41.9z"/>
					<path class="st2" d="M92.3-3.5h6.6c0.6,0,1.1-0.5,1.1-1.1l0,0c0-0.6-0.5-1.1-1.1-1.1h-6.6c-0.6,0-1.1,0.5-1.1,1.1l0,0
						C91.2-4,91.7-3.5,92.3-3.5z"/>
					<path class="st2" d="M92.3,15.7h6.6c0.6,0,1.1-0.5,1.1-1.1l0,0c0-0.6-0.5-1.1-1.1-1.1h-6.6c-0.6,0-1.1,0.5-1.1,1.1l0,0
						C91.2,15.2,91.7,15.7,92.3,15.7z"/>
					<path class="st2" d="M92.3,35h6.6c0.6,0,1.1-0.5,1.1-1.1l0,0c0-0.6-0.5-1.1-1.1-1.1h-6.6c-0.6,0-1.1,0.5-1.1,1.1l0,0
						C91.2,34.5,91.7,35,92.3,35z"/>
					<path class="st2" d="M92.3,54.2h6.6c0.6,0,1.1-0.5,1.1-1.1l0,0c0-0.6-0.5-1.1-1.1-1.1h-6.6c-0.6,0-1.1,0.5-1.1,1.1l0,0
						C91.2,53.7,91.7,54.2,92.3,54.2z"/>
					<path class="st2" d="M92.3,73.4h6.6c0.6,0,1.1-0.5,1.1-1.1l0,0c0-0.6-0.5-1.1-1.1-1.1h-6.6c-0.6,0-1.1,0.5-1.1,1.1l0,0
						C91.2,72.9,91.7,73.4,92.3,73.4z"/>
					<path class="st2" d="M92.3,92.6h6.6c0.6,0,1.1-0.5,1.1-1.1l0,0c0-0.6-0.5-1.1-1.1-1.1h-6.6c-0.6,0-1.1,0.5-1.1,1.1l0,0
						C91.2,92.1,91.7,92.6,92.3,92.6z"/>
					<path class="st2" d="M92.3,111.9h6.6c0.6,0,1.1-0.5,1.1-1.1l0,0c0-0.6-0.5-1.1-1.1-1.1h-6.6c-0.6,0-1.1,0.5-1.1,1.1l0,0
						C91.2,111.4,91.7,111.9,92.3,111.9z"/>
					<path class="st2" d="M113.6-32.6h6.6c0.6,0,1.1-0.5,1.1-1.1l0,0c0-0.6-0.5-1.1-1.1-1.1h-6.6c-0.6,0-1.1,0.5-1.1,1.1l0,0
						C112.5-33.1,113-32.6,113.6-32.6z"/>
					<path class="st2" d="M113.6-51.8h6.6c0.6,0,1.1-0.5,1.1-1.1l0,0c0-0.6-0.5-1.1-1.1-1.1h-6.6c-0.6,0-1.1,0.5-1.1,1.1l0,0
						C112.5-52.3,113-51.8,113.6-51.8z"/>
					<path class="st2" d="M113.6-13.4h6.6c0.6,0,1.1-0.5,1.1-1.1l0,0c0-0.6-0.5-1.1-1.1-1.1h-6.6c-0.6,0-1.1,0.5-1.1,1.1l0,0
						C112.5-13.9,113-13.4,113.6-13.4z"/>
					<path class="st2" d="M113.6,5.8h6.6c0.6,0,1.1-0.5,1.1-1.1l0,0c0-0.6-0.5-1.1-1.1-1.1h-6.6c-0.6,0-1.1,0.5-1.1,1.1l0,0
						C112.5,5.3,113,5.8,113.6,5.8z"/>
					<path class="st2" d="M113.6,25.1h6.6c0.6,0,1.1-0.5,1.1-1.1l0,0c0-0.6-0.5-1.1-1.1-1.1h-6.6c-0.6,0-1.1,0.5-1.1,1.1l0,0
						C112.5,24.6,113,25.1,113.6,25.1z"/>
					<path class="st2" d="M113.6,44.3h6.6c0.6,0,1.1-0.5,1.1-1.1l0,0c0-0.6-0.5-1.1-1.1-1.1h-6.6c-0.6,0-1.1,0.5-1.1,1.1l0,0
						C112.5,43.8,113,44.3,113.6,44.3z"/>
					<path class="st2" d="M113.6,63.5h6.6c0.6,0,1.1-0.5,1.1-1.1l0,0c0-0.6-0.5-1.1-1.1-1.1h-6.6c-0.6,0-1.1,0.5-1.1,1.1l0,0
						C112.5,63,113,63.5,113.6,63.5z"/>
					<path class="st2" d="M113.6,82.7h6.6c0.6,0,1.1-0.5,1.1-1.1l0,0c0-0.6-0.5-1.1-1.1-1.1h-6.6c-0.6,0-1.1,0.5-1.1,1.1l0,0
						C112.5,82.2,113,82.7,113.6,82.7z"/>
					<path class="st2" d="M113.6,102h6.6c0.6,0,1.1-0.5,1.1-1.1l0,0c0-0.6-0.5-1.1-1.1-1.1h-6.6c-0.6,0-1.1,0.5-1.1,1.1l0,0
						C112.5,101.5,113,102,113.6,102z"/>
					<path class="st2" d="M135-22.7h6.6c0.6,0,1.1-0.5,1.1-1.1l0,0c0-0.6-0.5-1.1-1.1-1.1H135c-0.6,0-1.1,0.5-1.1,1.1l0,0
						C133.8-23.2,134.3-22.7,135-22.7z"/>
					<path class="st2" d="M135-41.9h6.6c0.6,0,1.1-0.5,1.1-1.1l0,0c0-0.6-0.5-1.1-1.1-1.1H135c-0.6,0-1.1,0.5-1.1,1.1l0,0
						C133.8-42.4,134.3-41.9,135-41.9z"/>
					<path class="st2" d="M135-3.5h6.6c0.6,0,1.1-0.5,1.1-1.1l0,0c0-0.6-0.5-1.1-1.1-1.1H135c-0.6,0-1.1,0.5-1.1,1.1l0,0
						C133.8-4,134.3-3.5,135-3.5z"/>
					<path class="st2" d="M135,15.7h6.6c0.6,0,1.1-0.5,1.1-1.1l0,0c0-0.6-0.5-1.1-1.1-1.1H135c-0.6,0-1.1,0.5-1.1,1.1l0,0
						C133.8,15.2,134.3,15.7,135,15.7z"/>
					<path class="st2" d="M135,35h6.6c0.6,0,1.1-0.5,1.1-1.1l0,0c0-0.6-0.5-1.1-1.1-1.1H135c-0.6,0-1.1,0.5-1.1,1.1l0,0
						C133.8,34.5,134.3,35,135,35z"/>
					<path class="st2" d="M135,54.2h6.6c0.6,0,1.1-0.5,1.1-1.1l0,0c0-0.6-0.5-1.1-1.1-1.1H135c-0.6,0-1.1,0.5-1.1,1.1l0,0
						C133.8,53.7,134.3,54.2,135,54.2z"/>
					<path class="st2" d="M135,73.4h6.6c0.6,0,1.1-0.5,1.1-1.1l0,0c0-0.6-0.5-1.1-1.1-1.1H135c-0.6,0-1.1,0.5-1.1,1.1l0,0
						C133.8,72.9,134.3,73.4,135,73.4z"/>
					<path class="st2" d="M135,92.6h6.6c0.6,0,1.1-0.5,1.1-1.1l0,0c0-0.6-0.5-1.1-1.1-1.1H135c-0.6,0-1.1,0.5-1.1,1.1l0,0
						C133.8,92.1,134.3,92.6,135,92.6z"/>
					<path class="st2" d="M135,111.9h6.6c0.6,0,1.1-0.5,1.1-1.1l0,0c0-0.6-0.5-1.1-1.1-1.1H135c-0.6,0-1.1,0.5-1.1,1.1l0,0
						C133.8,111.4,134.3,111.9,135,111.9z"/>
					<path class="st2" d="M156.3-32.6h6.6c0.6,0,1.1-0.5,1.1-1.1l0,0c0-0.6-0.5-1.1-1.1-1.1h-6.6c-0.6,0-1.1,0.5-1.1,1.1l0,0
						C155.2-33.1,155.7-32.6,156.3-32.6z"/>
					<path class="st2" d="M156.3-51.8h6.6c0.6,0,1.1-0.5,1.1-1.1l0,0c0-0.6-0.5-1.1-1.1-1.1h-6.6c-0.6,0-1.1,0.5-1.1,1.1l0,0
						C155.2-52.3,155.7-51.8,156.3-51.8z"/>
					<path class="st2" d="M156.3-13.4h6.6c0.6,0,1.1-0.5,1.1-1.1l0,0c0-0.6-0.5-1.1-1.1-1.1h-6.6c-0.6,0-1.1,0.5-1.1,1.1l0,0
						C155.2-13.9,155.7-13.4,156.3-13.4z"/>
					<path class="st2" d="M156.3,5.8h6.6c0.6,0,1.1-0.5,1.1-1.1l0,0c0-0.6-0.5-1.1-1.1-1.1h-6.6c-0.6,0-1.1,0.5-1.1,1.1l0,0
						C155.2,5.3,155.7,5.8,156.3,5.8z"/>
					<path class="st2" d="M156.3,25.1h6.6c0.6,0,1.1-0.5,1.1-1.1l0,0c0-0.6-0.5-1.1-1.1-1.1h-6.6c-0.6,0-1.1,0.5-1.1,1.1l0,0
						C155.2,24.6,155.7,25.1,156.3,25.1z"/>
					<path class="st2" d="M156.3,44.3h6.6c0.6,0,1.1-0.5,1.1-1.1l0,0c0-0.6-0.5-1.1-1.1-1.1h-6.6c-0.6,0-1.1,0.5-1.1,1.1l0,0
						C155.2,43.8,155.7,44.3,156.3,44.3z"/>
					<path class="st2" d="M156.3,63.5h6.6c0.6,0,1.1-0.5,1.1-1.1l0,0c0-0.6-0.5-1.1-1.1-1.1h-6.6c-0.6,0-1.1,0.5-1.1,1.1l0,0
						C155.2,63,155.7,63.5,156.3,63.5z"/>
					<path class="st2" d="M156.3,82.7h6.6c0.6,0,1.1-0.5,1.1-1.1l0,0c0-0.6-0.5-1.1-1.1-1.1h-6.6c-0.6,0-1.1,0.5-1.1,1.1l0,0
						C155.2,82.2,155.7,82.7,156.3,82.7z"/>
					<path class="st2" d="M156.3,102h6.6c0.6,0,1.1-0.5,1.1-1.1l0,0c0-0.6-0.5-1.1-1.1-1.1h-6.6c-0.6,0-1.1,0.5-1.1,1.1l0,0
						C155.2,101.5,155.7,102,156.3,102z"/>
					<path class="st2" d="M177.6-22.7h6.6c0.6,0,1.1-0.5,1.1-1.1l0,0c0-0.6-0.5-1.1-1.1-1.1h-6.6c-0.6,0-1.1,0.5-1.1,1.1l0,0
						C176.5-23.2,177-22.7,177.6-22.7z"/>
					<path class="st2" d="M177.6-41.9h6.6c0.6,0,1.1-0.5,1.1-1.1l0,0c0-0.6-0.5-1.1-1.1-1.1h-6.6c-0.6,0-1.1,0.5-1.1,1.1l0,0
						C176.5-42.4,177-41.9,177.6-41.9z"/>
					<path class="st2" d="M177.6-3.5h6.6c0.6,0,1.1-0.5,1.1-1.1l0,0c0-0.6-0.5-1.1-1.1-1.1h-6.6c-0.6,0-1.1,0.5-1.1,1.1l0,0
						C176.5-4,177-3.5,177.6-3.5z"/>
					<path class="st2" d="M177.6,15.7h6.6c0.6,0,1.1-0.5,1.1-1.1l0,0c0-0.6-0.5-1.1-1.1-1.1h-6.6c-0.6,0-1.1,0.5-1.1,1.1l0,0
						C176.5,15.2,177,15.7,177.6,15.7z"/>
					<path class="st2" d="M177.6,35h6.6c0.6,0,1.1-0.5,1.1-1.1l0,0c0-0.6-0.5-1.1-1.1-1.1h-6.6c-0.6,0-1.1,0.5-1.1,1.1l0,0
						C176.5,34.5,177,35,177.6,35z"/>
					<path class="st2" d="M177.6,54.2h6.6c0.6,0,1.1-0.5,1.1-1.1l0,0c0-0.6-0.5-1.1-1.1-1.1h-6.6c-0.6,0-1.1,0.5-1.1,1.1l0,0
						C176.5,53.7,177,54.2,177.6,54.2z"/>
					<path class="st2" d="M177.6,73.4h6.6c0.6,0,1.1-0.5,1.1-1.1l0,0c0-0.6-0.5-1.1-1.1-1.1h-6.6c-0.6,0-1.1,0.5-1.1,1.1l0,0
						C176.5,72.9,177,73.4,177.6,73.4z"/>
					<path class="st2" d="M177.6,92.6h6.6c0.6,0,1.1-0.5,1.1-1.1l0,0c0-0.6-0.5-1.1-1.1-1.1h-6.6c-0.6,0-1.1,0.5-1.1,1.1l0,0
						C176.5,92.1,177,92.6,177.6,92.6z"/>
					<path class="st2" d="M177.6,111.9h6.6c0.6,0,1.1-0.5,1.1-1.1l0,0c0-0.6-0.5-1.1-1.1-1.1h-6.6c-0.6,0-1.1,0.5-1.1,1.1l0,0
						C176.5,111.4,177,111.9,177.6,111.9z"/>
				</g>
			</g>
		</g>
	</g>
	<g>
		<defs>
			<rect id="SVGID_5_" y="0.4" width="120" height="150"/>
		</defs>
		<clipPath id="SVGID_6_">
			<use xlink:href="#SVGID_5_"  style="overflow:visible;"/>
		</clipPath>
		<circle class="st3" cx="16.7" cy="126.3" r="44.2"/>
	</g>
	<g>
		<defs>
			<rect id="SVGID_7_" y="0.4" width="120" height="150"/>
		</defs>
		<clipPath id="SVGID_8_">
			<use xlink:href="#SVGID_7_"  style="overflow:visible;"/>
		</clipPath>
		<g class="st4">
			<path d="M61.3,115.6c4.7,0.9,9.7,0.2,13.8-2.7c8.5-5.9,9.8-18.7,3.1-28.2c-2.1-3.1-5-5.6-8.4-7.3c-0.6-0.3-1.3-0.1-1.6,0.5
				c-0.3,0.6-0.1,1.3,0.5,1.6c0,0,0,0,0.1,0c3,1.6,5.6,3.9,7.5,6.7c6,8.6,4.9,19.9-2.5,25.1c-7.4,5.2-18.4,2.5-24.4-6.1
				c-0.4-0.5-1.1-0.6-1.6-0.2c-0.5,0.4-0.6,1-0.3,1.5C50.9,111.2,56,114.5,61.3,115.6z"/>
			<path d="M52,78.2c0.3,0.6,1,0.8,1.6,0.6l0,0c1.9-0.9,3.8-1.5,5.9-1.6c0.7,0,1.1-0.6,1.1-1.2s-0.6-1.1-1.2-1.1l0,0
				c-2.4,0.1-4.7,0.7-6.8,1.8C52,76.9,51.7,77.7,52,78.2z"/>
			<path d="M70.3,67.8c1.6-1.2,2.6-3,3.1-4.8c1-4.2-1-8.3-4.5-9.2c-1.8-0.5-3.5,0-5.1,1.2s-2.6,3-3.1,4.8c-1,4.2,1,8.3,4.5,9.1h0.2
				C67.1,69.4,68.8,68.9,70.3,67.8z M71.2,62.4c-0.3,1.4-1.1,2.7-2.2,3.5c-1,0.7-2.1,1-3.2,0.7c-2.2-0.6-3.5-3.4-2.8-6.3
				c0.3-1.4,1.1-2.7,2.2-3.5c0.9-0.7,2-1,3.1-0.8h0.1C70.7,56.6,71.9,59.5,71.2,62.4z"/>
			<path d="M88.7,75.7L88.7,75.7c3.1-3.1,3.5-7.6,1-10.1c-1.3-1.3-3.1-1.9-5-1.7c-2,0.2-3.8,1.1-5.2,2.5c-3.1,3.1-3.5,7.6-1,10.1
				c0.8,0.8,1.9,1.4,3,1.6c0.7,0.1,1.4,0.2,2,0.1C85.5,78,87.3,77.1,88.7,75.7z M83.3,75.9c-1.3,0.1-2.3-0.3-3.2-1
				c-1.7-1.7-1.2-4.7,0.9-6.9c1-1,2.3-1.7,3.8-1.9c0.5,0,0.9,0,1.3,0.1c0.7,0.1,1.3,0.5,1.8,0.9c1.7,1.7,1.2,4.7-0.9,6.9
				C86.1,75.1,84.7,75.7,83.3,75.9z"/>
			<path d="M93.7,81.6c-4.2,0.9-7,4.6-6.1,8.2c0.6,2.4,2.7,4.2,5.3,4.6c1.3,0.3,2.6,0.2,3.8-0.1c4.2-0.9,7-4.6,6.1-8.2
				C102,82.7,97.9,80.6,93.7,81.6z M96.2,92.1c-3,0.7-5.8-0.7-6.3-2.9c-0.6-2.2,1.5-4.6,4.5-5.4c3-0.7,5.8,0.7,6.3,2.9
				C101.1,89,99.1,91.3,96.2,92.1z"/>
			<path d="M63.9,75.5c-0.6,0.4-0.7,1-0.3,1.6c0,0.1,0.1,0.1,0.2,0.2c0.1,0.1,0.1,0.1,0.2,0.2c0.1,0,0.1,0.1,0.2,0.1
				c0.1,0,0.2,0.1,0.2,0.1c0.7,0.1,1.2-0.3,1.4-0.9c0.1-0.7-0.3-1.2-0.9-1.4C64.5,75.3,64.2,75.4,63.9,75.5L63.9,75.5z"/>
			<path d="M22.6,108.1c-2.3-0.5-4.6,1-5.1,3.3c-0.5,2.3,1,4.6,3.3,5.1l19.8,4c2.3,0.5,4.6-1,5.1-3.3c0.5-2.3-1-4.6-3.3-5.1
				l-4.5-0.9l1.5-7.2l0.6,0.1c1.9,0.4,3.6-0.8,4-2.7l8.2-40c0.4-1.7-0.6-3.3-2.2-3.9l1.6-7.6c0.3-1.4-0.5-2.8-1.8-3.4l0.6-2.8
				c0.1-0.7-0.4-1.2-0.9-1.3c-0.6-0.1-1.1,0.3-1.3,0.8l-0.6,2.8l-3.8-0.7l0.6-2.8c0.1-0.3,0.4-0.5,0.7-0.5l0,0
				c1.4,0.3,2.7-0.7,3.1-2l2.5-12.4c0.1-0.7-0.4-1.2-0.9-1.3c-0.6-0.1-1.1,0.3-1.3,0.8l-2.5,12.4c0,0.1-0.2,0.2-0.3,0.2
				c-1.6-0.3-3.1,0.7-3.4,2.2l-0.6,2.8c-1.5,0-2.7,1-3,2.4l-1.6,7.6c-1.7-0.1-3.2,1-3.5,2.7l-8.2,40c-0.4,1.9,0.8,3.6,2.7,4l0,0
				l0.6,0.1l-1.5,7.2L22.6,108.1z M41.6,47l7.2,1.5c0.4,0.1,0.7,0.5,0.6,0.8L47.7,57l-8.6-1.8l1.6-7.6C40.8,47.2,41.2,46.9,41.6,47
				L41.6,47z M27.5,98l8.2-40c0.1-0.6,0.7-0.9,1.3-0.8l0,0l12.2,2.5c0.6,0.1,0.9,0.7,0.8,1.3l-1.1,5.3l-3-0.7
				c-0.7-0.2-1.2,0.2-1.4,0.8c-0.2,0.7,0.2,1.2,0.8,1.4h0.1l3,0.6L47,75.3l-3-0.6c-0.7-0.2-1.2,0.2-1.4,0.8
				c-0.2,0.7,0.2,1.2,0.8,1.4h0.1l3,0.6l-1.4,6.7l-3-0.6c-0.7-0.1-1.2,0.3-1.4,0.9c-0.2,0.7,0.3,1.2,0.9,1.4l3,0.6l-1.4,6.7l-3-0.6
				c-0.7-0.2-1.2,0.2-1.4,0.8s0.2,1.2,0.8,1.4h0.1l3,0.6l-1.1,5.4c-0.1,0.6-0.7,0.9-1.3,0.8l-12.2-2.5C27.8,99.1,27.4,98.6,27.5,98
				L27.5,98z M30.7,102.1l6.5,1.3l-1.7,8.4c-0.1,0.7,0.3,1.2,0.9,1.4l0,0l5.6,1.1c1.1,0.2,1.8,1.3,1.6,2.4c-0.2,1.1-1.3,1.8-2.4,1.6
				l0,0l-19.8-4c-1.1-0.2-1.8-1.3-1.6-2.4c0.2-1.1,1.3-1.8,2.4-1.6l9.6,2c0.7,0.2,1.2-0.2,1.4-0.8c0.2-0.7-0.2-1.2-0.8-1.4h-0.1
				l-3-0.6L30.7,102.1z"/>
		</g>
	</g>
</g>
</svg>
