<?xml version="1.0" encoding="utf-8"?>
<!-- Generator: Adobe Illustrator 24.1.0, SVG Export Plug-In . SVG Version: 6.00 Build 0)  -->
<svg version="1.1" id="Layer_1" xmlns="http://www.w3.org/2000/svg" xmlns:xlink="http://www.w3.org/1999/xlink" x="0px" y="0px"
	 viewBox="0 0 120 150" style="enable-background:new 0 0 120 150;" xml:space="preserve">
<style type="text/css">
	.st0{fill:none;stroke:#FFCFEB;stroke-width:3;stroke-miterlimit:10;}
</style>
<circle class="st0" cx="21" cy="125.1" r="44.2"/>
<g>
	<path d="M65.3,116.4c5.1,1,10.4,0.2,14.8-2.9c9.1-6.4,10.6-20.1,3.3-30.4c-2.3-3.3-5.4-6-9-7.9c-0.6-0.3-1.4-0.1-1.7,0.5
		c-0.3,0.6-0.1,1.4,0.5,1.7c0,0,0,0,0.1,0c3.2,1.7,6,4.2,8.1,7.2c6.5,9.3,5.3,21.4-2.7,27s-19.8,2.7-26.3-6.6
		c-0.4-0.5-1.2-0.6-1.7-0.2c-0.5,0.4-0.6,1.1-0.3,1.6C54.1,111.7,59.6,115.2,65.3,116.4z"/>
	<path d="M55.3,76.2c0.3,0.6,1.1,0.9,1.7,0.6c0,0,0,0,0,0c2-1,4.1-1.6,6.4-1.7c0.7,0,1.2-0.6,1.2-1.3c0-0.7-0.6-1.2-1.3-1.2l0,0
		c-2.6,0.1-5.1,0.8-7.3,1.9C55.3,74.9,55,75.6,55.3,76.2z"/>
	<path d="M75,65c1.7-1.3,2.8-3.2,3.3-5.2c1.1-4.5-1.1-8.9-4.8-9.9c-1.9-0.5-3.8,0-5.5,1.3c-1.7,1.3-2.8,3.2-3.3,5.2
		c-1.1,4.5,1.1,8.9,4.8,9.8l0.2,0C71.5,66.7,73.4,66.2,75,65z M75.9,59.2c-0.3,1.5-1.2,2.9-2.4,3.8c-1.1,0.8-2.3,1.1-3.4,0.8
		c-2.4-0.6-3.8-3.7-3-6.8c0.3-1.5,1.2-2.9,2.4-3.8c1-0.8,2.2-1.1,3.3-0.9l0.1,0C75.3,53,76.7,56,75.9,59.2z"/>
	<path d="M94.8,73.5L94.8,73.5c3.3-3.3,3.8-8.2,1.1-10.9c-1.4-1.4-3.3-2-5.4-1.8c-2.1,0.2-4.1,1.2-5.6,2.7
		c-3.3,3.3-3.8,8.2-1.1,10.9c0.9,0.9,2,1.5,3.2,1.7c0.7,0.1,1.5,0.2,2.2,0.1C91.3,75.9,93.3,75,94.8,73.5z M89,73.7
		c-1.4,0.1-2.5-0.3-3.4-1.1c-1.8-1.8-1.3-5.1,1-7.4c1.1-1.1,2.5-1.8,4.1-2c0.5,0,1,0,1.4,0.1c0.7,0.1,1.4,0.5,1.9,1
		c1.8,1.8,1.3,5.1-1,7.4C92,72.8,90.5,73.5,89,73.7z"/>
	<path d="M100.2,79.8c-4.5,1-7.5,5-6.6,8.8c0.6,2.6,2.9,4.5,5.7,5c1.4,0.3,2.8,0.2,4.1-0.1c4.5-1,7.5-5,6.6-8.8
		C109.1,81,104.7,78.7,100.2,79.8z M102.8,91.1c-3.2,0.7-6.2-0.7-6.8-3.1c-0.6-2.4,1.6-5,4.8-5.8c3.2-0.7,6.2,0.7,6.8,3.1
		C108.1,87.8,106,90.4,102.8,91.1z"/>
	<path d="M68.1,73.3c-0.6,0.4-0.7,1.1-0.3,1.7c0,0.1,0.1,0.1,0.2,0.2c0.1,0.1,0.1,0.1,0.2,0.2c0.1,0,0.1,0.1,0.2,0.1
		c0.1,0,0.2,0.1,0.2,0.1c0.7,0.1,1.3-0.3,1.5-1c0.1-0.7-0.3-1.3-1-1.5C68.7,73,68.3,73.1,68.1,73.3L68.1,73.3z"/>
	<path d="M23.6,108.3c-2.5-0.5-5,1.1-5.5,3.6c-0.5,2.5,1.1,5,3.6,5.5l21.3,4.3c2.5,0.5,5-1.1,5.5-3.6c0.5-2.5-1.1-5-3.6-5.5l-4.8-1
		l1.6-7.8l0.6,0.1c2,0.4,3.9-0.9,4.3-2.9L55.5,58c0.4-1.8-0.6-3.6-2.4-4.2l1.7-8.2c0.3-1.5-0.5-3-1.9-3.7l0.6-3
		c0.1-0.7-0.4-1.3-1-1.4c-0.6-0.1-1.2,0.3-1.4,0.9l-0.6,3l-4.2-0.8l0.6-3c0.1-0.3,0.4-0.5,0.7-0.5c0,0,0,0,0,0
		c1.5,0.3,2.9-0.7,3.3-2.2l2.7-13.3c0.1-0.7-0.4-1.3-1-1.4c-0.6-0.1-1.2,0.3-1.4,0.9l-2.7,13.3c0,0.1-0.2,0.2-0.3,0.2
		c-1.7-0.3-3.3,0.7-3.7,2.4l-0.6,3c-1.6,0-2.9,1.1-3.2,2.6L39,51c-1.8-0.1-3.4,1.1-3.8,2.9L26.4,97c-0.4,2,0.9,3.9,2.9,4.3
		c0,0,0,0,0,0l0.6,0.1l-1.6,7.8L23.6,108.3z M44,42.6l7.7,1.6c0.4,0.1,0.7,0.5,0.6,0.9l-1.7,8.2l-9.3-1.9l1.7-8.2
		C43.2,42.8,43.6,42.6,44,42.6C44,42.6,44,42.6,44,42.6z M28.9,97.5l8.8-43.1c0.1-0.6,0.7-1,1.4-0.9c0,0,0,0,0,0l13.1,2.7
		c0.6,0.1,1,0.8,0.9,1.4l-1.2,5.8l-3.2-0.7c-0.7-0.2-1.3,0.2-1.5,0.9c-0.2,0.7,0.2,1.3,0.9,1.5c0,0,0.1,0,0.1,0l3.2,0.6L49.9,73
		l-3.2-0.6c-0.7-0.2-1.3,0.2-1.5,0.9c-0.2,0.7,0.2,1.3,0.9,1.5c0,0,0.1,0,0.1,0l3.2,0.6l-1.5,7.2L44.8,82c-0.7-0.1-1.3,0.3-1.5,1
		s0.3,1.3,1,1.5l3.2,0.6L46,92.4l-3.2-0.6c-0.7-0.2-1.3,0.2-1.5,0.9c-0.2,0.7,0.2,1.3,0.9,1.5c0,0,0.1,0,0.1,0l3.2,0.6l-1.2,5.8
		c-0.1,0.6-0.8,1-1.4,0.9l-13.1-2.7C29.2,98.7,28.7,98.1,28.9,97.5C28.9,97.5,28.9,97.5,28.9,97.5z M32.4,101.9l7,1.4l-1.8,9
		c-0.1,0.7,0.3,1.3,1,1.5c0,0,0,0,0,0l6,1.2c1.2,0.2,1.9,1.4,1.7,2.6c-0.2,1.2-1.4,1.9-2.6,1.7l0,0L22.2,115
		c-1.2-0.2-1.9-1.4-1.7-2.6c0.2-1.2,1.4-1.9,2.6-1.7l10.3,2.1c0.7,0.2,1.3-0.2,1.5-0.9c0.2-0.7-0.2-1.3-0.9-1.5c0,0-0.1,0-0.1,0
		l-3.2-0.6L32.4,101.9z"/>
</g>
</svg>
