<?xml version="1.0" encoding="utf-8"?>
<!-- Generator: Adobe Illustrator 24.1.0, SVG Export Plug-In . SVG Version: 6.00 Build 0)  -->
<svg version="1.1" id="Layer_1" xmlns="http://www.w3.org/2000/svg" xmlns:xlink="http://www.w3.org/1999/xlink" x="0px" y="0px"
	 viewBox="0 0 120 150" style="enable-background:new 0 0 120 150;" xml:space="preserve">
<style type="text/css">
	.st0{clip-path:url(#SVGID_1_);}
	.st1{clip-path:url(#SVGID_2_);}
	.st2{fill:#FFCFEB;}
	.st3{clip-path:url(#SVGID_1_);fill:none;stroke:#FFCFEB;stroke-width:3;stroke-miterlimit:10;}
</style>
<g>
	<defs>
		<rect id="SVGID_5_" y="0.4" width="120" height="150"/>
	</defs>
	<clipPath id="SVGID_1_">
		<use xlink:href="#SVGID_5_"  style="overflow:visible;"/>
	</clipPath>
	<g class="st0">
		<defs>
			<rect id="SVGID_7_" x="67.6" y="-43.1" width="82.5" height="87.4"/>
		</defs>
		<clipPath id="SVGID_2_">
			<use xlink:href="#SVGID_7_"  style="overflow:visible;"/>
		</clipPath>
		<g class="st1">
			<path class="st2" d="M71-32.6h6.6c0.6,0,1.1-0.5,1.1-1.1v0c0-0.6-0.5-1.1-1.1-1.1H71c-0.6,0-1.1,0.5-1.1,1.1v0
				C69.8-33.1,70.3-32.6,71-32.6z"/>
			<path class="st2" d="M71-51.8h6.6c0.6,0,1.1-0.5,1.1-1.1v0c0-0.6-0.5-1.1-1.1-1.1H71c-0.6,0-1.1,0.5-1.1,1.1v0
				C69.8-52.3,70.3-51.8,71-51.8z"/>
			<path class="st2" d="M71-13.4h6.6c0.6,0,1.1-0.5,1.1-1.1v0c0-0.6-0.5-1.1-1.1-1.1H71c-0.6,0-1.1,0.5-1.1,1.1v0
				C69.8-13.9,70.3-13.4,71-13.4z"/>
			<path class="st2" d="M71,5.8h6.6c0.6,0,1.1-0.5,1.1-1.1v0c0-0.6-0.5-1.1-1.1-1.1H71c-0.6,0-1.1,0.5-1.1,1.1v0
				C69.8,5.3,70.3,5.8,71,5.8z"/>
			<path class="st2" d="M71,25.1h6.6c0.6,0,1.1-0.5,1.1-1.1v0c0-0.6-0.5-1.1-1.1-1.1H71c-0.6,0-1.1,0.5-1.1,1.1v0
				C69.8,24.6,70.3,25.1,71,25.1z"/>
			<path class="st2" d="M71,44.3h6.6c0.6,0,1.1-0.5,1.1-1.1l0,0c0-0.6-0.5-1.1-1.1-1.1H71c-0.6,0-1.1,0.5-1.1,1.1l0,0
				C69.8,43.8,70.3,44.3,71,44.3z"/>
			<path class="st2" d="M71,63.5h6.6c0.6,0,1.1-0.5,1.1-1.1v0c0-0.6-0.5-1.1-1.1-1.1H71c-0.6,0-1.1,0.5-1.1,1.1v0
				C69.8,63,70.3,63.5,71,63.5z"/>
			<path class="st2" d="M71,82.7h6.6c0.6,0,1.1-0.5,1.1-1.1v0c0-0.6-0.5-1.1-1.1-1.1H71c-0.6,0-1.1,0.5-1.1,1.1v0
				C69.8,82.2,70.3,82.7,71,82.7z"/>
			<path class="st2" d="M71,102h6.6c0.6,0,1.1-0.5,1.1-1.1l0,0c0-0.6-0.5-1.1-1.1-1.1H71c-0.6,0-1.1,0.5-1.1,1.1l0,0
				C69.8,101.5,70.3,102,71,102z"/>
			<path class="st2" d="M92.3-22.7h6.6c0.6,0,1.1-0.5,1.1-1.1v0c0-0.6-0.5-1.1-1.1-1.1h-6.6c-0.6,0-1.1,0.5-1.1,1.1v0
				C91.2-23.2,91.7-22.7,92.3-22.7z"/>
			<path class="st2" d="M92.3-41.9h6.6c0.6,0,1.1-0.5,1.1-1.1v0c0-0.6-0.5-1.1-1.1-1.1h-6.6c-0.6,0-1.1,0.5-1.1,1.1v0
				C91.2-42.4,91.7-41.9,92.3-41.9z"/>
			<path class="st2" d="M92.3-3.5h6.6c0.6,0,1.1-0.5,1.1-1.1v0c0-0.6-0.5-1.1-1.1-1.1h-6.6c-0.6,0-1.1,0.5-1.1,1.1v0
				C91.2-4,91.7-3.5,92.3-3.5z"/>
			<path class="st2" d="M92.3,15.7h6.6c0.6,0,1.1-0.5,1.1-1.1v0c0-0.6-0.5-1.1-1.1-1.1h-6.6c-0.6,0-1.1,0.5-1.1,1.1v0
				C91.2,15.2,91.7,15.7,92.3,15.7z"/>
			<path class="st2" d="M92.3,35h6.6c0.6,0,1.1-0.5,1.1-1.1l0,0c0-0.6-0.5-1.1-1.1-1.1h-6.6c-0.6,0-1.1,0.5-1.1,1.1l0,0
				C91.2,34.5,91.7,35,92.3,35z"/>
			<path class="st2" d="M92.3,54.2h6.6c0.6,0,1.1-0.5,1.1-1.1v0c0-0.6-0.5-1.1-1.1-1.1h-6.6c-0.6,0-1.1,0.5-1.1,1.1v0
				C91.2,53.7,91.7,54.2,92.3,54.2z"/>
			<path class="st2" d="M92.3,73.4h6.6c0.6,0,1.1-0.5,1.1-1.1v0c0-0.6-0.5-1.1-1.1-1.1h-6.6c-0.6,0-1.1,0.5-1.1,1.1v0
				C91.2,72.9,91.7,73.4,92.3,73.4z"/>
			<path class="st2" d="M92.3,92.6h6.6c0.6,0,1.1-0.5,1.1-1.1l0,0c0-0.6-0.5-1.1-1.1-1.1h-6.6c-0.6,0-1.1,0.5-1.1,1.1l0,0
				C91.2,92.1,91.7,92.6,92.3,92.6z"/>
			<path class="st2" d="M92.3,111.9h6.6c0.6,0,1.1-0.5,1.1-1.1l0,0c0-0.6-0.5-1.1-1.1-1.1h-6.6c-0.6,0-1.1,0.5-1.1,1.1l0,0
				C91.2,111.4,91.7,111.9,92.3,111.9z"/>
			<path class="st2" d="M113.6-32.6h6.6c0.6,0,1.1-0.5,1.1-1.1v0c0-0.6-0.5-1.1-1.1-1.1h-6.6c-0.6,0-1.1,0.5-1.1,1.1v0
				C112.5-33.1,113-32.6,113.6-32.6z"/>
			<path class="st2" d="M113.6-51.8h6.6c0.6,0,1.1-0.5,1.1-1.1v0c0-0.6-0.5-1.1-1.1-1.1h-6.6c-0.6,0-1.1,0.5-1.1,1.1v0
				C112.5-52.3,113-51.8,113.6-51.8z"/>
			<path class="st2" d="M113.6-13.4h6.6c0.6,0,1.1-0.5,1.1-1.1v0c0-0.6-0.5-1.1-1.1-1.1h-6.6c-0.6,0-1.1,0.5-1.1,1.1v0
				C112.5-13.9,113-13.4,113.6-13.4z"/>
			<path class="st2" d="M113.6,5.8h6.6c0.6,0,1.1-0.5,1.1-1.1v0c0-0.6-0.5-1.1-1.1-1.1h-6.6c-0.6,0-1.1,0.5-1.1,1.1v0
				C112.5,5.3,113,5.8,113.6,5.8z"/>
			<path class="st2" d="M113.6,25.1h6.6c0.6,0,1.1-0.5,1.1-1.1v0c0-0.6-0.5-1.1-1.1-1.1h-6.6c-0.6,0-1.1,0.5-1.1,1.1v0
				C112.5,24.6,113,25.1,113.6,25.1z"/>
			<path class="st2" d="M113.6,44.3h6.6c0.6,0,1.1-0.5,1.1-1.1l0,0c0-0.6-0.5-1.1-1.1-1.1h-6.6c-0.6,0-1.1,0.5-1.1,1.1l0,0
				C112.5,43.8,113,44.3,113.6,44.3z"/>
			<path class="st2" d="M113.6,63.5h6.6c0.6,0,1.1-0.5,1.1-1.1v0c0-0.6-0.5-1.1-1.1-1.1h-6.6c-0.6,0-1.1,0.5-1.1,1.1v0
				C112.5,63,113,63.5,113.6,63.5z"/>
			<path class="st2" d="M113.6,82.7h6.6c0.6,0,1.1-0.5,1.1-1.1v0c0-0.6-0.5-1.1-1.1-1.1h-6.6c-0.6,0-1.1,0.5-1.1,1.1v0
				C112.5,82.2,113,82.7,113.6,82.7z"/>
			<path class="st2" d="M113.6,102h6.6c0.6,0,1.1-0.5,1.1-1.1l0,0c0-0.6-0.5-1.1-1.1-1.1h-6.6c-0.6,0-1.1,0.5-1.1,1.1l0,0
				C112.5,101.5,113,102,113.6,102z"/>
			<path class="st2" d="M135-22.7h6.6c0.6,0,1.1-0.5,1.1-1.1v0c0-0.6-0.5-1.1-1.1-1.1H135c-0.6,0-1.1,0.5-1.1,1.1v0
				C133.8-23.2,134.3-22.7,135-22.7z"/>
			<path class="st2" d="M135-41.9h6.6c0.6,0,1.1-0.5,1.1-1.1v0c0-0.6-0.5-1.1-1.1-1.1H135c-0.6,0-1.1,0.5-1.1,1.1v0
				C133.8-42.4,134.3-41.9,135-41.9z"/>
			<path class="st2" d="M135-3.5h6.6c0.6,0,1.1-0.5,1.1-1.1v0c0-0.6-0.5-1.1-1.1-1.1H135c-0.6,0-1.1,0.5-1.1,1.1v0
				C133.8-4,134.3-3.5,135-3.5z"/>
			<path class="st2" d="M135,15.7h6.6c0.6,0,1.1-0.5,1.1-1.1v0c0-0.6-0.5-1.1-1.1-1.1H135c-0.6,0-1.1,0.5-1.1,1.1v0
				C133.8,15.2,134.3,15.7,135,15.7z"/>
			<path class="st2" d="M135,35h6.6c0.6,0,1.1-0.5,1.1-1.1l0,0c0-0.6-0.5-1.1-1.1-1.1H135c-0.6,0-1.1,0.5-1.1,1.1l0,0
				C133.8,34.5,134.3,35,135,35z"/>
			<path class="st2" d="M135,54.2h6.6c0.6,0,1.1-0.5,1.1-1.1v0c0-0.6-0.5-1.1-1.1-1.1H135c-0.6,0-1.1,0.5-1.1,1.1v0
				C133.8,53.7,134.3,54.2,135,54.2z"/>
			<path class="st2" d="M135,73.4h6.6c0.6,0,1.1-0.5,1.1-1.1v0c0-0.6-0.5-1.1-1.1-1.1H135c-0.6,0-1.1,0.5-1.1,1.1v0
				C133.8,72.9,134.3,73.4,135,73.4z"/>
			<path class="st2" d="M135,92.6h6.6c0.6,0,1.1-0.5,1.1-1.1l0,0c0-0.6-0.5-1.1-1.1-1.1H135c-0.6,0-1.1,0.5-1.1,1.1l0,0
				C133.8,92.1,134.3,92.6,135,92.6z"/>
			<path class="st2" d="M135,111.9h6.6c0.6,0,1.1-0.5,1.1-1.1l0,0c0-0.6-0.5-1.1-1.1-1.1H135c-0.6,0-1.1,0.5-1.1,1.1l0,0
				C133.8,111.4,134.3,111.9,135,111.9z"/>
			<path class="st2" d="M156.3-32.6h6.6c0.6,0,1.1-0.5,1.1-1.1v0c0-0.6-0.5-1.1-1.1-1.1h-6.6c-0.6,0-1.1,0.5-1.1,1.1v0
				C155.2-33.1,155.7-32.6,156.3-32.6z"/>
			<path class="st2" d="M156.3-51.8h6.6c0.6,0,1.1-0.5,1.1-1.1v0c0-0.6-0.5-1.1-1.1-1.1h-6.6c-0.6,0-1.1,0.5-1.1,1.1v0
				C155.2-52.3,155.7-51.8,156.3-51.8z"/>
			<path class="st2" d="M156.3-13.4h6.6c0.6,0,1.1-0.5,1.1-1.1v0c0-0.6-0.5-1.1-1.1-1.1h-6.6c-0.6,0-1.1,0.5-1.1,1.1v0
				C155.2-13.9,155.7-13.4,156.3-13.4z"/>
			<path class="st2" d="M156.3,5.8h6.6c0.6,0,1.1-0.5,1.1-1.1v0c0-0.6-0.5-1.1-1.1-1.1h-6.6c-0.6,0-1.1,0.5-1.1,1.1v0
				C155.2,5.3,155.7,5.8,156.3,5.8z"/>
			<path class="st2" d="M156.3,25.1h6.6c0.6,0,1.1-0.5,1.1-1.1v0c0-0.6-0.5-1.1-1.1-1.1h-6.6c-0.6,0-1.1,0.5-1.1,1.1v0
				C155.2,24.6,155.7,25.1,156.3,25.1z"/>
			<path class="st2" d="M156.3,44.3h6.6c0.6,0,1.1-0.5,1.1-1.1l0,0c0-0.6-0.5-1.1-1.1-1.1h-6.6c-0.6,0-1.1,0.5-1.1,1.1l0,0
				C155.2,43.8,155.7,44.3,156.3,44.3z"/>
			<path class="st2" d="M156.3,63.5h6.6c0.6,0,1.1-0.5,1.1-1.1v0c0-0.6-0.5-1.1-1.1-1.1h-6.6c-0.6,0-1.1,0.5-1.1,1.1v0
				C155.2,63,155.7,63.5,156.3,63.5z"/>
			<path class="st2" d="M156.3,82.7h6.6c0.6,0,1.1-0.5,1.1-1.1v0c0-0.6-0.5-1.1-1.1-1.1h-6.6c-0.6,0-1.1,0.5-1.1,1.1v0
				C155.2,82.2,155.7,82.7,156.3,82.7z"/>
			<path class="st2" d="M156.3,102h6.6c0.6,0,1.1-0.5,1.1-1.1l0,0c0-0.6-0.5-1.1-1.1-1.1h-6.6c-0.6,0-1.1,0.5-1.1,1.1l0,0
				C155.2,101.5,155.7,102,156.3,102z"/>
			<path class="st2" d="M177.6-22.7h6.6c0.6,0,1.1-0.5,1.1-1.1v0c0-0.6-0.5-1.1-1.1-1.1h-6.6c-0.6,0-1.1,0.5-1.1,1.1v0
				C176.5-23.2,177-22.7,177.6-22.7z"/>
			<path class="st2" d="M177.6-41.9h6.6c0.6,0,1.1-0.5,1.1-1.1v0c0-0.6-0.5-1.1-1.1-1.1h-6.6c-0.6,0-1.1,0.5-1.1,1.1v0
				C176.5-42.4,177-41.9,177.6-41.9z"/>
			<path class="st2" d="M177.6-3.5h6.6c0.6,0,1.1-0.5,1.1-1.1v0c0-0.6-0.5-1.1-1.1-1.1h-6.6c-0.6,0-1.1,0.5-1.1,1.1v0
				C176.5-4,177-3.5,177.6-3.5z"/>
			<path class="st2" d="M177.6,15.7h6.6c0.6,0,1.1-0.5,1.1-1.1v0c0-0.6-0.5-1.1-1.1-1.1h-6.6c-0.6,0-1.1,0.5-1.1,1.1v0
				C176.5,15.2,177,15.7,177.6,15.7z"/>
			<path class="st2" d="M177.6,35h6.6c0.6,0,1.1-0.5,1.1-1.1l0,0c0-0.6-0.5-1.1-1.1-1.1h-6.6c-0.6,0-1.1,0.5-1.1,1.1l0,0
				C176.5,34.5,177,35,177.6,35z"/>
			<path class="st2" d="M177.6,54.2h6.6c0.6,0,1.1-0.5,1.1-1.1v0c0-0.6-0.5-1.1-1.1-1.1h-6.6c-0.6,0-1.1,0.5-1.1,1.1v0
				C176.5,53.7,177,54.2,177.6,54.2z"/>
			<path class="st2" d="M177.6,73.4h6.6c0.6,0,1.1-0.5,1.1-1.1v0c0-0.6-0.5-1.1-1.1-1.1h-6.6c-0.6,0-1.1,0.5-1.1,1.1v0
				C176.5,72.9,177,73.4,177.6,73.4z"/>
			<path class="st2" d="M177.6,92.6h6.6c0.6,0,1.1-0.5,1.1-1.1l0,0c0-0.6-0.5-1.1-1.1-1.1h-6.6c-0.6,0-1.1,0.5-1.1,1.1l0,0
				C176.5,92.1,177,92.6,177.6,92.6z"/>
			<path class="st2" d="M177.6,111.9h6.6c0.6,0,1.1-0.5,1.1-1.1l0,0c0-0.6-0.5-1.1-1.1-1.1h-6.6c-0.6,0-1.1,0.5-1.1,1.1l0,0
				C176.5,111.4,177,111.9,177.6,111.9z"/>
		</g>
	</g>
	<circle class="st3" cx="16.7" cy="126.3" r="44.2"/>
	<g class="st0">
		<path d="M61.4,118.8c5.1,1,10.4,0.2,14.8-2.9c9.1-6.4,10.6-20.1,3.3-30.4c-2.3-3.3-5.4-6-9-7.9c-0.6-0.3-1.4-0.1-1.7,0.5
			c-0.3,0.6-0.1,1.4,0.5,1.7c0,0,0,0,0.1,0c3.2,1.7,6,4.2,8.1,7.2c6.5,9.3,5.3,21.4-2.7,27s-19.8,2.7-26.3-6.6
			c-0.4-0.5-1.2-0.6-1.7-0.2c-0.5,0.4-0.6,1.1-0.3,1.6C50.2,114.1,55.7,117.6,61.4,118.8z"/>
		<path d="M51.4,78.6c0.3,0.6,1.1,0.9,1.7,0.6c0,0,0,0,0,0c2-1,4.1-1.6,6.4-1.7c0.7,0,1.2-0.6,1.2-1.3c0-0.7-0.6-1.2-1.3-1.2l0,0
			c-2.6,0.1-5.1,0.8-7.3,1.9C51.4,77.2,51.1,78,51.4,78.6z"/>
		<path d="M71.1,67.4c1.7-1.3,2.8-3.2,3.3-5.2c1.1-4.5-1.1-8.9-4.8-9.9c-1.9-0.5-3.8,0-5.5,1.3c-1.7,1.3-2.8,3.2-3.3,5.2
			c-1.1,4.5,1.1,8.9,4.8,9.8l0.2,0C67.6,69.1,69.5,68.6,71.1,67.4z M72,61.6c-0.3,1.5-1.2,2.9-2.4,3.8c-1.1,0.8-2.3,1.1-3.4,0.8
			c-2.4-0.6-3.8-3.7-3-6.8c0.3-1.5,1.2-2.9,2.4-3.8c1-0.8,2.2-1.1,3.3-0.9l0.1,0C71.5,55.3,72.8,58.4,72,61.6z"/>
		<path d="M90.9,75.9L90.9,75.9c3.3-3.3,3.8-8.2,1.1-10.9c-1.4-1.4-3.3-2-5.4-1.8c-2.1,0.2-4.1,1.2-5.6,2.7
			c-3.3,3.3-3.8,8.2-1.1,10.9c0.9,0.9,2,1.5,3.2,1.7c0.7,0.1,1.5,0.2,2.2,0.1C87.4,78.3,89.4,77.4,90.9,75.9z M85.1,76.1
			c-1.4,0.1-2.5-0.3-3.4-1.1c-1.8-1.8-1.3-5.1,1-7.4c1.1-1.1,2.5-1.8,4.1-2c0.5,0,1,0,1.4,0.1c0.7,0.1,1.4,0.5,1.9,1
			c1.8,1.8,1.3,5.1-1,7.4C88.1,75.2,86.6,75.9,85.1,76.1z"/>
		<path d="M96.3,82.2c-4.5,1-7.5,5-6.6,8.8c0.6,2.6,2.9,4.5,5.7,5c1.4,0.3,2.8,0.2,4.1-0.1c4.5-1,7.5-5,6.6-8.8
			C105.2,83.4,100.8,81.1,96.3,82.2z M98.9,93.5c-3.2,0.7-6.2-0.7-6.8-3.1c-0.6-2.4,1.6-5,4.8-5.8c3.2-0.7,6.2,0.7,6.8,3.1
			C104.2,90.2,102.1,92.7,98.9,93.5z"/>
		<path d="M64.2,75.7c-0.6,0.4-0.7,1.1-0.3,1.7c0,0.1,0.1,0.1,0.2,0.2c0.1,0.1,0.1,0.1,0.2,0.2c0.1,0,0.1,0.1,0.2,0.1
			c0.1,0,0.2,0.1,0.2,0.1c0.7,0.1,1.3-0.3,1.5-1c0.1-0.7-0.3-1.3-1-1.5C64.8,75.4,64.5,75.5,64.2,75.7L64.2,75.7z"/>
		<path d="M19.7,110.7c-2.5-0.5-5,1.1-5.5,3.6c-0.5,2.5,1.1,5,3.6,5.5l21.3,4.3c2.5,0.5,5-1.1,5.5-3.6c0.5-2.5-1.1-5-3.6-5.5l-4.8-1
			l1.6-7.8l0.6,0.1c2,0.4,3.9-0.9,4.3-2.9l8.8-43.1c0.4-1.8-0.6-3.6-2.4-4.2l1.7-8.2c0.3-1.5-0.5-3-1.9-3.7l0.6-3
			c0.1-0.7-0.4-1.3-1-1.4c-0.6-0.1-1.2,0.3-1.4,0.9l-0.6,3L42.4,43l0.6-3c0.1-0.3,0.4-0.5,0.7-0.5c0,0,0,0,0,0
			c1.5,0.3,2.9-0.7,3.3-2.2l2.7-13.3c0.1-0.7-0.4-1.3-1-1.4c-0.6-0.1-1.2,0.3-1.4,0.9l-2.7,13.3c0,0.1-0.2,0.2-0.3,0.2
			c-1.7-0.3-3.3,0.7-3.7,2.4l-0.6,3c-1.6,0-2.9,1.1-3.2,2.6l-1.7,8.2c-1.8-0.1-3.4,1.1-3.8,2.9l-8.8,43.1c-0.4,2,0.9,3.9,2.9,4.3
			c0,0,0,0,0,0l0.6,0.1l-1.6,7.8L19.7,110.7z M40.2,45l7.7,1.6c0.4,0.1,0.7,0.5,0.6,0.9l-1.7,8.2l-9.3-1.9l1.7-8.2
			C39.3,45.2,39.7,44.9,40.2,45C40.2,45,40.2,45,40.2,45z M25,99.9l8.8-43.1c0.1-0.6,0.7-1,1.4-0.9c0,0,0,0,0,0l13.1,2.7
			c0.6,0.1,1,0.8,0.9,1.4L48,65.7l-3.2-0.7c-0.7-0.2-1.3,0.2-1.5,0.9c-0.2,0.7,0.2,1.3,0.9,1.5c0,0,0.1,0,0.1,0l3.2,0.6L46,75.4
			l-3.2-0.6c-0.7-0.2-1.3,0.2-1.5,0.9c-0.2,0.7,0.2,1.3,0.9,1.5c0,0,0.1,0,0.1,0l3.2,0.6l-1.5,7.2l-3.2-0.6c-0.7-0.1-1.3,0.3-1.5,1
			s0.3,1.3,1,1.5l3.2,0.6l-1.5,7.2l-3.2-0.6c-0.7-0.2-1.3,0.2-1.5,0.9s0.2,1.3,0.9,1.5c0,0,0.1,0,0.1,0l3.2,0.6l-1.2,5.8
			c-0.1,0.6-0.8,1-1.4,0.9l-13.1-2.7C25.3,101.1,24.9,100.5,25,99.9C25,99.9,25,99.9,25,99.9z M28.5,104.3l7,1.4l-1.8,9
			c-0.1,0.7,0.3,1.3,1,1.5c0,0,0,0,0,0l6,1.2c1.2,0.2,1.9,1.4,1.7,2.6c-0.2,1.2-1.4,1.9-2.6,1.7l0,0l-21.3-4.3
			c-1.2-0.2-1.9-1.4-1.7-2.6c0.2-1.2,1.4-1.9,2.6-1.7l10.3,2.1c0.7,0.2,1.3-0.2,1.5-0.9c0.2-0.7-0.2-1.3-0.9-1.5c0,0-0.1,0-0.1,0
			l-3.2-0.6L28.5,104.3z"/>
	</g>
</g>
</svg>
